<?xml version="1.0" encoding="UTF-8" standalone="no"?>
<!DOCTYPE svg PUBLIC "-//W3C//DTD SVG 1.1//EN"
 "http://www.w3.org/Graphics/SVG/1.1/DTD/svg11.dtd">
<!-- Generated by graphviz version 7.0.4 (20221203.1631)
 -->
<!-- Title: FST Pages: 1 -->
<svg width="409pt" height="119pt"
 viewBox="0.00 0.00 409.00 119.00" xmlns="http://www.w3.org/2000/svg" xmlns:xlink="http://www.w3.org/1999/xlink">
<g id="graph0" class="graph" transform="scale(1 1) rotate(0) translate(4 115)">
<title>FST</title>
<polygon fill="white" stroke="none" points="-4,4 -4,-115 405,-115 405,4 -4,4"/>
<!-- 0 -->
<g id="node1" class="node">
<title>0</title>
<ellipse fill="none" stroke="black" stroke-width="2" cx="18" cy="-58" rx="18" ry="18"/>
<text text-anchor="middle" x="18" y="-54.3" font-family="Times,serif" font-size="14.00">0</text>
</g>
<!-- 2 -->
<g id="node2" class="node">
<title>2</title>
<ellipse fill="none" stroke="black" cx="292" cy="-56" rx="18" ry="18"/>
<text text-anchor="middle" x="292" y="-52.3" font-family="Times,serif" font-size="14.00">2</text>
</g>
<!-- 0&#45;&gt;2 -->
<g id="edge1" class="edge">
<title>0&#45;&gt;2</title>
<path fill="none" stroke="black" d="M35.36,-63.62C50.59,-68.53 74.03,-75.29 95,-78 152.74,-85.47 168.55,-87.46 226,-78 238.96,-75.87 252.81,-71.49 264.39,-67.2"/>
<polygon fill="black" stroke="black" points="265.63,-70.47 273.67,-63.57 263.08,-63.95 265.63,-70.47"/>
<text text-anchor="middle" x="160.5" y="-87.8" font-family="Times,serif" font-size="14.00">eps/3</text>
</g>
<!-- 4 -->
<g id="node3" class="node">
<title>4</title>
<ellipse fill="none" stroke="black" cx="113" cy="-18" rx="18" ry="18"/>
<text text-anchor="middle" x="113" y="-14.3" font-family="Times,serif" font-size="14.00">4</text>
</g>
<!-- 0&#45;&gt;4 -->
<g id="edge2" class="edge">
<title>0&#45;&gt;4</title>
<path fill="none" stroke="black" d="M34.78,-51.21C48.67,-45.24 69.19,-36.41 85.59,-29.36"/>
<polygon fill="black" stroke="black" points="86.95,-32.58 94.76,-25.42 84.19,-26.15 86.95,-32.58"/>
<text text-anchor="middle" x="65.5" y="-46.8" font-family="Times,serif" font-size="14.00">eps/2</text>
</g>
<!-- 1 -->
<g id="node4" class="node">
<title>1</title>
<ellipse fill="none" stroke="black" cx="379" cy="-56" rx="18" ry="18"/>
<ellipse fill="none" stroke="black" cx="379" cy="-56" rx="22" ry="22"/>
<text text-anchor="middle" x="379" y="-52.3" font-family="Times,serif" font-size="14.00">1</text>
</g>
<!-- 2&#45;&gt;1 -->
<g id="edge4" class="edge">
<title>2&#45;&gt;1</title>
<path fill="none" stroke="black" d="M310.2,-56C320.24,-56 333.25,-56 345.18,-56"/>
<polygon fill="black" stroke="black" points="345.09,-59.5 355.09,-56 345.09,-52.5 345.09,-59.5"/>
<text text-anchor="middle" x="333.5" y="-59.8" font-family="Times,serif" font-size="14.00">a/1</text>
</g>
<!-- 4&#45;&gt;4 -->
<g id="edge9" class="edge">
<title>4&#45;&gt;4</title>
<path fill="none" stroke="black" d="M104.72,-34.29C102.73,-44.39 105.49,-54 113,-54 117.46,-54 120.25,-50.61 121.36,-45.74"/>
<polygon fill="black" stroke="black" points="124.86,-45.78 121.29,-35.8 117.86,-45.83 124.86,-45.78"/>
<text text-anchor="middle" x="113" y="-57.8" font-family="Times,serif" font-size="14.00">f/2</text>
</g>
<!-- 3 -->
<g id="node5" class="node">
<title>3</title>
<ellipse fill="none" stroke="black" cx="208" cy="-18" rx="18" ry="18"/>
<text text-anchor="middle" x="208" y="-14.3" font-family="Times,serif" font-size="14.00">3</text>
</g>
<!-- 4&#45;&gt;3 -->
<g id="edge8" class="edge">
<title>4&#45;&gt;3</title>
<path fill="none" stroke="black" d="M131.49,-18C144.61,-18 162.86,-18 178.13,-18"/>
<polygon fill="black" stroke="black" points="178.07,-21.5 188.07,-18 178.07,-14.5 178.07,-21.5"/>
<text text-anchor="middle" x="160.5" y="-21.8" font-family="Times,serif" font-size="14.00">d/6</text>
</g>
<!-- 1&#45;&gt;1 -->
<g id="edge3" class="edge">
<title>1&#45;&gt;1</title>
<path fill="none" stroke="black" d="M370.72,-76.58C369.58,-86.84 372.33,-96 379,-96 382.96,-96 385.54,-92.77 386.74,-88"/>
<polygon fill="black" stroke="black" points="390.23,-88.25 387.21,-78.09 383.24,-87.92 390.23,-88.25"/>
<text text-anchor="middle" x="379" y="-99.8" font-family="Times,serif" font-size="14.00">a/2</text>
</g>
<!-- 3&#45;&gt;2 -->
<g id="edge5" class="edge">
<title>3&#45;&gt;2</title>
<path fill="none" stroke="black" d="M224.55,-25.97C229.75,-28.58 235.6,-31.47 241,-34 248.61,-37.58 256.95,-41.31 264.6,-44.67"/>
<polygon fill="black" stroke="black" points="263.19,-47.88 273.76,-48.66 265.99,-41.46 263.19,-47.88"/>
<text text-anchor="middle" x="250" y="-45.8" font-family="Times,serif" font-size="14.00">b/3</text>
</g>
<!-- 3&#45;&gt;2 -->
<g id="edge6" class="edge">
<title>3&#45;&gt;2</title>
<path fill="none" stroke="black" d="M225.57,-13.03C235.71,-10.92 248.68,-9.97 259,-15 266.2,-18.51 272.25,-24.51 277.08,-30.85"/>
<polygon fill="black" stroke="black" points="273.98,-32.51 282.45,-38.88 279.8,-28.62 273.98,-32.51"/>
<text text-anchor="middle" x="250" y="-18.8" font-family="Times,serif" font-size="14.00">b/4</text>
</g>
<!-- 3&#45;&gt;3 -->
<g id="edge7" class="edge">
<title>3&#45;&gt;3</title>
<path fill="none" stroke="black" d="M200.62,-34.66C198.98,-44.62 201.44,-54 208,-54 211.9,-54 214.35,-50.69 215.35,-45.92"/>
<polygon fill="black" stroke="black" points="218.85,-46.19 215.38,-36.18 211.85,-46.17 218.85,-46.19"/>
<text text-anchor="middle" x="208" y="-57.8" font-family="Times,serif" font-size="14.00">d/5</text>
</g>
</g>
</svg>
