<?xml version="1.0" encoding="UTF-8" standalone="no"?>
<!DOCTYPE svg PUBLIC "-//W3C//DTD SVG 1.1//EN"
 "http://www.w3.org/Graphics/SVG/1.1/DTD/svg11.dtd">
<!-- Generated by graphviz version 9.0.0 (20230911.1827)
 -->
<!-- Title: FST Pages: 1 -->
<svg width="223pt" height="137pt"
 viewBox="0.00 0.00 223.00 136.72" xmlns="http://www.w3.org/2000/svg" xmlns:xlink="http://www.w3.org/1999/xlink">
<g id="graph0" class="graph" transform="scale(1 1) rotate(0) translate(4 132.72)">
<title>FST</title>
<polygon fill="white" stroke="none" points="-4,4 -4,-132.72 219,-132.72 219,4 -4,4"/>
<!-- 0 -->
<g id="node1" class="node">
<title>0</title>
<ellipse fill="none" stroke="black" stroke-width="2" cx="18" cy="-50.22" rx="18" ry="18"/>
<text text-anchor="middle" x="18" y="-45.17" font-family="Times,serif" font-size="14.00">0</text>
</g>
<!-- 1 -->
<g id="node2" class="node">
<title>1</title>
<ellipse fill="none" stroke="black" cx="108" cy="-50.22" rx="18" ry="18"/>
<text text-anchor="middle" x="108" y="-45.17" font-family="Times,serif" font-size="14.00">1</text>
</g>
<!-- 0&#45;&gt;1 -->
<g id="edge1" class="edge">
<title>0&#45;&gt;1</title>
<path fill="none" stroke="black" d="M23.45,-67.86C27.94,-81.54 36.34,-99.57 51,-108.22 60.19,-113.65 65.81,-113.65 75,-108.22 86.11,-101.67 93.62,-89.72 98.56,-78.37"/>
<polygon fill="black" stroke="black" points="101.74,-79.87 102.01,-69.28 95.19,-77.39 101.74,-79.87"/>
<text text-anchor="middle" x="63" y="-115.42" font-family="Times,serif" font-size="14.00">a/5</text>
</g>
<!-- 0&#45;&gt;1 -->
<g id="edge2" class="edge">
<title>0&#45;&gt;1</title>
<path fill="none" stroke="black" d="M33.3,-60.33C38.6,-63.51 44.83,-66.61 51,-68.22 61.32,-70.93 64.68,-70.93 75,-68.22 77.5,-67.57 80.02,-66.67 82.48,-65.61"/>
<polygon fill="black" stroke="black" points="84.08,-68.73 91.36,-61.02 80.87,-62.51 84.08,-68.73"/>
<text text-anchor="middle" x="63" y="-73.42" font-family="Times,serif" font-size="14.00">b/5</text>
</g>
<!-- 0&#45;&gt;1 -->
<g id="edge3" class="edge">
<title>0&#45;&gt;1</title>
<path fill="none" stroke="black" d="M36.26,-48.63C41.03,-48.25 46.21,-47.91 51,-47.72 61.66,-47.31 64.34,-47.31 75,-47.72 76.2,-47.77 77.42,-47.83 78.65,-47.89"/>
<polygon fill="black" stroke="black" points="78.02,-51.36 88.23,-48.53 78.49,-44.37 78.02,-51.36"/>
<text text-anchor="middle" x="63" y="-50.42" font-family="Times,serif" font-size="14.00">c/6</text>
</g>
<!-- 0&#45;&gt;1 -->
<g id="edge4" class="edge">
<title>0&#45;&gt;1</title>
<path fill="none" stroke="black" d="M31.63,-38.07C37.13,-33.59 43.93,-29.04 51,-26.72 61.14,-23.4 64.86,-23.4 75,-26.72 78.54,-27.88 82.01,-29.6 85.28,-31.58"/>
<polygon fill="black" stroke="black" points="82.97,-34.23 93.14,-37.19 87.03,-28.53 82.97,-34.23"/>
<text text-anchor="middle" x="63" y="-29.42" font-family="Times,serif" font-size="14.00">d/10</text>
</g>
<!-- 0&#45;&gt;1 -->
<g id="edge5" class="edge">
<title>0&#45;&gt;1</title>
<path fill="none" stroke="black" d="M25.5,-33.7C30.67,-23.04 39.03,-10.02 51,-3.72 60.44,1.24 65.56,1.24 75,-3.72 83.42,-8.15 90.05,-15.9 95.04,-23.82"/>
<polygon fill="black" stroke="black" points="91.87,-25.32 99.77,-32.38 98,-21.93 91.87,-25.32"/>
<text text-anchor="middle" x="63" y="-6.42" font-family="Times,serif" font-size="14.00">f/8</text>
</g>
<!-- 2 -->
<g id="node3" class="node">
<title>2</title>
<ellipse fill="none" stroke="black" cx="193" cy="-50.22" rx="18" ry="18"/>
<ellipse fill="none" stroke="black" cx="193" cy="-50.22" rx="22" ry="22"/>
<text text-anchor="middle" x="193" y="-45.17" font-family="Times,serif" font-size="14.00">2</text>
</g>
<!-- 1&#45;&gt;2 -->
<g id="edge6" class="edge">
<title>1&#45;&gt;2</title>
<path fill="none" stroke="black" d="M126.2,-50.22C135.78,-50.22 148.04,-50.22 159.37,-50.22"/>
<polygon fill="black" stroke="black" points="159.18,-53.72 169.18,-50.22 159.18,-46.72 159.18,-53.72"/>
<text text-anchor="middle" x="148.5" y="-53.42" font-family="Times,serif" font-size="14.00">f/1</text>
</g>
<!-- 1&#45;&gt;2 -->
<g id="edge7" class="edge">
<title>1&#45;&gt;2</title>
<path fill="none" stroke="black" d="M122.48,-39.16C127.9,-35.4 134.41,-31.65 141,-29.72 148.84,-27.43 157.15,-28.96 164.72,-32.02"/>
<polygon fill="black" stroke="black" points="162.97,-35.06 173.48,-36.44 166.13,-28.81 162.97,-35.06"/>
<text text-anchor="middle" x="148.5" y="-32.42" font-family="Times,serif" font-size="14.00">g</text>
</g>
</g>
</svg>
