<?xml version="1.0" encoding="UTF-8" standalone="no"?>
<!DOCTYPE svg PUBLIC "-//W3C//DTD SVG 1.1//EN"
 "http://www.w3.org/Graphics/SVG/1.1/DTD/svg11.dtd">
<!-- Generated by graphviz version 6.0.2 (20221011.1828)
 -->
<!-- Title: FST Pages: 1 -->
<svg width="225pt" height="130pt"
 viewBox="0.00 0.00 225.00 129.82" xmlns="http://www.w3.org/2000/svg" xmlns:xlink="http://www.w3.org/1999/xlink">
<g id="graph0" class="graph" transform="scale(1 1) rotate(0) translate(4 125.82)">
<title>FST</title>
<polygon fill="white" stroke="none" points="-4,4 -4,-125.82 221,-125.82 221,4 -4,4"/>
<!-- 0 -->
<g id="node1" class="node">
<title>0</title>
<ellipse fill="none" stroke="black" stroke-width="2" cx="18" cy="-48.82" rx="18" ry="18"/>
<text text-anchor="middle" x="18" y="-45.12" font-family="Times,serif" font-size="14.00">0</text>
</g>
<!-- 1 -->
<g id="node2" class="node">
<title>1</title>
<ellipse fill="none" stroke="black" cx="109" cy="-48.82" rx="18" ry="18"/>
<text text-anchor="middle" x="109" y="-45.12" font-family="Times,serif" font-size="14.00">1</text>
</g>
<!-- 0&#45;&gt;1 -->
<g id="edge1" class="edge">
<title>0&#45;&gt;1</title>
<path fill="none" stroke="black" d="M23.99,-65.8C28.71,-78.49 37.18,-94.94 51,-102.82 60.65,-108.32 66.35,-108.32 76,-102.82 86.58,-96.79 94.03,-85.73 99.05,-75.18"/>
<polygon fill="black" stroke="black" points="102.35,-76.37 103.01,-65.8 95.9,-73.65 102.35,-76.37"/>
<text text-anchor="middle" x="63.5" y="-110.62" font-family="Times,serif" font-size="14.00">a/5</text>
</g>
<!-- 0&#45;&gt;1 -->
<g id="edge2" class="edge">
<title>0&#45;&gt;1</title>
<path fill="none" stroke="black" d="M33.75,-57.98C39,-60.75 45.08,-63.42 51,-64.82 61.81,-67.37 65.19,-67.37 76,-64.82 78.68,-64.19 81.4,-63.29 84.06,-62.24"/>
<polygon fill="black" stroke="black" points="85.65,-65.37 93.25,-57.98 82.7,-59.01 85.65,-65.37"/>
<text text-anchor="middle" x="63.5" y="-69.62" font-family="Times,serif" font-size="14.00">b/5</text>
</g>
<!-- 0&#45;&gt;1 -->
<g id="edge3" class="edge">
<title>0&#45;&gt;1</title>
<path fill="none" stroke="black" d="M35.92,-46.94C40.78,-46.48 46.1,-46.05 51,-45.82 62.1,-45.3 64.9,-45.3 76,-45.82 77.53,-45.89 79.11,-45.98 80.69,-46.09"/>
<polygon fill="black" stroke="black" points="80.83,-49.61 91.08,-46.94 81.4,-42.63 80.83,-49.61"/>
<text text-anchor="middle" x="63.5" y="-49.62" font-family="Times,serif" font-size="14.00">c/6</text>
</g>
<!-- 0&#45;&gt;1 -->
<g id="edge4" class="edge">
<title>0&#45;&gt;1</title>
<path fill="none" stroke="black" d="M31.67,-36.92C37.17,-32.53 43.97,-28.09 51,-25.82 61.58,-22.41 65.42,-22.41 76,-25.82 79.85,-27.06 83.62,-28.95 87.15,-31.13"/>
<polygon fill="black" stroke="black" points="85.15,-34 95.33,-36.92 89.19,-28.28 85.15,-34"/>
<text text-anchor="middle" x="63.5" y="-29.62" font-family="Times,serif" font-size="14.00">d/10</text>
</g>
<!-- 0&#45;&gt;1 -->
<g id="edge5" class="edge">
<title>0&#45;&gt;1</title>
<path fill="none" stroke="black" d="M25.86,-32.37C31.11,-22.13 39.41,-9.8 51,-3.82 60.87,1.27 66.13,1.27 76,-3.82 84.42,-8.16 91.11,-15.86 96.14,-23.67"/>
<polygon fill="black" stroke="black" points="93.12,-25.44 101.14,-32.37 99.19,-21.95 93.12,-25.44"/>
<text text-anchor="middle" x="63.5" y="-7.62" font-family="Times,serif" font-size="14.00">f/8</text>
</g>
<!-- 2 -->
<g id="node3" class="node">
<title>2</title>
<ellipse fill="none" stroke="black" cx="195" cy="-48.82" rx="18" ry="18"/>
<ellipse fill="none" stroke="black" cx="195" cy="-48.82" rx="22" ry="22"/>
<text text-anchor="middle" x="195" y="-45.12" font-family="Times,serif" font-size="14.00">2</text>
</g>
<!-- 1&#45;&gt;2 -->
<g id="edge6" class="edge">
<title>1&#45;&gt;2</title>
<path fill="none" stroke="black" d="M127.4,-48.82C137.59,-48.82 150.75,-48.82 162.68,-48.82"/>
<polygon fill="black" stroke="black" points="162.74,-52.32 172.74,-48.82 162.74,-45.32 162.74,-52.32"/>
<text text-anchor="middle" x="150" y="-52.62" font-family="Times,serif" font-size="14.00">f/1</text>
</g>
<!-- 1&#45;&gt;2 -->
<g id="edge7" class="edge">
<title>1&#45;&gt;2</title>
<path fill="none" stroke="black" d="M123.91,-38.36C129.27,-34.94 135.64,-31.57 142,-29.82 150.3,-27.54 159.16,-29.18 167.17,-32.28"/>
<polygon fill="black" stroke="black" points="165.89,-35.54 176.43,-36.62 168.86,-29.21 165.89,-35.54"/>
<text text-anchor="middle" x="150" y="-33.62" font-family="Times,serif" font-size="14.00">g</text>
</g>
</g>
</svg>
