<?xml version="1.0" encoding="UTF-8" standalone="no"?>
<!DOCTYPE svg PUBLIC "-//W3C//DTD SVG 1.1//EN"
 "http://www.w3.org/Graphics/SVG/1.1/DTD/svg11.dtd">
<!-- Generated by graphviz version 8.1.0 (20230707.0739)
 -->
<!-- Title: FST Pages: 1 -->
<svg width="328pt" height="96pt"
 viewBox="0.00 0.00 327.76 95.88" xmlns="http://www.w3.org/2000/svg" xmlns:xlink="http://www.w3.org/1999/xlink">
<g id="graph0" class="graph" transform="scale(1 1) rotate(0) translate(4 91.88)">
<title>FST</title>
<polygon fill="white" stroke="none" points="-4,4 -4,-91.88 323.76,-91.88 323.76,4 -4,4"/>
<!-- 0 -->
<g id="node1" class="node">
<title>0</title>
<ellipse fill="none" stroke="black" stroke-width="2" cx="18" cy="-26.69" rx="18" ry="18"/>
<text text-anchor="middle" x="18" y="-21.64" font-family="Times,serif" font-size="14.00">0</text>
</g>
<!-- 0&#45;&gt;0 -->
<g id="edge1" class="edge">
<title>0&#45;&gt;0</title>
<path fill="none" stroke="black" d="M10.75,-43.35C9.14,-53.32 11.55,-62.69 18,-62.69 21.93,-62.69 24.36,-59.21 25.3,-54.24"/>
<polygon fill="black" stroke="black" points="28.79,-54.34 25.25,-44.35 21.79,-54.37 28.79,-54.34"/>
<text text-anchor="middle" x="18" y="-65.89" font-family="Times,serif" font-size="14.00">a/2</text>
</g>
<!-- 1 -->
<g id="node2" class="node">
<title>1</title>
<ellipse fill="none" stroke="black" cx="109.19" cy="-26.69" rx="22.69" ry="22.69"/>
<ellipse fill="none" stroke="black" cx="109.19" cy="-26.69" rx="26.69" ry="26.69"/>
<text text-anchor="middle" x="109.19" y="-21.64" font-family="Times,serif" font-size="14.00">1/3</text>
</g>
<!-- 0&#45;&gt;1 -->
<g id="edge2" class="edge">
<title>0&#45;&gt;1</title>
<path fill="none" stroke="black" d="M36.2,-26.69C46.2,-26.69 59.2,-26.69 71.39,-26.69"/>
<polygon fill="black" stroke="black" points="71.26,-30.19 81.26,-26.69 71.26,-23.19 71.26,-30.19"/>
<text text-anchor="middle" x="59.25" y="-29.89" font-family="Times,serif" font-size="14.00">a/1</text>
</g>
<!-- 2 -->
<g id="node3" class="node">
<title>2</title>
<ellipse fill="none" stroke="black" cx="201.13" cy="-26.69" rx="18" ry="18"/>
<text text-anchor="middle" x="201.13" y="-21.64" font-family="Times,serif" font-size="14.00">2</text>
</g>
<!-- 1&#45;&gt;2 -->
<g id="edge3" class="edge">
<title>1&#45;&gt;2</title>
<path fill="none" stroke="black" d="M136.2,-26.69C147.41,-26.69 160.54,-26.69 171.97,-26.69"/>
<polygon fill="black" stroke="black" points="171.71,-30.19 181.71,-26.69 171.71,-23.19 171.71,-30.19"/>
<text text-anchor="middle" x="159.51" y="-29.89" font-family="Times,serif" font-size="14.00">b/3</text>
</g>
<!-- 1&#45;&gt;2 -->
<g id="edge4" class="edge">
<title>1&#45;&gt;2</title>
<path fill="none" stroke="black" d="M132.01,-12.16C142.79,-6.73 156.05,-2.65 168.13,-6.19 171.32,-7.12 174.49,-8.48 177.53,-10.07"/>
<polygon fill="black" stroke="black" points="175.29,-13.41 185.65,-15.63 178.94,-7.43 175.29,-13.41"/>
<text text-anchor="middle" x="159.51" y="-8.89" font-family="Times,serif" font-size="14.00">b/4</text>
</g>
<!-- 2&#45;&gt;2 -->
<g id="edge5" class="edge">
<title>2&#45;&gt;2</title>
<path fill="none" stroke="black" d="M193.81,-43.35C192.19,-53.32 194.63,-62.69 201.13,-62.69 205.09,-62.69 207.55,-59.21 208.49,-54.24"/>
<polygon fill="black" stroke="black" points="211.99,-54.34 208.45,-44.35 204.99,-54.37 211.99,-54.34"/>
<text text-anchor="middle" x="201.13" y="-65.89" font-family="Times,serif" font-size="14.00">d/5</text>
</g>
<!-- 3 -->
<g id="node4" class="node">
<title>3</title>
<ellipse fill="none" stroke="black" cx="293.07" cy="-26.69" rx="22.69" ry="22.69"/>
<ellipse fill="none" stroke="black" cx="293.07" cy="-26.69" rx="26.69" ry="26.69"/>
<text text-anchor="middle" x="293.07" y="-21.64" font-family="Times,serif" font-size="14.00">3/2</text>
</g>
<!-- 2&#45;&gt;3 -->
<g id="edge6" class="edge">
<title>2&#45;&gt;3</title>
<path fill="none" stroke="black" d="M219.47,-26.69C229.55,-26.69 242.66,-26.69 254.96,-26.69"/>
<polygon fill="black" stroke="black" points="254.92,-30.19 264.92,-26.69 254.92,-23.19 254.92,-30.19"/>
<text text-anchor="middle" x="242.76" y="-29.89" font-family="Times,serif" font-size="14.00">d/6</text>
</g>
<!-- 3&#45;&gt;3 -->
<g id="edge7" class="edge">
<title>3&#45;&gt;3</title>
<path fill="none" stroke="black" d="M283.72,-51.96C283.07,-62.47 286.19,-71.38 293.07,-71.38 297.37,-71.38 300.2,-67.9 301.56,-62.72"/>
<polygon fill="black" stroke="black" points="305.11,-63.21 302.42,-52.96 298.13,-62.65 305.11,-63.21"/>
<text text-anchor="middle" x="293.07" y="-74.58" font-family="Times,serif" font-size="14.00">f/2</text>
</g>
</g>
</svg>
