<?xml version="1.0" encoding="UTF-8" standalone="no"?>
<!DOCTYPE svg PUBLIC "-//W3C//DTD SVG 1.1//EN"
 "http://www.w3.org/Graphics/SVG/1.1/DTD/svg11.dtd">
<!-- Generated by graphviz version 6.0.2 (20221011.1828)
 -->
<!-- Title: FST Pages: 1 -->
<svg width="198pt" height="114pt"
 viewBox="0.00 0.00 198.00 114.13" xmlns="http://www.w3.org/2000/svg" xmlns:xlink="http://www.w3.org/1999/xlink">
<g id="graph0" class="graph" transform="scale(1 1) rotate(0) translate(4 110.13)">
<title>FST</title>
<polygon fill="white" stroke="none" points="-4,4 -4,-110.13 194,-110.13 194,4 -4,4"/>
<!-- 0 -->
<g id="node1" class="node">
<title>0</title>
<ellipse fill="none" stroke="black" stroke-width="2" cx="18" cy="-36.13" rx="18" ry="18"/>
<text text-anchor="middle" x="18" y="-32.43" font-family="Times,serif" font-size="14.00">0</text>
</g>
<!-- 1 -->
<g id="node2" class="node">
<title>1</title>
<ellipse fill="none" stroke="black" cx="91" cy="-74.13" rx="18" ry="18"/>
<text text-anchor="middle" x="91" y="-70.43" font-family="Times,serif" font-size="14.00">1</text>
</g>
<!-- 0&#45;&gt;1 -->
<g id="edge1" class="edge">
<title>0&#45;&gt;1</title>
<path fill="none" stroke="black" d="M23.99,-53.11C28.71,-65.8 37.18,-82.26 51,-90.13 56.21,-93.1 62.09,-92.53 67.67,-90.38"/>
<polygon fill="black" stroke="black" points="69.43,-93.4 76.6,-85.61 66.13,-87.23 69.43,-93.4"/>
<text text-anchor="middle" x="54.5" y="-94.93" font-family="Times,serif" font-size="14.00">1</text>
</g>
<!-- 0&#45;&gt;1 -->
<g id="edge2" class="edge">
<title>0&#45;&gt;1</title>
<path fill="none" stroke="black" d="M34.41,-44.38C43.52,-49.26 55.28,-55.55 65.63,-61.09"/>
<polygon fill="black" stroke="black" points="64.16,-64.27 74.62,-65.9 67.46,-58.1 64.16,-64.27"/>
<text text-anchor="middle" x="54.5" y="-59.93" font-family="Times,serif" font-size="14.00">3</text>
</g>
<!-- 0&#45;&gt;1 -->
<g id="edge3" class="edge">
<title>0&#45;&gt;1</title>
<path fill="none" stroke="black" d="M35.64,-31.82C42.84,-30.81 51.16,-30.84 58,-34.13 65.16,-37.58 71.23,-43.49 76.08,-49.73"/>
<polygon fill="black" stroke="black" points="73.39,-51.99 81.95,-58.24 79.15,-48.02 73.39,-51.99"/>
<text text-anchor="middle" x="54.5" y="-37.93" font-family="Times,serif" font-size="14.00">2</text>
</g>
<!-- 2 -->
<g id="node3" class="node">
<title>2</title>
<ellipse fill="none" stroke="black" cx="168" cy="-36.13" rx="18" ry="18"/>
<ellipse fill="none" stroke="black" cx="168" cy="-36.13" rx="22" ry="22"/>
<text text-anchor="middle" x="168" y="-32.43" font-family="Times,serif" font-size="14.00">2</text>
</g>
<!-- 0&#45;&gt;2 -->
<g id="edge4" class="edge">
<title>0&#45;&gt;2</title>
<path fill="none" stroke="black" d="M35.43,-30.58C40.37,-29.17 45.85,-27.84 51,-27.13 66.34,-25.02 -44.46,-9.8 131,-29.13 132.7,-29.32 134.43,-29.54 136.18,-29.8"/>
<polygon fill="black" stroke="black" points="135.71,-33.27 146.15,-31.47 136.87,-26.36 135.71,-33.27"/>
<text text-anchor="middle" x="91" y="-29.93" font-family="Times,serif" font-size="14.00">5</text>
</g>
<!-- 0&#45;&gt;2 -->
<g id="edge5" class="edge">
<title>0&#45;&gt;2</title>
<path fill="none" stroke="black" d="M32.63,-24.78C42.98,-16.95 57.95,-7.25 73,-3.13 88.43,1.09 93.53,0.96 109,-3.13 120.2,-6.1 131.51,-11.78 141.12,-17.61"/>
<polygon fill="black" stroke="black" points="139.46,-20.7 149.76,-23.16 143.24,-14.81 139.46,-20.7"/>
<text text-anchor="middle" x="91" y="-6.93" font-family="Times,serif" font-size="14.00">4</text>
</g>
<!-- 1&#45;&gt;2 -->
<g id="edge6" class="edge">
<title>1&#45;&gt;2</title>
<path fill="none" stroke="black" d="M105.31,-85.45C112.99,-90.55 122.74,-94.55 131,-90.13 141.09,-84.73 148.84,-75.12 154.52,-65.49"/>
<polygon fill="black" stroke="black" points="157.75,-66.86 159.33,-56.38 151.56,-63.58 157.75,-66.86"/>
<text text-anchor="middle" x="127.5" y="-94.93" font-family="Times,serif" font-size="14.00">2</text>
</g>
<!-- 1&#45;&gt;2 -->
<g id="edge7" class="edge">
<title>1&#45;&gt;2</title>
<path fill="none" stroke="black" d="M107.54,-66.26C116.63,-61.65 128.39,-55.7 139.04,-50.3"/>
<polygon fill="black" stroke="black" points="140.68,-53.39 148.02,-45.75 137.52,-47.15 140.68,-53.39"/>
<text text-anchor="middle" x="127.5" y="-60.93" font-family="Times,serif" font-size="14.00">3</text>
</g>
<!-- 1&#45;&gt;2 -->
<g id="edge8" class="edge">
<title>1&#45;&gt;2</title>
<path fill="none" stroke="black" d="M100.49,-58.63C105.99,-50.29 113.99,-40.79 124,-36.13 127.7,-34.41 131.78,-33.42 135.92,-32.94"/>
<polygon fill="black" stroke="black" points="136.21,-36.43 146.1,-32.62 136,-29.43 136.21,-36.43"/>
<text text-anchor="middle" x="127.5" y="-39.93" font-family="Times,serif" font-size="14.00">1</text>
</g>
</g>
</svg>
