<?xml version="1.0" encoding="UTF-8" standalone="no"?>
<!DOCTYPE svg PUBLIC "-//W3C//DTD SVG 1.1//EN"
 "http://www.w3.org/Graphics/SVG/1.1/DTD/svg11.dtd">
<!-- Generated by graphviz version 8.1.0 (20230707.0739)
 -->
<!-- Title: FST Pages: 1 -->
<svg width="455pt" height="52pt"
 viewBox="0.00 0.00 454.75 52.00" xmlns="http://www.w3.org/2000/svg" xmlns:xlink="http://www.w3.org/1999/xlink">
<g id="graph0" class="graph" transform="scale(1 1) rotate(0) translate(4 48)">
<title>FST</title>
<polygon fill="white" stroke="none" points="-4,4 -4,-48 450.75,-48 450.75,4 -4,4"/>
<!-- 0 -->
<g id="node1" class="node">
<title>0</title>
<ellipse fill="none" stroke="black" stroke-width="2" cx="18" cy="-22" rx="18" ry="18"/>
<text text-anchor="middle" x="18" y="-16.95" font-family="Times,serif" font-size="14.00">0</text>
</g>
<!-- 1 -->
<g id="node2" class="node">
<title>1</title>
<ellipse fill="none" stroke="black" cx="101.25" cy="-22" rx="18" ry="18"/>
<text text-anchor="middle" x="101.25" y="-16.95" font-family="Times,serif" font-size="14.00">1</text>
</g>
<!-- 0&#45;&gt;1 -->
<g id="edge1" class="edge">
<title>0&#45;&gt;1</title>
<path fill="none" stroke="black" d="M36.23,-22C46.61,-22 60.08,-22 71.98,-22"/>
<polygon fill="black" stroke="black" points="71.76,-25.5 81.76,-22 71.76,-18.5 71.76,-25.5"/>
<text text-anchor="middle" x="59.62" y="-25.2" font-family="Times,serif" font-size="14.00">h:h</text>
</g>
<!-- 2 -->
<g id="node3" class="node">
<title>2</title>
<ellipse fill="none" stroke="black" cx="183" cy="-22" rx="18" ry="18"/>
<text text-anchor="middle" x="183" y="-16.95" font-family="Times,serif" font-size="14.00">2</text>
</g>
<!-- 1&#45;&gt;2 -->
<g id="edge2" class="edge">
<title>1&#45;&gt;2</title>
<path fill="none" stroke="black" d="M119.55,-22C129.59,-22 142.46,-22 153.91,-22"/>
<polygon fill="black" stroke="black" points="153.73,-25.5 163.73,-22 153.73,-18.5 153.73,-25.5"/>
<text text-anchor="middle" x="142.12" y="-25.2" font-family="Times,serif" font-size="14.00">e:e</text>
</g>
<!-- 3 -->
<g id="node4" class="node">
<title>3</title>
<ellipse fill="none" stroke="black" cx="260.25" cy="-22" rx="18" ry="18"/>
<text text-anchor="middle" x="260.25" y="-16.95" font-family="Times,serif" font-size="14.00">3</text>
</g>
<!-- 2&#45;&gt;3 -->
<g id="edge3" class="edge">
<title>2&#45;&gt;3</title>
<path fill="none" stroke="black" d="M201.45,-22C210.29,-22 221.22,-22 231.2,-22"/>
<polygon fill="black" stroke="black" points="230.89,-25.5 240.89,-22 230.89,-18.5 230.89,-25.5"/>
<text text-anchor="middle" x="221.62" y="-25.2" font-family="Times,serif" font-size="14.00">l:l</text>
</g>
<!-- 4 -->
<g id="node5" class="node">
<title>4</title>
<ellipse fill="none" stroke="black" cx="337.5" cy="-22" rx="18" ry="18"/>
<text text-anchor="middle" x="337.5" y="-16.95" font-family="Times,serif" font-size="14.00">4</text>
</g>
<!-- 3&#45;&gt;4 -->
<g id="edge4" class="edge">
<title>3&#45;&gt;4</title>
<path fill="none" stroke="black" d="M278.7,-22C287.54,-22 298.47,-22 308.45,-22"/>
<polygon fill="black" stroke="black" points="308.14,-25.5 318.14,-22 308.14,-18.5 308.14,-25.5"/>
<text text-anchor="middle" x="298.88" y="-25.2" font-family="Times,serif" font-size="14.00">l:l</text>
</g>
<!-- 5 -->
<g id="node6" class="node">
<title>5</title>
<ellipse fill="none" stroke="black" cx="424.75" cy="-22" rx="18" ry="18"/>
<ellipse fill="none" stroke="black" cx="424.75" cy="-22" rx="22" ry="22"/>
<text text-anchor="middle" x="424.75" y="-16.95" font-family="Times,serif" font-size="14.00">5</text>
</g>
<!-- 4&#45;&gt;5 -->
<g id="edge5" class="edge">
<title>4&#45;&gt;5</title>
<path fill="none" stroke="black" d="M355.75,-22C366.03,-22 379.41,-22 391.58,-22"/>
<polygon fill="black" stroke="black" points="391.29,-25.5 401.29,-22 391.29,-18.5 391.29,-25.5"/>
<text text-anchor="middle" x="379.12" y="-25.2" font-family="Times,serif" font-size="14.00">o:o</text>
</g>
</g>
</svg>
