<?xml version="1.0" encoding="UTF-8" standalone="no"?>
<!DOCTYPE svg PUBLIC "-//W3C//DTD SVG 1.1//EN"
 "http://www.w3.org/Graphics/SVG/1.1/DTD/svg11.dtd">
<!-- Generated by graphviz version 2.43.0 (0)
 -->
<!-- Title: FST Pages: 1 -->
<svg width="477pt" height="52pt"
 viewBox="0.00 0.00 477.00 52.00" xmlns="http://www.w3.org/2000/svg" xmlns:xlink="http://www.w3.org/1999/xlink">
<g id="graph0" class="graph" transform="scale(1 1) rotate(0) translate(4 48)">
<title>FST</title>
<polygon fill="white" stroke="transparent" points="-4,4 -4,-48 473,-48 473,4 -4,4"/>
<!-- 0 -->
<g id="node1" class="node">
<title>0</title>
<ellipse fill="none" stroke="black" stroke-width="2" cx="18" cy="-22" rx="18" ry="18"/>
<text text-anchor="middle" x="18" y="-18.3" font-family="Times,serif" font-size="14.00">0</text>
</g>
<!-- 1 -->
<g id="node2" class="node">
<title>1</title>
<ellipse fill="none" stroke="black" cx="107" cy="-22" rx="18" ry="18"/>
<text text-anchor="middle" x="107" y="-18.3" font-family="Times,serif" font-size="14.00">1</text>
</g>
<!-- 0&#45;&gt;1 -->
<g id="edge1" class="edge">
<title>0&#45;&gt;1</title>
<path fill="none" stroke="black" d="M36.19,-22C48.34,-22 64.89,-22 78.82,-22"/>
<polygon fill="black" stroke="black" points="78.85,-25.5 88.85,-22 78.85,-18.5 78.85,-25.5"/>
<text text-anchor="middle" x="62.5" y="-25.8" font-family="Times,serif" font-size="14.00">h:h</text>
</g>
<!-- 2 -->
<g id="node3" class="node">
<title>2</title>
<ellipse fill="none" stroke="black" cx="195" cy="-22" rx="18" ry="18"/>
<text text-anchor="middle" x="195" y="-18.3" font-family="Times,serif" font-size="14.00">2</text>
</g>
<!-- 1&#45;&gt;2 -->
<g id="edge2" class="edge">
<title>1&#45;&gt;2</title>
<path fill="none" stroke="black" d="M125.4,-22C137.25,-22 153.18,-22 166.71,-22"/>
<polygon fill="black" stroke="black" points="166.92,-25.5 176.92,-22 166.92,-18.5 166.92,-25.5"/>
<text text-anchor="middle" x="151" y="-25.8" font-family="Times,serif" font-size="14.00">e:e</text>
</g>
<!-- 3 -->
<g id="node4" class="node">
<title>3</title>
<ellipse fill="none" stroke="black" cx="275" cy="-22" rx="18" ry="18"/>
<text text-anchor="middle" x="275" y="-18.3" font-family="Times,serif" font-size="14.00">3</text>
</g>
<!-- 2&#45;&gt;3 -->
<g id="edge3" class="edge">
<title>2&#45;&gt;3</title>
<path fill="none" stroke="black" d="M213.31,-22C223.11,-22 235.58,-22 246.67,-22"/>
<polygon fill="black" stroke="black" points="246.74,-25.5 256.74,-22 246.74,-18.5 246.74,-25.5"/>
<text text-anchor="middle" x="235" y="-25.8" font-family="Times,serif" font-size="14.00">l:l</text>
</g>
<!-- 4 -->
<g id="node5" class="node">
<title>4</title>
<ellipse fill="none" stroke="black" cx="355" cy="-22" rx="18" ry="18"/>
<text text-anchor="middle" x="355" y="-18.3" font-family="Times,serif" font-size="14.00">4</text>
</g>
<!-- 3&#45;&gt;4 -->
<g id="edge4" class="edge">
<title>3&#45;&gt;4</title>
<path fill="none" stroke="black" d="M293.31,-22C303.11,-22 315.58,-22 326.67,-22"/>
<polygon fill="black" stroke="black" points="326.74,-25.5 336.74,-22 326.74,-18.5 326.74,-25.5"/>
<text text-anchor="middle" x="315" y="-25.8" font-family="Times,serif" font-size="14.00">l:l</text>
</g>
<!-- 5 -->
<g id="node6" class="node">
<title>5</title>
<ellipse fill="none" stroke="black" cx="447" cy="-22" rx="18" ry="18"/>
<ellipse fill="none" stroke="black" cx="447" cy="-22" rx="22" ry="22"/>
<text text-anchor="middle" x="447" y="-18.3" font-family="Times,serif" font-size="14.00">5</text>
</g>
<!-- 4&#45;&gt;5 -->
<g id="edge5" class="edge">
<title>4&#45;&gt;5</title>
<path fill="none" stroke="black" d="M373.35,-22C385.08,-22 400.89,-22 414.76,-22"/>
<polygon fill="black" stroke="black" points="414.9,-25.5 424.9,-22 414.9,-18.5 414.9,-25.5"/>
<text text-anchor="middle" x="399" y="-25.8" font-family="Times,serif" font-size="14.00">o:o</text>
</g>
</g>
</svg>
