<?xml version="1.0" encoding="UTF-8" standalone="no"?>
<!DOCTYPE svg PUBLIC "-//W3C//DTD SVG 1.1//EN"
 "http://www.w3.org/Graphics/SVG/1.1/DTD/svg11.dtd">
<!-- Generated by graphviz version 2.43.0 (0)
 -->
<!-- Title: FST Pages: 1 -->
<svg width="439pt" height="119pt"
 viewBox="0.00 0.00 439.00 119.00" xmlns="http://www.w3.org/2000/svg" xmlns:xlink="http://www.w3.org/1999/xlink">
<g id="graph0" class="graph" transform="scale(1 1) rotate(0) translate(4 115)">
<title>FST</title>
<polygon fill="white" stroke="transparent" points="-4,4 -4,-115 435,-115 435,4 -4,4"/>
<!-- 0 -->
<g id="node1" class="node">
<title>0</title>
<ellipse fill="none" stroke="black" stroke-width="2" cx="18" cy="-58" rx="18" ry="18"/>
<text text-anchor="middle" x="18" y="-54.3" font-family="Times,serif" font-size="14.00">0</text>
</g>
<!-- 2 -->
<g id="node2" class="node">
<title>2</title>
<ellipse fill="none" stroke="black" cx="317" cy="-56" rx="18" ry="18"/>
<text text-anchor="middle" x="317" y="-52.3" font-family="Times,serif" font-size="14.00">2</text>
</g>
<!-- 0&#45;&gt;2 -->
<g id="edge1" class="edge">
<title>0&#45;&gt;2</title>
<path fill="none" stroke="black" d="M35.61,-63.06C52.79,-68 80.48,-75.19 105,-78 167.26,-85.14 184.06,-87.5 246,-78 261.1,-75.68 277.42,-70.71 290.5,-66.07"/>
<polygon fill="black" stroke="black" points="292.04,-69.24 300.2,-62.49 289.61,-62.67 292.04,-69.24"/>
<text text-anchor="middle" x="175.5" y="-87.8" font-family="Times,serif" font-size="14.00">eps/3</text>
</g>
<!-- 4 -->
<g id="node3" class="node">
<title>4</title>
<ellipse fill="none" stroke="black" cx="123" cy="-18" rx="18" ry="18"/>
<text text-anchor="middle" x="123" y="-14.3" font-family="Times,serif" font-size="14.00">4</text>
</g>
<!-- 0&#45;&gt;4 -->
<g id="edge2" class="edge">
<title>0&#45;&gt;4</title>
<path fill="none" stroke="black" d="M35.09,-51.75C51.57,-45.35 77.42,-35.31 96.65,-27.84"/>
<polygon fill="black" stroke="black" points="97.96,-31.09 106.02,-24.21 95.43,-24.56 97.96,-31.09"/>
<text text-anchor="middle" x="70.5" y="-48.8" font-family="Times,serif" font-size="14.00">eps/2</text>
</g>
<!-- 1 -->
<g id="node4" class="node">
<title>1</title>
<ellipse fill="none" stroke="black" cx="409" cy="-56" rx="18" ry="18"/>
<ellipse fill="none" stroke="black" cx="409" cy="-56" rx="22" ry="22"/>
<text text-anchor="middle" x="409" y="-52.3" font-family="Times,serif" font-size="14.00">1</text>
</g>
<!-- 2&#45;&gt;1 -->
<g id="edge4" class="edge">
<title>2&#45;&gt;1</title>
<path fill="none" stroke="black" d="M335.35,-56C347.08,-56 362.89,-56 376.76,-56"/>
<polygon fill="black" stroke="black" points="376.9,-59.5 386.9,-56 376.9,-52.5 376.9,-59.5"/>
<text text-anchor="middle" x="361" y="-59.8" font-family="Times,serif" font-size="14.00">a/1</text>
</g>
<!-- 4&#45;&gt;4 -->
<g id="edge9" class="edge">
<title>4&#45;&gt;4</title>
<path fill="none" stroke="black" d="M114.02,-33.92C111.68,-44.15 114.67,-54 123,-54 128.47,-54 131.63,-49.76 132.5,-43.95"/>
<polygon fill="black" stroke="black" points="136,-43.72 131.98,-33.92 129.01,-44.09 136,-43.72"/>
<text text-anchor="middle" x="123" y="-57.8" font-family="Times,serif" font-size="14.00">f/2</text>
</g>
<!-- 3 -->
<g id="node5" class="node">
<title>3</title>
<ellipse fill="none" stroke="black" cx="228" cy="-18" rx="18" ry="18"/>
<text text-anchor="middle" x="228" y="-14.3" font-family="Times,serif" font-size="14.00">3</text>
</g>
<!-- 4&#45;&gt;3 -->
<g id="edge8" class="edge">
<title>4&#45;&gt;3</title>
<path fill="none" stroke="black" d="M141.01,-18C156.96,-18 181.09,-18 199.73,-18"/>
<polygon fill="black" stroke="black" points="199.97,-21.5 209.97,-18 199.97,-14.5 199.97,-21.5"/>
<text text-anchor="middle" x="175.5" y="-21.8" font-family="Times,serif" font-size="14.00">d/6</text>
</g>
<!-- 1&#45;&gt;1 -->
<g id="edge3" class="edge">
<title>1&#45;&gt;1</title>
<path fill="none" stroke="black" d="M400.27,-76.58C399.06,-86.84 401.97,-96 409,-96 413.5,-96 416.32,-92.24 417.44,-86.84"/>
<polygon fill="black" stroke="black" points="420.95,-86.68 417.73,-76.58 413.95,-86.48 420.95,-86.68"/>
<text text-anchor="middle" x="409" y="-99.8" font-family="Times,serif" font-size="14.00">a/2</text>
</g>
<!-- 3&#45;&gt;2 -->
<g id="edge5" class="edge">
<title>3&#45;&gt;2</title>
<path fill="none" stroke="black" d="M244.18,-25.91C249.46,-28.58 255.45,-31.51 261,-34 270.51,-38.27 281.11,-42.61 290.44,-46.29"/>
<polygon fill="black" stroke="black" points="289.38,-49.63 299.97,-49.99 291.92,-43.11 289.38,-49.63"/>
<text text-anchor="middle" x="272.5" y="-46.8" font-family="Times,serif" font-size="14.00">b/3</text>
</g>
<!-- 3&#45;&gt;2 -->
<g id="edge6" class="edge">
<title>3&#45;&gt;2</title>
<path fill="none" stroke="black" d="M245.72,-12.99C257.08,-10.54 272.14,-9.21 284,-15 291.53,-18.68 297.81,-25.08 302.75,-31.74"/>
<polygon fill="black" stroke="black" points="299.86,-33.72 308.29,-40.14 305.71,-29.87 299.86,-33.72"/>
<text text-anchor="middle" x="272.5" y="-18.8" font-family="Times,serif" font-size="14.00">b/4</text>
</g>
<!-- 3&#45;&gt;3 -->
<g id="edge7" class="edge">
<title>3&#45;&gt;3</title>
<path fill="none" stroke="black" d="M220.33,-34.29C218.48,-44.39 221.04,-54 228,-54 232.46,-54 235.11,-50.06 235.95,-44.57"/>
<polygon fill="black" stroke="black" points="239.45,-44.19 235.67,-34.29 232.45,-44.38 239.45,-44.19"/>
<text text-anchor="middle" x="228" y="-57.8" font-family="Times,serif" font-size="14.00">d/5</text>
</g>
</g>
</svg>
