<?xml version="1.0" encoding="UTF-8" standalone="no"?>
<!DOCTYPE svg PUBLIC "-//W3C//DTD SVG 1.1//EN"
 "http://www.w3.org/Graphics/SVG/1.1/DTD/svg11.dtd">
<!-- Generated by graphviz version 2.43.0 (0)
 -->
<!-- Title: FST Pages: 1 -->
<svg width="204pt" height="118pt"
 viewBox="0.00 0.00 204.00 118.12" xmlns="http://www.w3.org/2000/svg" xmlns:xlink="http://www.w3.org/1999/xlink">
<g id="graph0" class="graph" transform="scale(1 1) rotate(0) translate(4 114.12)">
<title>FST</title>
<polygon fill="white" stroke="transparent" points="-4,4 -4,-114.12 200,-114.12 200,4 -4,4"/>
<!-- 0 -->
<g id="node1" class="node">
<title>0</title>
<ellipse fill="none" stroke="black" stroke-width="2" cx="18" cy="-39.12" rx="18" ry="18"/>
<text text-anchor="middle" x="18" y="-35.42" font-family="Times,serif" font-size="14.00">0</text>
</g>
<!-- 1 -->
<g id="node2" class="node">
<title>1</title>
<ellipse fill="none" stroke="black" cx="94" cy="-77.12" rx="18" ry="18"/>
<text text-anchor="middle" x="94" y="-73.42" font-family="Times,serif" font-size="14.00">1</text>
</g>
<!-- 0&#45;&gt;1 -->
<g id="edge1" class="edge">
<title>0&#45;&gt;1</title>
<path fill="none" stroke="black" d="M23.99,-56.1C28.71,-68.78 37.18,-85.24 51,-93.12 57.1,-96.6 64.11,-95.65 70.63,-92.96"/>
<polygon fill="black" stroke="black" points="72.53,-95.91 79.67,-88.08 69.2,-89.75 72.53,-95.91"/>
<text text-anchor="middle" x="56" y="-98.92" font-family="Times,serif" font-size="14.00">1</text>
</g>
<!-- 0&#45;&gt;1 -->
<g id="edge2" class="edge">
<title>0&#45;&gt;1</title>
<path fill="none" stroke="black" d="M34.33,-46.99C44.25,-52.09 57.39,-58.83 68.71,-64.64"/>
<polygon fill="black" stroke="black" points="67.19,-67.8 77.69,-69.25 70.39,-61.57 67.19,-67.8"/>
<text text-anchor="middle" x="56" y="-63.92" font-family="Times,serif" font-size="14.00">3</text>
</g>
<!-- 0&#45;&gt;1 -->
<g id="edge3" class="edge">
<title>0&#45;&gt;1</title>
<path fill="none" stroke="black" d="M35.7,-34.14C43.72,-32.68 53.25,-32.33 61,-36.12 68.53,-39.79 74.81,-46.19 79.75,-52.86"/>
<polygon fill="black" stroke="black" points="76.86,-54.84 85.29,-61.26 82.71,-50.98 76.86,-54.84"/>
<text text-anchor="middle" x="56" y="-39.92" font-family="Times,serif" font-size="14.00">2</text>
</g>
<!-- 2 -->
<g id="node3" class="node">
<title>2</title>
<ellipse fill="none" stroke="black" cx="174" cy="-39.12" rx="18" ry="18"/>
<ellipse fill="none" stroke="black" cx="174" cy="-39.12" rx="22" ry="22"/>
<text text-anchor="middle" x="174" y="-35.42" font-family="Times,serif" font-size="14.00">2</text>
</g>
<!-- 0&#45;&gt;2 -->
<g id="edge4" class="edge">
<title>0&#45;&gt;2</title>
<path fill="none" stroke="black" d="M35.05,-33.06C40.08,-31.44 45.71,-29.93 51,-29.12 66.91,-26.69 5.57,-13.06 137,-30.12 138.76,-30.35 140.55,-30.63 142.36,-30.95"/>
<polygon fill="black" stroke="black" points="142.09,-34.47 152.6,-33.15 143.55,-27.63 142.09,-34.47"/>
<text text-anchor="middle" x="94" y="-29.92" font-family="Times,serif" font-size="14.00">5</text>
</g>
<!-- 0&#45;&gt;2 -->
<g id="edge5" class="edge">
<title>0&#45;&gt;2</title>
<path fill="none" stroke="black" d="M31.93,-27.64C42.81,-18.84 59.24,-7.49 76,-3.12 91.48,0.92 96.57,1.1 112,-3.12 124.7,-6.58 137.44,-13.45 147.97,-20.26"/>
<polygon fill="black" stroke="black" points="146.01,-23.16 156.25,-25.89 149.95,-17.37 146.01,-23.16"/>
<text text-anchor="middle" x="94" y="-6.92" font-family="Times,serif" font-size="14.00">4</text>
</g>
<!-- 1&#45;&gt;2 -->
<g id="edge6" class="edge">
<title>1&#45;&gt;2</title>
<path fill="none" stroke="black" d="M108.62,-88.16C117.04,-93.57 127.92,-97.98 137,-93.12 147.09,-87.72 154.84,-78.11 160.52,-68.47"/>
<polygon fill="black" stroke="black" points="163.75,-69.84 165.33,-59.37 157.56,-66.57 163.75,-69.84"/>
<text text-anchor="middle" x="132" y="-98.92" font-family="Times,serif" font-size="14.00">2</text>
</g>
<!-- 1&#45;&gt;2 -->
<g id="edge7" class="edge">
<title>1&#45;&gt;2</title>
<path fill="none" stroke="black" d="M110.41,-69.61C120.12,-64.88 132.96,-58.62 144.48,-53.01"/>
<polygon fill="black" stroke="black" points="146.29,-56.02 153.75,-48.5 143.23,-49.73 146.29,-56.02"/>
<text text-anchor="middle" x="132" y="-64.92" font-family="Times,serif" font-size="14.00">3</text>
</g>
<!-- 1&#45;&gt;2 -->
<g id="edge8" class="edge">
<title>1&#45;&gt;2</title>
<path fill="none" stroke="black" d="M103.05,-61.23C108.49,-52.36 116.58,-42.13 127,-37.12 131.74,-34.84 137.09,-33.86 142.41,-33.67"/>
<polygon fill="black" stroke="black" points="142.3,-37.17 152.46,-34.14 142.63,-30.18 142.3,-37.17"/>
<text text-anchor="middle" x="132" y="-40.92" font-family="Times,serif" font-size="14.00">1</text>
</g>
</g>
</svg>
