<?xml version="1.0" encoding="UTF-8" standalone="no"?>
<!DOCTYPE svg PUBLIC "-//W3C//DTD SVG 1.1//EN"
 "http://www.w3.org/Graphics/SVG/1.1/DTD/svg11.dtd">
<!-- Generated by graphviz version 9.0.0 (20230911.1827)
 -->
<!-- Title: FST Pages: 1 -->
<svg width="407pt" height="123pt"
 viewBox="0.00 0.00 406.75 122.50" xmlns="http://www.w3.org/2000/svg" xmlns:xlink="http://www.w3.org/1999/xlink">
<g id="graph0" class="graph" transform="scale(1 1) rotate(0) translate(4 118.5)">
<title>FST</title>
<polygon fill="white" stroke="none" points="-4,4 -4,-118.5 402.75,-118.5 402.75,4 -4,4"/>
<!-- 0 -->
<g id="node1" class="node">
<title>0</title>
<ellipse fill="none" stroke="black" stroke-width="2" cx="18" cy="-59" rx="18" ry="18"/>
<text text-anchor="middle" x="18" y="-53.95" font-family="Times,serif" font-size="14.00">0</text>
</g>
<!-- 2 -->
<g id="node2" class="node">
<title>2</title>
<ellipse fill="none" stroke="black" cx="290.25" cy="-58" rx="18" ry="18"/>
<text text-anchor="middle" x="290.25" y="-52.95" font-family="Times,serif" font-size="14.00">2</text>
</g>
<!-- 0&#45;&gt;2 -->
<g id="edge1" class="edge">
<title>0&#45;&gt;2</title>
<path fill="none" stroke="black" d="M35.54,-64.71C50.68,-69.61 73.79,-76.3 94.5,-79 152.01,-86.49 167.72,-88.12 225,-79 237.69,-76.98 251.28,-72.84 262.68,-68.77"/>
<polygon fill="black" stroke="black" points="263.68,-72.14 271.81,-65.34 261.22,-65.58 263.68,-72.14"/>
<text text-anchor="middle" x="159.75" y="-89.2" font-family="Times,serif" font-size="14.00">eps/3</text>
</g>
<!-- 4 -->
<g id="node3" class="node">
<title>4</title>
<ellipse fill="none" stroke="black" cx="112.5" cy="-18" rx="18" ry="18"/>
<text text-anchor="middle" x="112.5" y="-12.95" font-family="Times,serif" font-size="14.00">4</text>
</g>
<!-- 0&#45;&gt;4 -->
<g id="edge2" class="edge">
<title>0&#45;&gt;4</title>
<path fill="none" stroke="black" d="M34.69,-52.04C48.51,-45.92 68.92,-36.87 85.23,-29.64"/>
<polygon fill="black" stroke="black" points="86.62,-32.85 94.35,-25.6 83.79,-26.46 86.62,-32.85"/>
<text text-anchor="middle" x="65.25" y="-48.2" font-family="Times,serif" font-size="14.00">eps/2</text>
</g>
<!-- 1 -->
<g id="node4" class="node">
<title>1</title>
<ellipse fill="none" stroke="black" cx="376.75" cy="-58" rx="18" ry="18"/>
<ellipse fill="none" stroke="black" cx="376.75" cy="-58" rx="22" ry="22"/>
<text text-anchor="middle" x="376.75" y="-52.95" font-family="Times,serif" font-size="14.00">1</text>
</g>
<!-- 2&#45;&gt;1 -->
<g id="edge4" class="edge">
<title>2&#45;&gt;1</title>
<path fill="none" stroke="black" d="M308.35,-58C318.33,-58 331.26,-58 343.12,-58"/>
<polygon fill="black" stroke="black" points="342.96,-61.5 352.96,-58 342.96,-54.5 342.96,-61.5"/>
<text text-anchor="middle" x="331.5" y="-61.2" font-family="Times,serif" font-size="14.00">a/1</text>
</g>
<!-- 4&#45;&gt;4 -->
<g id="edge9" class="edge">
<title>4&#45;&gt;4</title>
<path fill="none" stroke="black" d="M104.27,-34.29C102.28,-44.39 105.02,-54 112.5,-54 116.94,-54 119.71,-50.61 120.81,-45.74"/>
<polygon fill="black" stroke="black" points="124.31,-45.78 120.74,-35.8 117.31,-45.83 124.31,-45.78"/>
<text text-anchor="middle" x="112.5" y="-57.2" font-family="Times,serif" font-size="14.00">f/2</text>
</g>
<!-- 3 -->
<g id="node5" class="node">
<title>3</title>
<ellipse fill="none" stroke="black" cx="207" cy="-18" rx="18" ry="18"/>
<text text-anchor="middle" x="207" y="-12.95" font-family="Times,serif" font-size="14.00">3</text>
</g>
<!-- 4&#45;&gt;3 -->
<g id="edge8" class="edge">
<title>4&#45;&gt;3</title>
<path fill="none" stroke="black" d="M130.9,-18C143.95,-18 162.1,-18 177.29,-18"/>
<polygon fill="black" stroke="black" points="177.17,-21.5 187.17,-18 177.17,-14.5 177.17,-21.5"/>
<text text-anchor="middle" x="159.75" y="-21.2" font-family="Times,serif" font-size="14.00">d/6</text>
</g>
<!-- 1&#45;&gt;1 -->
<g id="edge3" class="edge">
<title>1&#45;&gt;1</title>
<path fill="none" stroke="black" d="M368.52,-78.58C367.38,-88.84 370.12,-98 376.75,-98 380.69,-98 383.25,-94.77 384.45,-90"/>
<polygon fill="black" stroke="black" points="387.94,-90.25 384.91,-80.09 380.95,-89.92 387.94,-90.25"/>
<text text-anchor="middle" x="376.75" y="-101.2" font-family="Times,serif" font-size="14.00">a/2</text>
</g>
<!-- 3&#45;&gt;2 -->
<g id="edge5" class="edge">
<title>3&#45;&gt;2</title>
<path fill="none" stroke="black" d="M223.15,-26.9C228.42,-29.9 234.42,-33.19 240,-36 247.31,-39.68 255.36,-43.41 262.8,-46.72"/>
<polygon fill="black" stroke="black" points="261.15,-49.82 271.72,-50.63 263.96,-43.41 261.15,-49.82"/>
<text text-anchor="middle" x="248.62" y="-47.2" font-family="Times,serif" font-size="14.00">b/3</text>
</g>
<!-- 3&#45;&gt;2 -->
<g id="edge6" class="edge">
<title>3&#45;&gt;2</title>
<path fill="none" stroke="black" d="M224.81,-13.17C234.75,-11.25 247.29,-10.53 257.25,-15.5 264.86,-19.3 271.14,-25.87 276.06,-32.72"/>
<polygon fill="black" stroke="black" points="272.82,-34.14 281.11,-40.73 278.74,-30.4 272.82,-34.14"/>
<text text-anchor="middle" x="248.62" y="-19.2" font-family="Times,serif" font-size="14.00">b/4</text>
</g>
<!-- 3&#45;&gt;3 -->
<g id="edge7" class="edge">
<title>3&#45;&gt;3</title>
<path fill="none" stroke="black" d="M199.68,-34.66C198.06,-44.62 200.5,-54 207,-54 210.86,-54 213.29,-50.69 214.29,-45.92"/>
<polygon fill="black" stroke="black" points="217.79,-46.19 214.31,-36.18 210.79,-46.17 217.79,-46.19"/>
<text text-anchor="middle" x="207" y="-57.2" font-family="Times,serif" font-size="14.00">d/5</text>
</g>
</g>
</svg>
