<?xml version="1.0" encoding="UTF-8" standalone="no"?>
<!DOCTYPE svg PUBLIC "-//W3C//DTD SVG 1.1//EN"
 "http://www.w3.org/Graphics/SVG/1.1/DTD/svg11.dtd">
<!-- Generated by graphviz version 6.0.1 (20220911.1526)
 -->
<!-- Title: FST Pages: 1 -->
<svg width="409pt" height="119pt"
 viewBox="0.00 0.00 409.00 119.00" xmlns="http://www.w3.org/2000/svg" xmlns:xlink="http://www.w3.org/1999/xlink">
<g id="graph0" class="graph" transform="scale(1 1) rotate(0) translate(4 115)">
<title>FST</title>
<polygon fill="white" stroke="none" points="-4,4 -4,-115 405,-115 405,4 -4,4"/>
<!-- 0 -->
<g id="node1" class="node">
<title>0</title>
<ellipse fill="none" stroke="black" stroke-width="2" cx="18" cy="-58" rx="18" ry="18"/>
<text text-anchor="middle" x="18" y="-54.3" font-family="Times,serif" font-size="14.00">0</text>
</g>
<!-- 2 -->
<g id="node2" class="node">
<title>2</title>
<ellipse fill="none" stroke="black" cx="292" cy="-56" rx="18" ry="18"/>
<text text-anchor="middle" x="292" y="-52.3" font-family="Times,serif" font-size="14.00">2</text>
</g>
<!-- 0&#45;&gt;2 -->
<g id="edge1" class="edge">
<title>0&#45;&gt;2</title>
<path fill="none" stroke="black" d="M35.36,-63.62C50.59,-68.53 74.03,-75.29 95,-78 152.74,-85.47 168.55,-87.46 226,-78 239.46,-75.78 253.87,-71.15 265.7,-66.71"/>
<polygon fill="black" stroke="black" points="267.32,-69.83 275.34,-62.91 264.76,-63.32 267.32,-69.83"/>
<text text-anchor="middle" x="160.5" y="-87.8" font-family="Times,serif" font-size="14.00">eps/3</text>
</g>
<!-- 4 -->
<g id="node3" class="node">
<title>4</title>
<ellipse fill="none" stroke="black" cx="113" cy="-18" rx="18" ry="18"/>
<text text-anchor="middle" x="113" y="-14.3" font-family="Times,serif" font-size="14.00">4</text>
</g>
<!-- 0&#45;&gt;4 -->
<g id="edge2" class="edge">
<title>0&#45;&gt;4</title>
<path fill="none" stroke="black" d="M34.78,-51.21C48.94,-45.12 69.98,-36.07 86.53,-28.96"/>
<polygon fill="black" stroke="black" points="88.34,-31.99 96.15,-24.82 85.58,-25.55 88.34,-31.99"/>
<text text-anchor="middle" x="65.5" y="-46.8" font-family="Times,serif" font-size="14.00">eps/2</text>
</g>
<!-- 1 -->
<g id="node4" class="node">
<title>1</title>
<ellipse fill="none" stroke="black" cx="379" cy="-56" rx="18" ry="18"/>
<ellipse fill="none" stroke="black" cx="379" cy="-56" rx="22" ry="22"/>
<text text-anchor="middle" x="379" y="-52.3" font-family="Times,serif" font-size="14.00">1</text>
</g>
<!-- 2&#45;&gt;1 -->
<g id="edge4" class="edge">
<title>2&#45;&gt;1</title>
<path fill="none" stroke="black" d="M310.2,-56C320.63,-56 334.26,-56 346.56,-56"/>
<polygon fill="black" stroke="black" points="346.91,-59.5 356.91,-56 346.91,-52.5 346.91,-59.5"/>
<text text-anchor="middle" x="333.5" y="-59.8" font-family="Times,serif" font-size="14.00">a/1</text>
</g>
<!-- 4&#45;&gt;4 -->
<g id="edge9" class="edge">
<title>4&#45;&gt;4</title>
<path fill="none" stroke="black" d="M104.72,-34.29C102.73,-44.39 105.49,-54 113,-54 117.81,-54 120.68,-50.06 121.59,-44.57"/>
<polygon fill="black" stroke="black" points="125.08,-44.18 121.28,-34.29 118.08,-44.39 125.08,-44.18"/>
<text text-anchor="middle" x="113" y="-57.8" font-family="Times,serif" font-size="14.00">f/2</text>
</g>
<!-- 3 -->
<g id="node5" class="node">
<title>3</title>
<ellipse fill="none" stroke="black" cx="208" cy="-18" rx="18" ry="18"/>
<text text-anchor="middle" x="208" y="-14.3" font-family="Times,serif" font-size="14.00">3</text>
</g>
<!-- 4&#45;&gt;3 -->
<g id="edge8" class="edge">
<title>4&#45;&gt;3</title>
<path fill="none" stroke="black" d="M131.06,-18C144.61,-18 163.82,-18 179.53,-18"/>
<polygon fill="black" stroke="black" points="179.74,-21.5 189.74,-18 179.74,-14.5 179.74,-21.5"/>
<text text-anchor="middle" x="160.5" y="-21.8" font-family="Times,serif" font-size="14.00">d/6</text>
</g>
<!-- 1&#45;&gt;1 -->
<g id="edge3" class="edge">
<title>1&#45;&gt;1</title>
<path fill="none" stroke="black" d="M370.72,-76.58C369.58,-86.84 372.33,-96 379,-96 383.27,-96 385.94,-92.24 387,-86.84"/>
<polygon fill="black" stroke="black" points="390.51,-86.67 387.28,-76.58 383.51,-86.48 390.51,-86.67"/>
<text text-anchor="middle" x="379" y="-99.8" font-family="Times,serif" font-size="14.00">a/2</text>
</g>
<!-- 3&#45;&gt;2 -->
<g id="edge5" class="edge">
<title>3&#45;&gt;2</title>
<path fill="none" stroke="black" d="M224.23,-25.8C229.51,-28.46 235.49,-31.41 241,-34 249.06,-37.78 257.92,-41.75 265.93,-45.26"/>
<polygon fill="black" stroke="black" points="264.58,-48.49 275.15,-49.26 267.37,-42.07 264.58,-48.49"/>
<text text-anchor="middle" x="250" y="-45.8" font-family="Times,serif" font-size="14.00">b/3</text>
</g>
<!-- 3&#45;&gt;2 -->
<g id="edge6" class="edge">
<title>3&#45;&gt;2</title>
<path fill="none" stroke="black" d="M225.57,-13.03C235.71,-10.92 248.68,-9.97 259,-15 266.53,-18.68 272.81,-25.08 277.75,-31.74"/>
<polygon fill="black" stroke="black" points="274.86,-33.72 283.29,-40.14 280.71,-29.87 274.86,-33.72"/>
<text text-anchor="middle" x="250" y="-18.8" font-family="Times,serif" font-size="14.00">b/4</text>
</g>
<!-- 3&#45;&gt;3 -->
<g id="edge7" class="edge">
<title>3&#45;&gt;3</title>
<path fill="none" stroke="black" d="M200.62,-34.66C198.98,-44.62 201.44,-54 208,-54 212.2,-54 214.72,-50.15 215.56,-44.77"/>
<polygon fill="black" stroke="black" points="219.06,-44.6 215.38,-34.66 212.06,-44.72 219.06,-44.6"/>
<text text-anchor="middle" x="208" y="-57.8" font-family="Times,serif" font-size="14.00">d/5</text>
</g>
</g>
</svg>
