<?xml version="1.0" encoding="UTF-8" standalone="no"?>
<!DOCTYPE svg PUBLIC "-//W3C//DTD SVG 1.1//EN"
 "http://www.w3.org/Graphics/SVG/1.1/DTD/svg11.dtd">
<!-- Generated by graphviz version 6.0.1 (20220911.1526)
 -->
<!-- Title: FST Pages: 1 -->
<svg width="327pt" height="93pt"
 viewBox="0.00 0.00 327.39 93.20" xmlns="http://www.w3.org/2000/svg" xmlns:xlink="http://www.w3.org/1999/xlink">
<g id="graph0" class="graph" transform="scale(1 1) rotate(0) translate(4 89.2)">
<title>FST</title>
<polygon fill="white" stroke="none" points="-4,4 -4,-89.2 323.39,-89.2 323.39,4 -4,4"/>
<!-- 0 -->
<g id="node1" class="node">
<title>0</title>
<ellipse fill="none" stroke="black" stroke-width="2" cx="18" cy="-26.1" rx="18" ry="18"/>
<text text-anchor="middle" x="18" y="-22.4" font-family="Times,serif" font-size="14.00">0</text>
</g>
<!-- 0&#45;&gt;0 -->
<g id="edge1" class="edge">
<title>0&#45;&gt;0</title>
<path fill="none" stroke="black" d="M10.71,-42.76C9.08,-52.72 11.52,-62.1 18,-62.1 22.15,-62.1 24.64,-58.25 25.47,-52.87"/>
<polygon fill="black" stroke="black" points="28.97,-52.7 25.29,-42.76 21.97,-52.82 28.97,-52.7"/>
<text text-anchor="middle" x="18" y="-65.9" font-family="Times,serif" font-size="14.00">a/2</text>
</g>
<!-- 1 -->
<g id="node2" class="node">
<title>1</title>
<ellipse fill="none" stroke="black" cx="109.1" cy="-26.1" rx="22.18" ry="22.18"/>
<ellipse fill="none" stroke="black" cx="109.1" cy="-26.1" rx="26.2" ry="26.2"/>
<text text-anchor="middle" x="109.1" y="-22.4" font-family="Times,serif" font-size="14.00">1/3</text>
</g>
<!-- 0&#45;&gt;1 -->
<g id="edge2" class="edge">
<title>0&#45;&gt;1</title>
<path fill="none" stroke="black" d="M36.18,-26.1C46.53,-26.1 60.1,-26.1 72.66,-26.1"/>
<polygon fill="black" stroke="black" points="72.88,-29.6 82.88,-26.1 72.88,-22.6 72.88,-29.6"/>
<text text-anchor="middle" x="59.5" y="-29.9" font-family="Times,serif" font-size="14.00">a/1</text>
</g>
<!-- 2 -->
<g id="node3" class="node">
<title>2</title>
<ellipse fill="none" stroke="black" cx="201.2" cy="-26.1" rx="18" ry="18"/>
<text text-anchor="middle" x="201.2" y="-22.4" font-family="Times,serif" font-size="14.00">2</text>
</g>
<!-- 1&#45;&gt;2 -->
<g id="edge3" class="edge">
<title>1&#45;&gt;2</title>
<path fill="none" stroke="black" d="M135.68,-26.1C147.31,-26.1 161.08,-26.1 172.91,-26.1"/>
<polygon fill="black" stroke="black" points="173.11,-29.6 183.11,-26.1 173.11,-22.6 173.11,-29.6"/>
<text text-anchor="middle" x="159.2" y="-29.9" font-family="Times,serif" font-size="14.00">b/3</text>
</g>
<!-- 1&#45;&gt;2 -->
<g id="edge4" class="edge">
<title>1&#45;&gt;2</title>
<path fill="none" stroke="black" d="M131.74,-12.73C142.61,-7.63 156.02,-3.76 168.2,-7.1 171.27,-7.94 174.36,-9.17 177.33,-10.6"/>
<polygon fill="black" stroke="black" points="175.86,-13.79 186.29,-15.64 179.29,-7.69 175.86,-13.79"/>
<text text-anchor="middle" x="159.2" y="-10.9" font-family="Times,serif" font-size="14.00">b/4</text>
</g>
<!-- 2&#45;&gt;2 -->
<g id="edge5" class="edge">
<title>2&#45;&gt;2</title>
<path fill="none" stroke="black" d="M193.81,-42.76C192.17,-52.72 194.63,-62.1 201.2,-62.1 205.4,-62.1 207.92,-58.25 208.76,-52.87"/>
<polygon fill="black" stroke="black" points="212.26,-52.7 208.58,-42.76 205.26,-52.82 212.26,-52.7"/>
<text text-anchor="middle" x="201.2" y="-65.9" font-family="Times,serif" font-size="14.00">d/5</text>
</g>
<!-- 3 -->
<g id="node4" class="node">
<title>3</title>
<ellipse fill="none" stroke="black" cx="293.29" cy="-26.1" rx="22.18" ry="22.18"/>
<ellipse fill="none" stroke="black" cx="293.29" cy="-26.1" rx="26.2" ry="26.2"/>
<text text-anchor="middle" x="293.29" y="-22.4" font-family="Times,serif" font-size="14.00">3/2</text>
</g>
<!-- 2&#45;&gt;3 -->
<g id="edge6" class="edge">
<title>2&#45;&gt;3</title>
<path fill="none" stroke="black" d="M219.57,-26.1C230.22,-26.1 244.24,-26.1 257.13,-26.1"/>
<polygon fill="black" stroke="black" points="257.14,-29.6 267.14,-26.1 257.14,-22.6 257.14,-29.6"/>
<text text-anchor="middle" x="243.2" y="-29.9" font-family="Times,serif" font-size="14.00">d/6</text>
</g>
<!-- 3&#45;&gt;3 -->
<g id="edge7" class="edge">
<title>3&#45;&gt;3</title>
<path fill="none" stroke="black" d="M284.01,-50.59C283.25,-61.15 286.35,-70.2 293.29,-70.2 297.85,-70.2 300.75,-66.3 301.99,-60.64"/>
<polygon fill="black" stroke="black" points="305.49,-60.77 302.58,-50.59 298.5,-60.37 305.49,-60.77"/>
<text text-anchor="middle" x="293.29" y="-74" font-family="Times,serif" font-size="14.00">f/2</text>
</g>
</g>
</svg>
