<?xml version="1.0" encoding="UTF-8" standalone="no"?>
<!DOCTYPE svg PUBLIC "-//W3C//DTD SVG 1.1//EN"
 "http://www.w3.org/Graphics/SVG/1.1/DTD/svg11.dtd">
<!-- Generated by graphviz version 9.0.0 (20230911.1827)
 -->
<!-- Title: FST Pages: 1 -->
<svg width="228pt" height="152pt"
 viewBox="0.00 0.00 227.88 151.69" xmlns="http://www.w3.org/2000/svg" xmlns:xlink="http://www.w3.org/1999/xlink">
<g id="graph0" class="graph" transform="scale(1 1) rotate(0) translate(4 147.69)">
<title>FST</title>
<polygon fill="white" stroke="none" points="-4,4 -4,-147.69 223.88,-147.69 223.88,4 -4,4"/>
<!-- 0 -->
<g id="node1" class="node">
<title>0</title>
<ellipse fill="none" stroke="black" stroke-width="2" cx="18" cy="-66" rx="18" ry="18"/>
<text text-anchor="middle" x="18" y="-60.95" font-family="Times,serif" font-size="14.00">0</text>
</g>
<!-- 1 -->
<g id="node2" class="node">
<title>1</title>
<ellipse fill="none" stroke="black" cx="101.25" cy="-106" rx="18" ry="18"/>
<text text-anchor="middle" x="101.25" y="-100.95" font-family="Times,serif" font-size="14.00">1</text>
</g>
<!-- 0&#45;&gt;1 -->
<g id="edge1" class="edge">
<title>0&#45;&gt;1</title>
<path fill="none" stroke="black" d="M23.45,-83.64C27.94,-97.31 36.34,-115.35 51,-124 59.03,-128.74 68.51,-126.81 77,-122.79"/>
<polygon fill="black" stroke="black" points="78.5,-125.96 85.39,-117.91 74.99,-119.91 78.5,-125.96"/>
<text text-anchor="middle" x="59.62" y="-129.2" font-family="Times,serif" font-size="14.00">a/2</text>
</g>
<!-- 0&#45;&gt;1 -->
<g id="edge2" class="edge">
<title>0&#45;&gt;1</title>
<path fill="none" stroke="black" d="M34.15,-74.9C39.42,-77.9 45.42,-81.19 51,-84 58.31,-87.68 66.36,-91.41 73.8,-94.72"/>
<polygon fill="black" stroke="black" points="72.15,-97.82 82.72,-98.63 74.96,-91.41 72.15,-97.82"/>
<text text-anchor="middle" x="59.62" y="-94.2" font-family="Times,serif" font-size="14.00">b/2</text>
</g>
<!-- 0&#45;&gt;1 -->
<g id="edge3" class="edge">
<title>0&#45;&gt;1</title>
<path fill="none" stroke="black" d="M35.81,-61.17C45.75,-59.25 58.29,-58.53 68.25,-63.5 75.86,-67.3 82.14,-73.87 87.06,-80.72"/>
<polygon fill="black" stroke="black" points="83.82,-82.14 92.11,-88.73 89.74,-78.4 83.82,-82.14"/>
<text text-anchor="middle" x="59.62" y="-66.2" font-family="Times,serif" font-size="14.00">c/3</text>
</g>
<!-- 2 -->
<g id="node3" class="node">
<title>2</title>
<ellipse fill="none" stroke="black" cx="101.25" cy="-18" rx="18" ry="18"/>
<text text-anchor="middle" x="101.25" y="-12.95" font-family="Times,serif" font-size="14.00">2</text>
</g>
<!-- 0&#45;&gt;2 -->
<g id="edge4" class="edge">
<title>0&#45;&gt;2</title>
<path fill="none" stroke="black" d="M31.35,-53.77C37.02,-48.61 44.02,-42.8 51,-38.5 57.81,-34.31 65.62,-30.61 73,-27.55"/>
<polygon fill="black" stroke="black" points="74.18,-30.85 82.24,-23.97 71.65,-24.32 74.18,-30.85"/>
<text text-anchor="middle" x="59.62" y="-42.2" font-family="Times,serif" font-size="14.00">d/3</text>
</g>
<!-- 0&#45;&gt;2 -->
<g id="edge5" class="edge">
<title>0&#45;&gt;2</title>
<path fill="none" stroke="black" d="M23.68,-48.53C28.26,-35.24 36.68,-17.84 51,-9.5 57.85,-5.51 66.08,-5.45 73.84,-7.02"/>
<polygon fill="black" stroke="black" points="72.62,-10.31 83.2,-9.8 74.61,-3.6 72.62,-10.31"/>
<text text-anchor="middle" x="59.62" y="-13.2" font-family="Times,serif" font-size="14.00">f/1</text>
</g>
<!-- 3 -->
<g id="node4" class="node">
<title>3</title>
<ellipse fill="none" stroke="black" cx="193.19" cy="-117" rx="22.69" ry="22.69"/>
<ellipse fill="none" stroke="black" cx="193.19" cy="-117" rx="26.69" ry="26.69"/>
<text text-anchor="middle" x="193.19" y="-111.95" font-family="Times,serif" font-size="14.00">3/1</text>
</g>
<!-- 1&#45;&gt;3 -->
<g id="edge6" class="edge">
<title>1&#45;&gt;3</title>
<path fill="none" stroke="black" d="M118.21,-113.27C123.24,-115.2 128.88,-117.03 134.25,-118 140.91,-119.21 148.07,-119.71 155.01,-119.8"/>
<polygon fill="black" stroke="black" points="154.89,-123.3 164.83,-119.63 154.77,-116.3 154.89,-123.3"/>
<text text-anchor="middle" x="142.88" y="-122.2" font-family="Times,serif" font-size="14.00">f/3</text>
</g>
<!-- 1&#45;&gt;3 -->
<g id="edge7" class="edge">
<title>1&#45;&gt;3</title>
<path fill="none" stroke="black" d="M118.3,-100.03C127.97,-97.23 140.5,-95 151.5,-97.5 153.98,-98.06 156.49,-98.8 158.98,-99.65"/>
<polygon fill="black" stroke="black" points="157.62,-102.88 168.2,-103.42 160.27,-96.4 157.62,-102.88"/>
<text text-anchor="middle" x="142.88" y="-100.2" font-family="Times,serif" font-size="14.00">g/2</text>
</g>
<!-- 4 -->
<g id="node5" class="node">
<title>4</title>
<ellipse fill="none" stroke="black" cx="193.19" cy="-34" rx="22.69" ry="22.69"/>
<ellipse fill="none" stroke="black" cx="193.19" cy="-34" rx="26.69" ry="26.69"/>
<text text-anchor="middle" x="193.19" y="-28.95" font-family="Times,serif" font-size="14.00">4/3</text>
</g>
<!-- 2&#45;&gt;4 -->
<g id="edge8" class="edge">
<title>2&#45;&gt;4</title>
<path fill="none" stroke="black" d="M119.17,-21.01C129.37,-22.83 142.79,-25.21 155.34,-27.44"/>
<polygon fill="black" stroke="black" points="154.55,-30.86 165.01,-29.16 155.78,-23.97 154.55,-30.86"/>
<text text-anchor="middle" x="142.88" y="-30.2" font-family="Times,serif" font-size="14.00">f/5</text>
</g>
<!-- 2&#45;&gt;4 -->
<g id="edge9" class="edge">
<title>2&#45;&gt;4</title>
<path fill="none" stroke="black" d="M117.45,-9.23C127.24,-4.71 140.2,-0.83 151.5,-4.5 155.56,-5.82 159.55,-7.7 163.35,-9.9"/>
<polygon fill="black" stroke="black" points="161.36,-12.78 171.63,-15.4 165.24,-6.95 161.36,-12.78"/>
<text text-anchor="middle" x="142.88" y="-8.2" font-family="Times,serif" font-size="14.00">g/4</text>
</g>
</g>
</svg>
