<?xml version="1.0" encoding="UTF-8" standalone="no"?>
<!DOCTYPE svg PUBLIC "-//W3C//DTD SVG 1.1//EN"
 "http://www.w3.org/Graphics/SVG/1.1/DTD/svg11.dtd">
<!-- Generated by graphviz version 7.0.4 (20221203.1631)
 -->
<!-- Title: FST Pages: 1 -->
<svg width="198pt" height="114pt"
 viewBox="0.00 0.00 198.00 114.13" xmlns="http://www.w3.org/2000/svg" xmlns:xlink="http://www.w3.org/1999/xlink">
<g id="graph0" class="graph" transform="scale(1 1) rotate(0) translate(4 110.13)">
<title>FST</title>
<polygon fill="white" stroke="none" points="-4,4 -4,-110.13 194,-110.13 194,4 -4,4"/>
<!-- 0 -->
<g id="node1" class="node">
<title>0</title>
<ellipse fill="none" stroke="black" stroke-width="2" cx="18" cy="-36.13" rx="18" ry="18"/>
<text text-anchor="middle" x="18" y="-32.43" font-family="Times,serif" font-size="14.00">0</text>
</g>
<!-- 1 -->
<g id="node2" class="node">
<title>1</title>
<ellipse fill="none" stroke="black" cx="91" cy="-74.13" rx="18" ry="18"/>
<text text-anchor="middle" x="91" y="-70.43" font-family="Times,serif" font-size="14.00">1</text>
</g>
<!-- 0&#45;&gt;1 -->
<g id="edge1" class="edge">
<title>0&#45;&gt;1</title>
<path fill="none" stroke="black" d="M24.09,-53.37C28.83,-66.02 37.27,-82.31 51,-90.13 55.83,-92.89 61.23,-92.59 66.44,-90.82"/>
<polygon fill="black" stroke="black" points="67.96,-93.98 75.26,-86.3 64.76,-87.75 67.96,-93.98"/>
<text text-anchor="middle" x="54.5" y="-94.93" font-family="Times,serif" font-size="14.00">1</text>
</g>
<!-- 0&#45;&gt;1 -->
<g id="edge2" class="edge">
<title>0&#45;&gt;1</title>
<path fill="none" stroke="black" d="M34.41,-44.38C43.24,-49.11 54.56,-55.17 64.67,-60.58"/>
<polygon fill="black" stroke="black" points="62.82,-63.56 73.29,-65.19 66.12,-57.38 62.82,-63.56"/>
<text text-anchor="middle" x="54.5" y="-59.93" font-family="Times,serif" font-size="14.00">3</text>
</g>
<!-- 0&#45;&gt;1 -->
<g id="edge3" class="edge">
<title>0&#45;&gt;1</title>
<path fill="none" stroke="black" d="M35.64,-31.82C42.84,-30.81 51.16,-30.84 58,-34.13 64.84,-37.42 70.67,-42.96 75.41,-48.88"/>
<polygon fill="black" stroke="black" points="72.49,-50.8 81.08,-57 78.23,-46.8 72.49,-50.8"/>
<text text-anchor="middle" x="54.5" y="-37.93" font-family="Times,serif" font-size="14.00">2</text>
</g>
<!-- 2 -->
<g id="node3" class="node">
<title>2</title>
<ellipse fill="none" stroke="black" cx="168" cy="-36.13" rx="18" ry="18"/>
<ellipse fill="none" stroke="black" cx="168" cy="-36.13" rx="22" ry="22"/>
<text text-anchor="middle" x="168" y="-32.43" font-family="Times,serif" font-size="14.00">2</text>
</g>
<!-- 0&#45;&gt;2 -->
<g id="edge4" class="edge">
<title>0&#45;&gt;2</title>
<path fill="none" stroke="black" d="M35.43,-30.58C40.37,-29.17 45.85,-27.84 51,-27.13 66.34,-25.02 -44.46,-9.8 131,-29.13 132.39,-29.29 133.8,-29.46 135.23,-29.66"/>
<polygon fill="black" stroke="black" points="134.22,-33.04 144.66,-31.23 135.36,-26.14 134.22,-33.04"/>
<text text-anchor="middle" x="91" y="-29.93" font-family="Times,serif" font-size="14.00">5</text>
</g>
<!-- 0&#45;&gt;2 -->
<g id="edge5" class="edge">
<title>0&#45;&gt;2</title>
<path fill="none" stroke="black" d="M32.2,-25.11C42.56,-17.22 57.74,-7.3 73,-3.13 88.43,1.09 93.53,0.96 109,-3.13 119.86,-6.01 130.81,-11.43 140.23,-17.07"/>
<polygon fill="black" stroke="black" points="138.18,-19.92 148.49,-22.34 141.94,-14.01 138.18,-19.92"/>
<text text-anchor="middle" x="91" y="-6.93" font-family="Times,serif" font-size="14.00">4</text>
</g>
<!-- 1&#45;&gt;2 -->
<g id="edge6" class="edge">
<title>1&#45;&gt;2</title>
<path fill="none" stroke="black" d="M105.31,-85.45C112.99,-90.55 122.74,-94.55 131,-90.13 140.7,-84.94 148.24,-75.85 153.86,-66.59"/>
<polygon fill="black" stroke="black" points="156.83,-68.45 158.49,-57.99 150.67,-65.13 156.83,-68.45"/>
<text text-anchor="middle" x="127.5" y="-94.93" font-family="Times,serif" font-size="14.00">2</text>
</g>
<!-- 1&#45;&gt;2 -->
<g id="edge7" class="edge">
<title>1&#45;&gt;2</title>
<path fill="none" stroke="black" d="M107.54,-66.26C116.2,-61.87 127.28,-56.26 137.52,-51.07"/>
<polygon fill="black" stroke="black" points="139.06,-54.21 146.4,-46.57 135.89,-47.97 139.06,-54.21"/>
<text text-anchor="middle" x="127.5" y="-60.93" font-family="Times,serif" font-size="14.00">3</text>
</g>
<!-- 1&#45;&gt;2 -->
<g id="edge8" class="edge">
<title>1&#45;&gt;2</title>
<path fill="none" stroke="black" d="M100.49,-58.63C105.99,-50.29 113.99,-40.79 124,-36.13 127.38,-34.56 131.09,-33.6 134.85,-33.07"/>
<polygon fill="black" stroke="black" points="134.73,-36.58 144.59,-32.69 134.45,-29.59 134.73,-36.58"/>
<text text-anchor="middle" x="127.5" y="-39.93" font-family="Times,serif" font-size="14.00">1</text>
</g>
</g>
</svg>
