<?xml version="1.0" encoding="UTF-8" standalone="no"?>
<!DOCTYPE svg PUBLIC "-//W3C//DTD SVG 1.1//EN"
 "http://www.w3.org/Graphics/SVG/1.1/DTD/svg11.dtd">
<!-- Generated by graphviz version 6.0.2 (20221011.1828)
 -->
<!-- Title: FST Pages: 1 -->
<svg width="228pt" height="146pt"
 viewBox="0.00 0.00 228.20 146.00" xmlns="http://www.w3.org/2000/svg" xmlns:xlink="http://www.w3.org/1999/xlink">
<g id="graph0" class="graph" transform="scale(1 1) rotate(0) translate(4 142)">
<title>FST</title>
<polygon fill="white" stroke="none" points="-4,4 -4,-142 224.2,-142 224.2,4 -4,4"/>
<!-- 0 -->
<g id="node1" class="node">
<title>0</title>
<ellipse fill="none" stroke="black" stroke-width="2" cx="18" cy="-67" rx="18" ry="18"/>
<text text-anchor="middle" x="18" y="-63.3" font-family="Times,serif" font-size="14.00">0</text>
</g>
<!-- 1 -->
<g id="node2" class="node">
<title>1</title>
<ellipse fill="none" stroke="black" cx="102" cy="-105" rx="18" ry="18"/>
<text text-anchor="middle" x="102" y="-101.3" font-family="Times,serif" font-size="14.00">1</text>
</g>
<!-- 0&#45;&gt;1 -->
<g id="edge1" class="edge">
<title>0&#45;&gt;1</title>
<path fill="none" stroke="black" d="M23.99,-83.98C28.71,-96.67 37.18,-113.12 51,-121 59.26,-125.71 69.08,-123.92 77.83,-120.16"/>
<polygon fill="black" stroke="black" points="79.52,-123.22 86.77,-115.5 76.29,-117.01 79.52,-123.22"/>
<text text-anchor="middle" x="60" y="-126.8" font-family="Times,serif" font-size="14.00">a/2</text>
</g>
<!-- 0&#45;&gt;1 -->
<g id="edge2" class="edge">
<title>0&#45;&gt;1</title>
<path fill="none" stroke="black" d="M34.23,-74.8C39.51,-77.46 45.49,-80.41 51,-83 59.06,-86.78 67.92,-90.75 75.93,-94.26"/>
<polygon fill="black" stroke="black" points="74.58,-97.49 85.15,-98.26 77.37,-91.07 74.58,-97.49"/>
<text text-anchor="middle" x="60" y="-94.8" font-family="Times,serif" font-size="14.00">b/2</text>
</g>
<!-- 0&#45;&gt;1 -->
<g id="edge3" class="edge">
<title>0&#45;&gt;1</title>
<path fill="none" stroke="black" d="M35.57,-62.03C45.71,-59.92 58.68,-58.97 69,-64 76.53,-67.68 82.81,-74.08 87.75,-80.74"/>
<polygon fill="black" stroke="black" points="84.86,-82.72 93.29,-89.14 90.71,-78.87 84.86,-82.72"/>
<text text-anchor="middle" x="60" y="-67.8" font-family="Times,serif" font-size="14.00">c/3</text>
</g>
<!-- 2 -->
<g id="node3" class="node">
<title>2</title>
<ellipse fill="none" stroke="black" cx="102" cy="-18" rx="18" ry="18"/>
<text text-anchor="middle" x="102" y="-14.3" font-family="Times,serif" font-size="14.00">2</text>
</g>
<!-- 0&#45;&gt;2 -->
<g id="edge4" class="edge">
<title>0&#45;&gt;2</title>
<path fill="none" stroke="black" d="M31.83,-55.34C37.47,-50.55 44.32,-45.16 51,-41 58.61,-36.26 67.36,-31.91 75.39,-28.29"/>
<polygon fill="black" stroke="black" points="76.91,-31.45 84.71,-24.27 74.14,-25.02 76.91,-31.45"/>
<text text-anchor="middle" x="60" y="-44.8" font-family="Times,serif" font-size="14.00">d/3</text>
</g>
<!-- 0&#45;&gt;2 -->
<g id="edge5" class="edge">
<title>0&#45;&gt;2</title>
<path fill="none" stroke="black" d="M23.9,-49.72C28.58,-36.8 37.02,-20.04 51,-12 58.25,-7.83 67.06,-7.61 75.25,-8.98"/>
<polygon fill="black" stroke="black" points="74.59,-12.42 85.13,-11.37 76.24,-5.62 74.59,-12.42"/>
<text text-anchor="middle" x="60" y="-15.8" font-family="Times,serif" font-size="14.00">f/1</text>
</g>
<!-- 3 -->
<g id="node4" class="node">
<title>3</title>
<ellipse fill="none" stroke="black" cx="194.1" cy="-110" rx="22.18" ry="22.18"/>
<ellipse fill="none" stroke="black" cx="194.1" cy="-110" rx="26.2" ry="26.2"/>
<text text-anchor="middle" x="194.1" y="-106.3" font-family="Times,serif" font-size="14.00">3/1</text>
</g>
<!-- 1&#45;&gt;3 -->
<g id="edge6" class="edge">
<title>1&#45;&gt;3</title>
<path fill="none" stroke="black" d="M119.46,-109.93C124.41,-111.19 129.88,-112.37 135,-113 142.44,-113.92 150.46,-114.05 158.08,-113.77"/>
<polygon fill="black" stroke="black" points="158.37,-117.26 168.15,-113.19 157.96,-110.28 158.37,-117.26"/>
<text text-anchor="middle" x="144" y="-116.8" font-family="Times,serif" font-size="14.00">f/3</text>
</g>
<!-- 1&#45;&gt;3 -->
<g id="edge7" class="edge">
<title>1&#45;&gt;3</title>
<path fill="none" stroke="black" d="M119.01,-98.34C124.04,-96.56 129.67,-94.89 135,-94 142.89,-92.68 145.14,-92.49 153,-94 155.51,-94.48 158.07,-95.12 160.61,-95.86"/>
<polygon fill="black" stroke="black" points="159.63,-99.23 170.23,-99.15 161.89,-92.61 159.63,-99.23"/>
<text text-anchor="middle" x="144" y="-97.8" font-family="Times,serif" font-size="14.00">g/2</text>
</g>
<!-- 4 -->
<g id="node5" class="node">
<title>4</title>
<ellipse fill="none" stroke="black" cx="194.1" cy="-29" rx="22.18" ry="22.18"/>
<ellipse fill="none" stroke="black" cx="194.1" cy="-29" rx="26.2" ry="26.2"/>
<text text-anchor="middle" x="194.1" y="-25.3" font-family="Times,serif" font-size="14.00">4/3</text>
</g>
<!-- 2&#45;&gt;4 -->
<g id="edge8" class="edge">
<title>2&#45;&gt;4</title>
<path fill="none" stroke="black" d="M119.95,-20.07C130.65,-21.38 144.87,-23.11 157.92,-24.71"/>
<polygon fill="black" stroke="black" points="157.7,-28.2 168.05,-25.94 158.55,-21.26 157.7,-28.2"/>
<text text-anchor="middle" x="144" y="-26.8" font-family="Times,serif" font-size="14.00">f/5</text>
</g>
<!-- 2&#45;&gt;4 -->
<g id="edge9" class="edge">
<title>2&#45;&gt;4</title>
<path fill="none" stroke="black" d="M117.87,-8.9C127.81,-3.96 141.18,0.5 153,-3 156.92,-4.16 160.81,-5.83 164.54,-7.78"/>
<polygon fill="black" stroke="black" points="163.03,-10.95 173.42,-13.05 166.61,-4.94 163.03,-10.95"/>
<text text-anchor="middle" x="144" y="-6.8" font-family="Times,serif" font-size="14.00">g/4</text>
</g>
</g>
</svg>
