<?xml version="1.0" encoding="UTF-8" standalone="no"?>
<!DOCTYPE svg PUBLIC "-//W3C//DTD SVG 1.1//EN"
 "http://www.w3.org/Graphics/SVG/1.1/DTD/svg11.dtd">
<!-- Generated by graphviz version 8.1.0 (20230707.0739)
 -->
<!-- Title: FST Pages: 1 -->
<svg width="407pt" height="123pt"
 viewBox="0.00 0.00 406.75 122.50" xmlns="http://www.w3.org/2000/svg" xmlns:xlink="http://www.w3.org/1999/xlink">
<g id="graph0" class="graph" transform="scale(1 1) rotate(0) translate(4 118.5)">
<title>FST</title>
<polygon fill="white" stroke="none" points="-4,4 -4,-118.5 402.75,-118.5 402.75,4 -4,4"/>
<!-- 0 -->
<g id="node1" class="node">
<title>0</title>
<ellipse fill="none" stroke="black" stroke-width="2" cx="18" cy="-59" rx="18" ry="18"/>
<text text-anchor="middle" x="18" y="-53.95" font-family="Times,serif" font-size="14.00">0</text>
</g>
<!-- 2 -->
<g id="node2" class="node">
<title>2</title>
<ellipse fill="none" stroke="black" cx="290.25" cy="-58" rx="18" ry="18"/>
<text text-anchor="middle" x="290.25" y="-52.95" font-family="Times,serif" font-size="14.00">2</text>
</g>
<!-- 0&#45;&gt;2 -->
<g id="edge1" class="edge">
<title>0&#45;&gt;2</title>
<path fill="none" stroke="black" d="M35.54,-64.71C50.68,-69.61 73.79,-76.3 94.5,-79 152.01,-86.49 167.72,-88.12 225,-79 237.82,-76.96 251.56,-72.76 263.03,-68.65"/>
<polygon fill="black" stroke="black" points="264.1,-71.61 272.23,-64.81 261.64,-65.06 264.1,-71.61"/>
<text text-anchor="middle" x="159.75" y="-89.2" font-family="Times,serif" font-size="14.00">eps/3</text>
</g>
<!-- 4 -->
<g id="node3" class="node">
<title>4</title>
<ellipse fill="none" stroke="black" cx="112.5" cy="-18" rx="18" ry="18"/>
<text text-anchor="middle" x="112.5" y="-12.95" font-family="Times,serif" font-size="14.00">4</text>
</g>
<!-- 0&#45;&gt;4 -->
<g id="edge2" class="edge">
<title>0&#45;&gt;4</title>
<path fill="none" stroke="black" d="M34.69,-52.04C48.64,-45.86 69.31,-36.7 85.7,-29.44"/>
<polygon fill="black" stroke="black" points="87.01,-32.24 94.73,-24.99 84.17,-25.84 87.01,-32.24"/>
<text text-anchor="middle" x="65.25" y="-48.2" font-family="Times,serif" font-size="14.00">eps/2</text>
</g>
<!-- 1 -->
<g id="node4" class="node">
<title>1</title>
<ellipse fill="none" stroke="black" cx="376.75" cy="-58" rx="18" ry="18"/>
<ellipse fill="none" stroke="black" cx="376.75" cy="-58" rx="22" ry="22"/>
<text text-anchor="middle" x="376.75" y="-52.95" font-family="Times,serif" font-size="14.00">1</text>
</g>
<!-- 2&#45;&gt;1 -->
<g id="edge4" class="edge">
<title>2&#45;&gt;1</title>
<path fill="none" stroke="black" d="M308.35,-58C318.44,-58 331.53,-58 343.49,-58"/>
<polygon fill="black" stroke="black" points="343.47,-61.5 353.47,-58 343.47,-54.5 343.47,-61.5"/>
<text text-anchor="middle" x="331.5" y="-61.2" font-family="Times,serif" font-size="14.00">a/1</text>
</g>
<!-- 4&#45;&gt;4 -->
<g id="edge9" class="edge">
<title>4&#45;&gt;4</title>
<path fill="none" stroke="black" d="M104.27,-34.29C102.28,-44.39 105.02,-54 112.5,-54 117.17,-54 120,-50.25 120.97,-44.96"/>
<polygon fill="black" stroke="black" points="124.46,-45.21 120.73,-35.29 117.46,-45.37 124.46,-45.21"/>
<text text-anchor="middle" x="112.5" y="-57.2" font-family="Times,serif" font-size="14.00">f/2</text>
</g>
<!-- 3 -->
<g id="node5" class="node">
<title>3</title>
<ellipse fill="none" stroke="black" cx="207" cy="-18" rx="18" ry="18"/>
<text text-anchor="middle" x="207" y="-12.95" font-family="Times,serif" font-size="14.00">3</text>
</g>
<!-- 4&#45;&gt;3 -->
<g id="edge8" class="edge">
<title>4&#45;&gt;3</title>
<path fill="none" stroke="black" d="M130.9,-18C144.08,-18 162.46,-18 177.74,-18"/>
<polygon fill="black" stroke="black" points="177.68,-21.5 187.68,-18 177.68,-14.5 177.68,-21.5"/>
<text text-anchor="middle" x="159.75" y="-21.2" font-family="Times,serif" font-size="14.00">d/6</text>
</g>
<!-- 1&#45;&gt;1 -->
<g id="edge3" class="edge">
<title>1&#45;&gt;1</title>
<path fill="none" stroke="black" d="M368.52,-78.58C367.38,-88.84 370.12,-98 376.75,-98 380.89,-98 383.52,-94.42 384.63,-89.24"/>
<polygon fill="black" stroke="black" points="388.15,-89.69 384.98,-79.58 381.15,-89.46 388.15,-89.69"/>
<text text-anchor="middle" x="376.75" y="-101.2" font-family="Times,serif" font-size="14.00">a/2</text>
</g>
<!-- 3&#45;&gt;2 -->
<g id="edge5" class="edge">
<title>3&#45;&gt;2</title>
<path fill="none" stroke="black" d="M223.15,-26.9C228.42,-29.9 234.42,-33.19 240,-36 247.39,-39.72 255.55,-43.49 263.06,-46.84"/>
<polygon fill="black" stroke="black" points="261.54,-50.43 272.11,-51.24 264.35,-44.02 261.54,-50.43"/>
<text text-anchor="middle" x="248.62" y="-47.2" font-family="Times,serif" font-size="14.00">b/3</text>
</g>
<!-- 3&#45;&gt;2 -->
<g id="edge6" class="edge">
<title>3&#45;&gt;2</title>
<path fill="none" stroke="black" d="M224.81,-13.17C234.75,-11.25 247.29,-10.53 257.25,-15.5 264.86,-19.3 271.14,-25.87 276.06,-32.72"/>
<polygon fill="black" stroke="black" points="273.62,-34.42 281.92,-41.01 279.54,-30.68 273.62,-34.42"/>
<text text-anchor="middle" x="248.62" y="-19.2" font-family="Times,serif" font-size="14.00">b/4</text>
</g>
<!-- 3&#45;&gt;3 -->
<g id="edge7" class="edge">
<title>3&#45;&gt;3</title>
<path fill="none" stroke="black" d="M199.68,-34.66C198.06,-44.62 200.5,-54 207,-54 210.96,-54 213.42,-50.52 214.36,-45.54"/>
<polygon fill="black" stroke="black" points="217.86,-45.65 214.32,-35.66 210.86,-45.68 217.86,-45.65"/>
<text text-anchor="middle" x="207" y="-57.2" font-family="Times,serif" font-size="14.00">d/5</text>
</g>
</g>
</svg>
