<?xml version="1.0" encoding="UTF-8" standalone="no"?>
<!DOCTYPE svg PUBLIC "-//W3C//DTD SVG 1.1//EN"
 "http://www.w3.org/Graphics/SVG/1.1/DTD/svg11.dtd">
<!-- Generated by graphviz version 2.43.0 (0)
 -->
<!-- Title: FST Pages: 1 -->
<svg width="355pt" height="100pt"
 viewBox="0.00 0.00 355.39 99.70" xmlns="http://www.w3.org/2000/svg" xmlns:xlink="http://www.w3.org/1999/xlink">
<g id="graph0" class="graph" transform="scale(1 1) rotate(0) translate(4 95.7)">
<title>FST</title>
<polygon fill="white" stroke="transparent" points="-4,4 -4,-95.7 351.39,-95.7 351.39,4 -4,4"/>
<!-- 0 -->
<g id="node1" class="node">
<title>0</title>
<ellipse fill="none" stroke="black" stroke-width="2" cx="18" cy="-29.35" rx="18" ry="18"/>
<text text-anchor="middle" x="18" y="-25.65" font-family="Times,serif" font-size="14.00">0</text>
</g>
<!-- 0&#45;&gt;0 -->
<g id="edge1" class="edge">
<title>0&#45;&gt;0</title>
<path fill="none" stroke="black" d="M10.33,-45.64C8.48,-55.74 11.04,-65.35 18,-65.35 22.46,-65.35 25.11,-61.4 25.95,-55.91"/>
<polygon fill="black" stroke="black" points="29.45,-55.54 25.67,-45.64 22.45,-55.73 29.45,-55.54"/>
<text text-anchor="middle" x="18" y="-69.15" font-family="Times,serif" font-size="14.00">a/2</text>
</g>
<!-- 1 -->
<g id="node2" class="node">
<title>1</title>
<ellipse fill="none" stroke="black" cx="117.35" cy="-29.35" rx="25.22" ry="25.22"/>
<ellipse fill="none" stroke="black" cx="117.35" cy="-29.35" rx="29.2" ry="29.2"/>
<text text-anchor="middle" x="117.35" y="-25.65" font-family="Times,serif" font-size="14.00">1/3</text>
</g>
<!-- 0&#45;&gt;1 -->
<g id="edge2" class="edge">
<title>0&#45;&gt;1</title>
<path fill="none" stroke="black" d="M36.4,-29.35C47.85,-29.35 63.29,-29.35 77.55,-29.35"/>
<polygon fill="black" stroke="black" points="77.65,-32.85 87.65,-29.35 77.65,-25.85 77.65,-32.85"/>
<text text-anchor="middle" x="62" y="-33.15" font-family="Times,serif" font-size="14.00">a/1</text>
</g>
<!-- 2 -->
<g id="node3" class="node">
<title>2</title>
<ellipse fill="none" stroke="black" cx="217.7" cy="-29.35" rx="18" ry="18"/>
<text text-anchor="middle" x="217.7" y="-25.65" font-family="Times,serif" font-size="14.00">2</text>
</g>
<!-- 1&#45;&gt;2 -->
<g id="edge3" class="edge">
<title>1&#45;&gt;2</title>
<path fill="none" stroke="black" d="M146.79,-29.35C160.09,-29.35 175.86,-29.35 189.05,-29.35"/>
<polygon fill="black" stroke="black" points="189.42,-32.85 199.42,-29.35 189.42,-25.85 189.42,-32.85"/>
<text text-anchor="middle" x="173.2" y="-33.15" font-family="Times,serif" font-size="14.00">b/3</text>
</g>
<!-- 1&#45;&gt;2 -->
<g id="edge4" class="edge">
<title>1&#45;&gt;2</title>
<path fill="none" stroke="black" d="M143.52,-15.47C155.9,-10.35 171.06,-6.61 184.7,-10.35 187.77,-11.19 190.86,-12.42 193.83,-13.85"/>
<polygon fill="black" stroke="black" points="192.35,-17.04 202.79,-18.89 195.79,-10.94 192.35,-17.04"/>
<text text-anchor="middle" x="173.2" y="-14.15" font-family="Times,serif" font-size="14.00">b/4</text>
</g>
<!-- 2&#45;&gt;2 -->
<g id="edge5" class="edge">
<title>2&#45;&gt;2</title>
<path fill="none" stroke="black" d="M210.03,-45.64C208.18,-55.74 210.73,-65.35 217.7,-65.35 222.15,-65.35 224.81,-61.4 225.65,-55.91"/>
<polygon fill="black" stroke="black" points="229.14,-55.54 225.36,-45.64 222.14,-55.73 229.14,-55.54"/>
<text text-anchor="middle" x="217.7" y="-69.15" font-family="Times,serif" font-size="14.00">d/5</text>
</g>
<!-- 3 -->
<g id="node4" class="node">
<title>3</title>
<ellipse fill="none" stroke="black" cx="318.04" cy="-29.35" rx="25.22" ry="25.22"/>
<ellipse fill="none" stroke="black" cx="318.04" cy="-29.35" rx="29.2" ry="29.2"/>
<text text-anchor="middle" x="318.04" y="-25.65" font-family="Times,serif" font-size="14.00">3/2</text>
</g>
<!-- 2&#45;&gt;3 -->
<g id="edge6" class="edge">
<title>2&#45;&gt;3</title>
<path fill="none" stroke="black" d="M235.83,-29.35C247.52,-29.35 263.49,-29.35 278.18,-29.35"/>
<polygon fill="black" stroke="black" points="278.56,-32.85 288.56,-29.35 278.56,-25.85 278.56,-32.85"/>
<text text-anchor="middle" x="262.2" y="-33.15" font-family="Times,serif" font-size="14.00">d/6</text>
</g>
<!-- 3&#45;&gt;3 -->
<g id="edge7" class="edge">
<title>3&#45;&gt;3</title>
<path fill="none" stroke="black" d="M307.96,-57.07C307.51,-67.79 310.87,-76.7 318.04,-76.7 322.75,-76.7 325.82,-72.86 327.24,-67.19"/>
<polygon fill="black" stroke="black" points="330.74,-67.34 328.13,-57.07 323.77,-66.72 330.74,-67.34"/>
<text text-anchor="middle" x="318.04" y="-80.5" font-family="Times,serif" font-size="14.00">f/2</text>
</g>
</g>
</svg>
