<?xml version="1.0" encoding="UTF-8" standalone="no"?>
<!DOCTYPE svg PUBLIC "-//W3C//DTD SVG 1.1//EN"
 "http://www.w3.org/Graphics/SVG/1.1/DTD/svg11.dtd">
<!-- Generated by graphviz version 8.1.0 (20230707.0739)
 -->
<!-- Title: FST Pages: 1 -->
<svg width="223pt" height="137pt"
 viewBox="0.00 0.00 223.00 136.72" xmlns="http://www.w3.org/2000/svg" xmlns:xlink="http://www.w3.org/1999/xlink">
<g id="graph0" class="graph" transform="scale(1 1) rotate(0) translate(4 132.72)">
<title>FST</title>
<polygon fill="white" stroke="none" points="-4,4 -4,-132.72 219,-132.72 219,4 -4,4"/>
<!-- 0 -->
<g id="node1" class="node">
<title>0</title>
<ellipse fill="none" stroke="black" stroke-width="2" cx="18" cy="-50.22" rx="18" ry="18"/>
<text text-anchor="middle" x="18" y="-45.17" font-family="Times,serif" font-size="14.00">0</text>
</g>
<!-- 1 -->
<g id="node2" class="node">
<title>1</title>
<ellipse fill="none" stroke="black" cx="108" cy="-50.22" rx="18" ry="18"/>
<text text-anchor="middle" x="108" y="-45.17" font-family="Times,serif" font-size="14.00">1</text>
</g>
<!-- 0&#45;&gt;1 -->
<g id="edge1" class="edge">
<title>0&#45;&gt;1</title>
<path fill="none" stroke="black" d="M23.45,-67.86C27.94,-81.54 36.34,-99.57 51,-108.22 60.19,-113.65 65.81,-113.65 75,-108.22 86.22,-101.6 93.78,-89.47 98.72,-78.02"/>
<polygon fill="black" stroke="black" points="102.29,-79.45 102.55,-68.86 95.74,-76.98 102.29,-79.45"/>
<text text-anchor="middle" x="63" y="-115.42" font-family="Times,serif" font-size="14.00">a/5</text>
</g>
<!-- 0&#45;&gt;1 -->
<g id="edge2" class="edge">
<title>0&#45;&gt;1</title>
<path fill="none" stroke="black" d="M33.3,-60.33C38.6,-63.51 44.83,-66.61 51,-68.22 61.32,-70.93 64.68,-70.93 75,-68.22 77.7,-67.52 80.41,-66.53 83.05,-65.37"/>
<polygon fill="black" stroke="black" points="84.46,-68.06 91.7,-60.33 81.22,-61.85 84.46,-68.06"/>
<text text-anchor="middle" x="63" y="-73.42" font-family="Times,serif" font-size="14.00">b/5</text>
</g>
<!-- 0&#45;&gt;1 -->
<g id="edge3" class="edge">
<title>0&#45;&gt;1</title>
<path fill="none" stroke="black" d="M36.26,-48.63C41.03,-48.25 46.21,-47.91 51,-47.72 61.66,-47.31 64.34,-47.31 75,-47.72 76.35,-47.78 77.72,-47.84 79.12,-47.91"/>
<polygon fill="black" stroke="black" points="78.53,-51.45 88.74,-48.63 79,-44.47 78.53,-51.45"/>
<text text-anchor="middle" x="63" y="-50.42" font-family="Times,serif" font-size="14.00">c/6</text>
</g>
<!-- 0&#45;&gt;1 -->
<g id="edge4" class="edge">
<title>0&#45;&gt;1</title>
<path fill="none" stroke="black" d="M31.63,-38.07C37.13,-33.59 43.93,-29.04 51,-26.72 61.14,-23.4 64.86,-23.4 75,-26.72 78.65,-27.92 82.22,-29.71 85.58,-31.77"/>
<polygon fill="black" stroke="black" points="83.21,-35.09 93.37,-38.07 87.28,-29.4 83.21,-35.09"/>
<text text-anchor="middle" x="63" y="-29.42" font-family="Times,serif" font-size="14.00">d/10</text>
</g>
<!-- 0&#45;&gt;1 -->
<g id="edge5" class="edge">
<title>0&#45;&gt;1</title>
<path fill="none" stroke="black" d="M25.5,-33.7C30.67,-23.04 39.03,-10.02 51,-3.72 60.44,1.24 65.56,1.24 75,-3.72 83.51,-8.2 90.2,-16.07 95.21,-24.08"/>
<polygon fill="black" stroke="black" points="92.61,-25.63 100.5,-32.7 98.75,-22.25 92.61,-25.63"/>
<text text-anchor="middle" x="63" y="-6.42" font-family="Times,serif" font-size="14.00">f/8</text>
</g>
<!-- 2 -->
<g id="node3" class="node">
<title>2</title>
<ellipse fill="none" stroke="black" cx="193" cy="-50.22" rx="18" ry="18"/>
<ellipse fill="none" stroke="black" cx="193" cy="-50.22" rx="22" ry="22"/>
<text text-anchor="middle" x="193" y="-45.17" font-family="Times,serif" font-size="14.00">2</text>
</g>
<!-- 1&#45;&gt;2 -->
<g id="edge6" class="edge">
<title>1&#45;&gt;2</title>
<path fill="none" stroke="black" d="M126.2,-50.22C135.88,-50.22 148.3,-50.22 159.73,-50.22"/>
<polygon fill="black" stroke="black" points="159.69,-53.72 169.69,-50.22 159.69,-46.72 159.69,-53.72"/>
<text text-anchor="middle" x="148.5" y="-53.42" font-family="Times,serif" font-size="14.00">f/1</text>
</g>
<!-- 1&#45;&gt;2 -->
<g id="edge7" class="edge">
<title>1&#45;&gt;2</title>
<path fill="none" stroke="black" d="M122.48,-39.16C127.9,-35.4 134.41,-31.65 141,-29.72 149.02,-27.37 157.53,-29.03 165.25,-32.23"/>
<polygon fill="black" stroke="black" points="163.33,-35.69 173.83,-37.12 166.51,-29.46 163.33,-35.69"/>
<text text-anchor="middle" x="148.5" y="-32.42" font-family="Times,serif" font-size="14.00">g</text>
</g>
</g>
</svg>
