<?xml version="1.0" encoding="UTF-8" standalone="no"?>
<!DOCTYPE svg PUBLIC "-//W3C//DTD SVG 1.1//EN"
 "http://www.w3.org/Graphics/SVG/1.1/DTD/svg11.dtd">
<!-- Generated by graphviz version 2.43.0 (0)
 -->
<!-- Title: FST Pages: 1 -->
<svg width="245pt" height="159pt"
 viewBox="0.00 0.00 244.70 159.35" xmlns="http://www.w3.org/2000/svg" xmlns:xlink="http://www.w3.org/1999/xlink">
<g id="graph0" class="graph" transform="scale(1 1) rotate(0) translate(4 155.35)">
<title>FST</title>
<polygon fill="white" stroke="transparent" points="-4,4 -4,-155.35 240.7,-155.35 240.7,4 -4,4"/>
<!-- 0 -->
<g id="node1" class="node">
<title>0</title>
<ellipse fill="none" stroke="black" stroke-width="2" cx="18" cy="-70" rx="18" ry="18"/>
<text text-anchor="middle" x="18" y="-66.3" font-family="Times,serif" font-size="14.00">0</text>
</g>
<!-- 1 -->
<g id="node2" class="node">
<title>1</title>
<ellipse fill="none" stroke="black" cx="107" cy="-108" rx="18" ry="18"/>
<text text-anchor="middle" x="107" y="-104.3" font-family="Times,serif" font-size="14.00">1</text>
</g>
<!-- 0&#45;&gt;1 -->
<g id="edge1" class="edge">
<title>0&#45;&gt;1</title>
<path fill="none" stroke="black" d="M23.99,-86.98C28.71,-99.67 37.18,-116.12 51,-124 60.69,-129.52 72.45,-127.13 82.6,-122.71"/>
<polygon fill="black" stroke="black" points="84.42,-125.71 91.72,-118.03 81.23,-119.48 84.42,-125.71"/>
<text text-anchor="middle" x="62.5" y="-130.8" font-family="Times,serif" font-size="14.00">a/2</text>
</g>
<!-- 0&#45;&gt;1 -->
<g id="edge2" class="edge">
<title>0&#45;&gt;1</title>
<path fill="none" stroke="black" d="M34.18,-77.91C39.46,-80.58 45.45,-83.51 51,-86 60.51,-90.27 71.11,-94.61 80.44,-98.29"/>
<polygon fill="black" stroke="black" points="79.38,-101.63 89.97,-101.99 81.92,-95.11 79.38,-101.63"/>
<text text-anchor="middle" x="62.5" y="-98.8" font-family="Times,serif" font-size="14.00">b/2</text>
</g>
<!-- 0&#45;&gt;1 -->
<g id="edge3" class="edge">
<title>0&#45;&gt;1</title>
<path fill="none" stroke="black" d="M35.72,-64.99C47.08,-62.54 62.14,-61.21 74,-67 81.53,-70.68 87.81,-77.08 92.75,-83.74"/>
<polygon fill="black" stroke="black" points="89.86,-85.72 98.29,-92.14 95.71,-81.87 89.86,-85.72"/>
<text text-anchor="middle" x="62.5" y="-70.8" font-family="Times,serif" font-size="14.00">c/3</text>
</g>
<!-- 2 -->
<g id="node3" class="node">
<title>2</title>
<ellipse fill="none" stroke="black" cx="107" cy="-18" rx="18" ry="18"/>
<text text-anchor="middle" x="107" y="-14.3" font-family="Times,serif" font-size="14.00">2</text>
</g>
<!-- 0&#45;&gt;2 -->
<g id="edge4" class="edge">
<title>0&#45;&gt;2</title>
<path fill="none" stroke="black" d="M31.76,-57.84C37.38,-52.86 44.24,-47.27 51,-43 60.08,-37.26 70.7,-32.11 80.17,-28"/>
<polygon fill="black" stroke="black" points="81.63,-31.18 89.51,-24.11 78.94,-24.72 81.63,-31.18"/>
<text text-anchor="middle" x="62.5" y="-46.8" font-family="Times,serif" font-size="14.00">d/3</text>
</g>
<!-- 0&#45;&gt;2 -->
<g id="edge5" class="edge">
<title>0&#45;&gt;2</title>
<path fill="none" stroke="black" d="M23.54,-52.66C28.07,-39.21 36.51,-21.49 51,-13 59.63,-7.95 70.35,-7.84 80.04,-9.49"/>
<polygon fill="black" stroke="black" points="79.45,-12.95 89.98,-11.82 81.04,-6.13 79.45,-12.95"/>
<text text-anchor="middle" x="62.5" y="-16.8" font-family="Times,serif" font-size="14.00">f/1</text>
</g>
<!-- 3 -->
<g id="node4" class="node">
<title>3</title>
<ellipse fill="none" stroke="black" cx="207.35" cy="-122" rx="25.22" ry="25.22"/>
<ellipse fill="none" stroke="black" cx="207.35" cy="-122" rx="29.2" ry="29.2"/>
<text text-anchor="middle" x="207.35" y="-118.3" font-family="Times,serif" font-size="14.00">3/1</text>
</g>
<!-- 1&#45;&gt;3 -->
<g id="edge6" class="edge">
<title>1&#45;&gt;3</title>
<path fill="none" stroke="black" d="M122.75,-117.16C128,-119.93 134.08,-122.6 140,-124 148.96,-126.12 158.8,-126.72 168.08,-126.54"/>
<polygon fill="black" stroke="black" points="168.44,-130.03 178.26,-126.05 168.1,-123.04 168.44,-130.03"/>
<text text-anchor="middle" x="151.5" y="-129.8" font-family="Times,serif" font-size="14.00">f/3</text>
</g>
<!-- 1&#45;&gt;3 -->
<g id="edge7" class="edge">
<title>1&#45;&gt;3</title>
<path fill="none" stroke="black" d="M124.99,-104.98C135.93,-103.55 150.41,-102.62 163,-105 165.5,-105.47 168.04,-106.09 170.58,-106.8"/>
<polygon fill="black" stroke="black" points="169.63,-110.17 180.22,-109.95 171.8,-103.52 169.63,-110.17"/>
<text text-anchor="middle" x="151.5" y="-108.8" font-family="Times,serif" font-size="14.00">g/2</text>
</g>
<!-- 4 -->
<g id="node5" class="node">
<title>4</title>
<ellipse fill="none" stroke="black" cx="207.35" cy="-36" rx="25.22" ry="25.22"/>
<ellipse fill="none" stroke="black" cx="207.35" cy="-36" rx="29.2" ry="29.2"/>
<text text-anchor="middle" x="207.35" y="-32.3" font-family="Times,serif" font-size="14.00">4/3</text>
</g>
<!-- 2&#45;&gt;4 -->
<g id="edge8" class="edge">
<title>2&#45;&gt;4</title>
<path fill="none" stroke="black" d="M122.78,-27.06C128.02,-29.82 134.1,-32.51 140,-34 148.85,-36.23 158.57,-37.27 167.78,-37.65"/>
<polygon fill="black" stroke="black" points="167.83,-41.15 177.89,-37.82 167.95,-34.15 167.83,-41.15"/>
<text text-anchor="middle" x="151.5" y="-41.8" font-family="Times,serif" font-size="14.00">f/5</text>
</g>
<!-- 2&#45;&gt;4 -->
<g id="edge9" class="edge">
<title>2&#45;&gt;4</title>
<path fill="none" stroke="black" d="M125.06,-14.65C136.03,-13.09 150.51,-12.13 163,-15 166,-15.69 169.03,-16.61 172.03,-17.69"/>
<polygon fill="black" stroke="black" points="170.8,-20.97 181.38,-21.56 173.48,-14.5 170.8,-20.97"/>
<text text-anchor="middle" x="151.5" y="-18.8" font-family="Times,serif" font-size="14.00">g/4</text>
</g>
</g>
</svg>
