<?xml version="1.0" encoding="UTF-8" standalone="no"?>
<!DOCTYPE svg PUBLIC "-//W3C//DTD SVG 1.1//EN"
 "http://www.w3.org/Graphics/SVG/1.1/DTD/svg11.dtd">
<!-- Generated by graphviz version 7.0.0 (20221023.0053)
 -->
<!-- Title: FST Pages: 1 -->
<svg width="228pt" height="146pt"
 viewBox="0.00 0.00 228.20 146.00" xmlns="http://www.w3.org/2000/svg" xmlns:xlink="http://www.w3.org/1999/xlink">
<g id="graph0" class="graph" transform="scale(1 1) rotate(0) translate(4 142)">
<title>FST</title>
<polygon fill="white" stroke="none" points="-4,4 -4,-142 224.2,-142 224.2,4 -4,4"/>
<!-- 0 -->
<g id="node1" class="node">
<title>0</title>
<ellipse fill="none" stroke="black" stroke-width="2" cx="18" cy="-67" rx="18" ry="18"/>
<text text-anchor="middle" x="18" y="-63.3" font-family="Times,serif" font-size="14.00">0</text>
</g>
<!-- 1 -->
<g id="node2" class="node">
<title>1</title>
<ellipse fill="none" stroke="black" cx="102" cy="-105" rx="18" ry="18"/>
<text text-anchor="middle" x="102" y="-101.3" font-family="Times,serif" font-size="14.00">1</text>
</g>
<!-- 0&#45;&gt;1 -->
<g id="edge1" class="edge">
<title>0&#45;&gt;1</title>
<path fill="none" stroke="black" d="M24.09,-84.24C28.83,-96.89 37.27,-113.18 51,-121 58.91,-125.51 68.25,-124.06 76.71,-120.63"/>
<polygon fill="black" stroke="black" points="78.1,-123.85 85.43,-116.19 74.93,-117.61 78.1,-123.85"/>
<text text-anchor="middle" x="60" y="-126.8" font-family="Times,serif" font-size="14.00">a/2</text>
</g>
<!-- 0&#45;&gt;1 -->
<g id="edge2" class="edge">
<title>0&#45;&gt;1</title>
<path fill="none" stroke="black" d="M34.55,-74.97C39.75,-77.58 45.6,-80.47 51,-83 58.61,-86.58 66.95,-90.31 74.6,-93.67"/>
<polygon fill="black" stroke="black" points="73.19,-96.88 83.76,-97.66 75.99,-90.46 73.19,-96.88"/>
<text text-anchor="middle" x="60" y="-94.8" font-family="Times,serif" font-size="14.00">b/2</text>
</g>
<!-- 0&#45;&gt;1 -->
<g id="edge3" class="edge">
<title>0&#45;&gt;1</title>
<path fill="none" stroke="black" d="M35.57,-62.03C45.71,-59.92 58.68,-58.97 69,-64 76.2,-67.51 82.25,-73.51 87.08,-79.85"/>
<polygon fill="black" stroke="black" points="83.98,-81.51 92.45,-87.88 89.8,-77.62 83.98,-81.51"/>
<text text-anchor="middle" x="60" y="-67.8" font-family="Times,serif" font-size="14.00">c/3</text>
</g>
<!-- 2 -->
<g id="node3" class="node">
<title>2</title>
<ellipse fill="none" stroke="black" cx="102" cy="-18" rx="18" ry="18"/>
<text text-anchor="middle" x="102" y="-14.3" font-family="Times,serif" font-size="14.00">2</text>
</g>
<!-- 0&#45;&gt;2 -->
<g id="edge4" class="edge">
<title>0&#45;&gt;2</title>
<path fill="none" stroke="black" d="M32.14,-55.07C37.72,-50.35 44.44,-45.09 51,-41 58.28,-36.47 66.6,-32.29 74.33,-28.77"/>
<polygon fill="black" stroke="black" points="75.54,-32.06 83.32,-24.87 72.75,-25.64 75.54,-32.06"/>
<text text-anchor="middle" x="60" y="-44.8" font-family="Times,serif" font-size="14.00">d/3</text>
</g>
<!-- 0&#45;&gt;2 -->
<g id="edge5" class="edge">
<title>0&#45;&gt;2</title>
<path fill="none" stroke="black" d="M23.9,-49.72C28.58,-36.8 37.02,-20.04 51,-12 57.93,-8.02 66.28,-7.64 74.15,-8.81"/>
<polygon fill="black" stroke="black" points="73.13,-12.16 83.66,-11.03 74.72,-5.34 73.13,-12.16"/>
<text text-anchor="middle" x="60" y="-15.8" font-family="Times,serif" font-size="14.00">f/1</text>
</g>
<!-- 3 -->
<g id="node4" class="node">
<title>3</title>
<ellipse fill="none" stroke="black" cx="194.1" cy="-110" rx="22.18" ry="22.18"/>
<ellipse fill="none" stroke="black" cx="194.1" cy="-110" rx="26.2" ry="26.2"/>
<text text-anchor="middle" x="194.1" y="-106.3" font-family="Times,serif" font-size="14.00">3/1</text>
</g>
<!-- 1&#45;&gt;3 -->
<g id="edge6" class="edge">
<title>1&#45;&gt;3</title>
<path fill="none" stroke="black" d="M119.79,-110.02C124.65,-111.25 130,-112.38 135,-113 141.96,-113.86 149.41,-114.03 156.58,-113.82"/>
<polygon fill="black" stroke="black" points="156.56,-117.33 166.35,-113.29 156.18,-110.34 156.56,-117.33"/>
<text text-anchor="middle" x="144" y="-116.8" font-family="Times,serif" font-size="14.00">f/3</text>
</g>
<!-- 1&#45;&gt;3 -->
<g id="edge7" class="edge">
<title>1&#45;&gt;3</title>
<path fill="none" stroke="black" d="M119.01,-98.34C124.04,-96.56 129.67,-94.89 135,-94 142.89,-92.68 145.14,-92.49 153,-94 155.01,-94.39 157.05,-94.87 159.08,-95.43"/>
<polygon fill="black" stroke="black" points="157.77,-98.68 168.36,-98.51 159.97,-92.04 157.77,-98.68"/>
<text text-anchor="middle" x="144" y="-97.8" font-family="Times,serif" font-size="14.00">g/2</text>
</g>
<!-- 4 -->
<g id="node5" class="node">
<title>4</title>
<ellipse fill="none" stroke="black" cx="194.1" cy="-29" rx="22.18" ry="22.18"/>
<ellipse fill="none" stroke="black" cx="194.1" cy="-29" rx="26.2" ry="26.2"/>
<text text-anchor="middle" x="194.1" y="-25.3" font-family="Times,serif" font-size="14.00">4/3</text>
</g>
<!-- 2&#45;&gt;4 -->
<g id="edge8" class="edge">
<title>2&#45;&gt;4</title>
<path fill="none" stroke="black" d="M120.37,-20.12C130.63,-21.37 144.01,-23.01 156.5,-24.53"/>
<polygon fill="black" stroke="black" points="155.74,-27.97 166.09,-25.7 156.59,-21.02 155.74,-27.97"/>
<text text-anchor="middle" x="144" y="-26.8" font-family="Times,serif" font-size="14.00">f/5</text>
</g>
<!-- 2&#45;&gt;4 -->
<g id="edge9" class="edge">
<title>2&#45;&gt;4</title>
<path fill="none" stroke="black" d="M117.87,-8.9C127.81,-3.96 141.18,0.5 153,-3 156.5,-4.04 159.98,-5.48 163.35,-7.17"/>
<polygon fill="black" stroke="black" points="161.29,-10.02 171.69,-12.02 164.81,-3.97 161.29,-10.02"/>
<text text-anchor="middle" x="144" y="-6.8" font-family="Times,serif" font-size="14.00">g/4</text>
</g>
</g>
</svg>
