<?xml version="1.0" encoding="UTF-8" standalone="no"?>
<!DOCTYPE svg PUBLIC "-//W3C//DTD SVG 1.1//EN"
 "http://www.w3.org/Graphics/SVG/1.1/DTD/svg11.dtd">
<!-- Generated by graphviz version 7.0.0 (20221023.0053)
 -->
<!-- Title: FST Pages: 1 -->
<svg width="327pt" height="93pt"
 viewBox="0.00 0.00 327.39 93.20" xmlns="http://www.w3.org/2000/svg" xmlns:xlink="http://www.w3.org/1999/xlink">
<g id="graph0" class="graph" transform="scale(1 1) rotate(0) translate(4 89.2)">
<title>FST</title>
<polygon fill="white" stroke="none" points="-4,4 -4,-89.2 323.39,-89.2 323.39,4 -4,4"/>
<!-- 0 -->
<g id="node1" class="node">
<title>0</title>
<ellipse fill="none" stroke="black" stroke-width="2" cx="18" cy="-26.1" rx="18" ry="18"/>
<text text-anchor="middle" x="18" y="-22.4" font-family="Times,serif" font-size="14.00">0</text>
</g>
<!-- 0&#45;&gt;0 -->
<g id="edge1" class="edge">
<title>0&#45;&gt;0</title>
<path fill="none" stroke="black" d="M10.71,-42.76C9.08,-52.72 11.52,-62.1 18,-62.1 21.85,-62.1 24.27,-58.79 25.26,-54.02"/>
<polygon fill="black" stroke="black" points="28.76,-54.29 25.29,-44.28 21.76,-54.27 28.76,-54.29"/>
<text text-anchor="middle" x="18" y="-65.9" font-family="Times,serif" font-size="14.00">a/2</text>
</g>
<!-- 1 -->
<g id="node2" class="node">
<title>1</title>
<ellipse fill="none" stroke="black" cx="109.1" cy="-26.1" rx="22.18" ry="22.18"/>
<ellipse fill="none" stroke="black" cx="109.1" cy="-26.1" rx="26.2" ry="26.2"/>
<text text-anchor="middle" x="109.1" y="-22.4" font-family="Times,serif" font-size="14.00">1/3</text>
</g>
<!-- 0&#45;&gt;1 -->
<g id="edge2" class="edge">
<title>0&#45;&gt;1</title>
<path fill="none" stroke="black" d="M36.18,-26.1C46.14,-26.1 59.09,-26.1 71.25,-26.1"/>
<polygon fill="black" stroke="black" points="71.02,-29.6 81.02,-26.1 71.02,-22.6 71.02,-29.6"/>
<text text-anchor="middle" x="59.5" y="-29.9" font-family="Times,serif" font-size="14.00">a/1</text>
</g>
<!-- 2 -->
<g id="node3" class="node">
<title>2</title>
<ellipse fill="none" stroke="black" cx="201.2" cy="-26.1" rx="18" ry="18"/>
<text text-anchor="middle" x="201.2" y="-22.4" font-family="Times,serif" font-size="14.00">2</text>
</g>
<!-- 1&#45;&gt;2 -->
<g id="edge3" class="edge">
<title>1&#45;&gt;2</title>
<path fill="none" stroke="black" d="M135.68,-26.1C146.87,-26.1 160.06,-26.1 171.58,-26.1"/>
<polygon fill="black" stroke="black" points="171.32,-29.6 181.32,-26.1 171.32,-22.6 171.32,-29.6"/>
<text text-anchor="middle" x="159.2" y="-29.9" font-family="Times,serif" font-size="14.00">b/3</text>
</g>
<!-- 1&#45;&gt;2 -->
<g id="edge4" class="edge">
<title>1&#45;&gt;2</title>
<path fill="none" stroke="black" d="M132.02,-12.6C142.83,-7.56 156.12,-3.78 168.2,-7.1 170.98,-7.86 173.76,-8.94 176.46,-10.19"/>
<polygon fill="black" stroke="black" points="174.52,-13.12 184.96,-14.9 177.91,-6.99 174.52,-13.12"/>
<text text-anchor="middle" x="159.2" y="-10.9" font-family="Times,serif" font-size="14.00">b/4</text>
</g>
<!-- 2&#45;&gt;2 -->
<g id="edge5" class="edge">
<title>2&#45;&gt;2</title>
<path fill="none" stroke="black" d="M193.81,-42.76C192.17,-52.72 194.63,-62.1 201.2,-62.1 205.09,-62.1 207.54,-58.79 208.55,-54.02"/>
<polygon fill="black" stroke="black" points="212.05,-54.29 208.57,-44.28 205.05,-54.27 212.05,-54.29"/>
<text text-anchor="middle" x="201.2" y="-65.9" font-family="Times,serif" font-size="14.00">d/5</text>
</g>
<!-- 3 -->
<g id="node4" class="node">
<title>3</title>
<ellipse fill="none" stroke="black" cx="293.29" cy="-26.1" rx="22.18" ry="22.18"/>
<ellipse fill="none" stroke="black" cx="293.29" cy="-26.1" rx="26.2" ry="26.2"/>
<text text-anchor="middle" x="293.29" y="-22.4" font-family="Times,serif" font-size="14.00">3/2</text>
</g>
<!-- 2&#45;&gt;3 -->
<g id="edge6" class="edge">
<title>2&#45;&gt;3</title>
<path fill="none" stroke="black" d="M219.57,-26.1C229.72,-26.1 242.94,-26.1 255.31,-26.1"/>
<polygon fill="black" stroke="black" points="255.28,-29.6 265.28,-26.1 255.28,-22.6 255.28,-29.6"/>
<text text-anchor="middle" x="243.2" y="-29.9" font-family="Times,serif" font-size="14.00">d/6</text>
</g>
<!-- 3&#45;&gt;3 -->
<g id="edge7" class="edge">
<title>3&#45;&gt;3</title>
<path fill="none" stroke="black" d="M283.98,-51.03C283.34,-61.4 286.44,-70.2 293.29,-70.2 297.36,-70.2 300.11,-67.1 301.53,-62.41"/>
<polygon fill="black" stroke="black" points="305.01,-62.82 302.46,-52.54 298.04,-62.17 305.01,-62.82"/>
<text text-anchor="middle" x="293.29" y="-74" font-family="Times,serif" font-size="14.00">f/2</text>
</g>
</g>
</svg>
