<?xml version="1.0" encoding="UTF-8" standalone="no"?>
<!DOCTYPE svg PUBLIC "-//W3C//DTD SVG 1.1//EN"
 "http://www.w3.org/Graphics/SVG/1.1/DTD/svg11.dtd">
<!-- Generated by graphviz version 2.43.0 (0)
 -->
<!-- Title: FST Pages: 1 -->
<svg width="235pt" height="133pt"
 viewBox="0.00 0.00 235.00 132.94" xmlns="http://www.w3.org/2000/svg" xmlns:xlink="http://www.w3.org/1999/xlink">
<g id="graph0" class="graph" transform="scale(1 1) rotate(0) translate(4 128.94)">
<title>FST</title>
<polygon fill="white" stroke="transparent" points="-4,4 -4,-128.94 231,-128.94 231,4 -4,4"/>
<!-- 0 -->
<g id="node1" class="node">
<title>0</title>
<ellipse fill="none" stroke="black" stroke-width="2" cx="18" cy="-50.94" rx="18" ry="18"/>
<text text-anchor="middle" x="18" y="-47.24" font-family="Times,serif" font-size="14.00">0</text>
</g>
<!-- 1 -->
<g id="node2" class="node">
<title>1</title>
<ellipse fill="none" stroke="black" cx="116" cy="-50.94" rx="18" ry="18"/>
<text text-anchor="middle" x="116" y="-47.24" font-family="Times,serif" font-size="14.00">1</text>
</g>
<!-- 0&#45;&gt;1 -->
<g id="edge1" class="edge">
<title>0&#45;&gt;1</title>
<path fill="none" stroke="black" d="M23.99,-67.92C28.71,-80.61 37.18,-97.06 51,-104.94 63.36,-111.98 70.64,-111.98 83,-104.94 93.58,-98.91 101.03,-87.85 106.05,-77.3"/>
<polygon fill="black" stroke="black" points="109.35,-78.49 110.01,-67.92 102.9,-75.77 109.35,-78.49"/>
<text text-anchor="middle" x="67" y="-113.74" font-family="Times,serif" font-size="14.00">a/5</text>
</g>
<!-- 0&#45;&gt;1 -->
<g id="edge2" class="edge">
<title>0&#45;&gt;1</title>
<path fill="none" stroke="black" d="M33.75,-60.1C39,-62.87 45.08,-65.54 51,-66.94 64.84,-70.21 69.16,-70.21 83,-66.94 85.68,-66.31 88.4,-65.41 91.06,-64.36"/>
<polygon fill="black" stroke="black" points="92.65,-67.48 100.25,-60.1 89.7,-61.13 92.65,-67.48"/>
<text text-anchor="middle" x="67" y="-72.74" font-family="Times,serif" font-size="14.00">b/5</text>
</g>
<!-- 0&#45;&gt;1 -->
<g id="edge3" class="edge">
<title>0&#45;&gt;1</title>
<path fill="none" stroke="black" d="M35.92,-49.06C40.78,-48.6 46.1,-48.17 51,-47.94 65.21,-47.28 68.79,-47.28 83,-47.94 84.53,-48.01 86.11,-48.1 87.69,-48.21"/>
<polygon fill="black" stroke="black" points="87.83,-51.73 98.08,-49.06 88.4,-44.75 87.83,-51.73"/>
<text text-anchor="middle" x="67" y="-51.74" font-family="Times,serif" font-size="14.00">c/6</text>
</g>
<!-- 0&#45;&gt;1 -->
<g id="edge4" class="edge">
<title>0&#45;&gt;1</title>
<path fill="none" stroke="black" d="M31.67,-39.04C37.17,-34.65 43.97,-30.21 51,-27.94 64.54,-23.58 69.46,-23.58 83,-27.94 86.85,-29.18 90.62,-31.07 94.15,-33.25"/>
<polygon fill="black" stroke="black" points="92.15,-36.12 102.33,-39.04 96.19,-30.4 92.15,-36.12"/>
<text text-anchor="middle" x="67" y="-31.74" font-family="Times,serif" font-size="14.00">d/10</text>
</g>
<!-- 0&#45;&gt;1 -->
<g id="edge5" class="edge">
<title>0&#45;&gt;1</title>
<path fill="none" stroke="black" d="M25.54,-34.59C30.73,-24.04 39.1,-11.16 51,-4.94 63.61,1.65 70.39,1.65 83,-4.94 91.65,-9.46 98.43,-17.49 103.48,-25.6"/>
<polygon fill="black" stroke="black" points="100.55,-27.54 108.46,-34.59 106.68,-24.15 100.55,-27.54"/>
<text text-anchor="middle" x="67" y="-8.74" font-family="Times,serif" font-size="14.00">f/8</text>
</g>
<!-- 2 -->
<g id="node3" class="node">
<title>2</title>
<ellipse fill="none" stroke="black" cx="205" cy="-50.94" rx="18" ry="18"/>
<ellipse fill="none" stroke="black" cx="205" cy="-50.94" rx="22" ry="22"/>
<text text-anchor="middle" x="205" y="-47.24" font-family="Times,serif" font-size="14.00">2</text>
</g>
<!-- 1&#45;&gt;2 -->
<g id="edge6" class="edge">
<title>1&#45;&gt;2</title>
<path fill="none" stroke="black" d="M134.19,-50.94C145.1,-50.94 159.55,-50.94 172.47,-50.94"/>
<polygon fill="black" stroke="black" points="172.85,-54.44 182.85,-50.94 172.85,-47.44 172.85,-54.44"/>
<text text-anchor="middle" x="158.5" y="-54.74" font-family="Times,serif" font-size="14.00">f/1</text>
</g>
<!-- 1&#45;&gt;2 -->
<g id="edge7" class="edge">
<title>1&#45;&gt;2</title>
<path fill="none" stroke="black" d="M130.91,-40.48C136.27,-37.05 142.64,-33.68 149,-31.94 157.14,-29.7 159.8,-29.91 168,-31.94 170.99,-32.68 174.01,-33.72 176.95,-34.93"/>
<polygon fill="black" stroke="black" points="175.48,-38.11 186.01,-39.26 178.49,-31.79 175.48,-38.11"/>
<text text-anchor="middle" x="158.5" y="-35.74" font-family="Times,serif" font-size="14.00">g</text>
</g>
</g>
</svg>
