<?xml version="1.0" encoding="UTF-8" standalone="no"?>
<!DOCTYPE svg PUBLIC "-//W3C//DTD SVG 1.1//EN"
 "http://www.w3.org/Graphics/SVG/1.1/DTD/svg11.dtd">
<!-- Generated by graphviz version 8.1.0 (20230707.0739)
 -->
<!-- Title: FST Pages: 1 -->
<svg width="228pt" height="152pt"
 viewBox="0.00 0.00 227.88 151.69" xmlns="http://www.w3.org/2000/svg" xmlns:xlink="http://www.w3.org/1999/xlink">
<g id="graph0" class="graph" transform="scale(1 1) rotate(0) translate(4 147.69)">
<title>FST</title>
<polygon fill="white" stroke="none" points="-4,4 -4,-147.69 223.88,-147.69 223.88,4 -4,4"/>
<!-- 0 -->
<g id="node1" class="node">
<title>0</title>
<ellipse fill="none" stroke="black" stroke-width="2" cx="18" cy="-66" rx="18" ry="18"/>
<text text-anchor="middle" x="18" y="-60.95" font-family="Times,serif" font-size="14.00">0</text>
</g>
<!-- 1 -->
<g id="node2" class="node">
<title>1</title>
<ellipse fill="none" stroke="black" cx="101.25" cy="-106" rx="18" ry="18"/>
<text text-anchor="middle" x="101.25" y="-100.95" font-family="Times,serif" font-size="14.00">1</text>
</g>
<!-- 0&#45;&gt;1 -->
<g id="edge1" class="edge">
<title>0&#45;&gt;1</title>
<path fill="none" stroke="black" d="M23.45,-83.64C27.94,-97.31 36.34,-115.35 51,-124 59.11,-128.79 68.72,-126.76 77.28,-122.65"/>
<polygon fill="black" stroke="black" points="78.83,-125.21 85.7,-117.15 75.3,-119.17 78.83,-125.21"/>
<text text-anchor="middle" x="59.62" y="-129.2" font-family="Times,serif" font-size="14.00">a/2</text>
</g>
<!-- 0&#45;&gt;1 -->
<g id="edge2" class="edge">
<title>0&#45;&gt;1</title>
<path fill="none" stroke="black" d="M34.15,-74.9C39.42,-77.9 45.42,-81.19 51,-84 58.39,-87.72 66.55,-91.49 74.06,-94.84"/>
<polygon fill="black" stroke="black" points="72.54,-98.43 83.11,-99.24 75.35,-92.02 72.54,-98.43"/>
<text text-anchor="middle" x="59.62" y="-94.2" font-family="Times,serif" font-size="14.00">b/2</text>
</g>
<!-- 0&#45;&gt;1 -->
<g id="edge3" class="edge">
<title>0&#45;&gt;1</title>
<path fill="none" stroke="black" d="M35.81,-61.17C45.75,-59.25 58.29,-58.53 68.25,-63.5 75.86,-67.3 82.14,-73.87 87.06,-80.72"/>
<polygon fill="black" stroke="black" points="84.62,-82.42 92.92,-89.01 90.54,-78.68 84.62,-82.42"/>
<text text-anchor="middle" x="59.62" y="-66.2" font-family="Times,serif" font-size="14.00">c/3</text>
</g>
<!-- 2 -->
<g id="node3" class="node">
<title>2</title>
<ellipse fill="none" stroke="black" cx="101.25" cy="-18" rx="18" ry="18"/>
<text text-anchor="middle" x="101.25" y="-12.95" font-family="Times,serif" font-size="14.00">2</text>
</g>
<!-- 0&#45;&gt;2 -->
<g id="edge4" class="edge">
<title>0&#45;&gt;2</title>
<path fill="none" stroke="black" d="M31.35,-53.77C37.02,-48.61 44.02,-42.8 51,-38.5 57.97,-34.21 65.99,-30.44 73.51,-27.34"/>
<polygon fill="black" stroke="black" points="74.59,-30.29 82.65,-23.42 72.06,-23.76 74.59,-30.29"/>
<text text-anchor="middle" x="59.62" y="-42.2" font-family="Times,serif" font-size="14.00">d/3</text>
</g>
<!-- 0&#45;&gt;2 -->
<g id="edge5" class="edge">
<title>0&#45;&gt;2</title>
<path fill="none" stroke="black" d="M23.68,-48.53C28.26,-35.24 36.68,-17.84 51,-9.5 57.93,-5.46 66.28,-5.45 74.11,-7.08"/>
<polygon fill="black" stroke="black" points="73.07,-10.72 83.65,-10.23 75.07,-4.01 73.07,-10.72"/>
<text text-anchor="middle" x="59.62" y="-13.2" font-family="Times,serif" font-size="14.00">f/1</text>
</g>
<!-- 3 -->
<g id="node4" class="node">
<title>3</title>
<ellipse fill="none" stroke="black" cx="193.19" cy="-117" rx="22.69" ry="22.69"/>
<ellipse fill="none" stroke="black" cx="193.19" cy="-117" rx="26.69" ry="26.69"/>
<text text-anchor="middle" x="193.19" y="-111.95" font-family="Times,serif" font-size="14.00">3/1</text>
</g>
<!-- 1&#45;&gt;3 -->
<g id="edge6" class="edge">
<title>1&#45;&gt;3</title>
<path fill="none" stroke="black" d="M118.21,-113.27C123.24,-115.2 128.88,-117.03 134.25,-118 141.07,-119.24 148.42,-119.74 155.51,-119.8"/>
<polygon fill="black" stroke="black" points="155.41,-123.29 165.34,-119.6 155.28,-116.29 155.41,-123.29"/>
<text text-anchor="middle" x="142.88" y="-122.2" font-family="Times,serif" font-size="14.00">f/3</text>
</g>
<!-- 1&#45;&gt;3 -->
<g id="edge7" class="edge">
<title>1&#45;&gt;3</title>
<path fill="none" stroke="black" d="M118.3,-100.03C127.97,-97.23 140.5,-95 151.5,-97.5 154.17,-98.11 156.88,-98.91 159.55,-99.85"/>
<polygon fill="black" stroke="black" points="158.02,-103.42 168.6,-103.99 160.69,-96.95 158.02,-103.42"/>
<text text-anchor="middle" x="142.88" y="-100.2" font-family="Times,serif" font-size="14.00">g/2</text>
</g>
<!-- 4 -->
<g id="node5" class="node">
<title>4</title>
<ellipse fill="none" stroke="black" cx="193.19" cy="-34" rx="22.69" ry="22.69"/>
<ellipse fill="none" stroke="black" cx="193.19" cy="-34" rx="26.69" ry="26.69"/>
<text text-anchor="middle" x="193.19" y="-28.95" font-family="Times,serif" font-size="14.00">4/3</text>
</g>
<!-- 2&#45;&gt;4 -->
<g id="edge8" class="edge">
<title>2&#45;&gt;4</title>
<path fill="none" stroke="black" d="M119.17,-21.01C129.48,-22.84 143.07,-25.26 155.72,-27.51"/>
<polygon fill="black" stroke="black" points="155.04,-31.12 165.5,-29.43 156.27,-24.23 155.04,-31.12"/>
<text text-anchor="middle" x="142.88" y="-30.2" font-family="Times,serif" font-size="14.00">f/5</text>
</g>
<!-- 2&#45;&gt;4 -->
<g id="edge9" class="edge">
<title>2&#45;&gt;4</title>
<path fill="none" stroke="black" d="M117.45,-9.23C127.24,-4.71 140.2,-0.83 151.5,-4.5 155.8,-5.89 160.02,-7.93 164.02,-10.29"/>
<polygon fill="black" stroke="black" points="161.64,-13.58 171.89,-16.24 165.53,-7.76 161.64,-13.58"/>
<text text-anchor="middle" x="142.88" y="-8.2" font-family="Times,serif" font-size="14.00">g/4</text>
</g>
</g>
</svg>
