<?xml version="1.0" encoding="UTF-8" standalone="no"?>
<!DOCTYPE svg PUBLIC "-//W3C//DTD SVG 1.1//EN"
 "http://www.w3.org/Graphics/SVG/1.1/DTD/svg11.dtd">
<!-- Generated by graphviz version 2.43.0 (0)
 -->
<!-- Title: FST Pages: 1 -->
<svg width="357pt" height="85pt"
 viewBox="0.00 0.00 356.79 84.89" xmlns="http://www.w3.org/2000/svg" xmlns:xlink="http://www.w3.org/1999/xlink">
<g id="graph0" class="graph" transform="scale(1 1) rotate(0) translate(4 80.89)">
<title>FST</title>
<polygon fill="white" stroke="transparent" points="-4,4 -4,-80.89 352.79,-80.89 352.79,4 -4,4"/>
<!-- 0 -->
<g id="node1" class="node">
<title>0</title>
<ellipse fill="none" stroke="black" stroke-width="2" cx="18" cy="-38.45" rx="18" ry="18"/>
<text text-anchor="middle" x="18" y="-34.75" font-family="Times,serif" font-size="14.00">0</text>
</g>
<!-- 1 -->
<g id="node2" class="node">
<title>1</title>
<ellipse fill="none" stroke="black" cx="153.45" cy="-38.45" rx="34.4" ry="34.4"/>
<ellipse fill="none" stroke="black" cx="153.45" cy="-38.45" rx="38.39" ry="38.39"/>
<text text-anchor="middle" x="153.45" y="-34.75" font-family="Times,serif" font-size="14.00">1/0.8</text>
</g>
<!-- 0&#45;&gt;1 -->
<g id="edge1" class="edge">
<title>0&#45;&gt;1</title>
<path fill="none" stroke="black" d="M36.17,-38.45C53.4,-38.45 80.73,-38.45 104.57,-38.45"/>
<polygon fill="black" stroke="black" points="104.88,-41.95 114.88,-38.45 104.88,-34.95 104.88,-41.95"/>
<text text-anchor="middle" x="75.5" y="-42.25" font-family="Times,serif" font-size="14.00">a:1/1.5</text>
</g>
<!-- 2 -->
<g id="node3" class="node">
<title>2</title>
<ellipse fill="none" stroke="black" cx="310.34" cy="-38.45" rx="34.4" ry="34.4"/>
<ellipse fill="none" stroke="black" cx="310.34" cy="-38.45" rx="38.39" ry="38.39"/>
<text text-anchor="middle" x="310.34" y="-34.75" font-family="Times,serif" font-size="14.00">2/0.3</text>
</g>
<!-- 1&#45;&gt;2 -->
<g id="edge2" class="edge">
<title>1&#45;&gt;2</title>
<path fill="none" stroke="black" d="M191.94,-38.45C212.81,-38.45 239.01,-38.45 261.36,-38.45"/>
<polygon fill="black" stroke="black" points="261.65,-41.95 271.65,-38.45 261.65,-34.95 261.65,-41.95"/>
<text text-anchor="middle" x="231.89" y="-42.25" font-family="Times,serif" font-size="14.00">b:2/2.5</text>
</g>
</g>
</svg>
