<?xml version="1.0" encoding="UTF-8" standalone="no"?>
<!DOCTYPE svg PUBLIC "-//W3C//DTD SVG 1.1//EN"
 "http://www.w3.org/Graphics/SVG/1.1/DTD/svg11.dtd">
<!-- Generated by graphviz version 7.0.2 (20221119.0110)
 -->
<!-- Title: FST Pages: 1 -->
<svg width="225pt" height="130pt"
 viewBox="0.00 0.00 225.00 129.82" xmlns="http://www.w3.org/2000/svg" xmlns:xlink="http://www.w3.org/1999/xlink">
<g id="graph0" class="graph" transform="scale(1 1) rotate(0) translate(4 125.82)">
<title>FST</title>
<polygon fill="white" stroke="none" points="-4,4 -4,-125.82 221,-125.82 221,4 -4,4"/>
<!-- 0 -->
<g id="node1" class="node">
<title>0</title>
<ellipse fill="none" stroke="black" stroke-width="2" cx="18" cy="-48.82" rx="18" ry="18"/>
<text text-anchor="middle" x="18" y="-45.12" font-family="Times,serif" font-size="14.00">0</text>
</g>
<!-- 1 -->
<g id="node2" class="node">
<title>1</title>
<ellipse fill="none" stroke="black" cx="109" cy="-48.82" rx="18" ry="18"/>
<text text-anchor="middle" x="109" y="-45.12" font-family="Times,serif" font-size="14.00">1</text>
</g>
<!-- 0&#45;&gt;1 -->
<g id="edge1" class="edge">
<title>0&#45;&gt;1</title>
<path fill="none" stroke="black" d="M24.09,-66.06C28.83,-78.71 37.27,-95 51,-102.82 60.65,-108.32 66.35,-108.32 76,-102.82 86.19,-97.01 93.47,-86.55 98.48,-76.36"/>
<polygon fill="black" stroke="black" points="101.58,-78.02 102.31,-67.45 95.15,-75.25 101.58,-78.02"/>
<text text-anchor="middle" x="63.5" y="-110.62" font-family="Times,serif" font-size="14.00">a/5</text>
</g>
<!-- 0&#45;&gt;1 -->
<g id="edge2" class="edge">
<title>0&#45;&gt;1</title>
<path fill="none" stroke="black" d="M33.75,-57.98C39,-60.75 45.08,-63.42 51,-64.82 61.81,-67.37 65.19,-67.37 76,-64.82 78.31,-64.27 80.65,-63.53 82.95,-62.67"/>
<polygon fill="black" stroke="black" points="84.22,-65.94 91.87,-58.61 81.32,-59.57 84.22,-65.94"/>
<text text-anchor="middle" x="63.5" y="-69.62" font-family="Times,serif" font-size="14.00">b/5</text>
</g>
<!-- 0&#45;&gt;1 -->
<g id="edge3" class="edge">
<title>0&#45;&gt;1</title>
<path fill="none" stroke="black" d="M36.25,-46.91C41.02,-46.46 46.21,-46.05 51,-45.82 62.1,-45.3 64.9,-45.3 76,-45.82 77.2,-45.88 78.42,-45.94 79.66,-46.02"/>
<polygon fill="black" stroke="black" points="78.99,-49.48 89.24,-46.79 79.55,-42.5 78.99,-49.48"/>
<text text-anchor="middle" x="63.5" y="-49.62" font-family="Times,serif" font-size="14.00">c/6</text>
</g>
<!-- 0&#45;&gt;1 -->
<g id="edge4" class="edge">
<title>0&#45;&gt;1</title>
<path fill="none" stroke="black" d="M31.67,-36.92C37.17,-32.53 43.97,-28.09 51,-25.82 61.58,-22.41 65.42,-22.41 76,-25.82 79.41,-26.92 82.76,-28.53 85.93,-30.39"/>
<polygon fill="black" stroke="black" points="83.88,-33.23 94.09,-36.06 87.87,-27.48 83.88,-33.23"/>
<text text-anchor="middle" x="63.5" y="-29.62" font-family="Times,serif" font-size="14.00">d/10</text>
</g>
<!-- 0&#45;&gt;1 -->
<g id="edge5" class="edge">
<title>0&#45;&gt;1</title>
<path fill="none" stroke="black" d="M25.86,-32.37C31.11,-22.13 39.41,-9.8 51,-3.82 60.87,1.27 66.13,1.27 76,-3.82 84.06,-7.98 90.53,-15.2 95.48,-22.66"/>
<polygon fill="black" stroke="black" points="92.32,-24.18 100.37,-31.06 98.37,-20.66 92.32,-24.18"/>
<text text-anchor="middle" x="63.5" y="-7.62" font-family="Times,serif" font-size="14.00">f/8</text>
</g>
<!-- 2 -->
<g id="node3" class="node">
<title>2</title>
<ellipse fill="none" stroke="black" cx="195" cy="-48.82" rx="18" ry="18"/>
<ellipse fill="none" stroke="black" cx="195" cy="-48.82" rx="22" ry="22"/>
<text text-anchor="middle" x="195" y="-45.12" font-family="Times,serif" font-size="14.00">2</text>
</g>
<!-- 1&#45;&gt;2 -->
<g id="edge6" class="edge">
<title>1&#45;&gt;2</title>
<path fill="none" stroke="black" d="M127.4,-48.82C137.28,-48.82 149.96,-48.82 161.59,-48.82"/>
<polygon fill="black" stroke="black" points="161.23,-52.32 171.23,-48.82 161.23,-45.32 161.23,-52.32"/>
<text text-anchor="middle" x="150" y="-52.62" font-family="Times,serif" font-size="14.00">f/1</text>
</g>
<!-- 1&#45;&gt;2 -->
<g id="edge7" class="edge">
<title>1&#45;&gt;2</title>
<path fill="none" stroke="black" d="M123.91,-38.36C129.27,-34.94 135.64,-31.57 142,-29.82 149.94,-27.64 158.38,-29.05 166.11,-31.88"/>
<polygon fill="black" stroke="black" points="164.5,-35 175.05,-35.99 167.42,-28.63 164.5,-35"/>
<text text-anchor="middle" x="150" y="-33.62" font-family="Times,serif" font-size="14.00">g</text>
</g>
</g>
</svg>
