<?xml version="1.0" encoding="UTF-8" standalone="no"?>
<!DOCTYPE svg PUBLIC "-//W3C//DTD SVG 1.1//EN"
 "http://www.w3.org/Graphics/SVG/1.1/DTD/svg11.dtd">
<!-- Generated by graphviz version 6.0.2 (20221011.1828)
 -->
<!-- Title: FST Pages: 1 -->
<svg width="261pt" height="73pt"
 viewBox="0.00 0.00 261.19 73.19" xmlns="http://www.w3.org/2000/svg" xmlns:xlink="http://www.w3.org/1999/xlink">
<g id="graph0" class="graph" transform="scale(1 1) rotate(0) translate(4 69.19)">
<title>FST</title>
<polygon fill="white" stroke="none" points="-4,4 -4,-69.19 257.19,-69.19 257.19,4 -4,4"/>
<!-- 0 -->
<g id="node1" class="node">
<title>0</title>
<ellipse fill="none" stroke="black" stroke-width="2" cx="18" cy="-32.6" rx="18" ry="18"/>
<text text-anchor="middle" x="18" y="-28.9" font-family="Times,serif" font-size="14.00">0</text>
</g>
<!-- 1 -->
<g id="node2" class="node">
<title>1</title>
<ellipse fill="none" stroke="black" cx="112" cy="-32.6" rx="18" ry="18"/>
<text text-anchor="middle" x="112" y="-28.9" font-family="Times,serif" font-size="14.00">1</text>
</g>
<!-- 0&#45;&gt;1 -->
<g id="edge1" class="edge">
<title>0&#45;&gt;1</title>
<path fill="none" stroke="black" d="M36.3,-32.6C49.54,-32.6 68.05,-32.6 83.34,-32.6"/>
<polygon fill="black" stroke="black" points="83.77,-36.1 93.77,-32.6 83.77,-29.1 83.77,-36.1"/>
<text text-anchor="middle" x="65" y="-36.4" font-family="Times,serif" font-size="14.00">a/1.5</text>
</g>
<!-- 2 -->
<g id="node3" class="node">
<title>2</title>
<ellipse fill="none" stroke="black" cx="220.6" cy="-32.6" rx="28.68" ry="28.68"/>
<ellipse fill="none" stroke="black" cx="220.6" cy="-32.6" rx="32.7" ry="32.7"/>
<text text-anchor="middle" x="220.6" y="-28.9" font-family="Times,serif" font-size="14.00">2/0.3</text>
</g>
<!-- 1&#45;&gt;2 -->
<g id="edge2" class="edge">
<title>1&#45;&gt;2</title>
<path fill="none" stroke="black" d="M130.13,-32.6C142.99,-32.6 161.19,-32.6 177.81,-32.6"/>
<polygon fill="black" stroke="black" points="177.89,-36.1 187.89,-32.6 177.89,-29.1 177.89,-36.1"/>
<text text-anchor="middle" x="159" y="-36.4" font-family="Times,serif" font-size="14.00">b/2.5</text>
</g>
</g>
</svg>
