<?xml version="1.0" encoding="UTF-8" standalone="no"?>
<!DOCTYPE svg PUBLIC "-//W3C//DTD SVG 1.1//EN"
 "http://www.w3.org/Graphics/SVG/1.1/DTD/svg11.dtd">
<!-- Generated by graphviz version 2.43.0 (0)
 -->
<!-- Title: FST Pages: 1 -->
<svg width="391pt" height="113pt"
 viewBox="0.00 0.00 391.49 113.49" xmlns="http://www.w3.org/2000/svg" xmlns:xlink="http://www.w3.org/1999/xlink">
<g id="graph0" class="graph" transform="scale(1 1) rotate(0) translate(4 109.49)">
<title>FST</title>
<polygon fill="white" stroke="transparent" points="-4,4 -4,-109.49 387.49,-109.49 387.49,4 -4,4"/>
<!-- 0 -->
<g id="node1" class="node">
<title>0</title>
<ellipse fill="none" stroke="black" stroke-width="2" cx="18" cy="-52.75" rx="18" ry="18"/>
<text text-anchor="middle" x="18" y="-49.05" font-family="Times,serif" font-size="14.00">0</text>
</g>
<!-- 1 -->
<g id="node2" class="node">
<title>1</title>
<ellipse fill="none" stroke="black" cx="157" cy="-79.75" rx="18" ry="18"/>
<text text-anchor="middle" x="157" y="-76.05" font-family="Times,serif" font-size="14.00">1</text>
</g>
<!-- 0&#45;&gt;1 -->
<g id="edge1" class="edge">
<title>0&#45;&gt;1</title>
<path fill="none" stroke="black" d="M35.8,-56.06C59.11,-60.65 101.53,-69.01 129.24,-74.47"/>
<polygon fill="black" stroke="black" points="128.58,-77.91 139.06,-76.41 129.93,-71.04 128.58,-77.91"/>
<text text-anchor="middle" x="87.5" y="-76.55" font-family="Times,serif" font-size="14.00">1:2/0.01,2</text>
</g>
<!-- 2 -->
<g id="node3" class="node">
<title>2</title>
<ellipse fill="none" stroke="black" cx="157" cy="-25.75" rx="18" ry="18"/>
<text text-anchor="middle" x="157" y="-22.05" font-family="Times,serif" font-size="14.00">2</text>
</g>
<!-- 0&#45;&gt;2 -->
<g id="edge2" class="edge">
<title>0&#45;&gt;2</title>
<path fill="none" stroke="black" d="M34.68,-45.45C39.79,-43.33 45.55,-41.19 51,-39.75 77,-32.85 107.57,-29.26 129,-27.46"/>
<polygon fill="black" stroke="black" points="129.31,-30.94 139.01,-26.69 128.77,-23.96 129.31,-30.94"/>
<text text-anchor="middle" x="87.5" y="-43.55" font-family="Times,serif" font-size="14.00">3:4/0.03,4</text>
</g>
<!-- 3 -->
<g id="node4" class="node">
<title>3</title>
<ellipse fill="none" stroke="black" cx="330.75" cy="-52.75" rx="48.97" ry="48.97"/>
<ellipse fill="none" stroke="black" cx="330.75" cy="-52.75" rx="52.99" ry="52.99"/>
<text text-anchor="middle" x="330.75" y="-49.05" font-family="Times,serif" font-size="14.00">3/0.02,5</text>
</g>
<!-- 1&#45;&gt;3 -->
<g id="edge3" class="edge">
<title>1&#45;&gt;3</title>
<path fill="none" stroke="black" d="M175.1,-77.06C196.7,-73.66 235.07,-67.63 268.19,-62.42"/>
<polygon fill="black" stroke="black" points="268.94,-65.85 278.27,-60.84 267.85,-58.93 268.94,-65.85"/>
<text text-anchor="middle" x="226.5" y="-77.55" font-family="Times,serif" font-size="14.00">5:6/0.05,6</text>
</g>
<!-- 2&#45;&gt;3 -->
<g id="edge4" class="edge">
<title>2&#45;&gt;3</title>
<path fill="none" stroke="black" d="M175.1,-28.43C196.7,-31.83 235.07,-37.86 268.19,-43.07"/>
<polygon fill="black" stroke="black" points="267.85,-46.56 278.27,-44.65 268.94,-39.64 267.85,-46.56"/>
<text text-anchor="middle" x="226.5" y="-44.55" font-family="Times,serif" font-size="14.00">6:8/0.07,8</text>
</g>
</g>
</svg>
