<?xml version="1.0" encoding="UTF-8" standalone="no"?>
<!DOCTYPE svg PUBLIC "-//W3C//DTD SVG 1.1//EN"
 "http://www.w3.org/Graphics/SVG/1.1/DTD/svg11.dtd">
<!-- Generated by graphviz version 2.43.0 (0)
 -->
<!-- Title: FST Pages: 1 -->
<svg width="372pt" height="88pt"
 viewBox="0.00 0.00 371.70 88.35" xmlns="http://www.w3.org/2000/svg" xmlns:xlink="http://www.w3.org/1999/xlink">
<g id="graph0" class="graph" transform="scale(1 1) rotate(0) translate(4 84.35)">
<title>FST</title>
<polygon fill="white" stroke="transparent" points="-4,4 -4,-84.35 367.7,-84.35 367.7,4 -4,4"/>
<!-- 0 -->
<g id="node1" class="node">
<title>0</title>
<ellipse fill="none" stroke="black" stroke-width="2" cx="18" cy="-29.35" rx="18" ry="18"/>
<text text-anchor="middle" x="18" y="-25.65" font-family="Times,serif" font-size="14.00">0</text>
</g>
<!-- 1 -->
<g id="node2" class="node">
<title>1</title>
<ellipse fill="none" stroke="black" cx="120" cy="-29.35" rx="18" ry="18"/>
<text text-anchor="middle" x="120" y="-25.65" font-family="Times,serif" font-size="14.00">1</text>
</g>
<!-- 0&#45;&gt;1 -->
<g id="edge1" class="edge">
<title>0&#45;&gt;1</title>
<path fill="none" stroke="black" d="M36.42,-29.35C51.62,-29.35 73.93,-29.35 91.54,-29.35"/>
<polygon fill="black" stroke="black" points="91.78,-32.85 101.78,-29.35 91.78,-25.85 91.78,-32.85"/>
<text text-anchor="middle" x="69" y="-33.15" font-family="Times,serif" font-size="14.00">y:a/1</text>
</g>
<!-- 0&#45;&gt;1 -->
<g id="edge2" class="edge">
<title>0&#45;&gt;1</title>
<path fill="none" stroke="black" d="M32.91,-18.89C38.27,-15.46 44.64,-12.09 51,-10.35 66.43,-6.11 71.57,-6.11 87,-10.35 90.08,-11.19 93.16,-12.42 96.13,-13.85"/>
<polygon fill="black" stroke="black" points="94.66,-17.04 105.09,-18.89 98.09,-10.94 94.66,-17.04"/>
<text text-anchor="middle" x="69" y="-14.15" font-family="Times,serif" font-size="14.00">x:b/3</text>
</g>
<!-- 1&#45;&gt;1 -->
<g id="edge3" class="edge">
<title>1&#45;&gt;1</title>
<path fill="none" stroke="black" d="M111.37,-45.26C109.11,-55.5 111.99,-65.35 120,-65.35 125.26,-65.35 128.3,-61.11 129.14,-55.3"/>
<polygon fill="black" stroke="black" points="132.63,-55.08 128.63,-45.26 125.64,-55.43 132.63,-55.08"/>
<text text-anchor="middle" x="120" y="-69.15" font-family="Times,serif" font-size="14.00">v:d/7</text>
</g>
<!-- 2 -->
<g id="node3" class="node">
<title>2</title>
<ellipse fill="none" stroke="black" cx="224" cy="-29.35" rx="18" ry="18"/>
<text text-anchor="middle" x="224" y="-25.65" font-family="Times,serif" font-size="14.00">2</text>
</g>
<!-- 1&#45;&gt;2 -->
<g id="edge4" class="edge">
<title>1&#45;&gt;2</title>
<path fill="none" stroke="black" d="M138.3,-29.35C154.08,-29.35 177.64,-29.35 195.91,-29.35"/>
<polygon fill="black" stroke="black" points="195.95,-32.85 205.95,-29.35 195.95,-25.85 195.95,-32.85"/>
<text text-anchor="middle" x="172" y="-33.15" font-family="Times,serif" font-size="14.00">w:c/5</text>
</g>
<!-- 3 -->
<g id="node4" class="node">
<title>3</title>
<ellipse fill="none" stroke="black" cx="334.35" cy="-29.35" rx="25.22" ry="25.22"/>
<ellipse fill="none" stroke="black" cx="334.35" cy="-29.35" rx="29.2" ry="29.2"/>
<text text-anchor="middle" x="334.35" y="-25.65" font-family="Times,serif" font-size="14.00">3/2</text>
</g>
<!-- 2&#45;&gt;3 -->
<g id="edge5" class="edge">
<title>2&#45;&gt;3</title>
<path fill="none" stroke="black" d="M242.41,-29.35C256.51,-29.35 276.9,-29.35 294.81,-29.35"/>
<polygon fill="black" stroke="black" points="294.99,-32.85 304.99,-29.35 294.99,-25.85 294.99,-32.85"/>
<text text-anchor="middle" x="273.5" y="-33.15" font-family="Times,serif" font-size="14.00">u:f/9</text>
</g>
</g>
</svg>
