<?xml version="1.0" encoding="UTF-8" standalone="no"?>
<!DOCTYPE svg PUBLIC "-//W3C//DTD SVG 1.1//EN"
 "http://www.w3.org/Graphics/SVG/1.1/DTD/svg11.dtd">
<!-- Generated by graphviz version 9.0.0 (20230911.1827)
 -->
<!-- Title: FST Pages: 1 -->
<svg width="391pt" height="114pt"
 viewBox="0.00 0.00 391.08 113.58" xmlns="http://www.w3.org/2000/svg" xmlns:xlink="http://www.w3.org/1999/xlink">
<g id="graph0" class="graph" transform="scale(1 1) rotate(0) translate(4 109.58)">
<title>FST</title>
<polygon fill="white" stroke="none" points="-4,4 -4,-109.58 387.08,-109.58 387.08,4 -4,4"/>
<!-- 0 -->
<g id="node1" class="node">
<title>0</title>
<ellipse fill="none" stroke="black" stroke-width="2" cx="18" cy="-52.79" rx="18" ry="18"/>
<text text-anchor="middle" x="18" y="-47.74" font-family="Times,serif" font-size="14.00">0</text>
</g>
<!-- 1 -->
<g id="node2" class="node">
<title>1</title>
<ellipse fill="none" stroke="black" cx="156.75" cy="-79.79" rx="18" ry="18"/>
<text text-anchor="middle" x="156.75" y="-74.74" font-family="Times,serif" font-size="14.00">1</text>
</g>
<!-- 0&#45;&gt;1 -->
<g id="edge1" class="edge">
<title>0&#45;&gt;1</title>
<path fill="none" stroke="black" d="M36.04,-56.16C58.99,-60.69 100.13,-68.81 127.68,-74.25"/>
<polygon fill="black" stroke="black" points="126.95,-77.67 137.44,-76.18 128.3,-70.81 126.95,-77.67"/>
<text text-anchor="middle" x="87.38" y="-75.99" font-family="Times,serif" font-size="14.00">1:2/0.21,2.05</text>
</g>
<!-- 2 -->
<g id="node3" class="node">
<title>2</title>
<ellipse fill="none" stroke="black" cx="156.75" cy="-25.79" rx="18" ry="18"/>
<text text-anchor="middle" x="156.75" y="-20.74" font-family="Times,serif" font-size="14.00">2</text>
</g>
<!-- 0&#45;&gt;2 -->
<g id="edge2" class="edge">
<title>0&#45;&gt;2</title>
<path fill="none" stroke="black" d="M34.65,-45.19C39.76,-42.98 45.53,-40.77 51,-39.29 76.16,-32.5 105.66,-29.09 126.94,-27.4"/>
<polygon fill="black" stroke="black" points="127.18,-30.89 136.91,-26.7 126.69,-23.91 127.18,-30.89"/>
<text text-anchor="middle" x="87.38" y="-42.99" font-family="Times,serif" font-size="14.00">3:4/0.43,4.15</text>
</g>
<!-- 3 -->
<g id="node4" class="node">
<title>3</title>
<ellipse fill="none" stroke="black" cx="330.29" cy="-52.79" rx="48.79" ry="48.79"/>
<ellipse fill="none" stroke="black" cx="330.29" cy="-52.79" rx="52.79" ry="52.79"/>
<text text-anchor="middle" x="330.29" y="-47.74" font-family="Times,serif" font-size="14.00">3/0.52,5.1</text>
</g>
<!-- 1&#45;&gt;3 -->
<g id="edge3" class="edge">
<title>1&#45;&gt;3</title>
<path fill="none" stroke="black" d="M174.83,-77.1C196.13,-73.75 233.74,-67.83 266.52,-62.67"/>
<polygon fill="black" stroke="black" points="267.05,-66.13 276.38,-61.12 265.96,-59.22 267.05,-66.13"/>
<text text-anchor="middle" x="226.12" y="-76.99" font-family="Times,serif" font-size="14.00">5:6/0.65,6.25</text>
</g>
<!-- 2&#45;&gt;3 -->
<g id="edge4" class="edge">
<title>2&#45;&gt;3</title>
<path fill="none" stroke="black" d="M174.83,-28.48C196.13,-31.83 233.74,-37.75 266.52,-42.91"/>
<polygon fill="black" stroke="black" points="265.96,-46.37 276.38,-44.46 267.05,-39.45 265.96,-46.37"/>
<text text-anchor="middle" x="226.12" y="-44.99" font-family="Times,serif" font-size="14.00">6:8/0.87,8.35</text>
</g>
</g>
</svg>
