<?xml version="1.0" encoding="UTF-8" standalone="no"?>
<!DOCTYPE svg PUBLIC "-//W3C//DTD SVG 1.1//EN"
 "http://www.w3.org/Graphics/SVG/1.1/DTD/svg11.dtd">
<!-- Generated by graphviz version 9.0.0 (20230911.1827)
 -->
<!-- Title: FST Pages: 1 -->
<svg width="342pt" height="99pt"
 viewBox="0.00 0.00 342.25 99.25" xmlns="http://www.w3.org/2000/svg" xmlns:xlink="http://www.w3.org/1999/xlink">
<g id="graph0" class="graph" transform="scale(1 1) rotate(0) translate(4 95.25)">
<title>FST</title>
<polygon fill="white" stroke="none" points="-4,4 -4,-95.25 338.25,-95.25 338.25,4 -4,4"/>
<!-- 0 -->
<g id="node1" class="node">
<title>0</title>
<ellipse fill="none" stroke="black" stroke-width="2" cx="18" cy="-45.63" rx="18" ry="18"/>
<text text-anchor="middle" x="18" y="-40.58" font-family="Times,serif" font-size="14.00">0</text>
</g>
<!-- 1 -->
<g id="node2" class="node">
<title>1</title>
<ellipse fill="none" stroke="black" cx="139.5" cy="-72.63" rx="18" ry="18"/>
<text text-anchor="middle" x="139.5" y="-67.58" font-family="Times,serif" font-size="14.00">1</text>
</g>
<!-- 0&#45;&gt;1 -->
<g id="edge1" class="edge">
<title>0&#45;&gt;1</title>
<path fill="none" stroke="black" d="M35.87,-49.44C55.26,-53.82 87.4,-61.08 110.55,-66.31"/>
<polygon fill="black" stroke="black" points="109.72,-69.71 120.24,-68.5 111.26,-62.88 109.72,-69.71"/>
<text text-anchor="middle" x="78.75" y="-67.83" font-family="Times,serif" font-size="14.00">1:2/0.01,2</text>
</g>
<!-- 2 -->
<g id="node3" class="node">
<title>2</title>
<ellipse fill="none" stroke="black" cx="139.5" cy="-18.63" rx="18" ry="18"/>
<text text-anchor="middle" x="139.5" y="-13.58" font-family="Times,serif" font-size="14.00">2</text>
</g>
<!-- 0&#45;&gt;2 -->
<g id="edge2" class="edge">
<title>0&#45;&gt;2</title>
<path fill="none" stroke="black" d="M35.06,-38.6C40.09,-36.61 45.71,-34.58 51,-33.13 70.33,-27.81 92.63,-24.15 109.88,-21.84"/>
<polygon fill="black" stroke="black" points="110.18,-25.33 119.67,-20.61 109.31,-18.38 110.18,-25.33"/>
<text text-anchor="middle" x="78.75" y="-36.83" font-family="Times,serif" font-size="14.00">3:4/0.03,4</text>
</g>
<!-- 3 -->
<g id="node4" class="node">
<title>3</title>
<ellipse fill="none" stroke="black" cx="288.63" cy="-45.63" rx="41.63" ry="41.63"/>
<ellipse fill="none" stroke="black" cx="288.63" cy="-45.63" rx="45.63" ry="45.63"/>
<text text-anchor="middle" x="288.63" y="-40.58" font-family="Times,serif" font-size="14.00">3/0.02,5</text>
</g>
<!-- 1&#45;&gt;3 -->
<g id="edge3" class="edge">
<title>1&#45;&gt;3</title>
<path fill="none" stroke="black" d="M157.67,-69.48C175.91,-66.13 205.71,-60.66 232.17,-55.8"/>
<polygon fill="black" stroke="black" points="232.57,-59.29 241.78,-54.04 231.31,-52.4 232.57,-59.29"/>
<text text-anchor="middle" x="200.25" y="-68.83" font-family="Times,serif" font-size="14.00">5:6/0.05,6</text>
</g>
<!-- 2&#45;&gt;3 -->
<g id="edge4" class="edge">
<title>2&#45;&gt;3</title>
<path fill="none" stroke="black" d="M157.67,-21.78C175.91,-25.12 205.71,-30.59 232.17,-35.45"/>
<polygon fill="black" stroke="black" points="231.31,-38.85 241.78,-37.21 232.57,-31.97 231.31,-38.85"/>
<text text-anchor="middle" x="200.25" y="-37.83" font-family="Times,serif" font-size="14.00">6:8/0.07,8</text>
</g>
</g>
</svg>
