<?xml version="1.0" encoding="UTF-8" standalone="no"?>
<!DOCTYPE svg PUBLIC "-//W3C//DTD SVG 1.1//EN"
 "http://www.w3.org/Graphics/SVG/1.1/DTD/svg11.dtd">
<!-- Generated by graphviz version 2.43.0 (0)
 -->
<!-- Title: FST Pages: 1 -->
<svg width="454pt" height="132pt"
 viewBox="0.00 0.00 453.69 131.69" xmlns="http://www.w3.org/2000/svg" xmlns:xlink="http://www.w3.org/1999/xlink">
<g id="graph0" class="graph" transform="scale(1 1) rotate(0) translate(4 127.69)">
<title>FST</title>
<polygon fill="white" stroke="transparent" points="-4,4 -4,-127.69 449.69,-127.69 449.69,4 -4,4"/>
<!-- 0 -->
<g id="node1" class="node">
<title>0</title>
<ellipse fill="none" stroke="black" stroke-width="2" cx="18" cy="-61.84" rx="18" ry="18"/>
<text text-anchor="middle" x="18" y="-58.14" font-family="Times,serif" font-size="14.00">0</text>
</g>
<!-- 1 -->
<g id="node2" class="node">
<title>1</title>
<ellipse fill="none" stroke="black" cx="179" cy="-88.84" rx="18" ry="18"/>
<text text-anchor="middle" x="179" y="-85.14" font-family="Times,serif" font-size="14.00">1</text>
</g>
<!-- 0&#45;&gt;1 -->
<g id="edge1" class="edge">
<title>0&#45;&gt;1</title>
<path fill="none" stroke="black" d="M36.02,-64.73C63.51,-69.4 117.94,-78.65 150.84,-84.23"/>
<polygon fill="black" stroke="black" points="150.66,-87.75 161.11,-85.98 151.83,-80.85 150.66,-87.75"/>
<text text-anchor="middle" x="98.5" y="-86.64" font-family="Times,serif" font-size="14.00">1:2/0.21,2.05</text>
</g>
<!-- 2 -->
<g id="node3" class="node">
<title>2</title>
<ellipse fill="none" stroke="black" cx="179" cy="-34.84" rx="18" ry="18"/>
<text text-anchor="middle" x="179" y="-31.14" font-family="Times,serif" font-size="14.00">2</text>
</g>
<!-- 0&#45;&gt;2 -->
<g id="edge2" class="edge">
<title>0&#45;&gt;2</title>
<path fill="none" stroke="black" d="M34.28,-54.01C39.46,-51.66 45.37,-49.33 51,-47.84 84.57,-39.01 124.6,-36.12 150.62,-35.21"/>
<polygon fill="black" stroke="black" points="150.96,-38.7 160.86,-34.93 150.76,-31.7 150.96,-38.7"/>
<text text-anchor="middle" x="98.5" y="-51.64" font-family="Times,serif" font-size="14.00">3:4/0.43,4.15</text>
</g>
<!-- 3 -->
<g id="node4" class="node">
<title>3</title>
<ellipse fill="none" stroke="black" cx="383.84" cy="-61.84" rx="57.7" ry="57.7"/>
<ellipse fill="none" stroke="black" cx="383.84" cy="-61.84" rx="61.69" ry="61.69"/>
<text text-anchor="middle" x="383.84" y="-58.14" font-family="Times,serif" font-size="14.00">3/0.52,5.1</text>
</g>
<!-- 1&#45;&gt;3 -->
<g id="edge3" class="edge">
<title>1&#45;&gt;3</title>
<path fill="none" stroke="black" d="M196.95,-86.59C222.1,-83.24 270.8,-76.76 312.04,-71.27"/>
<polygon fill="black" stroke="black" points="312.63,-74.72 322.08,-69.93 311.7,-67.78 312.63,-74.72"/>
<text text-anchor="middle" x="259.5" y="-87.64" font-family="Times,serif" font-size="14.00">5:6/0.65,6.25</text>
</g>
<!-- 2&#45;&gt;3 -->
<g id="edge4" class="edge">
<title>2&#45;&gt;3</title>
<path fill="none" stroke="black" d="M196.95,-37.1C222.1,-40.45 270.8,-46.93 312.04,-52.42"/>
<polygon fill="black" stroke="black" points="311.7,-55.91 322.08,-53.76 312.63,-48.97 311.7,-55.91"/>
<text text-anchor="middle" x="259.5" y="-54.64" font-family="Times,serif" font-size="14.00">6:8/0.87,8.35</text>
</g>
</g>
</svg>
