<?xml version="1.0" encoding="UTF-8" standalone="no"?>
<!DOCTYPE svg PUBLIC "-//W3C//DTD SVG 1.1//EN"
 "http://www.w3.org/Graphics/SVG/1.1/DTD/svg11.dtd">
<!-- Generated by graphviz version 6.0.1 (20220911.1526)
 -->
<!-- Title: FST Pages: 1 -->
<svg width="255pt" height="93pt"
 viewBox="0.00 0.00 255.20 93.20" xmlns="http://www.w3.org/2000/svg" xmlns:xlink="http://www.w3.org/1999/xlink">
<g id="graph0" class="graph" transform="scale(1 1) rotate(0) translate(4 89.2)">
<title>FST</title>
<polygon fill="white" stroke="none" points="-4,4 -4,-89.2 251.2,-89.2 251.2,4 -4,4"/>
<!-- 0 -->
<g id="node1" class="node">
<title>0</title>
<ellipse fill="none" stroke="black" stroke-width="2" cx="18" cy="-26.1" rx="18" ry="18"/>
<text text-anchor="middle" x="18" y="-22.4" font-family="Times,serif" font-size="14.00">0</text>
</g>
<!-- 1 -->
<g id="node2" class="node">
<title>1</title>
<ellipse fill="none" stroke="black" cx="110" cy="-61.1" rx="18" ry="18"/>
<text text-anchor="middle" x="110" y="-57.4" font-family="Times,serif" font-size="14.00">1</text>
</g>
<!-- 0&#45;&gt;1 -->
<g id="edge1" class="edge">
<title>0&#45;&gt;1</title>
<path fill="none" stroke="black" d="M35.09,-32.36C48.53,-37.58 67.93,-45.13 83.49,-51.18"/>
<polygon fill="black" stroke="black" points="82.46,-54.53 93.05,-54.89 85,-48.01 82.46,-54.53"/>
<text text-anchor="middle" x="64" y="-50.9" font-family="Times,serif" font-size="14.00">q:f/1</text>
</g>
<!-- 2 -->
<g id="node3" class="node">
<title>2</title>
<ellipse fill="none" stroke="black" cx="221.1" cy="-26.1" rx="22.18" ry="22.18"/>
<ellipse fill="none" stroke="black" cx="221.1" cy="-26.1" rx="26.2" ry="26.2"/>
<text text-anchor="middle" x="221.1" y="-22.4" font-family="Times,serif" font-size="14.00">2/2</text>
</g>
<!-- 0&#45;&gt;2 -->
<g id="edge2" class="edge">
<title>0&#45;&gt;2</title>
<path fill="none" stroke="black" d="M36.08,-23.99C50.85,-22.29 72.8,-20.02 92,-19.1 123.48,-17.59 159.3,-19.89 185.04,-22.25"/>
<polygon fill="black" stroke="black" points="184.78,-25.74 195.07,-23.21 185.45,-18.77 184.78,-25.74"/>
<text text-anchor="middle" x="110" y="-22.9" font-family="Times,serif" font-size="14.00">r:h/3</text>
</g>
<!-- 1&#45;&gt;2 -->
<g id="edge3" class="edge">
<title>1&#45;&gt;2</title>
<path fill="none" stroke="black" d="M127.57,-55.78C143.1,-50.8 166.79,-43.2 186.31,-36.94"/>
<polygon fill="black" stroke="black" points="187.62,-40.19 196.07,-33.81 185.48,-33.53 187.62,-40.19"/>
<text text-anchor="middle" x="161.5" y="-53.9" font-family="Times,serif" font-size="14.00">s:g/2.5</text>
</g>
<!-- 2&#45;&gt;2 -->
<g id="edge4" class="edge">
<title>2&#45;&gt;2</title>
<path fill="none" stroke="black" d="M210.1,-50.14C209.05,-60.89 212.72,-70.2 221.1,-70.2 226.6,-70.2 230.07,-66.19 231.51,-60.4"/>
<polygon fill="black" stroke="black" points="235.02,-60.32 232.1,-50.14 228.03,-59.92 235.02,-60.32"/>
<text text-anchor="middle" x="221.1" y="-74" font-family="Times,serif" font-size="14.00">s:j/1.5</text>
</g>
</g>
</svg>
