<?xml version="1.0" encoding="UTF-8" standalone="no"?>
<!DOCTYPE svg PUBLIC "-//W3C//DTD SVG 1.1//EN"
 "http://www.w3.org/Graphics/SVG/1.1/DTD/svg11.dtd">
<!-- Generated by graphviz version 2.43.0 (0)
 -->
<!-- Title: FST Pages: 1 -->
<svg width="281pt" height="100pt"
 viewBox="0.00 0.00 280.70 99.70" xmlns="http://www.w3.org/2000/svg" xmlns:xlink="http://www.w3.org/1999/xlink">
<g id="graph0" class="graph" transform="scale(1 1) rotate(0) translate(4 95.7)">
<title>FST</title>
<polygon fill="white" stroke="transparent" points="-4,4 -4,-95.7 276.7,-95.7 276.7,4 -4,4"/>
<!-- 0 -->
<g id="node1" class="node">
<title>0</title>
<ellipse fill="none" stroke="black" stroke-width="2" cx="18" cy="-29.35" rx="18" ry="18"/>
<text text-anchor="middle" x="18" y="-25.65" font-family="Times,serif" font-size="14.00">0</text>
</g>
<!-- 1 -->
<g id="node2" class="node">
<title>1</title>
<ellipse fill="none" stroke="black" cx="117" cy="-64.35" rx="18" ry="18"/>
<text text-anchor="middle" x="117" y="-60.65" font-family="Times,serif" font-size="14.00">1</text>
</g>
<!-- 0&#45;&gt;1 -->
<g id="edge1" class="edge">
<title>0&#45;&gt;1</title>
<path fill="none" stroke="black" d="M35.45,-35.29C50.46,-40.7 72.86,-48.78 90.23,-55.05"/>
<polygon fill="black" stroke="black" points="89.19,-58.4 99.79,-58.5 91.57,-51.81 89.19,-58.4"/>
<text text-anchor="middle" x="67.5" y="-55.15" font-family="Times,serif" font-size="14.00">q:f/1</text>
</g>
<!-- 2 -->
<g id="node3" class="node">
<title>2</title>
<ellipse fill="none" stroke="black" cx="243.35" cy="-29.35" rx="25.22" ry="25.22"/>
<ellipse fill="none" stroke="black" cx="243.35" cy="-29.35" rx="29.2" ry="29.2"/>
<text text-anchor="middle" x="243.35" y="-25.65" font-family="Times,serif" font-size="14.00">2/2</text>
</g>
<!-- 0&#45;&gt;2 -->
<g id="edge2" class="edge">
<title>0&#45;&gt;2</title>
<path fill="none" stroke="black" d="M36.14,-27.41C52.32,-25.69 77.27,-23.3 99,-22.35 134.58,-20.79 175.12,-23.16 203.99,-25.55"/>
<polygon fill="black" stroke="black" points="203.8,-29.05 214.06,-26.42 204.41,-22.07 203.8,-29.05"/>
<text text-anchor="middle" x="117" y="-26.15" font-family="Times,serif" font-size="14.00">r:h/3</text>
</g>
<!-- 1&#45;&gt;2 -->
<g id="edge3" class="edge">
<title>1&#45;&gt;2</title>
<path fill="none" stroke="black" d="M134.51,-59.7C152.43,-54.66 181.63,-46.44 205.13,-39.82"/>
<polygon fill="black" stroke="black" points="206.12,-43.18 214.8,-37.1 204.23,-36.44 206.12,-43.18"/>
<text text-anchor="middle" x="174.5" y="-58.15" font-family="Times,serif" font-size="14.00">s:g/2.5</text>
</g>
<!-- 2&#45;&gt;2 -->
<g id="edge4" class="edge">
<title>2&#45;&gt;2</title>
<path fill="none" stroke="black" d="M230.71,-56.12C229.84,-67.26 234.05,-76.7 243.35,-76.7 249.59,-76.7 253.55,-72.43 255.2,-66.26"/>
<polygon fill="black" stroke="black" points="258.7,-66.36 255.99,-56.12 251.72,-65.82 258.7,-66.36"/>
<text text-anchor="middle" x="243.35" y="-80.5" font-family="Times,serif" font-size="14.00">s:j/1.5</text>
</g>
</g>
</svg>
