<?xml version="1.0" encoding="UTF-8" standalone="no"?>
<!DOCTYPE svg PUBLIC "-//W3C//DTD SVG 1.1//EN"
 "http://www.w3.org/Graphics/SVG/1.1/DTD/svg11.dtd">
<!-- Generated by graphviz version 9.0.0 (20230911.1827)
 -->
<!-- Title: FST Pages: 1 -->
<svg width="256pt" height="96pt"
 viewBox="0.00 0.00 255.63 95.88" xmlns="http://www.w3.org/2000/svg" xmlns:xlink="http://www.w3.org/1999/xlink">
<g id="graph0" class="graph" transform="scale(1 1) rotate(0) translate(4 91.88)">
<title>FST</title>
<polygon fill="white" stroke="none" points="-4,4 -4,-91.88 251.63,-91.88 251.63,4 -4,4"/>
<!-- 0 -->
<g id="node1" class="node">
<title>0</title>
<ellipse fill="none" stroke="black" stroke-width="2" cx="18" cy="-26.69" rx="18" ry="18"/>
<text text-anchor="middle" x="18" y="-21.64" font-family="Times,serif" font-size="14.00">0</text>
</g>
<!-- 1 -->
<g id="node2" class="node">
<title>1</title>
<ellipse fill="none" stroke="black" cx="109.5" cy="-63.69" rx="18" ry="18"/>
<text text-anchor="middle" x="109.5" y="-58.64" font-family="Times,serif" font-size="14.00">1</text>
</g>
<!-- 0&#45;&gt;1 -->
<g id="edge1" class="edge">
<title>0&#45;&gt;1</title>
<path fill="none" stroke="black" d="M35,-33.31C48.03,-38.69 66.69,-46.41 81.96,-52.72"/>
<polygon fill="black" stroke="black" points="80.36,-55.84 90.94,-56.43 83.03,-49.37 80.36,-55.84"/>
<text text-anchor="middle" x="63.75" y="-51.89" font-family="Times,serif" font-size="14.00">q:f/1</text>
</g>
<!-- 2 -->
<g id="node3" class="node">
<title>2</title>
<ellipse fill="none" stroke="black" cx="220.94" cy="-26.69" rx="22.69" ry="22.69"/>
<ellipse fill="none" stroke="black" cx="220.94" cy="-26.69" rx="26.69" ry="26.69"/>
<text text-anchor="middle" x="220.94" y="-21.64" font-family="Times,serif" font-size="14.00">2/2</text>
</g>
<!-- 0&#45;&gt;2 -->
<g id="edge2" class="edge">
<title>0&#45;&gt;2</title>
<path fill="none" stroke="black" d="M36.26,-24.71C50.93,-23.12 72.56,-21.04 91.5,-20.19 122.31,-18.81 157.26,-20.81 182.92,-22.95"/>
<polygon fill="black" stroke="black" points="182.58,-26.43 192.85,-23.83 183.2,-19.46 182.58,-26.43"/>
<text text-anchor="middle" x="109.5" y="-23.89" font-family="Times,serif" font-size="14.00">r:h/3</text>
</g>
<!-- 1&#45;&gt;2 -->
<g id="edge3" class="edge">
<title>1&#45;&gt;2</title>
<path fill="none" stroke="black" d="M127.12,-58.07C142.32,-52.93 165.29,-45.16 184.59,-38.64"/>
<polygon fill="black" stroke="black" points="185.64,-41.98 194,-35.46 183.4,-35.35 185.64,-41.98"/>
<text text-anchor="middle" x="160.88" y="-55.89" font-family="Times,serif" font-size="14.00">s:g/2.5</text>
</g>
<!-- 2&#45;&gt;2 -->
<g id="edge4" class="edge">
<title>2&#45;&gt;2</title>
<path fill="none" stroke="black" d="M209.85,-51.05C208.8,-61.95 212.49,-71.38 220.94,-71.38 226.22,-71.38 229.64,-67.7 231.21,-62.28"/>
<polygon fill="black" stroke="black" points="234.68,-62.79 231.92,-52.56 227.7,-62.28 234.68,-62.79"/>
<text text-anchor="middle" x="220.94" y="-74.58" font-family="Times,serif" font-size="14.00">s:j/1.5</text>
</g>
</g>
</svg>
