<?xml version="1.0" encoding="UTF-8" standalone="no"?>
<!DOCTYPE svg PUBLIC "-//W3C//DTD SVG 1.1//EN"
 "http://www.w3.org/Graphics/SVG/1.1/DTD/svg11.dtd">
<!-- Generated by graphviz version 7.0.4 (20221203.1631)
 -->
<!-- Title: FST Pages: 1 -->
<svg width="255pt" height="93pt"
 viewBox="0.00 0.00 255.20 93.20" xmlns="http://www.w3.org/2000/svg" xmlns:xlink="http://www.w3.org/1999/xlink">
<g id="graph0" class="graph" transform="scale(1 1) rotate(0) translate(4 89.2)">
<title>FST</title>
<polygon fill="white" stroke="none" points="-4,4 -4,-89.2 251.2,-89.2 251.2,4 -4,4"/>
<!-- 0 -->
<g id="node1" class="node">
<title>0</title>
<ellipse fill="none" stroke="black" stroke-width="2" cx="18" cy="-26.1" rx="18" ry="18"/>
<text text-anchor="middle" x="18" y="-22.4" font-family="Times,serif" font-size="14.00">0</text>
</g>
<!-- 1 -->
<g id="node2" class="node">
<title>1</title>
<ellipse fill="none" stroke="black" cx="110" cy="-61.1" rx="18" ry="18"/>
<text text-anchor="middle" x="110" y="-57.4" font-family="Times,serif" font-size="14.00">1</text>
</g>
<!-- 0&#45;&gt;1 -->
<g id="edge1" class="edge">
<title>0&#45;&gt;1</title>
<path fill="none" stroke="black" d="M35.09,-32.36C48.19,-37.45 66.96,-44.75 82.31,-50.72"/>
<polygon fill="black" stroke="black" points="80.75,-53.87 91.34,-54.23 83.28,-47.34 80.75,-53.87"/>
<text text-anchor="middle" x="64" y="-50.9" font-family="Times,serif" font-size="14.00">q:f/1</text>
</g>
<!-- 2 -->
<g id="node3" class="node">
<title>2</title>
<ellipse fill="none" stroke="black" cx="221.1" cy="-26.1" rx="22.18" ry="22.18"/>
<ellipse fill="none" stroke="black" cx="221.1" cy="-26.1" rx="26.2" ry="26.2"/>
<text text-anchor="middle" x="221.1" y="-22.4" font-family="Times,serif" font-size="14.00">2/2</text>
</g>
<!-- 0&#45;&gt;2 -->
<g id="edge2" class="edge">
<title>0&#45;&gt;2</title>
<path fill="none" stroke="black" d="M36.37,-23.96C51.14,-22.26 72.92,-20.01 92,-19.1 122.73,-17.63 157.59,-19.78 183.18,-22.08"/>
<polygon fill="black" stroke="black" points="182.79,-25.56 193.08,-23.02 183.45,-18.59 182.79,-25.56"/>
<text text-anchor="middle" x="110" y="-22.9" font-family="Times,serif" font-size="14.00">r:h/3</text>
</g>
<!-- 1&#45;&gt;2 -->
<g id="edge3" class="edge">
<title>1&#45;&gt;2</title>
<path fill="none" stroke="black" d="M127.57,-55.78C142.72,-50.92 165.62,-43.57 184.85,-37.4"/>
<polygon fill="black" stroke="black" points="185.77,-40.79 194.22,-34.4 183.63,-34.12 185.77,-40.79"/>
<text text-anchor="middle" x="161.5" y="-53.9" font-family="Times,serif" font-size="14.00">s:g/2.5</text>
</g>
<!-- 2&#45;&gt;2 -->
<g id="edge4" class="edge">
<title>2&#45;&gt;2</title>
<path fill="none" stroke="black" d="M210.1,-50.14C209.05,-60.89 212.72,-70.2 221.1,-70.2 226.21,-70.2 229.56,-66.74 231.17,-61.61"/>
<polygon fill="black" stroke="black" points="234.66,-61.9 231.98,-51.65 227.68,-61.33 234.66,-61.9"/>
<text text-anchor="middle" x="221.1" y="-74" font-family="Times,serif" font-size="14.00">s:j/1.5</text>
</g>
</g>
</svg>
