<?xml version="1.0" encoding="UTF-8" standalone="no"?>
<!DOCTYPE svg PUBLIC "-//W3C//DTD SVG 1.1//EN"
 "http://www.w3.org/Graphics/SVG/1.1/DTD/svg11.dtd">
<!-- Generated by graphviz version 2.43.0 (0)
 -->
<!-- Title: FST Pages: 1 -->
<svg width="406pt" height="120pt"
 viewBox="0.00 0.00 405.99 119.99" xmlns="http://www.w3.org/2000/svg" xmlns:xlink="http://www.w3.org/1999/xlink">
<g id="graph0" class="graph" transform="scale(1 1) rotate(0) translate(4 115.99)">
<title>FST</title>
<polygon fill="white" stroke="transparent" points="-4,4 -4,-115.99 401.99,-115.99 401.99,4 -4,4"/>
<!-- 0 -->
<g id="node1" class="node">
<title>0</title>
<ellipse fill="none" stroke="black" stroke-width="2" cx="18" cy="-56" rx="18" ry="18"/>
<text text-anchor="middle" x="18" y="-52.3" font-family="Times,serif" font-size="14.00">0</text>
</g>
<!-- 1 -->
<g id="node2" class="node">
<title>1</title>
<ellipse fill="none" stroke="black" cx="161" cy="-83" rx="18" ry="18"/>
<text text-anchor="middle" x="161" y="-79.3" font-family="Times,serif" font-size="14.00">1</text>
</g>
<!-- 0&#45;&gt;1 -->
<g id="edge1" class="edge">
<title>0&#45;&gt;1</title>
<path fill="none" stroke="black" d="M35.73,-59.2C59.66,-63.78 103.95,-72.26 132.68,-77.76"/>
<polygon fill="black" stroke="black" points="132.37,-81.27 142.85,-79.71 133.69,-74.39 132.37,-81.27"/>
<text text-anchor="middle" x="89.5" y="-79.8" font-family="Times,serif" font-size="14.00">1:2/0.1,0.2</text>
</g>
<!-- 2 -->
<g id="node3" class="node">
<title>2</title>
<ellipse fill="none" stroke="black" cx="161" cy="-29" rx="18" ry="18"/>
<text text-anchor="middle" x="161" y="-25.3" font-family="Times,serif" font-size="14.00">2</text>
</g>
<!-- 0&#45;&gt;2 -->
<g id="edge2" class="edge">
<title>0&#45;&gt;2</title>
<path fill="none" stroke="black" d="M34.68,-48.69C39.79,-46.56 45.55,-44.43 51,-43 78.28,-35.83 110.39,-32.27 132.67,-30.55"/>
<polygon fill="black" stroke="black" points="133.02,-34.03 142.75,-29.84 132.53,-27.05 133.02,-34.03"/>
<text text-anchor="middle" x="89.5" y="-46.8" font-family="Times,serif" font-size="14.00">3:4/0.3,0.4</text>
</g>
<!-- 3 -->
<g id="node4" class="node">
<title>3</title>
<ellipse fill="none" stroke="black" cx="342" cy="-56" rx="51.99" ry="51.99"/>
<ellipse fill="none" stroke="black" cx="342" cy="-56" rx="55.99" ry="55.99"/>
<text text-anchor="middle" x="342" y="-52.3" font-family="Times,serif" font-size="14.00">3/0.2,0.5</text>
</g>
<!-- 1&#45;&gt;3 -->
<g id="edge3" class="edge">
<title>1&#45;&gt;3</title>
<path fill="none" stroke="black" d="M178.84,-80.46C201.02,-77.11 241.29,-71.03 276.15,-65.78"/>
<polygon fill="black" stroke="black" points="276.93,-69.2 286.3,-64.25 275.89,-62.28 276.93,-69.2"/>
<text text-anchor="middle" x="232.5" y="-80.8" font-family="Times,serif" font-size="14.00">5:6/0.5,0.6</text>
</g>
<!-- 2&#45;&gt;3 -->
<g id="edge4" class="edge">
<title>2&#45;&gt;3</title>
<path fill="none" stroke="black" d="M178.84,-31.54C201.02,-34.88 241.29,-40.96 276.15,-46.21"/>
<polygon fill="black" stroke="black" points="275.89,-49.71 286.3,-47.74 276.93,-42.79 275.89,-49.71"/>
<text text-anchor="middle" x="232.5" y="-47.8" font-family="Times,serif" font-size="14.00">6:8/0.7,0.8</text>
</g>
</g>
</svg>
