<?xml version="1.0" encoding="UTF-8" standalone="no"?>
<!DOCTYPE svg PUBLIC "-//W3C//DTD SVG 1.1//EN"
 "http://www.w3.org/Graphics/SVG/1.1/DTD/svg11.dtd">
<!-- Generated by graphviz version 7.0.0 (20221023.0053)
 -->
<!-- Title: FST Pages: 1 -->
<svg width="343pt" height="85pt"
 viewBox="0.00 0.00 343.20 85.10" xmlns="http://www.w3.org/2000/svg" xmlns:xlink="http://www.w3.org/1999/xlink">
<g id="graph0" class="graph" transform="scale(1 1) rotate(0) translate(4 81.1)">
<title>FST</title>
<polygon fill="white" stroke="none" points="-4,4 -4,-81.1 339.2,-81.1 339.2,4 -4,4"/>
<!-- 0 -->
<g id="node1" class="node">
<title>0</title>
<ellipse fill="none" stroke="black" stroke-width="2" cx="18" cy="-26.1" rx="18" ry="18"/>
<text text-anchor="middle" x="18" y="-22.4" font-family="Times,serif" font-size="14.00">0</text>
</g>
<!-- 1 -->
<g id="node2" class="node">
<title>1</title>
<ellipse fill="none" stroke="black" cx="112" cy="-26.1" rx="18" ry="18"/>
<text text-anchor="middle" x="112" y="-22.4" font-family="Times,serif" font-size="14.00">1</text>
</g>
<!-- 0&#45;&gt;1 -->
<g id="edge1" class="edge">
<title>0&#45;&gt;1</title>
<path fill="none" stroke="black" d="M36.3,-26.1C49.28,-26.1 67.34,-26.1 82.44,-26.1"/>
<polygon fill="black" stroke="black" points="82.26,-29.6 92.26,-26.1 82.26,-22.6 82.26,-29.6"/>
<text text-anchor="middle" x="65" y="-29.9" font-family="Times,serif" font-size="14.00">a:y/1</text>
</g>
<!-- 0&#45;&gt;1 -->
<g id="edge2" class="edge">
<title>0&#45;&gt;1</title>
<path fill="none" stroke="black" d="M32.91,-15.64C38.27,-12.21 44.64,-8.84 51,-7.1 63,-3.8 67,-3.8 79,-7.1 81.78,-7.86 84.56,-8.94 87.26,-10.19"/>
<polygon fill="black" stroke="black" points="85.32,-13.12 95.77,-14.9 88.72,-6.99 85.32,-13.12"/>
<text text-anchor="middle" x="65" y="-10.9" font-family="Times,serif" font-size="14.00">b:x/3</text>
</g>
<!-- 1&#45;&gt;1 -->
<g id="edge3" class="edge">
<title>1&#45;&gt;1</title>
<path fill="none" stroke="black" d="M103.81,-42.39C101.83,-52.49 104.56,-62.1 112,-62.1 116.41,-62.1 119.17,-58.71 120.27,-53.84"/>
<polygon fill="black" stroke="black" points="123.77,-53.88 120.2,-43.9 116.77,-53.93 123.77,-53.88"/>
<text text-anchor="middle" x="112" y="-65.9" font-family="Times,serif" font-size="14.00">d:v/7</text>
</g>
<!-- 2 -->
<g id="node3" class="node">
<title>2</title>
<ellipse fill="none" stroke="black" cx="209" cy="-26.1" rx="18" ry="18"/>
<text text-anchor="middle" x="209" y="-22.4" font-family="Times,serif" font-size="14.00">2</text>
</g>
<!-- 1&#45;&gt;2 -->
<g id="edge4" class="edge">
<title>1&#45;&gt;2</title>
<path fill="none" stroke="black" d="M130.42,-26.1C144.08,-26.1 163.38,-26.1 179.31,-26.1"/>
<polygon fill="black" stroke="black" points="179.17,-29.6 189.17,-26.1 179.17,-22.6 179.17,-29.6"/>
<text text-anchor="middle" x="160.5" y="-29.9" font-family="Times,serif" font-size="14.00">c:w/5</text>
</g>
<!-- 3 -->
<g id="node4" class="node">
<title>3</title>
<ellipse fill="none" stroke="black" cx="309.1" cy="-26.1" rx="22.18" ry="22.18"/>
<ellipse fill="none" stroke="black" cx="309.1" cy="-26.1" rx="26.2" ry="26.2"/>
<text text-anchor="middle" x="309.1" y="-22.4" font-family="Times,serif" font-size="14.00">3/2</text>
</g>
<!-- 2&#45;&gt;3 -->
<g id="edge5" class="edge">
<title>2&#45;&gt;3</title>
<path fill="none" stroke="black" d="M227.09,-26.1C239.34,-26.1 256.29,-26.1 271.53,-26.1"/>
<polygon fill="black" stroke="black" points="271.23,-29.6 281.23,-26.1 271.23,-22.6 271.23,-29.6"/>
<text text-anchor="middle" x="255" y="-29.9" font-family="Times,serif" font-size="14.00">f:u/9</text>
</g>
</g>
</svg>
