<?xml version="1.0" encoding="UTF-8" standalone="no"?>
<!DOCTYPE svg PUBLIC "-//W3C//DTD SVG 1.1//EN"
 "http://www.w3.org/Graphics/SVG/1.1/DTD/svg11.dtd">
<!-- Generated by graphviz version 9.0.0 (20230911.1827)
 -->
<!-- Title: FST Pages: 1 -->
<svg width="343pt" height="87pt"
 viewBox="0.00 0.00 342.63 87.19" xmlns="http://www.w3.org/2000/svg" xmlns:xlink="http://www.w3.org/1999/xlink">
<g id="graph0" class="graph" transform="scale(1 1) rotate(0) translate(4 83.19)">
<title>FST</title>
<polygon fill="white" stroke="none" points="-4,4 -4,-83.19 338.63,-83.19 338.63,4 -4,4"/>
<!-- 0 -->
<g id="node1" class="node">
<title>0</title>
<ellipse fill="none" stroke="black" stroke-width="2" cx="18" cy="-26.69" rx="18" ry="18"/>
<text text-anchor="middle" x="18" y="-21.64" font-family="Times,serif" font-size="14.00">0</text>
</g>
<!-- 1 -->
<g id="node2" class="node">
<title>1</title>
<ellipse fill="none" stroke="black" cx="111.75" cy="-26.69" rx="18" ry="18"/>
<text text-anchor="middle" x="111.75" y="-21.64" font-family="Times,serif" font-size="14.00">1</text>
</g>
<!-- 0&#45;&gt;1 -->
<g id="edge1" class="edge">
<title>0&#45;&gt;1</title>
<path fill="none" stroke="black" d="M36.26,-26.69C49.12,-26.69 66.98,-26.69 81.98,-26.69"/>
<polygon fill="black" stroke="black" points="81.74,-30.19 91.74,-26.69 81.74,-23.19 81.74,-30.19"/>
<text text-anchor="middle" x="64.88" y="-29.89" font-family="Times,serif" font-size="14.00">a:y/1</text>
</g>
<!-- 0&#45;&gt;1 -->
<g id="edge2" class="edge">
<title>0&#45;&gt;1</title>
<path fill="none" stroke="black" d="M32.48,-15.63C37.9,-11.86 44.41,-8.12 51,-6.19 62.84,-2.72 66.91,-2.72 78.75,-6.19 81.73,-7.06 84.7,-8.31 87.56,-9.76"/>
<polygon fill="black" stroke="black" points="85.6,-12.67 95.97,-14.85 89.23,-6.68 85.6,-12.67"/>
<text text-anchor="middle" x="64.88" y="-8.89" font-family="Times,serif" font-size="14.00">b:x/3</text>
</g>
<!-- 1&#45;&gt;1 -->
<g id="edge3" class="edge">
<title>1&#45;&gt;1</title>
<path fill="none" stroke="black" d="M103.58,-42.98C101.61,-53.08 104.33,-62.69 111.75,-62.69 116.15,-62.69 118.9,-59.3 120,-54.44"/>
<polygon fill="black" stroke="black" points="123.5,-54.47 119.93,-44.49 116.5,-54.52 123.5,-54.47"/>
<text text-anchor="middle" x="111.75" y="-65.89" font-family="Times,serif" font-size="14.00">d:v/7</text>
</g>
<!-- 2 -->
<g id="node3" class="node">
<title>2</title>
<ellipse fill="none" stroke="black" cx="207.75" cy="-26.69" rx="18" ry="18"/>
<text text-anchor="middle" x="207.75" y="-21.64" font-family="Times,serif" font-size="14.00">2</text>
</g>
<!-- 1&#45;&gt;2 -->
<g id="edge4" class="edge">
<title>1&#45;&gt;2</title>
<path fill="none" stroke="black" d="M129.99,-26.69C143.42,-26.69 162.36,-26.69 178.07,-26.69"/>
<polygon fill="black" stroke="black" points="177.79,-30.19 187.79,-26.69 177.79,-23.19 177.79,-30.19"/>
<text text-anchor="middle" x="159.75" y="-29.89" font-family="Times,serif" font-size="14.00">c:w/5</text>
</g>
<!-- 3 -->
<g id="node4" class="node">
<title>3</title>
<ellipse fill="none" stroke="black" cx="307.94" cy="-26.69" rx="22.69" ry="22.69"/>
<ellipse fill="none" stroke="black" cx="307.94" cy="-26.69" rx="26.69" ry="26.69"/>
<text text-anchor="middle" x="307.94" y="-21.64" font-family="Times,serif" font-size="14.00">3/2</text>
</g>
<!-- 2&#45;&gt;3 -->
<g id="edge5" class="edge">
<title>2&#45;&gt;3</title>
<path fill="none" stroke="black" d="M225.85,-26.69C237.94,-26.69 254.6,-26.69 269.68,-26.69"/>
<polygon fill="black" stroke="black" points="269.29,-30.19 279.29,-26.69 269.29,-23.19 269.29,-30.19"/>
<text text-anchor="middle" x="253.5" y="-29.89" font-family="Times,serif" font-size="14.00">f:u/9</text>
</g>
</g>
</svg>
