<?xml version="1.0" encoding="UTF-8" standalone="no"?>
<!DOCTYPE svg PUBLIC "-//W3C//DTD SVG 1.1//EN"
 "http://www.w3.org/Graphics/SVG/1.1/DTD/svg11.dtd">
<!-- Generated by graphviz version 9.0.0 (20230911.1827)
 -->
<!-- Title: FST Pages: 1 -->
<svg width="355pt" height="104pt"
 viewBox="0.00 0.00 354.87 104.37" xmlns="http://www.w3.org/2000/svg" xmlns:xlink="http://www.w3.org/1999/xlink">
<g id="graph0" class="graph" transform="scale(1 1) rotate(0) translate(4 100.37)">
<title>FST</title>
<polygon fill="white" stroke="none" points="-4,4 -4,-100.37 350.87,-100.37 350.87,4 -4,4"/>
<!-- 0 -->
<g id="node1" class="node">
<title>0</title>
<ellipse fill="none" stroke="black" stroke-width="2" cx="18" cy="-48.19" rx="18" ry="18"/>
<text text-anchor="middle" x="18" y="-43.14" font-family="Times,serif" font-size="14.00">0</text>
</g>
<!-- 1 -->
<g id="node2" class="node">
<title>1</title>
<ellipse fill="none" stroke="black" cx="143.25" cy="-75.19" rx="18" ry="18"/>
<text text-anchor="middle" x="143.25" y="-70.14" font-family="Times,serif" font-size="14.00">1</text>
</g>
<!-- 0&#45;&gt;1 -->
<g id="edge1" class="edge">
<title>0&#45;&gt;1</title>
<path fill="none" stroke="black" d="M35.88,-51.88C56.05,-56.3 90.09,-63.76 114.23,-69.05"/>
<polygon fill="black" stroke="black" points="113.18,-72.4 123.7,-71.12 114.68,-65.56 113.18,-72.4"/>
<text text-anchor="middle" x="80.62" y="-70.39" font-family="Times,serif" font-size="14.00">1:2/0.1,0.2</text>
</g>
<!-- 2 -->
<g id="node3" class="node">
<title>2</title>
<ellipse fill="none" stroke="black" cx="143.25" cy="-21.19" rx="18" ry="18"/>
<text text-anchor="middle" x="143.25" y="-16.14" font-family="Times,serif" font-size="14.00">2</text>
</g>
<!-- 0&#45;&gt;2 -->
<g id="edge2" class="edge">
<title>0&#45;&gt;2</title>
<path fill="none" stroke="black" d="M35.05,-41.14C40.08,-39.14 45.7,-37.12 51,-35.69 71.6,-30.1 95.44,-26.4 113.59,-24.14"/>
<polygon fill="black" stroke="black" points="113.83,-27.63 123.36,-23 113.02,-20.68 113.83,-27.63"/>
<text text-anchor="middle" x="80.62" y="-39.39" font-family="Times,serif" font-size="14.00">3:4/0.3,0.4</text>
</g>
<!-- 3 -->
<g id="node4" class="node">
<title>3</title>
<ellipse fill="none" stroke="black" cx="298.69" cy="-48.19" rx="44.19" ry="44.19"/>
<ellipse fill="none" stroke="black" cx="298.69" cy="-48.19" rx="48.19" ry="48.19"/>
<text text-anchor="middle" x="298.69" y="-43.14" font-family="Times,serif" font-size="14.00">3/0.2,0.5</text>
</g>
<!-- 1&#45;&gt;3 -->
<g id="edge3" class="edge">
<title>1&#45;&gt;3</title>
<path fill="none" stroke="black" d="M161.26,-72.19C180.12,-68.87 211.57,-63.34 239.53,-58.42"/>
<polygon fill="black" stroke="black" points="240.11,-61.87 249.35,-56.69 238.9,-54.98 240.11,-61.87"/>
<text text-anchor="middle" x="205.88" y="-72.39" font-family="Times,serif" font-size="14.00">5:6/0.5,0.6</text>
</g>
<!-- 2&#45;&gt;3 -->
<g id="edge4" class="edge">
<title>2&#45;&gt;3</title>
<path fill="none" stroke="black" d="M161.26,-24.18C180.12,-27.5 211.57,-33.03 239.53,-37.95"/>
<polygon fill="black" stroke="black" points="238.9,-41.39 249.35,-39.68 240.11,-34.5 238.9,-41.39"/>
<text text-anchor="middle" x="205.88" y="-40.39" font-family="Times,serif" font-size="14.00">6:8/0.7,0.8</text>
</g>
</g>
</svg>
