<?xml version="1.0" encoding="UTF-8" standalone="no"?>
<!DOCTYPE svg PUBLIC "-//W3C//DTD SVG 1.1//EN"
 "http://www.w3.org/Graphics/SVG/1.1/DTD/svg11.dtd">
<!-- Generated by graphviz version 6.0.1 (20220911.1526)
 -->
<!-- Title: FST Pages: 1 -->
<svg width="343pt" height="85pt"
 viewBox="0.00 0.00 343.20 85.10" xmlns="http://www.w3.org/2000/svg" xmlns:xlink="http://www.w3.org/1999/xlink">
<g id="graph0" class="graph" transform="scale(1 1) rotate(0) translate(4 81.1)">
<title>FST</title>
<polygon fill="white" stroke="none" points="-4,4 -4,-81.1 339.2,-81.1 339.2,4 -4,4"/>
<!-- 0 -->
<g id="node1" class="node">
<title>0</title>
<ellipse fill="none" stroke="black" stroke-width="2" cx="18" cy="-26.1" rx="18" ry="18"/>
<text text-anchor="middle" x="18" y="-22.4" font-family="Times,serif" font-size="14.00">0</text>
</g>
<!-- 1 -->
<g id="node2" class="node">
<title>1</title>
<ellipse fill="none" stroke="black" cx="112" cy="-26.1" rx="18" ry="18"/>
<text text-anchor="middle" x="112" y="-22.4" font-family="Times,serif" font-size="14.00">1</text>
</g>
<!-- 0&#45;&gt;1 -->
<g id="edge1" class="edge">
<title>0&#45;&gt;1</title>
<path fill="none" stroke="black" d="M36.3,-26.1C49.54,-26.1 68.05,-26.1 83.34,-26.1"/>
<polygon fill="black" stroke="black" points="83.77,-29.6 93.77,-26.1 83.77,-22.6 83.77,-29.6"/>
<text text-anchor="middle" x="65" y="-29.9" font-family="Times,serif" font-size="14.00">a:y/1</text>
</g>
<!-- 0&#45;&gt;1 -->
<g id="edge2" class="edge">
<title>0&#45;&gt;1</title>
<path fill="none" stroke="black" d="M32.91,-15.64C38.27,-12.21 44.64,-8.84 51,-7.1 63,-3.8 67,-3.8 79,-7.1 82.08,-7.94 85.16,-9.17 88.13,-10.6"/>
<polygon fill="black" stroke="black" points="86.66,-13.79 97.09,-15.64 90.09,-7.69 86.66,-13.79"/>
<text text-anchor="middle" x="65" y="-10.9" font-family="Times,serif" font-size="14.00">b:x/3</text>
</g>
<!-- 1&#45;&gt;1 -->
<g id="edge3" class="edge">
<title>1&#45;&gt;1</title>
<path fill="none" stroke="black" d="M103.81,-42.39C101.83,-52.49 104.56,-62.1 112,-62.1 116.76,-62.1 119.6,-58.15 120.5,-52.66"/>
<polygon fill="black" stroke="black" points="123.99,-52.28 120.19,-42.39 116.99,-52.49 123.99,-52.28"/>
<text text-anchor="middle" x="112" y="-65.9" font-family="Times,serif" font-size="14.00">d:v/7</text>
</g>
<!-- 2 -->
<g id="node3" class="node">
<title>2</title>
<ellipse fill="none" stroke="black" cx="209" cy="-26.1" rx="18" ry="18"/>
<text text-anchor="middle" x="209" y="-22.4" font-family="Times,serif" font-size="14.00">2</text>
</g>
<!-- 1&#45;&gt;2 -->
<g id="edge4" class="edge">
<title>1&#45;&gt;2</title>
<path fill="none" stroke="black" d="M130.42,-26.1C144.35,-26.1 164.14,-26.1 180.24,-26.1"/>
<polygon fill="black" stroke="black" points="180.69,-29.6 190.69,-26.1 180.69,-22.6 180.69,-29.6"/>
<text text-anchor="middle" x="160.5" y="-29.9" font-family="Times,serif" font-size="14.00">c:w/5</text>
</g>
<!-- 3 -->
<g id="node4" class="node">
<title>3</title>
<ellipse fill="none" stroke="black" cx="309.1" cy="-26.1" rx="22.18" ry="22.18"/>
<ellipse fill="none" stroke="black" cx="309.1" cy="-26.1" rx="26.2" ry="26.2"/>
<text text-anchor="middle" x="309.1" y="-22.4" font-family="Times,serif" font-size="14.00">3/2</text>
</g>
<!-- 2&#45;&gt;3 -->
<g id="edge5" class="edge">
<title>2&#45;&gt;3</title>
<path fill="none" stroke="black" d="M227.09,-26.1C239.58,-26.1 256.96,-26.1 272.42,-26.1"/>
<polygon fill="black" stroke="black" points="272.74,-29.6 282.74,-26.1 272.74,-22.6 272.74,-29.6"/>
<text text-anchor="middle" x="255" y="-29.9" font-family="Times,serif" font-size="14.00">f:u/9</text>
</g>
</g>
</svg>
