<?xml version="1.0" encoding="UTF-8" standalone="no"?>
<!DOCTYPE svg PUBLIC "-//W3C//DTD SVG 1.1//EN"
 "http://www.w3.org/Graphics/SVG/1.1/DTD/svg11.dtd">
<!-- Generated by graphviz version 7.0.4 (20221203.1631)
 -->
<!-- Title: FST Pages: 1 -->
<svg width="297pt" height="169pt"
 viewBox="0.00 0.00 297.39 168.70" xmlns="http://www.w3.org/2000/svg" xmlns:xlink="http://www.w3.org/1999/xlink">
<g id="graph0" class="graph" transform="scale(1 1) rotate(0) translate(4 164.7)">
<title>FST</title>
<polygon fill="white" stroke="none" points="-4,4 -4,-164.7 293.39,-164.7 293.39,4 -4,4"/>
<!-- 0 -->
<g id="node1" class="node">
<title>0</title>
<ellipse fill="none" stroke="black" stroke-width="2" cx="18" cy="-51.6" rx="18" ry="18"/>
<text text-anchor="middle" x="18" y="-47.9" font-family="Times,serif" font-size="14.00">0</text>
</g>
<!-- 1 -->
<g id="node2" class="node">
<title>1</title>
<ellipse fill="none" stroke="black" cx="136.6" cy="-101.6" rx="18" ry="18"/>
<text text-anchor="middle" x="136.6" y="-97.9" font-family="Times,serif" font-size="14.00">1</text>
</g>
<!-- 0&#45;&gt;1 -->
<g id="edge1" class="edge">
<title>0&#45;&gt;1</title>
<path fill="none" stroke="black" d="M34.72,-58.34C53.85,-66.54 86.41,-80.51 109.36,-90.35"/>
<polygon fill="black" stroke="black" points="107.79,-93.48 118.36,-94.2 110.55,-87.05 107.79,-93.48"/>
<text text-anchor="middle" x="70" y="-85.4" font-family="Times,serif" font-size="14.00">a:f/2</text>
</g>
<!-- 2 -->
<g id="node3" class="node">
<title>2</title>
<ellipse fill="none" stroke="black" cx="136.6" cy="-32.6" rx="28.68" ry="28.68"/>
<ellipse fill="none" stroke="black" cx="136.6" cy="-32.6" rx="32.7" ry="32.7"/>
<text text-anchor="middle" x="136.6" y="-28.9" font-family="Times,serif" font-size="14.00">2/4.5</text>
</g>
<!-- 0&#45;&gt;2 -->
<g id="edge2" class="edge">
<title>0&#45;&gt;2</title>
<path fill="none" stroke="black" d="M36.2,-48.79C51.14,-46.36 73.39,-42.73 93.06,-39.53"/>
<polygon fill="black" stroke="black" points="93.46,-43.01 102.77,-37.95 92.33,-36.1 93.46,-43.01"/>
<text text-anchor="middle" x="70" y="-50.4" font-family="Times,serif" font-size="14.00">a:h/5.5</text>
</g>
<!-- 3 -->
<g id="node4" class="node">
<title>3</title>
<ellipse fill="none" stroke="black" cx="263.29" cy="-101.6" rx="22.18" ry="22.18"/>
<ellipse fill="none" stroke="black" cx="263.29" cy="-101.6" rx="26.2" ry="26.2"/>
<text text-anchor="middle" x="263.29" y="-97.9" font-family="Times,serif" font-size="14.00">3/2</text>
</g>
<!-- 1&#45;&gt;3 -->
<g id="edge3" class="edge">
<title>1&#45;&gt;3</title>
<path fill="none" stroke="black" d="M154.94,-101.6C173.14,-101.6 202.31,-101.6 225.65,-101.6"/>
<polygon fill="black" stroke="black" points="225.39,-105.1 235.39,-101.6 225.39,-98.1 225.39,-105.1"/>
<text text-anchor="middle" x="203.19" y="-105.4" font-family="Times,serif" font-size="14.00">c:g/3.5</text>
</g>
<!-- 3&#45;&gt;3 -->
<g id="edge4" class="edge">
<title>3&#45;&gt;3</title>
<path fill="none" stroke="black" d="M252.2,-125.64C251.14,-136.39 254.84,-145.7 263.29,-145.7 268.44,-145.7 271.83,-142.24 273.45,-137.11"/>
<polygon fill="black" stroke="black" points="276.94,-137.4 274.26,-127.15 269.96,-136.83 276.94,-137.4"/>
<text text-anchor="middle" x="263.29" y="-149.5" font-family="Times,serif" font-size="14.00">c:j/2.5</text>
</g>
</g>
</svg>
