<?xml version="1.0" encoding="UTF-8" standalone="no"?>
<!DOCTYPE svg PUBLIC "-//W3C//DTD SVG 1.1//EN"
 "http://www.w3.org/Graphics/SVG/1.1/DTD/svg11.dtd">
<!-- Generated by graphviz version 6.0.1 (20220911.1526)
 -->
<!-- Title: FST Pages: 1 -->
<svg width="297pt" height="169pt"
 viewBox="0.00 0.00 297.39 168.70" xmlns="http://www.w3.org/2000/svg" xmlns:xlink="http://www.w3.org/1999/xlink">
<g id="graph0" class="graph" transform="scale(1 1) rotate(0) translate(4 164.7)">
<title>FST</title>
<polygon fill="white" stroke="none" points="-4,4 -4,-164.7 293.39,-164.7 293.39,4 -4,4"/>
<!-- 0 -->
<g id="node1" class="node">
<title>0</title>
<ellipse fill="none" stroke="black" stroke-width="2" cx="18" cy="-51.6" rx="18" ry="18"/>
<text text-anchor="middle" x="18" y="-47.9" font-family="Times,serif" font-size="14.00">0</text>
</g>
<!-- 1 -->
<g id="node2" class="node">
<title>1</title>
<ellipse fill="none" stroke="black" cx="136.6" cy="-101.6" rx="18" ry="18"/>
<text text-anchor="middle" x="136.6" y="-97.9" font-family="Times,serif" font-size="14.00">1</text>
</g>
<!-- 0&#45;&gt;1 -->
<g id="edge1" class="edge">
<title>0&#45;&gt;1</title>
<path fill="none" stroke="black" d="M34.72,-58.34C54.11,-66.65 87.3,-80.89 110.29,-90.75"/>
<polygon fill="black" stroke="black" points="109.18,-94.08 119.75,-94.8 111.94,-87.64 109.18,-94.08"/>
<text text-anchor="middle" x="70" y="-85.4" font-family="Times,serif" font-size="14.00">a:f/2</text>
</g>
<!-- 2 -->
<g id="node3" class="node">
<title>2</title>
<ellipse fill="none" stroke="black" cx="136.6" cy="-32.6" rx="28.68" ry="28.68"/>
<ellipse fill="none" stroke="black" cx="136.6" cy="-32.6" rx="32.7" ry="32.7"/>
<text text-anchor="middle" x="136.6" y="-28.9" font-family="Times,serif" font-size="14.00">2/4.5</text>
</g>
<!-- 0&#45;&gt;2 -->
<g id="edge2" class="edge">
<title>0&#45;&gt;2</title>
<path fill="none" stroke="black" d="M36.2,-48.79C51.42,-46.32 74.22,-42.6 94.16,-39.35"/>
<polygon fill="black" stroke="black" points="94.95,-42.77 104.26,-37.7 93.83,-35.86 94.95,-42.77"/>
<text text-anchor="middle" x="70" y="-50.4" font-family="Times,serif" font-size="14.00">a:h/5.5</text>
</g>
<!-- 3 -->
<g id="node4" class="node">
<title>3</title>
<ellipse fill="none" stroke="black" cx="263.29" cy="-101.6" rx="22.18" ry="22.18"/>
<ellipse fill="none" stroke="black" cx="263.29" cy="-101.6" rx="26.2" ry="26.2"/>
<text text-anchor="middle" x="263.29" y="-97.9" font-family="Times,serif" font-size="14.00">3/2</text>
</g>
<!-- 1&#45;&gt;3 -->
<g id="edge3" class="edge">
<title>1&#45;&gt;3</title>
<path fill="none" stroke="black" d="M154.67,-101.6C173.15,-101.6 203.14,-101.6 226.77,-101.6"/>
<polygon fill="black" stroke="black" points="226.79,-105.1 236.79,-101.6 226.79,-98.1 226.79,-105.1"/>
<text text-anchor="middle" x="203.19" y="-105.4" font-family="Times,serif" font-size="14.00">c:g/3.5</text>
</g>
<!-- 3&#45;&gt;3 -->
<g id="edge4" class="edge">
<title>3&#45;&gt;3</title>
<path fill="none" stroke="black" d="M252.2,-125.64C251.14,-136.39 254.84,-145.7 263.29,-145.7 268.84,-145.7 272.34,-141.69 273.79,-135.9"/>
<polygon fill="black" stroke="black" points="277.3,-135.82 274.39,-125.64 270.31,-135.42 277.3,-135.82"/>
<text text-anchor="middle" x="263.29" y="-149.5" font-family="Times,serif" font-size="14.00">c:j/2.5</text>
</g>
</g>
</svg>
