<?xml version="1.0" encoding="UTF-8" standalone="no"?>
<!DOCTYPE svg PUBLIC "-//W3C//DTD SVG 1.1//EN"
 "http://www.w3.org/Graphics/SVG/1.1/DTD/svg11.dtd">
<!-- Generated by graphviz version 2.43.0 (0)
 -->
<!-- Title: FST Pages: 1 -->
<svg width="338pt" height="183pt"
 viewBox="0.00 0.00 337.59 182.79" xmlns="http://www.w3.org/2000/svg" xmlns:xlink="http://www.w3.org/1999/xlink">
<g id="graph0" class="graph" transform="scale(1 1) rotate(0) translate(4 178.79)">
<title>FST</title>
<polygon fill="white" stroke="transparent" points="-4,4 -4,-178.79 333.59,-178.79 333.59,4 -4,4"/>
<!-- 0 -->
<g id="node1" class="node">
<title>0</title>
<ellipse fill="none" stroke="black" stroke-width="2" cx="18" cy="-57.45" rx="18" ry="18"/>
<text text-anchor="middle" x="18" y="-53.75" font-family="Times,serif" font-size="14.00">0</text>
</g>
<!-- 1 -->
<g id="node2" class="node">
<title>1</title>
<ellipse fill="none" stroke="black" cx="153.45" cy="-112.45" rx="18" ry="18"/>
<text text-anchor="middle" x="153.45" y="-108.75" font-family="Times,serif" font-size="14.00">1</text>
</g>
<!-- 0&#45;&gt;1 -->
<g id="edge1" class="edge">
<title>0&#45;&gt;1</title>
<path fill="none" stroke="black" d="M34.54,-64.97C39.74,-67.42 45.59,-70.12 51,-72.45 76.43,-83.41 105.92,-94.9 126.53,-102.74"/>
<polygon fill="black" stroke="black" points="125.56,-106.12 136.15,-106.38 128.04,-99.57 125.56,-106.12"/>
<text text-anchor="middle" x="75.5" y="-96.25" font-family="Times,serif" font-size="14.00">a:f/2</text>
</g>
<!-- 2 -->
<g id="node3" class="node">
<title>2</title>
<ellipse fill="none" stroke="black" cx="153.45" cy="-38.45" rx="34.4" ry="34.4"/>
<ellipse fill="none" stroke="black" cx="153.45" cy="-38.45" rx="38.39" ry="38.39"/>
<text text-anchor="middle" x="153.45" y="-34.75" font-family="Times,serif" font-size="14.00">2/4.5</text>
</g>
<!-- 0&#45;&gt;2 -->
<g id="edge2" class="edge">
<title>0&#45;&gt;2</title>
<path fill="none" stroke="black" d="M35.9,-55.04C53.27,-52.57 81.1,-48.61 105.21,-45.17"/>
<polygon fill="black" stroke="black" points="105.86,-48.61 115.27,-43.74 104.88,-41.68 105.86,-48.61"/>
<text text-anchor="middle" x="75.5" y="-57.25" font-family="Times,serif" font-size="14.00">a:h/5.5</text>
</g>
<!-- 3 -->
<g id="node4" class="node">
<title>3</title>
<ellipse fill="none" stroke="black" cx="300.24" cy="-112.45" rx="25.22" ry="25.22"/>
<ellipse fill="none" stroke="black" cx="300.24" cy="-112.45" rx="29.2" ry="29.2"/>
<text text-anchor="middle" x="300.24" y="-108.75" font-family="Times,serif" font-size="14.00">3/2</text>
</g>
<!-- 1&#45;&gt;3 -->
<g id="edge3" class="edge">
<title>1&#45;&gt;3</title>
<path fill="none" stroke="black" d="M171.63,-112.45C193.44,-112.45 231.73,-112.45 260.69,-112.45"/>
<polygon fill="black" stroke="black" points="260.89,-115.95 270.89,-112.45 260.89,-108.95 260.89,-115.95"/>
<text text-anchor="middle" x="231.39" y="-116.25" font-family="Times,serif" font-size="14.00">c:g/3.5</text>
</g>
<!-- 3&#45;&gt;3 -->
<g id="edge4" class="edge">
<title>3&#45;&gt;3</title>
<path fill="none" stroke="black" d="M287.6,-139.22C286.73,-150.35 290.94,-159.79 300.24,-159.79 306.49,-159.79 310.44,-155.53 312.1,-149.36"/>
<polygon fill="black" stroke="black" points="315.6,-149.46 312.88,-139.22 308.62,-148.92 315.6,-149.46"/>
<text text-anchor="middle" x="300.24" y="-163.59" font-family="Times,serif" font-size="14.00">c:j/2.5</text>
</g>
</g>
</svg>
