<?xml version="1.0" encoding="UTF-8" standalone="no"?>
<!DOCTYPE svg PUBLIC "-//W3C//DTD SVG 1.1//EN"
 "http://www.w3.org/Graphics/SVG/1.1/DTD/svg11.dtd">
<!-- Generated by graphviz version 8.1.0 (20230707.0739)
 -->
<!-- Title: FST Pages: 1 -->
<svg width="300pt" height="173pt"
 viewBox="0.00 0.00 300.09 173.05" xmlns="http://www.w3.org/2000/svg" xmlns:xlink="http://www.w3.org/1999/xlink">
<g id="graph0" class="graph" transform="scale(1 1) rotate(0) translate(4 169.05)">
<title>FST</title>
<polygon fill="white" stroke="none" points="-4,4 -4,-169.05 296.09,-169.05 296.09,4 -4,4"/>
<!-- 0 -->
<g id="node1" class="node">
<title>0</title>
<ellipse fill="none" stroke="black" stroke-width="2" cx="18" cy="-53.86" rx="18" ry="18"/>
<text text-anchor="middle" x="18" y="-48.81" font-family="Times,serif" font-size="14.00">0</text>
</g>
<!-- 1 -->
<g id="node2" class="node">
<title>1</title>
<ellipse fill="none" stroke="black" cx="137.36" cy="-103.86" rx="18" ry="18"/>
<text text-anchor="middle" x="137.36" y="-98.81" font-family="Times,serif" font-size="14.00">1</text>
</g>
<!-- 0&#45;&gt;1 -->
<g id="edge1" class="edge">
<title>0&#45;&gt;1</title>
<path fill="none" stroke="black" d="M34.83,-60.6C54.25,-68.87 87.45,-83.02 110.57,-92.87"/>
<polygon fill="black" stroke="black" points="108.83,-96.36 119.4,-97.06 111.58,-89.92 108.83,-96.36"/>
<text text-anchor="middle" x="69.75" y="-87.06" font-family="Times,serif" font-size="14.00">a:f/2</text>
</g>
<!-- 2 -->
<g id="node3" class="node">
<title>2</title>
<ellipse fill="none" stroke="black" cx="137.36" cy="-33.86" rx="29.86" ry="29.86"/>
<ellipse fill="none" stroke="black" cx="137.36" cy="-33.86" rx="33.86" ry="33.86"/>
<text text-anchor="middle" x="137.36" y="-28.81" font-family="Times,serif" font-size="14.00">2/4.5</text>
</g>
<!-- 0&#45;&gt;2 -->
<g id="edge2" class="edge">
<title>0&#45;&gt;2</title>
<path fill="none" stroke="black" d="M36.06,-50.95C50.98,-48.41 73.27,-44.61 93.06,-41.23"/>
<polygon fill="black" stroke="black" points="93.46,-44.55 102.73,-39.42 92.29,-37.64 93.46,-44.55"/>
<text text-anchor="middle" x="69.75" y="-52.06" font-family="Times,serif" font-size="14.00">a:h/5.5</text>
</g>
<!-- 3 -->
<g id="node4" class="node">
<title>3</title>
<ellipse fill="none" stroke="black" cx="265.4" cy="-103.86" rx="22.69" ry="22.69"/>
<ellipse fill="none" stroke="black" cx="265.4" cy="-103.86" rx="26.69" ry="26.69"/>
<text text-anchor="middle" x="265.4" y="-98.81" font-family="Times,serif" font-size="14.00">3/2</text>
</g>
<!-- 1&#45;&gt;3 -->
<g id="edge3" class="edge">
<title>1&#45;&gt;3</title>
<path fill="none" stroke="black" d="M155.62,-103.86C174.13,-103.86 204.06,-103.86 227.85,-103.86"/>
<polygon fill="black" stroke="black" points="227.62,-107.36 237.62,-103.86 227.62,-100.36 227.62,-107.36"/>
<text text-anchor="middle" x="204.96" y="-107.06" font-family="Times,serif" font-size="14.00">c:g/3.5</text>
</g>
<!-- 3&#45;&gt;3 -->
<g id="edge4" class="edge">
<title>3&#45;&gt;3</title>
<path fill="none" stroke="black" d="M254.25,-128.22C253.18,-139.12 256.9,-148.55 265.4,-148.55 270.85,-148.55 274.33,-144.68 275.85,-139.03"/>
<polygon fill="black" stroke="black" points="279.4,-139.43 276.56,-129.22 272.41,-138.97 279.4,-139.43"/>
<text text-anchor="middle" x="265.4" y="-151.75" font-family="Times,serif" font-size="14.00">c:j/2.5</text>
</g>
</g>
</svg>
