<?xml version="1.0" encoding="UTF-8" standalone="no"?>
<!DOCTYPE svg PUBLIC "-//W3C//DTD SVG 1.1//EN"
 "http://www.w3.org/Graphics/SVG/1.1/DTD/svg11.dtd">
<!-- Generated by graphviz version 2.43.0 (0)
 -->
<!-- Title: FST Pages: 1 -->
<svg width="612pt" height="45pt"
 viewBox="0.00 0.00 612.00 45.01" xmlns="http://www.w3.org/2000/svg" xmlns:xlink="http://www.w3.org/1999/xlink">
<g id="graph0" class="graph" transform="scale(0.87 0.87) rotate(0) translate(4 48)">
<title>FST</title>
<polygon fill="white" stroke="transparent" points="-4,4 -4,-48 703,-48 703,4 -4,4"/>
<!-- 0 -->
<g id="node1" class="node">
<title>0</title>
<ellipse fill="none" stroke="black" stroke-width="2" cx="18" cy="-22" rx="18" ry="18"/>
<text text-anchor="middle" x="18" y="-18.3" font-family="Times,serif" font-size="14.00">0</text>
</g>
<!-- 1 -->
<g id="node2" class="node">
<title>1</title>
<ellipse fill="none" stroke="black" cx="133" cy="-22" rx="18" ry="18"/>
<text text-anchor="middle" x="133" y="-18.3" font-family="Times,serif" font-size="14.00">1</text>
</g>
<!-- 0&#45;&gt;1 -->
<g id="edge1" class="edge">
<title>0&#45;&gt;1</title>
<path fill="none" stroke="black" d="M36.16,-22C54.33,-22 83.28,-22 104.61,-22"/>
<polygon fill="black" stroke="black" points="104.68,-25.5 114.68,-22 104.68,-18.5 104.68,-25.5"/>
<text text-anchor="middle" x="75.5" y="-25.8" font-family="Times,serif" font-size="14.00">e:e/0.3</text>
</g>
<!-- 2 -->
<g id="node3" class="node">
<title>2</title>
<ellipse fill="none" stroke="black" cx="234" cy="-22" rx="18" ry="18"/>
<text text-anchor="middle" x="234" y="-18.3" font-family="Times,serif" font-size="14.00">2</text>
</g>
<!-- 1&#45;&gt;2 -->
<g id="edge2" class="edge">
<title>1&#45;&gt;2</title>
<path fill="none" stroke="black" d="M151.24,-22C166.29,-22 188.38,-22 205.81,-22"/>
<polygon fill="black" stroke="black" points="205.95,-25.5 215.95,-22 205.95,-18.5 205.95,-25.5"/>
<text text-anchor="middle" x="183.5" y="-25.8" font-family="Times,serif" font-size="14.00">a:a/1</text>
</g>
<!-- 3 -->
<g id="node4" class="node">
<title>3</title>
<ellipse fill="none" stroke="black" cx="352" cy="-22" rx="18" ry="18"/>
<text text-anchor="middle" x="352" y="-18.3" font-family="Times,serif" font-size="14.00">3</text>
</g>
<!-- 2&#45;&gt;3 -->
<g id="edge3" class="edge">
<title>2&#45;&gt;3</title>
<path fill="none" stroke="black" d="M252.12,-22C270.96,-22 301.53,-22 323.7,-22"/>
<polygon fill="black" stroke="black" points="323.81,-25.5 333.81,-22 323.81,-18.5 323.81,-25.5"/>
<text text-anchor="middle" x="293" y="-25.8" font-family="Times,serif" font-size="14.00">f:f/0.03</text>
</g>
<!-- 4 -->
<g id="node5" class="node">
<title>4</title>
<ellipse fill="none" stroke="black" cx="548" cy="-22" rx="18" ry="18"/>
<text text-anchor="middle" x="548" y="-18.3" font-family="Times,serif" font-size="14.00">4</text>
</g>
<!-- 3&#45;&gt;4 -->
<g id="edge4" class="edge">
<title>3&#45;&gt;4</title>
<path fill="none" stroke="black" d="M370.22,-22C403.94,-22 478.94,-22 519.57,-22"/>
<polygon fill="black" stroke="black" points="519.82,-25.5 529.82,-22 519.82,-18.5 519.82,-25.5"/>
<text text-anchor="middle" x="450" y="-25.8" font-family="Times,serif" font-size="14.00">&lt;eps&gt;:&lt;eps&gt;/0.3</text>
</g>
<!-- 5 -->
<g id="node6" class="node">
<title>5</title>
<ellipse fill="none" stroke="black" cx="677" cy="-22" rx="18" ry="18"/>
<ellipse fill="none" stroke="black" cx="677" cy="-22" rx="22" ry="22"/>
<text text-anchor="middle" x="677" y="-18.3" font-family="Times,serif" font-size="14.00">5</text>
</g>
<!-- 4&#45;&gt;5 -->
<g id="edge5" class="edge">
<title>4&#45;&gt;5</title>
<path fill="none" stroke="black" d="M566.13,-22C586.27,-22 620.1,-22 644.91,-22"/>
<polygon fill="black" stroke="black" points="644.93,-25.5 654.93,-22 644.93,-18.5 644.93,-25.5"/>
<text text-anchor="middle" x="610.5" y="-25.8" font-family="Times,serif" font-size="14.00">h:h/0.12</text>
</g>
</g>
</svg>
