<?xml version="1.0" encoding="UTF-8" standalone="no"?>
<!DOCTYPE svg PUBLIC "-//W3C//DTD SVG 1.1//EN"
 "http://www.w3.org/Graphics/SVG/1.1/DTD/svg11.dtd">
<!-- Generated by graphviz version 8.1.0 (20230707.0739)
 -->
<!-- Title: FST Pages: 1 -->
<svg width="612pt" height="51pt"
 viewBox="0.00 0.00 612.00 50.98" xmlns="http://www.w3.org/2000/svg" xmlns:xlink="http://www.w3.org/1999/xlink">
<g id="graph0" class="graph" transform="scale(0.980376 0.980376) rotate(0) translate(4 48)">
<title>FST</title>
<polygon fill="white" stroke="none" points="-4,4 -4,-48 620.25,-48 620.25,4 -4,4"/>
<!-- 0 -->
<g id="node1" class="node">
<title>0</title>
<ellipse fill="none" stroke="black" stroke-width="2" cx="18" cy="-22" rx="18" ry="18"/>
<text text-anchor="middle" x="18" y="-16.95" font-family="Times,serif" font-size="14.00">0</text>
</g>
<!-- 1 -->
<g id="node2" class="node">
<title>1</title>
<ellipse fill="none" stroke="black" cx="120.75" cy="-22" rx="18" ry="18"/>
<text text-anchor="middle" x="120.75" y="-16.95" font-family="Times,serif" font-size="14.00">1</text>
</g>
<!-- 0&#45;&gt;1 -->
<g id="edge1" class="edge">
<title>0&#45;&gt;1</title>
<path fill="none" stroke="black" d="M36.09,-22C51.29,-22 73.8,-22 91.65,-22"/>
<polygon fill="black" stroke="black" points="91.58,-25.5 101.58,-22 91.58,-18.5 91.58,-25.5"/>
<text text-anchor="middle" x="69.38" y="-25.2" font-family="Times,serif" font-size="14.00">e:e/0.3</text>
</g>
<!-- 2 -->
<g id="node3" class="node">
<title>2</title>
<ellipse fill="none" stroke="black" cx="213" cy="-22" rx="18" ry="18"/>
<text text-anchor="middle" x="213" y="-16.95" font-family="Times,serif" font-size="14.00">2</text>
</g>
<!-- 1&#45;&gt;2 -->
<g id="edge2" class="edge">
<title>1&#45;&gt;2</title>
<path fill="none" stroke="black" d="M139.15,-22C151.76,-22 169.09,-22 183.68,-22"/>
<polygon fill="black" stroke="black" points="183.65,-25.5 193.65,-22 183.65,-18.5 183.65,-25.5"/>
<text text-anchor="middle" x="166.88" y="-25.2" font-family="Times,serif" font-size="14.00">a:a/1</text>
</g>
<!-- 3 -->
<g id="node4" class="node">
<title>3</title>
<ellipse fill="none" stroke="black" cx="319.5" cy="-22" rx="18" ry="18"/>
<text text-anchor="middle" x="319.5" y="-16.95" font-family="Times,serif" font-size="14.00">3</text>
</g>
<!-- 2&#45;&gt;3 -->
<g id="edge3" class="edge">
<title>2&#45;&gt;3</title>
<path fill="none" stroke="black" d="M231.26,-22C247.29,-22 271.46,-22 290.3,-22"/>
<polygon fill="black" stroke="black" points="290.22,-25.5 300.22,-22 290.22,-18.5 290.22,-25.5"/>
<text text-anchor="middle" x="266.25" y="-25.2" font-family="Times,serif" font-size="14.00">f:f/0.03</text>
</g>
<!-- 4 -->
<g id="node5" class="node">
<title>4</title>
<ellipse fill="none" stroke="black" cx="479.25" cy="-22" rx="18" ry="18"/>
<text text-anchor="middle" x="479.25" y="-16.95" font-family="Times,serif" font-size="14.00">4</text>
</g>
<!-- 3&#45;&gt;4 -->
<g id="edge4" class="edge">
<title>3&#45;&gt;4</title>
<path fill="none" stroke="black" d="M337.98,-22C365.13,-22 417.68,-22 450.18,-22"/>
<polygon fill="black" stroke="black" points="450.17,-25.5 460.17,-22 450.17,-18.5 450.17,-25.5"/>
<text text-anchor="middle" x="399.38" y="-25.2" font-family="Times,serif" font-size="14.00">&lt;eps&gt;:&lt;eps&gt;/0.3</text>
</g>
<!-- 5 -->
<g id="node6" class="node">
<title>5</title>
<ellipse fill="none" stroke="black" cx="594.25" cy="-22" rx="18" ry="18"/>
<ellipse fill="none" stroke="black" cx="594.25" cy="-22" rx="22" ry="22"/>
<text text-anchor="middle" x="594.25" y="-16.95" font-family="Times,serif" font-size="14.00">5</text>
</g>
<!-- 4&#45;&gt;5 -->
<g id="edge5" class="edge">
<title>4&#45;&gt;5</title>
<path fill="none" stroke="black" d="M497.41,-22C514.29,-22 540.47,-22 561.2,-22"/>
<polygon fill="black" stroke="black" points="561.07,-25.5 571.07,-22 561.07,-18.5 561.07,-25.5"/>
<text text-anchor="middle" x="534.75" y="-25.2" font-family="Times,serif" font-size="14.00">h:h/0.12</text>
</g>
</g>
</svg>
