<?xml version="1.0" encoding="UTF-8" standalone="no"?>
<!DOCTYPE svg PUBLIC "-//W3C//DTD SVG 1.1//EN"
 "http://www.w3.org/Graphics/SVG/1.1/DTD/svg11.dtd">
<!-- Generated by graphviz version 2.43.0 (0)
 -->
<!-- Title: FST Pages: 1 -->
<svg width="484pt" height="148pt"
 viewBox="0.00 0.00 483.50 148.00" xmlns="http://www.w3.org/2000/svg" xmlns:xlink="http://www.w3.org/1999/xlink">
<g id="graph0" class="graph" transform="scale(1 1) rotate(0) translate(4 144)">
<title>FST</title>
<polygon fill="white" stroke="transparent" points="-4,4 -4,-144 479.5,-144 479.5,4 -4,4"/>
<!-- 0 -->
<g id="node1" class="node">
<title>0</title>
<ellipse fill="none" stroke="black" stroke-width="2" cx="105.5" cy="-18" rx="18" ry="18"/>
<text text-anchor="middle" x="105.5" y="-14.3" font-family="Times,serif" font-size="14.00">0</text>
</g>
<!-- 0&#45;&gt;0 -->
<g id="edge2" class="edge">
<title>0&#45;&gt;0</title>
<path fill="none" stroke="black" d="M101.9,-35.78C101.29,-45.31 102.49,-54 105.5,-54 107.33,-54 108.49,-50.77 108.98,-46.1"/>
<polygon fill="black" stroke="black" points="112.49,-45.82 109.1,-35.78 105.49,-45.74 112.49,-45.82"/>
<text text-anchor="middle" x="105.5" y="-57.8" font-family="Times,serif" font-size="14.00">#0:#0</text>
</g>
<!-- 0&#45;&gt;0 -->
<g id="edge3" class="edge">
<title>0&#45;&gt;0</title>
<path fill="none" stroke="black" d="M99.65,-35.14C96.21,-52.58 98.16,-72 105.5,-72 111.41,-72 113.83,-59.43 112.75,-45.43"/>
<polygon fill="black" stroke="black" points="116.17,-44.58 111.35,-35.14 109.23,-45.52 116.17,-44.58"/>
<text text-anchor="middle" x="105.5" y="-75.8" font-family="Times,serif" font-size="14.00">#1:#1</text>
</g>
<!-- 1 -->
<g id="node2" class="node">
<title>1</title>
<ellipse fill="none" stroke="black" cx="197.5" cy="-52" rx="18" ry="18"/>
<ellipse fill="none" stroke="black" cx="197.5" cy="-52" rx="22" ry="22"/>
<text text-anchor="middle" x="197.5" y="-48.3" font-family="Times,serif" font-size="14.00">1</text>
</g>
<!-- 0&#45;&gt;1 -->
<g id="edge1" class="edge">
<title>0&#45;&gt;1</title>
<path fill="none" stroke="black" d="M122.59,-24.08C134.91,-28.73 152.26,-35.29 167.04,-40.87"/>
<polygon fill="black" stroke="black" points="166.19,-44.29 176.78,-44.55 168.66,-37.74 166.19,-44.29"/>
<text text-anchor="middle" x="149.5" y="-41.8" font-family="Times,serif" font-size="14.00">a:p</text>
</g>
<!-- 1&#45;&gt;1 -->
<g id="edge5" class="edge">
<title>1&#45;&gt;1</title>
<path fill="none" stroke="black" d="M193.07,-73.81C192.65,-83.56 194.12,-92 197.5,-92 199.61,-92 200.98,-88.7 201.6,-83.85"/>
<polygon fill="black" stroke="black" points="205.1,-83.92 201.93,-73.81 198.11,-83.69 205.1,-83.92"/>
<text text-anchor="middle" x="197.5" y="-95.8" font-family="Times,serif" font-size="14.00">#0:#0</text>
</g>
<!-- 1&#45;&gt;1 -->
<g id="edge6" class="edge">
<title>1&#45;&gt;1</title>
<path fill="none" stroke="black" d="M189.99,-72.81C186.56,-90.88 189.06,-110 197.5,-110 204.36,-110 207.29,-97.38 206.32,-82.96"/>
<polygon fill="black" stroke="black" points="209.76,-82.29 205.01,-72.81 202.82,-83.18 209.76,-82.29"/>
<text text-anchor="middle" x="197.5" y="-113.8" font-family="Times,serif" font-size="14.00">#1:#1</text>
</g>
<!-- 2 -->
<g id="node3" class="node">
<title>2</title>
<ellipse fill="none" stroke="black" cx="290.5" cy="-50" rx="18" ry="18"/>
<text text-anchor="middle" x="290.5" y="-46.3" font-family="Times,serif" font-size="14.00">2</text>
</g>
<!-- 1&#45;&gt;2 -->
<g id="edge4" class="edge">
<title>1&#45;&gt;2</title>
<path fill="none" stroke="black" d="M219.61,-51.54C232.28,-51.26 248.55,-50.9 262.2,-50.6"/>
<polygon fill="black" stroke="black" points="262.54,-54.09 272.46,-50.37 262.39,-47.1 262.54,-54.09"/>
<text text-anchor="middle" x="246" y="-54.8" font-family="Times,serif" font-size="14.00">b:q</text>
</g>
<!-- 2&#45;&gt;2 -->
<g id="edge8" class="edge">
<title>2&#45;&gt;2</title>
<path fill="none" stroke="black" d="M286.72,-67.78C286.08,-77.31 287.34,-86 290.5,-86 292.42,-86 293.64,-82.77 294.16,-78.1"/>
<polygon fill="black" stroke="black" points="297.66,-77.82 294.28,-67.78 290.66,-77.74 297.66,-77.82"/>
<text text-anchor="middle" x="290.5" y="-89.8" font-family="Times,serif" font-size="14.00">#0:#0</text>
</g>
<!-- 2&#45;&gt;2 -->
<g id="edge9" class="edge">
<title>2&#45;&gt;2</title>
<path fill="none" stroke="black" d="M284.36,-67.14C280.74,-84.58 282.79,-104 290.5,-104 296.7,-104 299.24,-91.43 298.11,-77.43"/>
<polygon fill="black" stroke="black" points="301.52,-76.55 296.64,-67.14 294.59,-77.54 301.52,-76.55"/>
<text text-anchor="middle" x="290.5" y="-107.8" font-family="Times,serif" font-size="14.00">#1:#1</text>
</g>
<!-- 3 -->
<g id="node4" class="node">
<title>3</title>
<ellipse fill="none" stroke="black" cx="375.5" cy="-18" rx="18" ry="18"/>
<text text-anchor="middle" x="375.5" y="-14.3" font-family="Times,serif" font-size="14.00">3</text>
</g>
<!-- 2&#45;&gt;3 -->
<g id="edge7" class="edge">
<title>2&#45;&gt;3</title>
<path fill="none" stroke="black" d="M307.5,-43.83C319.22,-39.31 335.35,-33.09 348.85,-27.89"/>
<polygon fill="black" stroke="black" points="350.47,-31.01 358.55,-24.15 347.96,-24.48 350.47,-31.01"/>
<text text-anchor="middle" x="333" y="-39.8" font-family="Times,serif" font-size="14.00">c:r</text>
</g>
<!-- 3&#45;&gt;0 -->
<g id="edge11" class="edge">
<title>3&#45;&gt;0</title>
<path fill="none" stroke="black" d="M357.47,-18C312.25,-18 188.88,-18 133.75,-18"/>
<polygon fill="black" stroke="black" points="133.67,-14.5 123.67,-18 133.67,-21.5 133.67,-14.5"/>
<text text-anchor="middle" x="246" y="-21.8" font-family="Times,serif" font-size="14.00">d:s</text>
</g>
<!-- 3&#45;&gt;3 -->
<g id="edge12" class="edge">
<title>3&#45;&gt;3</title>
<path fill="none" stroke="black" d="M371.9,-35.78C371.29,-45.31 372.49,-54 375.5,-54 377.33,-54 378.49,-50.77 378.98,-46.1"/>
<polygon fill="black" stroke="black" points="382.49,-45.82 379.1,-35.78 375.49,-45.74 382.49,-45.82"/>
<text text-anchor="middle" x="375.5" y="-57.8" font-family="Times,serif" font-size="14.00">#0:#0</text>
</g>
<!-- 3&#45;&gt;3 -->
<g id="edge13" class="edge">
<title>3&#45;&gt;3</title>
<path fill="none" stroke="black" d="M369.65,-35.14C366.21,-52.58 368.16,-72 375.5,-72 381.41,-72 383.83,-59.43 382.75,-45.43"/>
<polygon fill="black" stroke="black" points="386.17,-44.58 381.35,-35.14 379.23,-45.52 386.17,-44.58"/>
<text text-anchor="middle" x="375.5" y="-75.8" font-family="Times,serif" font-size="14.00">#1:#1</text>
</g>
<!-- 4 -->
<g id="node5" class="node">
<title>4</title>
<ellipse fill="none" stroke="black" cx="457.5" cy="-18" rx="18" ry="18"/>
<text text-anchor="middle" x="457.5" y="-14.3" font-family="Times,serif" font-size="14.00">4</text>
</g>
<!-- 3&#45;&gt;4 -->
<g id="edge10" class="edge">
<title>3&#45;&gt;4</title>
<path fill="none" stroke="black" d="M393.86,-18C404.2,-18 417.56,-18 429.28,-18"/>
<polygon fill="black" stroke="black" points="429.45,-21.5 439.45,-18 429.45,-14.5 429.45,-21.5"/>
<text text-anchor="middle" x="416.5" y="-21.8" font-family="Times,serif" font-size="14.00">f:t</text>
</g>
<!-- 5 -->
<g id="node6" class="node">
<title>5</title>
<ellipse fill="none" stroke="black" cx="23.5" cy="-18" rx="18" ry="18"/>
<text text-anchor="middle" x="23.5" y="-14.3" font-family="Times,serif" font-size="14.00">5</text>
</g>
<!-- 5&#45;&gt;0 -->
<g id="edge14" class="edge">
<title>5&#45;&gt;0</title>
<path fill="none" stroke="black" d="M41.86,-18C52.2,-18 65.56,-18 77.28,-18"/>
<polygon fill="black" stroke="black" points="77.45,-21.5 87.45,-18 77.45,-14.5 77.45,-21.5"/>
<text text-anchor="middle" x="64.5" y="-21.8" font-family="Times,serif" font-size="14.00">f:t</text>
</g>
<!-- 5&#45;&gt;5 -->
<g id="edge15" class="edge">
<title>5&#45;&gt;5</title>
<path fill="none" stroke="black" d="M19.9,-35.78C19.29,-45.31 20.49,-54 23.5,-54 25.33,-54 26.49,-50.77 26.98,-46.1"/>
<polygon fill="black" stroke="black" points="30.49,-45.82 27.1,-35.78 23.49,-45.74 30.49,-45.82"/>
<text text-anchor="middle" x="23.5" y="-57.8" font-family="Times,serif" font-size="14.00">#0:#0</text>
</g>
<!-- 5&#45;&gt;5 -->
<g id="edge16" class="edge">
<title>5&#45;&gt;5</title>
<path fill="none" stroke="black" d="M17.65,-35.14C14.21,-52.58 16.16,-72 23.5,-72 29.41,-72 31.83,-59.43 30.75,-45.43"/>
<polygon fill="black" stroke="black" points="34.17,-44.58 29.35,-35.14 27.23,-45.52 34.17,-44.58"/>
<text text-anchor="middle" x="23.5" y="-75.8" font-family="Times,serif" font-size="14.00">#1:#1</text>
</g>
</g>
</svg>
