<?xml version="1.0" encoding="UTF-8" standalone="no"?>
<!DOCTYPE svg PUBLIC "-//W3C//DTD SVG 1.1//EN"
 "http://www.w3.org/Graphics/SVG/1.1/DTD/svg11.dtd">
<!-- Generated by graphviz version 2.43.0 (0)
 -->
<!-- Title: FST Pages: 1 -->
<svg width="314pt" height="82pt"
 viewBox="0.00 0.00 314.00 82.00" xmlns="http://www.w3.org/2000/svg" xmlns:xlink="http://www.w3.org/1999/xlink">
<g id="graph0" class="graph" transform="scale(1 1) rotate(0) translate(4 78)">
<title>FST</title>
<polygon fill="white" stroke="transparent" points="-4,4 -4,-78 310,-78 310,4 -4,4"/>
<!-- 0 -->
<g id="node1" class="node">
<title>0</title>
<ellipse fill="none" stroke="black" stroke-width="2" cx="18" cy="-18" rx="18" ry="18"/>
<text text-anchor="middle" x="18" y="-14.3" font-family="Times,serif" font-size="14.00">0</text>
</g>
<!-- 1 -->
<g id="node2" class="node">
<title>1</title>
<ellipse fill="none" stroke="black" cx="110" cy="-52" rx="18" ry="18"/>
<ellipse fill="none" stroke="black" cx="110" cy="-52" rx="22" ry="22"/>
<text text-anchor="middle" x="110" y="-48.3" font-family="Times,serif" font-size="14.00">1</text>
</g>
<!-- 0&#45;&gt;1 -->
<g id="edge1" class="edge">
<title>0&#45;&gt;1</title>
<path fill="none" stroke="black" d="M35.09,-24.08C47.41,-28.73 64.76,-35.29 79.54,-40.87"/>
<polygon fill="black" stroke="black" points="78.69,-44.29 89.28,-44.55 81.16,-37.74 78.69,-44.29"/>
<text text-anchor="middle" x="62" y="-41.8" font-family="Times,serif" font-size="14.00">a:p</text>
</g>
<!-- 2 -->
<g id="node3" class="node">
<title>2</title>
<ellipse fill="none" stroke="black" cx="203" cy="-50" rx="18" ry="18"/>
<text text-anchor="middle" x="203" y="-46.3" font-family="Times,serif" font-size="14.00">2</text>
</g>
<!-- 1&#45;&gt;2 -->
<g id="edge2" class="edge">
<title>1&#45;&gt;2</title>
<path fill="none" stroke="black" d="M132.11,-51.54C144.78,-51.26 161.05,-50.9 174.7,-50.6"/>
<polygon fill="black" stroke="black" points="175.04,-54.09 184.96,-50.37 174.89,-47.1 175.04,-54.09"/>
<text text-anchor="middle" x="158.5" y="-54.8" font-family="Times,serif" font-size="14.00">b:q</text>
</g>
<!-- 3 -->
<g id="node4" class="node">
<title>3</title>
<ellipse fill="none" stroke="black" cx="288" cy="-18" rx="18" ry="18"/>
<text text-anchor="middle" x="288" y="-14.3" font-family="Times,serif" font-size="14.00">3</text>
</g>
<!-- 2&#45;&gt;3 -->
<g id="edge3" class="edge">
<title>2&#45;&gt;3</title>
<path fill="none" stroke="black" d="M220,-43.83C231.72,-39.31 247.85,-33.09 261.35,-27.89"/>
<polygon fill="black" stroke="black" points="262.97,-31.01 271.05,-24.15 260.46,-24.48 262.97,-31.01"/>
<text text-anchor="middle" x="245.5" y="-39.8" font-family="Times,serif" font-size="14.00">c:r</text>
</g>
<!-- 3&#45;&gt;0 -->
<g id="edge4" class="edge">
<title>3&#45;&gt;0</title>
<path fill="none" stroke="black" d="M269.97,-18C224.75,-18 101.38,-18 46.25,-18"/>
<polygon fill="black" stroke="black" points="46.17,-14.5 36.17,-18 46.17,-21.5 46.17,-14.5"/>
<text text-anchor="middle" x="158.5" y="-21.8" font-family="Times,serif" font-size="14.00">d:s</text>
</g>
</g>
</svg>
