<?xml version="1.0" encoding="UTF-8" standalone="no"?>
<!DOCTYPE svg PUBLIC "-//W3C//DTD SVG 1.1//EN"
 "http://www.w3.org/Graphics/SVG/1.1/DTD/svg11.dtd">
<!-- Generated by graphviz version 8.1.0 (20230707.0739)
 -->
<!-- Title: FST Pages: 1 -->
<svg width="298pt" height="82pt"
 viewBox="0.00 0.00 298.00 82.00" xmlns="http://www.w3.org/2000/svg" xmlns:xlink="http://www.w3.org/1999/xlink">
<g id="graph0" class="graph" transform="scale(1 1) rotate(0) translate(4 78)">
<title>FST</title>
<polygon fill="white" stroke="none" points="-4,4 -4,-78 294,-78 294,4 -4,4"/>
<!-- 0 -->
<g id="node1" class="node">
<title>0</title>
<ellipse fill="none" stroke="black" stroke-width="2" cx="18" cy="-18" rx="18" ry="18"/>
<text text-anchor="middle" x="18" y="-12.95" font-family="Times,serif" font-size="14.00">0</text>
</g>
<!-- 1 -->
<g id="node2" class="node">
<title>1</title>
<ellipse fill="none" stroke="black" cx="104.5" cy="-52" rx="18" ry="18"/>
<ellipse fill="none" stroke="black" cx="104.5" cy="-52" rx="22" ry="22"/>
<text text-anchor="middle" x="104.5" y="-46.95" font-family="Times,serif" font-size="14.00">1</text>
</g>
<!-- 0&#45;&gt;1 -->
<g id="edge1" class="edge">
<title>0&#45;&gt;1</title>
<path fill="none" stroke="black" d="M35.29,-24.56C46.19,-28.94 60.85,-34.84 73.79,-40.04"/>
<polygon fill="black" stroke="black" points="72.1,-43.54 82.69,-44.03 74.72,-37.05 72.1,-43.54"/>
<text text-anchor="middle" x="59.25" y="-40.2" font-family="Times,serif" font-size="14.00">a:p</text>
</g>
<!-- 2 -->
<g id="node3" class="node">
<title>2</title>
<ellipse fill="none" stroke="black" cx="191.75" cy="-50" rx="18" ry="18"/>
<text text-anchor="middle" x="191.75" y="-44.95" font-family="Times,serif" font-size="14.00">2</text>
</g>
<!-- 1&#45;&gt;2 -->
<g id="edge2" class="edge">
<title>1&#45;&gt;2</title>
<path fill="none" stroke="black" d="M126.57,-51.51C137.48,-51.25 150.95,-50.93 162.73,-50.66"/>
<polygon fill="black" stroke="black" points="162.45,-54.14 172.36,-50.41 162.28,-47.14 162.45,-54.14"/>
<text text-anchor="middle" x="150.12" y="-54.2" font-family="Times,serif" font-size="14.00">b:q</text>
</g>
<!-- 3 -->
<g id="node4" class="node">
<title>3</title>
<ellipse fill="none" stroke="black" cx="272" cy="-18" rx="18" ry="18"/>
<text text-anchor="middle" x="272" y="-12.95" font-family="Times,serif" font-size="14.00">3</text>
</g>
<!-- 2&#45;&gt;3 -->
<g id="edge3" class="edge">
<title>2&#45;&gt;3</title>
<path fill="none" stroke="black" d="M208.96,-43.37C219.35,-39.12 233.06,-33.51 244.96,-28.65"/>
<polygon fill="black" stroke="black" points="245.88,-31.65 253.81,-24.62 243.23,-25.17 245.88,-31.65"/>
<text text-anchor="middle" x="231.88" y="-39.2" font-family="Times,serif" font-size="14.00">c:r</text>
</g>
<!-- 3&#45;&gt;0 -->
<g id="edge4" class="edge">
<title>3&#45;&gt;0</title>
<path fill="none" stroke="black" d="M253.56,-18C210.63,-18 99.55,-18 47.15,-18"/>
<polygon fill="black" stroke="black" points="47.32,-14.5 37.32,-18 47.32,-21.5 47.32,-14.5"/>
<text text-anchor="middle" x="150.12" y="-21.2" font-family="Times,serif" font-size="14.00">d:s</text>
</g>
</g>
</svg>
