<?xml version="1.0" encoding="UTF-8" standalone="no"?>
<!DOCTYPE svg PUBLIC "-//W3C//DTD SVG 1.1//EN"
 "http://www.w3.org/Graphics/SVG/1.1/DTD/svg11.dtd">
<!-- Generated by graphviz version 8.1.0 (20230707.0739)
 -->
<!-- Title: FST Pages: 1 -->
<svg width="454pt" height="151pt"
 viewBox="0.00 0.00 454.00 151.00" xmlns="http://www.w3.org/2000/svg" xmlns:xlink="http://www.w3.org/1999/xlink">
<g id="graph0" class="graph" transform="scale(1 1) rotate(0) translate(4 147)">
<title>FST</title>
<polygon fill="white" stroke="none" points="-4,4 -4,-147 450,-147 450,4 -4,4"/>
<!-- 0 -->
<g id="node1" class="node">
<title>0</title>
<ellipse fill="none" stroke="black" stroke-width="2" cx="96" cy="-18" rx="18" ry="18"/>
<text text-anchor="middle" x="96" y="-12.95" font-family="Times,serif" font-size="14.00">0</text>
</g>
<!-- 0&#45;&gt;0 -->
<g id="edge2" class="edge">
<title>0&#45;&gt;0</title>
<path fill="none" stroke="black" d="M92.47,-36.15C91.93,-45.54 93.11,-54 96,-54 97.67,-54 98.77,-51.17 99.3,-46.97"/>
<polygon fill="black" stroke="black" points="102.81,-47.23 99.53,-37.15 95.82,-47.08 102.81,-47.23"/>
<text text-anchor="middle" x="96" y="-57.2" font-family="Times,serif" font-size="14.00">#0:#0</text>
</g>
<!-- 0&#45;&gt;0 -->
<g id="edge3" class="edge">
<title>0&#45;&gt;0</title>
<path fill="none" stroke="black" d="M90.24,-35.42C86.96,-52.79 88.88,-72 96,-72 101.68,-72 104.05,-59.8 103.12,-46.06"/>
<polygon fill="black" stroke="black" points="106.5,-45.9 101.76,-36.42 99.55,-46.78 106.5,-45.9"/>
<text text-anchor="middle" x="96" y="-75.2" font-family="Times,serif" font-size="14.00">#1:#1</text>
</g>
<!-- 1 -->
<g id="node2" class="node">
<title>1</title>
<ellipse fill="none" stroke="black" cx="182.5" cy="-52" rx="18" ry="18"/>
<ellipse fill="none" stroke="black" cx="182.5" cy="-52" rx="22" ry="22"/>
<text text-anchor="middle" x="182.5" y="-46.95" font-family="Times,serif" font-size="14.00">1</text>
</g>
<!-- 0&#45;&gt;1 -->
<g id="edge1" class="edge">
<title>0&#45;&gt;1</title>
<path fill="none" stroke="black" d="M113.29,-24.56C124.19,-28.94 138.85,-34.84 151.79,-40.04"/>
<polygon fill="black" stroke="black" points="150.1,-43.54 160.69,-44.03 152.72,-37.05 150.1,-43.54"/>
<text text-anchor="middle" x="137.25" y="-41.2" font-family="Times,serif" font-size="14.00">a:p</text>
</g>
<!-- 1&#45;&gt;1 -->
<g id="edge5" class="edge">
<title>1&#45;&gt;1</title>
<path fill="none" stroke="black" d="M178.32,-73.81C177.93,-83.56 179.32,-92 182.5,-92 184.39,-92 185.65,-89.03 186.27,-84.57"/>
<polygon fill="black" stroke="black" points="189.8,-84.93 186.68,-74.81 182.81,-84.67 189.8,-84.93"/>
<text text-anchor="middle" x="182.5" y="-95.2" font-family="Times,serif" font-size="14.00">#0:#0</text>
</g>
<!-- 1&#45;&gt;1 -->
<g id="edge6" class="edge">
<title>1&#45;&gt;1</title>
<path fill="none" stroke="black" d="M175.36,-73.11C172.21,-91.1 174.59,-110 182.5,-110 188.8,-110 191.59,-98 190.87,-84.02"/>
<polygon fill="black" stroke="black" points="194.24,-83.66 189.64,-74.11 187.29,-84.44 194.24,-83.66"/>
<text text-anchor="middle" x="182.5" y="-113.2" font-family="Times,serif" font-size="14.00">#1:#1</text>
</g>
<!-- 2 -->
<g id="node3" class="node">
<title>2</title>
<ellipse fill="none" stroke="black" cx="269.75" cy="-50" rx="18" ry="18"/>
<text text-anchor="middle" x="269.75" y="-44.95" font-family="Times,serif" font-size="14.00">2</text>
</g>
<!-- 1&#45;&gt;2 -->
<g id="edge4" class="edge">
<title>1&#45;&gt;2</title>
<path fill="none" stroke="black" d="M204.57,-51.51C215.48,-51.25 228.95,-50.93 240.73,-50.66"/>
<polygon fill="black" stroke="black" points="240.45,-54.14 250.36,-50.41 240.28,-47.14 240.45,-54.14"/>
<text text-anchor="middle" x="228.12" y="-54.2" font-family="Times,serif" font-size="14.00">b:q</text>
</g>
<!-- 2&#45;&gt;2 -->
<g id="edge8" class="edge">
<title>2&#45;&gt;2</title>
<path fill="none" stroke="black" d="M266.14,-67.78C265.53,-77.31 266.73,-86 269.75,-86 271.54,-86 272.69,-82.94 273.2,-78.45"/>
<polygon fill="black" stroke="black" points="276.71,-78.83 273.36,-68.78 269.71,-78.73 276.71,-78.83"/>
<text text-anchor="middle" x="269.75" y="-89.2" font-family="Times,serif" font-size="14.00">#0:#0</text>
</g>
<!-- 2&#45;&gt;2 -->
<g id="edge9" class="edge">
<title>2&#45;&gt;2</title>
<path fill="none" stroke="black" d="M263.83,-67.42C260.45,-84.79 262.42,-104 269.75,-104 275.59,-104 278.03,-91.8 277.07,-78.06"/>
<polygon fill="black" stroke="black" points="280.45,-77.88 275.67,-68.42 273.51,-78.79 280.45,-77.88"/>
<text text-anchor="middle" x="269.75" y="-107.2" font-family="Times,serif" font-size="14.00">#1:#1</text>
</g>
<!-- 3 -->
<g id="node4" class="node">
<title>3</title>
<ellipse fill="none" stroke="black" cx="350" cy="-18" rx="18" ry="18"/>
<text text-anchor="middle" x="350" y="-12.95" font-family="Times,serif" font-size="14.00">3</text>
</g>
<!-- 2&#45;&gt;3 -->
<g id="edge7" class="edge">
<title>2&#45;&gt;3</title>
<path fill="none" stroke="black" d="M286.96,-43.37C297.35,-39.12 311.06,-33.51 322.96,-28.65"/>
<polygon fill="black" stroke="black" points="323.88,-31.65 331.81,-24.62 321.23,-25.17 323.88,-31.65"/>
<text text-anchor="middle" x="309.88" y="-40.2" font-family="Times,serif" font-size="14.00">c:r</text>
</g>
<!-- 3&#45;&gt;0 -->
<g id="edge11" class="edge">
<title>3&#45;&gt;0</title>
<path fill="none" stroke="black" d="M331.56,-18C288.63,-18 177.55,-18 125.15,-18"/>
<polygon fill="black" stroke="black" points="125.32,-14.5 115.32,-18 125.32,-21.5 125.32,-14.5"/>
<text text-anchor="middle" x="228.12" y="-21.2" font-family="Times,serif" font-size="14.00">d:s</text>
</g>
<!-- 3&#45;&gt;3 -->
<g id="edge12" class="edge">
<title>3&#45;&gt;3</title>
<path fill="none" stroke="black" d="M346.47,-36.15C345.93,-45.54 347.11,-54 350,-54 351.67,-54 352.77,-51.17 353.3,-46.97"/>
<polygon fill="black" stroke="black" points="356.81,-47.23 353.53,-37.15 349.82,-47.08 356.81,-47.23"/>
<text text-anchor="middle" x="350" y="-57.2" font-family="Times,serif" font-size="14.00">#0:#0</text>
</g>
<!-- 3&#45;&gt;3 -->
<g id="edge13" class="edge">
<title>3&#45;&gt;3</title>
<path fill="none" stroke="black" d="M344.24,-35.42C340.96,-52.79 342.88,-72 350,-72 355.68,-72 358.05,-59.8 357.12,-46.06"/>
<polygon fill="black" stroke="black" points="360.5,-45.9 355.76,-36.42 353.55,-46.78 360.5,-45.9"/>
<text text-anchor="middle" x="350" y="-75.2" font-family="Times,serif" font-size="14.00">#1:#1</text>
</g>
<!-- 4 -->
<g id="node5" class="node">
<title>4</title>
<ellipse fill="none" stroke="black" cx="428" cy="-18" rx="18" ry="18"/>
<text text-anchor="middle" x="428" y="-12.95" font-family="Times,serif" font-size="14.00">4</text>
</g>
<!-- 3&#45;&gt;4 -->
<g id="edge10" class="edge">
<title>3&#45;&gt;4</title>
<path fill="none" stroke="black" d="M368.25,-18C377.22,-18 388.42,-18 398.63,-18"/>
<polygon fill="black" stroke="black" points="398.56,-21.5 408.56,-18 398.56,-14.5 398.56,-21.5"/>
<text text-anchor="middle" x="389" y="-21.2" font-family="Times,serif" font-size="14.00">f:t</text>
</g>
<!-- 5 -->
<g id="node6" class="node">
<title>5</title>
<ellipse fill="none" stroke="black" cx="18" cy="-18" rx="18" ry="18"/>
<text text-anchor="middle" x="18" y="-12.95" font-family="Times,serif" font-size="14.00">5</text>
</g>
<!-- 5&#45;&gt;0 -->
<g id="edge14" class="edge">
<title>5&#45;&gt;0</title>
<path fill="none" stroke="black" d="M36.25,-18C45.22,-18 56.42,-18 66.63,-18"/>
<polygon fill="black" stroke="black" points="66.56,-21.5 76.56,-18 66.56,-14.5 66.56,-21.5"/>
<text text-anchor="middle" x="57" y="-21.2" font-family="Times,serif" font-size="14.00">f:t</text>
</g>
<!-- 5&#45;&gt;5 -->
<g id="edge15" class="edge">
<title>5&#45;&gt;5</title>
<path fill="none" stroke="black" d="M14.47,-36.15C13.93,-45.54 15.11,-54 18,-54 19.67,-54 20.77,-51.17 21.3,-46.97"/>
<polygon fill="black" stroke="black" points="24.81,-47.23 21.53,-37.15 17.82,-47.08 24.81,-47.23"/>
<text text-anchor="middle" x="18" y="-57.2" font-family="Times,serif" font-size="14.00">#0:#0</text>
</g>
<!-- 5&#45;&gt;5 -->
<g id="edge16" class="edge">
<title>5&#45;&gt;5</title>
<path fill="none" stroke="black" d="M12.24,-35.42C8.96,-52.79 10.88,-72 18,-72 23.68,-72 26.05,-59.8 25.12,-46.06"/>
<polygon fill="black" stroke="black" points="28.5,-45.9 23.76,-36.42 21.55,-46.78 28.5,-45.9"/>
<text text-anchor="middle" x="18" y="-75.2" font-family="Times,serif" font-size="14.00">#1:#1</text>
</g>
</g>
</svg>
