<?xml version="1.0" encoding="UTF-8" standalone="no"?>
<!DOCTYPE svg PUBLIC "-//W3C//DTD SVG 1.1//EN"
 "http://www.w3.org/Graphics/SVG/1.1/DTD/svg11.dtd">
<!-- Generated by graphviz version 9.0.0 (20230911.1827)
 -->
<!-- Title: FST Pages: 1 -->
<svg width="454pt" height="151pt"
 viewBox="0.00 0.00 454.00 151.00" xmlns="http://www.w3.org/2000/svg" xmlns:xlink="http://www.w3.org/1999/xlink">
<g id="graph0" class="graph" transform="scale(1 1) rotate(0) translate(4 147)">
<title>FST</title>
<polygon fill="white" stroke="none" points="-4,4 -4,-147 450,-147 450,4 -4,4"/>
<!-- 0 -->
<g id="node1" class="node">
<title>0</title>
<ellipse fill="none" stroke="black" stroke-width="2" cx="96" cy="-18" rx="18" ry="18"/>
<text text-anchor="middle" x="96" y="-12.95" font-family="Times,serif" font-size="14.00">0</text>
</g>
<!-- 0&#45;&gt;0 -->
<g id="edge2" class="edge">
<title>0&#45;&gt;0</title>
<path fill="none" stroke="black" d="M92.47,-36.15C91.93,-45.54 93.11,-54 96,-54 97.58,-54 98.65,-51.47 99.21,-47.64"/>
<polygon fill="black" stroke="black" points="102.7,-47.76 99.49,-37.67 95.71,-47.56 102.7,-47.76"/>
<text text-anchor="middle" x="96" y="-57.2" font-family="Times,serif" font-size="14.00">#0:#0</text>
</g>
<!-- 0&#45;&gt;0 -->
<g id="edge3" class="edge">
<title>0&#45;&gt;0</title>
<path fill="none" stroke="black" d="M90.24,-35.42C86.96,-52.79 88.88,-72 96,-72 101.62,-72 104,-60.04 103.14,-46.46"/>
<polygon fill="black" stroke="black" points="106.66,-46.41 101.95,-36.92 99.72,-47.28 106.66,-46.41"/>
<text text-anchor="middle" x="96" y="-75.2" font-family="Times,serif" font-size="14.00">#1:#1</text>
</g>
<!-- 1 -->
<g id="node2" class="node">
<title>1</title>
<ellipse fill="none" stroke="black" cx="182.5" cy="-52" rx="18" ry="18"/>
<ellipse fill="none" stroke="black" cx="182.5" cy="-52" rx="22" ry="22"/>
<text text-anchor="middle" x="182.5" y="-46.95" font-family="Times,serif" font-size="14.00">1</text>
</g>
<!-- 0&#45;&gt;1 -->
<g id="edge1" class="edge">
<title>0&#45;&gt;1</title>
<path fill="none" stroke="black" d="M113.29,-24.56C123.98,-28.85 138.27,-34.61 151.02,-39.73"/>
<polygon fill="black" stroke="black" points="149.7,-42.98 160.28,-43.46 152.31,-36.48 149.7,-42.98"/>
<text text-anchor="middle" x="137.25" y="-41.2" font-family="Times,serif" font-size="14.00">a:p</text>
</g>
<!-- 1&#45;&gt;1 -->
<g id="edge5" class="edge">
<title>1&#45;&gt;1</title>
<path fill="none" stroke="black" d="M178.32,-73.81C177.93,-83.56 179.32,-92 182.5,-92 184.29,-92 185.51,-89.33 186.17,-85.26"/>
<polygon fill="black" stroke="black" points="189.66,-85.46 186.61,-75.32 182.67,-85.15 189.66,-85.46"/>
<text text-anchor="middle" x="182.5" y="-95.2" font-family="Times,serif" font-size="14.00">#0:#0</text>
</g>
<!-- 1&#45;&gt;1 -->
<g id="edge6" class="edge">
<title>1&#45;&gt;1</title>
<path fill="none" stroke="black" d="M175.36,-73.11C172.21,-91.1 174.59,-110 182.5,-110 188.74,-110 191.54,-98.23 190.89,-84.43"/>
<polygon fill="black" stroke="black" points="194.39,-84.17 189.8,-74.62 187.43,-84.94 194.39,-84.17"/>
<text text-anchor="middle" x="182.5" y="-113.2" font-family="Times,serif" font-size="14.00">#1:#1</text>
</g>
<!-- 2 -->
<g id="node3" class="node">
<title>2</title>
<ellipse fill="none" stroke="black" cx="269.75" cy="-50" rx="18" ry="18"/>
<text text-anchor="middle" x="269.75" y="-44.95" font-family="Times,serif" font-size="14.00">2</text>
</g>
<!-- 1&#45;&gt;2 -->
<g id="edge4" class="edge">
<title>1&#45;&gt;2</title>
<path fill="none" stroke="black" d="M204.57,-51.51C215.26,-51.25 228.4,-50.95 240,-50.67"/>
<polygon fill="black" stroke="black" points="239.93,-54.18 249.85,-50.44 239.77,-47.18 239.93,-54.18"/>
<text text-anchor="middle" x="228.12" y="-54.2" font-family="Times,serif" font-size="14.00">b:q</text>
</g>
<!-- 2&#45;&gt;2 -->
<g id="edge8" class="edge">
<title>2&#45;&gt;2</title>
<path fill="none" stroke="black" d="M266.14,-67.78C265.53,-77.31 266.73,-86 269.75,-86 271.45,-86 272.57,-83.25 273.12,-79.15"/>
<polygon fill="black" stroke="black" points="276.61,-79.37 273.32,-69.29 269.62,-79.22 276.61,-79.37"/>
<text text-anchor="middle" x="269.75" y="-89.2" font-family="Times,serif" font-size="14.00">#0:#0</text>
</g>
<!-- 2&#45;&gt;2 -->
<g id="edge9" class="edge">
<title>2&#45;&gt;2</title>
<path fill="none" stroke="black" d="M263.83,-67.42C260.45,-84.79 262.42,-104 269.75,-104 275.53,-104 277.98,-92.04 277.1,-78.46"/>
<polygon fill="black" stroke="black" points="280.62,-78.39 275.87,-68.92 273.68,-79.29 280.62,-78.39"/>
<text text-anchor="middle" x="269.75" y="-107.2" font-family="Times,serif" font-size="14.00">#1:#1</text>
</g>
<!-- 3 -->
<g id="node4" class="node">
<title>3</title>
<ellipse fill="none" stroke="black" cx="350" cy="-18" rx="18" ry="18"/>
<text text-anchor="middle" x="350" y="-12.95" font-family="Times,serif" font-size="14.00">3</text>
</g>
<!-- 2&#45;&gt;3 -->
<g id="edge7" class="edge">
<title>2&#45;&gt;3</title>
<path fill="none" stroke="black" d="M286.96,-43.37C297.14,-39.21 310.51,-33.74 322.23,-28.95"/>
<polygon fill="black" stroke="black" points="323.48,-32.22 331.41,-25.19 320.83,-25.74 323.48,-32.22"/>
<text text-anchor="middle" x="309.88" y="-40.2" font-family="Times,serif" font-size="14.00">c:r</text>
</g>
<!-- 3&#45;&gt;0 -->
<g id="edge11" class="edge">
<title>3&#45;&gt;0</title>
<path fill="none" stroke="black" d="M331.56,-18C288.81,-18 178.48,-18 125.81,-18"/>
<polygon fill="black" stroke="black" points="125.83,-14.5 115.83,-18 125.83,-21.5 125.83,-14.5"/>
<text text-anchor="middle" x="228.12" y="-21.2" font-family="Times,serif" font-size="14.00">d:s</text>
</g>
<!-- 3&#45;&gt;3 -->
<g id="edge12" class="edge">
<title>3&#45;&gt;3</title>
<path fill="none" stroke="black" d="M346.47,-36.15C345.93,-45.54 347.11,-54 350,-54 351.58,-54 352.65,-51.47 353.21,-47.64"/>
<polygon fill="black" stroke="black" points="356.7,-47.76 353.49,-37.67 349.71,-47.56 356.7,-47.76"/>
<text text-anchor="middle" x="350" y="-57.2" font-family="Times,serif" font-size="14.00">#0:#0</text>
</g>
<!-- 3&#45;&gt;3 -->
<g id="edge13" class="edge">
<title>3&#45;&gt;3</title>
<path fill="none" stroke="black" d="M344.24,-35.42C340.96,-52.79 342.88,-72 350,-72 355.62,-72 358,-60.04 357.14,-46.46"/>
<polygon fill="black" stroke="black" points="360.66,-46.41 355.95,-36.92 353.72,-47.28 360.66,-46.41"/>
<text text-anchor="middle" x="350" y="-75.2" font-family="Times,serif" font-size="14.00">#1:#1</text>
</g>
<!-- 4 -->
<g id="node5" class="node">
<title>4</title>
<ellipse fill="none" stroke="black" cx="428" cy="-18" rx="18" ry="18"/>
<text text-anchor="middle" x="428" y="-12.95" font-family="Times,serif" font-size="14.00">4</text>
</g>
<!-- 3&#45;&gt;4 -->
<g id="edge10" class="edge">
<title>3&#45;&gt;4</title>
<path fill="none" stroke="black" d="M368.25,-18C377.12,-18 388.18,-18 398.3,-18"/>
<polygon fill="black" stroke="black" points="398.05,-21.5 408.05,-18 398.05,-14.5 398.05,-21.5"/>
<text text-anchor="middle" x="389" y="-21.2" font-family="Times,serif" font-size="14.00">f:t</text>
</g>
<!-- 5 -->
<g id="node6" class="node">
<title>5</title>
<ellipse fill="none" stroke="black" cx="18" cy="-18" rx="18" ry="18"/>
<text text-anchor="middle" x="18" y="-12.95" font-family="Times,serif" font-size="14.00">5</text>
</g>
<!-- 5&#45;&gt;0 -->
<g id="edge14" class="edge">
<title>5&#45;&gt;0</title>
<path fill="none" stroke="black" d="M36.25,-18C45.12,-18 56.18,-18 66.3,-18"/>
<polygon fill="black" stroke="black" points="66.05,-21.5 76.05,-18 66.05,-14.5 66.05,-21.5"/>
<text text-anchor="middle" x="57" y="-21.2" font-family="Times,serif" font-size="14.00">f:t</text>
</g>
<!-- 5&#45;&gt;5 -->
<g id="edge15" class="edge">
<title>5&#45;&gt;5</title>
<path fill="none" stroke="black" d="M14.47,-36.15C13.93,-45.54 15.11,-54 18,-54 19.58,-54 20.65,-51.47 21.21,-47.64"/>
<polygon fill="black" stroke="black" points="24.7,-47.76 21.49,-37.67 17.71,-47.56 24.7,-47.76"/>
<text text-anchor="middle" x="18" y="-57.2" font-family="Times,serif" font-size="14.00">#0:#0</text>
</g>
<!-- 5&#45;&gt;5 -->
<g id="edge16" class="edge">
<title>5&#45;&gt;5</title>
<path fill="none" stroke="black" d="M12.24,-35.42C8.96,-52.79 10.88,-72 18,-72 23.62,-72 26,-60.04 25.14,-46.46"/>
<polygon fill="black" stroke="black" points="28.66,-46.41 23.95,-36.92 21.72,-47.28 28.66,-46.41"/>
<text text-anchor="middle" x="18" y="-75.2" font-family="Times,serif" font-size="14.00">#1:#1</text>
</g>
</g>
</svg>
