<?xml version="1.0" encoding="UTF-8" standalone="no"?>
<!DOCTYPE svg PUBLIC "-//W3C//DTD SVG 1.1//EN"
 "http://www.w3.org/Graphics/SVG/1.1/DTD/svg11.dtd">
<!-- Generated by graphviz version 7.0.4 (20221203.1631)
 -->
<!-- Title: FST Pages: 1 -->
<svg width="300pt" height="82pt"
 viewBox="0.00 0.00 300.00 82.00" xmlns="http://www.w3.org/2000/svg" xmlns:xlink="http://www.w3.org/1999/xlink">
<g id="graph0" class="graph" transform="scale(1 1) rotate(0) translate(4 78)">
<title>FST</title>
<polygon fill="white" stroke="none" points="-4,4 -4,-78 296,-78 296,4 -4,4"/>
<!-- 0 -->
<g id="node1" class="node">
<title>0</title>
<ellipse fill="none" stroke="black" stroke-width="2" cx="18" cy="-18" rx="18" ry="18"/>
<text text-anchor="middle" x="18" y="-14.3" font-family="Times,serif" font-size="14.00">0</text>
</g>
<!-- 1 -->
<g id="node2" class="node">
<title>1</title>
<ellipse fill="none" stroke="black" cx="105" cy="-52" rx="18" ry="18"/>
<ellipse fill="none" stroke="black" cx="105" cy="-52" rx="22" ry="22"/>
<text text-anchor="middle" x="105" y="-48.3" font-family="Times,serif" font-size="14.00">1</text>
</g>
<!-- 0&#45;&gt;1 -->
<g id="edge1" class="edge">
<title>0&#45;&gt;1</title>
<path fill="none" stroke="black" d="M34.99,-24.4C45.88,-28.75 60.65,-34.66 73.73,-39.89"/>
<polygon fill="black" stroke="black" points="72.2,-43.05 82.79,-43.52 74.8,-36.55 72.2,-43.05"/>
<text text-anchor="middle" x="59.5" y="-40.8" font-family="Times,serif" font-size="14.00">a:p</text>
</g>
<!-- 2 -->
<g id="node3" class="node">
<title>2</title>
<ellipse fill="none" stroke="black" cx="193" cy="-50" rx="18" ry="18"/>
<text text-anchor="middle" x="193" y="-46.3" font-family="Times,serif" font-size="14.00">2</text>
</g>
<!-- 1&#45;&gt;2 -->
<g id="edge2" class="edge">
<title>1&#45;&gt;2</title>
<path fill="none" stroke="black" d="M127.26,-51.51C138.11,-51.25 151.47,-50.94 163.23,-50.67"/>
<polygon fill="black" stroke="black" points="163.31,-54.17 173.22,-50.44 163.15,-47.17 163.31,-54.17"/>
<text text-anchor="middle" x="151" y="-54.8" font-family="Times,serif" font-size="14.00">b:q</text>
</g>
<!-- 3 -->
<g id="node4" class="node">
<title>3</title>
<ellipse fill="none" stroke="black" cx="274" cy="-18" rx="18" ry="18"/>
<text text-anchor="middle" x="274" y="-14.3" font-family="Times,serif" font-size="14.00">3</text>
</g>
<!-- 2&#45;&gt;3 -->
<g id="edge3" class="edge">
<title>2&#45;&gt;3</title>
<path fill="none" stroke="black" d="M209.99,-43.52C220.41,-39.3 234.27,-33.69 246.34,-28.8"/>
<polygon fill="black" stroke="black" points="247.41,-32.14 255.36,-25.14 244.78,-25.65 247.41,-32.14"/>
<text text-anchor="middle" x="233.5" y="-39.8" font-family="Times,serif" font-size="14.00">c:r</text>
</g>
<!-- 3&#45;&gt;0 -->
<g id="edge4" class="edge">
<title>3&#45;&gt;0</title>
<path fill="none" stroke="black" d="M255.76,-18C212.83,-18 100.84,-18 47.74,-18"/>
<polygon fill="black" stroke="black" points="47.97,-14.5 37.97,-18 47.97,-21.5 47.97,-14.5"/>
<text text-anchor="middle" x="151" y="-21.8" font-family="Times,serif" font-size="14.00">d:s</text>
</g>
</g>
</svg>
