<?xml version="1.0" encoding="UTF-8" standalone="no"?>
<!DOCTYPE svg PUBLIC "-//W3C//DTD SVG 1.1//EN"
 "http://www.w3.org/Graphics/SVG/1.1/DTD/svg11.dtd">
<!-- Generated by graphviz version 6.0.1 (20220911.1526)
 -->
<!-- Title: FST Pages: 1 -->
<svg width="458pt" height="82pt"
 viewBox="0.00 0.00 458.00 82.00" xmlns="http://www.w3.org/2000/svg" xmlns:xlink="http://www.w3.org/1999/xlink">
<g id="graph0" class="graph" transform="scale(1 1) rotate(0) translate(4 78)">
<title>FST</title>
<polygon fill="white" stroke="none" points="-4,4 -4,-78 454,-78 454,4 -4,4"/>
<!-- 0 -->
<g id="node1" class="node">
<title>0</title>
<ellipse fill="none" stroke="black" stroke-width="2" cx="97" cy="-18" rx="18" ry="18"/>
<text text-anchor="middle" x="97" y="-14.3" font-family="Times,serif" font-size="14.00">0</text>
</g>
<!-- 1 -->
<g id="node2" class="node">
<title>1</title>
<ellipse fill="none" stroke="black" cx="184" cy="-52" rx="18" ry="18"/>
<ellipse fill="none" stroke="black" cx="184" cy="-52" rx="22" ry="22"/>
<text text-anchor="middle" x="184" y="-48.3" font-family="Times,serif" font-size="14.00">1</text>
</g>
<!-- 0&#45;&gt;1 -->
<g id="edge1" class="edge">
<title>0&#45;&gt;1</title>
<path fill="none" stroke="black" d="M113.99,-24.4C125.21,-28.88 140.54,-35.02 153.9,-40.36"/>
<polygon fill="black" stroke="black" points="152.61,-43.61 163.19,-44.08 155.21,-37.11 152.61,-43.61"/>
<text text-anchor="middle" x="138.5" y="-40.8" font-family="Times,serif" font-size="14.00">a:p</text>
</g>
<!-- 2 -->
<g id="node3" class="node">
<title>2</title>
<ellipse fill="none" stroke="black" cx="272" cy="-50" rx="18" ry="18"/>
<text text-anchor="middle" x="272" y="-46.3" font-family="Times,serif" font-size="14.00">2</text>
</g>
<!-- 1&#45;&gt;2 -->
<g id="edge2" class="edge">
<title>1&#45;&gt;2</title>
<path fill="none" stroke="black" d="M206.26,-51.51C217.57,-51.24 231.6,-50.92 243.71,-50.63"/>
<polygon fill="black" stroke="black" points="243.82,-54.13 253.74,-50.4 243.66,-47.13 243.82,-54.13"/>
<text text-anchor="middle" x="230" y="-54.8" font-family="Times,serif" font-size="14.00">b:q</text>
</g>
<!-- 3 -->
<g id="node4" class="node">
<title>3</title>
<ellipse fill="none" stroke="black" cx="353" cy="-18" rx="18" ry="18"/>
<text text-anchor="middle" x="353" y="-14.3" font-family="Times,serif" font-size="14.00">3</text>
</g>
<!-- 2&#45;&gt;3 -->
<g id="edge3" class="edge">
<title>2&#45;&gt;3</title>
<path fill="none" stroke="black" d="M288.99,-43.52C299.8,-39.14 314.31,-33.27 326.69,-28.25"/>
<polygon fill="black" stroke="black" points="328.08,-31.46 336.04,-24.47 325.45,-24.98 328.08,-31.46"/>
<text text-anchor="middle" x="312.5" y="-39.8" font-family="Times,serif" font-size="14.00">c:r</text>
</g>
<!-- 3&#45;&gt;0 -->
<g id="edge5" class="edge">
<title>3&#45;&gt;0</title>
<path fill="none" stroke="black" d="M334.68,-18C291.3,-18 177.73,-18 125.28,-18"/>
<polygon fill="black" stroke="black" points="125.06,-14.5 115.06,-18 125.06,-21.5 125.06,-14.5"/>
<text text-anchor="middle" x="230" y="-21.8" font-family="Times,serif" font-size="14.00">d:s</text>
</g>
<!-- 4 -->
<g id="node5" class="node">
<title>4</title>
<ellipse fill="none" stroke="black" cx="432" cy="-18" rx="18" ry="18"/>
<text text-anchor="middle" x="432" y="-14.3" font-family="Times,serif" font-size="14.00">4</text>
</g>
<!-- 3&#45;&gt;4 -->
<g id="edge4" class="edge">
<title>3&#45;&gt;4</title>
<path fill="none" stroke="black" d="M371.09,-18C380.66,-18 392.82,-18 403.68,-18"/>
<polygon fill="black" stroke="black" points="403.96,-21.5 413.96,-18 403.96,-14.5 403.96,-21.5"/>
<text text-anchor="middle" x="392.5" y="-21.8" font-family="Times,serif" font-size="14.00">f:t</text>
</g>
<!-- 5 -->
<g id="node6" class="node">
<title>5</title>
<ellipse fill="none" stroke="black" cx="18" cy="-18" rx="18" ry="18"/>
<text text-anchor="middle" x="18" y="-14.3" font-family="Times,serif" font-size="14.00">5</text>
</g>
<!-- 5&#45;&gt;0 -->
<g id="edge6" class="edge">
<title>5&#45;&gt;0</title>
<path fill="none" stroke="black" d="M36.09,-18C45.66,-18 57.82,-18 68.68,-18"/>
<polygon fill="black" stroke="black" points="68.96,-21.5 78.96,-18 68.96,-14.5 68.96,-21.5"/>
<text text-anchor="middle" x="57.5" y="-21.8" font-family="Times,serif" font-size="14.00">f:t</text>
</g>
</g>
</svg>
