<?xml version="1.0" encoding="UTF-8" standalone="no"?>
<!DOCTYPE svg PUBLIC "-//W3C//DTD SVG 1.1//EN"
 "http://www.w3.org/Graphics/SVG/1.1/DTD/svg11.dtd">
<!-- Generated by graphviz version 7.0.2 (20221119.0110)
 -->
<!-- Title: FST Pages: 1 -->
<svg width="458pt" height="82pt"
 viewBox="0.00 0.00 458.00 82.00" xmlns="http://www.w3.org/2000/svg" xmlns:xlink="http://www.w3.org/1999/xlink">
<g id="graph0" class="graph" transform="scale(1 1) rotate(0) translate(4 78)">
<title>FST</title>
<polygon fill="white" stroke="none" points="-4,4 -4,-78 454,-78 454,4 -4,4"/>
<!-- 0 -->
<g id="node1" class="node">
<title>0</title>
<ellipse fill="none" stroke="black" stroke-width="2" cx="97" cy="-18" rx="18" ry="18"/>
<text text-anchor="middle" x="97" y="-14.3" font-family="Times,serif" font-size="14.00">0</text>
</g>
<!-- 1 -->
<g id="node2" class="node">
<title>1</title>
<ellipse fill="none" stroke="black" cx="184" cy="-52" rx="18" ry="18"/>
<ellipse fill="none" stroke="black" cx="184" cy="-52" rx="22" ry="22"/>
<text text-anchor="middle" x="184" y="-48.3" font-family="Times,serif" font-size="14.00">1</text>
</g>
<!-- 0&#45;&gt;1 -->
<g id="edge1" class="edge">
<title>0&#45;&gt;1</title>
<path fill="none" stroke="black" d="M113.99,-24.4C124.88,-28.75 139.65,-34.66 152.73,-39.89"/>
<polygon fill="black" stroke="black" points="151.2,-43.05 161.79,-43.52 153.8,-36.55 151.2,-43.05"/>
<text text-anchor="middle" x="138.5" y="-40.8" font-family="Times,serif" font-size="14.00">a:p</text>
</g>
<!-- 2 -->
<g id="node3" class="node">
<title>2</title>
<ellipse fill="none" stroke="black" cx="272" cy="-50" rx="18" ry="18"/>
<text text-anchor="middle" x="272" y="-46.3" font-family="Times,serif" font-size="14.00">2</text>
</g>
<!-- 1&#45;&gt;2 -->
<g id="edge2" class="edge">
<title>1&#45;&gt;2</title>
<path fill="none" stroke="black" d="M206.26,-51.51C217.11,-51.25 230.47,-50.94 242.23,-50.67"/>
<polygon fill="black" stroke="black" points="242.31,-54.17 252.22,-50.44 242.15,-47.17 242.31,-54.17"/>
<text text-anchor="middle" x="230" y="-54.8" font-family="Times,serif" font-size="14.00">b:q</text>
</g>
<!-- 3 -->
<g id="node4" class="node">
<title>3</title>
<ellipse fill="none" stroke="black" cx="353" cy="-18" rx="18" ry="18"/>
<text text-anchor="middle" x="353" y="-14.3" font-family="Times,serif" font-size="14.00">3</text>
</g>
<!-- 2&#45;&gt;3 -->
<g id="edge3" class="edge">
<title>2&#45;&gt;3</title>
<path fill="none" stroke="black" d="M288.99,-43.52C299.41,-39.3 313.27,-33.69 325.34,-28.8"/>
<polygon fill="black" stroke="black" points="326.41,-32.14 334.36,-25.14 323.78,-25.65 326.41,-32.14"/>
<text text-anchor="middle" x="312.5" y="-39.8" font-family="Times,serif" font-size="14.00">c:r</text>
</g>
<!-- 3&#45;&gt;0 -->
<g id="edge5" class="edge">
<title>3&#45;&gt;0</title>
<path fill="none" stroke="black" d="M334.76,-18C291.83,-18 179.84,-18 126.74,-18"/>
<polygon fill="black" stroke="black" points="126.97,-14.5 116.97,-18 126.97,-21.5 126.97,-14.5"/>
<text text-anchor="middle" x="230" y="-21.8" font-family="Times,serif" font-size="14.00">d:s</text>
</g>
<!-- 4 -->
<g id="node5" class="node">
<title>4</title>
<ellipse fill="none" stroke="black" cx="432" cy="-18" rx="18" ry="18"/>
<text text-anchor="middle" x="432" y="-14.3" font-family="Times,serif" font-size="14.00">4</text>
</g>
<!-- 3&#45;&gt;4 -->
<g id="edge4" class="edge">
<title>3&#45;&gt;4</title>
<path fill="none" stroke="black" d="M371.47,-18C380.53,-18 391.83,-18 402.14,-18"/>
<polygon fill="black" stroke="black" points="402.08,-21.5 412.08,-18 402.08,-14.5 402.08,-21.5"/>
<text text-anchor="middle" x="392.5" y="-21.8" font-family="Times,serif" font-size="14.00">f:t</text>
</g>
<!-- 5 -->
<g id="node6" class="node">
<title>5</title>
<ellipse fill="none" stroke="black" cx="18" cy="-18" rx="18" ry="18"/>
<text text-anchor="middle" x="18" y="-14.3" font-family="Times,serif" font-size="14.00">5</text>
</g>
<!-- 5&#45;&gt;0 -->
<g id="edge6" class="edge">
<title>5&#45;&gt;0</title>
<path fill="none" stroke="black" d="M36.47,-18C45.53,-18 56.83,-18 67.14,-18"/>
<polygon fill="black" stroke="black" points="67.08,-21.5 77.08,-18 67.08,-14.5 67.08,-21.5"/>
<text text-anchor="middle" x="57.5" y="-21.8" font-family="Times,serif" font-size="14.00">f:t</text>
</g>
</g>
</svg>
