<?xml version="1.0" encoding="UTF-8" standalone="no"?>
<!DOCTYPE svg PUBLIC "-//W3C//DTD SVG 1.1//EN"
 "http://www.w3.org/Graphics/SVG/1.1/DTD/svg11.dtd">
<!-- Generated by graphviz version 2.43.0 (0)
 -->
<!-- Title: FST Pages: 1 -->
<svg width="478pt" height="82pt"
 viewBox="0.00 0.00 478.00 82.00" xmlns="http://www.w3.org/2000/svg" xmlns:xlink="http://www.w3.org/1999/xlink">
<g id="graph0" class="graph" transform="scale(1 1) rotate(0) translate(4 78)">
<title>FST</title>
<polygon fill="white" stroke="transparent" points="-4,4 -4,-78 474,-78 474,4 -4,4"/>
<!-- 0 -->
<g id="node1" class="node">
<title>0</title>
<ellipse fill="none" stroke="black" stroke-width="2" cx="100" cy="-18" rx="18" ry="18"/>
<text text-anchor="middle" x="100" y="-14.3" font-family="Times,serif" font-size="14.00">0</text>
</g>
<!-- 1 -->
<g id="node2" class="node">
<title>1</title>
<ellipse fill="none" stroke="black" cx="192" cy="-52" rx="18" ry="18"/>
<ellipse fill="none" stroke="black" cx="192" cy="-52" rx="22" ry="22"/>
<text text-anchor="middle" x="192" y="-48.3" font-family="Times,serif" font-size="14.00">1</text>
</g>
<!-- 0&#45;&gt;1 -->
<g id="edge1" class="edge">
<title>0&#45;&gt;1</title>
<path fill="none" stroke="black" d="M117.09,-24.08C129.41,-28.73 146.76,-35.29 161.54,-40.87"/>
<polygon fill="black" stroke="black" points="160.69,-44.29 171.28,-44.55 163.16,-37.74 160.69,-44.29"/>
<text text-anchor="middle" x="144" y="-41.8" font-family="Times,serif" font-size="14.00">a:p</text>
</g>
<!-- 2 -->
<g id="node3" class="node">
<title>2</title>
<ellipse fill="none" stroke="black" cx="285" cy="-50" rx="18" ry="18"/>
<text text-anchor="middle" x="285" y="-46.3" font-family="Times,serif" font-size="14.00">2</text>
</g>
<!-- 1&#45;&gt;2 -->
<g id="edge2" class="edge">
<title>1&#45;&gt;2</title>
<path fill="none" stroke="black" d="M214.11,-51.54C226.78,-51.26 243.05,-50.9 256.7,-50.6"/>
<polygon fill="black" stroke="black" points="257.04,-54.09 266.96,-50.37 256.89,-47.1 257.04,-54.09"/>
<text text-anchor="middle" x="240.5" y="-54.8" font-family="Times,serif" font-size="14.00">b:q</text>
</g>
<!-- 3 -->
<g id="node4" class="node">
<title>3</title>
<ellipse fill="none" stroke="black" cx="370" cy="-18" rx="18" ry="18"/>
<text text-anchor="middle" x="370" y="-14.3" font-family="Times,serif" font-size="14.00">3</text>
</g>
<!-- 2&#45;&gt;3 -->
<g id="edge3" class="edge">
<title>2&#45;&gt;3</title>
<path fill="none" stroke="black" d="M302,-43.83C313.72,-39.31 329.85,-33.09 343.35,-27.89"/>
<polygon fill="black" stroke="black" points="344.97,-31.01 353.05,-24.15 342.46,-24.48 344.97,-31.01"/>
<text text-anchor="middle" x="327.5" y="-39.8" font-family="Times,serif" font-size="14.00">c:r</text>
</g>
<!-- 3&#45;&gt;0 -->
<g id="edge5" class="edge">
<title>3&#45;&gt;0</title>
<path fill="none" stroke="black" d="M351.97,-18C306.75,-18 183.38,-18 128.25,-18"/>
<polygon fill="black" stroke="black" points="128.17,-14.5 118.17,-18 128.17,-21.5 128.17,-14.5"/>
<text text-anchor="middle" x="240.5" y="-21.8" font-family="Times,serif" font-size="14.00">d:s</text>
</g>
<!-- 4 -->
<g id="node5" class="node">
<title>4</title>
<ellipse fill="none" stroke="black" cx="452" cy="-18" rx="18" ry="18"/>
<text text-anchor="middle" x="452" y="-14.3" font-family="Times,serif" font-size="14.00">4</text>
</g>
<!-- 3&#45;&gt;4 -->
<g id="edge4" class="edge">
<title>3&#45;&gt;4</title>
<path fill="none" stroke="black" d="M388.36,-18C398.7,-18 412.06,-18 423.78,-18"/>
<polygon fill="black" stroke="black" points="423.95,-21.5 433.95,-18 423.95,-14.5 423.95,-21.5"/>
<text text-anchor="middle" x="411" y="-21.8" font-family="Times,serif" font-size="14.00">f:t</text>
</g>
<!-- 5 -->
<g id="node6" class="node">
<title>5</title>
<ellipse fill="none" stroke="black" cx="18" cy="-18" rx="18" ry="18"/>
<text text-anchor="middle" x="18" y="-14.3" font-family="Times,serif" font-size="14.00">5</text>
</g>
<!-- 5&#45;&gt;0 -->
<g id="edge6" class="edge">
<title>5&#45;&gt;0</title>
<path fill="none" stroke="black" d="M36.36,-18C46.7,-18 60.06,-18 71.78,-18"/>
<polygon fill="black" stroke="black" points="71.95,-21.5 81.95,-18 71.95,-14.5 71.95,-21.5"/>
<text text-anchor="middle" x="59" y="-21.8" font-family="Times,serif" font-size="14.00">f:t</text>
</g>
</g>
</svg>
