<?xml version="1.0" encoding="UTF-8" standalone="no"?>
<!DOCTYPE svg PUBLIC "-//W3C//DTD SVG 1.1//EN"
 "http://www.w3.org/Graphics/SVG/1.1/DTD/svg11.dtd">
<!-- Generated by graphviz version 6.0.1 (20220911.1526)
 -->
<!-- Title: FST Pages: 1 -->
<svg width="175pt" height="169pt"
 viewBox="0.00 0.00 175.19 168.60" xmlns="http://www.w3.org/2000/svg" xmlns:xlink="http://www.w3.org/1999/xlink">
<g id="graph0" class="graph" transform="scale(1 1) rotate(0) translate(4 164.6)">
<title>FST</title>
<polygon fill="white" stroke="none" points="-4,4 -4,-164.6 171.19,-164.6 171.19,4 -4,4"/>
<!-- 0 -->
<g id="node1" class="node">
<title>0</title>
<ellipse fill="none" stroke="black" stroke-width="2" cx="18" cy="-51.6" rx="18" ry="18"/>
<text text-anchor="middle" x="18" y="-47.9" font-family="Times,serif" font-size="14.00">0</text>
</g>
<!-- 1 -->
<g id="node2" class="node">
<title>1</title>
<ellipse fill="none" stroke="black" cx="134.6" cy="-105.6" rx="18" ry="18"/>
<ellipse fill="none" stroke="black" cx="134.6" cy="-105.6" rx="22" ry="22"/>
<text text-anchor="middle" x="134.6" y="-101.9" font-family="Times,serif" font-size="14.00">1</text>
</g>
<!-- 0&#45;&gt;1 -->
<g id="edge1" class="edge">
<title>0&#45;&gt;1</title>
<path fill="none" stroke="black" d="M34.93,-59.11C53.04,-67.64 82.95,-81.73 105.1,-92.17"/>
<polygon fill="black" stroke="black" points="103.82,-95.44 114.36,-96.53 106.81,-89.1 103.82,-95.44"/>
<text text-anchor="middle" x="69" y="-86.4" font-family="Times,serif" font-size="14.00">a:q/1</text>
</g>
<!-- 2 -->
<g id="node3" class="node">
<title>2</title>
<ellipse fill="none" stroke="black" cx="134.6" cy="-32.6" rx="28.68" ry="28.68"/>
<ellipse fill="none" stroke="black" cx="134.6" cy="-32.6" rx="32.7" ry="32.7"/>
<text text-anchor="middle" x="134.6" y="-28.9" font-family="Times,serif" font-size="14.00">2/2.5</text>
</g>
<!-- 0&#45;&gt;2 -->
<g id="edge2" class="edge">
<title>0&#45;&gt;2</title>
<path fill="none" stroke="black" d="M35.91,-48.79C50.75,-46.33 72.96,-42.65 92.45,-39.42"/>
<polygon fill="black" stroke="black" points="93.05,-42.87 102.34,-37.78 91.9,-35.96 93.05,-42.87"/>
<text text-anchor="middle" x="69" y="-50.4" font-family="Times,serif" font-size="14.00">a:r/2.5</text>
</g>
<!-- 1&#45;&gt;1 -->
<g id="edge3" class="edge">
<title>1&#45;&gt;1</title>
<path fill="none" stroke="black" d="M122.97,-124.53C120.6,-135.44 124.48,-145.6 134.6,-145.6 141.4,-145.6 145.38,-141.01 146.54,-134.69"/>
<polygon fill="black" stroke="black" points="150.03,-134.41 146.22,-124.53 143.04,-134.63 150.03,-134.41"/>
<text text-anchor="middle" x="134.6" y="-149.4" font-family="Times,serif" font-size="14.00">c:s/1</text>
</g>
</g>
</svg>
