<?xml version="1.0" encoding="UTF-8" standalone="no"?>
<!DOCTYPE svg PUBLIC "-//W3C//DTD SVG 1.1//EN"
 "http://www.w3.org/Graphics/SVG/1.1/DTD/svg11.dtd">
<!-- Generated by graphviz version 7.0.2 (20221119.0110)
 -->
<!-- Title: FST Pages: 1 -->
<svg width="175pt" height="169pt"
 viewBox="0.00 0.00 175.19 168.60" xmlns="http://www.w3.org/2000/svg" xmlns:xlink="http://www.w3.org/1999/xlink">
<g id="graph0" class="graph" transform="scale(1 1) rotate(0) translate(4 164.6)">
<title>FST</title>
<polygon fill="white" stroke="none" points="-4,4 -4,-164.6 171.19,-164.6 171.19,4 -4,4"/>
<!-- 0 -->
<g id="node1" class="node">
<title>0</title>
<ellipse fill="none" stroke="black" stroke-width="2" cx="18" cy="-51.6" rx="18" ry="18"/>
<text text-anchor="middle" x="18" y="-47.9" font-family="Times,serif" font-size="14.00">0</text>
</g>
<!-- 1 -->
<g id="node2" class="node">
<title>1</title>
<ellipse fill="none" stroke="black" cx="134.6" cy="-105.6" rx="18" ry="18"/>
<ellipse fill="none" stroke="black" cx="134.6" cy="-105.6" rx="22" ry="22"/>
<text text-anchor="middle" x="134.6" y="-101.9" font-family="Times,serif" font-size="14.00">1</text>
</g>
<!-- 0&#45;&gt;1 -->
<g id="edge1" class="edge">
<title>0&#45;&gt;1</title>
<path fill="none" stroke="black" d="M34.46,-58.88C52.2,-67.24 81.72,-81.15 103.94,-91.62"/>
<polygon fill="black" stroke="black" points="102.28,-94.71 112.81,-95.8 105.26,-88.38 102.28,-94.71"/>
<text text-anchor="middle" x="69" y="-86.4" font-family="Times,serif" font-size="14.00">a:q/1</text>
</g>
<!-- 2 -->
<g id="node3" class="node">
<title>2</title>
<ellipse fill="none" stroke="black" cx="134.6" cy="-32.6" rx="28.68" ry="28.68"/>
<ellipse fill="none" stroke="black" cx="134.6" cy="-32.6" rx="32.7" ry="32.7"/>
<text text-anchor="middle" x="134.6" y="-28.9" font-family="Times,serif" font-size="14.00">2/2.5</text>
</g>
<!-- 0&#45;&gt;2 -->
<g id="edge2" class="edge">
<title>0&#45;&gt;2</title>
<path fill="none" stroke="black" d="M35.91,-48.79C50.31,-46.41 71.64,-42.87 90.69,-39.71"/>
<polygon fill="black" stroke="black" points="91.09,-43.19 100.39,-38.1 89.95,-36.29 91.09,-43.19"/>
<text text-anchor="middle" x="69" y="-50.4" font-family="Times,serif" font-size="14.00">a:r/2.5</text>
</g>
<!-- 1&#45;&gt;1 -->
<g id="edge3" class="edge">
<title>1&#45;&gt;1</title>
<path fill="none" stroke="black" d="M122.97,-124.53C120.6,-135.44 124.48,-145.6 134.6,-145.6 140.92,-145.6 144.81,-141.63 146.25,-135.99"/>
<polygon fill="black" stroke="black" points="149.75,-136.03 146.23,-126.04 142.75,-136.05 149.75,-136.03"/>
<text text-anchor="middle" x="134.6" y="-149.4" font-family="Times,serif" font-size="14.00">c:s/1</text>
</g>
</g>
</svg>
