<?xml version="1.0" encoding="UTF-8" standalone="no"?>
<!DOCTYPE svg PUBLIC "-//W3C//DTD SVG 1.1//EN"
 "http://www.w3.org/Graphics/SVG/1.1/DTD/svg11.dtd">
<!-- Generated by graphviz version 2.43.0 (0)
 -->
<!-- Title: FST Pages: 1 -->
<svg width="198pt" height="179pt"
 viewBox="0.00 0.00 197.89 179.45" xmlns="http://www.w3.org/2000/svg" xmlns:xlink="http://www.w3.org/1999/xlink">
<g id="graph0" class="graph" transform="scale(1 1) rotate(0) translate(4 175.45)">
<title>FST</title>
<polygon fill="white" stroke="transparent" points="-4,4 -4,-175.45 193.89,-175.45 193.89,4 -4,4"/>
<!-- 0 -->
<g id="node1" class="node">
<title>0</title>
<ellipse fill="none" stroke="black" stroke-width="2" cx="18" cy="-57.45" rx="18" ry="18"/>
<text text-anchor="middle" x="18" y="-53.75" font-family="Times,serif" font-size="14.00">0</text>
</g>
<!-- 1 -->
<g id="node2" class="node">
<title>1</title>
<ellipse fill="none" stroke="black" cx="151.45" cy="-116.45" rx="18" ry="18"/>
<ellipse fill="none" stroke="black" cx="151.45" cy="-116.45" rx="22" ry="22"/>
<text text-anchor="middle" x="151.45" y="-112.75" font-family="Times,serif" font-size="14.00">1</text>
</g>
<!-- 0&#45;&gt;1 -->
<g id="edge1" class="edge">
<title>0&#45;&gt;1</title>
<path fill="none" stroke="black" d="M34.59,-64.45C56.04,-74.07 95,-91.56 121.78,-103.58"/>
<polygon fill="black" stroke="black" points="120.48,-106.83 131.04,-107.73 123.35,-100.45 120.48,-106.83"/>
<text text-anchor="middle" x="74.5" y="-95.25" font-family="Times,serif" font-size="14.00">a:q/1</text>
</g>
<!-- 2 -->
<g id="node3" class="node">
<title>2</title>
<ellipse fill="none" stroke="black" cx="151.45" cy="-38.45" rx="34.4" ry="34.4"/>
<ellipse fill="none" stroke="black" cx="151.45" cy="-38.45" rx="38.39" ry="38.39"/>
<text text-anchor="middle" x="151.45" y="-34.75" font-family="Times,serif" font-size="14.00">2/2.5</text>
</g>
<!-- 0&#45;&gt;2 -->
<g id="edge2" class="edge">
<title>0&#45;&gt;2</title>
<path fill="none" stroke="black" d="M35.92,-55C52.83,-52.56 79.62,-48.68 103.04,-45.3"/>
<polygon fill="black" stroke="black" points="103.77,-48.73 113.17,-43.84 102.77,-41.8 103.77,-48.73"/>
<text text-anchor="middle" x="74.5" y="-55.25" font-family="Times,serif" font-size="14.00">a:r/2.5</text>
</g>
<!-- 1&#45;&gt;1 -->
<g id="edge3" class="edge">
<title>1&#45;&gt;1</title>
<path fill="none" stroke="black" d="M138.32,-134.13C134.9,-145.5 139.28,-156.45 151.45,-156.45 159.82,-156.45 164.5,-151.27 165.49,-144.35"/>
<polygon fill="black" stroke="black" points="168.96,-143.78 164.57,-134.13 161.99,-144.41 168.96,-143.78"/>
<text text-anchor="middle" x="151.45" y="-160.25" font-family="Times,serif" font-size="14.00">c:s/1</text>
</g>
</g>
</svg>
