<?xml version="1.0" encoding="UTF-8" standalone="no"?>
<!DOCTYPE svg PUBLIC "-//W3C//DTD SVG 1.1//EN"
 "http://www.w3.org/Graphics/SVG/1.1/DTD/svg11.dtd">
<!-- Generated by graphviz version 8.1.0 (20230707.0739)
 -->
<!-- Title: FST Pages: 1 -->
<svg width="454pt" height="82pt"
 viewBox="0.00 0.00 454.00 82.00" xmlns="http://www.w3.org/2000/svg" xmlns:xlink="http://www.w3.org/1999/xlink">
<g id="graph0" class="graph" transform="scale(1 1) rotate(0) translate(4 78)">
<title>FST</title>
<polygon fill="white" stroke="none" points="-4,4 -4,-78 450,-78 450,4 -4,4"/>
<!-- 0 -->
<g id="node1" class="node">
<title>0</title>
<ellipse fill="none" stroke="black" stroke-width="2" cx="96" cy="-18" rx="18" ry="18"/>
<text text-anchor="middle" x="96" y="-12.95" font-family="Times,serif" font-size="14.00">0</text>
</g>
<!-- 1 -->
<g id="node2" class="node">
<title>1</title>
<ellipse fill="none" stroke="black" cx="182.5" cy="-52" rx="18" ry="18"/>
<ellipse fill="none" stroke="black" cx="182.5" cy="-52" rx="22" ry="22"/>
<text text-anchor="middle" x="182.5" y="-46.95" font-family="Times,serif" font-size="14.00">1</text>
</g>
<!-- 0&#45;&gt;1 -->
<g id="edge1" class="edge">
<title>0&#45;&gt;1</title>
<path fill="none" stroke="black" d="M113.29,-24.56C124.19,-28.94 138.85,-34.84 151.79,-40.04"/>
<polygon fill="black" stroke="black" points="150.1,-43.54 160.69,-44.03 152.72,-37.05 150.1,-43.54"/>
<text text-anchor="middle" x="137.25" y="-41.2" font-family="Times,serif" font-size="14.00">a:p</text>
</g>
<!-- 2 -->
<g id="node3" class="node">
<title>2</title>
<ellipse fill="none" stroke="black" cx="269.75" cy="-50" rx="18" ry="18"/>
<text text-anchor="middle" x="269.75" y="-44.95" font-family="Times,serif" font-size="14.00">2</text>
</g>
<!-- 1&#45;&gt;2 -->
<g id="edge2" class="edge">
<title>1&#45;&gt;2</title>
<path fill="none" stroke="black" d="M204.57,-51.51C215.48,-51.25 228.95,-50.93 240.73,-50.66"/>
<polygon fill="black" stroke="black" points="240.45,-54.14 250.36,-50.41 240.28,-47.14 240.45,-54.14"/>
<text text-anchor="middle" x="228.12" y="-54.2" font-family="Times,serif" font-size="14.00">b:q</text>
</g>
<!-- 3 -->
<g id="node4" class="node">
<title>3</title>
<ellipse fill="none" stroke="black" cx="350" cy="-18" rx="18" ry="18"/>
<text text-anchor="middle" x="350" y="-12.95" font-family="Times,serif" font-size="14.00">3</text>
</g>
<!-- 2&#45;&gt;3 -->
<g id="edge3" class="edge">
<title>2&#45;&gt;3</title>
<path fill="none" stroke="black" d="M286.96,-43.37C297.35,-39.12 311.06,-33.51 322.96,-28.65"/>
<polygon fill="black" stroke="black" points="323.88,-31.65 331.81,-24.62 321.23,-25.17 323.88,-31.65"/>
<text text-anchor="middle" x="309.88" y="-40.2" font-family="Times,serif" font-size="14.00">c:r</text>
</g>
<!-- 3&#45;&gt;0 -->
<g id="edge5" class="edge">
<title>3&#45;&gt;0</title>
<path fill="none" stroke="black" d="M331.56,-18C288.63,-18 177.55,-18 125.15,-18"/>
<polygon fill="black" stroke="black" points="125.32,-14.5 115.32,-18 125.32,-21.5 125.32,-14.5"/>
<text text-anchor="middle" x="228.12" y="-21.2" font-family="Times,serif" font-size="14.00">d:s</text>
</g>
<!-- 4 -->
<g id="node5" class="node">
<title>4</title>
<ellipse fill="none" stroke="black" cx="428" cy="-18" rx="18" ry="18"/>
<text text-anchor="middle" x="428" y="-12.95" font-family="Times,serif" font-size="14.00">4</text>
</g>
<!-- 3&#45;&gt;4 -->
<g id="edge4" class="edge">
<title>3&#45;&gt;4</title>
<path fill="none" stroke="black" d="M368.25,-18C377.22,-18 388.42,-18 398.63,-18"/>
<polygon fill="black" stroke="black" points="398.56,-21.5 408.56,-18 398.56,-14.5 398.56,-21.5"/>
<text text-anchor="middle" x="389" y="-21.2" font-family="Times,serif" font-size="14.00">f:t</text>
</g>
<!-- 5 -->
<g id="node6" class="node">
<title>5</title>
<ellipse fill="none" stroke="black" cx="18" cy="-18" rx="18" ry="18"/>
<text text-anchor="middle" x="18" y="-12.95" font-family="Times,serif" font-size="14.00">5</text>
</g>
<!-- 5&#45;&gt;0 -->
<g id="edge6" class="edge">
<title>5&#45;&gt;0</title>
<path fill="none" stroke="black" d="M36.25,-18C45.22,-18 56.42,-18 66.63,-18"/>
<polygon fill="black" stroke="black" points="66.56,-21.5 76.56,-18 66.56,-14.5 66.56,-21.5"/>
<text text-anchor="middle" x="57" y="-21.2" font-family="Times,serif" font-size="14.00">f:t</text>
</g>
</g>
</svg>
