<?xml version="1.0" encoding="UTF-8" standalone="no"?>
<!DOCTYPE svg PUBLIC "-//W3C//DTD SVG 1.1//EN"
 "http://www.w3.org/Graphics/SVG/1.1/DTD/svg11.dtd">
<!-- Generated by graphviz version 9.0.0 (20230911.1827)
 -->
<!-- Title: FST Pages: 1 -->
<svg width="177pt" height="172pt"
 viewBox="0.00 0.00 176.96 172.36" xmlns="http://www.w3.org/2000/svg" xmlns:xlink="http://www.w3.org/1999/xlink">
<g id="graph0" class="graph" transform="scale(1 1) rotate(0) translate(4 168.36)">
<title>FST</title>
<polygon fill="white" stroke="none" points="-4,4 -4,-168.36 172.96,-168.36 172.96,4 -4,4"/>
<!-- 0 -->
<g id="node1" class="node">
<title>0</title>
<ellipse fill="none" stroke="black" stroke-width="2" cx="18" cy="-53.86" rx="18" ry="18"/>
<text text-anchor="middle" x="18" y="-48.81" font-family="Times,serif" font-size="14.00">0</text>
</g>
<!-- 1 -->
<g id="node2" class="node">
<title>1</title>
<ellipse fill="none" stroke="black" cx="135.11" cy="-107.86" rx="18" ry="18"/>
<ellipse fill="none" stroke="black" cx="135.11" cy="-107.86" rx="22" ry="22"/>
<text text-anchor="middle" x="135.11" y="-102.81" font-family="Times,serif" font-size="14.00">1</text>
</g>
<!-- 0&#45;&gt;1 -->
<g id="edge1" class="edge">
<title>0&#45;&gt;1</title>
<path fill="none" stroke="black" d="M34.52,-61.14C52.35,-69.5 82,-83.41 104.32,-93.88"/>
<polygon fill="black" stroke="black" points="102.7,-96.99 113.24,-98.06 105.67,-90.65 102.7,-96.99"/>
<text text-anchor="middle" x="68.62" y="-87.06" font-family="Times,serif" font-size="14.00">a:q/1</text>
</g>
<!-- 2 -->
<g id="node3" class="node">
<title>2</title>
<ellipse fill="none" stroke="black" cx="135.11" cy="-33.86" rx="29.86" ry="29.86"/>
<ellipse fill="none" stroke="black" cx="135.11" cy="-33.86" rx="33.86" ry="33.86"/>
<text text-anchor="middle" x="135.11" y="-28.81" font-family="Times,serif" font-size="14.00">2/2.5</text>
</g>
<!-- 0&#45;&gt;2 -->
<g id="edge2" class="edge">
<title>0&#45;&gt;2</title>
<path fill="none" stroke="black" d="M35.98,-50.9C50.24,-48.43 71.26,-44.78 90.18,-41.49"/>
<polygon fill="black" stroke="black" points="90.57,-44.97 99.83,-39.81 89.38,-38.08 90.57,-44.97"/>
<text text-anchor="middle" x="68.62" y="-52.06" font-family="Times,serif" font-size="14.00">a:r/2.5</text>
</g>
<!-- 1&#45;&gt;1 -->
<g id="edge3" class="edge">
<title>1&#45;&gt;1</title>
<path fill="none" stroke="black" d="M123.33,-126.79C120.92,-137.7 124.85,-147.86 135.11,-147.86 141.52,-147.86 145.45,-143.89 146.92,-138.25"/>
<polygon fill="black" stroke="black" points="150.42,-138.29 146.89,-128.3 143.42,-138.31 150.42,-138.29"/>
<text text-anchor="middle" x="135.11" y="-151.06" font-family="Times,serif" font-size="14.00">c:s/1</text>
</g>
</g>
</svg>
