<?xml version="1.0" encoding="UTF-8" standalone="no"?>
<!DOCTYPE svg PUBLIC "-//W3C//DTD SVG 1.1//EN"
 "http://www.w3.org/Graphics/SVG/1.1/DTD/svg11.dtd">
<!-- Generated by graphviz version 8.1.0 (20230707.0739)
 -->
<!-- Title: FST Pages: 1 -->
<svg width="177pt" height="172pt"
 viewBox="0.00 0.00 176.96 172.36" xmlns="http://www.w3.org/2000/svg" xmlns:xlink="http://www.w3.org/1999/xlink">
<g id="graph0" class="graph" transform="scale(1 1) rotate(0) translate(4 168.36)">
<title>FST</title>
<polygon fill="white" stroke="none" points="-4,4 -4,-168.36 172.96,-168.36 172.96,4 -4,4"/>
<!-- 0 -->
<g id="node1" class="node">
<title>0</title>
<ellipse fill="none" stroke="black" stroke-width="2" cx="18" cy="-53.86" rx="18" ry="18"/>
<text text-anchor="middle" x="18" y="-48.81" font-family="Times,serif" font-size="14.00">0</text>
</g>
<!-- 1 -->
<g id="node2" class="node">
<title>1</title>
<ellipse fill="none" stroke="black" cx="135.11" cy="-107.86" rx="18" ry="18"/>
<ellipse fill="none" stroke="black" cx="135.11" cy="-107.86" rx="22" ry="22"/>
<text text-anchor="middle" x="135.11" y="-102.81" font-family="Times,serif" font-size="14.00">1</text>
</g>
<!-- 0&#45;&gt;1 -->
<g id="edge1" class="edge">
<title>0&#45;&gt;1</title>
<path fill="none" stroke="black" d="M34.52,-61.14C52.51,-69.58 82.54,-83.66 104.93,-94.17"/>
<polygon fill="black" stroke="black" points="103.07,-97.63 113.61,-98.71 106.04,-91.29 103.07,-97.63"/>
<text text-anchor="middle" x="68.62" y="-87.06" font-family="Times,serif" font-size="14.00">a:q/1</text>
</g>
<!-- 2 -->
<g id="node3" class="node">
<title>2</title>
<ellipse fill="none" stroke="black" cx="135.11" cy="-33.86" rx="29.86" ry="29.86"/>
<ellipse fill="none" stroke="black" cx="135.11" cy="-33.86" rx="33.86" ry="33.86"/>
<text text-anchor="middle" x="135.11" y="-28.81" font-family="Times,serif" font-size="14.00">2/2.5</text>
</g>
<!-- 0&#45;&gt;2 -->
<g id="edge2" class="edge">
<title>0&#45;&gt;2</title>
<path fill="none" stroke="black" d="M35.98,-50.9C50.37,-48.4 71.65,-44.71 90.72,-41.39"/>
<polygon fill="black" stroke="black" points="91.07,-44.71 100.32,-39.55 89.87,-37.82 91.07,-44.71"/>
<text text-anchor="middle" x="68.62" y="-52.06" font-family="Times,serif" font-size="14.00">a:r/2.5</text>
</g>
<!-- 1&#45;&gt;1 -->
<g id="edge3" class="edge">
<title>1&#45;&gt;1</title>
<path fill="none" stroke="black" d="M123.33,-126.79C120.92,-137.7 124.85,-147.86 135.11,-147.86 141.84,-147.86 145.84,-143.48 147.12,-137.39"/>
<polygon fill="black" stroke="black" points="150.61,-137.71 146.89,-127.79 143.61,-137.86 150.61,-137.71"/>
<text text-anchor="middle" x="135.11" y="-151.06" font-family="Times,serif" font-size="14.00">c:s/1</text>
</g>
</g>
</svg>
