<?xml version="1.0" encoding="UTF-8" standalone="no"?>
<!DOCTYPE svg PUBLIC "-//W3C//DTD SVG 1.1//EN"
 "http://www.w3.org/Graphics/SVG/1.1/DTD/svg11.dtd">
<!-- Generated by graphviz version 2.43.0 (0)
 -->
<!-- Title: FST Pages: 1 -->
<svg width="502pt" height="89pt"
 viewBox="0.00 0.00 501.50 89.47" xmlns="http://www.w3.org/2000/svg" xmlns:xlink="http://www.w3.org/1999/xlink">
<g id="graph0" class="graph" transform="scale(1 1) rotate(0) translate(4 85.47)">
<title>FST</title>
<polygon fill="white" stroke="transparent" points="-4,4 -4,-85.47 497.5,-85.47 497.5,4 -4,4"/>
<!-- 0 -->
<g id="node1" class="node">
<title>0</title>
<ellipse fill="none" stroke="black" stroke-width="2" cx="25.5" cy="-30.47" rx="18" ry="18"/>
<text text-anchor="middle" x="25.5" y="-26.77" font-family="Times,serif" font-size="14.00">0</text>
</g>
<!-- 0&#45;&gt;0 -->
<g id="edge1" class="edge">
<title>0&#45;&gt;0</title>
<path fill="none" stroke="black" d="M15.69,-45.64C12.71,-56.13 15.98,-66.47 25.5,-66.47 31.74,-66.47 35.3,-62.02 36.17,-55.99"/>
<polygon fill="black" stroke="black" points="39.62,-55.32 35.31,-45.64 32.65,-55.89 39.62,-55.32"/>
<text text-anchor="middle" x="25.5" y="-70.27" font-family="Times,serif" font-size="14.00">e:E/0.3</text>
</g>
<!-- 1 -->
<g id="node2" class="node">
<title>1</title>
<ellipse fill="none" stroke="black" cx="143.5" cy="-30.47" rx="18" ry="18"/>
<text text-anchor="middle" x="143.5" y="-26.77" font-family="Times,serif" font-size="14.00">1</text>
</g>
<!-- 0&#45;&gt;1 -->
<g id="edge2" class="edge">
<title>0&#45;&gt;1</title>
<path fill="none" stroke="black" d="M43.62,-30.47C62.46,-30.47 93.03,-30.47 115.2,-30.47"/>
<polygon fill="black" stroke="black" points="115.31,-33.97 125.31,-30.47 115.31,-26.97 115.31,-33.97"/>
<text text-anchor="middle" x="84.5" y="-34.27" font-family="Times,serif" font-size="14.00">a:A/1</text>
</g>
<!-- 0&#45;&gt;1 -->
<g id="edge3" class="edge">
<title>0&#45;&gt;1</title>
<path fill="none" stroke="black" d="M40.41,-20.01C45.77,-16.59 52.14,-13.22 58.5,-11.47 80.79,-5.35 88.21,-5.35 110.5,-11.47 113.58,-12.32 116.66,-13.54 119.63,-14.97"/>
<polygon fill="black" stroke="black" points="118.16,-18.16 128.59,-20.01 121.59,-12.06 118.16,-18.16"/>
<text text-anchor="middle" x="84.5" y="-15.27" font-family="Times,serif" font-size="14.00">b:B/2.5</text>
</g>
<!-- 1&#45;&gt;1 -->
<g id="edge6" class="edge">
<title>1&#45;&gt;1</title>
<path fill="none" stroke="black" d="M133.69,-45.64C130.71,-56.13 133.98,-66.47 143.5,-66.47 149.74,-66.47 153.3,-62.02 154.17,-55.99"/>
<polygon fill="black" stroke="black" points="157.62,-55.32 153.31,-45.64 150.65,-55.89 157.62,-55.32"/>
<text text-anchor="middle" x="143.5" y="-70.27" font-family="Times,serif" font-size="14.00">f:F/0.03</text>
</g>
<!-- 2 -->
<g id="node3" class="node">
<title>2</title>
<ellipse fill="none" stroke="black" cx="339.5" cy="-30.47" rx="18" ry="18"/>
<text text-anchor="middle" x="339.5" y="-26.77" font-family="Times,serif" font-size="14.00">2</text>
</g>
<!-- 1&#45;&gt;2 -->
<g id="edge4" class="edge">
<title>1&#45;&gt;2</title>
<path fill="none" stroke="black" d="M161.72,-30.47C195.44,-30.47 270.44,-30.47 311.07,-30.47"/>
<polygon fill="black" stroke="black" points="311.32,-33.97 321.32,-30.47 311.32,-26.97 311.32,-33.97"/>
<text text-anchor="middle" x="241.5" y="-34.27" font-family="Times,serif" font-size="14.00">&lt;eps&gt;:&lt;eps&gt;/0.3</text>
</g>
<!-- 1&#45;&gt;2 -->
<g id="edge5" class="edge">
<title>1&#45;&gt;2</title>
<path fill="none" stroke="black" d="M158.41,-20.01C163.77,-16.59 170.14,-13.22 176.5,-11.47 232.22,3.82 250.78,3.82 306.5,-11.47 309.58,-12.32 312.66,-13.54 315.63,-14.97"/>
<polygon fill="black" stroke="black" points="314.16,-18.16 324.59,-20.01 317.59,-12.06 314.16,-18.16"/>
<text text-anchor="middle" x="241.5" y="-15.27" font-family="Times,serif" font-size="14.00">&lt;eps&gt;:&lt;eps&gt;/0.4</text>
</g>
<!-- 2&#45;&gt;2 -->
<g id="edge7" class="edge">
<title>2&#45;&gt;2</title>
<path fill="none" stroke="black" d="M328.79,-45.26C325.31,-55.89 328.88,-66.47 339.5,-66.47 346.64,-66.47 350.59,-61.69 351.36,-55.34"/>
<polygon fill="black" stroke="black" points="354.82,-54.8 350.21,-45.26 347.87,-55.6 354.82,-54.8"/>
<text text-anchor="middle" x="339.5" y="-70.27" font-family="Times,serif" font-size="14.00">g:G/0.8</text>
</g>
<!-- 3 -->
<g id="node4" class="node">
<title>3</title>
<ellipse fill="none" stroke="black" cx="471.5" cy="-30.47" rx="18" ry="18"/>
<ellipse fill="none" stroke="black" cx="471.5" cy="-30.47" rx="22" ry="22"/>
<text text-anchor="middle" x="471.5" y="-26.77" font-family="Times,serif" font-size="14.00">3</text>
</g>
<!-- 2&#45;&gt;3 -->
<g id="edge8" class="edge">
<title>2&#45;&gt;3</title>
<path fill="none" stroke="black" d="M357.76,-30.47C378.43,-30.47 413.45,-30.47 438.99,-30.47"/>
<polygon fill="black" stroke="black" points="439.28,-33.97 449.28,-30.47 439.28,-26.97 439.28,-33.97"/>
<text text-anchor="middle" x="403.5" y="-34.27" font-family="Times,serif" font-size="14.00">h:H/0.12</text>
</g>
</g>
</svg>
