<?xml version="1.0" encoding="UTF-8" standalone="no"?>
<!DOCTYPE svg PUBLIC "-//W3C//DTD SVG 1.1//EN"
 "http://www.w3.org/Graphics/SVG/1.1/DTD/svg11.dtd">
<!-- Generated by graphviz version 9.0.0 (20230911.1827)
 -->
<!-- Title: FST Pages: 1 -->
<svg width="434pt" height="90pt"
 viewBox="0.00 0.00 433.75 89.78" xmlns="http://www.w3.org/2000/svg" xmlns:xlink="http://www.w3.org/1999/xlink">
<g id="graph0" class="graph" transform="scale(1 1) rotate(0) translate(4 85.78)">
<title>FST</title>
<polygon fill="white" stroke="none" points="-4,4 -4,-85.78 429.75,-85.78 429.75,4 -4,4"/>
<!-- 0 -->
<g id="node1" class="node">
<title>0</title>
<ellipse fill="none" stroke="black" stroke-width="2" cx="19.5" cy="-29.28" rx="18" ry="18"/>
<text text-anchor="middle" x="19.5" y="-24.23" font-family="Times,serif" font-size="14.00">0</text>
</g>
<!-- 0&#45;&gt;0 -->
<g id="edge1" class="edge">
<title>0&#45;&gt;0</title>
<path fill="none" stroke="black" d="M10.31,-45.2C7.91,-55.43 10.97,-65.28 19.5,-65.28 24.7,-65.28 27.87,-61.62 29,-56.45"/>
<polygon fill="black" stroke="black" points="32.51,-56.61 28.74,-46.71 25.51,-56.8 32.51,-56.61"/>
<text text-anchor="middle" x="19.5" y="-68.48" font-family="Times,serif" font-size="14.00">e:E/0.3</text>
</g>
<!-- 1 -->
<g id="node2" class="node">
<title>1</title>
<ellipse fill="none" stroke="black" cx="126" cy="-29.28" rx="18" ry="18"/>
<text text-anchor="middle" x="126" y="-24.23" font-family="Times,serif" font-size="14.00">1</text>
</g>
<!-- 0&#45;&gt;1 -->
<g id="edge2" class="edge">
<title>0&#45;&gt;1</title>
<path fill="none" stroke="black" d="M37.76,-29.28C53.64,-29.28 77.51,-29.28 96.26,-29.28"/>
<polygon fill="black" stroke="black" points="96.2,-32.78 106.2,-29.28 96.2,-25.78 96.2,-32.78"/>
<text text-anchor="middle" x="72.75" y="-32.48" font-family="Times,serif" font-size="14.00">a:A/1</text>
</g>
<!-- 0&#45;&gt;1 -->
<g id="edge3" class="edge">
<title>0&#45;&gt;1</title>
<path fill="none" stroke="black" d="M33.98,-18.22C39.4,-14.46 45.91,-10.71 52.5,-8.78 69.77,-3.72 75.73,-3.72 93,-8.78 95.98,-9.66 98.95,-10.9 101.81,-12.36"/>
<polygon fill="black" stroke="black" points="99.85,-15.26 110.22,-17.44 103.48,-9.27 99.85,-15.26"/>
<text text-anchor="middle" x="72.75" y="-11.48" font-family="Times,serif" font-size="14.00">b:B/2.5</text>
</g>
<!-- 1&#45;&gt;1 -->
<g id="edge6" class="edge">
<title>1&#45;&gt;1</title>
<path fill="none" stroke="black" d="M116.81,-45.2C114.41,-55.43 117.47,-65.28 126,-65.28 131.2,-65.28 134.37,-61.62 135.5,-56.45"/>
<polygon fill="black" stroke="black" points="139.01,-56.61 135.24,-46.71 132.01,-56.8 139.01,-56.61"/>
<text text-anchor="middle" x="126" y="-68.48" font-family="Times,serif" font-size="14.00">f:F/0.03</text>
</g>
<!-- 2 -->
<g id="node3" class="node">
<title>2</title>
<ellipse fill="none" stroke="black" cx="285.75" cy="-29.28" rx="18" ry="18"/>
<text text-anchor="middle" x="285.75" y="-24.23" font-family="Times,serif" font-size="14.00">2</text>
</g>
<!-- 1&#45;&gt;2 -->
<g id="edge4" class="edge">
<title>1&#45;&gt;2</title>
<path fill="none" stroke="black" d="M144.48,-29.28C171.51,-29.28 223.72,-29.28 256.25,-29.28"/>
<polygon fill="black" stroke="black" points="256.15,-32.78 266.15,-29.28 256.15,-25.78 256.15,-32.78"/>
<text text-anchor="middle" x="205.88" y="-32.48" font-family="Times,serif" font-size="14.00">&lt;eps&gt;:&lt;eps&gt;/0.3</text>
</g>
<!-- 1&#45;&gt;2 -->
<g id="edge5" class="edge">
<title>1&#45;&gt;2</title>
<path fill="none" stroke="black" d="M140.48,-18.22C145.9,-14.46 152.41,-10.71 159,-8.78 198.99,2.93 212.76,2.93 252.75,-8.78 255.73,-9.66 258.7,-10.9 261.56,-12.36"/>
<polygon fill="black" stroke="black" points="259.6,-15.26 269.97,-17.44 263.23,-9.27 259.6,-15.26"/>
<text text-anchor="middle" x="205.88" y="-11.48" font-family="Times,serif" font-size="14.00">&lt;eps&gt;:&lt;eps&gt;/0.4</text>
</g>
<!-- 2&#45;&gt;2 -->
<g id="edge7" class="edge">
<title>2&#45;&gt;2</title>
<path fill="none" stroke="black" d="M276,-44.82C273.26,-55.19 276.51,-65.28 285.75,-65.28 291.38,-65.28 294.79,-61.54 295.97,-56.26"/>
<polygon fill="black" stroke="black" points="299.47,-56.18 295.56,-46.34 292.47,-56.47 299.47,-56.18"/>
<text text-anchor="middle" x="285.75" y="-68.48" font-family="Times,serif" font-size="14.00">g:G/0.8</text>
</g>
<!-- 3 -->
<g id="node4" class="node">
<title>3</title>
<ellipse fill="none" stroke="black" cx="403.75" cy="-29.28" rx="18" ry="18"/>
<ellipse fill="none" stroke="black" cx="403.75" cy="-29.28" rx="22" ry="22"/>
<text text-anchor="middle" x="403.75" y="-24.23" font-family="Times,serif" font-size="14.00">3</text>
</g>
<!-- 2&#45;&gt;3 -->
<g id="edge8" class="edge">
<title>2&#45;&gt;3</title>
<path fill="none" stroke="black" d="M304.12,-29.28C321.42,-29.28 348.42,-29.28 369.8,-29.28"/>
<polygon fill="black" stroke="black" points="369.8,-32.78 379.8,-29.28 369.8,-25.78 369.8,-32.78"/>
<text text-anchor="middle" x="342.75" y="-32.48" font-family="Times,serif" font-size="14.00">h:H/0.12</text>
</g>
</g>
</svg>
