<?xml version="1.0" encoding="UTF-8" standalone="no"?>
<!DOCTYPE svg PUBLIC "-//W3C//DTD SVG 1.1//EN"
 "http://www.w3.org/Graphics/SVG/1.1/DTD/svg11.dtd">
<!-- Generated by graphviz version 8.1.0 (20230707.0739)
 -->
<!-- Title: FST Pages: 1 -->
<svg width="434pt" height="90pt"
 viewBox="0.00 0.00 433.75 89.78" xmlns="http://www.w3.org/2000/svg" xmlns:xlink="http://www.w3.org/1999/xlink">
<g id="graph0" class="graph" transform="scale(1 1) rotate(0) translate(4 85.78)">
<title>FST</title>
<polygon fill="white" stroke="none" points="-4,4 -4,-85.78 429.75,-85.78 429.75,4 -4,4"/>
<!-- 0 -->
<g id="node1" class="node">
<title>0</title>
<ellipse fill="none" stroke="black" stroke-width="2" cx="19.5" cy="-29.28" rx="18" ry="18"/>
<text text-anchor="middle" x="19.5" y="-24.23" font-family="Times,serif" font-size="14.00">0</text>
</g>
<!-- 0&#45;&gt;0 -->
<g id="edge1" class="edge">
<title>0&#45;&gt;0</title>
<path fill="none" stroke="black" d="M10.31,-45.2C7.91,-55.43 10.97,-65.28 19.5,-65.28 24.83,-65.28 28.03,-61.44 29.09,-56.05"/>
<polygon fill="black" stroke="black" points="32.55,-56.07 28.69,-46.2 25.56,-56.32 32.55,-56.07"/>
<text text-anchor="middle" x="19.5" y="-68.48" font-family="Times,serif" font-size="14.00">e:E/0.3</text>
</g>
<!-- 1 -->
<g id="node2" class="node">
<title>1</title>
<ellipse fill="none" stroke="black" cx="126" cy="-29.28" rx="18" ry="18"/>
<text text-anchor="middle" x="126" y="-24.23" font-family="Times,serif" font-size="14.00">1</text>
</g>
<!-- 0&#45;&gt;1 -->
<g id="edge2" class="edge">
<title>0&#45;&gt;1</title>
<path fill="none" stroke="black" d="M37.76,-29.28C53.79,-29.28 77.96,-29.28 96.8,-29.28"/>
<polygon fill="black" stroke="black" points="96.72,-32.78 106.72,-29.28 96.72,-25.78 96.72,-32.78"/>
<text text-anchor="middle" x="72.75" y="-32.48" font-family="Times,serif" font-size="14.00">a:A/1</text>
</g>
<!-- 0&#45;&gt;1 -->
<g id="edge3" class="edge">
<title>0&#45;&gt;1</title>
<path fill="none" stroke="black" d="M33.98,-18.22C39.4,-14.46 45.91,-10.71 52.5,-8.78 69.77,-3.72 75.73,-3.72 93,-8.78 96.19,-9.72 99.36,-11.08 102.4,-12.66"/>
<polygon fill="black" stroke="black" points="100.16,-16 110.52,-18.22 103.81,-10.03 100.16,-16"/>
<text text-anchor="middle" x="72.75" y="-11.48" font-family="Times,serif" font-size="14.00">b:B/2.5</text>
</g>
<!-- 1&#45;&gt;1 -->
<g id="edge6" class="edge">
<title>1&#45;&gt;1</title>
<path fill="none" stroke="black" d="M116.81,-45.2C114.41,-55.43 117.47,-65.28 126,-65.28 131.33,-65.28 134.53,-61.44 135.59,-56.05"/>
<polygon fill="black" stroke="black" points="139.05,-56.07 135.19,-46.2 132.06,-56.32 139.05,-56.07"/>
<text text-anchor="middle" x="126" y="-68.48" font-family="Times,serif" font-size="14.00">f:F/0.03</text>
</g>
<!-- 2 -->
<g id="node3" class="node">
<title>2</title>
<ellipse fill="none" stroke="black" cx="285.75" cy="-29.28" rx="18" ry="18"/>
<text text-anchor="middle" x="285.75" y="-24.23" font-family="Times,serif" font-size="14.00">2</text>
</g>
<!-- 1&#45;&gt;2 -->
<g id="edge4" class="edge">
<title>1&#45;&gt;2</title>
<path fill="none" stroke="black" d="M144.48,-29.28C171.63,-29.28 224.18,-29.28 256.68,-29.28"/>
<polygon fill="black" stroke="black" points="256.67,-32.78 266.67,-29.28 256.67,-25.78 256.67,-32.78"/>
<text text-anchor="middle" x="205.88" y="-32.48" font-family="Times,serif" font-size="14.00">&lt;eps&gt;:&lt;eps&gt;/0.3</text>
</g>
<!-- 1&#45;&gt;2 -->
<g id="edge5" class="edge">
<title>1&#45;&gt;2</title>
<path fill="none" stroke="black" d="M140.48,-18.22C145.9,-14.46 152.41,-10.71 159,-8.78 198.99,2.93 212.76,2.93 252.75,-8.78 255.94,-9.72 259.11,-11.08 262.15,-12.66"/>
<polygon fill="black" stroke="black" points="259.91,-16 270.27,-18.22 263.56,-10.03 259.91,-16"/>
<text text-anchor="middle" x="205.88" y="-11.48" font-family="Times,serif" font-size="14.00">&lt;eps&gt;:&lt;eps&gt;/0.4</text>
</g>
<!-- 2&#45;&gt;2 -->
<g id="edge7" class="edge">
<title>2&#45;&gt;2</title>
<path fill="none" stroke="black" d="M276,-44.82C273.26,-55.19 276.51,-65.28 285.75,-65.28 291.67,-65.28 295.13,-61.14 296.13,-55.44"/>
<polygon fill="black" stroke="black" points="299.59,-55.6 295.5,-45.82 292.6,-56.02 299.59,-55.6"/>
<text text-anchor="middle" x="285.75" y="-68.48" font-family="Times,serif" font-size="14.00">g:G/0.8</text>
</g>
<!-- 3 -->
<g id="node4" class="node">
<title>3</title>
<ellipse fill="none" stroke="black" cx="403.75" cy="-29.28" rx="18" ry="18"/>
<ellipse fill="none" stroke="black" cx="403.75" cy="-29.28" rx="22" ry="22"/>
<text text-anchor="middle" x="403.75" y="-24.23" font-family="Times,serif" font-size="14.00">3</text>
</g>
<!-- 2&#45;&gt;3 -->
<g id="edge8" class="edge">
<title>2&#45;&gt;3</title>
<path fill="none" stroke="black" d="M304.12,-29.28C321.58,-29.28 348.93,-29.28 370.4,-29.28"/>
<polygon fill="black" stroke="black" points="370.31,-32.78 380.31,-29.28 370.31,-25.78 370.31,-32.78"/>
<text text-anchor="middle" x="342.75" y="-32.48" font-family="Times,serif" font-size="14.00">h:H/0.12</text>
</g>
</g>
</svg>
