<?xml version="1.0" encoding="UTF-8" standalone="no"?>
<!DOCTYPE svg PUBLIC "-//W3C//DTD SVG 1.1//EN"
 "http://www.w3.org/Graphics/SVG/1.1/DTD/svg11.dtd">
<!-- Generated by graphviz version 7.0.0 (20221023.0053)
 -->
<!-- Title: WFSA Pages: 1 -->
<svg width="339pt" height="83pt"
 viewBox="0.00 0.00 339.00 83.00" xmlns="http://www.w3.org/2000/svg" xmlns:xlink="http://www.w3.org/1999/xlink">
<g id="graph0" class="graph" transform="scale(1 1) rotate(0) translate(4 79)">
<title>WFSA</title>
<polygon fill="white" stroke="none" points="-4,4 -4,-79 335,-79 335,4 -4,4"/>
<!-- 0 -->
<g id="node1" class="node">
<title>0</title>
<ellipse fill="none" stroke="black" stroke-width="2" cx="18" cy="-22" rx="18" ry="18"/>
<text text-anchor="middle" x="18" y="-18.3" font-family="Times,serif" font-size="14.00">0</text>
</g>
<!-- 1 -->
<g id="node2" class="node">
<title>1</title>
<ellipse fill="none" stroke="black" stroke-width="2" cx="112" cy="-22" rx="18" ry="18"/>
<text text-anchor="middle" x="112" y="-18.3" font-family="Times,serif" font-size="14.00">1</text>
</g>
<!-- 0&#45;&gt;1 -->
<g id="edge1" class="edge">
<title>0&#45;&gt;1</title>
<path fill="none" stroke="black" d="M36.3,-22C49.28,-22 67.34,-22 82.44,-22"/>
<polygon fill="black" stroke="black" points="82.26,-25.5 92.26,-22 82.26,-18.5 82.26,-25.5"/>
<text text-anchor="middle" x="65" y="-25.8" font-family="Times,serif" font-size="14.00">a/0.5</text>
</g>
<!-- 0&#45;&gt;1 -->
<g id="edge2" class="edge">
<title>0&#45;&gt;1</title>
<path fill="none" stroke="black" d="M32.91,-11.54C38.27,-8.12 44.64,-4.74 51,-3 63,0.29 67,0.29 79,-3 81.78,-3.76 84.56,-4.84 87.26,-6.09"/>
<polygon fill="black" stroke="black" points="85.32,-9.02 95.77,-10.81 88.72,-2.9 85.32,-9.02"/>
<text text-anchor="middle" x="65" y="-6.8" font-family="Times,serif" font-size="14.00">b/1.5</text>
</g>
<!-- 2 -->
<g id="node3" class="node">
<title>2</title>
<ellipse fill="none" stroke="black" stroke-width="2" cx="206" cy="-57" rx="18" ry="18"/>
<text text-anchor="middle" x="206" y="-53.3" font-family="Times,serif" font-size="14.00">2</text>
</g>
<!-- 1&#45;&gt;2 -->
<g id="edge3" class="edge">
<title>1&#45;&gt;2</title>
<path fill="none" stroke="black" d="M129.03,-28.1C142.66,-33.28 162.52,-40.84 178.52,-46.93"/>
<polygon fill="black" stroke="black" points="176.84,-50.03 187.44,-50.32 179.33,-43.49 176.84,-50.03"/>
<text text-anchor="middle" x="159" y="-47.8" font-family="Times,serif" font-size="14.00">c/2.5</text>
</g>
<!-- 3 -->
<g id="node4" class="node">
<title>3</title>
<ellipse fill="none" stroke="black" stroke-width="2" cx="309" cy="-22" rx="18" ry="18"/>
<ellipse fill="none" stroke="black" stroke-width="2" cx="309" cy="-22" rx="22" ry="22"/>
<text text-anchor="middle" x="309" y="-18.3" font-family="Times,serif" font-size="14.00">3</text>
</g>
<!-- 1&#45;&gt;3 -->
<g id="edge4" class="edge">
<title>1&#45;&gt;3</title>
<path fill="none" stroke="black" d="M130.25,-19.93C145.43,-18.22 168.14,-15.92 188,-15 217.6,-13.62 251.29,-15.93 275.42,-18.25"/>
<polygon fill="black" stroke="black" points="274.95,-21.72 285.26,-19.26 275.67,-14.76 274.95,-21.72"/>
<text text-anchor="middle" x="206" y="-18.8" font-family="Times,serif" font-size="14.00">&#45;1/3</text>
</g>
<!-- 2&#45;&gt;3 -->
<g id="edge5" class="edge">
<title>2&#45;&gt;3</title>
<path fill="none" stroke="black" d="M223.23,-51.38C237.75,-46.34 259.44,-38.83 277.24,-32.66"/>
<polygon fill="black" stroke="black" points="278.26,-36.01 286.56,-29.43 275.96,-29.4 278.26,-36.01"/>
<text text-anchor="middle" x="255.5" y="-48.8" font-family="Times,serif" font-size="14.00">&#45;1/3.5</text>
</g>
</g>
</svg>
