<?xml version="1.0" encoding="UTF-8" standalone="no"?>
<!DOCTYPE svg PUBLIC "-//W3C//DTD SVG 1.1//EN"
 "http://www.w3.org/Graphics/SVG/1.1/DTD/svg11.dtd">
<!-- Generated by graphviz version 6.0.2 (20221011.1828)
 -->
<!-- Title: WFSA Pages: 1 -->
<svg width="339pt" height="83pt"
 viewBox="0.00 0.00 339.00 83.00" xmlns="http://www.w3.org/2000/svg" xmlns:xlink="http://www.w3.org/1999/xlink">
<g id="graph0" class="graph" transform="scale(1 1) rotate(0) translate(4 79)">
<title>WFSA</title>
<polygon fill="white" stroke="none" points="-4,4 -4,-79 335,-79 335,4 -4,4"/>
<!-- 0 -->
<g id="node1" class="node">
<title>0</title>
<ellipse fill="none" stroke="black" stroke-width="2" cx="18" cy="-22" rx="18" ry="18"/>
<text text-anchor="middle" x="18" y="-18.3" font-family="Times,serif" font-size="14.00">0</text>
</g>
<!-- 1 -->
<g id="node2" class="node">
<title>1</title>
<ellipse fill="none" stroke="black" stroke-width="2" cx="112" cy="-22" rx="18" ry="18"/>
<text text-anchor="middle" x="112" y="-18.3" font-family="Times,serif" font-size="14.00">1</text>
</g>
<!-- 0&#45;&gt;1 -->
<g id="edge1" class="edge">
<title>0&#45;&gt;1</title>
<path fill="none" stroke="black" d="M36.3,-22C49.54,-22 68.05,-22 83.34,-22"/>
<polygon fill="black" stroke="black" points="83.77,-25.5 93.77,-22 83.77,-18.5 83.77,-25.5"/>
<text text-anchor="middle" x="65" y="-25.8" font-family="Times,serif" font-size="14.00">a/0.5</text>
</g>
<!-- 0&#45;&gt;1 -->
<g id="edge2" class="edge">
<title>0&#45;&gt;1</title>
<path fill="none" stroke="black" d="M32.91,-11.54C38.27,-8.12 44.64,-4.74 51,-3 63,0.29 67,0.29 79,-3 82.08,-3.85 85.16,-5.07 88.13,-6.5"/>
<polygon fill="black" stroke="black" points="86.66,-9.69 97.09,-11.54 90.09,-3.59 86.66,-9.69"/>
<text text-anchor="middle" x="65" y="-6.8" font-family="Times,serif" font-size="14.00">b/1.5</text>
</g>
<!-- 2 -->
<g id="node3" class="node">
<title>2</title>
<ellipse fill="none" stroke="black" stroke-width="2" cx="206" cy="-57" rx="18" ry="18"/>
<text text-anchor="middle" x="206" y="-53.3" font-family="Times,serif" font-size="14.00">2</text>
</g>
<!-- 1&#45;&gt;2 -->
<g id="edge3" class="edge">
<title>1&#45;&gt;2</title>
<path fill="none" stroke="black" d="M129.03,-28.1C142.92,-33.38 163.29,-41.13 179.44,-47.27"/>
<polygon fill="black" stroke="black" points="178.26,-50.57 188.85,-50.86 180.75,-44.03 178.26,-50.57"/>
<text text-anchor="middle" x="159" y="-47.8" font-family="Times,serif" font-size="14.00">c/2.5</text>
</g>
<!-- 3 -->
<g id="node4" class="node">
<title>3</title>
<ellipse fill="none" stroke="black" stroke-width="2" cx="309" cy="-22" rx="18" ry="18"/>
<ellipse fill="none" stroke="black" stroke-width="2" cx="309" cy="-22" rx="22" ry="22"/>
<text text-anchor="middle" x="309" y="-18.3" font-family="Times,serif" font-size="14.00">3</text>
</g>
<!-- 1&#45;&gt;3 -->
<g id="edge4" class="edge">
<title>1&#45;&gt;3</title>
<path fill="none" stroke="black" d="M129.95,-19.96C145.13,-18.25 168.01,-15.93 188,-15 218.14,-13.6 252.52,-16.01 276.73,-18.38"/>
<polygon fill="black" stroke="black" points="276.46,-21.87 286.76,-19.42 277.18,-14.91 276.46,-21.87"/>
<text text-anchor="middle" x="206" y="-18.8" font-family="Times,serif" font-size="14.00">&#45;1/3</text>
</g>
<!-- 2&#45;&gt;3 -->
<g id="edge5" class="edge">
<title>2&#45;&gt;3</title>
<path fill="none" stroke="black" d="M223.23,-51.38C238.1,-46.22 260.47,-38.47 278.5,-32.22"/>
<polygon fill="black" stroke="black" points="279.69,-35.52 287.99,-28.93 277.39,-28.9 279.69,-35.52"/>
<text text-anchor="middle" x="255.5" y="-48.8" font-family="Times,serif" font-size="14.00">&#45;1/3.5</text>
</g>
</g>
</svg>
