<?xml version="1.0" encoding="UTF-8" standalone="no"?>
<!DOCTYPE svg PUBLIC "-//W3C//DTD SVG 1.1//EN"
 "http://www.w3.org/Graphics/SVG/1.1/DTD/svg11.dtd">
<!-- Generated by graphviz version 9.0.0 (20230911.1827)
 -->
<!-- Title: WFSA Pages: 1 -->
<svg width="337pt" height="86pt"
 viewBox="0.00 0.00 337.00 86.10" xmlns="http://www.w3.org/2000/svg" xmlns:xlink="http://www.w3.org/1999/xlink">
<g id="graph0" class="graph" transform="scale(1 1) rotate(0) translate(4 82.1)">
<title>WFSA</title>
<polygon fill="white" stroke="none" points="-4,4 -4,-82.1 333,-82.1 333,4 -4,4"/>
<!-- 0 -->
<g id="node1" class="node">
<title>0</title>
<ellipse fill="none" stroke="black" stroke-width="2" cx="18" cy="-23.1" rx="18" ry="18"/>
<text text-anchor="middle" x="18" y="-18.05" font-family="Times,serif" font-size="14.00">0</text>
</g>
<!-- 1 -->
<g id="node2" class="node">
<title>1</title>
<ellipse fill="none" stroke="black" stroke-width="2" cx="111.75" cy="-23.1" rx="18" ry="18"/>
<text text-anchor="middle" x="111.75" y="-18.05" font-family="Times,serif" font-size="14.00">1</text>
</g>
<!-- 0&#45;&gt;1 -->
<g id="edge1" class="edge">
<title>0&#45;&gt;1</title>
<path fill="none" stroke="black" d="M36.26,-23.1C49.12,-23.1 66.98,-23.1 81.98,-23.1"/>
<polygon fill="black" stroke="black" points="81.74,-26.6 91.74,-23.1 81.74,-19.6 81.74,-26.6"/>
<text text-anchor="middle" x="64.88" y="-26.3" font-family="Times,serif" font-size="14.00">a/0.5</text>
</g>
<!-- 0&#45;&gt;1 -->
<g id="edge2" class="edge">
<title>0&#45;&gt;1</title>
<path fill="none" stroke="black" d="M32.48,-12.04C37.9,-8.27 44.41,-4.53 51,-2.6 62.84,0.87 66.91,0.87 78.75,-2.6 81.73,-3.47 84.7,-4.72 87.56,-6.17"/>
<polygon fill="black" stroke="black" points="85.6,-9.08 95.97,-11.26 89.23,-3.09 85.6,-9.08"/>
<text text-anchor="middle" x="64.88" y="-6.3" font-family="Times,serif" font-size="14.00">b/1.5</text>
</g>
<!-- 2 -->
<g id="node3" class="node">
<title>2</title>
<ellipse fill="none" stroke="black" stroke-width="2" cx="204.75" cy="-60.1" rx="18" ry="18"/>
<text text-anchor="middle" x="204.75" y="-55.05" font-family="Times,serif" font-size="14.00">2</text>
</g>
<!-- 1&#45;&gt;2 -->
<g id="edge3" class="edge">
<title>1&#45;&gt;2</title>
<path fill="none" stroke="black" d="M129.02,-29.71C142.35,-35.13 161.48,-42.91 177.05,-49.24"/>
<polygon fill="black" stroke="black" points="175.64,-52.45 186.22,-52.97 178.27,-45.96 175.64,-52.45"/>
<text text-anchor="middle" x="158.25" y="-49.3" font-family="Times,serif" font-size="14.00">c/2.5</text>
</g>
<!-- 3 -->
<g id="node4" class="node">
<title>3</title>
<ellipse fill="none" stroke="black" stroke-width="2" cx="307" cy="-23.1" rx="18" ry="18"/>
<ellipse fill="none" stroke="black" stroke-width="2" cx="307" cy="-23.1" rx="22" ry="22"/>
<text text-anchor="middle" x="307" y="-18.05" font-family="Times,serif" font-size="14.00">3</text>
</g>
<!-- 1&#45;&gt;3 -->
<g id="edge4" class="edge">
<title>1&#45;&gt;3</title>
<path fill="none" stroke="black" d="M130.07,-21.15C145.04,-19.56 167.29,-17.45 186.75,-16.6 216.17,-15.31 249.64,-17.45 273.62,-19.61"/>
<polygon fill="black" stroke="black" points="273.1,-23.08 283.39,-20.55 273.77,-16.11 273.1,-23.08"/>
<text text-anchor="middle" x="204.75" y="-20.3" font-family="Times,serif" font-size="14.00">&#45;1/3</text>
</g>
<!-- 2&#45;&gt;3 -->
<g id="edge5" class="edge">
<title>2&#45;&gt;3</title>
<path fill="none" stroke="black" d="M221.86,-54.15C236.18,-48.87 257.52,-40.99 275.13,-34.49"/>
<polygon fill="black" stroke="black" points="276.19,-37.83 284.36,-31.09 273.77,-31.27 276.19,-37.83"/>
<text text-anchor="middle" x="253.88" y="-51.3" font-family="Times,serif" font-size="14.00">&#45;1/3.5</text>
</g>
</g>
</svg>
