<?xml version="1.0" encoding="UTF-8" standalone="no"?>
<!DOCTYPE svg PUBLIC "-//W3C//DTD SVG 1.1//EN"
 "http://www.w3.org/Graphics/SVG/1.1/DTD/svg11.dtd">
<!-- Generated by graphviz version 2.43.0 (0)
 -->
<!-- Title: WFSA Pages: 1 -->
<svg width="363pt" height="83pt"
 viewBox="0.00 0.00 363.00 83.26" xmlns="http://www.w3.org/2000/svg" xmlns:xlink="http://www.w3.org/1999/xlink">
<g id="graph0" class="graph" transform="scale(1 1) rotate(0) translate(4 79.26)">
<title>WFSA</title>
<polygon fill="white" stroke="transparent" points="-4,4 -4,-79.26 359,-79.26 359,4 -4,4"/>
<!-- 0 -->
<g id="node1" class="node">
<title>0</title>
<ellipse fill="none" stroke="black" stroke-width="2" cx="18" cy="-22.26" rx="18" ry="18"/>
<text text-anchor="middle" x="18" y="-18.56" font-family="Times,serif" font-size="14.00">0</text>
</g>
<!-- 1 -->
<g id="node2" class="node">
<title>1</title>
<ellipse fill="none" stroke="black" stroke-width="2" cx="121" cy="-22.26" rx="18" ry="18"/>
<text text-anchor="middle" x="121" y="-18.56" font-family="Times,serif" font-size="14.00">1</text>
</g>
<!-- 0&#45;&gt;1 -->
<g id="edge1" class="edge">
<title>0&#45;&gt;1</title>
<path fill="none" stroke="black" d="M36.13,-22.26C51.59,-22.26 74.58,-22.26 92.59,-22.26"/>
<polygon fill="black" stroke="black" points="92.78,-25.76 102.78,-22.26 92.78,-18.76 92.78,-25.76"/>
<text text-anchor="middle" x="69.5" y="-26.06" font-family="Times,serif" font-size="14.00">a/0.5</text>
</g>
<!-- 0&#45;&gt;1 -->
<g id="edge2" class="edge">
<title>0&#45;&gt;1</title>
<path fill="none" stroke="black" d="M32.91,-11.8C38.27,-8.38 44.64,-5.01 51,-3.26 66.86,1.09 72.14,1.09 88,-3.26 91.08,-4.11 94.16,-5.34 97.13,-6.77"/>
<polygon fill="black" stroke="black" points="95.66,-9.95 106.09,-11.8 99.09,-3.85 95.66,-9.95"/>
<text text-anchor="middle" x="69.5" y="-7.06" font-family="Times,serif" font-size="14.00">b/1.5</text>
</g>
<!-- 2 -->
<g id="node3" class="node">
<title>2</title>
<ellipse fill="none" stroke="black" stroke-width="2" cx="222" cy="-57.26" rx="18" ry="18"/>
<text text-anchor="middle" x="222" y="-53.56" font-family="Times,serif" font-size="14.00">2</text>
</g>
<!-- 1&#45;&gt;2 -->
<g id="edge3" class="edge">
<title>1&#45;&gt;2</title>
<path fill="none" stroke="black" d="M138.35,-28.04C153.75,-33.49 177.09,-41.74 195.04,-48.09"/>
<polygon fill="black" stroke="black" points="194.03,-51.44 204.63,-51.48 196.37,-44.84 194.03,-51.44"/>
<text text-anchor="middle" x="171.5" y="-49.06" font-family="Times,serif" font-size="14.00">c/2.5</text>
</g>
<!-- 3 -->
<g id="node4" class="node">
<title>3</title>
<ellipse fill="none" stroke="black" stroke-width="2" cx="333" cy="-22.26" rx="18" ry="18"/>
<ellipse fill="none" stroke="black" stroke-width="2" cx="333" cy="-22.26" rx="22" ry="22"/>
<text text-anchor="middle" x="333" y="-18.56" font-family="Times,serif" font-size="14.00">3</text>
</g>
<!-- 1&#45;&gt;3 -->
<g id="edge4" class="edge">
<title>1&#45;&gt;3</title>
<path fill="none" stroke="black" d="M138.93,-20.4C155.5,-18.67 181.45,-16.23 204,-15.26 237.03,-13.86 274.82,-16.44 300.73,-18.86"/>
<polygon fill="black" stroke="black" points="300.42,-22.34 310.72,-19.83 301.11,-15.38 300.42,-22.34"/>
<text text-anchor="middle" x="222" y="-19.06" font-family="Times,serif" font-size="14.00">&#45;1/3</text>
</g>
<!-- 2&#45;&gt;3 -->
<g id="edge5" class="edge">
<title>2&#45;&gt;3</title>
<path fill="none" stroke="black" d="M239.55,-51.95C256.16,-46.62 282.11,-38.29 302.29,-31.81"/>
<polygon fill="black" stroke="black" points="303.5,-35.09 311.95,-28.7 301.36,-28.43 303.5,-35.09"/>
<text text-anchor="middle" x="275.5" y="-50.06" font-family="Times,serif" font-size="14.00">&#45;1/3.5</text>
</g>
</g>
</svg>
