<?xml version="1.0" encoding="UTF-8" standalone="no"?>
<!DOCTYPE svg PUBLIC "-//W3C//DTD SVG 1.1//EN"
 "http://www.w3.org/Graphics/SVG/1.1/DTD/svg11.dtd">
<!-- Generated by graphviz version 6.0.1 (20220911.1526)
 -->
<!-- Title: WFST Pages: 1 -->
<svg width="375pt" height="83pt"
 viewBox="0.00 0.00 375.00 83.44" xmlns="http://www.w3.org/2000/svg" xmlns:xlink="http://www.w3.org/1999/xlink">
<g id="graph0" class="graph" transform="scale(1 1) rotate(0) translate(4 79.44)">
<title>WFST</title>
<polygon fill="white" stroke="none" points="-4,4 -4,-79.44 371,-79.44 371,4 -4,4"/>
<!-- 0 -->
<g id="node1" class="node">
<title>0</title>
<ellipse fill="none" stroke="black" stroke-width="2" cx="18" cy="-22.44" rx="18" ry="18"/>
<text text-anchor="middle" x="18" y="-18.74" font-family="Times,serif" font-size="14.00">0</text>
</g>
<!-- 1 -->
<g id="node2" class="node">
<title>1</title>
<ellipse fill="none" stroke="black" stroke-width="2" cx="123" cy="-22.44" rx="18" ry="18"/>
<text text-anchor="middle" x="123" y="-18.74" font-family="Times,serif" font-size="14.00">1</text>
</g>
<!-- 0&#45;&gt;1 -->
<g id="edge1" class="edge">
<title>0&#45;&gt;1</title>
<path fill="none" stroke="black" d="M36.01,-22.44C51.96,-22.44 76.09,-22.44 94.73,-22.44"/>
<polygon fill="black" stroke="black" points="94.97,-25.94 104.97,-22.44 94.97,-18.94 94.97,-25.94"/>
<text text-anchor="middle" x="70.5" y="-26.24" font-family="Times,serif" font-size="14.00">a:x/0.5</text>
</g>
<!-- 0&#45;&gt;1 -->
<g id="edge2" class="edge">
<title>0&#45;&gt;1</title>
<path fill="none" stroke="black" d="M32.91,-11.98C38.27,-8.56 44.64,-5.19 51,-3.44 67.72,1.15 73.28,1.15 90,-3.44 93.08,-4.29 96.16,-5.51 99.13,-6.94"/>
<polygon fill="black" stroke="black" points="97.66,-10.13 108.09,-11.98 101.09,-4.03 97.66,-10.13"/>
<text text-anchor="middle" x="70.5" y="-7.24" font-family="Times,serif" font-size="14.00">b:y/1.5</text>
</g>
<!-- 2 -->
<g id="node3" class="node">
<title>2</title>
<ellipse fill="none" stroke="black" stroke-width="2" cx="226.5" cy="-57.44" rx="18" ry="18"/>
<text text-anchor="middle" x="226.5" y="-53.74" font-family="Times,serif" font-size="14.00">2</text>
</g>
<!-- 1&#45;&gt;2 -->
<g id="edge3" class="edge">
<title>1&#45;&gt;2</title>
<path fill="none" stroke="black" d="M140.31,-28.06C156.29,-33.58 180.9,-42.06 199.57,-48.5"/>
<polygon fill="black" stroke="black" points="198.64,-51.88 209.23,-51.83 200.92,-45.26 198.64,-51.88"/>
<text text-anchor="middle" x="174.5" y="-49.24" font-family="Times,serif" font-size="14.00">c:z/2.5</text>
</g>
<!-- 3 -->
<g id="node4" class="node">
<title>3</title>
<ellipse fill="none" stroke="black" stroke-width="2" cx="345" cy="-22.44" rx="18" ry="18"/>
<ellipse fill="none" stroke="black" stroke-width="2" cx="345" cy="-22.44" rx="22" ry="22"/>
<text text-anchor="middle" x="345" y="-18.74" font-family="Times,serif" font-size="14.00">3</text>
</g>
<!-- 1&#45;&gt;3 -->
<g id="edge4" class="edge">
<title>1&#45;&gt;3</title>
<path fill="none" stroke="black" d="M141.03,-20.6C157.98,-18.87 184.75,-16.41 208,-15.44 243.87,-13.95 285.03,-16.69 312.59,-19.17"/>
<polygon fill="black" stroke="black" points="312.52,-22.68 322.8,-20.13 313.18,-15.71 312.52,-22.68"/>
<text text-anchor="middle" x="226.5" y="-19.24" font-family="Times,serif" font-size="14.00">&#45;1:&#45;1/3</text>
</g>
<!-- 2&#45;&gt;3 -->
<g id="edge5" class="edge">
<title>2&#45;&gt;3</title>
<path fill="none" stroke="black" d="M244.19,-52.43C262.41,-46.95 291.96,-38.08 314.19,-31.4"/>
<polygon fill="black" stroke="black" points="315.25,-34.73 323.82,-28.5 313.23,-28.03 315.25,-34.73"/>
<text text-anchor="middle" x="284" y="-50.24" font-family="Times,serif" font-size="14.00">&#45;1:&#45;1/3.5</text>
</g>
</g>
</svg>
