<?xml version="1.0" encoding="UTF-8" standalone="no"?>
<!DOCTYPE svg PUBLIC "-//W3C//DTD SVG 1.1//EN"
 "http://www.w3.org/Graphics/SVG/1.1/DTD/svg11.dtd">
<!-- Generated by graphviz version 2.43.0 (0)
 -->
<!-- Title: WFST Pages: 1 -->
<svg width="415pt" height="84pt"
 viewBox="0.00 0.00 415.00 84.32" xmlns="http://www.w3.org/2000/svg" xmlns:xlink="http://www.w3.org/1999/xlink">
<g id="graph0" class="graph" transform="scale(1 1) rotate(0) translate(4 80.32)">
<title>WFST</title>
<polygon fill="white" stroke="transparent" points="-4,4 -4,-80.32 411,-80.32 411,4 -4,4"/>
<!-- 0 -->
<g id="node1" class="node">
<title>0</title>
<ellipse fill="none" stroke="black" stroke-width="2" cx="18" cy="-23.32" rx="18" ry="18"/>
<text text-anchor="middle" x="18" y="-19.62" font-family="Times,serif" font-size="14.00">0</text>
</g>
<!-- 1 -->
<g id="node2" class="node">
<title>1</title>
<ellipse fill="none" stroke="black" stroke-width="2" cx="133" cy="-23.32" rx="18" ry="18"/>
<text text-anchor="middle" x="133" y="-19.62" font-family="Times,serif" font-size="14.00">1</text>
</g>
<!-- 0&#45;&gt;1 -->
<g id="edge1" class="edge">
<title>0&#45;&gt;1</title>
<path fill="none" stroke="black" d="M36.16,-23.32C54.33,-23.32 83.28,-23.32 104.61,-23.32"/>
<polygon fill="black" stroke="black" points="104.68,-26.82 114.68,-23.32 104.68,-19.82 104.68,-26.82"/>
<text text-anchor="middle" x="75.5" y="-27.12" font-family="Times,serif" font-size="14.00">a:x/0.5</text>
</g>
<!-- 0&#45;&gt;1 -->
<g id="edge2" class="edge">
<title>0&#45;&gt;1</title>
<path fill="none" stroke="black" d="M32.91,-12.86C38.27,-9.44 44.64,-6.07 51,-4.32 72,1.44 79,1.44 100,-4.32 103.08,-5.17 106.16,-6.4 109.13,-7.82"/>
<polygon fill="black" stroke="black" points="107.66,-11.01 118.09,-12.86 111.09,-4.91 107.66,-11.01"/>
<text text-anchor="middle" x="75.5" y="-8.12" font-family="Times,serif" font-size="14.00">b:y/1.5</text>
</g>
<!-- 2 -->
<g id="node3" class="node">
<title>2</title>
<ellipse fill="none" stroke="black" stroke-width="2" cx="251" cy="-58.32" rx="18" ry="18"/>
<text text-anchor="middle" x="251" y="-54.62" font-family="Times,serif" font-size="14.00">2</text>
</g>
<!-- 1&#45;&gt;2 -->
<g id="edge3" class="edge">
<title>1&#45;&gt;2</title>
<path fill="none" stroke="black" d="M150.62,-28.34C169.74,-34.11 201.39,-43.66 223.83,-50.43"/>
<polygon fill="black" stroke="black" points="222.83,-53.78 233.41,-53.32 224.85,-47.08 222.83,-53.78"/>
<text text-anchor="middle" x="189.5" y="-50.12" font-family="Times,serif" font-size="14.00">c:z/2.5</text>
</g>
<!-- 3 -->
<g id="node4" class="node">
<title>3</title>
<ellipse fill="none" stroke="black" stroke-width="2" cx="385" cy="-23.32" rx="18" ry="18"/>
<ellipse fill="none" stroke="black" stroke-width="2" cx="385" cy="-23.32" rx="22" ry="22"/>
<text text-anchor="middle" x="385" y="-19.62" font-family="Times,serif" font-size="14.00">3</text>
</g>
<!-- 1&#45;&gt;3 -->
<g id="edge4" class="edge">
<title>1&#45;&gt;3</title>
<path fill="none" stroke="black" d="M150.96,-21.68C169.77,-19.94 201.02,-17.33 228,-16.32 271.26,-14.72 321.24,-17.84 352.73,-20.41"/>
<polygon fill="black" stroke="black" points="352.8,-23.93 363.06,-21.29 353.39,-16.96 352.8,-23.93"/>
<text text-anchor="middle" x="251" y="-20.12" font-family="Times,serif" font-size="14.00">&#45;1:&#45;1/3</text>
</g>
<!-- 2&#45;&gt;3 -->
<g id="edge5" class="edge">
<title>2&#45;&gt;3</title>
<path fill="none" stroke="black" d="M268.72,-53.89C290.03,-48.24 327.27,-38.36 353.66,-31.37"/>
<polygon fill="black" stroke="black" points="354.76,-34.7 363.52,-28.75 352.96,-27.93 354.76,-34.7"/>
<text text-anchor="middle" x="318.5" y="-51.12" font-family="Times,serif" font-size="14.00">&#45;1:&#45;1/3.5</text>
</g>
</g>
</svg>
