<?xml version="1.0" encoding="UTF-8" standalone="no"?>
<!DOCTYPE svg PUBLIC "-//W3C//DTD SVG 1.1//EN"
 "http://www.w3.org/Graphics/SVG/1.1/DTD/svg11.dtd">
<!-- Generated by graphviz version 7.0.0 (20221023.0053)
 -->
<!-- Title: WFST Pages: 1 -->
<svg width="375pt" height="83pt"
 viewBox="0.00 0.00 375.00 83.44" xmlns="http://www.w3.org/2000/svg" xmlns:xlink="http://www.w3.org/1999/xlink">
<g id="graph0" class="graph" transform="scale(1 1) rotate(0) translate(4 79.44)">
<title>WFST</title>
<polygon fill="white" stroke="none" points="-4,4 -4,-79.44 371,-79.44 371,4 -4,4"/>
<!-- 0 -->
<g id="node1" class="node">
<title>0</title>
<ellipse fill="none" stroke="black" stroke-width="2" cx="18" cy="-22.44" rx="18" ry="18"/>
<text text-anchor="middle" x="18" y="-18.74" font-family="Times,serif" font-size="14.00">0</text>
</g>
<!-- 1 -->
<g id="node2" class="node">
<title>1</title>
<ellipse fill="none" stroke="black" stroke-width="2" cx="123" cy="-22.44" rx="18" ry="18"/>
<text text-anchor="middle" x="123" y="-18.74" font-family="Times,serif" font-size="14.00">1</text>
</g>
<!-- 0&#45;&gt;1 -->
<g id="edge1" class="edge">
<title>0&#45;&gt;1</title>
<path fill="none" stroke="black" d="M36.47,-22.44C52.03,-22.44 75.08,-22.44 93.34,-22.44"/>
<polygon fill="black" stroke="black" points="93.27,-25.94 103.27,-22.44 93.27,-18.94 93.27,-25.94"/>
<text text-anchor="middle" x="70.5" y="-26.24" font-family="Times,serif" font-size="14.00">a:x/0.5</text>
</g>
<!-- 0&#45;&gt;1 -->
<g id="edge2" class="edge">
<title>0&#45;&gt;1</title>
<path fill="none" stroke="black" d="M32.91,-11.98C38.27,-8.56 44.64,-5.19 51,-3.44 67.72,1.15 73.28,1.15 90,-3.44 92.78,-4.2 95.56,-5.28 98.26,-6.53"/>
<polygon fill="black" stroke="black" points="96.32,-9.46 106.77,-11.25 99.72,-3.34 96.32,-9.46"/>
<text text-anchor="middle" x="70.5" y="-7.24" font-family="Times,serif" font-size="14.00">b:y/1.5</text>
</g>
<!-- 2 -->
<g id="node3" class="node">
<title>2</title>
<ellipse fill="none" stroke="black" stroke-width="2" cx="226.5" cy="-57.44" rx="18" ry="18"/>
<text text-anchor="middle" x="226.5" y="-53.74" font-family="Times,serif" font-size="14.00">2</text>
</g>
<!-- 1&#45;&gt;2 -->
<g id="edge3" class="edge">
<title>1&#45;&gt;2</title>
<path fill="none" stroke="black" d="M140.31,-28.06C155.99,-33.47 179.99,-41.75 198.52,-48.14"/>
<polygon fill="black" stroke="black" points="197.21,-51.39 207.8,-51.34 199.49,-44.77 197.21,-51.39"/>
<text text-anchor="middle" x="174.5" y="-49.24" font-family="Times,serif" font-size="14.00">c:z/2.5</text>
</g>
<!-- 3 -->
<g id="node4" class="node">
<title>3</title>
<ellipse fill="none" stroke="black" stroke-width="2" cx="345" cy="-22.44" rx="18" ry="18"/>
<ellipse fill="none" stroke="black" stroke-width="2" cx="345" cy="-22.44" rx="22" ry="22"/>
<text text-anchor="middle" x="345" y="-18.74" font-family="Times,serif" font-size="14.00">3</text>
</g>
<!-- 1&#45;&gt;3 -->
<g id="edge4" class="edge">
<title>1&#45;&gt;3</title>
<path fill="none" stroke="black" d="M141.35,-20.57C158.32,-18.84 184.9,-16.4 208,-15.44 243.39,-13.97 283.94,-16.62 311.49,-19.07"/>
<polygon fill="black" stroke="black" points="311.01,-22.54 321.3,-19.99 311.67,-15.57 311.01,-22.54"/>
<text text-anchor="middle" x="226.5" y="-19.24" font-family="Times,serif" font-size="14.00">&#45;1:&#45;1/3</text>
</g>
<!-- 2&#45;&gt;3 -->
<g id="edge5" class="edge">
<title>2&#45;&gt;3</title>
<path fill="none" stroke="black" d="M244.19,-52.43C261.98,-47.08 290.56,-38.5 312.58,-31.88"/>
<polygon fill="black" stroke="black" points="313.39,-35.29 321.96,-29.06 311.38,-28.59 313.39,-35.29"/>
<text text-anchor="middle" x="284" y="-50.24" font-family="Times,serif" font-size="14.00">&#45;1:&#45;1/3.5</text>
</g>
</g>
</svg>
