<?xml version="1.0" encoding="UTF-8" standalone="no"?>
<!DOCTYPE svg PUBLIC "-//W3C//DTD SVG 1.1//EN"
 "http://www.w3.org/Graphics/SVG/1.1/DTD/svg11.dtd">
<!-- Generated by graphviz version 9.0.0 (20230911.1827)
 -->
<!-- Title: WFST Pages: 1 -->
<svg width="373pt" height="87pt"
 viewBox="0.00 0.00 373.00 87.08" xmlns="http://www.w3.org/2000/svg" xmlns:xlink="http://www.w3.org/1999/xlink">
<g id="graph0" class="graph" transform="scale(1 1) rotate(0) translate(4 83.08)">
<title>WFST</title>
<polygon fill="white" stroke="none" points="-4,4 -4,-83.08 369,-83.08 369,4 -4,4"/>
<!-- 0 -->
<g id="node1" class="node">
<title>0</title>
<ellipse fill="none" stroke="black" stroke-width="2" cx="18" cy="-24.08" rx="18" ry="18"/>
<text text-anchor="middle" x="18" y="-19.03" font-family="Times,serif" font-size="14.00">0</text>
</g>
<!-- 1 -->
<g id="node2" class="node">
<title>1</title>
<ellipse fill="none" stroke="black" stroke-width="2" cx="122.25" cy="-24.08" rx="18" ry="18"/>
<text text-anchor="middle" x="122.25" y="-19.03" font-family="Times,serif" font-size="14.00">1</text>
</g>
<!-- 0&#45;&gt;1 -->
<g id="edge1" class="edge">
<title>0&#45;&gt;1</title>
<path fill="none" stroke="black" d="M36.35,-24.08C51.7,-24.08 74.4,-24.08 92.47,-24.08"/>
<polygon fill="black" stroke="black" points="92.31,-27.58 102.31,-24.08 92.31,-20.58 92.31,-27.58"/>
<text text-anchor="middle" x="70.12" y="-27.28" font-family="Times,serif" font-size="14.00">a:x/0.5</text>
</g>
<!-- 0&#45;&gt;1 -->
<g id="edge2" class="edge">
<title>0&#45;&gt;1</title>
<path fill="none" stroke="black" d="M32.48,-13.02C37.9,-9.26 44.41,-5.51 51,-3.58 67.31,1.19 72.94,1.19 89.25,-3.58 92.23,-4.46 95.2,-5.7 98.06,-7.16"/>
<polygon fill="black" stroke="black" points="96.1,-10.06 106.47,-12.24 99.73,-4.07 96.1,-10.06"/>
<text text-anchor="middle" x="70.12" y="-7.28" font-family="Times,serif" font-size="14.00">b:y/1.5</text>
</g>
<!-- 2 -->
<g id="node3" class="node">
<title>2</title>
<ellipse fill="none" stroke="black" stroke-width="2" cx="225.38" cy="-61.08" rx="18" ry="18"/>
<text text-anchor="middle" x="225.38" y="-56.03" font-family="Times,serif" font-size="14.00">2</text>
</g>
<!-- 1&#45;&gt;2 -->
<g id="edge3" class="edge">
<title>1&#45;&gt;2</title>
<path fill="none" stroke="black" d="M139.5,-30.03C155.13,-35.75 179.03,-44.49 197.5,-51.25"/>
<polygon fill="black" stroke="black" points="196.15,-54.48 206.75,-54.63 198.56,-47.91 196.15,-54.48"/>
<text text-anchor="middle" x="173.62" y="-52.28" font-family="Times,serif" font-size="14.00">c:z/2.5</text>
</g>
<!-- 3 -->
<g id="node4" class="node">
<title>3</title>
<ellipse fill="none" stroke="black" stroke-width="2" cx="343" cy="-24.08" rx="18" ry="18"/>
<ellipse fill="none" stroke="black" stroke-width="2" cx="343" cy="-24.08" rx="22" ry="22"/>
<text text-anchor="middle" x="343" y="-19.03" font-family="Times,serif" font-size="14.00">3</text>
</g>
<!-- 1&#45;&gt;3 -->
<g id="edge4" class="edge">
<title>1&#45;&gt;3</title>
<path fill="none" stroke="black" d="M140.55,-22.35C157.47,-20.74 183.98,-18.48 207,-17.58 242.13,-16.22 282.38,-18.68 309.73,-20.95"/>
<polygon fill="black" stroke="black" points="309.18,-24.42 319.45,-21.81 309.8,-17.45 309.18,-24.42"/>
<text text-anchor="middle" x="225.38" y="-21.28" font-family="Times,serif" font-size="14.00">&#45;1:&#45;1/3</text>
</g>
<!-- 2&#45;&gt;3 -->
<g id="edge5" class="edge">
<title>2&#45;&gt;3</title>
<path fill="none" stroke="black" d="M242.94,-55.78C260.6,-50.13 288.96,-41.06 310.82,-34.06"/>
<polygon fill="black" stroke="black" points="311.67,-37.46 320.12,-31.08 309.53,-30.8 311.67,-37.46"/>
<text text-anchor="middle" x="282.38" y="-53.28" font-family="Times,serif" font-size="14.00">&#45;1:&#45;1/3.5</text>
</g>
</g>
</svg>
