<?xml version="1.0" encoding="UTF-8" standalone="no"?>
<!DOCTYPE svg PUBLIC "-//W3C//DTD SVG 1.1//EN"
 "http://www.w3.org/Graphics/SVG/1.1/DTD/svg11.dtd">
<!-- Generated by graphviz version 2.43.0 (0)
 -->
<!-- Title: FST Pages: 1 -->
<svg width="378pt" height="123pt"
 viewBox="0.00 0.00 378.00 122.83" xmlns="http://www.w3.org/2000/svg" xmlns:xlink="http://www.w3.org/1999/xlink">
<g id="graph0" class="graph" transform="scale(1 1) rotate(0) translate(4 118.83)">
<title>FST</title>
<polygon fill="white" stroke="transparent" points="-4,4 -4,-118.83 374,-118.83 374,4 -4,4"/>
<!-- 0 -->
<g id="node1" class="node">
<title>0</title>
<ellipse fill="none" stroke="black" stroke-width="2" cx="18" cy="-57.83" rx="18" ry="18"/>
<text text-anchor="middle" x="18" y="-54.13" font-family="Times,serif" font-size="14.00">0</text>
</g>
<!-- 1 -->
<g id="node2" class="node">
<title>1</title>
<ellipse fill="none" stroke="black" cx="181" cy="-84.83" rx="18" ry="18"/>
<text text-anchor="middle" x="181" y="-81.13" font-family="Times,serif" font-size="14.00">1</text>
</g>
<!-- 0&#45;&gt;1 -->
<g id="edge1" class="edge">
<title>0&#45;&gt;1</title>
<path fill="none" stroke="black" d="M35.93,-60.67C63.75,-65.33 119.41,-74.67 152.82,-80.27"/>
<polygon fill="black" stroke="black" points="152.38,-83.74 162.82,-81.95 153.53,-76.84 152.38,-83.74"/>
<text text-anchor="middle" x="99.5" y="-82.63" font-family="Times,serif" font-size="14.00">a:A/0.02,0.08</text>
</g>
<!-- 2 -->
<g id="node3" class="node">
<title>2</title>
<ellipse fill="none" stroke="black" cx="181" cy="-30.83" rx="18" ry="18"/>
<text text-anchor="middle" x="181" y="-27.13" font-family="Times,serif" font-size="14.00">2</text>
</g>
<!-- 0&#45;&gt;2 -->
<g id="edge2" class="edge">
<title>0&#45;&gt;2</title>
<path fill="none" stroke="black" d="M34.28,-49.99C39.46,-47.64 45.37,-45.3 51,-43.83 85.25,-34.85 126.13,-31.99 152.55,-31.13"/>
<polygon fill="black" stroke="black" points="152.68,-34.63 162.59,-30.87 152.5,-27.63 152.68,-34.63"/>
<text text-anchor="middle" x="99.5" y="-47.63" font-family="Times,serif" font-size="14.00">b:B/0.03,0.07</text>
</g>
<!-- 3 -->
<g id="node4" class="node">
<title>3</title>
<ellipse fill="none" stroke="black" cx="348" cy="-57.83" rx="18" ry="18"/>
<ellipse fill="none" stroke="black" cx="348" cy="-57.83" rx="22" ry="22"/>
<text text-anchor="middle" x="348" y="-54.13" font-family="Times,serif" font-size="14.00">3</text>
</g>
<!-- 1&#45;&gt;3 -->
<g id="edge3" class="edge">
<title>1&#45;&gt;3</title>
<path fill="none" stroke="black" d="M198.2,-90.18C223.38,-97.55 272.95,-108.27 311,-92.83 316.8,-90.47 322.17,-86.69 326.9,-82.46"/>
<polygon fill="black" stroke="black" points="329.65,-84.66 334.23,-75.11 324.69,-79.72 329.65,-84.66"/>
<text text-anchor="middle" x="262.5" y="-103.63" font-family="Times,serif" font-size="14.00">c:C/0.1,0.3</text>
</g>
<!-- 1&#45;&gt;3 -->
<g id="edge4" class="edge">
<title>1&#45;&gt;3</title>
<path fill="none" stroke="black" d="M198.09,-78.56C203.12,-76.8 208.73,-75.04 214,-73.83 248.22,-65.98 288.33,-61.82 315.48,-59.73"/>
<polygon fill="black" stroke="black" points="315.85,-63.22 325.57,-59.01 315.34,-56.24 315.85,-63.22"/>
<text text-anchor="middle" x="262.5" y="-77.63" font-family="Times,serif" font-size="14.00">d:D/0.15,0.05</text>
</g>
<!-- 2&#45;&gt;3 -->
<g id="edge5" class="edge">
<title>2&#45;&gt;3</title>
<path fill="none" stroke="black" d="M199.02,-30.21C224.02,-29.73 271.92,-30.46 311,-40.83 313.66,-41.53 316.37,-42.43 319.04,-43.45"/>
<polygon fill="black" stroke="black" points="317.86,-46.75 328.43,-47.49 320.63,-40.32 317.86,-46.75"/>
<text text-anchor="middle" x="262.5" y="-44.63" font-family="Times,serif" font-size="14.00">c:C/0.15,0.15</text>
</g>
<!-- 2&#45;&gt;3 -->
<g id="edge6" class="edge">
<title>2&#45;&gt;3</title>
<path fill="none" stroke="black" d="M195.91,-20.37C201.27,-16.94 207.64,-13.57 214,-11.83 255.57,-0.42 272.24,7.06 311,-11.83 319.13,-15.79 325.96,-22.56 331.41,-29.72"/>
<polygon fill="black" stroke="black" points="328.64,-31.87 337.17,-38.14 334.42,-27.91 328.64,-31.87"/>
<text text-anchor="middle" x="262.5" y="-15.63" font-family="Times,serif" font-size="14.00">d:D/0.05,0.15</text>
</g>
</g>
</svg>
