<?xml version="1.0" encoding="UTF-8" standalone="no"?>
<!DOCTYPE svg PUBLIC "-//W3C//DTD SVG 1.1//EN"
 "http://www.w3.org/Graphics/SVG/1.1/DTD/svg11.dtd">
<!-- Generated by graphviz version 9.0.0 (20230911.1827)
 -->
<!-- Title: FST Pages: 1 -->
<svg width="335pt" height="123pt"
 viewBox="0.00 0.00 334.75 123.14" xmlns="http://www.w3.org/2000/svg" xmlns:xlink="http://www.w3.org/1999/xlink">
<g id="graph0" class="graph" transform="scale(1 1) rotate(0) translate(4 119.14)">
<title>FST</title>
<polygon fill="white" stroke="none" points="-4,4 -4,-119.14 330.75,-119.14 330.75,4 -4,4"/>
<!-- 0 -->
<g id="node1" class="node">
<title>0</title>
<ellipse fill="none" stroke="black" stroke-width="2" cx="18" cy="-54.64" rx="18" ry="18"/>
<text text-anchor="middle" x="18" y="-49.59" font-family="Times,serif" font-size="14.00">0</text>
</g>
<!-- 1 -->
<g id="node2" class="node">
<title>1</title>
<ellipse fill="none" stroke="black" cx="159" cy="-81.64" rx="18" ry="18"/>
<text text-anchor="middle" x="159" y="-76.59" font-family="Times,serif" font-size="14.00">1</text>
</g>
<!-- 0&#45;&gt;1 -->
<g id="edge1" class="edge">
<title>0&#45;&gt;1</title>
<path fill="none" stroke="black" d="M36.04,-57.95C59.39,-62.49 101.61,-70.69 129.72,-76.15"/>
<polygon fill="black" stroke="black" points="128.85,-79.54 139.33,-78.02 130.18,-72.67 128.85,-79.54"/>
<text text-anchor="middle" x="88.5" y="-78.84" font-family="Times,serif" font-size="14.00">a:A/0.02,0.08</text>
</g>
<!-- 2 -->
<g id="node3" class="node">
<title>2</title>
<ellipse fill="none" stroke="black" cx="159" cy="-27.64" rx="18" ry="18"/>
<text text-anchor="middle" x="159" y="-22.59" font-family="Times,serif" font-size="14.00">2</text>
</g>
<!-- 0&#45;&gt;2 -->
<g id="edge2" class="edge">
<title>0&#45;&gt;2</title>
<path fill="none" stroke="black" d="M34.65,-47.03C39.76,-44.82 45.53,-42.61 51,-41.14 76.97,-34.17 107.48,-30.77 129.26,-29.13"/>
<polygon fill="black" stroke="black" points="129.42,-32.63 139.16,-28.47 128.95,-25.64 129.42,-32.63"/>
<text text-anchor="middle" x="88.5" y="-44.84" font-family="Times,serif" font-size="14.00">b:B/0.03,0.07</text>
</g>
<!-- 3 -->
<g id="node4" class="node">
<title>3</title>
<ellipse fill="none" stroke="black" cx="304.75" cy="-54.64" rx="18" ry="18"/>
<ellipse fill="none" stroke="black" cx="304.75" cy="-54.64" rx="22" ry="22"/>
<text text-anchor="middle" x="304.75" y="-49.59" font-family="Times,serif" font-size="14.00">3</text>
</g>
<!-- 1&#45;&gt;3 -->
<g id="edge3" class="edge">
<title>1&#45;&gt;3</title>
<path fill="none" stroke="black" d="M176.08,-88.02C197.82,-95.62 237.35,-105.72 267.75,-92.64 273.95,-89.97 279.59,-85.65 284.46,-80.86"/>
<polygon fill="black" stroke="black" points="286.82,-83.47 290.9,-73.69 281.62,-78.79 286.82,-83.47"/>
<text text-anchor="middle" x="229.88" y="-101.84" font-family="Times,serif" font-size="14.00">c:C/0.1,0.3</text>
</g>
<!-- 1&#45;&gt;3 -->
<g id="edge4" class="edge">
<title>1&#45;&gt;3</title>
<path fill="none" stroke="black" d="M176.5,-76.29C181.45,-74.81 186.91,-73.29 192,-72.14 218.47,-66.17 248.92,-61.55 271.34,-58.56"/>
<polygon fill="black" stroke="black" points="271.61,-62.05 281.08,-57.3 270.72,-55.11 271.61,-62.05"/>
<text text-anchor="middle" x="229.88" y="-75.84" font-family="Times,serif" font-size="14.00">d:D/0.15,0.05</text>
</g>
<!-- 2&#45;&gt;3 -->
<g id="edge5" class="edge">
<title>2&#45;&gt;3</title>
<path fill="none" stroke="black" d="M177.46,-27.9C199.01,-28.59 236.63,-30.98 267.75,-39.14 269.87,-39.7 272.03,-40.36 274.18,-41.09"/>
<polygon fill="black" stroke="black" points="272.7,-44.27 283.29,-44.63 275.23,-37.75 272.7,-44.27"/>
<text text-anchor="middle" x="229.88" y="-42.84" font-family="Times,serif" font-size="14.00">c:C/0.15,0.15</text>
</g>
<!-- 2&#45;&gt;3 -->
<g id="edge6" class="edge">
<title>2&#45;&gt;3</title>
<path fill="none" stroke="black" d="M174.26,-17.26C179.56,-13.99 185.8,-10.8 192,-9.14 224.52,-0.42 237.45,5.52 267.75,-9.14 275.48,-12.88 282.05,-19.18 287.38,-25.91"/>
<polygon fill="black" stroke="black" points="284.4,-27.75 293,-33.93 290.13,-23.73 284.4,-27.75"/>
<text text-anchor="middle" x="229.88" y="-12.84" font-family="Times,serif" font-size="14.00">d:D/0.05,0.15</text>
</g>
</g>
</svg>
