<?xml version="1.0" encoding="UTF-8" standalone="no"?>
<!DOCTYPE svg PUBLIC "-//W3C//DTD SVG 1.1//EN"
 "http://www.w3.org/Graphics/SVG/1.1/DTD/svg11.dtd">
<!-- Generated by graphviz version 2.43.0 (0)
 -->
<!-- Title: FST Pages: 1 -->
<svg width="612pt" height="51pt"
 viewBox="0.00 0.00 612.00 51.33" xmlns="http://www.w3.org/2000/svg" xmlns:xlink="http://www.w3.org/1999/xlink">
<g id="graph0" class="graph" transform="scale(1.01 1.01) rotate(0) translate(4 48)">
<title>FST</title>
<polygon fill="white" stroke="transparent" points="-4,4 -4,-48 616,-48 616,4 -4,4"/>
<!-- 0 -->
<g id="node1" class="node">
<title>0</title>
<ellipse fill="none" stroke="black" stroke-width="2" cx="18" cy="-22" rx="18" ry="18"/>
<text text-anchor="middle" x="18" y="-18.3" font-family="Times,serif" font-size="14.00">0</text>
</g>
<!-- 1 -->
<g id="node2" class="node">
<title>1</title>
<ellipse fill="none" stroke="black" cx="109" cy="-22" rx="18" ry="18"/>
<text text-anchor="middle" x="109" y="-18.3" font-family="Times,serif" font-size="14.00">1</text>
</g>
<!-- 0&#45;&gt;1 -->
<g id="edge1" class="edge">
<title>0&#45;&gt;1</title>
<path fill="none" stroke="black" d="M36.16,-22C48.72,-22 66.02,-22 80.5,-22"/>
<polygon fill="black" stroke="black" points="80.89,-25.5 90.89,-22 80.89,-18.5 80.89,-25.5"/>
<text text-anchor="middle" x="63.5" y="-25.8" font-family="Times,serif" font-size="14.00">eps</text>
</g>
<!-- 2 -->
<g id="node3" class="node">
<title>2</title>
<ellipse fill="none" stroke="black" cx="200" cy="-22" rx="18" ry="18"/>
<text text-anchor="middle" x="200" y="-18.3" font-family="Times,serif" font-size="14.00">2</text>
</g>
<!-- 1&#45;&gt;2 -->
<g id="edge2" class="edge">
<title>1&#45;&gt;2</title>
<path fill="none" stroke="black" d="M127.16,-22C139.72,-22 157.02,-22 171.5,-22"/>
<polygon fill="black" stroke="black" points="171.89,-25.5 181.89,-22 171.89,-18.5 171.89,-25.5"/>
<text text-anchor="middle" x="154.5" y="-25.8" font-family="Times,serif" font-size="14.00">eps</text>
</g>
<!-- 3 -->
<g id="node4" class="node">
<title>3</title>
<ellipse fill="none" stroke="black" cx="347" cy="-22" rx="18" ry="18"/>
<text text-anchor="middle" x="347" y="-18.3" font-family="Times,serif" font-size="14.00">3</text>
</g>
<!-- 2&#45;&gt;3 -->
<g id="edge3" class="edge">
<title>2&#45;&gt;3</title>
<path fill="none" stroke="black" d="M218.2,-22C243.06,-22 289.26,-22 318.77,-22"/>
<polygon fill="black" stroke="black" points="318.82,-25.5 328.82,-22 318.82,-18.5 318.82,-25.5"/>
<text text-anchor="middle" x="273.5" y="-25.8" font-family="Times,serif" font-size="14.00">a/0.02,0.08</text>
</g>
<!-- 4 -->
<g id="node5" class="node">
<title>4</title>
<ellipse fill="none" stroke="black" cx="495" cy="-22" rx="18" ry="18"/>
<text text-anchor="middle" x="495" y="-18.3" font-family="Times,serif" font-size="14.00">4</text>
</g>
<!-- 3&#45;&gt;4 -->
<g id="edge4" class="edge">
<title>3&#45;&gt;4</title>
<path fill="none" stroke="black" d="M365.03,-22C389.96,-22 436.63,-22 466.46,-22"/>
<polygon fill="black" stroke="black" points="466.62,-25.5 476.62,-22 466.62,-18.5 466.62,-25.5"/>
<text text-anchor="middle" x="421" y="-25.8" font-family="Times,serif" font-size="14.00">d/0.15,0.05</text>
</g>
<!-- 5 -->
<g id="node6" class="node">
<title>5</title>
<ellipse fill="none" stroke="black" cx="590" cy="-22" rx="18" ry="18"/>
<ellipse fill="none" stroke="black" cx="590" cy="-22" rx="22" ry="22"/>
<text text-anchor="middle" x="590" y="-18.3" font-family="Times,serif" font-size="14.00">5</text>
</g>
<!-- 4&#45;&gt;5 -->
<g id="edge5" class="edge">
<title>4&#45;&gt;5</title>
<path fill="none" stroke="black" d="M513.06,-22C525.46,-22 542.62,-22 557.49,-22"/>
<polygon fill="black" stroke="black" points="557.81,-25.5 567.81,-22 557.81,-18.5 557.81,-25.5"/>
<text text-anchor="middle" x="540.5" y="-25.8" font-family="Times,serif" font-size="14.00">eps</text>
</g>
</g>
</svg>
