<?xml version="1.0" encoding="UTF-8" standalone="no"?>
<!DOCTYPE svg PUBLIC "-//W3C//DTD SVG 1.1//EN"
 "http://www.w3.org/Graphics/SVG/1.1/DTD/svg11.dtd">
<!-- Generated by graphviz version 9.0.0 (20230911.1827)
 -->
<!-- Title: FST Pages: 1 -->
<svg width="303pt" height="98pt"
 viewBox="0.00 0.00 302.50 98.00" xmlns="http://www.w3.org/2000/svg" xmlns:xlink="http://www.w3.org/1999/xlink">
<g id="graph0" class="graph" transform="scale(1 1) rotate(0) translate(4 94)">
<title>FST</title>
<polygon fill="white" stroke="none" points="-4,4 -4,-94 298.5,-94 298.5,4 -4,4"/>
<!-- 0 -->
<g id="node1" class="node">
<title>0</title>
<ellipse fill="none" stroke="black" stroke-width="2" cx="18" cy="-45" rx="18" ry="18"/>
<text text-anchor="middle" x="18" y="-39.95" font-family="Times,serif" font-size="14.00">0</text>
</g>
<!-- 1 -->
<g id="node2" class="node">
<title>1</title>
<ellipse fill="none" stroke="black" cx="143.25" cy="-72" rx="18" ry="18"/>
<text text-anchor="middle" x="143.25" y="-66.95" font-family="Times,serif" font-size="14.00">1</text>
</g>
<!-- 0&#45;&gt;1 -->
<g id="edge1" class="edge">
<title>0&#45;&gt;1</title>
<path fill="none" stroke="black" d="M35.88,-48.7C56.05,-53.12 90.09,-60.57 114.23,-65.86"/>
<polygon fill="black" stroke="black" points="113.18,-69.22 123.7,-67.94 114.68,-62.38 113.18,-69.22"/>
<text text-anchor="middle" x="80.62" y="-67.2" font-family="Times,serif" font-size="14.00">1:2/0.1,0.2</text>
</g>
<!-- 2 -->
<g id="node3" class="node">
<title>2</title>
<ellipse fill="none" stroke="black" cx="143.25" cy="-18" rx="18" ry="18"/>
<text text-anchor="middle" x="143.25" y="-12.95" font-family="Times,serif" font-size="14.00">2</text>
</g>
<!-- 0&#45;&gt;2 -->
<g id="edge2" class="edge">
<title>0&#45;&gt;2</title>
<path fill="none" stroke="black" d="M35.05,-37.95C40.08,-35.96 45.7,-33.94 51,-32.5 71.6,-26.91 95.44,-23.21 113.59,-20.95"/>
<polygon fill="black" stroke="black" points="113.83,-24.45 123.36,-19.81 113.02,-17.49 113.83,-24.45"/>
<text text-anchor="middle" x="80.62" y="-36.2" font-family="Times,serif" font-size="14.00">3:4/0.3,0.4</text>
</g>
<!-- 3 -->
<g id="node4" class="node">
<title>3</title>
<ellipse fill="none" stroke="black" cx="272.5" cy="-45" rx="18" ry="18"/>
<ellipse fill="none" stroke="black" cx="272.5" cy="-45" rx="22" ry="22"/>
<text text-anchor="middle" x="272.5" y="-39.95" font-family="Times,serif" font-size="14.00">3</text>
</g>
<!-- 1&#45;&gt;3 -->
<g id="edge3" class="edge">
<title>1&#45;&gt;3</title>
<path fill="none" stroke="black" d="M161.15,-68.41C181.11,-64.18 214.74,-57.04 239.64,-51.76"/>
<polygon fill="black" stroke="black" points="240.19,-55.22 249.25,-49.72 238.74,-48.37 240.19,-55.22"/>
<text text-anchor="middle" x="205.88" y="-67.2" font-family="Times,serif" font-size="14.00">5:6/0.5,0.6</text>
</g>
<!-- 2&#45;&gt;3 -->
<g id="edge4" class="edge">
<title>2&#45;&gt;3</title>
<path fill="none" stroke="black" d="M161.59,-19.83C180.08,-22 210.14,-26.14 235.5,-32.5 237.23,-32.93 238.99,-33.41 240.76,-33.93"/>
<polygon fill="black" stroke="black" points="239.47,-37.19 250.07,-36.9 241.6,-30.52 239.47,-37.19"/>
<text text-anchor="middle" x="205.88" y="-36.2" font-family="Times,serif" font-size="14.00">6:8/0.7,0.8</text>
</g>
</g>
</svg>
