<?xml version="1.0" encoding="UTF-8" standalone="no"?>
<!DOCTYPE svg PUBLIC "-//W3C//DTD SVG 1.1//EN"
 "http://www.w3.org/Graphics/SVG/1.1/DTD/svg11.dtd">
<!-- Generated by graphviz version 2.43.0 (0)
 -->
<!-- Title: FST Pages: 1 -->
<svg width="612pt" height="130pt"
 viewBox="0.00 0.00 612.00 130.25" xmlns="http://www.w3.org/2000/svg" xmlns:xlink="http://www.w3.org/1999/xlink">
<g id="graph0" class="graph" transform="scale(1.24 1.24) rotate(0) translate(4 157.75)">
<title>FST</title>
<polygon fill="white" stroke="transparent" points="-4,4 -4,-157.75 755.99,-157.75 755.99,4 -4,4"/>
<!-- 0 -->
<g id="node1" class="node">
<title>0</title>
<ellipse fill="none" stroke="black" stroke-width="2" cx="18" cy="-81.75" rx="18" ry="18"/>
<text text-anchor="middle" x="18" y="-78.05" font-family="Times,serif" font-size="14.00">0</text>
</g>
<!-- 7 -->
<g id="node2" class="node">
<title>7</title>
<ellipse fill="none" stroke="black" cx="143.75" cy="-135.75" rx="18" ry="18"/>
<text text-anchor="middle" x="143.75" y="-132.05" font-family="Times,serif" font-size="14.00">7</text>
</g>
<!-- 0&#45;&gt;7 -->
<g id="edge1" class="edge">
<title>0&#45;&gt;7</title>
<path fill="none" stroke="black" d="M33.69,-91.18C39.03,-94.42 45.18,-97.94 51,-100.75 72.63,-111.2 98.24,-120.75 116.9,-127.22"/>
<polygon fill="black" stroke="black" points="115.89,-130.58 126.49,-130.49 118.15,-123.95 115.89,-130.58"/>
<text text-anchor="middle" x="78.5" y="-126.55" font-family="Times,serif" font-size="14.00">eps:eps</text>
</g>
<!-- 9 -->
<g id="node3" class="node">
<title>9</title>
<ellipse fill="none" stroke="black" cx="143.75" cy="-81.75" rx="18" ry="18"/>
<text text-anchor="middle" x="143.75" y="-78.05" font-family="Times,serif" font-size="14.00">9</text>
</g>
<!-- 0&#45;&gt;9 -->
<g id="edge2" class="edge">
<title>0&#45;&gt;9</title>
<path fill="none" stroke="black" d="M36.21,-81.75C56.71,-81.75 91.22,-81.75 115.4,-81.75"/>
<polygon fill="black" stroke="black" points="115.69,-85.25 125.69,-81.75 115.69,-78.25 115.69,-85.25"/>
<text text-anchor="middle" x="78.5" y="-85.55" font-family="Times,serif" font-size="14.00">eps:eps</text>
</g>
<!-- 11 -->
<g id="node4" class="node">
<title>11</title>
<ellipse fill="none" stroke="black" cx="143.75" cy="-22.75" rx="23" ry="23"/>
<text text-anchor="middle" x="143.75" y="-19.05" font-family="Times,serif" font-size="14.00">11</text>
</g>
<!-- 0&#45;&gt;11 -->
<g id="edge3" class="edge">
<title>0&#45;&gt;11</title>
<path fill="none" stroke="black" d="M33.76,-72.46C39.11,-69.24 45.25,-65.69 51,-62.75 71.23,-52.39 94.73,-42.17 112.89,-34.66"/>
<polygon fill="black" stroke="black" points="114.44,-37.81 122.37,-30.78 111.79,-31.33 114.44,-37.81"/>
<text text-anchor="middle" x="78.5" y="-66.55" font-family="Times,serif" font-size="14.00">eps:eps</text>
</g>
<!-- 6 -->
<g id="node10" class="node">
<title>6</title>
<ellipse fill="none" stroke="black" cx="274.24" cy="-135.75" rx="18" ry="18"/>
<text text-anchor="middle" x="274.24" y="-132.05" font-family="Times,serif" font-size="14.00">6</text>
</g>
<!-- 7&#45;&gt;6 -->
<g id="edge9" class="edge">
<title>7&#45;&gt;6</title>
<path fill="none" stroke="black" d="M161.81,-135.75C183.32,-135.75 220.54,-135.75 246,-135.75"/>
<polygon fill="black" stroke="black" points="246.11,-139.25 256.11,-135.75 246.11,-132.25 246.11,-139.25"/>
<text text-anchor="middle" x="209" y="-139.55" font-family="Times,serif" font-size="14.00">eps:eps</text>
</g>
<!-- 8 -->
<g id="node11" class="node">
<title>8</title>
<ellipse fill="none" stroke="black" cx="274.24" cy="-81.75" rx="18" ry="18"/>
<text text-anchor="middle" x="274.24" y="-78.05" font-family="Times,serif" font-size="14.00">8</text>
</g>
<!-- 9&#45;&gt;8 -->
<g id="edge11" class="edge">
<title>9&#45;&gt;8</title>
<path fill="none" stroke="black" d="M161.81,-81.75C183.32,-81.75 220.54,-81.75 246,-81.75"/>
<polygon fill="black" stroke="black" points="246.11,-85.25 256.11,-81.75 246.11,-78.25 246.11,-85.25"/>
<text text-anchor="middle" x="209" y="-85.55" font-family="Times,serif" font-size="14.00">eps:eps</text>
</g>
<!-- 10 -->
<g id="node12" class="node">
<title>10</title>
<ellipse fill="none" stroke="black" cx="274.24" cy="-22.75" rx="23" ry="23"/>
<text text-anchor="middle" x="274.24" y="-19.05" font-family="Times,serif" font-size="14.00">10</text>
</g>
<!-- 11&#45;&gt;10 -->
<g id="edge13" class="edge">
<title>11&#45;&gt;10</title>
<path fill="none" stroke="black" d="M166.55,-22.75C187.04,-22.75 217.95,-22.75 241.24,-22.75"/>
<polygon fill="black" stroke="black" points="241.34,-26.25 251.34,-22.75 241.34,-19.25 241.34,-26.25"/>
<text text-anchor="middle" x="209" y="-26.55" font-family="Times,serif" font-size="14.00">eps:eps</text>
</g>
<!-- 1 -->
<g id="node5" class="node">
<title>1</title>
<ellipse fill="none" stroke="black" cx="729.99" cy="-81.75" rx="18" ry="18"/>
<ellipse fill="none" stroke="black" cx="729.99" cy="-81.75" rx="22" ry="22"/>
<text text-anchor="middle" x="729.99" y="-78.05" font-family="Times,serif" font-size="14.00">1</text>
</g>
<!-- 2 -->
<g id="node6" class="node">
<title>2</title>
<ellipse fill="none" stroke="black" cx="604.99" cy="-81.75" rx="18" ry="18"/>
<text text-anchor="middle" x="604.99" y="-78.05" font-family="Times,serif" font-size="14.00">2</text>
</g>
<!-- 2&#45;&gt;1 -->
<g id="edge4" class="edge">
<title>2&#45;&gt;1</title>
<path fill="none" stroke="black" d="M623.09,-81.75C642.33,-81.75 673.97,-81.75 697.66,-81.75"/>
<polygon fill="black" stroke="black" points="697.92,-85.25 707.92,-81.75 697.92,-78.25 697.92,-85.25"/>
<text text-anchor="middle" x="665.49" y="-85.55" font-family="Times,serif" font-size="14.00">eps:eps</text>
</g>
<!-- 3 -->
<g id="node7" class="node">
<title>3</title>
<ellipse fill="none" stroke="black" cx="441.99" cy="-81.75" rx="18" ry="18"/>
<text text-anchor="middle" x="441.99" y="-78.05" font-family="Times,serif" font-size="14.00">3</text>
</g>
<!-- 3&#45;&gt;2 -->
<g id="edge5" class="edge">
<title>3&#45;&gt;2</title>
<path fill="none" stroke="black" d="M460.22,-81.75C488.06,-81.75 543.18,-81.75 576.49,-81.75"/>
<polygon fill="black" stroke="black" points="576.89,-85.25 586.89,-81.75 576.89,-78.25 576.89,-85.25"/>
<text text-anchor="middle" x="523.49" y="-85.55" font-family="Times,serif" font-size="14.00">d:D/0.15,0.05</text>
</g>
<!-- 4 -->
<g id="node8" class="node">
<title>4</title>
<ellipse fill="none" stroke="black" cx="441.99" cy="-26.75" rx="18" ry="18"/>
<text text-anchor="middle" x="441.99" y="-23.05" font-family="Times,serif" font-size="14.00">4</text>
</g>
<!-- 4&#45;&gt;2 -->
<g id="edge6" class="edge">
<title>4&#45;&gt;2</title>
<path fill="none" stroke="black" d="M459.76,-29.95C484.83,-35.06 533.29,-46.21 571.99,-62.75 574.87,-63.98 577.8,-65.42 580.67,-66.96"/>
<polygon fill="black" stroke="black" points="579.03,-70.05 589.44,-72.01 582.52,-63.99 579.03,-70.05"/>
<text text-anchor="middle" x="523.49" y="-66.55" font-family="Times,serif" font-size="14.00">c:C/0.15,0.15</text>
</g>
<!-- 5 -->
<g id="node9" class="node">
<title>5</title>
<ellipse fill="none" stroke="black" cx="441.99" cy="-135.75" rx="18" ry="18"/>
<text text-anchor="middle" x="441.99" y="-132.05" font-family="Times,serif" font-size="14.00">5</text>
</g>
<!-- 5&#45;&gt;2 -->
<g id="edge7" class="edge">
<title>5&#45;&gt;2</title>
<path fill="none" stroke="black" d="M459.76,-132.71C484.84,-127.84 533.31,-117.12 571.99,-100.75 574.87,-99.53 577.81,-98.09 580.68,-96.56"/>
<polygon fill="black" stroke="black" points="582.53,-99.53 589.45,-91.51 579.04,-93.46 582.53,-99.53"/>
<text text-anchor="middle" x="523.49" y="-132.55" font-family="Times,serif" font-size="14.00">d:D/0.05,0.15</text>
</g>
<!-- 6&#45;&gt;5 -->
<g id="edge8" class="edge">
<title>6&#45;&gt;5</title>
<path fill="none" stroke="black" d="M292.36,-135.75C321.02,-135.75 378.96,-135.75 413.43,-135.75"/>
<polygon fill="black" stroke="black" points="413.72,-139.25 423.72,-135.75 413.72,-132.25 413.72,-139.25"/>
<text text-anchor="middle" x="360.49" y="-139.55" font-family="Times,serif" font-size="14.00">b:B/0.03,0.07</text>
</g>
<!-- 8&#45;&gt;3 -->
<g id="edge10" class="edge">
<title>8&#45;&gt;3</title>
<path fill="none" stroke="black" d="M292.36,-81.75C321.02,-81.75 378.96,-81.75 413.43,-81.75"/>
<polygon fill="black" stroke="black" points="413.72,-85.25 423.72,-81.75 413.72,-78.25 413.72,-85.25"/>
<text text-anchor="middle" x="360.49" y="-85.55" font-family="Times,serif" font-size="14.00">a:A/0.02,0.08</text>
</g>
<!-- 10&#45;&gt;4 -->
<g id="edge12" class="edge">
<title>10&#45;&gt;4</title>
<path fill="none" stroke="black" d="M297.25,-23.28C327.32,-24 381.2,-25.3 413.77,-26.09"/>
<polygon fill="black" stroke="black" points="413.85,-29.59 423.93,-26.34 414.02,-22.6 413.85,-29.59"/>
<text text-anchor="middle" x="360.49" y="-30.55" font-family="Times,serif" font-size="14.00">b:B/0.03,0.07</text>
</g>
</g>
</svg>
