<?xml version="1.0" encoding="UTF-8" standalone="no"?>
<!DOCTYPE svg PUBLIC "-//W3C//DTD SVG 1.1//EN"
 "http://www.w3.org/Graphics/SVG/1.1/DTD/svg11.dtd">
<!-- Generated by graphviz version 2.43.0 (0)
 -->
<!-- Title: FST Pages: 1 -->
<svg width="612pt" height="81pt"
 viewBox="0.00 0.00 612.00 80.94" xmlns="http://www.w3.org/2000/svg" xmlns:xlink="http://www.w3.org/1999/xlink">
<g id="graph0" class="graph" transform="scale(1.21 1.21) rotate(0) translate(4 94)">
<title>FST</title>
<polygon fill="white" stroke="transparent" points="-4,4 -4,-94 737,-94 737,4 -4,4"/>
<!-- 0 -->
<g id="node1" class="node">
<title>0</title>
<ellipse fill="none" stroke="black" stroke-width="2" cx="18" cy="-45" rx="18" ry="18"/>
<text text-anchor="middle" x="18" y="-41.3" font-family="Times,serif" font-size="14.00">0</text>
</g>
<!-- 6 -->
<g id="node2" class="node">
<title>6</title>
<ellipse fill="none" stroke="black" cx="139" cy="-72" rx="18" ry="18"/>
<text text-anchor="middle" x="139" y="-68.3" font-family="Times,serif" font-size="14.00">6</text>
</g>
<!-- 0&#45;&gt;6 -->
<g id="edge1" class="edge">
<title>0&#45;&gt;6</title>
<path fill="none" stroke="black" d="M35.8,-48.81C55.47,-53.27 88.29,-60.72 111.42,-65.97"/>
<polygon fill="black" stroke="black" points="110.76,-69.41 121.29,-68.21 112.31,-62.58 110.76,-69.41"/>
<text text-anchor="middle" x="78.5" y="-67.8" font-family="Times,serif" font-size="14.00">eps:eps</text>
</g>
<!-- 8 -->
<g id="node3" class="node">
<title>8</title>
<ellipse fill="none" stroke="black" cx="139" cy="-18" rx="18" ry="18"/>
<text text-anchor="middle" x="139" y="-14.3" font-family="Times,serif" font-size="14.00">8</text>
</g>
<!-- 0&#45;&gt;8 -->
<g id="edge2" class="edge">
<title>0&#45;&gt;8</title>
<path fill="none" stroke="black" d="M34.76,-38.42C39.87,-36.47 45.62,-34.46 51,-33 70.72,-27.65 93.5,-23.81 110.8,-21.35"/>
<polygon fill="black" stroke="black" points="111.35,-24.81 120.79,-20 110.41,-17.87 111.35,-24.81"/>
<text text-anchor="middle" x="78.5" y="-36.8" font-family="Times,serif" font-size="14.00">eps:eps</text>
</g>
<!-- 5 -->
<g id="node8" class="node">
<title>5</title>
<ellipse fill="none" stroke="black" cx="260" cy="-72" rx="18" ry="18"/>
<text text-anchor="middle" x="260" y="-68.3" font-family="Times,serif" font-size="14.00">5</text>
</g>
<!-- 6&#45;&gt;5 -->
<g id="edge7" class="edge">
<title>6&#45;&gt;5</title>
<path fill="none" stroke="black" d="M157.05,-72C176.58,-72 208.84,-72 231.84,-72"/>
<polygon fill="black" stroke="black" points="231.98,-75.5 241.98,-72 231.98,-68.5 231.98,-75.5"/>
<text text-anchor="middle" x="199.5" y="-75.8" font-family="Times,serif" font-size="14.00">eps:eps</text>
</g>
<!-- 7 -->
<g id="node9" class="node">
<title>7</title>
<ellipse fill="none" stroke="black" cx="260" cy="-18" rx="18" ry="18"/>
<text text-anchor="middle" x="260" y="-14.3" font-family="Times,serif" font-size="14.00">7</text>
</g>
<!-- 8&#45;&gt;7 -->
<g id="edge9" class="edge">
<title>8&#45;&gt;7</title>
<path fill="none" stroke="black" d="M157.05,-18C176.58,-18 208.84,-18 231.84,-18"/>
<polygon fill="black" stroke="black" points="231.98,-21.5 241.98,-18 231.98,-14.5 231.98,-21.5"/>
<text text-anchor="middle" x="199.5" y="-21.8" font-family="Times,serif" font-size="14.00">eps:eps</text>
</g>
<!-- 1 -->
<g id="node4" class="node">
<title>1</title>
<ellipse fill="none" stroke="black" cx="711" cy="-45" rx="18" ry="18"/>
<ellipse fill="none" stroke="black" cx="711" cy="-45" rx="22" ry="22"/>
<text text-anchor="middle" x="711" y="-41.3" font-family="Times,serif" font-size="14.00">1</text>
</g>
<!-- 2 -->
<g id="node5" class="node">
<title>2</title>
<ellipse fill="none" stroke="black" cx="586" cy="-45" rx="18" ry="18"/>
<text text-anchor="middle" x="586" y="-41.3" font-family="Times,serif" font-size="14.00">2</text>
</g>
<!-- 2&#45;&gt;1 -->
<g id="edge3" class="edge">
<title>2&#45;&gt;1</title>
<path fill="none" stroke="black" d="M604.1,-45C623.34,-45 654.97,-45 678.67,-45"/>
<polygon fill="black" stroke="black" points="678.93,-48.5 688.93,-45 678.93,-41.5 678.93,-48.5"/>
<text text-anchor="middle" x="646.5" y="-48.8" font-family="Times,serif" font-size="14.00">eps:eps</text>
</g>
<!-- 3 -->
<g id="node6" class="node">
<title>3</title>
<ellipse fill="none" stroke="black" cx="423" cy="-18" rx="18" ry="18"/>
<text text-anchor="middle" x="423" y="-14.3" font-family="Times,serif" font-size="14.00">3</text>
</g>
<!-- 3&#45;&gt;2 -->
<g id="edge4" class="edge">
<title>3&#45;&gt;2</title>
<path fill="none" stroke="black" d="M441.41,-18.05C466.49,-18.5 514.03,-20.78 553,-31 555.46,-31.65 557.98,-32.46 560.47,-33.36"/>
<polygon fill="black" stroke="black" points="559.14,-36.6 569.72,-37.16 561.8,-30.13 559.14,-36.6"/>
<text text-anchor="middle" x="504.5" y="-34.8" font-family="Times,serif" font-size="14.00">d:D/0.15,0.05</text>
</g>
<!-- 4 -->
<g id="node7" class="node">
<title>4</title>
<ellipse fill="none" stroke="black" cx="423" cy="-72" rx="18" ry="18"/>
<text text-anchor="middle" x="423" y="-68.3" font-family="Times,serif" font-size="14.00">4</text>
</g>
<!-- 4&#45;&gt;2 -->
<g id="edge5" class="edge">
<title>4&#45;&gt;2</title>
<path fill="none" stroke="black" d="M440.93,-69.16C468.75,-64.49 524.41,-55.16 557.82,-49.56"/>
<polygon fill="black" stroke="black" points="558.53,-52.99 567.82,-47.88 557.38,-46.08 558.53,-52.99"/>
<text text-anchor="middle" x="504.5" y="-69.8" font-family="Times,serif" font-size="14.00">d:D/0.05,0.15</text>
</g>
<!-- 5&#45;&gt;4 -->
<g id="edge6" class="edge">
<title>5&#45;&gt;4</title>
<path fill="none" stroke="black" d="M278.23,-72C306.07,-72 361.19,-72 394.5,-72"/>
<polygon fill="black" stroke="black" points="394.89,-75.5 404.89,-72 394.89,-68.5 394.89,-75.5"/>
<text text-anchor="middle" x="341.5" y="-75.8" font-family="Times,serif" font-size="14.00">b:B/0.03,0.07</text>
</g>
<!-- 7&#45;&gt;3 -->
<g id="edge8" class="edge">
<title>7&#45;&gt;3</title>
<path fill="none" stroke="black" d="M278.23,-18C306.07,-18 361.19,-18 394.5,-18"/>
<polygon fill="black" stroke="black" points="394.89,-21.5 404.89,-18 394.89,-14.5 394.89,-21.5"/>
<text text-anchor="middle" x="341.5" y="-21.8" font-family="Times,serif" font-size="14.00">a:A/0.02,0.08</text>
</g>
</g>
</svg>
