<?xml version="1.0" encoding="UTF-8" standalone="no"?>
<!DOCTYPE svg PUBLIC "-//W3C//DTD SVG 1.1//EN"
 "http://www.w3.org/Graphics/SVG/1.1/DTD/svg11.dtd">
<!-- Generated by graphviz version 9.0.0 (20230911.1827)
 -->
<!-- Title: FST Pages: 1 -->
<svg width="612pt" height="92pt"
 viewBox="0.00 0.00 612.00 91.99" xmlns="http://www.w3.org/2000/svg" xmlns:xlink="http://www.w3.org/1999/xlink">
<g id="graph0" class="graph" transform="scale(0.93865 0.93865) rotate(0) translate(4 94)">
<title>FST</title>
<polygon fill="white" stroke="none" points="-4,4 -4,-94 648,-94 648,4 -4,4"/>
<!-- 0 -->
<g id="node1" class="node">
<title>0</title>
<ellipse fill="none" stroke="black" stroke-width="2" cx="18" cy="-45" rx="18" ry="18"/>
<text text-anchor="middle" x="18" y="-39.95" font-family="Times,serif" font-size="14.00">0</text>
</g>
<!-- 6 -->
<g id="node2" class="node">
<title>6</title>
<ellipse fill="none" stroke="black" cx="123.75" cy="-72" rx="18" ry="18"/>
<text text-anchor="middle" x="123.75" y="-66.95" font-family="Times,serif" font-size="14.00">6</text>
</g>
<!-- 0&#45;&gt;6 -->
<g id="edge1" class="edge">
<title>0&#45;&gt;6</title>
<path fill="none" stroke="black" d="M35.67,-49.34C51.7,-53.51 76.23,-59.89 95.17,-64.82"/>
<polygon fill="black" stroke="black" points="94.1,-68.16 104.66,-67.29 95.86,-61.39 94.1,-68.16"/>
<text text-anchor="middle" x="70.88" y="-66.2" font-family="Times,serif" font-size="14.00">eps:eps</text>
</g>
<!-- 8 -->
<g id="node3" class="node">
<title>8</title>
<ellipse fill="none" stroke="black" cx="123.75" cy="-18" rx="18" ry="18"/>
<text text-anchor="middle" x="123.75" y="-12.95" font-family="Times,serif" font-size="14.00">8</text>
</g>
<!-- 0&#45;&gt;8 -->
<g id="edge2" class="edge">
<title>0&#45;&gt;8</title>
<path fill="none" stroke="black" d="M35.14,-38.73C40.18,-36.9 45.78,-35 51,-33.5 65.31,-29.4 81.49,-25.82 94.87,-23.13"/>
<polygon fill="black" stroke="black" points="95.14,-26.64 104.29,-21.3 93.81,-19.77 95.14,-26.64"/>
<text text-anchor="middle" x="70.88" y="-37.2" font-family="Times,serif" font-size="14.00">eps:eps</text>
</g>
<!-- 5 -->
<g id="node8" class="node">
<title>5</title>
<ellipse fill="none" stroke="black" cx="229.5" cy="-72" rx="18" ry="18"/>
<text text-anchor="middle" x="229.5" y="-66.95" font-family="Times,serif" font-size="14.00">5</text>
</g>
<!-- 6&#45;&gt;5 -->
<g id="edge7" class="edge">
<title>6&#45;&gt;5</title>
<path fill="none" stroke="black" d="M141.88,-72C157.65,-72 181.35,-72 199.97,-72"/>
<polygon fill="black" stroke="black" points="199.83,-75.5 209.83,-72 199.83,-68.5 199.83,-75.5"/>
<text text-anchor="middle" x="176.62" y="-75.2" font-family="Times,serif" font-size="14.00">eps:eps</text>
</g>
<!-- 7 -->
<g id="node9" class="node">
<title>7</title>
<ellipse fill="none" stroke="black" cx="229.5" cy="-18" rx="18" ry="18"/>
<text text-anchor="middle" x="229.5" y="-12.95" font-family="Times,serif" font-size="14.00">7</text>
</g>
<!-- 8&#45;&gt;7 -->
<g id="edge9" class="edge">
<title>8&#45;&gt;7</title>
<path fill="none" stroke="black" d="M141.88,-18C157.65,-18 181.35,-18 199.97,-18"/>
<polygon fill="black" stroke="black" points="199.83,-21.5 209.83,-18 199.83,-14.5 199.83,-21.5"/>
<text text-anchor="middle" x="176.62" y="-21.2" font-family="Times,serif" font-size="14.00">eps:eps</text>
</g>
<!-- 1 -->
<g id="node4" class="node">
<title>1</title>
<ellipse fill="none" stroke="black" cx="622" cy="-45" rx="18" ry="18"/>
<ellipse fill="none" stroke="black" cx="622" cy="-45" rx="22" ry="22"/>
<text text-anchor="middle" x="622" y="-39.95" font-family="Times,serif" font-size="14.00">1</text>
</g>
<!-- 2 -->
<g id="node5" class="node">
<title>2</title>
<ellipse fill="none" stroke="black" cx="512.25" cy="-45" rx="18" ry="18"/>
<text text-anchor="middle" x="512.25" y="-39.95" font-family="Times,serif" font-size="14.00">2</text>
</g>
<!-- 2&#45;&gt;1 -->
<g id="edge3" class="edge">
<title>2&#45;&gt;1</title>
<path fill="none" stroke="black" d="M530.56,-45C546.06,-45 569.19,-45 588.18,-45"/>
<polygon fill="black" stroke="black" points="588.14,-48.5 598.14,-45 588.14,-41.5 588.14,-48.5"/>
<text text-anchor="middle" x="565.12" y="-48.2" font-family="Times,serif" font-size="14.00">eps:eps</text>
</g>
<!-- 3 -->
<g id="node6" class="node">
<title>3</title>
<ellipse fill="none" stroke="black" cx="370.5" cy="-18" rx="18" ry="18"/>
<text text-anchor="middle" x="370.5" y="-12.95" font-family="Times,serif" font-size="14.00">3</text>
</g>
<!-- 3&#45;&gt;2 -->
<g id="edge4" class="edge">
<title>3&#45;&gt;2</title>
<path fill="none" stroke="black" d="M388.64,-18.03C410.19,-18.47 448.14,-20.6 479.25,-29.5 481.39,-30.11 483.55,-30.86 485.7,-31.69"/>
<polygon fill="black" stroke="black" points="484.11,-34.81 494.67,-35.7 486.97,-28.42 484.11,-34.81"/>
<text text-anchor="middle" x="441.38" y="-33.2" font-family="Times,serif" font-size="14.00">d:D/0.15,0.05</text>
</g>
<!-- 4 -->
<g id="node7" class="node">
<title>4</title>
<ellipse fill="none" stroke="black" cx="370.5" cy="-72" rx="18" ry="18"/>
<text text-anchor="middle" x="370.5" y="-66.95" font-family="Times,serif" font-size="14.00">4</text>
</g>
<!-- 4&#45;&gt;2 -->
<g id="edge5" class="edge">
<title>4&#45;&gt;2</title>
<path fill="none" stroke="black" d="M388.64,-68.69C412.23,-64.13 455.01,-55.87 483.28,-50.4"/>
<polygon fill="black" stroke="black" points="483.77,-53.87 492.92,-48.54 482.44,-47 483.77,-53.87"/>
<text text-anchor="middle" x="441.38" y="-68.2" font-family="Times,serif" font-size="14.00">d:D/0.05,0.15</text>
</g>
<!-- 5&#45;&gt;4 -->
<g id="edge6" class="edge">
<title>5&#45;&gt;4</title>
<path fill="none" stroke="black" d="M247.82,-72C271.15,-72 312.97,-72 340.97,-72"/>
<polygon fill="black" stroke="black" points="340.88,-75.5 350.88,-72 340.88,-68.5 340.88,-75.5"/>
<text text-anchor="middle" x="300" y="-75.2" font-family="Times,serif" font-size="14.00">b:B/0.03,0.07</text>
</g>
<!-- 7&#45;&gt;3 -->
<g id="edge8" class="edge">
<title>7&#45;&gt;3</title>
<path fill="none" stroke="black" d="M247.82,-18C271.15,-18 312.97,-18 340.97,-18"/>
<polygon fill="black" stroke="black" points="340.88,-21.5 350.88,-18 340.88,-14.5 340.88,-21.5"/>
<text text-anchor="middle" x="300" y="-21.2" font-family="Times,serif" font-size="14.00">a:A/0.02,0.08</text>
</g>
</g>
</svg>
