<?xml version="1.0" encoding="UTF-8" standalone="no"?>
<!DOCTYPE svg PUBLIC "-//W3C//DTD SVG 1.1//EN"
 "http://www.w3.org/Graphics/SVG/1.1/DTD/svg11.dtd">
<!-- Generated by graphviz version 9.0.0 (20230911.1827)
 -->
<!-- Title: FST Pages: 1 -->
<svg width="335pt" height="52pt"
 viewBox="0.00 0.00 334.75 52.00" xmlns="http://www.w3.org/2000/svg" xmlns:xlink="http://www.w3.org/1999/xlink">
<g id="graph0" class="graph" transform="scale(1 1) rotate(0) translate(4 48)">
<title>FST</title>
<polygon fill="white" stroke="none" points="-4,4 -4,-48 330.75,-48 330.75,4 -4,4"/>
<!-- 2 -->
<g id="node1" class="node">
<title>2</title>
<ellipse fill="none" stroke="black" stroke-width="2" cx="18" cy="-22" rx="18" ry="18"/>
<text text-anchor="middle" x="18" y="-16.95" font-family="Times,serif" font-size="14.00">2</text>
</g>
<!-- 1 -->
<g id="node2" class="node">
<title>1</title>
<ellipse fill="none" stroke="black" cx="159" cy="-22" rx="18" ry="18"/>
<text text-anchor="middle" x="159" y="-16.95" font-family="Times,serif" font-size="14.00">1</text>
</g>
<!-- 2&#45;&gt;1 -->
<g id="edge1" class="edge">
<title>2&#45;&gt;1</title>
<path fill="none" stroke="black" d="M36.32,-22C59.65,-22 101.47,-22 129.47,-22"/>
<polygon fill="black" stroke="black" points="129.38,-25.5 139.38,-22 129.38,-18.5 129.38,-25.5"/>
<text text-anchor="middle" x="88.5" y="-25.2" font-family="Times,serif" font-size="14.00">b:B/0.03,0.07</text>
</g>
<!-- 0 -->
<g id="node3" class="node">
<title>0</title>
<ellipse fill="none" stroke="black" cx="304.75" cy="-22" rx="18" ry="18"/>
<ellipse fill="none" stroke="black" cx="304.75" cy="-22" rx="22" ry="22"/>
<text text-anchor="middle" x="304.75" y="-16.95" font-family="Times,serif" font-size="14.00">0</text>
</g>
<!-- 1&#45;&gt;0 -->
<g id="edge2" class="edge">
<title>1&#45;&gt;0</title>
<path fill="none" stroke="black" d="M177.34,-22C200.57,-22 242.25,-22 271.38,-22"/>
<polygon fill="black" stroke="black" points="271.1,-25.5 281.1,-22 271.1,-18.5 271.1,-25.5"/>
<text text-anchor="middle" x="229.88" y="-25.2" font-family="Times,serif" font-size="14.00">d:D/0.05,0.15</text>
</g>
</g>
</svg>
