<?xml version="1.0" encoding="UTF-8" standalone="no"?>
<!DOCTYPE svg PUBLIC "-//W3C//DTD SVG 1.1//EN"
 "http://www.w3.org/Graphics/SVG/1.1/DTD/svg11.dtd">
<!-- Generated by graphviz version 9.0.0 (20230911.1827)
 -->
<!-- Title: FST Pages: 1 -->
<svg width="612pt" height="145pt"
 viewBox="0.00 0.00 612.00 144.66" xmlns="http://www.w3.org/2000/svg" xmlns:xlink="http://www.w3.org/1999/xlink">
<g id="graph0" class="graph" transform="scale(0.926536 0.926536) rotate(0) translate(4 152.13)">
<title>FST</title>
<polygon fill="white" stroke="none" points="-4,4 -4,-152.13 656.52,-152.13 656.52,4 -4,4"/>
<!-- 0 -->
<g id="node1" class="node">
<title>0</title>
<ellipse fill="none" stroke="black" stroke-width="2" cx="18" cy="-76.13" rx="18" ry="18"/>
<text text-anchor="middle" x="18" y="-71.08" font-family="Times,serif" font-size="14.00">0</text>
</g>
<!-- 7 -->
<g id="node2" class="node">
<title>7</title>
<ellipse fill="none" stroke="black" cx="125.88" cy="-130.13" rx="18" ry="18"/>
<text text-anchor="middle" x="125.88" y="-125.08" font-family="Times,serif" font-size="14.00">7</text>
</g>
<!-- 0&#45;&gt;7 -->
<g id="edge1" class="edge">
<title>0&#45;&gt;7</title>
<path fill="none" stroke="black" d="M33.35,-86.26C38.77,-89.88 45.05,-93.88 51,-97.13 66.17,-105.43 83.83,-113.38 98.09,-119.39"/>
<polygon fill="black" stroke="black" points="96.69,-122.6 107.27,-123.19 99.37,-116.14 96.69,-122.6"/>
<text text-anchor="middle" x="70.88" y="-119.33" font-family="Times,serif" font-size="14.00">eps:eps</text>
</g>
<!-- 9 -->
<g id="node3" class="node">
<title>9</title>
<ellipse fill="none" stroke="black" cx="125.88" cy="-76.13" rx="18" ry="18"/>
<text text-anchor="middle" x="125.88" y="-71.08" font-family="Times,serif" font-size="14.00">9</text>
</g>
<!-- 0&#45;&gt;9 -->
<g id="edge2" class="edge">
<title>0&#45;&gt;9</title>
<path fill="none" stroke="black" d="M36.48,-76.13C52.75,-76.13 77.28,-76.13 96.38,-76.13"/>
<polygon fill="black" stroke="black" points="96.21,-79.63 106.21,-76.13 96.21,-72.63 96.21,-79.63"/>
<text text-anchor="middle" x="70.88" y="-79.33" font-family="Times,serif" font-size="14.00">eps:eps</text>
</g>
<!-- 11 -->
<g id="node4" class="node">
<title>11</title>
<ellipse fill="none" stroke="black" cx="125.88" cy="-20.13" rx="20.13" ry="20.13"/>
<text text-anchor="middle" x="125.88" y="-15.08" font-family="Times,serif" font-size="14.00">11</text>
</g>
<!-- 0&#45;&gt;11 -->
<g id="edge3" class="edge">
<title>0&#45;&gt;11</title>
<path fill="none" stroke="black" d="M33.43,-66.36C38.85,-62.83 45.12,-58.91 51,-55.63 65.71,-47.43 82.61,-39.22 96.53,-32.77"/>
<polygon fill="black" stroke="black" points="97.94,-35.97 105.58,-28.63 95.03,-29.6 97.94,-35.97"/>
<text text-anchor="middle" x="70.88" y="-59.33" font-family="Times,serif" font-size="14.00">eps:eps</text>
</g>
<!-- 6 -->
<g id="node10" class="node">
<title>6</title>
<ellipse fill="none" stroke="black" cx="235.89" cy="-130.13" rx="18" ry="18"/>
<text text-anchor="middle" x="235.89" y="-125.08" font-family="Times,serif" font-size="14.00">6</text>
</g>
<!-- 7&#45;&gt;6 -->
<g id="edge9" class="edge">
<title>7&#45;&gt;6</title>
<path fill="none" stroke="black" d="M144.24,-130.13C160.93,-130.13 186.46,-130.13 206.19,-130.13"/>
<polygon fill="black" stroke="black" points="206.07,-133.63 216.07,-130.13 206.07,-126.63 206.07,-133.63"/>
<text text-anchor="middle" x="180.89" y="-133.33" font-family="Times,serif" font-size="14.00">eps:eps</text>
</g>
<!-- 8 -->
<g id="node11" class="node">
<title>8</title>
<ellipse fill="none" stroke="black" cx="235.89" cy="-76.13" rx="18" ry="18"/>
<text text-anchor="middle" x="235.89" y="-71.08" font-family="Times,serif" font-size="14.00">8</text>
</g>
<!-- 9&#45;&gt;8 -->
<g id="edge11" class="edge">
<title>9&#45;&gt;8</title>
<path fill="none" stroke="black" d="M144.24,-76.13C160.93,-76.13 186.46,-76.13 206.19,-76.13"/>
<polygon fill="black" stroke="black" points="206.07,-79.63 216.07,-76.13 206.07,-72.63 206.07,-79.63"/>
<text text-anchor="middle" x="180.89" y="-79.33" font-family="Times,serif" font-size="14.00">eps:eps</text>
</g>
<!-- 10 -->
<g id="node12" class="node">
<title>10</title>
<ellipse fill="none" stroke="black" cx="235.89" cy="-20.13" rx="20.13" ry="20.13"/>
<text text-anchor="middle" x="235.89" y="-15.08" font-family="Times,serif" font-size="14.00">10</text>
</g>
<!-- 11&#45;&gt;10 -->
<g id="edge13" class="edge">
<title>11&#45;&gt;10</title>
<path fill="none" stroke="black" d="M146.44,-20.13C162.5,-20.13 185.53,-20.13 204.07,-20.13"/>
<polygon fill="black" stroke="black" points="203.97,-23.63 213.97,-20.13 203.97,-16.63 203.97,-23.63"/>
<text text-anchor="middle" x="180.89" y="-23.33" font-family="Times,serif" font-size="14.00">eps:eps</text>
</g>
<!-- 1 -->
<g id="node5" class="node">
<title>1</title>
<ellipse fill="none" stroke="black" cx="630.52" cy="-76.13" rx="18" ry="18"/>
<ellipse fill="none" stroke="black" cx="630.52" cy="-76.13" rx="22" ry="22"/>
<text text-anchor="middle" x="630.52" y="-71.08" font-family="Times,serif" font-size="14.00">1</text>
</g>
<!-- 2 -->
<g id="node6" class="node">
<title>2</title>
<ellipse fill="none" stroke="black" cx="520.77" cy="-76.13" rx="18" ry="18"/>
<text text-anchor="middle" x="520.77" y="-71.08" font-family="Times,serif" font-size="14.00">2</text>
</g>
<!-- 2&#45;&gt;1 -->
<g id="edge4" class="edge">
<title>2&#45;&gt;1</title>
<path fill="none" stroke="black" d="M539.09,-76.13C554.58,-76.13 577.71,-76.13 596.71,-76.13"/>
<polygon fill="black" stroke="black" points="596.66,-79.63 606.66,-76.13 596.66,-72.63 596.66,-79.63"/>
<text text-anchor="middle" x="573.65" y="-79.33" font-family="Times,serif" font-size="14.00">eps:eps</text>
</g>
<!-- 3 -->
<g id="node7" class="node">
<title>3</title>
<ellipse fill="none" stroke="black" cx="379.02" cy="-76.13" rx="18" ry="18"/>
<text text-anchor="middle" x="379.02" y="-71.08" font-family="Times,serif" font-size="14.00">3</text>
</g>
<!-- 3&#45;&gt;2 -->
<g id="edge5" class="edge">
<title>3&#45;&gt;2</title>
<path fill="none" stroke="black" d="M397.44,-76.13C420.9,-76.13 462.94,-76.13 491.09,-76.13"/>
<polygon fill="black" stroke="black" points="491.06,-79.63 501.06,-76.13 491.06,-72.63 491.06,-79.63"/>
<text text-anchor="middle" x="449.9" y="-79.33" font-family="Times,serif" font-size="14.00">d:D/0.15,0.05</text>
</g>
<!-- 4 -->
<g id="node8" class="node">
<title>4</title>
<ellipse fill="none" stroke="black" cx="379.02" cy="-22.13" rx="18" ry="18"/>
<text text-anchor="middle" x="379.02" y="-17.08" font-family="Times,serif" font-size="14.00">4</text>
</g>
<!-- 4&#45;&gt;2 -->
<g id="edge6" class="edge">
<title>4&#45;&gt;2</title>
<path fill="none" stroke="black" d="M396.97,-25.9C418.64,-31.06 457.05,-41.33 487.77,-55.63 490.44,-56.87 493.15,-58.31 495.81,-59.82"/>
<polygon fill="black" stroke="black" points="493.96,-62.79 504.3,-65.09 497.65,-56.84 493.96,-62.79"/>
<text text-anchor="middle" x="449.9" y="-59.33" font-family="Times,serif" font-size="14.00">c:C/0.15,0.15</text>
</g>
<!-- 5 -->
<g id="node9" class="node">
<title>5</title>
<ellipse fill="none" stroke="black" cx="379.02" cy="-130.13" rx="18" ry="18"/>
<text text-anchor="middle" x="379.02" y="-125.08" font-family="Times,serif" font-size="14.00">5</text>
</g>
<!-- 5&#45;&gt;2 -->
<g id="edge7" class="edge">
<title>5&#45;&gt;2</title>
<path fill="none" stroke="black" d="M397,-126.51C418.7,-121.53 457.14,-111.52 487.77,-97.13 490.55,-95.83 493.37,-94.31 496.13,-92.7"/>
<polygon fill="black" stroke="black" points="497.79,-95.79 504.35,-87.47 494.03,-89.88 497.79,-95.79"/>
<text text-anchor="middle" x="449.9" y="-125.33" font-family="Times,serif" font-size="14.00">d:D/0.05,0.15</text>
</g>
<!-- 6&#45;&gt;5 -->
<g id="edge8" class="edge">
<title>6&#45;&gt;5</title>
<path fill="none" stroke="black" d="M254.2,-130.13C277.9,-130.13 320.77,-130.13 349.32,-130.13"/>
<polygon fill="black" stroke="black" points="349.06,-133.63 359.06,-130.13 349.06,-126.63 349.06,-133.63"/>
<text text-anchor="middle" x="308.52" y="-133.33" font-family="Times,serif" font-size="14.00">b:B/0.03,0.07</text>
</g>
<!-- 8&#45;&gt;3 -->
<g id="edge10" class="edge">
<title>8&#45;&gt;3</title>
<path fill="none" stroke="black" d="M254.2,-76.13C277.9,-76.13 320.77,-76.13 349.32,-76.13"/>
<polygon fill="black" stroke="black" points="349.06,-79.63 359.06,-76.13 349.06,-72.63 349.06,-79.63"/>
<text text-anchor="middle" x="308.52" y="-79.33" font-family="Times,serif" font-size="14.00">a:A/0.02,0.08</text>
</g>
<!-- 10&#45;&gt;4 -->
<g id="edge12" class="edge">
<title>10&#45;&gt;4</title>
<path fill="none" stroke="black" d="M256.52,-20.41C280.66,-20.75 321.85,-21.34 349.5,-21.73"/>
<polygon fill="black" stroke="black" points="349.22,-25.22 359.27,-21.87 349.32,-18.22 349.22,-25.22"/>
<text text-anchor="middle" x="308.52" y="-25.33" font-family="Times,serif" font-size="14.00">b:B/0.03,0.07</text>
</g>
</g>
</svg>
