<?xml version="1.0" encoding="UTF-8" standalone="no"?>
<!DOCTYPE svg PUBLIC "-//W3C//DTD SVG 1.1//EN"
 "http://www.w3.org/Graphics/SVG/1.1/DTD/svg11.dtd">
<!-- Generated by graphviz version 2.43.0 (0)
 -->
<!-- Title: FST Pages: 1 -->
<svg width="338pt" height="98pt"
 viewBox="0.00 0.00 338.00 98.00" xmlns="http://www.w3.org/2000/svg" xmlns:xlink="http://www.w3.org/1999/xlink">
<g id="graph0" class="graph" transform="scale(1 1) rotate(0) translate(4 94)">
<title>FST</title>
<polygon fill="white" stroke="transparent" points="-4,4 -4,-94 334,-94 334,4 -4,4"/>
<!-- 0 -->
<g id="node1" class="node">
<title>0</title>
<ellipse fill="none" stroke="black" stroke-width="2" cx="18" cy="-45" rx="18" ry="18"/>
<text text-anchor="middle" x="18" y="-41.3" font-family="Times,serif" font-size="14.00">0</text>
</g>
<!-- 1 -->
<g id="node2" class="node">
<title>1</title>
<ellipse fill="none" stroke="black" cx="161" cy="-72" rx="18" ry="18"/>
<text text-anchor="middle" x="161" y="-68.3" font-family="Times,serif" font-size="14.00">1</text>
</g>
<!-- 0&#45;&gt;1 -->
<g id="edge1" class="edge">
<title>0&#45;&gt;1</title>
<path fill="none" stroke="black" d="M35.73,-48.2C59.66,-52.79 103.95,-61.27 132.68,-66.77"/>
<polygon fill="black" stroke="black" points="132.37,-70.27 142.85,-68.72 133.69,-63.4 132.37,-70.27"/>
<text text-anchor="middle" x="89.5" y="-68.8" font-family="Times,serif" font-size="14.00">1:2/0.1,0.2</text>
</g>
<!-- 2 -->
<g id="node3" class="node">
<title>2</title>
<ellipse fill="none" stroke="black" cx="161" cy="-18" rx="18" ry="18"/>
<text text-anchor="middle" x="161" y="-14.3" font-family="Times,serif" font-size="14.00">2</text>
</g>
<!-- 0&#45;&gt;2 -->
<g id="edge2" class="edge">
<title>0&#45;&gt;2</title>
<path fill="none" stroke="black" d="M34.68,-37.69C39.79,-35.56 45.55,-33.43 51,-32 78.28,-24.84 110.39,-21.28 132.67,-19.55"/>
<polygon fill="black" stroke="black" points="133.02,-23.03 142.75,-18.84 132.53,-16.05 133.02,-23.03"/>
<text text-anchor="middle" x="89.5" y="-35.8" font-family="Times,serif" font-size="14.00">3:4/0.3,0.4</text>
</g>
<!-- 3 -->
<g id="node4" class="node">
<title>3</title>
<ellipse fill="none" stroke="black" cx="308" cy="-45" rx="18" ry="18"/>
<ellipse fill="none" stroke="black" cx="308" cy="-45" rx="22" ry="22"/>
<text text-anchor="middle" x="308" y="-41.3" font-family="Times,serif" font-size="14.00">3</text>
</g>
<!-- 1&#45;&gt;3 -->
<g id="edge3" class="edge">
<title>1&#45;&gt;3</title>
<path fill="none" stroke="black" d="M178.92,-68.85C202.71,-64.42 246.45,-56.27 276.13,-50.75"/>
<polygon fill="black" stroke="black" points="276.79,-54.19 285.98,-48.91 275.51,-47.3 276.79,-54.19"/>
<text text-anchor="middle" x="232.5" y="-68.8" font-family="Times,serif" font-size="14.00">5:6/0.5,0.6</text>
</g>
<!-- 2&#45;&gt;3 -->
<g id="edge4" class="edge">
<title>2&#45;&gt;3</title>
<path fill="none" stroke="black" d="M179.17,-19.37C200.8,-21.33 239,-25.53 271,-33 273.06,-33.48 275.16,-34.03 277.27,-34.62"/>
<polygon fill="black" stroke="black" points="276.42,-38.02 287.01,-37.61 278.47,-31.33 276.42,-38.02"/>
<text text-anchor="middle" x="232.5" y="-36.8" font-family="Times,serif" font-size="14.00">6:8/0.7,0.8</text>
</g>
</g>
</svg>
