<?xml version="1.0" encoding="UTF-8" standalone="no"?>
<!DOCTYPE svg PUBLIC "-//W3C//DTD SVG 1.1//EN"
 "http://www.w3.org/Graphics/SVG/1.1/DTD/svg11.dtd">
<!-- Generated by graphviz version 2.43.0 (0)
 -->
<!-- Title: FST Pages: 1 -->
<svg width="378pt" height="52pt"
 viewBox="0.00 0.00 378.00 52.00" xmlns="http://www.w3.org/2000/svg" xmlns:xlink="http://www.w3.org/1999/xlink">
<g id="graph0" class="graph" transform="scale(1 1) rotate(0) translate(4 48)">
<title>FST</title>
<polygon fill="white" stroke="transparent" points="-4,4 -4,-48 374,-48 374,4 -4,4"/>
<!-- 2 -->
<g id="node1" class="node">
<title>2</title>
<ellipse fill="none" stroke="black" stroke-width="2" cx="18" cy="-22" rx="18" ry="18"/>
<text text-anchor="middle" x="18" y="-18.3" font-family="Times,serif" font-size="14.00">2</text>
</g>
<!-- 1 -->
<g id="node2" class="node">
<title>1</title>
<ellipse fill="none" stroke="black" cx="181" cy="-22" rx="18" ry="18"/>
<text text-anchor="middle" x="181" y="-18.3" font-family="Times,serif" font-size="14.00">1</text>
</g>
<!-- 2&#45;&gt;1 -->
<g id="edge1" class="edge">
<title>2&#45;&gt;1</title>
<path fill="none" stroke="black" d="M36.23,-22C64.07,-22 119.19,-22 152.5,-22"/>
<polygon fill="black" stroke="black" points="152.89,-25.5 162.89,-22 152.89,-18.5 152.89,-25.5"/>
<text text-anchor="middle" x="99.5" y="-25.8" font-family="Times,serif" font-size="14.00">b:B/0.03,0.07</text>
</g>
<!-- 0 -->
<g id="node3" class="node">
<title>0</title>
<ellipse fill="none" stroke="black" cx="348" cy="-22" rx="18" ry="18"/>
<ellipse fill="none" stroke="black" cx="348" cy="-22" rx="22" ry="22"/>
<text text-anchor="middle" x="348" y="-18.3" font-family="Times,serif" font-size="14.00">0</text>
</g>
<!-- 1&#45;&gt;0 -->
<g id="edge2" class="edge">
<title>1&#45;&gt;0</title>
<path fill="none" stroke="black" d="M199.04,-22C226.57,-22 281.26,-22 315.88,-22"/>
<polygon fill="black" stroke="black" points="315.93,-25.5 325.93,-22 315.93,-18.5 315.93,-25.5"/>
<text text-anchor="middle" x="262.5" y="-25.8" font-family="Times,serif" font-size="14.00">d:D/0.05,0.15</text>
</g>
</g>
</svg>
