<?xml version="1.0" encoding="UTF-8" standalone="no"?>
<!DOCTYPE svg PUBLIC "-//W3C//DTD SVG 1.1//EN"
 "http://www.w3.org/Graphics/SVG/1.1/DTD/svg11.dtd">
<!-- Generated by graphviz version 2.43.0 (0)
 -->
<!-- Title: FST Pages: 1 -->
<svg width="443pt" height="84pt"
 viewBox="0.00 0.00 443.00 83.62" xmlns="http://www.w3.org/2000/svg" xmlns:xlink="http://www.w3.org/1999/xlink">
<g id="graph0" class="graph" transform="scale(1 1) rotate(0) translate(4 79.62)">
<title>FST</title>
<polygon fill="white" stroke="transparent" points="-4,4 -4,-79.62 439,-79.62 439,4 -4,4"/>
<!-- 0 -->
<g id="node1" class="node">
<title>0</title>
<ellipse fill="none" stroke="black" stroke-width="2" cx="18" cy="-22.62" rx="18" ry="18"/>
<text text-anchor="middle" x="18" y="-18.92" font-family="Times,serif" font-size="14.00">0</text>
</g>
<!-- 1 -->
<g id="node2" class="node">
<title>1</title>
<ellipse fill="none" stroke="black" cx="125" cy="-22.62" rx="18" ry="18"/>
<text text-anchor="middle" x="125" y="-18.92" font-family="Times,serif" font-size="14.00">1</text>
</g>
<!-- 0&#45;&gt;1 -->
<g id="edge1" class="edge">
<title>0&#45;&gt;1</title>
<path fill="none" stroke="black" d="M36.34,-22.62C52.78,-22.62 77.72,-22.62 96.81,-22.62"/>
<polygon fill="black" stroke="black" points="96.98,-26.12 106.98,-22.62 96.98,-19.12 96.98,-26.12"/>
<text text-anchor="middle" x="71.5" y="-26.42" font-family="Times,serif" font-size="14.00">a/&#45;0.5</text>
</g>
<!-- 0&#45;&gt;1 -->
<g id="edge2" class="edge">
<title>0&#45;&gt;1</title>
<path fill="none" stroke="black" d="M32.91,-12.16C38.27,-8.73 44.64,-5.36 51,-3.62 68.57,1.21 74.43,1.21 92,-3.62 95.08,-4.46 98.16,-5.69 101.13,-7.12"/>
<polygon fill="black" stroke="black" points="99.66,-10.31 110.09,-12.16 103.09,-4.21 99.66,-10.31"/>
<text text-anchor="middle" x="71.5" y="-7.42" font-family="Times,serif" font-size="14.00">b/&#45;1.5</text>
</g>
<!-- 2 -->
<g id="node3" class="node">
<title>2</title>
<ellipse fill="none" stroke="black" cx="246.5" cy="-57.62" rx="18" ry="18"/>
<text text-anchor="middle" x="246.5" y="-53.92" font-family="Times,serif" font-size="14.00">2</text>
</g>
<!-- 1&#45;&gt;2 -->
<g id="edge3" class="edge">
<title>1&#45;&gt;2</title>
<path fill="none" stroke="black" d="M142.62,-27.48C162.5,-33.31 196.04,-43.13 219.4,-49.97"/>
<polygon fill="black" stroke="black" points="218.44,-53.34 229.03,-52.79 220.41,-46.62 218.44,-53.34"/>
<text text-anchor="middle" x="178" y="-46.42" font-family="Times,serif" font-size="14.00">c/&#45;2.5</text>
</g>
<!-- 3 -->
<g id="node4" class="node">
<title>3</title>
<ellipse fill="none" stroke="black" cx="413" cy="-22.62" rx="18" ry="18"/>
<ellipse fill="none" stroke="black" cx="413" cy="-22.62" rx="22" ry="22"/>
<text text-anchor="middle" x="413" y="-18.92" font-family="Times,serif" font-size="14.00">3</text>
</g>
<!-- 1&#45;&gt;3 -->
<g id="edge4" class="edge">
<title>1&#45;&gt;3</title>
<path fill="none" stroke="black" d="M142.98,-20.85C160.5,-19.11 188.62,-16.6 213,-15.62 272.33,-13.23 341.62,-17.2 380.81,-20.07"/>
<polygon fill="black" stroke="black" points="380.56,-23.56 390.79,-20.82 381.08,-16.58 380.56,-23.56"/>
<text text-anchor="middle" x="246.5" y="-19.42" font-family="Times,serif" font-size="14.00">&lt;eps&gt;/&#45;3</text>
</g>
<!-- 2&#45;&gt;3 -->
<g id="edge5" class="edge">
<title>2&#45;&gt;3</title>
<path fill="none" stroke="black" d="M264.18,-54.07C291.64,-48.23 346.78,-36.49 381.4,-29.13"/>
<polygon fill="black" stroke="black" points="382.38,-32.5 391.44,-26.99 380.93,-25.65 382.38,-32.5"/>
<text text-anchor="middle" x="335.5" y="-50.42" font-family="Times,serif" font-size="14.00">&lt;eps&gt;/&#45;3.5</text>
</g>
</g>
</svg>
