<?xml version="1.0" encoding="UTF-8" standalone="no"?>
<!DOCTYPE svg PUBLIC "-//W3C//DTD SVG 1.1//EN"
 "http://www.w3.org/Graphics/SVG/1.1/DTD/svg11.dtd">
<!-- Generated by graphviz version 6.0.2 (20221011.1828)
 -->
<!-- Title: FST Pages: 1 -->
<svg width="390pt" height="83pt"
 viewBox="0.00 0.00 390.00 83.00" xmlns="http://www.w3.org/2000/svg" xmlns:xlink="http://www.w3.org/1999/xlink">
<g id="graph0" class="graph" transform="scale(1 1) rotate(0) translate(4 79)">
<title>FST</title>
<polygon fill="white" stroke="none" points="-4,4 -4,-79 386,-79 386,4 -4,4"/>
<!-- 0 -->
<g id="node1" class="node">
<title>0</title>
<ellipse fill="none" stroke="black" stroke-width="2" cx="18" cy="-22" rx="18" ry="18"/>
<text text-anchor="middle" x="18" y="-18.3" font-family="Times,serif" font-size="14.00">0</text>
</g>
<!-- 1 -->
<g id="node2" class="node">
<title>1</title>
<ellipse fill="none" stroke="black" cx="117" cy="-22" rx="18" ry="18"/>
<text text-anchor="middle" x="117" y="-18.3" font-family="Times,serif" font-size="14.00">1</text>
</g>
<!-- 0&#45;&gt;1 -->
<g id="edge1" class="edge">
<title>0&#45;&gt;1</title>
<path fill="none" stroke="black" d="M36.34,-22C50.82,-22 71.74,-22 88.5,-22"/>
<polygon fill="black" stroke="black" points="88.81,-25.5 98.81,-22 88.81,-18.5 88.81,-25.5"/>
<text text-anchor="middle" x="67.5" y="-25.8" font-family="Times,serif" font-size="14.00">a/&#45;0.5</text>
</g>
<!-- 0&#45;&gt;1 -->
<g id="edge2" class="edge">
<title>0&#45;&gt;1</title>
<path fill="none" stroke="black" d="M32.91,-11.54C38.27,-8.12 44.64,-4.74 51,-3 65.14,0.88 69.86,0.88 84,-3 87.08,-3.85 90.16,-5.07 93.13,-6.5"/>
<polygon fill="black" stroke="black" points="91.66,-9.69 102.09,-11.54 95.09,-3.59 91.66,-9.69"/>
<text text-anchor="middle" x="67.5" y="-6.8" font-family="Times,serif" font-size="14.00">b/&#45;1.5</text>
</g>
<!-- 2 -->
<g id="node3" class="node">
<title>2</title>
<ellipse fill="none" stroke="black" cx="222" cy="-57" rx="18" ry="18"/>
<text text-anchor="middle" x="222" y="-53.3" font-family="Times,serif" font-size="14.00">2</text>
</g>
<!-- 1&#45;&gt;2 -->
<g id="edge3" class="edge">
<title>1&#45;&gt;2</title>
<path fill="none" stroke="black" d="M134.55,-27.62C150.94,-33.19 176.27,-41.8 195.28,-48.26"/>
<polygon fill="black" stroke="black" points="194.24,-51.6 204.83,-51.51 196.49,-44.97 194.24,-51.6"/>
<text text-anchor="middle" x="166" y="-46.8" font-family="Times,serif" font-size="14.00">c/&#45;2.5</text>
</g>
<!-- 3 -->
<g id="node4" class="node">
<title>3</title>
<ellipse fill="none" stroke="black" cx="360" cy="-22" rx="18" ry="18"/>
<ellipse fill="none" stroke="black" cx="360" cy="-22" rx="22" ry="22"/>
<text text-anchor="middle" x="360" y="-18.3" font-family="Times,serif" font-size="14.00">3</text>
</g>
<!-- 1&#45;&gt;3 -->
<g id="edge4" class="edge">
<title>1&#45;&gt;3</title>
<path fill="none" stroke="black" d="M134.92,-20.06C150.9,-18.34 175.54,-15.95 197,-15 242.48,-12.99 295.15,-16.31 327.77,-19.03"/>
<polygon fill="black" stroke="black" points="327.76,-22.54 338.03,-19.92 328.37,-15.57 327.76,-22.54"/>
<text text-anchor="middle" x="222" y="-18.8" font-family="Times,serif" font-size="14.00">&lt;eps&gt;/&#45;3</text>
</g>
<!-- 2&#45;&gt;3 -->
<g id="edge5" class="edge">
<title>2&#45;&gt;3</title>
<path fill="none" stroke="black" d="M239.68,-52.71C261.69,-47.04 300.86,-36.96 328.3,-29.9"/>
<polygon fill="black" stroke="black" points="329.37,-33.24 338.18,-27.36 327.62,-26.46 329.37,-33.24"/>
<text text-anchor="middle" x="292.5" y="-49.8" font-family="Times,serif" font-size="14.00">&lt;eps&gt;/&#45;3.5</text>
</g>
</g>
</svg>
