<?xml version="1.0" encoding="UTF-8" standalone="no"?>
<!DOCTYPE svg PUBLIC "-//W3C//DTD SVG 1.1//EN"
 "http://www.w3.org/Graphics/SVG/1.1/DTD/svg11.dtd">
<!-- Generated by graphviz version 9.0.0 (20230911.1827)
 -->
<!-- Title: FST Pages: 1 -->
<svg width="387pt" height="87pt"
 viewBox="0.00 0.00 387.25 86.52" xmlns="http://www.w3.org/2000/svg" xmlns:xlink="http://www.w3.org/1999/xlink">
<g id="graph0" class="graph" transform="scale(1 1) rotate(0) translate(4 82.52)">
<title>FST</title>
<polygon fill="white" stroke="none" points="-4,4 -4,-82.52 383.25,-82.52 383.25,4 -4,4"/>
<!-- 0 -->
<g id="node1" class="node">
<title>0</title>
<ellipse fill="none" stroke="black" stroke-width="2" cx="18" cy="-23.52" rx="18" ry="18"/>
<text text-anchor="middle" x="18" y="-18.47" font-family="Times,serif" font-size="14.00">0</text>
</g>
<!-- 1 -->
<g id="node2" class="node">
<title>1</title>
<ellipse fill="none" stroke="black" cx="116.25" cy="-23.52" rx="18" ry="18"/>
<text text-anchor="middle" x="116.25" y="-18.47" font-family="Times,serif" font-size="14.00">1</text>
</g>
<!-- 0&#45;&gt;1 -->
<g id="edge1" class="edge">
<title>0&#45;&gt;1</title>
<path fill="none" stroke="black" d="M36.21,-23.52C50.22,-23.52 70.29,-23.52 86.7,-23.52"/>
<polygon fill="black" stroke="black" points="86.35,-27.02 96.35,-23.52 86.35,-20.02 86.35,-27.02"/>
<text text-anchor="middle" x="67.12" y="-26.72" font-family="Times,serif" font-size="14.00">a/&#45;0.5</text>
</g>
<!-- 0&#45;&gt;1 -->
<g id="edge2" class="edge">
<title>0&#45;&gt;1</title>
<path fill="none" stroke="black" d="M32.48,-12.46C37.9,-8.69 44.41,-4.95 51,-3.02 64.76,1.01 69.49,1.01 83.25,-3.02 86.23,-3.9 89.2,-5.14 92.06,-6.59"/>
<polygon fill="black" stroke="black" points="90.1,-9.5 100.47,-11.68 93.73,-3.51 90.1,-9.5"/>
<text text-anchor="middle" x="67.12" y="-6.72" font-family="Times,serif" font-size="14.00">b/&#45;1.5</text>
</g>
<!-- 2 -->
<g id="node3" class="node">
<title>2</title>
<ellipse fill="none" stroke="black" cx="220.5" cy="-60.52" rx="18" ry="18"/>
<text text-anchor="middle" x="220.5" y="-55.47" font-family="Times,serif" font-size="14.00">2</text>
</g>
<!-- 1&#45;&gt;2 -->
<g id="edge3" class="edge">
<title>1&#45;&gt;2</title>
<path fill="none" stroke="black" d="M133.68,-29.47C149.48,-35.18 173.65,-43.93 192.32,-50.69"/>
<polygon fill="black" stroke="black" points="191.1,-53.96 201.69,-54.08 193.48,-47.38 191.1,-53.96"/>
<text text-anchor="middle" x="165" y="-48.72" font-family="Times,serif" font-size="14.00">c/&#45;2.5</text>
</g>
<!-- 3 -->
<g id="node4" class="node">
<title>3</title>
<ellipse fill="none" stroke="black" cx="357.25" cy="-23.52" rx="18" ry="18"/>
<ellipse fill="none" stroke="black" cx="357.25" cy="-23.52" rx="22" ry="22"/>
<text text-anchor="middle" x="357.25" y="-18.47" font-family="Times,serif" font-size="14.00">3</text>
</g>
<!-- 1&#45;&gt;3 -->
<g id="edge4" class="edge">
<title>1&#45;&gt;3</title>
<path fill="none" stroke="black" d="M134.38,-21.69C150.26,-20.09 174.57,-17.9 195.75,-17.02 239.98,-15.19 291.06,-18.13 323.5,-20.63"/>
<polygon fill="black" stroke="black" points="323.2,-24.11 333.45,-21.43 323.77,-17.14 323.2,-24.11"/>
<text text-anchor="middle" x="220.5" y="-20.72" font-family="Times,serif" font-size="14.00">&lt;eps&gt;/&#45;3</text>
</g>
<!-- 2&#45;&gt;3 -->
<g id="edge5" class="edge">
<title>2&#45;&gt;3</title>
<path fill="none" stroke="black" d="M238.29,-55.91C259.9,-49.98 297.86,-39.55 324.88,-32.13"/>
<polygon fill="black" stroke="black" points="325.54,-35.58 334.25,-29.56 323.68,-28.83 325.54,-35.58"/>
<text text-anchor="middle" x="290.25" y="-52.72" font-family="Times,serif" font-size="14.00">&lt;eps&gt;/&#45;3.5</text>
</g>
</g>
</svg>
