<?xml version="1.0" encoding="UTF-8" standalone="no"?>
<!DOCTYPE svg PUBLIC "-//W3C//DTD SVG 1.1//EN"
 "http://www.w3.org/Graphics/SVG/1.1/DTD/svg11.dtd">
<!-- Generated by graphviz version 2.43.0 (0)
 -->
<!-- Title: FST Pages: 1 -->
<svg width="575pt" height="85pt"
 viewBox="0.00 0.00 575.00 84.76" xmlns="http://www.w3.org/2000/svg" xmlns:xlink="http://www.w3.org/1999/xlink">
<g id="graph0" class="graph" transform="scale(1 1) rotate(0) translate(4 80.76)">
<title>FST</title>
<polygon fill="white" stroke="transparent" points="-4,4 -4,-80.76 571,-80.76 571,4 -4,4"/>
<!-- 0 -->
<g id="node1" class="node">
<title>0</title>
<ellipse fill="none" stroke="black" stroke-width="2" cx="18" cy="-23.76" rx="18" ry="18"/>
<text text-anchor="middle" x="18" y="-20.06" font-family="Times,serif" font-size="14.00">0</text>
</g>
<!-- 1 -->
<g id="node2" class="node">
<title>1</title>
<ellipse fill="none" stroke="black" cx="138" cy="-23.76" rx="18" ry="18"/>
<text text-anchor="middle" x="138" y="-20.06" font-family="Times,serif" font-size="14.00">1</text>
</g>
<!-- 0&#45;&gt;1 -->
<g id="edge1" class="edge">
<title>0&#45;&gt;1</title>
<path fill="none" stroke="black" d="M36.16,-23.76C55.47,-23.76 87.11,-23.76 109.8,-23.76"/>
<polygon fill="black" stroke="black" points="109.82,-27.26 119.82,-23.76 109.82,-20.26 109.82,-27.26"/>
<text text-anchor="middle" x="78" y="-27.56" font-family="Times,serif" font-size="14.00">a:x/&#45;0.5</text>
</g>
<!-- 0&#45;&gt;1 -->
<g id="edge2" class="edge">
<title>0&#45;&gt;1</title>
<path fill="none" stroke="black" d="M32.91,-13.3C38.27,-9.88 44.64,-6.51 51,-4.76 74.14,1.59 81.86,1.59 105,-4.76 108.08,-5.61 111.16,-6.84 114.13,-8.27"/>
<polygon fill="black" stroke="black" points="112.66,-11.45 123.09,-13.3 116.09,-5.35 112.66,-11.45"/>
<text text-anchor="middle" x="78" y="-8.56" font-family="Times,serif" font-size="14.00">b:y/&#45;1.5</text>
</g>
<!-- 2 -->
<g id="node3" class="node">
<title>2</title>
<ellipse fill="none" stroke="black" cx="298.5" cy="-58.76" rx="18" ry="18"/>
<text text-anchor="middle" x="298.5" y="-55.06" font-family="Times,serif" font-size="14.00">2</text>
</g>
<!-- 1&#45;&gt;2 -->
<g id="edge3" class="edge">
<title>1&#45;&gt;2</title>
<path fill="none" stroke="black" d="M155.66,-27.44C183.06,-33.49 237.85,-45.59 270.74,-52.86"/>
<polygon fill="black" stroke="black" points="270.06,-56.29 280.58,-55.03 271.57,-49.46 270.06,-56.29"/>
<text text-anchor="middle" x="197" y="-44.56" font-family="Times,serif" font-size="14.00">c:z/&#45;2.5</text>
</g>
<!-- 3 -->
<g id="node4" class="node">
<title>3</title>
<ellipse fill="none" stroke="black" cx="545" cy="-23.76" rx="18" ry="18"/>
<ellipse fill="none" stroke="black" cx="545" cy="-23.76" rx="22" ry="22"/>
<text text-anchor="middle" x="545" y="-20.06" font-family="Times,serif" font-size="14.00">3</text>
</g>
<!-- 1&#45;&gt;3 -->
<g id="edge4" class="edge">
<title>1&#45;&gt;3</title>
<path fill="none" stroke="black" d="M156.15,-22.18C175.88,-20.45 209.24,-17.78 238,-16.76 338.32,-13.22 457.21,-18.72 512.63,-21.84"/>
<polygon fill="black" stroke="black" points="512.66,-25.35 522.85,-22.43 513.07,-18.36 512.66,-25.35"/>
<text text-anchor="middle" x="298.5" y="-20.56" font-family="Times,serif" font-size="14.00">&lt;eps&gt;:&lt;eps&gt;/&#45;3</text>
</g>
<!-- 2&#45;&gt;3 -->
<g id="edge5" class="edge">
<title>2&#45;&gt;3</title>
<path fill="none" stroke="black" d="M316.69,-56.3C357.57,-50.45 461.04,-35.64 513.09,-28.19"/>
<polygon fill="black" stroke="black" points="513.68,-31.64 523.08,-26.76 512.69,-24.71 513.68,-31.64"/>
<text text-anchor="middle" x="441" y="-50.56" font-family="Times,serif" font-size="14.00">&lt;eps&gt;:&lt;eps&gt;/&#45;3.5</text>
</g>
</g>
</svg>
