<?xml version="1.0" encoding="UTF-8" standalone="no"?>
<!DOCTYPE svg PUBLIC "-//W3C//DTD SVG 1.1//EN"
 "http://www.w3.org/Graphics/SVG/1.1/DTD/svg11.dtd">
<!-- Generated by graphviz version 6.0.1 (20220911.1526)
 -->
<!-- Title: FST Pages: 1 -->
<svg width="486pt" height="84pt"
 viewBox="0.00 0.00 486.00 83.79" xmlns="http://www.w3.org/2000/svg" xmlns:xlink="http://www.w3.org/1999/xlink">
<g id="graph0" class="graph" transform="scale(1 1) rotate(0) translate(4 79.79)">
<title>FST</title>
<polygon fill="white" stroke="none" points="-4,4 -4,-79.79 482,-79.79 482,4 -4,4"/>
<!-- 0 -->
<g id="node1" class="node">
<title>0</title>
<ellipse fill="none" stroke="black" stroke-width="2" cx="18" cy="-22.79" rx="18" ry="18"/>
<text text-anchor="middle" x="18" y="-19.09" font-family="Times,serif" font-size="14.00">0</text>
</g>
<!-- 1 -->
<g id="node2" class="node">
<title>1</title>
<ellipse fill="none" stroke="black" cx="127" cy="-22.79" rx="18" ry="18"/>
<text text-anchor="middle" x="127" y="-19.09" font-family="Times,serif" font-size="14.00">1</text>
</g>
<!-- 0&#45;&gt;1 -->
<g id="edge1" class="edge">
<title>0&#45;&gt;1</title>
<path fill="none" stroke="black" d="M36.19,-22.79C53.04,-22.79 78.98,-22.79 98.66,-22.79"/>
<polygon fill="black" stroke="black" points="98.85,-26.29 108.85,-22.79 98.85,-19.29 98.85,-26.29"/>
<text text-anchor="middle" x="72.5" y="-26.59" font-family="Times,serif" font-size="14.00">a:x/&#45;0.5</text>
</g>
<!-- 0&#45;&gt;1 -->
<g id="edge2" class="edge">
<title>0&#45;&gt;1</title>
<path fill="none" stroke="black" d="M32.91,-12.33C38.27,-8.91 44.64,-5.54 51,-3.79 69.43,1.26 75.57,1.26 94,-3.79 97.08,-4.64 100.16,-5.87 103.13,-7.3"/>
<polygon fill="black" stroke="black" points="101.66,-10.48 112.09,-12.33 105.09,-4.38 101.66,-10.48"/>
<text text-anchor="middle" x="72.5" y="-7.59" font-family="Times,serif" font-size="14.00">b:y/&#45;1.5</text>
</g>
<!-- 2 -->
<g id="node3" class="node">
<title>2</title>
<ellipse fill="none" stroke="black" cx="261" cy="-57.79" rx="18" ry="18"/>
<text text-anchor="middle" x="261" y="-54.09" font-family="Times,serif" font-size="14.00">2</text>
</g>
<!-- 1&#45;&gt;2 -->
<g id="edge3" class="edge">
<title>1&#45;&gt;2</title>
<path fill="none" stroke="black" d="M144.72,-27.23C167.13,-33.17 207.17,-43.79 233.66,-50.81"/>
<polygon fill="black" stroke="black" points="232.85,-54.22 243.42,-53.4 234.65,-47.45 232.85,-54.22"/>
<text text-anchor="middle" x="181" y="-45.59" font-family="Times,serif" font-size="14.00">c:z/&#45;2.5</text>
</g>
<!-- 3 -->
<g id="node4" class="node">
<title>3</title>
<ellipse fill="none" stroke="black" cx="456" cy="-22.79" rx="18" ry="18"/>
<ellipse fill="none" stroke="black" cx="456" cy="-22.79" rx="22" ry="22"/>
<text text-anchor="middle" x="456" y="-19.09" font-family="Times,serif" font-size="14.00">3</text>
</g>
<!-- 1&#45;&gt;3 -->
<g id="edge4" class="edge">
<title>1&#45;&gt;3</title>
<path fill="none" stroke="black" d="M145.04,-21.05C162.93,-19.32 191.91,-16.78 217,-15.79 291.19,-12.88 378.42,-17.5 423.88,-20.52"/>
<polygon fill="black" stroke="black" points="423.77,-24.02 433.98,-21.21 424.24,-17.03 423.77,-24.02"/>
<text text-anchor="middle" x="261" y="-19.59" font-family="Times,serif" font-size="14.00">&lt;eps&gt;:&lt;eps&gt;/&#45;3</text>
</g>
<!-- 2&#45;&gt;3 -->
<g id="edge5" class="edge">
<title>2&#45;&gt;3</title>
<path fill="none" stroke="black" d="M278.79,-54.75C311.19,-48.87 382.76,-35.89 424.03,-28.41"/>
<polygon fill="black" stroke="black" points="424.86,-31.82 434.07,-26.59 423.61,-24.93 424.86,-31.82"/>
<text text-anchor="middle" x="369.5" y="-49.59" font-family="Times,serif" font-size="14.00">&lt;eps&gt;:&lt;eps&gt;/&#45;3.5</text>
</g>
</g>
</svg>
