<?xml version="1.0" encoding="UTF-8" standalone="no"?>
<!DOCTYPE svg PUBLIC "-//W3C//DTD SVG 1.1//EN"
 "http://www.w3.org/Graphics/SVG/1.1/DTD/svg11.dtd">
<!-- Generated by graphviz version 8.1.0 (20230707.0739)
 -->
<!-- Title: FST Pages: 1 -->
<svg width="484pt" height="88pt"
 viewBox="0.00 0.00 484.00 87.50" xmlns="http://www.w3.org/2000/svg" xmlns:xlink="http://www.w3.org/1999/xlink">
<g id="graph0" class="graph" transform="scale(1 1) rotate(0) translate(4 83.5)">
<title>FST</title>
<polygon fill="white" stroke="none" points="-4,4 -4,-83.5 480,-83.5 480,4 -4,4"/>
<!-- 0 -->
<g id="node1" class="node">
<title>0</title>
<ellipse fill="none" stroke="black" stroke-width="2" cx="18" cy="-24.5" rx="18" ry="18"/>
<text text-anchor="middle" x="18" y="-19.45" font-family="Times,serif" font-size="14.00">0</text>
</g>
<!-- 1 -->
<g id="node2" class="node">
<title>1</title>
<ellipse fill="none" stroke="black" cx="126.75" cy="-24.5" rx="18" ry="18"/>
<text text-anchor="middle" x="126.75" y="-19.45" font-family="Times,serif" font-size="14.00">1</text>
</g>
<!-- 0&#45;&gt;1 -->
<g id="edge1" class="edge">
<title>0&#45;&gt;1</title>
<path fill="none" stroke="black" d="M36.15,-24.5C52.63,-24.5 77.82,-24.5 97.31,-24.5"/>
<polygon fill="black" stroke="black" points="97.29,-28 107.29,-24.5 97.29,-21 97.29,-28"/>
<text text-anchor="middle" x="72.38" y="-27.7" font-family="Times,serif" font-size="14.00">a:x/&#45;0.5</text>
</g>
<!-- 0&#45;&gt;1 -->
<g id="edge2" class="edge">
<title>0&#45;&gt;1</title>
<path fill="none" stroke="black" d="M32.48,-13.45C37.9,-9.68 44.41,-5.93 51,-4 69.23,1.33 75.52,1.33 93.75,-4 96.94,-4.94 100.11,-6.3 103.15,-7.88"/>
<polygon fill="black" stroke="black" points="100.91,-11.22 111.27,-13.45 104.56,-5.25 100.91,-11.22"/>
<text text-anchor="middle" x="72.38" y="-7.7" font-family="Times,serif" font-size="14.00">b:y/&#45;1.5</text>
</g>
<!-- 2 -->
<g id="node3" class="node">
<title>2</title>
<ellipse fill="none" stroke="black" cx="259.88" cy="-61.5" rx="18" ry="18"/>
<text text-anchor="middle" x="259.88" y="-56.45" font-family="Times,serif" font-size="14.00">2</text>
</g>
<!-- 1&#45;&gt;2 -->
<g id="edge3" class="edge">
<title>1&#45;&gt;2</title>
<path fill="none" stroke="black" d="M144.62,-29.27C166.65,-35.48 205.49,-46.44 231.69,-53.83"/>
<polygon fill="black" stroke="black" points="230.49,-57.41 241.07,-56.76 232.39,-50.68 230.49,-57.41"/>
<text text-anchor="middle" x="180.38" y="-46.7" font-family="Times,serif" font-size="14.00">c:z/&#45;2.5</text>
</g>
<!-- 3 -->
<g id="node4" class="node">
<title>3</title>
<ellipse fill="none" stroke="black" cx="454" cy="-24.5" rx="18" ry="18"/>
<ellipse fill="none" stroke="black" cx="454" cy="-24.5" rx="22" ry="22"/>
<text text-anchor="middle" x="454" y="-19.45" font-family="Times,serif" font-size="14.00">3</text>
</g>
<!-- 1&#45;&gt;3 -->
<g id="edge4" class="edge">
<title>1&#45;&gt;3</title>
<path fill="none" stroke="black" d="M144.98,-22.86C162.75,-21.25 191.28,-18.91 216,-18 289.22,-15.31 375.2,-19.51 420.8,-22.31"/>
<polygon fill="black" stroke="black" points="420.55,-25.87 430.75,-23.01 420.99,-18.88 420.55,-25.87"/>
<text text-anchor="middle" x="259.88" y="-21.7" font-family="Times,serif" font-size="14.00">&lt;eps&gt;:&lt;eps&gt;/&#45;3</text>
</g>
<!-- 2&#45;&gt;3 -->
<g id="edge5" class="edge">
<title>2&#45;&gt;3</title>
<path fill="none" stroke="black" d="M277.92,-58.22C310.08,-52.03 380.11,-38.54 421.19,-30.63"/>
<polygon fill="black" stroke="black" points="421.8,-33.89 430.96,-28.56 420.48,-27.01 421.8,-33.89"/>
<text text-anchor="middle" x="367.88" y="-52.7" font-family="Times,serif" font-size="14.00">&lt;eps&gt;:&lt;eps&gt;/&#45;3.5</text>
</g>
</g>
</svg>
