<?xml version="1.0" encoding="UTF-8" standalone="no"?>
<!DOCTYPE svg PUBLIC "-//W3C//DTD SVG 1.1//EN"
 "http://www.w3.org/Graphics/SVG/1.1/DTD/svg11.dtd">
<!-- Generated by graphviz version 7.0.0 (20221023.0053)
 -->
<!-- Title: FST Pages: 1 -->
<svg width="486pt" height="84pt"
 viewBox="0.00 0.00 486.00 83.79" xmlns="http://www.w3.org/2000/svg" xmlns:xlink="http://www.w3.org/1999/xlink">
<g id="graph0" class="graph" transform="scale(1 1) rotate(0) translate(4 79.79)">
<title>FST</title>
<polygon fill="white" stroke="none" points="-4,4 -4,-79.79 482,-79.79 482,4 -4,4"/>
<!-- 0 -->
<g id="node1" class="node">
<title>0</title>
<ellipse fill="none" stroke="black" stroke-width="2" cx="18" cy="-22.79" rx="18" ry="18"/>
<text text-anchor="middle" x="18" y="-19.09" font-family="Times,serif" font-size="14.00">0</text>
</g>
<!-- 1 -->
<g id="node2" class="node">
<title>1</title>
<ellipse fill="none" stroke="black" cx="127" cy="-22.79" rx="18" ry="18"/>
<text text-anchor="middle" x="127" y="-19.09" font-family="Times,serif" font-size="14.00">1</text>
</g>
<!-- 0&#45;&gt;1 -->
<g id="edge1" class="edge">
<title>0&#45;&gt;1</title>
<path fill="none" stroke="black" d="M36.19,-22.79C52.73,-22.79 78.02,-22.79 97.56,-22.79"/>
<polygon fill="black" stroke="black" points="97.34,-26.29 107.34,-22.79 97.34,-19.29 97.34,-26.29"/>
<text text-anchor="middle" x="72.5" y="-26.59" font-family="Times,serif" font-size="14.00">a:x/&#45;0.5</text>
</g>
<!-- 0&#45;&gt;1 -->
<g id="edge2" class="edge">
<title>0&#45;&gt;1</title>
<path fill="none" stroke="black" d="M32.91,-12.33C38.27,-8.91 44.64,-5.54 51,-3.79 69.43,1.26 75.57,1.26 94,-3.79 96.78,-4.56 99.56,-5.63 102.26,-6.89"/>
<polygon fill="black" stroke="black" points="100.32,-9.81 110.77,-11.6 103.72,-3.69 100.32,-9.81"/>
<text text-anchor="middle" x="72.5" y="-7.59" font-family="Times,serif" font-size="14.00">b:y/&#45;1.5</text>
</g>
<!-- 2 -->
<g id="node3" class="node">
<title>2</title>
<ellipse fill="none" stroke="black" cx="261" cy="-57.79" rx="18" ry="18"/>
<text text-anchor="middle" x="261" y="-54.09" font-family="Times,serif" font-size="14.00">2</text>
</g>
<!-- 1&#45;&gt;2 -->
<g id="edge3" class="edge">
<title>1&#45;&gt;2</title>
<path fill="none" stroke="black" d="M144.72,-27.23C166.84,-33.09 206.11,-43.5 232.6,-50.53"/>
<polygon fill="black" stroke="black" points="231.39,-53.83 241.95,-53.01 233.19,-47.06 231.39,-53.83"/>
<text text-anchor="middle" x="181" y="-45.59" font-family="Times,serif" font-size="14.00">c:z/&#45;2.5</text>
</g>
<!-- 3 -->
<g id="node4" class="node">
<title>3</title>
<ellipse fill="none" stroke="black" cx="456" cy="-22.79" rx="18" ry="18"/>
<ellipse fill="none" stroke="black" cx="456" cy="-22.79" rx="22" ry="22"/>
<text text-anchor="middle" x="456" y="-19.09" font-family="Times,serif" font-size="14.00">3</text>
</g>
<!-- 1&#45;&gt;3 -->
<g id="edge4" class="edge">
<title>1&#45;&gt;3</title>
<path fill="none" stroke="black" d="M145.37,-21.02C163.29,-19.29 192.07,-16.77 217,-15.79 290.37,-12.91 376.51,-17.4 422.37,-20.42"/>
<polygon fill="black" stroke="black" points="421.94,-23.9 432.15,-21.08 422.41,-16.91 421.94,-23.9"/>
<text text-anchor="middle" x="261" y="-19.59" font-family="Times,serif" font-size="14.00">&lt;eps&gt;:&lt;eps&gt;/&#45;3</text>
</g>
<!-- 2&#45;&gt;3 -->
<g id="edge5" class="edge">
<title>2&#45;&gt;3</title>
<path fill="none" stroke="black" d="M279.13,-54.69C311.36,-48.84 381.48,-36.13 422.78,-28.64"/>
<polygon fill="black" stroke="black" points="423.16,-32.13 432.37,-26.9 421.91,-25.24 423.16,-32.13"/>
<text text-anchor="middle" x="369.5" y="-49.59" font-family="Times,serif" font-size="14.00">&lt;eps&gt;:&lt;eps&gt;/&#45;3.5</text>
</g>
</g>
</svg>
