<?xml version="1.0" encoding="UTF-8" standalone="no"?>
<!DOCTYPE svg PUBLIC "-//W3C//DTD SVG 1.1//EN"
 "http://www.w3.org/Graphics/SVG/1.1/DTD/svg11.dtd">
<!-- Generated by graphviz version 7.0.0 (20221023.0053)
 -->
<!-- Title: FST Pages: 1 -->
<svg width="390pt" height="83pt"
 viewBox="0.00 0.00 390.00 83.00" xmlns="http://www.w3.org/2000/svg" xmlns:xlink="http://www.w3.org/1999/xlink">
<g id="graph0" class="graph" transform="scale(1 1) rotate(0) translate(4 79)">
<title>FST</title>
<polygon fill="white" stroke="none" points="-4,4 -4,-79 386,-79 386,4 -4,4"/>
<!-- 0 -->
<g id="node1" class="node">
<title>0</title>
<ellipse fill="none" stroke="black" stroke-width="2" cx="18" cy="-22" rx="18" ry="18"/>
<text text-anchor="middle" x="18" y="-18.3" font-family="Times,serif" font-size="14.00">0</text>
</g>
<!-- 1 -->
<g id="node2" class="node">
<title>1</title>
<ellipse fill="none" stroke="black" cx="117" cy="-22" rx="18" ry="18"/>
<text text-anchor="middle" x="117" y="-18.3" font-family="Times,serif" font-size="14.00">1</text>
</g>
<!-- 0&#45;&gt;1 -->
<g id="edge1" class="edge">
<title>0&#45;&gt;1</title>
<path fill="none" stroke="black" d="M36.34,-22C50.55,-22 70.94,-22 87.54,-22"/>
<polygon fill="black" stroke="black" points="87.29,-25.5 97.29,-22 87.29,-18.5 87.29,-25.5"/>
<text text-anchor="middle" x="67.5" y="-25.8" font-family="Times,serif" font-size="14.00">a/&#45;0.5</text>
</g>
<!-- 0&#45;&gt;1 -->
<g id="edge2" class="edge">
<title>0&#45;&gt;1</title>
<path fill="none" stroke="black" d="M32.91,-11.54C38.27,-8.12 44.64,-4.74 51,-3 65.14,0.88 69.86,0.88 84,-3 86.78,-3.76 89.56,-4.84 92.26,-6.09"/>
<polygon fill="black" stroke="black" points="90.32,-9.02 100.77,-10.81 93.72,-2.9 90.32,-9.02"/>
<text text-anchor="middle" x="67.5" y="-6.8" font-family="Times,serif" font-size="14.00">b/&#45;1.5</text>
</g>
<!-- 2 -->
<g id="node3" class="node">
<title>2</title>
<ellipse fill="none" stroke="black" cx="222" cy="-57" rx="18" ry="18"/>
<text text-anchor="middle" x="222" y="-53.3" font-family="Times,serif" font-size="14.00">2</text>
</g>
<!-- 1&#45;&gt;2 -->
<g id="edge3" class="edge">
<title>1&#45;&gt;2</title>
<path fill="none" stroke="black" d="M134.55,-27.62C150.47,-33.03 174.82,-41.31 193.62,-47.7"/>
<polygon fill="black" stroke="black" points="192.46,-51 203.06,-50.9 194.72,-44.37 192.46,-51"/>
<text text-anchor="middle" x="166" y="-46.8" font-family="Times,serif" font-size="14.00">c/&#45;2.5</text>
</g>
<!-- 3 -->
<g id="node4" class="node">
<title>3</title>
<ellipse fill="none" stroke="black" cx="360" cy="-22" rx="18" ry="18"/>
<ellipse fill="none" stroke="black" cx="360" cy="-22" rx="22" ry="22"/>
<text text-anchor="middle" x="360" y="-18.3" font-family="Times,serif" font-size="14.00">3</text>
</g>
<!-- 1&#45;&gt;3 -->
<g id="edge4" class="edge">
<title>1&#45;&gt;3</title>
<path fill="none" stroke="black" d="M135.23,-20.03C151.22,-18.31 175.68,-15.94 197,-15 241.96,-13.01 293.94,-16.24 326.64,-18.94"/>
<polygon fill="black" stroke="black" points="326,-22.4 336.26,-19.77 326.6,-15.42 326,-22.4"/>
<text text-anchor="middle" x="222" y="-18.8" font-family="Times,serif" font-size="14.00">&lt;eps&gt;/&#45;3</text>
</g>
<!-- 2&#45;&gt;3 -->
<g id="edge5" class="edge">
<title>2&#45;&gt;3</title>
<path fill="none" stroke="black" d="M239.95,-52.64C261.76,-47.03 300.07,-37.17 327.34,-30.15"/>
<polygon fill="black" stroke="black" points="327.99,-33.59 336.81,-27.71 326.25,-26.81 327.99,-33.59"/>
<text text-anchor="middle" x="292.5" y="-49.8" font-family="Times,serif" font-size="14.00">&lt;eps&gt;/&#45;3.5</text>
</g>
</g>
</svg>
