<?xml version="1.0" encoding="UTF-8" standalone="no"?>
<!DOCTYPE svg PUBLIC "-//W3C//DTD SVG 1.1//EN"
 "http://www.w3.org/Graphics/SVG/1.1/DTD/svg11.dtd">
<!-- Generated by graphviz version 9.0.0 (20230911.1827)
 -->
<!-- Title: FST Pages: 1 -->
<svg width="289pt" height="76pt"
 viewBox="0.00 0.00 289.46 75.71" xmlns="http://www.w3.org/2000/svg" xmlns:xlink="http://www.w3.org/1999/xlink">
<g id="graph0" class="graph" transform="scale(1 1) rotate(0) translate(4 71.71)">
<title>FST</title>
<polygon fill="white" stroke="none" points="-4,4 -4,-71.71 285.46,-71.71 285.46,4 -4,4"/>
<!-- 0 -->
<g id="node1" class="node">
<title>0</title>
<ellipse fill="none" stroke="black" stroke-width="2" cx="18" cy="-33.86" rx="18" ry="18"/>
<text text-anchor="middle" x="18" y="-28.81" font-family="Times,serif" font-size="14.00">0</text>
</g>
<!-- 1 -->
<g id="node2" class="node">
<title>1</title>
<ellipse fill="none" stroke="black" cx="122.25" cy="-33.86" rx="18" ry="18"/>
<text text-anchor="middle" x="122.25" y="-28.81" font-family="Times,serif" font-size="14.00">1</text>
</g>
<!-- 0&#45;&gt;1 -->
<g id="edge1" class="edge">
<title>0&#45;&gt;1</title>
<path fill="none" stroke="black" d="M36.35,-33.86C51.7,-33.86 74.4,-33.86 92.47,-33.86"/>
<polygon fill="black" stroke="black" points="92.31,-37.36 102.31,-33.86 92.31,-30.36 92.31,-37.36"/>
<text text-anchor="middle" x="70.12" y="-37.06" font-family="Times,serif" font-size="14.00">a:x/0.6</text>
</g>
<!-- 0&#45;&gt;1 -->
<g id="edge2" class="edge">
<title>0&#45;&gt;1</title>
<path fill="none" stroke="black" d="M32.48,-22.8C37.9,-19.03 44.41,-15.28 51,-13.36 67.31,-8.58 72.94,-8.58 89.25,-13.36 92.23,-14.23 95.2,-15.48 98.06,-16.93"/>
<polygon fill="black" stroke="black" points="96.1,-19.83 106.47,-22.01 99.73,-13.84 96.1,-19.83"/>
<text text-anchor="middle" x="70.12" y="-16.06" font-family="Times,serif" font-size="14.00">b:y/1.8</text>
</g>
<!-- 2 -->
<g id="node3" class="node">
<title>2</title>
<ellipse fill="none" stroke="black" cx="247.61" cy="-33.86" rx="29.86" ry="29.86"/>
<ellipse fill="none" stroke="black" cx="247.61" cy="-33.86" rx="33.86" ry="33.86"/>
<text text-anchor="middle" x="247.61" y="-28.81" font-family="Times,serif" font-size="14.00">2/3.5</text>
</g>
<!-- 1&#45;&gt;2 -->
<g id="edge3" class="edge">
<title>1&#45;&gt;2</title>
<path fill="none" stroke="black" d="M140.66,-33.86C156.58,-33.86 180.8,-33.86 202.07,-33.86"/>
<polygon fill="black" stroke="black" points="202,-37.36 212,-33.86 202,-30.36 202,-37.36"/>
<text text-anchor="middle" x="177" y="-37.06" font-family="Times,serif" font-size="14.00">c:z/1.25</text>
</g>
</g>
</svg>
