<?xml version="1.0" encoding="UTF-8" standalone="no"?>
<!DOCTYPE svg PUBLIC "-//W3C//DTD SVG 1.1//EN"
 "http://www.w3.org/Graphics/SVG/1.1/DTD/svg11.dtd">
<!-- Generated by graphviz version 6.0.2 (20221011.1828)
 -->
<!-- Title: FST Pages: 1 -->
<svg width="288pt" height="73pt"
 viewBox="0.00 0.00 288.19 73.19" xmlns="http://www.w3.org/2000/svg" xmlns:xlink="http://www.w3.org/1999/xlink">
<g id="graph0" class="graph" transform="scale(1 1) rotate(0) translate(4 69.19)">
<title>FST</title>
<polygon fill="white" stroke="none" points="-4,4 -4,-69.19 284.19,-69.19 284.19,4 -4,4"/>
<!-- 0 -->
<g id="node1" class="node">
<title>0</title>
<ellipse fill="none" stroke="black" stroke-width="2" cx="18" cy="-32.6" rx="18" ry="18"/>
<text text-anchor="middle" x="18" y="-28.9" font-family="Times,serif" font-size="14.00">0</text>
</g>
<!-- 1 -->
<g id="node2" class="node">
<title>1</title>
<ellipse fill="none" stroke="black" cx="123" cy="-32.6" rx="18" ry="18"/>
<text text-anchor="middle" x="123" y="-28.9" font-family="Times,serif" font-size="14.00">1</text>
</g>
<!-- 0&#45;&gt;1 -->
<g id="edge1" class="edge">
<title>0&#45;&gt;1</title>
<path fill="none" stroke="black" d="M36.01,-32.6C51.96,-32.6 76.09,-32.6 94.73,-32.6"/>
<polygon fill="black" stroke="black" points="94.97,-36.1 104.97,-32.6 94.97,-29.1 94.97,-36.1"/>
<text text-anchor="middle" x="70.5" y="-36.4" font-family="Times,serif" font-size="14.00">a:x/0.6</text>
</g>
<!-- 0&#45;&gt;1 -->
<g id="edge2" class="edge">
<title>0&#45;&gt;1</title>
<path fill="none" stroke="black" d="M32.91,-22.14C38.27,-18.71 44.64,-15.34 51,-13.6 67.72,-9.01 73.28,-9.01 90,-13.6 93.08,-14.44 96.16,-15.67 99.13,-17.1"/>
<polygon fill="black" stroke="black" points="97.66,-20.29 108.09,-22.14 101.09,-14.18 97.66,-20.29"/>
<text text-anchor="middle" x="70.5" y="-17.4" font-family="Times,serif" font-size="14.00">b:y/1.8</text>
</g>
<!-- 2 -->
<g id="node3" class="node">
<title>2</title>
<ellipse fill="none" stroke="black" cx="247.6" cy="-32.6" rx="28.68" ry="28.68"/>
<ellipse fill="none" stroke="black" cx="247.6" cy="-32.6" rx="32.7" ry="32.7"/>
<text text-anchor="middle" x="247.6" y="-28.9" font-family="Times,serif" font-size="14.00">2/3.5</text>
</g>
<!-- 1&#45;&gt;2 -->
<g id="edge3" class="edge">
<title>1&#45;&gt;2</title>
<path fill="none" stroke="black" d="M141.05,-32.6C157.4,-32.6 182.77,-32.6 204.53,-32.6"/>
<polygon fill="black" stroke="black" points="204.55,-36.1 214.55,-32.6 204.55,-29.1 204.55,-36.1"/>
<text text-anchor="middle" x="178" y="-36.4" font-family="Times,serif" font-size="14.00">c:z/1.25</text>
</g>
</g>
</svg>
