<?xml version="1.0" encoding="UTF-8" standalone="no"?>
<!DOCTYPE svg PUBLIC "-//W3C//DTD SVG 1.1//EN"
 "http://www.w3.org/Graphics/SVG/1.1/DTD/svg11.dtd">
<!-- Generated by graphviz version 7.0.2 (20221119.0110)
 -->
<!-- Title: FST Pages: 1 -->
<svg width="281pt" height="73pt"
 viewBox="0.00 0.00 281.19 73.19" xmlns="http://www.w3.org/2000/svg" xmlns:xlink="http://www.w3.org/1999/xlink">
<g id="graph0" class="graph" transform="scale(1 1) rotate(0) translate(4 69.19)">
<title>FST</title>
<polygon fill="white" stroke="none" points="-4,4 -4,-69.19 277.19,-69.19 277.19,4 -4,4"/>
<!-- 0 -->
<g id="node1" class="node">
<title>0</title>
<ellipse fill="none" stroke="black" stroke-width="2" cx="18" cy="-32.6" rx="18" ry="18"/>
<text text-anchor="middle" x="18" y="-28.9" font-family="Times,serif" font-size="14.00">0</text>
</g>
<!-- 1 -->
<g id="node2" class="node">
<title>1</title>
<ellipse fill="none" stroke="black" cx="123" cy="-32.6" rx="18" ry="18"/>
<text text-anchor="middle" x="123" y="-28.9" font-family="Times,serif" font-size="14.00">1</text>
</g>
<!-- 0&#45;&gt;1 -->
<g id="edge1" class="edge">
<title>0&#45;&gt;1</title>
<path fill="none" stroke="black" d="M36.47,-32.6C52.03,-32.6 75.08,-32.6 93.34,-32.6"/>
<polygon fill="black" stroke="black" points="93.27,-36.1 103.27,-32.6 93.27,-29.1 93.27,-36.1"/>
<text text-anchor="middle" x="70.5" y="-36.4" font-family="Times,serif" font-size="14.00">a:x/0.5</text>
</g>
<!-- 0&#45;&gt;1 -->
<g id="edge2" class="edge">
<title>0&#45;&gt;1</title>
<path fill="none" stroke="black" d="M32.91,-22.14C38.27,-18.71 44.64,-15.34 51,-13.6 67.72,-9.01 73.28,-9.01 90,-13.6 92.78,-14.36 95.56,-15.44 98.26,-16.69"/>
<polygon fill="black" stroke="black" points="96.32,-19.62 106.77,-21.4 99.72,-13.49 96.32,-19.62"/>
<text text-anchor="middle" x="70.5" y="-17.4" font-family="Times,serif" font-size="14.00">b:y/1.5</text>
</g>
<!-- 2 -->
<g id="node3" class="node">
<title>2</title>
<ellipse fill="none" stroke="black" cx="240.6" cy="-32.6" rx="28.68" ry="28.68"/>
<ellipse fill="none" stroke="black" cx="240.6" cy="-32.6" rx="32.7" ry="32.7"/>
<text text-anchor="middle" x="240.6" y="-28.9" font-family="Times,serif" font-size="14.00">2/3.5</text>
</g>
<!-- 1&#45;&gt;2 -->
<g id="edge3" class="edge">
<title>1&#45;&gt;2</title>
<path fill="none" stroke="black" d="M141.06,-32.6C155.58,-32.6 177.1,-32.6 196.32,-32.6"/>
<polygon fill="black" stroke="black" points="196.09,-36.1 206.09,-32.6 196.09,-29.1 196.09,-36.1"/>
<text text-anchor="middle" x="174.5" y="-36.4" font-family="Times,serif" font-size="14.00">c:z/2.5</text>
</g>
</g>
</svg>
