<?xml version="1.0" encoding="UTF-8" standalone="no"?>
<!DOCTYPE svg PUBLIC "-//W3C//DTD SVG 1.1//EN"
 "http://www.w3.org/Graphics/SVG/1.1/DTD/svg11.dtd">
<!-- Generated by graphviz version 2.43.0 (0)
 -->
<!-- Title: FST Pages: 1 -->
<svg width="612pt" height="38pt"
 viewBox="0.00 0.00 612.00 38.07" xmlns="http://www.w3.org/2000/svg" xmlns:xlink="http://www.w3.org/1999/xlink">
<g id="graph0" class="graph" transform="scale(0.73 0.73) rotate(0) translate(4 48)">
<title>FST</title>
<polygon fill="white" stroke="transparent" points="-4,4 -4,-48 832,-48 832,4 -4,4"/>
<!-- 0 -->
<g id="node1" class="node">
<title>0</title>
<ellipse fill="none" stroke="black" stroke-width="2" cx="18" cy="-22" rx="18" ry="18"/>
<text text-anchor="middle" x="18" y="-18.3" font-family="Times,serif" font-size="14.00">0</text>
</g>
<!-- 1 -->
<g id="node2" class="node">
<title>1</title>
<ellipse fill="none" stroke="black" cx="135" cy="-22" rx="18" ry="18"/>
<text text-anchor="middle" x="135" y="-18.3" font-family="Times,serif" font-size="14.00">1</text>
</g>
<!-- 0&#45;&gt;1 -->
<g id="edge1" class="edge">
<title>0&#45;&gt;1</title>
<path fill="none" stroke="black" d="M36.47,-22C55.06,-22 84.76,-22 106.5,-22"/>
<polygon fill="black" stroke="black" points="106.75,-25.5 116.75,-22 106.75,-18.5 106.75,-25.5"/>
<text text-anchor="middle" x="76.5" y="-25.8" font-family="Times,serif" font-size="14.00">e:E/0.3</text>
</g>
<!-- 2 -->
<g id="node3" class="node">
<title>2</title>
<ellipse fill="none" stroke="black" cx="238" cy="-22" rx="18" ry="18"/>
<text text-anchor="middle" x="238" y="-18.3" font-family="Times,serif" font-size="14.00">2</text>
</g>
<!-- 1&#45;&gt;2 -->
<g id="edge2" class="edge">
<title>1&#45;&gt;2</title>
<path fill="none" stroke="black" d="M153.13,-22C168.59,-22 191.58,-22 209.59,-22"/>
<polygon fill="black" stroke="black" points="209.78,-25.5 219.78,-22 209.78,-18.5 209.78,-25.5"/>
<text text-anchor="middle" x="186.5" y="-25.8" font-family="Times,serif" font-size="14.00">a:A/1</text>
</g>
<!-- 3 -->
<g id="node4" class="node">
<title>3</title>
<ellipse fill="none" stroke="black" cx="360" cy="-22" rx="18" ry="18"/>
<text text-anchor="middle" x="360" y="-18.3" font-family="Times,serif" font-size="14.00">3</text>
</g>
<!-- 2&#45;&gt;3 -->
<g id="edge3" class="edge">
<title>2&#45;&gt;3</title>
<path fill="none" stroke="black" d="M256.19,-22C275.89,-22 308.42,-22 331.61,-22"/>
<polygon fill="black" stroke="black" points="331.84,-25.5 341.84,-22 331.84,-18.5 331.84,-25.5"/>
<text text-anchor="middle" x="299" y="-25.8" font-family="Times,serif" font-size="14.00">f:F/0.03</text>
</g>
<!-- 4 -->
<g id="node5" class="node">
<title>4</title>
<ellipse fill="none" stroke="black" cx="556" cy="-22" rx="18" ry="18"/>
<text text-anchor="middle" x="556" y="-18.3" font-family="Times,serif" font-size="14.00">4</text>
</g>
<!-- 3&#45;&gt;4 -->
<g id="edge4" class="edge">
<title>3&#45;&gt;4</title>
<path fill="none" stroke="black" d="M378.22,-22C411.94,-22 486.94,-22 527.57,-22"/>
<polygon fill="black" stroke="black" points="527.82,-25.5 537.82,-22 527.82,-18.5 527.82,-25.5"/>
<text text-anchor="middle" x="458" y="-25.8" font-family="Times,serif" font-size="14.00">&lt;eps&gt;:&lt;eps&gt;/0.4</text>
</g>
<!-- 5 -->
<g id="node6" class="node">
<title>5</title>
<ellipse fill="none" stroke="black" cx="674" cy="-22" rx="18" ry="18"/>
<text text-anchor="middle" x="674" y="-18.3" font-family="Times,serif" font-size="14.00">5</text>
</g>
<!-- 4&#45;&gt;5 -->
<g id="edge5" class="edge">
<title>4&#45;&gt;5</title>
<path fill="none" stroke="black" d="M574.12,-22C592.96,-22 623.53,-22 645.7,-22"/>
<polygon fill="black" stroke="black" points="645.81,-25.5 655.81,-22 645.81,-18.5 645.81,-25.5"/>
<text text-anchor="middle" x="615" y="-25.8" font-family="Times,serif" font-size="14.00">g:G/0.8</text>
</g>
<!-- 6 -->
<g id="node7" class="node">
<title>6</title>
<ellipse fill="none" stroke="black" cx="806" cy="-22" rx="18" ry="18"/>
<ellipse fill="none" stroke="black" cx="806" cy="-22" rx="22" ry="22"/>
<text text-anchor="middle" x="806" y="-18.3" font-family="Times,serif" font-size="14.00">6</text>
</g>
<!-- 5&#45;&gt;6 -->
<g id="edge6" class="edge">
<title>5&#45;&gt;6</title>
<path fill="none" stroke="black" d="M692.26,-22C712.93,-22 747.95,-22 773.49,-22"/>
<polygon fill="black" stroke="black" points="773.78,-25.5 783.78,-22 773.78,-18.5 773.78,-25.5"/>
<text text-anchor="middle" x="738" y="-25.8" font-family="Times,serif" font-size="14.00">h:H/0.12</text>
</g>
</g>
</svg>
