<?xml version="1.0" encoding="UTF-8" standalone="no"?>
<!DOCTYPE svg PUBLIC "-//W3C//DTD SVG 1.1//EN"
 "http://www.w3.org/Graphics/SVG/1.1/DTD/svg11.dtd">
<!-- Generated by graphviz version 8.1.0 (20230707.0739)
 -->
<!-- Title: FST Pages: 1 -->
<svg width="612pt" height="43pt"
 viewBox="0.00 0.00 612.00 42.80" xmlns="http://www.w3.org/2000/svg" xmlns:xlink="http://www.w3.org/1999/xlink">
<g id="graph0" class="graph" transform="scale(0.823134 0.823134) rotate(0) translate(4 48)">
<title>FST</title>
<polygon fill="white" stroke="none" points="-4,4 -4,-48 739.5,-48 739.5,4 -4,4"/>
<!-- 0 -->
<g id="node1" class="node">
<title>0</title>
<ellipse fill="none" stroke="black" stroke-width="2" cx="18" cy="-22" rx="18" ry="18"/>
<text text-anchor="middle" x="18" y="-16.95" font-family="Times,serif" font-size="14.00">0</text>
</g>
<!-- 1 -->
<g id="node2" class="node">
<title>1</title>
<ellipse fill="none" stroke="black" cx="123" cy="-22" rx="18" ry="18"/>
<text text-anchor="middle" x="123" y="-16.95" font-family="Times,serif" font-size="14.00">1</text>
</g>
<!-- 0&#45;&gt;1 -->
<g id="edge1" class="edge">
<title>0&#45;&gt;1</title>
<path fill="none" stroke="black" d="M36.47,-22C52.18,-22 75.53,-22 93.86,-22"/>
<polygon fill="black" stroke="black" points="93.79,-25.5 103.79,-22 93.79,-18.5 93.79,-25.5"/>
<text text-anchor="middle" x="70.5" y="-25.2" font-family="Times,serif" font-size="14.00">e:E/0.3</text>
</g>
<!-- 2 -->
<g id="node3" class="node">
<title>2</title>
<ellipse fill="none" stroke="black" cx="219" cy="-22" rx="18" ry="18"/>
<text text-anchor="middle" x="219" y="-16.95" font-family="Times,serif" font-size="14.00">2</text>
</g>
<!-- 1&#45;&gt;2 -->
<g id="edge2" class="edge">
<title>1&#45;&gt;2</title>
<path fill="none" stroke="black" d="M141.24,-22C154.8,-22 173.98,-22 189.78,-22"/>
<polygon fill="black" stroke="black" points="189.55,-25.5 199.55,-22 189.55,-18.5 189.55,-25.5"/>
<text text-anchor="middle" x="171" y="-25.2" font-family="Times,serif" font-size="14.00">a:A/1</text>
</g>
<!-- 3 -->
<g id="node4" class="node">
<title>3</title>
<ellipse fill="none" stroke="black" cx="328.5" cy="-22" rx="18" ry="18"/>
<text text-anchor="middle" x="328.5" y="-16.95" font-family="Times,serif" font-size="14.00">3</text>
</g>
<!-- 2&#45;&gt;3 -->
<g id="edge3" class="edge">
<title>2&#45;&gt;3</title>
<path fill="none" stroke="black" d="M237.27,-22C254.04,-22 279.78,-22 299.48,-22"/>
<polygon fill="black" stroke="black" points="299.27,-25.5 309.27,-22 299.27,-18.5 299.27,-25.5"/>
<text text-anchor="middle" x="273.75" y="-25.2" font-family="Times,serif" font-size="14.00">f:F/0.03</text>
</g>
<!-- 4 -->
<g id="node5" class="node">
<title>4</title>
<ellipse fill="none" stroke="black" cx="488.25" cy="-22" rx="18" ry="18"/>
<text text-anchor="middle" x="488.25" y="-16.95" font-family="Times,serif" font-size="14.00">4</text>
</g>
<!-- 3&#45;&gt;4 -->
<g id="edge4" class="edge">
<title>3&#45;&gt;4</title>
<path fill="none" stroke="black" d="M346.98,-22C374.13,-22 426.68,-22 459.18,-22"/>
<polygon fill="black" stroke="black" points="459.17,-25.5 469.17,-22 459.17,-18.5 459.17,-25.5"/>
<text text-anchor="middle" x="408.38" y="-25.2" font-family="Times,serif" font-size="14.00">&lt;eps&gt;:&lt;eps&gt;/0.3</text>
</g>
<!-- 5 -->
<g id="node6" class="node">
<title>5</title>
<ellipse fill="none" stroke="black" cx="595.5" cy="-22" rx="18" ry="18"/>
<text text-anchor="middle" x="595.5" y="-16.95" font-family="Times,serif" font-size="14.00">5</text>
</g>
<!-- 4&#45;&gt;5 -->
<g id="edge5" class="edge">
<title>4&#45;&gt;5</title>
<path fill="none" stroke="black" d="M506.63,-22C522.78,-22 547.12,-22 566.1,-22"/>
<polygon fill="black" stroke="black" points="566.09,-25.5 576.09,-22 566.09,-18.5 566.09,-25.5"/>
<text text-anchor="middle" x="541.88" y="-25.2" font-family="Times,serif" font-size="14.00">g:G/0.8</text>
</g>
<!-- 6 -->
<g id="node7" class="node">
<title>6</title>
<ellipse fill="none" stroke="black" cx="713.5" cy="-22" rx="18" ry="18"/>
<ellipse fill="none" stroke="black" cx="713.5" cy="-22" rx="22" ry="22"/>
<text text-anchor="middle" x="713.5" y="-16.95" font-family="Times,serif" font-size="14.00">6</text>
</g>
<!-- 5&#45;&gt;6 -->
<g id="edge6" class="edge">
<title>5&#45;&gt;6</title>
<path fill="none" stroke="black" d="M613.87,-22C631.33,-22 658.68,-22 680.15,-22"/>
<polygon fill="black" stroke="black" points="680.06,-25.5 690.06,-22 680.06,-18.5 680.06,-25.5"/>
<text text-anchor="middle" x="652.5" y="-25.2" font-family="Times,serif" font-size="14.00">h:H/0.12</text>
</g>
</g>
</svg>
