<?xml version="1.0" encoding="UTF-8" standalone="no"?>
<!DOCTYPE svg PUBLIC "-//W3C//DTD SVG 1.1//EN"
 "http://www.w3.org/Graphics/SVG/1.1/DTD/svg11.dtd">
<!-- Generated by graphviz version 9.0.0 (20230911.1827)
 -->
<!-- Title: FST Pages: 1 -->
<svg width="219pt" height="122pt"
 viewBox="0.00 0.00 218.50 121.88" xmlns="http://www.w3.org/2000/svg" xmlns:xlink="http://www.w3.org/1999/xlink">
<g id="graph0" class="graph" transform="scale(1 1) rotate(0) translate(4 117.88)">
<title>FST</title>
<polygon fill="white" stroke="none" points="-4,4 -4,-117.88 214.5,-117.88 214.5,4 -4,4"/>
<!-- 0 -->
<g id="node1" class="node">
<title>0</title>
<ellipse fill="none" stroke="black" stroke-width="2" cx="18" cy="-37.38" rx="18" ry="18"/>
<text text-anchor="middle" x="18" y="-32.33" font-family="Times,serif" font-size="14.00">0</text>
</g>
<!-- 1 -->
<g id="node2" class="node">
<title>1</title>
<ellipse fill="none" stroke="black" cx="101.25" cy="-77.38" rx="18" ry="18"/>
<text text-anchor="middle" x="101.25" y="-72.33" font-family="Times,serif" font-size="14.00">1</text>
</g>
<!-- 0&#45;&gt;1 -->
<g id="edge1" class="edge">
<title>0&#45;&gt;1</title>
<path fill="none" stroke="black" d="M23.45,-55.02C27.94,-68.69 36.34,-86.73 51,-95.38 59.03,-100.12 68.51,-98.19 77,-94.16"/>
<polygon fill="black" stroke="black" points="78.5,-97.34 85.39,-89.29 74.99,-91.29 78.5,-97.34"/>
<text text-anchor="middle" x="59.62" y="-100.58" font-family="Times,serif" font-size="14.00">1:4</text>
</g>
<!-- 0&#45;&gt;1 -->
<g id="edge2" class="edge">
<title>0&#45;&gt;1</title>
<path fill="none" stroke="black" d="M34.15,-46.28C39.42,-49.27 45.42,-52.57 51,-55.38 58.31,-59.06 66.36,-62.78 73.8,-66.1"/>
<polygon fill="black" stroke="black" points="72.15,-69.2 82.72,-70.01 74.96,-62.79 72.15,-69.2"/>
<text text-anchor="middle" x="59.62" y="-66.58" font-family="Times,serif" font-size="14.00">2:3</text>
</g>
<!-- 0&#45;&gt;1 -->
<g id="edge3" class="edge">
<title>0&#45;&gt;1</title>
<path fill="none" stroke="black" d="M35.81,-32.55C45.75,-30.63 58.29,-29.91 68.25,-34.88 75.86,-38.68 82.14,-45.25 87.06,-52.1"/>
<polygon fill="black" stroke="black" points="83.82,-53.52 92.11,-60.11 89.74,-49.78 83.82,-53.52"/>
<text text-anchor="middle" x="59.62" y="-38.58" font-family="Times,serif" font-size="14.00">3:5</text>
</g>
<!-- 2 -->
<g id="node3" class="node">
<title>2</title>
<ellipse fill="none" stroke="black" cx="188.5" cy="-37.38" rx="18" ry="18"/>
<ellipse fill="none" stroke="black" cx="188.5" cy="-37.38" rx="22" ry="22"/>
<text text-anchor="middle" x="188.5" y="-32.33" font-family="Times,serif" font-size="14.00">2</text>
</g>
<!-- 0&#45;&gt;2 -->
<g id="edge4" class="edge">
<title>0&#45;&gt;2</title>
<path fill="none" stroke="black" d="M35.38,-31.21C40.33,-29.64 45.82,-28.17 51,-27.38 95.16,-20.64 107.24,-21.35 151.5,-27.38 153.11,-27.6 154.74,-27.87 156.39,-28.18"/>
<polygon fill="black" stroke="black" points="155.13,-31.48 165.67,-30.35 156.72,-24.67 155.13,-31.48"/>
<text text-anchor="middle" x="101.25" y="-27.58" font-family="Times,serif" font-size="14.00">4:1</text>
</g>
<!-- 0&#45;&gt;2 -->
<g id="edge5" class="edge">
<title>0&#45;&gt;2</title>
<path fill="none" stroke="black" d="M33.2,-27.08C45.69,-18.71 64.71,-7.54 83.25,-2.88 98.77,1.02 103.69,0.83 119.25,-2.88 133.33,-6.24 147.8,-12.99 159.78,-19.65"/>
<polygon fill="black" stroke="black" points="157.87,-22.59 168.27,-24.61 161.41,-16.54 157.87,-22.59"/>
<text text-anchor="middle" x="101.25" y="-6.58" font-family="Times,serif" font-size="14.00">5:2</text>
</g>
<!-- 1&#45;&gt;2 -->
<g id="edge6" class="edge">
<title>1&#45;&gt;2</title>
<path fill="none" stroke="black" d="M115.7,-88.36C125.89,-95.26 140.04,-101.75 151.5,-95.38 162.14,-89.46 170.04,-78.95 175.68,-68.48"/>
<polygon fill="black" stroke="black" points="178.79,-70.11 179.94,-59.57 172.47,-67.09 178.79,-70.11"/>
<text text-anchor="middle" x="142.88" y="-100.58" font-family="Times,serif" font-size="14.00">1:2</text>
</g>
<!-- 1&#45;&gt;2 -->
<g id="edge7" class="edge">
<title>1&#45;&gt;2</title>
<path fill="none" stroke="black" d="M118.3,-70.42C127.97,-66.18 140.5,-60.58 151.5,-55.38 153.76,-54.31 156.09,-53.19 158.42,-52.05"/>
<polygon fill="black" stroke="black" points="159.75,-55.3 167.16,-47.73 156.65,-49.03 159.75,-55.3"/>
<text text-anchor="middle" x="142.88" y="-66.58" font-family="Times,serif" font-size="14.00">2:3</text>
</g>
<!-- 1&#45;&gt;2 -->
<g id="edge8" class="edge">
<title>1&#45;&gt;2</title>
<path fill="none" stroke="black" d="M109.58,-61.39C114.93,-51.79 123.18,-40.4 134.25,-34.88 140.69,-31.66 148.14,-30.63 155.38,-30.76"/>
<polygon fill="black" stroke="black" points="155.01,-34.24 165.29,-31.68 155.65,-27.27 155.01,-34.24"/>
<text text-anchor="middle" x="142.88" y="-38.58" font-family="Times,serif" font-size="14.00">3:1</text>
</g>
</g>
</svg>
