<?xml version="1.0" encoding="UTF-8" standalone="no"?>
<!DOCTYPE svg PUBLIC "-//W3C//DTD SVG 1.1//EN"
 "http://www.w3.org/Graphics/SVG/1.1/DTD/svg11.dtd">
<!-- Generated by graphviz version 9.0.0 (20230911.1827)
 -->
<!-- Title: FST Pages: 1 -->
<svg width="219pt" height="151pt"
 viewBox="0.00 0.00 218.50 150.86" xmlns="http://www.w3.org/2000/svg" xmlns:xlink="http://www.w3.org/1999/xlink">
<g id="graph0" class="graph" transform="scale(1 1) rotate(0) translate(4 146.86)">
<title>FST</title>
<polygon fill="white" stroke="none" points="-4,4 -4,-146.86 214.5,-146.86 214.5,4 -4,4"/>
<!-- 0 -->
<g id="node1" class="node">
<title>0</title>
<ellipse fill="none" stroke="black" stroke-width="2" cx="18" cy="-69.36" rx="18" ry="18"/>
<text text-anchor="middle" x="18" y="-64.31" font-family="Times,serif" font-size="14.00">0</text>
</g>
<!-- 2 -->
<g id="node2" class="node">
<title>2</title>
<ellipse fill="none" stroke="black" cx="188.5" cy="-69.36" rx="18" ry="18"/>
<ellipse fill="none" stroke="black" cx="188.5" cy="-69.36" rx="22" ry="22"/>
<text text-anchor="middle" x="188.5" y="-64.31" font-family="Times,serif" font-size="14.00">2</text>
</g>
<!-- 0&#45;&gt;2 -->
<g id="edge1" class="edge">
<title>0&#45;&gt;2</title>
<path fill="none" stroke="black" d="M26.25,-85.37C31.65,-95.5 39.99,-108.02 51,-115.36 76.37,-132.29 88.93,-125.62 119.25,-122.36 133.83,-120.8 139.08,-123.16 151.5,-115.36 158.71,-110.84 165.05,-104.35 170.33,-97.66"/>
<polygon fill="black" stroke="black" points="172.98,-99.97 175.97,-89.81 167.29,-95.89 172.98,-99.97"/>
<text text-anchor="middle" x="101.25" y="-129.56" font-family="Times,serif" font-size="14.00">4:1</text>
</g>
<!-- 0&#45;&gt;2 -->
<g id="edge2" class="edge">
<title>0&#45;&gt;2</title>
<path fill="none" stroke="black" d="M35.86,-73.13C40.72,-74.05 46.05,-74.9 51,-75.36 95.47,-79.5 106.99,-79.05 151.5,-75.36 152.73,-75.26 153.98,-75.14 155.25,-75"/>
<polygon fill="black" stroke="black" points="155.7,-78.47 165.13,-73.65 154.75,-71.54 155.7,-78.47"/>
<text text-anchor="middle" x="101.25" y="-80.56" font-family="Times,serif" font-size="14.00">5:2</text>
</g>
<!-- 1 -->
<g id="node3" class="node">
<title>1</title>
<ellipse fill="none" stroke="black" cx="101.25" cy="-29.36" rx="18" ry="18"/>
<text text-anchor="middle" x="101.25" y="-24.31" font-family="Times,serif" font-size="14.00">1</text>
</g>
<!-- 0&#45;&gt;1 -->
<g id="edge3" class="edge">
<title>0&#45;&gt;1</title>
<path fill="none" stroke="black" d="M35.14,-62.6C44.85,-58.42 57.38,-52.84 68.25,-47.36 70.52,-46.22 72.85,-45 75.18,-43.75"/>
<polygon fill="black" stroke="black" points="76.73,-46.9 83.78,-38.99 73.34,-40.77 76.73,-46.9"/>
<text text-anchor="middle" x="59.62" y="-57.56" font-family="Times,serif" font-size="14.00">2:3</text>
</g>
<!-- 0&#45;&gt;1 -->
<g id="edge4" class="edge">
<title>0&#45;&gt;1</title>
<path fill="none" stroke="black" d="M26.33,-53.37C31.68,-43.77 39.93,-32.39 51,-26.86 57.46,-23.64 65,-22.81 72.22,-23.15"/>
<polygon fill="black" stroke="black" points="71.59,-26.6 81.94,-24.35 72.44,-19.65 71.59,-26.6"/>
<text text-anchor="middle" x="59.62" y="-30.56" font-family="Times,serif" font-size="14.00">1:4</text>
</g>
<!-- 0&#45;&gt;1 -->
<g id="edge5" class="edge">
<title>0&#45;&gt;1</title>
<path fill="none" stroke="black" d="M22.16,-51.41C26,-35.58 34.19,-13.43 51,-2.86 60.37,3.03 71.16,-1.58 80.25,-8.51"/>
<polygon fill="black" stroke="black" points="77.7,-10.93 87.52,-14.91 82.33,-5.68 77.7,-10.93"/>
<text text-anchor="middle" x="59.62" y="-6.56" font-family="Times,serif" font-size="14.00">3:5</text>
</g>
<!-- 1&#45;&gt;2 -->
<g id="edge6" class="edge">
<title>1&#45;&gt;2</title>
<path fill="none" stroke="black" d="M117.35,-38.35C122.62,-41.36 128.63,-44.64 134.25,-47.36 141.5,-50.89 149.47,-54.37 156.98,-57.5"/>
<polygon fill="black" stroke="black" points="155.54,-60.69 166.12,-61.21 158.17,-54.2 155.54,-60.69"/>
<text text-anchor="middle" x="142.88" y="-57.56" font-family="Times,serif" font-size="14.00">3:1</text>
</g>
<!-- 1&#45;&gt;2 -->
<g id="edge7" class="edge">
<title>1&#45;&gt;2</title>
<path fill="none" stroke="black" d="M118.96,-24.74C128.86,-22.9 141.4,-22.18 151.5,-26.86 158.57,-30.14 164.76,-35.57 169.92,-41.47"/>
<polygon fill="black" stroke="black" points="166.91,-43.3 175.8,-49.06 172.44,-39.01 166.91,-43.3"/>
<text text-anchor="middle" x="142.88" y="-30.56" font-family="Times,serif" font-size="14.00">1:2</text>
</g>
<!-- 1&#45;&gt;2 -->
<g id="edge8" class="edge">
<title>1&#45;&gt;2</title>
<path fill="none" stroke="black" d="M113.75,-16.06C123.84,-6.07 138.82,4.69 151.5,-2.86 164.19,-10.42 172.68,-24.18 178.21,-37.23"/>
<polygon fill="black" stroke="black" points="174.87,-38.31 181.65,-46.45 181.43,-35.86 174.87,-38.31"/>
<text text-anchor="middle" x="142.88" y="-6.56" font-family="Times,serif" font-size="14.00">2:3</text>
</g>
</g>
</svg>
