<?xml version="1.0" encoding="UTF-8" standalone="no"?>
<!DOCTYPE svg PUBLIC "-//W3C//DTD SVG 1.1//EN"
 "http://www.w3.org/Graphics/SVG/1.1/DTD/svg11.dtd">
<!-- Generated by graphviz version 8.1.0 (20230707.0739)
 -->
<!-- Title: FST Pages: 1 -->
<svg width="219pt" height="151pt"
 viewBox="0.00 0.00 218.50 150.87" xmlns="http://www.w3.org/2000/svg" xmlns:xlink="http://www.w3.org/1999/xlink">
<g id="graph0" class="graph" transform="scale(1 1) rotate(0) translate(4 146.87)">
<title>FST</title>
<polygon fill="white" stroke="none" points="-4,4 -4,-146.87 214.5,-146.87 214.5,4 -4,4"/>
<!-- 0 -->
<g id="node1" class="node">
<title>0</title>
<ellipse fill="none" stroke="black" stroke-width="2" cx="18" cy="-69.37" rx="18" ry="18"/>
<text text-anchor="middle" x="18" y="-64.32" font-family="Times,serif" font-size="14.00">0</text>
</g>
<!-- 2 -->
<g id="node2" class="node">
<title>2</title>
<ellipse fill="none" stroke="black" cx="188.5" cy="-69.37" rx="18" ry="18"/>
<ellipse fill="none" stroke="black" cx="188.5" cy="-69.37" rx="22" ry="22"/>
<text text-anchor="middle" x="188.5" y="-64.32" font-family="Times,serif" font-size="14.00">2</text>
</g>
<!-- 0&#45;&gt;2 -->
<g id="edge1" class="edge">
<title>0&#45;&gt;2</title>
<path fill="none" stroke="black" d="M26.25,-85.37C31.65,-95.5 39.99,-108.02 51,-115.37 76.37,-132.29 88.93,-125.62 119.25,-122.37 133.83,-120.8 139.08,-123.16 151.5,-115.37 158.87,-110.74 165.34,-104.05 170.69,-97.2"/>
<polygon fill="black" stroke="black" points="173.89,-99.75 176.85,-89.58 168.19,-95.68 173.89,-99.75"/>
<text text-anchor="middle" x="101.25" y="-129.57" font-family="Times,serif" font-size="14.00">4:1</text>
</g>
<!-- 0&#45;&gt;2 -->
<g id="edge2" class="edge">
<title>0&#45;&gt;2</title>
<path fill="none" stroke="black" d="M35.86,-73.13C40.72,-74.05 46.05,-74.9 51,-75.37 95.47,-79.5 106.99,-79.05 151.5,-75.37 153.04,-75.24 154.61,-75.08 156.2,-74.9"/>
<polygon fill="black" stroke="black" points="156.21,-78.29 165.63,-73.44 155.25,-71.36 156.21,-78.29"/>
<text text-anchor="middle" x="101.25" y="-80.57" font-family="Times,serif" font-size="14.00">5:2</text>
</g>
<!-- 1 -->
<g id="node3" class="node">
<title>1</title>
<ellipse fill="none" stroke="black" cx="101.25" cy="-29.37" rx="18" ry="18"/>
<text text-anchor="middle" x="101.25" y="-24.32" font-family="Times,serif" font-size="14.00">1</text>
</g>
<!-- 0&#45;&gt;1 -->
<g id="edge3" class="edge">
<title>0&#45;&gt;1</title>
<path fill="none" stroke="black" d="M35.14,-62.6C44.85,-58.43 57.38,-52.84 68.25,-47.37 70.69,-46.14 73.21,-44.81 75.72,-43.47"/>
<polygon fill="black" stroke="black" points="77.06,-46.17 84.1,-38.26 73.66,-40.05 77.06,-46.17"/>
<text text-anchor="middle" x="59.62" y="-57.57" font-family="Times,serif" font-size="14.00">2:3</text>
</g>
<!-- 0&#45;&gt;1 -->
<g id="edge4" class="edge">
<title>0&#45;&gt;1</title>
<path fill="none" stroke="black" d="M26.33,-53.37C31.68,-43.78 39.93,-32.39 51,-26.87 57.61,-23.57 65.37,-22.78 72.74,-23.18"/>
<polygon fill="black" stroke="black" points="72.08,-26.75 82.44,-24.53 72.96,-19.81 72.08,-26.75"/>
<text text-anchor="middle" x="59.62" y="-30.57" font-family="Times,serif" font-size="14.00">1:4</text>
</g>
<!-- 0&#45;&gt;1 -->
<g id="edge5" class="edge">
<title>0&#45;&gt;1</title>
<path fill="none" stroke="black" d="M22.16,-51.41C26,-35.58 34.19,-13.43 51,-2.87 60.47,3.09 71.39,-1.68 80.53,-8.73"/>
<polygon fill="black" stroke="black" points="77.85,-10.91 87.66,-14.91 82.48,-5.66 77.85,-10.91"/>
<text text-anchor="middle" x="59.62" y="-6.57" font-family="Times,serif" font-size="14.00">3:5</text>
</g>
<!-- 1&#45;&gt;2 -->
<g id="edge6" class="edge">
<title>1&#45;&gt;2</title>
<path fill="none" stroke="black" d="M117.35,-38.35C122.62,-41.36 128.63,-44.64 134.25,-47.37 141.67,-50.97 149.84,-54.54 157.51,-57.71"/>
<polygon fill="black" stroke="black" points="155.94,-61.26 166.52,-61.77 158.57,-54.78 155.94,-61.26"/>
<text text-anchor="middle" x="142.88" y="-57.57" font-family="Times,serif" font-size="14.00">3:1</text>
</g>
<!-- 1&#45;&gt;2 -->
<g id="edge7" class="edge">
<title>1&#45;&gt;2</title>
<path fill="none" stroke="black" d="M118.96,-24.74C128.86,-22.9 141.4,-22.19 151.5,-26.87 158.74,-30.22 165.05,-35.83 170.28,-41.88"/>
<polygon fill="black" stroke="black" points="167.85,-43.47 176.73,-49.26 173.4,-39.2 167.85,-43.47"/>
<text text-anchor="middle" x="142.88" y="-30.57" font-family="Times,serif" font-size="14.00">1:2</text>
</g>
<!-- 1&#45;&gt;2 -->
<g id="edge8" class="edge">
<title>1&#45;&gt;2</title>
<path fill="none" stroke="black" d="M113.75,-16.06C123.84,-6.07 138.82,4.69 151.5,-2.87 164.32,-10.5 172.85,-24.46 178.37,-37.62"/>
<polygon fill="black" stroke="black" points="175.42,-38.72 182.18,-46.87 181.98,-36.28 175.42,-38.72"/>
<text text-anchor="middle" x="142.88" y="-6.57" font-family="Times,serif" font-size="14.00">2:3</text>
</g>
</g>
</svg>
