<?xml version="1.0" encoding="UTF-8" standalone="no"?>
<!DOCTYPE svg PUBLIC "-//W3C//DTD SVG 1.1//EN"
 "http://www.w3.org/Graphics/SVG/1.1/DTD/svg11.dtd">
<!-- Generated by graphviz version 8.1.0 (20230707.0739)
 -->
<!-- Title: FST Pages: 1 -->
<svg width="198pt" height="116pt"
 viewBox="0.00 0.00 197.50 115.92" xmlns="http://www.w3.org/2000/svg" xmlns:xlink="http://www.w3.org/1999/xlink">
<g id="graph0" class="graph" transform="scale(1 1) rotate(0) translate(4 111.92)">
<title>FST</title>
<polygon fill="white" stroke="none" points="-4,4 -4,-111.92 193.5,-111.92 193.5,4 -4,4"/>
<!-- 0 -->
<g id="node1" class="node">
<title>0</title>
<ellipse fill="none" stroke="black" stroke-width="2" cx="18" cy="-32.42" rx="18" ry="18"/>
<text text-anchor="middle" x="18" y="-27.37" font-family="Times,serif" font-size="14.00">0</text>
</g>
<!-- 1 -->
<g id="node2" class="node">
<title>1</title>
<ellipse fill="none" stroke="black" cx="90.75" cy="-72.42" rx="18" ry="18"/>
<text text-anchor="middle" x="90.75" y="-67.37" font-family="Times,serif" font-size="14.00">1</text>
</g>
<!-- 0&#45;&gt;1 -->
<g id="edge1" class="edge">
<title>0&#45;&gt;1</title>
<path fill="none" stroke="black" d="M23.45,-50.06C27.94,-63.74 36.34,-81.77 51,-90.42 56.4,-93.61 62.46,-92.73 68.16,-90.12"/>
<polygon fill="black" stroke="black" points="69.56,-92.75 76.22,-84.5 65.87,-86.8 69.56,-92.75"/>
<text text-anchor="middle" x="54.38" y="-94.62" font-family="Times,serif" font-size="14.00">1</text>
</g>
<!-- 0&#45;&gt;1 -->
<g id="edge2" class="edge">
<title>0&#45;&gt;1</title>
<path fill="none" stroke="black" d="M34,-40.91C43.1,-46.05 54.93,-52.74 65.35,-58.63"/>
<polygon fill="black" stroke="black" points="63.34,-62.08 73.77,-63.95 66.78,-55.98 63.34,-62.08"/>
<text text-anchor="middle" x="54.38" y="-57.62" font-family="Times,serif" font-size="14.00">2</text>
</g>
<!-- 0&#45;&gt;1 -->
<g id="edge3" class="edge">
<title>0&#45;&gt;1</title>
<path fill="none" stroke="black" d="M35.95,-28.33C43.02,-27.47 51.1,-27.65 57.75,-30.92 65.16,-34.57 71.34,-40.84 76.22,-47.42"/>
<polygon fill="black" stroke="black" points="73.68,-48.93 82.09,-55.37 79.54,-45.09 73.68,-48.93"/>
<text text-anchor="middle" x="54.38" y="-34.62" font-family="Times,serif" font-size="14.00">3</text>
</g>
<!-- 2 -->
<g id="node3" class="node">
<title>2</title>
<ellipse fill="none" stroke="black" cx="167.5" cy="-32.42" rx="18" ry="18"/>
<ellipse fill="none" stroke="black" cx="167.5" cy="-32.42" rx="22" ry="22"/>
<text text-anchor="middle" x="167.5" y="-27.37" font-family="Times,serif" font-size="14.00">2</text>
</g>
<!-- 0&#45;&gt;2 -->
<g id="edge4" class="edge">
<title>0&#45;&gt;2</title>
<path fill="none" stroke="black" d="M35.83,-28.03C40.69,-26.96 46.02,-25.96 51,-25.42 86.13,-21.62 95.31,-23.27 130.5,-26.42 132.04,-26.56 133.61,-26.73 135.19,-26.91"/>
<polygon fill="black" stroke="black" points="134.24,-30.46 144.63,-28.39 135.22,-23.52 134.24,-30.46"/>
<text text-anchor="middle" x="90.75" y="-28.62" font-family="Times,serif" font-size="14.00">4</text>
</g>
<!-- 0&#45;&gt;2 -->
<g id="edge5" class="edge">
<title>0&#45;&gt;2</title>
<path fill="none" stroke="black" d="M33.21,-22.02C43.59,-15.1 58.31,-6.62 72.75,-2.92 88.25,1.05 93.19,0.82 108.75,-2.92 119.2,-5.44 129.89,-10.18 139.18,-15.14"/>
<polygon fill="black" stroke="black" points="137.22,-18.61 147.64,-20.51 140.67,-12.53 137.22,-18.61"/>
<text text-anchor="middle" x="90.75" y="-6.62" font-family="Times,serif" font-size="14.00">5</text>
</g>
<!-- 1&#45;&gt;2 -->
<g id="edge6" class="edge">
<title>1&#45;&gt;2</title>
<path fill="none" stroke="black" d="M104.55,-84.62C112.21,-90.4 122.07,-95.11 130.5,-90.42 141.36,-84.38 149.37,-73.55 155.03,-62.87"/>
<polygon fill="black" stroke="black" points="158.47,-64.79 159.59,-54.25 152.15,-61.79 158.47,-64.79"/>
<text text-anchor="middle" x="127.12" y="-94.62" font-family="Times,serif" font-size="14.00">1</text>
</g>
<!-- 1&#45;&gt;2 -->
<g id="edge7" class="edge">
<title>1&#45;&gt;2</title>
<path fill="none" stroke="black" d="M107.24,-64.13C116.12,-59.38 127.54,-53.27 137.99,-47.68"/>
<polygon fill="black" stroke="black" points="139.42,-50.35 146.58,-42.54 136.12,-44.18 139.42,-50.35"/>
<text text-anchor="middle" x="127.12" y="-58.62" font-family="Times,serif" font-size="14.00">2</text>
</g>
<!-- 1&#45;&gt;2 -->
<g id="edge8" class="edge">
<title>1&#45;&gt;2</title>
<path fill="none" stroke="black" d="M99.76,-56.34C105.18,-47.37 113.27,-37 123.75,-31.92 127.19,-30.25 130.99,-29.28 134.84,-28.78"/>
<polygon fill="black" stroke="black" points="134.76,-32.26 144.66,-28.49 134.57,-25.26 134.76,-32.26"/>
<text text-anchor="middle" x="127.12" y="-35.62" font-family="Times,serif" font-size="14.00">3</text>
</g>
</g>
</svg>
