<?xml version="1.0" encoding="UTF-8" standalone="no"?>
<!DOCTYPE svg PUBLIC "-//W3C//DTD SVG 1.1//EN"
 "http://www.w3.org/Graphics/SVG/1.1/DTD/svg11.dtd">
<!-- Generated by graphviz version 2.43.0 (0)
 -->
<!-- Title: FST Pages: 1 -->
<svg width="230pt" height="144pt"
 viewBox="0.00 0.00 230.00 144.22" xmlns="http://www.w3.org/2000/svg" xmlns:xlink="http://www.w3.org/1999/xlink">
<g id="graph0" class="graph" transform="scale(1 1) rotate(0) translate(4 140.22)">
<title>FST</title>
<polygon fill="white" stroke="transparent" points="-4,4 -4,-140.22 226,-140.22 226,4 -4,4"/>
<!-- 0 -->
<g id="node1" class="node">
<title>0</title>
<ellipse fill="none" stroke="black" stroke-width="2" cx="18" cy="-68.22" rx="18" ry="18"/>
<text text-anchor="middle" x="18" y="-64.52" font-family="Times,serif" font-size="14.00">0</text>
</g>
<!-- 2 -->
<g id="node2" class="node">
<title>2</title>
<ellipse fill="none" stroke="black" cx="200" cy="-68.22" rx="18" ry="18"/>
<ellipse fill="none" stroke="black" cx="200" cy="-68.22" rx="22" ry="22"/>
<text text-anchor="middle" x="200" y="-64.52" font-family="Times,serif" font-size="14.00">2</text>
</g>
<!-- 0&#45;&gt;2 -->
<g id="edge1" class="edge">
<title>0&#45;&gt;2</title>
<path fill="none" stroke="black" d="M26.46,-84.27C31.86,-94 40.12,-105.75 51,-112.22 79.33,-129.07 92.11,-119.38 125,-117.22 142,-116.11 148.12,-120.51 163,-112.22 170.4,-108.1 176.88,-101.8 182.23,-95.25"/>
<polygon fill="black" stroke="black" points="185.24,-97.07 188.38,-86.95 179.61,-92.9 185.24,-97.07"/>
<text text-anchor="middle" x="107" y="-125.02" font-family="Times,serif" font-size="14.00">4:1</text>
</g>
<!-- 0&#45;&gt;2 -->
<g id="edge2" class="edge">
<title>0&#45;&gt;2</title>
<path fill="none" stroke="black" d="M35.86,-71.99C40.72,-72.91 46.05,-73.76 51,-74.22 100.56,-78.83 113.39,-78.33 163,-74.22 164.69,-74.08 166.43,-73.9 168.17,-73.7"/>
<polygon fill="black" stroke="black" points="168.72,-77.16 178.13,-72.3 167.74,-70.23 168.72,-77.16"/>
<text text-anchor="middle" x="107" y="-81.02" font-family="Times,serif" font-size="14.00">5:2</text>
</g>
<!-- 1 -->
<g id="node3" class="node">
<title>1</title>
<ellipse fill="none" stroke="black" cx="107" cy="-30.22" rx="18" ry="18"/>
<text text-anchor="middle" x="107" y="-26.52" font-family="Times,serif" font-size="14.00">1</text>
</g>
<!-- 0&#45;&gt;1 -->
<g id="edge3" class="edge">
<title>0&#45;&gt;1</title>
<path fill="none" stroke="black" d="M35.03,-62.21C46.08,-57.97 61.05,-52.04 74,-46.22 76.52,-45.09 79.12,-43.87 81.71,-42.63"/>
<polygon fill="black" stroke="black" points="83.4,-45.7 90.82,-38.13 80.31,-39.42 83.4,-45.7"/>
<text text-anchor="middle" x="62.5" y="-59.02" font-family="Times,serif" font-size="14.00">2:3</text>
</g>
<!-- 0&#45;&gt;1 -->
<g id="edge4" class="edge">
<title>0&#45;&gt;1</title>
<path fill="none" stroke="black" d="M26.71,-52.36C32.12,-43.19 40.29,-32.45 51,-27.22 59.62,-23.02 69.92,-22.56 79.27,-23.57"/>
<polygon fill="black" stroke="black" points="78.84,-27.05 89.28,-25.21 79.97,-20.14 78.84,-27.05"/>
<text text-anchor="middle" x="62.5" y="-31.02" font-family="Times,serif" font-size="14.00">1:4</text>
</g>
<!-- 0&#45;&gt;1 -->
<g id="edge5" class="edge">
<title>0&#45;&gt;1</title>
<path fill="none" stroke="black" d="M22.28,-50.66C26.21,-35.18 34.45,-13.52 51,-3.22 62.37,3.85 75.86,-2.56 86.63,-10.91"/>
<polygon fill="black" stroke="black" points="84.4,-13.6 94.26,-17.48 88.97,-8.3 84.4,-13.6"/>
<text text-anchor="middle" x="62.5" y="-7.02" font-family="Times,serif" font-size="14.00">3:5</text>
</g>
<!-- 1&#45;&gt;2 -->
<g id="edge6" class="edge">
<title>1&#45;&gt;2</title>
<path fill="none" stroke="black" d="M123.14,-38.21C128.42,-40.88 134.42,-43.79 140,-46.22 149.45,-50.33 159.94,-54.4 169.42,-57.89"/>
<polygon fill="black" stroke="black" points="168.26,-61.2 178.85,-61.31 170.64,-54.61 168.26,-61.2"/>
<text text-anchor="middle" x="151.5" y="-59.02" font-family="Times,serif" font-size="14.00">3:1</text>
</g>
<!-- 1&#45;&gt;2 -->
<g id="edge7" class="edge">
<title>1&#45;&gt;2</title>
<path fill="none" stroke="black" d="M124.62,-25.43C135.93,-23.08 150.98,-21.78 163,-27.22 170,-30.39 176.18,-35.67 181.35,-41.4"/>
<polygon fill="black" stroke="black" points="178.76,-43.76 187.77,-49.34 184.21,-39.36 178.76,-43.76"/>
<text text-anchor="middle" x="151.5" y="-31.02" font-family="Times,serif" font-size="14.00">1:2</text>
</g>
<!-- 1&#45;&gt;2 -->
<g id="edge8" class="edge">
<title>1&#45;&gt;2</title>
<path fill="none" stroke="black" d="M120.11,-17.61C131.47,-7.38 148.78,4.1 163,-4.22 175.54,-11.56 184.05,-25.04 189.63,-37.75"/>
<polygon fill="black" stroke="black" points="186.43,-39.17 193.35,-47.2 192.95,-36.61 186.43,-39.17"/>
<text text-anchor="middle" x="151.5" y="-8.02" font-family="Times,serif" font-size="14.00">2:3</text>
</g>
</g>
</svg>
