<?xml version="1.0" encoding="UTF-8" standalone="no"?>
<!DOCTYPE svg PUBLIC "-//W3C//DTD SVG 1.1//EN"
 "http://www.w3.org/Graphics/SVG/1.1/DTD/svg11.dtd">
<!-- Generated by graphviz version 7.0.0 (20221023.0053)
 -->
<!-- Title: FST Pages: 1 -->
<svg width="220pt" height="143pt"
 viewBox="0.00 0.00 220.00 142.87" xmlns="http://www.w3.org/2000/svg" xmlns:xlink="http://www.w3.org/1999/xlink">
<g id="graph0" class="graph" transform="scale(1 1) rotate(0) translate(4 138.87)">
<title>FST</title>
<polygon fill="white" stroke="none" points="-4,4 -4,-138.87 216,-138.87 216,4 -4,4"/>
<!-- 0 -->
<g id="node1" class="node">
<title>0</title>
<ellipse fill="none" stroke="black" stroke-width="2" cx="18" cy="-66.87" rx="18" ry="18"/>
<text text-anchor="middle" x="18" y="-63.17" font-family="Times,serif" font-size="14.00">0</text>
</g>
<!-- 2 -->
<g id="node2" class="node">
<title>2</title>
<ellipse fill="none" stroke="black" cx="190" cy="-66.87" rx="18" ry="18"/>
<ellipse fill="none" stroke="black" cx="190" cy="-66.87" rx="22" ry="22"/>
<text text-anchor="middle" x="190" y="-63.17" font-family="Times,serif" font-size="14.00">2</text>
</g>
<!-- 0&#45;&gt;2 -->
<g id="edge1" class="edge">
<title>0&#45;&gt;2</title>
<path fill="none" stroke="black" d="M26.51,-82.85C31.92,-92.55 40.18,-104.3 51,-110.87 77.27,-126.84 89.34,-118.18 120,-115.87 134.79,-114.76 140.11,-118.21 153,-110.87 160.03,-106.87 166.25,-100.92 171.46,-94.68"/>
<polygon fill="black" stroke="black" points="174.22,-96.83 177.43,-86.73 168.62,-92.62 174.22,-96.83"/>
<text text-anchor="middle" x="102" y="-123.67" font-family="Times,serif" font-size="14.00">4:1</text>
</g>
<!-- 0&#45;&gt;2 -->
<g id="edge2" class="edge">
<title>0&#45;&gt;2</title>
<path fill="none" stroke="black" d="M36.21,-70.06C40.99,-70.81 46.18,-71.5 51,-71.87 68.93,-73.27 70.4,-75.94 153,-70.87 154.19,-70.8 155.41,-70.72 156.63,-70.62"/>
<polygon fill="black" stroke="black" points="156.57,-74.14 166.2,-69.73 155.92,-67.17 156.57,-74.14"/>
<text text-anchor="middle" x="102" y="-76.67" font-family="Times,serif" font-size="14.00">5:2</text>
</g>
<!-- 1 -->
<g id="node3" class="node">
<title>1</title>
<ellipse fill="none" stroke="black" cx="102" cy="-28.87" rx="18" ry="18"/>
<text text-anchor="middle" x="102" y="-25.17" font-family="Times,serif" font-size="14.00">1</text>
</g>
<!-- 0&#45;&gt;1 -->
<g id="edge3" class="edge">
<title>0&#45;&gt;1</title>
<path fill="none" stroke="black" d="M34.85,-60.13C44.73,-55.88 57.67,-50.19 69,-44.87 71.02,-43.92 73.11,-42.92 75.2,-41.91"/>
<polygon fill="black" stroke="black" points="76.68,-45.08 84.09,-37.51 73.58,-38.81 76.68,-45.08"/>
<text text-anchor="middle" x="60" y="-56.67" font-family="Times,serif" font-size="14.00">2:3</text>
</g>
<!-- 0&#45;&gt;1 -->
<g id="edge4" class="edge">
<title>0&#45;&gt;1</title>
<path fill="none" stroke="black" d="M26.71,-51.01C32.12,-41.84 40.29,-31.1 51,-25.87 57.77,-22.57 65.68,-21.84 73.19,-22.33"/>
<polygon fill="black" stroke="black" points="72.55,-25.78 82.93,-23.69 73.51,-18.84 72.55,-25.78"/>
<text text-anchor="middle" x="60" y="-29.67" font-family="Times,serif" font-size="14.00">1:4</text>
</g>
<!-- 0&#45;&gt;1 -->
<g id="edge5" class="edge">
<title>0&#45;&gt;1</title>
<path fill="none" stroke="black" d="M22.52,-48.98C26.56,-33.77 34.83,-12.87 51,-2.87 60.49,2.99 71.44,-1.52 80.67,-8.34"/>
<polygon fill="black" stroke="black" points="78.18,-10.81 88.06,-14.63 82.72,-5.48 78.18,-10.81"/>
<text text-anchor="middle" x="60" y="-6.67" font-family="Times,serif" font-size="14.00">3:5</text>
</g>
<!-- 1&#45;&gt;2 -->
<g id="edge6" class="edge">
<title>1&#45;&gt;2</title>
<path fill="none" stroke="black" d="M118.51,-36.93C123.71,-39.55 129.57,-42.41 135,-44.87 142.58,-48.31 150.87,-51.81 158.62,-54.97"/>
<polygon fill="black" stroke="black" points="157.11,-58.14 167.69,-58.62 159.72,-51.64 157.11,-58.14"/>
<text text-anchor="middle" x="144" y="-55.67" font-family="Times,serif" font-size="14.00">3:1</text>
</g>
<!-- 1&#45;&gt;2 -->
<g id="edge7" class="edge">
<title>1&#45;&gt;2</title>
<path fill="none" stroke="black" d="M119.47,-24.11C129.58,-22.08 142.54,-21.14 153,-25.87 159.68,-28.9 165.62,-33.85 170.64,-39.27"/>
<polygon fill="black" stroke="black" points="167.77,-41.3 176.81,-46.82 173.19,-36.87 167.77,-41.3"/>
<text text-anchor="middle" x="144" y="-29.67" font-family="Times,serif" font-size="14.00">1:2</text>
</g>
<!-- 1&#45;&gt;2 -->
<g id="edge8" class="edge">
<title>1&#45;&gt;2</title>
<path fill="none" stroke="black" d="M114.7,-15.77C124.94,-5.94 140.16,4.63 153,-2.87 165.09,-9.94 173.43,-22.72 179.01,-35.02"/>
<polygon fill="black" stroke="black" points="175.7,-36.16 182.67,-44.13 182.2,-33.55 175.7,-36.16"/>
<text text-anchor="middle" x="144" y="-6.67" font-family="Times,serif" font-size="14.00">2:3</text>
</g>
</g>
</svg>
