<?xml version="1.0" encoding="UTF-8" standalone="no"?>
<!DOCTYPE svg PUBLIC "-//W3C//DTD SVG 1.1//EN"
 "http://www.w3.org/Graphics/SVG/1.1/DTD/svg11.dtd">
<!-- Generated by graphviz version 7.0.0 (20221023.0053)
 -->
<!-- Title: FST Pages: 1 -->
<svg width="220pt" height="118pt"
 viewBox="0.00 0.00 220.00 117.93" xmlns="http://www.w3.org/2000/svg" xmlns:xlink="http://www.w3.org/1999/xlink">
<g id="graph0" class="graph" transform="scale(1 1) rotate(0) translate(4 113.93)">
<title>FST</title>
<polygon fill="white" stroke="none" points="-4,4 -4,-113.93 216,-113.93 216,4 -4,4"/>
<!-- 0 -->
<g id="node1" class="node">
<title>0</title>
<ellipse fill="none" stroke="black" stroke-width="2" cx="18" cy="-38.93" rx="18" ry="18"/>
<text text-anchor="middle" x="18" y="-35.23" font-family="Times,serif" font-size="14.00">0</text>
</g>
<!-- 1 -->
<g id="node2" class="node">
<title>1</title>
<ellipse fill="none" stroke="black" cx="102" cy="-76.93" rx="18" ry="18"/>
<text text-anchor="middle" x="102" y="-73.23" font-family="Times,serif" font-size="14.00">1</text>
</g>
<!-- 0&#45;&gt;1 -->
<g id="edge1" class="edge">
<title>0&#45;&gt;1</title>
<path fill="none" stroke="black" d="M24.09,-56.17C28.83,-68.82 37.27,-85.11 51,-92.93 58.91,-97.43 68.25,-95.99 76.71,-92.56"/>
<polygon fill="black" stroke="black" points="78.1,-95.77 85.43,-88.12 74.93,-89.54 78.1,-95.77"/>
<text text-anchor="middle" x="60" y="-98.73" font-family="Times,serif" font-size="14.00">1:4</text>
</g>
<!-- 0&#45;&gt;1 -->
<g id="edge2" class="edge">
<title>0&#45;&gt;1</title>
<path fill="none" stroke="black" d="M34.55,-46.9C39.75,-49.51 45.6,-52.39 51,-54.93 58.61,-58.5 66.95,-62.24 74.6,-65.6"/>
<polygon fill="black" stroke="black" points="73.19,-68.81 83.76,-69.59 75.99,-62.39 73.19,-68.81"/>
<text text-anchor="middle" x="60" y="-66.73" font-family="Times,serif" font-size="14.00">2:3</text>
</g>
<!-- 0&#45;&gt;1 -->
<g id="edge3" class="edge">
<title>0&#45;&gt;1</title>
<path fill="none" stroke="black" d="M35.57,-33.96C45.71,-31.85 58.68,-30.89 69,-35.93 76.2,-39.44 82.25,-45.44 87.08,-51.78"/>
<polygon fill="black" stroke="black" points="83.98,-53.44 92.45,-59.81 89.8,-49.55 83.98,-53.44"/>
<text text-anchor="middle" x="60" y="-39.73" font-family="Times,serif" font-size="14.00">3:5</text>
</g>
<!-- 2 -->
<g id="node3" class="node">
<title>2</title>
<ellipse fill="none" stroke="black" cx="190" cy="-38.93" rx="18" ry="18"/>
<ellipse fill="none" stroke="black" cx="190" cy="-38.93" rx="22" ry="22"/>
<text text-anchor="middle" x="190" y="-35.23" font-family="Times,serif" font-size="14.00">2</text>
</g>
<!-- 0&#45;&gt;2 -->
<g id="edge4" class="edge">
<title>0&#45;&gt;2</title>
<path fill="none" stroke="black" d="M35.01,-32.27C40.04,-30.49 45.67,-28.82 51,-27.93 95.71,-20.46 108.16,-21.23 153,-27.93 154.66,-28.18 156.34,-28.48 158.03,-28.84"/>
<polygon fill="black" stroke="black" points="157.04,-32.2 167.59,-31.31 158.79,-25.42 157.04,-32.2"/>
<text text-anchor="middle" x="102" y="-26.73" font-family="Times,serif" font-size="14.00">4:1</text>
</g>
<!-- 0&#45;&gt;2 -->
<g id="edge5" class="edge">
<title>0&#45;&gt;2</title>
<path fill="none" stroke="black" d="M33.06,-28.33C45.65,-19.56 65,-7.77 84,-2.93 99.5,1.02 104.46,0.88 120,-2.93 134.56,-6.5 149.46,-13.74 161.67,-20.79"/>
<polygon fill="black" stroke="black" points="159.56,-23.61 169.93,-25.8 163.2,-17.62 159.56,-23.61"/>
<text text-anchor="middle" x="102" y="-6.73" font-family="Times,serif" font-size="14.00">5:2</text>
</g>
<!-- 1&#45;&gt;2 -->
<g id="edge6" class="edge">
<title>1&#45;&gt;2</title>
<path fill="none" stroke="black" d="M117.13,-87.25C127.45,-93.45 141.59,-99.04 153,-92.93 162.7,-87.74 170.24,-78.65 175.86,-69.39"/>
<polygon fill="black" stroke="black" points="178.83,-71.25 180.49,-60.78 172.67,-67.93 178.83,-71.25"/>
<text text-anchor="middle" x="144" y="-98.73" font-family="Times,serif" font-size="14.00">1:2</text>
</g>
<!-- 1&#45;&gt;2 -->
<g id="edge7" class="edge">
<title>1&#45;&gt;2</title>
<path fill="none" stroke="black" d="M118.77,-70.01C128.62,-65.68 141.55,-59.99 153,-54.93 155.02,-54.04 157.1,-53.12 159.19,-52.19"/>
<polygon fill="black" stroke="black" points="160.47,-55.45 168.19,-48.19 157.63,-49.05 160.47,-55.45"/>
<text text-anchor="middle" x="144" y="-65.73" font-family="Times,serif" font-size="14.00">2:3</text>
</g>
<!-- 1&#45;&gt;2 -->
<g id="edge8" class="edge">
<title>1&#45;&gt;2</title>
<path fill="none" stroke="black" d="M110.71,-61.07C116.12,-51.89 124.29,-41.16 135,-35.93 141.7,-32.66 149.44,-31.71 156.93,-31.95"/>
<polygon fill="black" stroke="black" points="156.49,-35.42 166.8,-32.99 157.22,-28.46 156.49,-35.42"/>
<text text-anchor="middle" x="144" y="-39.73" font-family="Times,serif" font-size="14.00">3:1</text>
</g>
</g>
</svg>
