<?xml version="1.0" encoding="UTF-8" standalone="no"?>
<!DOCTYPE svg PUBLIC "-//W3C//DTD SVG 1.1//EN"
 "http://www.w3.org/Graphics/SVG/1.1/DTD/svg11.dtd">
<!-- Generated by graphviz version 6.0.1 (20220911.1526)
 -->
<!-- Title: FST Pages: 1 -->
<svg width="220pt" height="143pt"
 viewBox="0.00 0.00 220.00 142.87" xmlns="http://www.w3.org/2000/svg" xmlns:xlink="http://www.w3.org/1999/xlink">
<g id="graph0" class="graph" transform="scale(1 1) rotate(0) translate(4 138.87)">
<title>FST</title>
<polygon fill="white" stroke="none" points="-4,4 -4,-138.87 216,-138.87 216,4 -4,4"/>
<!-- 0 -->
<g id="node1" class="node">
<title>0</title>
<ellipse fill="none" stroke="black" stroke-width="2" cx="18" cy="-66.87" rx="18" ry="18"/>
<text text-anchor="middle" x="18" y="-63.17" font-family="Times,serif" font-size="14.00">0</text>
</g>
<!-- 2 -->
<g id="node2" class="node">
<title>2</title>
<ellipse fill="none" stroke="black" cx="190" cy="-66.87" rx="18" ry="18"/>
<ellipse fill="none" stroke="black" cx="190" cy="-66.87" rx="22" ry="22"/>
<text text-anchor="middle" x="190" y="-63.17" font-family="Times,serif" font-size="14.00">2</text>
</g>
<!-- 0&#45;&gt;2 -->
<g id="edge1" class="edge">
<title>0&#45;&gt;2</title>
<path fill="none" stroke="black" d="M26.51,-82.85C31.92,-92.55 40.18,-104.3 51,-110.87 77.27,-126.85 89.34,-118.18 120,-115.87 134.79,-114.76 140.11,-118.22 153,-110.87 160.24,-106.75 166.61,-100.57 171.91,-94.13"/>
<polygon fill="black" stroke="black" points="174.83,-96.07 178.03,-85.97 169.23,-91.87 174.83,-96.07"/>
<text text-anchor="middle" x="102" y="-123.67" font-family="Times,serif" font-size="14.00">4:1</text>
</g>
<!-- 0&#45;&gt;2 -->
<g id="edge2" class="edge">
<title>0&#45;&gt;2</title>
<path fill="none" stroke="black" d="M35.88,-70.01C40.74,-70.78 46.07,-71.49 51,-71.87 68.93,-73.27 70.4,-75.94 153,-70.87 154.53,-70.78 156.09,-70.67 157.67,-70.54"/>
<polygon fill="black" stroke="black" points="158.47,-73.98 168.09,-69.55 157.8,-67.01 158.47,-73.98"/>
<text text-anchor="middle" x="102" y="-76.67" font-family="Times,serif" font-size="14.00">5:2</text>
</g>
<!-- 1 -->
<g id="node3" class="node">
<title>1</title>
<ellipse fill="none" stroke="black" cx="102" cy="-28.87" rx="18" ry="18"/>
<text text-anchor="middle" x="102" y="-25.17" font-family="Times,serif" font-size="14.00">1</text>
</g>
<!-- 0&#45;&gt;1 -->
<g id="edge3" class="edge">
<title>0&#45;&gt;1</title>
<path fill="none" stroke="black" d="M34.85,-60.14C44.73,-55.88 57.67,-50.2 69,-44.87 71.5,-43.7 74.09,-42.46 76.67,-41.19"/>
<polygon fill="black" stroke="black" points="78.37,-44.26 85.77,-36.68 75.26,-37.99 78.37,-44.26"/>
<text text-anchor="middle" x="60" y="-56.67" font-family="Times,serif" font-size="14.00">2:3</text>
</g>
<!-- 0&#45;&gt;1 -->
<g id="edge4" class="edge">
<title>0&#45;&gt;1</title>
<path fill="none" stroke="black" d="M26.71,-51.02C32.12,-41.84 40.29,-31.1 51,-25.87 58.17,-22.37 66.63,-21.77 74.53,-22.43"/>
<polygon fill="black" stroke="black" points="74.03,-25.9 84.43,-23.9 75.05,-18.97 74.03,-25.9"/>
<text text-anchor="middle" x="60" y="-29.67" font-family="Times,serif" font-size="14.00">1:4</text>
</g>
<!-- 0&#45;&gt;1 -->
<g id="edge5" class="edge">
<title>0&#45;&gt;1</title>
<path fill="none" stroke="black" d="M22.44,-49.28C26.45,-34.05 34.73,-12.93 51,-2.87 60.78,3.17 72.13,-1.82 81.53,-8.98"/>
<polygon fill="black" stroke="black" points="79.36,-11.73 89.21,-15.62 83.93,-6.43 79.36,-11.73"/>
<text text-anchor="middle" x="60" y="-6.67" font-family="Times,serif" font-size="14.00">3:5</text>
</g>
<!-- 1&#45;&gt;2 -->
<g id="edge6" class="edge">
<title>1&#45;&gt;2</title>
<path fill="none" stroke="black" d="M118.19,-36.77C123.47,-39.43 129.46,-42.36 135,-44.87 142.93,-48.47 151.63,-52.13 159.69,-55.41"/>
<polygon fill="black" stroke="black" points="158.51,-58.71 169.1,-59.19 161.12,-52.21 158.51,-58.71"/>
<text text-anchor="middle" x="144" y="-55.67" font-family="Times,serif" font-size="14.00">3:1</text>
</g>
<!-- 1&#45;&gt;2 -->
<g id="edge7" class="edge">
<title>1&#45;&gt;2</title>
<path fill="none" stroke="black" d="M119.47,-24.11C129.58,-22.09 142.54,-21.14 153,-25.87 160,-29.04 166.18,-34.32 171.35,-40.05"/>
<polygon fill="black" stroke="black" points="168.76,-42.42 177.77,-48 174.21,-38.02 168.76,-42.42"/>
<text text-anchor="middle" x="144" y="-29.67" font-family="Times,serif" font-size="14.00">1:2</text>
</g>
<!-- 1&#45;&gt;2 -->
<g id="edge8" class="edge">
<title>1&#45;&gt;2</title>
<path fill="none" stroke="black" d="M114.7,-15.77C124.94,-5.94 140.16,4.63 153,-2.87 165.54,-10.21 174.05,-23.69 179.63,-36.4"/>
<polygon fill="black" stroke="black" points="176.43,-37.83 183.35,-45.85 182.95,-35.27 176.43,-37.83"/>
<text text-anchor="middle" x="144" y="-6.67" font-family="Times,serif" font-size="14.00">2:3</text>
</g>
</g>
</svg>
