<?xml version="1.0" encoding="UTF-8" standalone="no"?>
<!DOCTYPE svg PUBLIC "-//W3C//DTD SVG 1.1//EN"
 "http://www.w3.org/Graphics/SVG/1.1/DTD/svg11.dtd">
<!-- Generated by graphviz version 6.0.2 (20221011.1828)
 -->
<!-- Title: FST Pages: 1 -->
<svg width="220pt" height="118pt"
 viewBox="0.00 0.00 220.00 117.93" xmlns="http://www.w3.org/2000/svg" xmlns:xlink="http://www.w3.org/1999/xlink">
<g id="graph0" class="graph" transform="scale(1 1) rotate(0) translate(4 113.93)">
<title>FST</title>
<polygon fill="white" stroke="none" points="-4,4 -4,-113.93 216,-113.93 216,4 -4,4"/>
<!-- 0 -->
<g id="node1" class="node">
<title>0</title>
<ellipse fill="none" stroke="black" stroke-width="2" cx="18" cy="-38.93" rx="18" ry="18"/>
<text text-anchor="middle" x="18" y="-35.23" font-family="Times,serif" font-size="14.00">0</text>
</g>
<!-- 1 -->
<g id="node2" class="node">
<title>1</title>
<ellipse fill="none" stroke="black" cx="102" cy="-76.93" rx="18" ry="18"/>
<text text-anchor="middle" x="102" y="-73.23" font-family="Times,serif" font-size="14.00">1</text>
</g>
<!-- 0&#45;&gt;1 -->
<g id="edge1" class="edge">
<title>0&#45;&gt;1</title>
<path fill="none" stroke="black" d="M23.99,-55.91C28.71,-68.6 37.18,-85.05 51,-92.93 59.26,-97.63 69.08,-95.85 77.83,-92.09"/>
<polygon fill="black" stroke="black" points="79.52,-95.15 86.77,-87.43 76.29,-88.94 79.52,-95.15"/>
<text text-anchor="middle" x="60" y="-98.73" font-family="Times,serif" font-size="14.00">1:4</text>
</g>
<!-- 0&#45;&gt;1 -->
<g id="edge2" class="edge">
<title>0&#45;&gt;1</title>
<path fill="none" stroke="black" d="M34.23,-46.73C39.51,-49.39 45.49,-52.34 51,-54.93 59.06,-58.71 67.92,-62.68 75.93,-66.18"/>
<polygon fill="black" stroke="black" points="74.58,-69.42 85.15,-70.19 77.37,-63 74.58,-69.42"/>
<text text-anchor="middle" x="60" y="-66.73" font-family="Times,serif" font-size="14.00">2:3</text>
</g>
<!-- 0&#45;&gt;1 -->
<g id="edge3" class="edge">
<title>0&#45;&gt;1</title>
<path fill="none" stroke="black" d="M35.57,-33.96C45.71,-31.85 58.68,-30.89 69,-35.93 76.53,-39.6 82.81,-46 87.75,-52.67"/>
<polygon fill="black" stroke="black" points="84.86,-54.65 93.29,-61.07 90.71,-50.79 84.86,-54.65"/>
<text text-anchor="middle" x="60" y="-39.73" font-family="Times,serif" font-size="14.00">3:5</text>
</g>
<!-- 2 -->
<g id="node3" class="node">
<title>2</title>
<ellipse fill="none" stroke="black" cx="190" cy="-38.93" rx="18" ry="18"/>
<ellipse fill="none" stroke="black" cx="190" cy="-38.93" rx="22" ry="22"/>
<text text-anchor="middle" x="190" y="-35.23" font-family="Times,serif" font-size="14.00">2</text>
</g>
<!-- 0&#45;&gt;2 -->
<g id="edge4" class="edge">
<title>0&#45;&gt;2</title>
<path fill="none" stroke="black" d="M35.01,-32.27C40.04,-30.49 45.67,-28.82 51,-27.93 95.71,-20.46 108.16,-21.23 153,-27.93 155.07,-28.24 157.19,-28.64 159.3,-29.11"/>
<polygon fill="black" stroke="black" points="158.5,-32.52 169.06,-31.69 160.29,-25.75 158.5,-32.52"/>
<text text-anchor="middle" x="102" y="-26.73" font-family="Times,serif" font-size="14.00">4:1</text>
</g>
<!-- 0&#45;&gt;2 -->
<g id="edge5" class="edge">
<title>0&#45;&gt;2</title>
<path fill="none" stroke="black" d="M33.06,-28.33C45.65,-19.56 65,-7.77 84,-2.93 99.5,1.02 104.46,0.88 120,-2.93 134.95,-6.6 150.27,-14.13 162.66,-21.36"/>
<polygon fill="black" stroke="black" points="161.15,-24.54 171.51,-26.77 164.79,-18.57 161.15,-24.54"/>
<text text-anchor="middle" x="102" y="-6.73" font-family="Times,serif" font-size="14.00">5:2</text>
</g>
<!-- 1&#45;&gt;2 -->
<g id="edge6" class="edge">
<title>1&#45;&gt;2</title>
<path fill="none" stroke="black" d="M117.13,-87.25C127.45,-93.45 141.59,-99.04 153,-92.93 163.09,-87.53 170.84,-77.92 176.52,-68.28"/>
<polygon fill="black" stroke="black" points="179.75,-69.65 181.33,-59.18 173.56,-66.38 179.75,-69.65"/>
<text text-anchor="middle" x="144" y="-98.73" font-family="Times,serif" font-size="14.00">1:2</text>
</g>
<!-- 1&#45;&gt;2 -->
<g id="edge7" class="edge">
<title>1&#45;&gt;2</title>
<path fill="none" stroke="black" d="M118.77,-70.01C128.62,-65.68 141.55,-59.99 153,-54.93 155.35,-53.89 157.79,-52.81 160.24,-51.72"/>
<polygon fill="black" stroke="black" points="161.86,-54.84 169.58,-47.58 159.02,-48.44 161.86,-54.84"/>
<text text-anchor="middle" x="144" y="-65.73" font-family="Times,serif" font-size="14.00">2:3</text>
</g>
<!-- 1&#45;&gt;2 -->
<g id="edge8" class="edge">
<title>1&#45;&gt;2</title>
<path fill="none" stroke="black" d="M110.71,-61.07C116.12,-51.89 124.29,-41.16 135,-35.93 142.16,-32.44 150.5,-31.59 158.46,-32.01"/>
<polygon fill="black" stroke="black" points="158.23,-35.51 168.56,-33.19 159.04,-28.56 158.23,-35.51"/>
<text text-anchor="middle" x="144" y="-39.73" font-family="Times,serif" font-size="14.00">3:1</text>
</g>
</g>
</svg>
