<?xml version="1.0" encoding="UTF-8" standalone="no"?>
<!DOCTYPE svg PUBLIC "-//W3C//DTD SVG 1.1//EN"
 "http://www.w3.org/Graphics/SVG/1.1/DTD/svg11.dtd">
<!-- Generated by graphviz version 9.0.0 (20230911.1827)
 -->
<!-- Title: FST Pages: 1 -->
<svg width="198pt" height="116pt"
 viewBox="0.00 0.00 197.50 115.92" xmlns="http://www.w3.org/2000/svg" xmlns:xlink="http://www.w3.org/1999/xlink">
<g id="graph0" class="graph" transform="scale(1 1) rotate(0) translate(4 111.92)">
<title>FST</title>
<polygon fill="white" stroke="none" points="-4,4 -4,-111.92 193.5,-111.92 193.5,4 -4,4"/>
<!-- 0 -->
<g id="node1" class="node">
<title>0</title>
<ellipse fill="none" stroke="black" stroke-width="2" cx="18" cy="-32.42" rx="18" ry="18"/>
<text text-anchor="middle" x="18" y="-27.37" font-family="Times,serif" font-size="14.00">0</text>
</g>
<!-- 1 -->
<g id="node2" class="node">
<title>1</title>
<ellipse fill="none" stroke="black" cx="90.75" cy="-72.42" rx="18" ry="18"/>
<text text-anchor="middle" x="90.75" y="-67.37" font-family="Times,serif" font-size="14.00">1</text>
</g>
<!-- 0&#45;&gt;1 -->
<g id="edge1" class="edge">
<title>0&#45;&gt;1</title>
<path fill="none" stroke="black" d="M23.45,-50.06C27.94,-63.74 36.34,-81.77 51,-90.42 56.27,-93.53 62.17,-92.77 67.74,-90.31"/>
<polygon fill="black" stroke="black" points="69.23,-93.5 75.93,-85.29 65.57,-87.53 69.23,-93.5"/>
<text text-anchor="middle" x="54.38" y="-94.62" font-family="Times,serif" font-size="14.00">1</text>
</g>
<!-- 0&#45;&gt;1 -->
<g id="edge2" class="edge">
<title>0&#45;&gt;1</title>
<path fill="none" stroke="black" d="M34,-40.91C43.01,-46 54.69,-52.6 65.02,-58.44"/>
<polygon fill="black" stroke="black" points="63.02,-61.33 73.45,-63.21 66.47,-55.24 63.02,-61.33"/>
<text text-anchor="middle" x="54.38" y="-57.62" font-family="Times,serif" font-size="14.00">2</text>
</g>
<!-- 0&#45;&gt;1 -->
<g id="edge3" class="edge">
<title>0&#45;&gt;1</title>
<path fill="none" stroke="black" d="M35.95,-28.33C43.02,-27.47 51.1,-27.65 57.75,-30.92 64.99,-34.48 71.06,-40.56 75.89,-46.98"/>
<polygon fill="black" stroke="black" points="72.83,-48.69 81.25,-55.11 78.67,-44.84 72.83,-48.69"/>
<text text-anchor="middle" x="54.38" y="-34.62" font-family="Times,serif" font-size="14.00">3</text>
</g>
<!-- 2 -->
<g id="node3" class="node">
<title>2</title>
<ellipse fill="none" stroke="black" cx="167.5" cy="-32.42" rx="18" ry="18"/>
<ellipse fill="none" stroke="black" cx="167.5" cy="-32.42" rx="22" ry="22"/>
<text text-anchor="middle" x="167.5" y="-27.37" font-family="Times,serif" font-size="14.00">2</text>
</g>
<!-- 0&#45;&gt;2 -->
<g id="edge4" class="edge">
<title>0&#45;&gt;2</title>
<path fill="none" stroke="black" d="M35.83,-28.03C40.69,-26.96 46.02,-25.96 51,-25.42 86.13,-21.62 95.31,-23.27 130.5,-26.42 131.73,-26.53 132.98,-26.66 134.25,-26.8"/>
<polygon fill="black" stroke="black" points="133.74,-30.27 144.13,-28.19 134.71,-23.34 133.74,-30.27"/>
<text text-anchor="middle" x="90.75" y="-28.62" font-family="Times,serif" font-size="14.00">4</text>
</g>
<!-- 0&#45;&gt;2 -->
<g id="edge5" class="edge">
<title>0&#45;&gt;2</title>
<path fill="none" stroke="black" d="M33.21,-22.02C43.59,-15.1 58.31,-6.62 72.75,-2.92 88.25,1.05 93.19,0.82 108.75,-2.92 119.09,-5.41 129.66,-10.08 138.88,-14.98"/>
<polygon fill="black" stroke="black" points="136.9,-17.88 147.33,-19.76 140.35,-11.79 136.9,-17.88"/>
<text text-anchor="middle" x="90.75" y="-6.62" font-family="Times,serif" font-size="14.00">5</text>
</g>
<!-- 1&#45;&gt;2 -->
<g id="edge6" class="edge">
<title>1&#45;&gt;2</title>
<path fill="none" stroke="black" d="M104.55,-84.62C112.21,-90.4 122.07,-95.11 130.5,-90.42 141.14,-84.5 149.04,-73.99 154.68,-63.53"/>
<polygon fill="black" stroke="black" points="157.79,-65.15 158.94,-54.62 151.47,-62.13 157.79,-65.15"/>
<text text-anchor="middle" x="127.12" y="-94.62" font-family="Times,serif" font-size="14.00">1</text>
</g>
<!-- 1&#45;&gt;2 -->
<g id="edge7" class="edge">
<title>1&#45;&gt;2</title>
<path fill="none" stroke="black" d="M107.24,-64.13C116.03,-59.43 127.31,-53.4 137.66,-47.85"/>
<polygon fill="black" stroke="black" points="139.08,-51.06 146.25,-43.26 135.78,-44.89 139.08,-51.06"/>
<text text-anchor="middle" x="127.12" y="-58.62" font-family="Times,serif" font-size="14.00">2</text>
</g>
<!-- 1&#45;&gt;2 -->
<g id="edge8" class="edge">
<title>1&#45;&gt;2</title>
<path fill="none" stroke="black" d="M99.76,-56.34C105.18,-47.37 113.27,-37 123.75,-31.92 127.09,-30.3 130.76,-29.34 134.49,-28.83"/>
<polygon fill="black" stroke="black" points="134.26,-32.34 144.15,-28.53 134.05,-25.34 134.26,-32.34"/>
<text text-anchor="middle" x="127.12" y="-35.62" font-family="Times,serif" font-size="14.00">3</text>
</g>
</g>
</svg>
