<?xml version="1.0" encoding="UTF-8" standalone="no"?>
<!DOCTYPE svg PUBLIC "-//W3C//DTD SVG 1.1//EN"
 "http://www.w3.org/Graphics/SVG/1.1/DTD/svg11.dtd">
<!-- Generated by graphviz version 8.1.0 (20230707.0739)
 -->
<!-- Title: FST Pages: 1 -->
<svg width="248pt" height="152pt"
 viewBox="0.00 0.00 248.13 151.69" xmlns="http://www.w3.org/2000/svg" xmlns:xlink="http://www.w3.org/1999/xlink">
<g id="graph0" class="graph" transform="scale(1 1) rotate(0) translate(4 147.69)">
<title>FST</title>
<polygon fill="white" stroke="none" points="-4,4 -4,-147.69 244.13,-147.69 244.13,4 -4,4"/>
<!-- 0 -->
<g id="node1" class="node">
<title>0</title>
<ellipse fill="none" stroke="black" stroke-width="2" cx="18" cy="-66" rx="18" ry="18"/>
<text text-anchor="middle" x="18" y="-60.95" font-family="Times,serif" font-size="14.00">0</text>
</g>
<!-- 1 -->
<g id="node2" class="node">
<title>1</title>
<ellipse fill="none" stroke="black" cx="111" cy="-106" rx="18" ry="18"/>
<text text-anchor="middle" x="111" y="-100.95" font-family="Times,serif" font-size="14.00">1</text>
</g>
<!-- 0&#45;&gt;1 -->
<g id="edge1" class="edge">
<title>0&#45;&gt;1</title>
<path fill="none" stroke="black" d="M23.45,-83.64C27.94,-97.31 36.34,-115.35 51,-124 61.98,-130.48 75.52,-127.04 86.85,-121.5"/>
<polygon fill="black" stroke="black" points="88.12,-124.24 95.13,-116.29 84.7,-118.14 88.12,-124.24"/>
<text text-anchor="middle" x="64.5" y="-130.2" font-family="Times,serif" font-size="14.00">a:a/2</text>
</g>
<!-- 0&#45;&gt;1 -->
<g id="edge2" class="edge">
<title>0&#45;&gt;1</title>
<path fill="none" stroke="black" d="M34.05,-75.1C39.32,-78.12 45.33,-81.37 51,-84 61.27,-88.77 72.88,-93.28 83.07,-96.96"/>
<polygon fill="black" stroke="black" points="81.85,-100.59 92.44,-100.6 84.17,-93.98 81.85,-100.59"/>
<text text-anchor="middle" x="64.5" y="-97.2" font-family="Times,serif" font-size="14.00">b:a/2</text>
</g>
<!-- 0&#45;&gt;1 -->
<g id="edge3" class="edge">
<title>0&#45;&gt;1</title>
<path fill="none" stroke="black" d="M35.67,-61.14C48.01,-58.5 64.88,-56.96 78,-63.5 85.61,-67.3 91.89,-73.87 96.81,-80.72"/>
<polygon fill="black" stroke="black" points="94.37,-82.42 102.67,-89.01 100.29,-78.68 94.37,-82.42"/>
<text text-anchor="middle" x="64.5" y="-66.2" font-family="Times,serif" font-size="14.00">c:a/3</text>
</g>
<!-- 2 -->
<g id="node3" class="node">
<title>2</title>
<ellipse fill="none" stroke="black" cx="111" cy="-18" rx="18" ry="18"/>
<text text-anchor="middle" x="111" y="-12.95" font-family="Times,serif" font-size="14.00">2</text>
</g>
<!-- 0&#45;&gt;2 -->
<g id="edge4" class="edge">
<title>0&#45;&gt;2</title>
<path fill="none" stroke="black" d="M31.13,-53.05C36.76,-47.64 43.78,-41.66 51,-37.5 60.68,-31.92 72.18,-27.66 82.44,-24.57"/>
<polygon fill="black" stroke="black" points="83.25,-27.7 91.95,-21.67 81.38,-20.95 83.25,-27.7"/>
<text text-anchor="middle" x="64.5" y="-41.2" font-family="Times,serif" font-size="14.00">d:a/3</text>
</g>
<!-- 0&#45;&gt;2 -->
<g id="edge5" class="edge">
<title>0&#45;&gt;2</title>
<path fill="none" stroke="black" d="M23.15,-48.49C27.51,-34.4 35.9,-15.53 51,-6.5 61.01,-0.52 73.52,-1.95 84.45,-5.46"/>
<polygon fill="black" stroke="black" points="83.1,-9.09 93.69,-9.47 85.65,-2.57 83.1,-9.09"/>
<text text-anchor="middle" x="64.5" y="-10.2" font-family="Times,serif" font-size="14.00">f:a/1</text>
</g>
<!-- 3 -->
<g id="node4" class="node">
<title>3</title>
<ellipse fill="none" stroke="black" cx="213.44" cy="-117" rx="22.69" ry="22.69"/>
<ellipse fill="none" stroke="black" cx="213.44" cy="-117" rx="26.69" ry="26.69"/>
<text text-anchor="middle" x="213.44" y="-111.95" font-family="Times,serif" font-size="14.00">3/1</text>
</g>
<!-- 1&#45;&gt;3 -->
<g id="edge6" class="edge">
<title>1&#45;&gt;3</title>
<path fill="none" stroke="black" d="M127.96,-113.27C132.99,-115.2 138.63,-117.03 144,-118 154.22,-119.85 165.44,-120.32 175.78,-120.14"/>
<polygon fill="black" stroke="black" points="175.72,-123.61 185.57,-119.72 175.44,-116.61 175.72,-123.61"/>
<text text-anchor="middle" x="157.88" y="-123.2" font-family="Times,serif" font-size="14.00">f:b/3</text>
</g>
<!-- 1&#45;&gt;3 -->
<g id="edge7" class="edge">
<title>1&#45;&gt;3</title>
<path fill="none" stroke="black" d="M128.62,-100.41C140.68,-97.14 157.34,-94.23 171.75,-97.5 174.42,-98.11 177.13,-98.91 179.8,-99.85"/>
<polygon fill="black" stroke="black" points="178.27,-103.42 188.85,-103.99 180.94,-96.95 178.27,-103.42"/>
<text text-anchor="middle" x="157.88" y="-100.2" font-family="Times,serif" font-size="14.00">g:b/2</text>
</g>
<!-- 4 -->
<g id="node5" class="node">
<title>4</title>
<ellipse fill="none" stroke="black" cx="213.44" cy="-34" rx="22.69" ry="22.69"/>
<ellipse fill="none" stroke="black" cx="213.44" cy="-34" rx="26.69" ry="26.69"/>
<text text-anchor="middle" x="213.44" y="-28.95" font-family="Times,serif" font-size="14.00">4/3</text>
</g>
<!-- 2&#45;&gt;4 -->
<g id="edge8" class="edge">
<title>2&#45;&gt;4</title>
<path fill="none" stroke="black" d="M129.04,-20.71C141.86,-22.76 159.91,-25.63 175.94,-28.19"/>
<polygon fill="black" stroke="black" points="175.2,-31.77 185.63,-29.89 176.3,-24.86 175.2,-31.77"/>
<text text-anchor="middle" x="157.88" y="-31.2" font-family="Times,serif" font-size="14.00">f:c/5</text>
</g>
<!-- 2&#45;&gt;4 -->
<g id="edge9" class="edge">
<title>2&#45;&gt;4</title>
<path fill="none" stroke="black" d="M127.17,-9.54C132.35,-7.08 138.28,-4.74 144,-3.5 156.06,-0.9 160.05,0.4 171.75,-3.5 176.3,-5.02 180.75,-7.26 184.95,-9.86"/>
<polygon fill="black" stroke="black" points="182.44,-13.08 192.64,-15.97 186.47,-7.36 182.44,-13.08"/>
<text text-anchor="middle" x="157.88" y="-7.2" font-family="Times,serif" font-size="14.00">g:c/4</text>
</g>
</g>
</svg>
