<?xml version="1.0" encoding="UTF-8" standalone="no"?>
<!DOCTYPE svg PUBLIC "-//W3C//DTD SVG 1.1//EN"
 "http://www.w3.org/Graphics/SVG/1.1/DTD/svg11.dtd">
<!-- Generated by graphviz version 6.0.1 (20220911.1526)
 -->
<!-- Title: FST Pages: 1 -->
<svg width="353pt" height="147pt"
 viewBox="0.00 0.00 353.00 147.00" xmlns="http://www.w3.org/2000/svg" xmlns:xlink="http://www.w3.org/1999/xlink">
<g id="graph0" class="graph" transform="scale(1 1) rotate(0) translate(4 143)">
<title>FST</title>
<polygon fill="white" stroke="none" points="-4,4 -4,-143 349,-143 349,4 -4,4"/>
<!-- 0 -->
<g id="node1" class="node">
<title>0</title>
<ellipse fill="none" stroke="black" stroke-width="2" cx="18" cy="-39" rx="18" ry="18"/>
<text text-anchor="middle" x="18" y="-35.3" font-family="Times,serif" font-size="14.00">0</text>
</g>
<!-- 1 -->
<g id="node2" class="node">
<title>1</title>
<ellipse fill="none" stroke="black" cx="123" cy="-67" rx="18" ry="18"/>
<text text-anchor="middle" x="123" y="-63.3" font-family="Times,serif" font-size="14.00">1</text>
</g>
<!-- 0&#45;&gt;1 -->
<g id="edge1" class="edge">
<title>0&#45;&gt;1</title>
<path fill="none" stroke="black" d="M35.55,-43.5C51.77,-47.91 76.74,-54.7 95.68,-59.85"/>
<polygon fill="black" stroke="black" points="94.92,-63.27 105.49,-62.51 96.76,-56.51 94.92,-63.27"/>
<text text-anchor="middle" x="70.5" y="-60.8" font-family="Times,serif" font-size="14.00">a:eps/1</text>
</g>
<!-- 3 -->
<g id="node3" class="node">
<title>3</title>
<ellipse fill="none" stroke="black" cx="174" cy="-18" rx="18" ry="18"/>
<text text-anchor="middle" x="174" y="-14.3" font-family="Times,serif" font-size="14.00">3</text>
</g>
<!-- 0&#45;&gt;3 -->
<g id="edge2" class="edge">
<title>0&#45;&gt;3</title>
<path fill="none" stroke="black" d="M35.11,-33.23C40.14,-31.63 45.75,-30.04 51,-29 83.16,-22.6 120.83,-19.92 145.72,-18.8"/>
<polygon fill="black" stroke="black" points="146.01,-22.29 155.86,-18.4 145.73,-15.3 146.01,-22.29"/>
<text text-anchor="middle" x="70.5" y="-32.8" font-family="Times,serif" font-size="14.00">c:q/7</text>
</g>
<!-- 4 -->
<g id="node4" class="node">
<title>4</title>
<ellipse fill="none" stroke="black" cx="225" cy="-121" rx="18" ry="18"/>
<text text-anchor="middle" x="225" y="-117.3" font-family="Times,serif" font-size="14.00">4</text>
</g>
<!-- 1&#45;&gt;4 -->
<g id="edge3" class="edge">
<title>1&#45;&gt;4</title>
<path fill="none" stroke="black" d="M138.87,-76.08C144.23,-79.29 150.35,-82.87 156,-86 170.16,-93.84 186.26,-102.15 199.24,-108.71"/>
<polygon fill="black" stroke="black" points="197.96,-111.98 208.47,-113.34 201.1,-105.73 197.96,-111.98"/>
<text text-anchor="middle" x="174" y="-107.8" font-family="Times,serif" font-size="14.00">c:p/4</text>
</g>
<!-- 5 -->
<g id="node5" class="node">
<title>5</title>
<ellipse fill="none" stroke="black" cx="225" cy="-67" rx="18" ry="18"/>
<text text-anchor="middle" x="225" y="-63.3" font-family="Times,serif" font-size="14.00">5</text>
</g>
<!-- 1&#45;&gt;5 -->
<g id="edge4" class="edge">
<title>1&#45;&gt;5</title>
<path fill="none" stroke="black" d="M141.42,-67C156.62,-67 178.93,-67 196.54,-67"/>
<polygon fill="black" stroke="black" points="196.78,-70.5 206.78,-67 196.78,-63.5 196.78,-70.5"/>
<text text-anchor="middle" x="174" y="-70.8" font-family="Times,serif" font-size="14.00">d:q/7</text>
</g>
<!-- 2 -->
<g id="node6" class="node">
<title>2</title>
<ellipse fill="none" stroke="black" cx="323" cy="-67" rx="18" ry="18"/>
<ellipse fill="none" stroke="black" cx="323" cy="-67" rx="22" ry="22"/>
<text text-anchor="middle" x="323" y="-63.3" font-family="Times,serif" font-size="14.00">2</text>
</g>
<!-- 3&#45;&gt;2 -->
<g id="edge5" class="edge">
<title>3&#45;&gt;2</title>
<path fill="none" stroke="black" d="M192.12,-17.95C206.1,-18.34 226.2,-19.88 243,-25 261.58,-30.66 280.86,-40.81 295.72,-49.72"/>
<polygon fill="black" stroke="black" points="294.01,-52.77 304.36,-55.05 297.69,-46.82 294.01,-52.77"/>
<text text-anchor="middle" x="225" y="-28.8" font-family="Times,serif" font-size="14.00">eps:r</text>
</g>
<!-- 4&#45;&gt;2 -->
<g id="edge6" class="edge">
<title>4&#45;&gt;2</title>
<path fill="none" stroke="black" d="M241,-112.56C255.24,-104.55 276.99,-92.32 294.36,-82.55"/>
<polygon fill="black" stroke="black" points="296.49,-85.36 303.49,-77.41 293.06,-79.26 296.49,-85.36"/>
<text text-anchor="middle" x="272" y="-104.8" font-family="Times,serif" font-size="14.00">eps:r</text>
</g>
<!-- 5&#45;&gt;2 -->
<g id="edge7" class="edge">
<title>5&#45;&gt;2</title>
<path fill="none" stroke="black" d="M243.16,-67C256.31,-67 274.81,-67 290.58,-67"/>
<polygon fill="black" stroke="black" points="290.97,-70.5 300.97,-67 290.97,-63.5 290.97,-70.5"/>
<text text-anchor="middle" x="272" y="-70.8" font-family="Times,serif" font-size="14.00">eps:s</text>
</g>
</g>
</svg>
