<?xml version="1.0" encoding="UTF-8" standalone="no"?>
<!DOCTYPE svg PUBLIC "-//W3C//DTD SVG 1.1//EN"
 "http://www.w3.org/Graphics/SVG/1.1/DTD/svg11.dtd">
<!-- Generated by graphviz version 6.0.1 (20220911.1526)
 -->
<!-- Title: FST Pages: 1 -->
<svg width="324pt" height="98pt"
 viewBox="0.00 0.00 324.00 98.00" xmlns="http://www.w3.org/2000/svg" xmlns:xlink="http://www.w3.org/1999/xlink">
<g id="graph0" class="graph" transform="scale(1 1) rotate(0) translate(4 94)">
<title>FST</title>
<polygon fill="white" stroke="none" points="-4,4 -4,-94 320,-94 320,4 -4,4"/>
<!-- 4 -->
<g id="node1" class="node">
<title>4</title>
<ellipse fill="none" stroke="black" stroke-width="2" cx="18" cy="-45" rx="18" ry="18"/>
<text text-anchor="middle" x="18" y="-41.3" font-family="Times,serif" font-size="14.00">4</text>
</g>
<!-- 2 -->
<g id="node2" class="node">
<title>2</title>
<ellipse fill="none" stroke="black" cx="124" cy="-72" rx="18" ry="18"/>
<text text-anchor="middle" x="124" y="-68.3" font-family="Times,serif" font-size="14.00">2</text>
</g>
<!-- 4&#45;&gt;2 -->
<g id="edge1" class="edge">
<title>4&#45;&gt;2</title>
<path fill="none" stroke="black" d="M35.71,-49.34C52.08,-53.59 77.3,-60.14 96.43,-65.1"/>
<polygon fill="black" stroke="black" points="95.77,-68.55 106.33,-67.67 97.53,-61.77 95.77,-68.55"/>
<text text-anchor="middle" x="71" y="-66.8" font-family="Times,serif" font-size="14.00">eps:eps</text>
</g>
<!-- 3 -->
<g id="node3" class="node">
<title>3</title>
<ellipse fill="none" stroke="black" cx="124" cy="-18" rx="18" ry="18"/>
<text text-anchor="middle" x="124" y="-14.3" font-family="Times,serif" font-size="14.00">3</text>
</g>
<!-- 4&#45;&gt;3 -->
<g id="edge2" class="edge">
<title>4&#45;&gt;3</title>
<path fill="none" stroke="black" d="M35.17,-39.05C40.2,-37.3 45.8,-35.47 51,-34 65.68,-29.86 82.3,-26.11 95.86,-23.28"/>
<polygon fill="black" stroke="black" points="96.89,-26.64 105.99,-21.22 95.49,-19.78 96.89,-26.64"/>
<text text-anchor="middle" x="71" y="-37.8" font-family="Times,serif" font-size="14.00">eps:eps</text>
</g>
<!-- 1 -->
<g id="node5" class="node">
<title>1</title>
<ellipse fill="none" stroke="black" cx="208" cy="-45" rx="18" ry="18"/>
<text text-anchor="middle" x="208" y="-41.3" font-family="Times,serif" font-size="14.00">1</text>
</g>
<!-- 2&#45;&gt;1 -->
<g id="edge4" class="edge">
<title>2&#45;&gt;1</title>
<path fill="none" stroke="black" d="M141.2,-66.67C152.47,-62.95 167.74,-57.93 180.74,-53.65"/>
<polygon fill="black" stroke="black" points="182.15,-56.87 190.55,-50.42 179.96,-50.22 182.15,-56.87"/>
<text text-anchor="middle" x="166" y="-63.8" font-family="Times,serif" font-size="14.00">b:b</text>
</g>
<!-- 3&#45;&gt;1 -->
<g id="edge5" class="edge">
<title>3&#45;&gt;1</title>
<path fill="none" stroke="black" d="M141.2,-23.33C152.47,-27.05 167.74,-32.07 180.74,-36.35"/>
<polygon fill="black" stroke="black" points="179.96,-39.78 190.55,-39.58 182.15,-33.13 179.96,-39.78"/>
<text text-anchor="middle" x="166" y="-36.8" font-family="Times,serif" font-size="14.00">c:c</text>
</g>
<!-- 0 -->
<g id="node4" class="node">
<title>0</title>
<ellipse fill="none" stroke="black" cx="294" cy="-45" rx="18" ry="18"/>
<ellipse fill="none" stroke="black" cx="294" cy="-45" rx="22" ry="22"/>
<text text-anchor="middle" x="294" y="-41.3" font-family="Times,serif" font-size="14.00">0</text>
</g>
<!-- 1&#45;&gt;0 -->
<g id="edge3" class="edge">
<title>1&#45;&gt;0</title>
<path fill="none" stroke="black" d="M226.4,-45C236.59,-45 249.75,-45 261.68,-45"/>
<polygon fill="black" stroke="black" points="261.74,-48.5 271.74,-45 261.74,-41.5 261.74,-48.5"/>
<text text-anchor="middle" x="249" y="-48.8" font-family="Times,serif" font-size="14.00">a:a</text>
</g>
</g>
</svg>
