<?xml version="1.0" encoding="UTF-8" standalone="no"?>
<!DOCTYPE svg PUBLIC "-//W3C//DTD SVG 1.1//EN"
 "http://www.w3.org/Graphics/SVG/1.1/DTD/svg11.dtd">
<!-- Generated by graphviz version 9.0.0 (20230911.1827)
 -->
<!-- Title: FST Pages: 1 -->
<svg width="429pt" height="98pt"
 viewBox="0.00 0.00 428.50 98.00" xmlns="http://www.w3.org/2000/svg" xmlns:xlink="http://www.w3.org/1999/xlink">
<g id="graph0" class="graph" transform="scale(1 1) rotate(0) translate(4 94)">
<title>FST</title>
<polygon fill="white" stroke="none" points="-4,4 -4,-94 424.5,-94 424.5,4 -4,4"/>
<!-- 0 -->
<g id="node1" class="node">
<title>0</title>
<ellipse fill="none" stroke="black" stroke-width="2" cx="18" cy="-45" rx="18" ry="18"/>
<text text-anchor="middle" x="18" y="-39.95" font-family="Times,serif" font-size="14.00">0</text>
</g>
<!-- 5 -->
<g id="node2" class="node">
<title>5</title>
<ellipse fill="none" stroke="black" cx="123.75" cy="-45" rx="18" ry="18"/>
<text text-anchor="middle" x="123.75" y="-39.95" font-family="Times,serif" font-size="14.00">5</text>
</g>
<!-- 0&#45;&gt;5 -->
<g id="edge1" class="edge">
<title>0&#45;&gt;5</title>
<path fill="none" stroke="black" d="M36.13,-45C51.9,-45 75.6,-45 94.22,-45"/>
<polygon fill="black" stroke="black" points="94.08,-48.5 104.08,-45 94.08,-41.5 94.08,-48.5"/>
<text text-anchor="middle" x="70.88" y="-48.2" font-family="Times,serif" font-size="14.00">eps:eps</text>
</g>
<!-- 3 -->
<g id="node5" class="node">
<title>3</title>
<ellipse fill="none" stroke="black" cx="229.5" cy="-72" rx="18" ry="18"/>
<text text-anchor="middle" x="229.5" y="-66.95" font-family="Times,serif" font-size="14.00">3</text>
</g>
<!-- 5&#45;&gt;3 -->
<g id="edge5" class="edge">
<title>5&#45;&gt;3</title>
<path fill="none" stroke="black" d="M141.42,-49.34C157.45,-53.51 181.98,-59.89 200.92,-64.82"/>
<polygon fill="black" stroke="black" points="199.85,-68.16 210.41,-67.29 201.61,-61.39 199.85,-68.16"/>
<text text-anchor="middle" x="176.62" y="-66.2" font-family="Times,serif" font-size="14.00">eps:eps</text>
</g>
<!-- 4 -->
<g id="node6" class="node">
<title>4</title>
<ellipse fill="none" stroke="black" cx="229.5" cy="-18" rx="18" ry="18"/>
<text text-anchor="middle" x="229.5" y="-12.95" font-family="Times,serif" font-size="14.00">4</text>
</g>
<!-- 5&#45;&gt;4 -->
<g id="edge6" class="edge">
<title>5&#45;&gt;4</title>
<path fill="none" stroke="black" d="M140.89,-38.73C145.93,-36.9 151.53,-35 156.75,-33.5 171.06,-29.4 187.24,-25.82 200.62,-23.13"/>
<polygon fill="black" stroke="black" points="200.89,-26.64 210.04,-21.3 199.56,-19.77 200.89,-26.64"/>
<text text-anchor="middle" x="176.62" y="-37.2" font-family="Times,serif" font-size="14.00">eps:eps</text>
</g>
<!-- 1 -->
<g id="node3" class="node">
<title>1</title>
<ellipse fill="none" stroke="black" cx="398.5" cy="-45" rx="18" ry="18"/>
<ellipse fill="none" stroke="black" cx="398.5" cy="-45" rx="22" ry="22"/>
<text text-anchor="middle" x="398.5" y="-39.95" font-family="Times,serif" font-size="14.00">1</text>
</g>
<!-- 2 -->
<g id="node4" class="node">
<title>2</title>
<ellipse fill="none" stroke="black" cx="312.75" cy="-45" rx="18" ry="18"/>
<text text-anchor="middle" x="312.75" y="-39.95" font-family="Times,serif" font-size="14.00">2</text>
</g>
<!-- 2&#45;&gt;1 -->
<g id="edge2" class="edge">
<title>2&#45;&gt;1</title>
<path fill="none" stroke="black" d="M331.1,-45C340.78,-45 353.14,-45 364.58,-45"/>
<polygon fill="black" stroke="black" points="364.49,-48.5 374.49,-45 364.49,-41.5 364.49,-48.5"/>
<text text-anchor="middle" x="353.62" y="-48.2" font-family="Times,serif" font-size="14.00">a:a</text>
</g>
<!-- 3&#45;&gt;2 -->
<g id="edge3" class="edge">
<title>3&#45;&gt;2</title>
<path fill="none" stroke="black" d="M246.94,-66.54C257.73,-62.95 272.11,-58.17 284.58,-54.03"/>
<polygon fill="black" stroke="black" points="285.51,-57.41 293.9,-50.93 283.3,-50.77 285.51,-57.41"/>
<text text-anchor="middle" x="271.12" y="-63.2" font-family="Times,serif" font-size="14.00">b:b</text>
</g>
<!-- 4&#45;&gt;2 -->
<g id="edge4" class="edge">
<title>4&#45;&gt;2</title>
<path fill="none" stroke="black" d="M246.94,-23.46C257.73,-27.05 272.11,-31.83 284.58,-35.97"/>
<polygon fill="black" stroke="black" points="283.3,-39.23 293.9,-39.07 285.51,-32.59 283.3,-39.23"/>
<text text-anchor="middle" x="271.12" y="-37.2" font-family="Times,serif" font-size="14.00">c:c</text>
</g>
</g>
</svg>
