<?xml version="1.0" encoding="UTF-8" standalone="no"?>
<!DOCTYPE svg PUBLIC "-//W3C//DTD SVG 1.1//EN"
 "http://www.w3.org/Graphics/SVG/1.1/DTD/svg11.dtd">
<!-- Generated by graphviz version 2.43.0 (0)
 -->
<!-- Title: FST Pages: 1 -->
<svg width="335pt" height="85pt"
 viewBox="0.00 0.00 334.89 84.89" xmlns="http://www.w3.org/2000/svg" xmlns:xlink="http://www.w3.org/1999/xlink">
<g id="graph0" class="graph" transform="scale(1 1) rotate(0) translate(4 80.89)">
<title>FST</title>
<polygon fill="white" stroke="transparent" points="-4,4 -4,-80.89 330.89,-80.89 330.89,4 -4,4"/>
<!-- 0 -->
<g id="node1" class="node">
<title>0</title>
<ellipse fill="none" stroke="black" stroke-width="2" cx="18" cy="-38.45" rx="18" ry="18"/>
<text text-anchor="middle" x="18" y="-34.75" font-family="Times,serif" font-size="14.00">0</text>
</g>
<!-- 1 -->
<g id="node2" class="node">
<title>1</title>
<ellipse fill="none" stroke="black" cx="143" cy="-38.45" rx="18" ry="18"/>
<text text-anchor="middle" x="143" y="-34.75" font-family="Times,serif" font-size="14.00">1</text>
</g>
<!-- 0&#45;&gt;1 -->
<g id="edge1" class="edge">
<title>0&#45;&gt;1</title>
<path fill="none" stroke="black" d="M36.1,-38.45C56.37,-38.45 90.4,-38.45 114.41,-38.45"/>
<polygon fill="black" stroke="black" points="114.65,-41.95 124.65,-38.45 114.65,-34.95 114.65,-41.95"/>
<text text-anchor="middle" x="80.5" y="-42.25" font-family="Times,serif" font-size="14.00">1:10/1.5</text>
</g>
<!-- 2 -->
<g id="node3" class="node">
<title>2</title>
<ellipse fill="none" stroke="black" cx="288.45" cy="-38.45" rx="34.4" ry="34.4"/>
<ellipse fill="none" stroke="black" cx="288.45" cy="-38.45" rx="38.39" ry="38.39"/>
<text text-anchor="middle" x="288.45" y="-34.75" font-family="Times,serif" font-size="14.00">2/0.3</text>
</g>
<!-- 1&#45;&gt;2 -->
<g id="edge2" class="edge">
<title>1&#45;&gt;2</title>
<path fill="none" stroke="black" d="M161.02,-38.45C180.3,-38.45 212.57,-38.45 239.68,-38.45"/>
<polygon fill="black" stroke="black" points="239.78,-41.95 249.78,-38.45 239.78,-34.95 239.78,-41.95"/>
<text text-anchor="middle" x="205.5" y="-42.25" font-family="Times,serif" font-size="14.00">2:20/2.5</text>
</g>
</g>
</svg>
