<?xml version="1.0" encoding="UTF-8" standalone="no"?>
<!DOCTYPE svg PUBLIC "-//W3C//DTD SVG 1.1//EN"
 "http://www.w3.org/Graphics/SVG/1.1/DTD/svg11.dtd">
<!-- Generated by graphviz version 6.0.1 (20220911.1526)
 -->
<!-- Title: FST Pages: 1 -->
<svg width="248pt" height="148pt"
 viewBox="0.00 0.00 248.20 147.53" xmlns="http://www.w3.org/2000/svg" xmlns:xlink="http://www.w3.org/1999/xlink">
<g id="graph0" class="graph" transform="scale(1 1) rotate(0) translate(4 143.53)">
<title>FST</title>
<polygon fill="white" stroke="none" points="-4,4 -4,-143.53 244.2,-143.53 244.2,4 -4,4"/>
<!-- 0 -->
<g id="node1" class="node">
<title>0</title>
<ellipse fill="none" stroke="black" stroke-width="2" cx="18" cy="-67.53" rx="18" ry="18"/>
<text text-anchor="middle" x="18" y="-63.83" font-family="Times,serif" font-size="14.00">0</text>
</g>
<!-- 1 -->
<g id="node2" class="node">
<title>1</title>
<ellipse fill="none" stroke="black" cx="112" cy="-105.53" rx="18" ry="18"/>
<text text-anchor="middle" x="112" y="-101.83" font-family="Times,serif" font-size="14.00">1</text>
</g>
<!-- 0&#45;&gt;1 -->
<g id="edge1" class="edge">
<title>0&#45;&gt;1</title>
<path fill="none" stroke="black" d="M23.99,-84.51C28.71,-97.2 37.18,-113.65 51,-121.53 62.12,-127.87 75.84,-124.88 87.35,-119.86"/>
<polygon fill="black" stroke="black" points="89.02,-122.94 96.39,-115.32 85.88,-116.68 89.02,-122.94"/>
<text text-anchor="middle" x="65" y="-128.33" font-family="Times,serif" font-size="14.00">a:a/2</text>
</g>
<!-- 0&#45;&gt;1 -->
<g id="edge2" class="edge">
<title>0&#45;&gt;1</title>
<path fill="none" stroke="black" d="M34.14,-75.54C39.41,-78.21 45.41,-81.12 51,-83.53 62.04,-88.3 74.48,-92.97 85.17,-96.78"/>
<polygon fill="black" stroke="black" points="84.17,-100.13 94.76,-100.13 86.48,-93.53 84.17,-100.13"/>
<text text-anchor="middle" x="65" y="-97.33" font-family="Times,serif" font-size="14.00">b:a/2</text>
</g>
<!-- 0&#45;&gt;1 -->
<g id="edge3" class="edge">
<title>0&#45;&gt;1</title>
<path fill="none" stroke="black" d="M35.39,-62.59C47.97,-59.74 65.41,-57.9 79,-64.53 86.53,-68.21 92.81,-74.61 97.75,-81.27"/>
<polygon fill="black" stroke="black" points="94.86,-83.25 103.29,-89.67 100.71,-79.4 94.86,-83.25"/>
<text text-anchor="middle" x="65" y="-68.33" font-family="Times,serif" font-size="14.00">c:a/3</text>
</g>
<!-- 2 -->
<g id="node3" class="node">
<title>2</title>
<ellipse fill="none" stroke="black" cx="112" cy="-18.53" rx="18" ry="18"/>
<text text-anchor="middle" x="112" y="-14.83" font-family="Times,serif" font-size="14.00">2</text>
</g>
<!-- 0&#45;&gt;2 -->
<g id="edge4" class="edge">
<title>0&#45;&gt;2</title>
<path fill="none" stroke="black" d="M31.3,-55.39C36.95,-50.3 43.96,-44.62 51,-40.53 61.47,-34.45 73.92,-29.56 84.75,-25.94"/>
<polygon fill="black" stroke="black" points="86.04,-29.21 94.53,-22.87 83.94,-22.53 86.04,-29.21"/>
<text text-anchor="middle" x="65" y="-44.33" font-family="Times,serif" font-size="14.00">d:a/3</text>
</g>
<!-- 0&#45;&gt;2 -->
<g id="edge5" class="edge">
<title>0&#45;&gt;2</title>
<path fill="none" stroke="black" d="M23.19,-50.16C27.58,-36.19 35.98,-17.47 51,-8.53 61.53,-2.27 74.84,-3.73 86.24,-7.21"/>
<polygon fill="black" stroke="black" points="85.07,-10.51 95.66,-10.64 87.46,-3.93 85.07,-10.51"/>
<text text-anchor="middle" x="65" y="-12.33" font-family="Times,serif" font-size="14.00">f:a/1</text>
</g>
<!-- 3 -->
<g id="node4" class="node">
<title>3</title>
<ellipse fill="none" stroke="black" cx="214.1" cy="-110.53" rx="22.18" ry="22.18"/>
<ellipse fill="none" stroke="black" cx="214.1" cy="-110.53" rx="26.2" ry="26.2"/>
<text text-anchor="middle" x="214.1" y="-106.83" font-family="Times,serif" font-size="14.00">3/1</text>
</g>
<!-- 1&#45;&gt;3 -->
<g id="edge6" class="edge">
<title>1&#45;&gt;3</title>
<path fill="none" stroke="black" d="M129.46,-110.47C134.41,-111.73 139.88,-112.9 145,-113.53 155.66,-114.84 167.32,-114.85 177.93,-114.31"/>
<polygon fill="black" stroke="black" points="178.38,-117.79 188.12,-113.61 177.9,-110.8 178.38,-117.79"/>
<text text-anchor="middle" x="159" y="-118.33" font-family="Times,serif" font-size="14.00">f:b/3</text>
</g>
<!-- 1&#45;&gt;3 -->
<g id="edge7" class="edge">
<title>1&#45;&gt;3</title>
<path fill="none" stroke="black" d="M129.01,-98.87C134.04,-97.09 139.67,-95.42 145,-94.53 157.27,-92.48 160.78,-92.18 173,-94.53 175.51,-95.01 178.07,-95.65 180.61,-96.4"/>
<polygon fill="black" stroke="black" points="179.63,-99.76 190.23,-99.68 181.89,-93.14 179.63,-99.76"/>
<text text-anchor="middle" x="159" y="-98.33" font-family="Times,serif" font-size="14.00">g:b/2</text>
</g>
<!-- 4 -->
<g id="node5" class="node">
<title>4</title>
<ellipse fill="none" stroke="black" cx="214.1" cy="-29.53" rx="22.18" ry="22.18"/>
<ellipse fill="none" stroke="black" cx="214.1" cy="-29.53" rx="26.2" ry="26.2"/>
<text text-anchor="middle" x="214.1" y="-25.83" font-family="Times,serif" font-size="14.00">4/3</text>
</g>
<!-- 2&#45;&gt;4 -->
<g id="edge8" class="edge">
<title>2&#45;&gt;4</title>
<path fill="none" stroke="black" d="M129.98,-20.4C143.07,-21.84 161.61,-23.87 177.87,-25.66"/>
<polygon fill="black" stroke="black" points="177.81,-29.18 188.14,-26.79 178.58,-22.22 177.81,-29.18"/>
<text text-anchor="middle" x="159" y="-28.33" font-family="Times,serif" font-size="14.00">f:c/5</text>
</g>
<!-- 2&#45;&gt;4 -->
<g id="edge9" class="edge">
<title>2&#45;&gt;4</title>
<path fill="none" stroke="black" d="M127.75,-9.37C133,-6.6 139.08,-3.93 145,-2.53 157.11,0.33 161.1,1.1 173,-2.53 177.06,-3.77 181.09,-5.58 184.93,-7.68"/>
<polygon fill="black" stroke="black" points="183.15,-10.69 193.5,-12.98 186.83,-4.74 183.15,-10.69"/>
<text text-anchor="middle" x="159" y="-6.33" font-family="Times,serif" font-size="14.00">g:c/4</text>
</g>
</g>
</svg>
