<?xml version="1.0" encoding="UTF-8" standalone="no"?>
<!DOCTYPE svg PUBLIC "-//W3C//DTD SVG 1.1//EN"
 "http://www.w3.org/Graphics/SVG/1.1/DTD/svg11.dtd">
<!-- Generated by graphviz version 2.43.0 (0)
 -->
<!-- Title: FST Pages: 1 -->
<svg width="271pt" height="109pt"
 viewBox="0.00 0.00 271.00 109.00" xmlns="http://www.w3.org/2000/svg" xmlns:xlink="http://www.w3.org/1999/xlink">
<g id="graph0" class="graph" transform="scale(1 1) rotate(0) translate(4 105)">
<title>FST</title>
<polygon fill="white" stroke="transparent" points="-4,4 -4,-105 267,-105 267,4 -4,4"/>
<!-- 0 -->
<g id="node1" class="node">
<title>0</title>
<ellipse fill="none" stroke="black" stroke-width="2" cx="18" cy="-56" rx="18" ry="18"/>
<text text-anchor="middle" x="18" y="-52.3" font-family="Times,serif" font-size="14.00">0</text>
</g>
<!-- 1 -->
<g id="node2" class="node">
<title>1</title>
<ellipse fill="none" stroke="black" cx="136" cy="-83" rx="18" ry="18"/>
<text text-anchor="middle" x="136" y="-79.3" font-family="Times,serif" font-size="14.00">1</text>
</g>
<!-- 0&#45;&gt;1 -->
<g id="edge1" class="edge">
<title>0&#45;&gt;1</title>
<path fill="none" stroke="black" d="M33.87,-64.73C39.13,-67.46 45.18,-70.22 51,-72 69.46,-77.65 91.07,-80.4 107.75,-81.73"/>
<polygon fill="black" stroke="black" points="107.7,-85.24 117.92,-82.42 108.18,-78.25 107.7,-85.24"/>
<text text-anchor="middle" x="77" y="-84.8" font-family="Times,serif" font-size="14.00">a:p/1</text>
</g>
<!-- 0&#45;&gt;1 -->
<g id="edge3" class="edge">
<title>0&#45;&gt;1</title>
<path fill="none" stroke="black" d="M35.77,-51.57C53.22,-47.82 81.02,-44.31 103,-53 108.09,-55.01 112.85,-58.26 117.06,-61.89"/>
<polygon fill="black" stroke="black" points="114.83,-64.61 124.41,-69.13 119.73,-59.62 114.83,-64.61"/>
<text text-anchor="middle" x="77" y="-56.8" font-family="Times,serif" font-size="14.00">eps:q/3</text>
</g>
<!-- 2 -->
<g id="node3" class="node">
<title>2</title>
<ellipse fill="none" stroke="black" cx="136" cy="-18" rx="18" ry="18"/>
<text text-anchor="middle" x="136" y="-14.3" font-family="Times,serif" font-size="14.00">2</text>
</g>
<!-- 0&#45;&gt;2 -->
<g id="edge2" class="edge">
<title>0&#45;&gt;2</title>
<path fill="none" stroke="black" d="M30.52,-42.87C36.12,-37.35 43.31,-31.42 51,-28 68.72,-20.11 90.51,-17.7 107.46,-17.22"/>
<polygon fill="black" stroke="black" points="107.83,-20.72 117.81,-17.14 107.78,-13.72 107.83,-20.72"/>
<text text-anchor="middle" x="77" y="-31.8" font-family="Times,serif" font-size="14.00">a:q/2</text>
</g>
<!-- 3 -->
<g id="node4" class="node">
<title>3</title>
<ellipse fill="none" stroke="black" cx="241" cy="-56" rx="18" ry="18"/>
<ellipse fill="none" stroke="black" cx="241" cy="-56" rx="22" ry="22"/>
<text text-anchor="middle" x="241" y="-52.3" font-family="Times,serif" font-size="14.00">3</text>
</g>
<!-- 1&#45;&gt;3 -->
<g id="edge4" class="edge">
<title>1&#45;&gt;3</title>
<path fill="none" stroke="black" d="M154.07,-81.41C167.77,-79.85 187.4,-76.96 204,-72 206.47,-71.26 208.98,-70.4 211.49,-69.46"/>
<polygon fill="black" stroke="black" points="213,-72.62 220.91,-65.57 210.33,-66.14 213,-72.62"/>
<text text-anchor="middle" x="186.5" y="-82.8" font-family="Times,serif" font-size="14.00">c:r/5</text>
</g>
<!-- 1&#45;&gt;3 -->
<g id="edge5" class="edge">
<title>1&#45;&gt;3</title>
<path fill="none" stroke="black" d="M147.59,-69.13C153.19,-62.94 160.64,-56.3 169,-53 181.55,-48.04 196.33,-47.86 209.16,-49.29"/>
<polygon fill="black" stroke="black" points="208.97,-52.8 219.37,-50.8 209.99,-45.88 208.97,-52.8"/>
<text text-anchor="middle" x="186.5" y="-56.8" font-family="Times,serif" font-size="14.00">c:r/4</text>
</g>
<!-- 2&#45;&gt;3 -->
<g id="edge6" class="edge">
<title>2&#45;&gt;3</title>
<path fill="none" stroke="black" d="M154.14,-18.57C168.07,-19.55 187.95,-22.16 204,-29 208.04,-30.72 212.05,-32.99 215.83,-35.49"/>
<polygon fill="black" stroke="black" points="214.04,-38.51 224.19,-41.56 218.16,-32.85 214.04,-38.51"/>
<text text-anchor="middle" x="186.5" y="-32.8" font-family="Times,serif" font-size="14.00">d:s/6</text>
</g>
</g>
</svg>
