<?xml version="1.0" encoding="UTF-8" standalone="no"?>
<!DOCTYPE svg PUBLIC "-//W3C//DTD SVG 1.1//EN"
 "http://www.w3.org/Graphics/SVG/1.1/DTD/svg11.dtd">
<!-- Generated by graphviz version 6.0.1 (20220911.1526)
 -->
<!-- Title: FST Pages: 1 -->
<svg width="354pt" height="160pt"
 viewBox="0.00 0.00 354.00 160.00" xmlns="http://www.w3.org/2000/svg" xmlns:xlink="http://www.w3.org/1999/xlink">
<g id="graph0" class="graph" transform="scale(1 1) rotate(0) translate(4 156)">
<title>FST</title>
<polygon fill="white" stroke="none" points="-4,4 -4,-156 350,-156 350,4 -4,4"/>
<!-- 0 -->
<g id="node1" class="node">
<title>0</title>
<ellipse fill="none" stroke="black" stroke-width="2" cx="18" cy="-99" rx="18" ry="18"/>
<text text-anchor="middle" x="18" y="-95.3" font-family="Times,serif" font-size="14.00">0</text>
</g>
<!-- 1 -->
<g id="node2" class="node">
<title>1</title>
<ellipse fill="none" stroke="black" cx="124" cy="-128" rx="18" ry="18"/>
<text text-anchor="middle" x="124" y="-124.3" font-family="Times,serif" font-size="14.00">1</text>
</g>
<!-- 0&#45;&gt;1 -->
<g id="edge1" class="edge">
<title>0&#45;&gt;1</title>
<path fill="none" stroke="black" d="M35.71,-103.66C52.16,-108.25 77.53,-115.32 96.69,-120.66"/>
<polygon fill="black" stroke="black" points="95.76,-124.04 106.33,-123.35 97.64,-117.29 95.76,-124.04"/>
<text text-anchor="middle" x="71" y="-121.8" font-family="Times,serif" font-size="14.00">eps:q/3</text>
</g>
<!-- 2 -->
<g id="node3" class="node">
<title>2</title>
<ellipse fill="none" stroke="black" cx="124" cy="-72" rx="18" ry="18"/>
<text text-anchor="middle" x="124" y="-68.3" font-family="Times,serif" font-size="14.00">2</text>
</g>
<!-- 0&#45;&gt;2 -->
<g id="edge2" class="edge">
<title>0&#45;&gt;2</title>
<path fill="none" stroke="black" d="M34.35,-91.42C39.54,-89.09 45.43,-86.7 51,-85 65.48,-80.59 82.08,-77.47 95.68,-75.39"/>
<polygon fill="black" stroke="black" points="96.45,-78.82 105.86,-73.95 95.47,-71.89 96.45,-78.82"/>
<text text-anchor="middle" x="71" y="-88.8" font-family="Times,serif" font-size="14.00">a:eps/1</text>
</g>
<!-- 3 -->
<g id="node4" class="node">
<title>3</title>
<ellipse fill="none" stroke="black" cx="222" cy="-130" rx="18" ry="18"/>
<ellipse fill="none" stroke="black" cx="222" cy="-130" rx="22" ry="22"/>
<text text-anchor="middle" x="222" y="-126.3" font-family="Times,serif" font-size="14.00">3</text>
</g>
<!-- 1&#45;&gt;3 -->
<g id="edge3" class="edge">
<title>1&#45;&gt;3</title>
<path fill="none" stroke="black" d="M142.16,-128.36C155.31,-128.63 173.81,-129.02 189.58,-129.35"/>
<polygon fill="black" stroke="black" points="189.9,-132.85 199.97,-129.56 190.04,-125.85 189.9,-132.85"/>
<text text-anchor="middle" x="171" y="-132.8" font-family="Times,serif" font-size="14.00">c:r/4</text>
</g>
<!-- 4 -->
<g id="node5" class="node">
<title>4</title>
<ellipse fill="none" stroke="black" cx="222" cy="-72" rx="18" ry="18"/>
<text text-anchor="middle" x="222" y="-68.3" font-family="Times,serif" font-size="14.00">4</text>
</g>
<!-- 2&#45;&gt;4 -->
<g id="edge4" class="edge">
<title>2&#45;&gt;4</title>
<path fill="none" stroke="black" d="M142.16,-72C156.5,-72 177.19,-72 193.78,-72"/>
<polygon fill="black" stroke="black" points="193.99,-75.5 203.99,-72 193.99,-68.5 193.99,-75.5"/>
<text text-anchor="middle" x="171" y="-75.8" font-family="Times,serif" font-size="14.00">c:p/4</text>
</g>
<!-- 5 -->
<g id="node6" class="node">
<title>5</title>
<ellipse fill="none" stroke="black" cx="222" cy="-18" rx="18" ry="18"/>
<text text-anchor="middle" x="222" y="-14.3" font-family="Times,serif" font-size="14.00">5</text>
</g>
<!-- 2&#45;&gt;5 -->
<g id="edge5" class="edge">
<title>2&#45;&gt;5</title>
<path fill="none" stroke="black" d="M139.91,-63C145.28,-59.8 151.39,-56.2 157,-53 170.02,-45.58 184.68,-37.54 196.68,-31.04"/>
<polygon fill="black" stroke="black" points="198.52,-34.02 205.66,-26.19 195.19,-27.86 198.52,-34.02"/>
<text text-anchor="middle" x="171" y="-56.8" font-family="Times,serif" font-size="14.00">d:q/7</text>
</g>
<!-- 6 -->
<g id="node7" class="node">
<title>6</title>
<ellipse fill="none" stroke="black" cx="324" cy="-45" rx="18" ry="18"/>
<ellipse fill="none" stroke="black" cx="324" cy="-45" rx="22" ry="22"/>
<text text-anchor="middle" x="324" y="-41.3" font-family="Times,serif" font-size="14.00">6</text>
</g>
<!-- 4&#45;&gt;6 -->
<g id="edge6" class="edge">
<title>4&#45;&gt;6</title>
<path fill="none" stroke="black" d="M239.51,-67.54C253.98,-63.64 275.37,-57.86 292.88,-53.13"/>
<polygon fill="black" stroke="black" points="293.92,-56.48 302.66,-50.49 292.09,-49.72 293.92,-56.48"/>
<text text-anchor="middle" x="273" y="-64.8" font-family="Times,serif" font-size="14.00">eps:r</text>
</g>
<!-- 5&#45;&gt;6 -->
<g id="edge7" class="edge">
<title>5&#45;&gt;6</title>
<path fill="none" stroke="black" d="M239.51,-22.46C253.98,-26.36 275.37,-32.14 292.88,-36.87"/>
<polygon fill="black" stroke="black" points="292.09,-40.28 302.66,-39.51 293.92,-33.52 292.09,-40.28"/>
<text text-anchor="middle" x="273" y="-37.8" font-family="Times,serif" font-size="14.00">eps:s</text>
</g>
</g>
</svg>
