<?xml version="1.0" encoding="UTF-8" standalone="no"?>
<!DOCTYPE svg PUBLIC "-//W3C//DTD SVG 1.1//EN"
 "http://www.w3.org/Graphics/SVG/1.1/DTD/svg11.dtd">
<!-- Generated by graphviz version 2.43.0 (0)
 -->
<!-- Title: FST Pages: 1 -->
<svg width="471pt" height="98pt"
 viewBox="0.00 0.00 471.00 98.00" xmlns="http://www.w3.org/2000/svg" xmlns:xlink="http://www.w3.org/1999/xlink">
<g id="graph0" class="graph" transform="scale(1 1) rotate(0) translate(4 94)">
<title>FST</title>
<polygon fill="white" stroke="transparent" points="-4,4 -4,-94 467,-94 467,4 -4,4"/>
<!-- 0 -->
<g id="node1" class="node">
<title>0</title>
<ellipse fill="none" stroke="black" stroke-width="2" cx="18" cy="-45" rx="18" ry="18"/>
<text text-anchor="middle" x="18" y="-41.3" font-family="Times,serif" font-size="14.00">0</text>
</g>
<!-- 5 -->
<g id="node2" class="node">
<title>5</title>
<ellipse fill="none" stroke="black" cx="139" cy="-45" rx="18" ry="18"/>
<text text-anchor="middle" x="139" y="-41.3" font-family="Times,serif" font-size="14.00">5</text>
</g>
<!-- 0&#45;&gt;5 -->
<g id="edge1" class="edge">
<title>0&#45;&gt;5</title>
<path fill="none" stroke="black" d="M36.05,-45C55.58,-45 87.84,-45 110.84,-45"/>
<polygon fill="black" stroke="black" points="110.98,-48.5 120.98,-45 110.98,-41.5 110.98,-48.5"/>
<text text-anchor="middle" x="78.5" y="-48.8" font-family="Times,serif" font-size="14.00">eps:eps</text>
</g>
<!-- 3 -->
<g id="node5" class="node">
<title>3</title>
<ellipse fill="none" stroke="black" cx="260" cy="-72" rx="18" ry="18"/>
<text text-anchor="middle" x="260" y="-68.3" font-family="Times,serif" font-size="14.00">3</text>
</g>
<!-- 5&#45;&gt;3 -->
<g id="edge5" class="edge">
<title>5&#45;&gt;3</title>
<path fill="none" stroke="black" d="M156.8,-48.81C176.47,-53.27 209.29,-60.72 232.42,-65.97"/>
<polygon fill="black" stroke="black" points="231.76,-69.41 242.29,-68.21 233.31,-62.58 231.76,-69.41"/>
<text text-anchor="middle" x="199.5" y="-67.8" font-family="Times,serif" font-size="14.00">eps:eps</text>
</g>
<!-- 4 -->
<g id="node6" class="node">
<title>4</title>
<ellipse fill="none" stroke="black" cx="260" cy="-18" rx="18" ry="18"/>
<text text-anchor="middle" x="260" y="-14.3" font-family="Times,serif" font-size="14.00">4</text>
</g>
<!-- 5&#45;&gt;4 -->
<g id="edge6" class="edge">
<title>5&#45;&gt;4</title>
<path fill="none" stroke="black" d="M155.76,-38.42C160.87,-36.47 166.62,-34.46 172,-33 191.72,-27.65 214.5,-23.81 231.8,-21.35"/>
<polygon fill="black" stroke="black" points="232.35,-24.81 241.79,-20 231.41,-17.87 232.35,-24.81"/>
<text text-anchor="middle" x="199.5" y="-36.8" font-family="Times,serif" font-size="14.00">eps:eps</text>
</g>
<!-- 1 -->
<g id="node3" class="node">
<title>1</title>
<ellipse fill="none" stroke="black" cx="441" cy="-45" rx="18" ry="18"/>
<ellipse fill="none" stroke="black" cx="441" cy="-45" rx="22" ry="22"/>
<text text-anchor="middle" x="441" y="-41.3" font-family="Times,serif" font-size="14.00">1</text>
</g>
<!-- 2 -->
<g id="node4" class="node">
<title>2</title>
<ellipse fill="none" stroke="black" cx="349" cy="-45" rx="18" ry="18"/>
<text text-anchor="middle" x="349" y="-41.3" font-family="Times,serif" font-size="14.00">2</text>
</g>
<!-- 2&#45;&gt;1 -->
<g id="edge2" class="edge">
<title>2&#45;&gt;1</title>
<path fill="none" stroke="black" d="M367.35,-45C379.08,-45 394.89,-45 408.76,-45"/>
<polygon fill="black" stroke="black" points="408.9,-48.5 418.9,-45 408.9,-41.5 408.9,-48.5"/>
<text text-anchor="middle" x="393" y="-48.8" font-family="Times,serif" font-size="14.00">a:a</text>
</g>
<!-- 3&#45;&gt;2 -->
<g id="edge3" class="edge">
<title>3&#45;&gt;2</title>
<path fill="none" stroke="black" d="M277.36,-66.92C289.88,-63.04 307.39,-57.6 321.84,-53.12"/>
<polygon fill="black" stroke="black" points="323.2,-56.36 331.71,-50.06 321.12,-49.68 323.2,-56.36"/>
<text text-anchor="middle" x="304.5" y="-64.8" font-family="Times,serif" font-size="14.00">b:b</text>
</g>
<!-- 4&#45;&gt;2 -->
<g id="edge4" class="edge">
<title>4&#45;&gt;2</title>
<path fill="none" stroke="black" d="M277.36,-23.08C289.88,-26.96 307.39,-32.4 321.84,-36.88"/>
<polygon fill="black" stroke="black" points="321.12,-40.32 331.71,-39.94 323.2,-33.64 321.12,-40.32"/>
<text text-anchor="middle" x="304.5" y="-37.8" font-family="Times,serif" font-size="14.00">c:c</text>
</g>
</g>
</svg>
