<?xml version="1.0" encoding="UTF-8" standalone="no"?>
<!DOCTYPE svg PUBLIC "-//W3C//DTD SVG 1.1//EN"
 "http://www.w3.org/Graphics/SVG/1.1/DTD/svg11.dtd">
<!-- Generated by graphviz version 7.0.4 (20221203.1631)
 -->
<!-- Title: FST Pages: 1 -->
<svg width="430pt" height="98pt"
 viewBox="0.00 0.00 430.00 98.00" xmlns="http://www.w3.org/2000/svg" xmlns:xlink="http://www.w3.org/1999/xlink">
<g id="graph0" class="graph" transform="scale(1 1) rotate(0) translate(4 94)">
<title>FST</title>
<polygon fill="white" stroke="none" points="-4,4 -4,-94 426,-94 426,4 -4,4"/>
<!-- 0 -->
<g id="node1" class="node">
<title>0</title>
<ellipse fill="none" stroke="black" stroke-width="2" cx="18" cy="-45" rx="18" ry="18"/>
<text text-anchor="middle" x="18" y="-41.3" font-family="Times,serif" font-size="14.00">0</text>
</g>
<!-- 5 -->
<g id="node2" class="node">
<title>5</title>
<ellipse fill="none" stroke="black" cx="124" cy="-45" rx="18" ry="18"/>
<text text-anchor="middle" x="124" y="-41.3" font-family="Times,serif" font-size="14.00">5</text>
</g>
<!-- 0&#45;&gt;5 -->
<g id="edge1" class="edge">
<title>0&#45;&gt;5</title>
<path fill="none" stroke="black" d="M36.17,-45C51.98,-45 75.73,-45 94.4,-45"/>
<polygon fill="black" stroke="black" points="94.29,-48.5 104.29,-45 94.29,-41.5 94.29,-48.5"/>
<text text-anchor="middle" x="71" y="-48.8" font-family="Times,serif" font-size="14.00">eps:eps</text>
</g>
<!-- 3 -->
<g id="node5" class="node">
<title>3</title>
<ellipse fill="none" stroke="black" cx="230" cy="-72" rx="18" ry="18"/>
<text text-anchor="middle" x="230" y="-68.3" font-family="Times,serif" font-size="14.00">3</text>
</g>
<!-- 5&#45;&gt;3 -->
<g id="edge5" class="edge">
<title>5&#45;&gt;3</title>
<path fill="none" stroke="black" d="M141.71,-49.34C157.78,-53.51 182.37,-59.89 201.36,-64.82"/>
<polygon fill="black" stroke="black" points="200.31,-68.17 210.87,-67.29 202.07,-61.39 200.31,-68.17"/>
<text text-anchor="middle" x="177" y="-66.8" font-family="Times,serif" font-size="14.00">eps:eps</text>
</g>
<!-- 4 -->
<g id="node6" class="node">
<title>4</title>
<ellipse fill="none" stroke="black" cx="230" cy="-18" rx="18" ry="18"/>
<text text-anchor="middle" x="230" y="-14.3" font-family="Times,serif" font-size="14.00">4</text>
</g>
<!-- 5&#45;&gt;4 -->
<g id="edge6" class="edge">
<title>5&#45;&gt;4</title>
<path fill="none" stroke="black" d="M141.17,-39.05C146.2,-37.3 151.8,-35.47 157,-34 171.39,-29.94 187.64,-26.26 201.05,-23.45"/>
<polygon fill="black" stroke="black" points="201.41,-26.95 210.51,-21.52 200.01,-20.09 201.41,-26.95"/>
<text text-anchor="middle" x="177" y="-37.8" font-family="Times,serif" font-size="14.00">eps:eps</text>
</g>
<!-- 1 -->
<g id="node3" class="node">
<title>1</title>
<ellipse fill="none" stroke="black" cx="400" cy="-45" rx="18" ry="18"/>
<ellipse fill="none" stroke="black" cx="400" cy="-45" rx="22" ry="22"/>
<text text-anchor="middle" x="400" y="-41.3" font-family="Times,serif" font-size="14.00">1</text>
</g>
<!-- 2 -->
<g id="node4" class="node">
<title>2</title>
<ellipse fill="none" stroke="black" cx="314" cy="-45" rx="18" ry="18"/>
<text text-anchor="middle" x="314" y="-41.3" font-family="Times,serif" font-size="14.00">2</text>
</g>
<!-- 2&#45;&gt;1 -->
<g id="edge2" class="edge">
<title>2&#45;&gt;1</title>
<path fill="none" stroke="black" d="M332.4,-45C342.28,-45 354.96,-45 366.59,-45"/>
<polygon fill="black" stroke="black" points="366.23,-48.5 376.23,-45 366.23,-41.5 366.23,-48.5"/>
<text text-anchor="middle" x="355" y="-48.8" font-family="Times,serif" font-size="14.00">a:a</text>
</g>
<!-- 3&#45;&gt;2 -->
<g id="edge3" class="edge">
<title>3&#45;&gt;2</title>
<path fill="none" stroke="black" d="M247.59,-66.54C258.49,-62.95 272.99,-58.17 285.57,-54.03"/>
<polygon fill="black" stroke="black" points="286.59,-57.38 294.99,-50.93 284.4,-50.73 286.59,-57.38"/>
<text text-anchor="middle" x="272" y="-63.8" font-family="Times,serif" font-size="14.00">b:b</text>
</g>
<!-- 4&#45;&gt;2 -->
<g id="edge4" class="edge">
<title>4&#45;&gt;2</title>
<path fill="none" stroke="black" d="M247.59,-23.46C258.49,-27.05 272.99,-31.83 285.57,-35.97"/>
<polygon fill="black" stroke="black" points="284.4,-39.27 294.99,-39.07 286.59,-32.62 284.4,-39.27"/>
<text text-anchor="middle" x="272" y="-36.8" font-family="Times,serif" font-size="14.00">c:c</text>
</g>
</g>
</svg>
