<?xml version="1.0" encoding="UTF-8" standalone="no"?>
<!DOCTYPE svg PUBLIC "-//W3C//DTD SVG 1.1//EN"
 "http://www.w3.org/Graphics/SVG/1.1/DTD/svg11.dtd">
<!-- Generated by graphviz version 6.0.1 (20220911.1526)
 -->
<!-- Title: FST Pages: 1 -->
<svg width="244pt" height="156pt"
 viewBox="0.00 0.00 244.00 156.00" xmlns="http://www.w3.org/2000/svg" xmlns:xlink="http://www.w3.org/1999/xlink">
<g id="graph0" class="graph" transform="scale(1 1) rotate(0) translate(4 152)">
<title>FST</title>
<polygon fill="white" stroke="none" points="-4,4 -4,-152 240,-152 240,4 -4,4"/>
<!-- 0 -->
<g id="node1" class="node">
<title>0</title>
<ellipse fill="none" stroke="black" stroke-width="2" cx="18" cy="-75" rx="18" ry="18"/>
<text text-anchor="middle" x="18" y="-71.3" font-family="Times,serif" font-size="14.00">0</text>
</g>
<!-- 1 -->
<g id="node2" class="node">
<title>1</title>
<ellipse fill="none" stroke="black" cx="118" cy="-113" rx="18" ry="18"/>
<text text-anchor="middle" x="118" y="-109.3" font-family="Times,serif" font-size="14.00">1</text>
</g>
<!-- 0&#45;&gt;1 -->
<g id="edge1" class="edge">
<title>0&#45;&gt;1</title>
<path fill="none" stroke="black" d="M23.99,-91.98C28.71,-104.67 37.18,-121.12 51,-129 63.9,-136.35 80.07,-132.6 93.18,-126.89"/>
<polygon fill="black" stroke="black" points="95.08,-129.86 102.5,-122.29 91.99,-123.58 95.08,-129.86"/>
<text text-anchor="middle" x="68" y="-136.8" font-family="Times,serif" font-size="14.00">a:a/5</text>
</g>
<!-- 0&#45;&gt;1 -->
<g id="edge2" class="edge">
<title>0&#45;&gt;1</title>
<path fill="none" stroke="black" d="M34.1,-83.1C39.37,-85.78 45.38,-88.67 51,-91 63.9,-96.34 78.61,-101.35 90.87,-105.23"/>
<polygon fill="black" stroke="black" points="89.9,-108.6 100.49,-108.21 91.97,-101.91 89.9,-108.6"/>
<text text-anchor="middle" x="68" y="-106.8" font-family="Times,serif" font-size="14.00">b:a/5</text>
</g>
<!-- 0&#45;&gt;1 -->
<g id="edge3" class="edge">
<title>0&#45;&gt;1</title>
<path fill="none" stroke="black" d="M35.35,-70.07C49.27,-66.81 69.43,-64.4 85,-72 92.53,-75.68 98.81,-82.08 103.75,-88.74"/>
<polygon fill="black" stroke="black" points="100.86,-90.72 109.29,-97.14 106.71,-86.87 100.86,-90.72"/>
<text text-anchor="middle" x="68" y="-75.8" font-family="Times,serif" font-size="14.00">c:a/6</text>
</g>
<!-- 2 -->
<g id="node3" class="node">
<title>2</title>
<ellipse fill="none" stroke="black" cx="118" cy="-18" rx="18" ry="18"/>
<text text-anchor="middle" x="118" y="-14.3" font-family="Times,serif" font-size="14.00">2</text>
</g>
<!-- 0&#45;&gt;2 -->
<g id="edge4" class="edge">
<title>0&#45;&gt;2</title>
<path fill="none" stroke="black" d="M31.36,-62.6C37.03,-57.35 44.02,-51.44 51,-47 63.58,-39 78.75,-32.16 91.37,-27.14"/>
<polygon fill="black" stroke="black" points="92.76,-30.36 100.85,-23.52 90.26,-23.82 92.76,-30.36"/>
<text text-anchor="middle" x="68" y="-50.8" font-family="Times,serif" font-size="14.00">d:a/10</text>
</g>
<!-- 0&#45;&gt;2 -->
<g id="edge5" class="edge">
<title>0&#45;&gt;2</title>
<path fill="none" stroke="black" d="M22.44,-57.41C26.45,-42.17 34.73,-21.06 51,-11 62.91,-3.64 78.38,-4.84 91.36,-8.14"/>
<polygon fill="black" stroke="black" points="90.52,-11.54 101.11,-11.11 92.56,-4.85 90.52,-11.54"/>
<text text-anchor="middle" x="68" y="-14.8" font-family="Times,serif" font-size="14.00">f:a/8</text>
</g>
<!-- 3 -->
<g id="node4" class="node">
<title>3</title>
<ellipse fill="none" stroke="black" cx="214" cy="-75" rx="18" ry="18"/>
<ellipse fill="none" stroke="black" cx="214" cy="-75" rx="22" ry="22"/>
<text text-anchor="middle" x="214" y="-71.3" font-family="Times,serif" font-size="14.00">3</text>
</g>
<!-- 1&#45;&gt;3 -->
<g id="edge6" class="edge">
<title>1&#45;&gt;3</title>
<path fill="none" stroke="black" d="M135.96,-115.19C147.93,-116.01 164.06,-115.65 177,-110 182.63,-107.54 187.89,-103.79 192.55,-99.63"/>
<polygon fill="black" stroke="black" points="195.18,-101.96 199.8,-92.42 190.24,-96.99 195.18,-101.96"/>
<text text-anchor="middle" x="164" y="-118.8" font-family="Times,serif" font-size="14.00">f:b/1</text>
</g>
<!-- 1&#45;&gt;3 -->
<g id="edge7" class="edge">
<title>1&#45;&gt;3</title>
<path fill="none" stroke="black" d="M132.7,-102.02C138.14,-98.08 144.62,-93.91 151,-91 160.79,-86.54 172.03,-83.17 182.24,-80.7"/>
<polygon fill="black" stroke="black" points="183,-84.11 192,-78.52 181.48,-77.28 183,-84.11"/>
<text text-anchor="middle" x="164" y="-94.8" font-family="Times,serif" font-size="14.00">g:b</text>
</g>
<!-- 2&#45;&gt;3 -->
<g id="edge8" class="edge">
<title>2&#45;&gt;3</title>
<path fill="none" stroke="black" d="M133.69,-26.91C147.63,-35.36 168.92,-48.27 185.94,-58.59"/>
<polygon fill="black" stroke="black" points="184.51,-61.82 194.88,-64.01 188.14,-55.83 184.51,-61.82"/>
<text text-anchor="middle" x="164" y="-54.8" font-family="Times,serif" font-size="14.00">f:c/1</text>
</g>
<!-- 2&#45;&gt;3 -->
<g id="edge9" class="edge">
<title>2&#45;&gt;3</title>
<path fill="none" stroke="black" d="M135.83,-14.28C148.03,-12.49 164.51,-12.04 177,-19 187.44,-24.81 195.31,-35.06 201,-45.22"/>
<polygon fill="black" stroke="black" points="197.99,-47.03 205.61,-54.38 204.24,-43.88 197.99,-47.03"/>
<text text-anchor="middle" x="164" y="-22.8" font-family="Times,serif" font-size="14.00">g:c</text>
</g>
</g>
</svg>
