<?xml version="1.0" encoding="UTF-8" standalone="no"?>
<!DOCTYPE svg PUBLIC "-//W3C//DTD SVG 1.1//EN"
 "http://www.w3.org/Graphics/SVG/1.1/DTD/svg11.dtd">
<!-- Generated by graphviz version 7.0.4 (20221203.1631)
 -->
<!-- Title: FST Pages: 1 -->
<svg width="287pt" height="73pt"
 viewBox="0.00 0.00 287.19 73.19" xmlns="http://www.w3.org/2000/svg" xmlns:xlink="http://www.w3.org/1999/xlink">
<g id="graph0" class="graph" transform="scale(1 1) rotate(0) translate(4 69.19)">
<title>FST</title>
<polygon fill="white" stroke="none" points="-4,4 -4,-69.19 283.19,-69.19 283.19,4 -4,4"/>
<!-- 0 -->
<g id="node1" class="node">
<title>0</title>
<ellipse fill="none" stroke="black" stroke-width="2" cx="18" cy="-32.6" rx="18" ry="18"/>
<text text-anchor="middle" x="18" y="-28.9" font-family="Times,serif" font-size="14.00">0</text>
</g>
<!-- 1 -->
<g id="node2" class="node">
<title>1</title>
<ellipse fill="none" stroke="black" cx="125" cy="-32.6" rx="18" ry="18"/>
<text text-anchor="middle" x="125" y="-28.9" font-family="Times,serif" font-size="14.00">1</text>
</g>
<!-- 0&#45;&gt;1 -->
<g id="edge1" class="edge">
<title>0&#45;&gt;1</title>
<path fill="none" stroke="black" d="M36.34,-32.6C52.3,-32.6 76.28,-32.6 95.13,-32.6"/>
<polygon fill="black" stroke="black" points="95.12,-36.1 105.12,-32.6 95.12,-29.1 95.12,-36.1"/>
<text text-anchor="middle" x="71.5" y="-36.4" font-family="Times,serif" font-size="14.00">a:A/1.5</text>
</g>
<!-- 2 -->
<g id="node3" class="node">
<title>2</title>
<ellipse fill="none" stroke="black" cx="246.6" cy="-32.6" rx="28.68" ry="28.68"/>
<ellipse fill="none" stroke="black" cx="246.6" cy="-32.6" rx="32.7" ry="32.7"/>
<text text-anchor="middle" x="246.6" y="-28.9" font-family="Times,serif" font-size="14.00">2/0.3</text>
</g>
<!-- 1&#45;&gt;2 -->
<g id="edge2" class="edge">
<title>1&#45;&gt;2</title>
<path fill="none" stroke="black" d="M143.39,-32.6C158.84,-32.6 182.08,-32.6 202.49,-32.6"/>
<polygon fill="black" stroke="black" points="202.28,-36.1 212.28,-32.6 202.28,-29.1 202.28,-36.1"/>
<text text-anchor="middle" x="178.5" y="-36.4" font-family="Times,serif" font-size="14.00">b:B/2.5</text>
</g>
</g>
</svg>
