<?xml version="1.0" encoding="UTF-8" standalone="no"?>
<!DOCTYPE svg PUBLIC "-//W3C//DTD SVG 1.1//EN"
 "http://www.w3.org/Graphics/SVG/1.1/DTD/svg11.dtd">
<!-- Generated by graphviz version 7.0.0 (20221023.0053)
 -->
<!-- Title: FST Pages: 1 -->
<svg width="353pt" height="147pt"
 viewBox="0.00 0.00 353.00 147.00" xmlns="http://www.w3.org/2000/svg" xmlns:xlink="http://www.w3.org/1999/xlink">
<g id="graph0" class="graph" transform="scale(1 1) rotate(0) translate(4 143)">
<title>FST</title>
<polygon fill="white" stroke="none" points="-4,4 -4,-143 349,-143 349,4 -4,4"/>
<!-- 0 -->
<g id="node1" class="node">
<title>0</title>
<ellipse fill="none" stroke="black" stroke-width="2" cx="18" cy="-39" rx="18" ry="18"/>
<text text-anchor="middle" x="18" y="-35.3" font-family="Times,serif" font-size="14.00">0</text>
</g>
<!-- 1 -->
<g id="node2" class="node">
<title>1</title>
<ellipse fill="none" stroke="black" cx="123" cy="-67" rx="18" ry="18"/>
<text text-anchor="middle" x="123" y="-63.3" font-family="Times,serif" font-size="14.00">1</text>
</g>
<!-- 0&#45;&gt;1 -->
<g id="edge1" class="edge">
<title>0&#45;&gt;1</title>
<path fill="none" stroke="black" d="M35.55,-43.5C51.37,-47.8 75.53,-54.37 94.29,-59.47"/>
<polygon fill="black" stroke="black" points="93.12,-62.78 103.69,-62.02 94.96,-56.02 93.12,-62.78"/>
<text text-anchor="middle" x="70.5" y="-60.8" font-family="Times,serif" font-size="14.00">a:eps/1</text>
</g>
<!-- 3 -->
<g id="node3" class="node">
<title>3</title>
<ellipse fill="none" stroke="black" cx="174" cy="-18" rx="18" ry="18"/>
<text text-anchor="middle" x="174" y="-14.3" font-family="Times,serif" font-size="14.00">3</text>
</g>
<!-- 0&#45;&gt;3 -->
<g id="edge2" class="edge">
<title>0&#45;&gt;3</title>
<path fill="none" stroke="black" d="M35.43,-33.13C40.38,-31.56 45.86,-30.02 51,-29 82.58,-22.72 119.49,-20.02 144.37,-18.86"/>
<polygon fill="black" stroke="black" points="144.5,-22.36 154.35,-18.46 144.22,-15.36 144.5,-22.36"/>
<text text-anchor="middle" x="70.5" y="-32.8" font-family="Times,serif" font-size="14.00">c:q/7</text>
</g>
<!-- 4 -->
<g id="node4" class="node">
<title>4</title>
<ellipse fill="none" stroke="black" cx="225" cy="-121" rx="18" ry="18"/>
<text text-anchor="middle" x="225" y="-117.3" font-family="Times,serif" font-size="14.00">4</text>
</g>
<!-- 1&#45;&gt;4 -->
<g id="edge3" class="edge">
<title>1&#45;&gt;4</title>
<path fill="none" stroke="black" d="M138.87,-76.08C144.23,-79.29 150.35,-82.87 156,-86 169.89,-93.69 185.63,-101.83 198.47,-108.32"/>
<polygon fill="black" stroke="black" points="196.61,-111.3 207.11,-112.66 199.75,-105.04 196.61,-111.3"/>
<text text-anchor="middle" x="174" y="-107.8" font-family="Times,serif" font-size="14.00">c:p/4</text>
</g>
<!-- 5 -->
<g id="node5" class="node">
<title>5</title>
<ellipse fill="none" stroke="black" cx="225" cy="-67" rx="18" ry="18"/>
<text text-anchor="middle" x="225" y="-63.3" font-family="Times,serif" font-size="14.00">5</text>
</g>
<!-- 1&#45;&gt;5 -->
<g id="edge4" class="edge">
<title>1&#45;&gt;5</title>
<path fill="none" stroke="black" d="M141.42,-67C156.26,-67 177.88,-67 195.28,-67"/>
<polygon fill="black" stroke="black" points="195.27,-70.5 205.27,-67 195.27,-63.5 195.27,-70.5"/>
<text text-anchor="middle" x="174" y="-70.8" font-family="Times,serif" font-size="14.00">d:q/7</text>
</g>
<!-- 2 -->
<g id="node6" class="node">
<title>2</title>
<ellipse fill="none" stroke="black" cx="323" cy="-67" rx="18" ry="18"/>
<ellipse fill="none" stroke="black" cx="323" cy="-67" rx="22" ry="22"/>
<text text-anchor="middle" x="323" y="-63.3" font-family="Times,serif" font-size="14.00">2</text>
</g>
<!-- 3&#45;&gt;2 -->
<g id="edge5" class="edge">
<title>3&#45;&gt;2</title>
<path fill="none" stroke="black" d="M192.41,-17.96C206.37,-18.36 226.31,-19.92 243,-25 261.23,-30.55 280.13,-40.43 294.87,-49.21"/>
<polygon fill="black" stroke="black" points="292.72,-51.99 303.07,-54.25 296.39,-46.03 292.72,-51.99"/>
<text text-anchor="middle" x="225" y="-28.8" font-family="Times,serif" font-size="14.00">eps:r</text>
</g>
<!-- 4&#45;&gt;2 -->
<g id="edge6" class="edge">
<title>4&#45;&gt;2</title>
<path fill="none" stroke="black" d="M241,-112.56C255.11,-104.63 276.58,-92.55 293.88,-82.82"/>
<polygon fill="black" stroke="black" points="295.17,-86.11 302.17,-78.15 291.74,-80.01 295.17,-86.11"/>
<text text-anchor="middle" x="272" y="-104.8" font-family="Times,serif" font-size="14.00">eps:r</text>
</g>
<!-- 5&#45;&gt;2 -->
<g id="edge7" class="edge">
<title>5&#45;&gt;2</title>
<path fill="none" stroke="black" d="M243.16,-67C255.97,-67 273.86,-67 289.36,-67"/>
<polygon fill="black" stroke="black" points="289.1,-70.5 299.1,-67 289.1,-63.5 289.1,-70.5"/>
<text text-anchor="middle" x="272" y="-70.8" font-family="Times,serif" font-size="14.00">eps:s</text>
</g>
</g>
</svg>
