<?xml version="1.0" encoding="UTF-8" standalone="no"?>
<!DOCTYPE svg PUBLIC "-//W3C//DTD SVG 1.1//EN"
 "http://www.w3.org/Graphics/SVG/1.1/DTD/svg11.dtd">
<!-- Generated by graphviz version 8.1.0 (20230707.0739)
 -->
<!-- Title: FST Pages: 1 -->
<svg width="352pt" height="160pt"
 viewBox="0.00 0.00 351.75 160.00" xmlns="http://www.w3.org/2000/svg" xmlns:xlink="http://www.w3.org/1999/xlink">
<g id="graph0" class="graph" transform="scale(1 1) rotate(0) translate(4 156)">
<title>FST</title>
<polygon fill="white" stroke="none" points="-4,4 -4,-156 347.75,-156 347.75,4 -4,4"/>
<!-- 0 -->
<g id="node1" class="node">
<title>0</title>
<ellipse fill="none" stroke="black" stroke-width="2" cx="18" cy="-99" rx="18" ry="18"/>
<text text-anchor="middle" x="18" y="-93.95" font-family="Times,serif" font-size="14.00">0</text>
</g>
<!-- 1 -->
<g id="node2" class="node">
<title>1</title>
<ellipse fill="none" stroke="black" cx="123" cy="-128" rx="18" ry="18"/>
<text text-anchor="middle" x="123" y="-122.95" font-family="Times,serif" font-size="14.00">1</text>
</g>
<!-- 0&#45;&gt;1 -->
<g id="edge1" class="edge">
<title>0&#45;&gt;1</title>
<path fill="none" stroke="black" d="M35.55,-103.66C51.52,-108.16 75.99,-115.04 94.82,-120.35"/>
<polygon fill="black" stroke="black" points="93.58,-123.91 104.15,-123.26 95.47,-117.18 93.58,-123.91"/>
<text text-anchor="middle" x="70.5" y="-121.2" font-family="Times,serif" font-size="14.00">eps:q/3</text>
</g>
<!-- 2 -->
<g id="node3" class="node">
<title>2</title>
<ellipse fill="none" stroke="black" cx="123" cy="-72" rx="18" ry="18"/>
<text text-anchor="middle" x="123" y="-66.95" font-family="Times,serif" font-size="14.00">2</text>
</g>
<!-- 0&#45;&gt;2 -->
<g id="edge2" class="edge">
<title>0&#45;&gt;2</title>
<path fill="none" stroke="black" d="M34.25,-90.5C39.44,-87.91 45.35,-85.28 51,-83.5 64.81,-79.14 80.69,-76.37 93.92,-74.64"/>
<polygon fill="black" stroke="black" points="94.22,-78.01 103.75,-73.38 93.41,-71.06 94.22,-78.01"/>
<text text-anchor="middle" x="70.5" y="-86.2" font-family="Times,serif" font-size="14.00">a:eps/1</text>
</g>
<!-- 3 -->
<g id="node4" class="node">
<title>3</title>
<ellipse fill="none" stroke="black" cx="220.75" cy="-130" rx="18" ry="18"/>
<ellipse fill="none" stroke="black" cx="220.75" cy="-130" rx="22" ry="22"/>
<text text-anchor="middle" x="220.75" y="-124.95" font-family="Times,serif" font-size="14.00">3</text>
</g>
<!-- 1&#45;&gt;3 -->
<g id="edge3" class="edge">
<title>1&#45;&gt;3</title>
<path fill="none" stroke="black" d="M141.12,-128.36C154.02,-128.63 172.08,-129 187.64,-129.33"/>
<polygon fill="black" stroke="black" points="187.35,-132.84 197.42,-129.55 187.5,-125.85 187.35,-132.84"/>
<text text-anchor="middle" x="169.88" y="-132.2" font-family="Times,serif" font-size="14.00">c:r/4</text>
</g>
<!-- 4 -->
<g id="node5" class="node">
<title>4</title>
<ellipse fill="none" stroke="black" cx="220.75" cy="-72" rx="18" ry="18"/>
<text text-anchor="middle" x="220.75" y="-66.95" font-family="Times,serif" font-size="14.00">4</text>
</g>
<!-- 2&#45;&gt;4 -->
<g id="edge4" class="edge">
<title>2&#45;&gt;4</title>
<path fill="none" stroke="black" d="M141.12,-72C155.19,-72 175.41,-72 191.83,-72"/>
<polygon fill="black" stroke="black" points="191.46,-75.5 201.46,-72 191.46,-68.5 191.46,-75.5"/>
<text text-anchor="middle" x="169.88" y="-75.2" font-family="Times,serif" font-size="14.00">c:p/4</text>
</g>
<!-- 5 -->
<g id="node6" class="node">
<title>5</title>
<ellipse fill="none" stroke="black" cx="220.75" cy="-18" rx="18" ry="18"/>
<text text-anchor="middle" x="220.75" y="-12.95" font-family="Times,serif" font-size="14.00">5</text>
</g>
<!-- 2&#45;&gt;5 -->
<g id="edge5" class="edge">
<title>2&#45;&gt;5</title>
<path fill="none" stroke="black" d="M138.49,-62.34C143.92,-58.83 150.18,-54.88 156,-51.5 168.46,-44.26 182.62,-36.75 194.42,-30.68"/>
<polygon fill="black" stroke="black" points="195.76,-33.41 203.09,-25.76 192.59,-27.17 195.76,-33.41"/>
<text text-anchor="middle" x="169.88" y="-55.2" font-family="Times,serif" font-size="14.00">d:q/7</text>
</g>
<!-- 6 -->
<g id="node7" class="node">
<title>6</title>
<ellipse fill="none" stroke="black" cx="321.75" cy="-45" rx="18" ry="18"/>
<ellipse fill="none" stroke="black" cx="321.75" cy="-45" rx="22" ry="22"/>
<text text-anchor="middle" x="321.75" y="-39.95" font-family="Times,serif" font-size="14.00">6</text>
</g>
<!-- 4&#45;&gt;6 -->
<g id="edge6" class="edge">
<title>4&#45;&gt;6</title>
<path fill="none" stroke="black" d="M238.54,-67.42C252.48,-63.62 272.68,-58.11 289.57,-53.5"/>
<polygon fill="black" stroke="black" points="290.36,-56.64 299.09,-50.63 288.52,-49.89 290.36,-56.64"/>
<text text-anchor="middle" x="271.25" y="-64.2" font-family="Times,serif" font-size="14.00">eps:r</text>
</g>
<!-- 5&#45;&gt;6 -->
<g id="edge7" class="edge">
<title>5&#45;&gt;6</title>
<path fill="none" stroke="black" d="M238.54,-22.58C252.48,-26.38 272.68,-31.89 289.57,-36.5"/>
<polygon fill="black" stroke="black" points="288.52,-40.11 299.09,-39.37 290.36,-33.36 288.52,-40.11"/>
<text text-anchor="middle" x="271.25" y="-38.2" font-family="Times,serif" font-size="14.00">eps:s</text>
</g>
</g>
</svg>
