<?xml version="1.0" encoding="UTF-8" standalone="no"?>
<!DOCTYPE svg PUBLIC "-//W3C//DTD SVG 1.1//EN"
 "http://www.w3.org/Graphics/SVG/1.1/DTD/svg11.dtd">
<!-- Generated by graphviz version 2.43.0 (0)
 -->
<!-- Title: FST Pages: 1 -->
<svg width="230pt" height="121pt"
 viewBox="0.00 0.00 230.00 120.63" xmlns="http://www.w3.org/2000/svg" xmlns:xlink="http://www.w3.org/1999/xlink">
<g id="graph0" class="graph" transform="scale(1 1) rotate(0) translate(4 116.63)">
<title>FST</title>
<polygon fill="white" stroke="transparent" points="-4,4 -4,-116.63 226,-116.63 226,4 -4,4"/>
<!-- 0 -->
<g id="node1" class="node">
<title>0</title>
<ellipse fill="none" stroke="black" stroke-width="2" cx="18" cy="-40.63" rx="18" ry="18"/>
<text text-anchor="middle" x="18" y="-36.93" font-family="Times,serif" font-size="14.00">0</text>
</g>
<!-- 1 -->
<g id="node2" class="node">
<title>1</title>
<ellipse fill="none" stroke="black" cx="107" cy="-78.63" rx="18" ry="18"/>
<text text-anchor="middle" x="107" y="-74.93" font-family="Times,serif" font-size="14.00">1</text>
</g>
<!-- 0&#45;&gt;1 -->
<g id="edge1" class="edge">
<title>0&#45;&gt;1</title>
<path fill="none" stroke="black" d="M23.99,-57.61C28.71,-70.29 37.18,-86.75 51,-94.63 60.69,-100.15 72.45,-97.76 82.6,-93.33"/>
<polygon fill="black" stroke="black" points="84.42,-96.33 91.72,-88.66 81.23,-90.11 84.42,-96.33"/>
<text text-anchor="middle" x="62.5" y="-101.43" font-family="Times,serif" font-size="14.00">1:4</text>
</g>
<!-- 0&#45;&gt;1 -->
<g id="edge2" class="edge">
<title>0&#45;&gt;1</title>
<path fill="none" stroke="black" d="M34.18,-48.54C39.46,-51.2 45.45,-54.13 51,-56.63 60.51,-60.9 71.11,-65.23 80.44,-68.91"/>
<polygon fill="black" stroke="black" points="79.38,-72.26 89.97,-72.62 81.92,-65.73 79.38,-72.26"/>
<text text-anchor="middle" x="62.5" y="-69.43" font-family="Times,serif" font-size="14.00">3:5</text>
</g>
<!-- 0&#45;&gt;1 -->
<g id="edge3" class="edge">
<title>0&#45;&gt;1</title>
<path fill="none" stroke="black" d="M35.72,-35.61C47.08,-33.16 62.14,-31.84 74,-37.63 81.53,-41.3 87.81,-47.7 92.75,-54.37"/>
<polygon fill="black" stroke="black" points="89.86,-56.35 98.29,-62.77 95.71,-52.49 89.86,-56.35"/>
<text text-anchor="middle" x="62.5" y="-41.43" font-family="Times,serif" font-size="14.00">2:3</text>
</g>
<!-- 2 -->
<g id="node3" class="node">
<title>2</title>
<ellipse fill="none" stroke="black" cx="200" cy="-40.63" rx="18" ry="18"/>
<ellipse fill="none" stroke="black" cx="200" cy="-40.63" rx="22" ry="22"/>
<text text-anchor="middle" x="200" y="-36.93" font-family="Times,serif" font-size="14.00">2</text>
</g>
<!-- 0&#45;&gt;2 -->
<g id="edge4" class="edge">
<title>0&#45;&gt;2</title>
<path fill="none" stroke="black" d="M34.63,-33.49C39.74,-31.5 45.51,-29.62 51,-28.63 99.98,-19.75 113.86,-20.65 163,-28.63 165.08,-28.96 167.21,-29.41 169.33,-29.92"/>
<polygon fill="black" stroke="black" points="168.53,-33.33 179.1,-32.73 170.46,-26.6 168.53,-33.33"/>
<text text-anchor="middle" x="107" y="-26.43" font-family="Times,serif" font-size="14.00">5:2</text>
</g>
<!-- 0&#45;&gt;2 -->
<g id="edge5" class="edge">
<title>0&#45;&gt;2</title>
<path fill="none" stroke="black" d="M32.81,-30.11C46.29,-20.6 67.82,-7.39 89,-2.63 122.02,4.8 132.9,-5.15 163,-20.63 165.77,-22.05 168.64,-23.57 171.5,-25.11"/>
<polygon fill="black" stroke="black" points="169.99,-28.27 180.44,-30.01 173.36,-22.14 169.99,-28.27"/>
<text text-anchor="middle" x="107" y="-6.43" font-family="Times,serif" font-size="14.00">4:1</text>
</g>
<!-- 1&#45;&gt;2 -->
<g id="edge6" class="edge">
<title>1&#45;&gt;2</title>
<path fill="none" stroke="black" d="M122.18,-88.47C133.67,-95.14 150.02,-101.57 163,-94.63 173.09,-89.23 180.84,-79.62 186.52,-69.98"/>
<polygon fill="black" stroke="black" points="189.75,-71.35 191.33,-60.88 183.56,-68.08 189.75,-71.35"/>
<text text-anchor="middle" x="151.5" y="-100.43" font-family="Times,serif" font-size="14.00">2:3</text>
</g>
<!-- 1&#45;&gt;2 -->
<g id="edge7" class="edge">
<title>1&#45;&gt;2</title>
<path fill="none" stroke="black" d="M123.95,-72.43C134.96,-68.11 149.92,-62.15 163,-56.63 165.37,-55.63 167.82,-54.57 170.28,-53.51"/>
<polygon fill="black" stroke="black" points="171.88,-56.63 179.63,-49.4 169.06,-50.22 171.88,-56.63"/>
<text text-anchor="middle" x="151.5" y="-69.43" font-family="Times,serif" font-size="14.00">3:1</text>
</g>
<!-- 1&#45;&gt;2 -->
<g id="edge8" class="edge">
<title>1&#45;&gt;2</title>
<path fill="none" stroke="black" d="M115.71,-62.77C121.12,-53.59 129.29,-42.85 140,-37.63 148.73,-33.37 159.08,-32.67 168.65,-33.48"/>
<polygon fill="black" stroke="black" points="168.24,-36.96 178.62,-34.86 169.2,-30.02 168.24,-36.96"/>
<text text-anchor="middle" x="151.5" y="-41.43" font-family="Times,serif" font-size="14.00">1:2</text>
</g>
</g>
</svg>
