<?xml version="1.0" encoding="UTF-8" standalone="no"?>
<!DOCTYPE svg PUBLIC "-//W3C//DTD SVG 1.1//EN"
 "http://www.w3.org/Graphics/SVG/1.1/DTD/svg11.dtd">
<!-- Generated by graphviz version 2.43.0 (0)
 -->
<!-- Title: FST Pages: 1 -->
<svg width="384pt" height="160pt"
 viewBox="0.00 0.00 384.00 160.00" xmlns="http://www.w3.org/2000/svg" xmlns:xlink="http://www.w3.org/1999/xlink">
<g id="graph0" class="graph" transform="scale(1 1) rotate(0) translate(4 156)">
<title>FST</title>
<polygon fill="white" stroke="transparent" points="-4,4 -4,-156 380,-156 380,4 -4,4"/>
<!-- 0 -->
<g id="node1" class="node">
<title>0</title>
<ellipse fill="none" stroke="black" stroke-width="2" cx="18" cy="-99" rx="18" ry="18"/>
<text text-anchor="middle" x="18" y="-95.3" font-family="Times,serif" font-size="14.00">0</text>
</g>
<!-- 1 -->
<g id="node2" class="node">
<title>1</title>
<ellipse fill="none" stroke="black" cx="136" cy="-128" rx="18" ry="18"/>
<text text-anchor="middle" x="136" y="-124.3" font-family="Times,serif" font-size="14.00">1</text>
</g>
<!-- 0&#45;&gt;1 -->
<g id="edge1" class="edge">
<title>0&#45;&gt;1</title>
<path fill="none" stroke="black" d="M35.62,-103.15C54.66,-107.91 86.1,-115.78 108.52,-121.38"/>
<polygon fill="black" stroke="black" points="107.86,-124.82 118.41,-123.85 109.56,-118.03 107.86,-124.82"/>
<text text-anchor="middle" x="77" y="-122.8" font-family="Times,serif" font-size="14.00">eps:q/3</text>
</g>
<!-- 2 -->
<g id="node3" class="node">
<title>2</title>
<ellipse fill="none" stroke="black" cx="136" cy="-72" rx="18" ry="18"/>
<text text-anchor="middle" x="136" y="-68.3" font-family="Times,serif" font-size="14.00">2</text>
</g>
<!-- 0&#45;&gt;2 -->
<g id="edge2" class="edge">
<title>0&#45;&gt;2</title>
<path fill="none" stroke="black" d="M34.32,-91.33C39.51,-89 45.41,-86.63 51,-85 69.6,-79.59 91.21,-76.31 107.85,-74.4"/>
<polygon fill="black" stroke="black" points="108.41,-77.86 117.99,-73.33 107.68,-70.9 108.41,-77.86"/>
<text text-anchor="middle" x="77" y="-88.8" font-family="Times,serif" font-size="14.00">a:eps/1</text>
</g>
<!-- 3 -->
<g id="node4" class="node">
<title>3</title>
<ellipse fill="none" stroke="black" cx="243" cy="-130" rx="18" ry="18"/>
<ellipse fill="none" stroke="black" cx="243" cy="-130" rx="22" ry="22"/>
<text text-anchor="middle" x="243" y="-126.3" font-family="Times,serif" font-size="14.00">3</text>
</g>
<!-- 1&#45;&gt;3 -->
<g id="edge3" class="edge">
<title>1&#45;&gt;3</title>
<path fill="none" stroke="black" d="M154.34,-128.33C169.6,-128.62 192.2,-129.05 210.63,-129.4"/>
<polygon fill="black" stroke="black" points="210.58,-132.9 220.64,-129.59 210.71,-125.9 210.58,-132.9"/>
<text text-anchor="middle" x="187.5" y="-132.8" font-family="Times,serif" font-size="14.00">c:r/4</text>
</g>
<!-- 4 -->
<g id="node5" class="node">
<title>4</title>
<ellipse fill="none" stroke="black" cx="243" cy="-72" rx="18" ry="18"/>
<text text-anchor="middle" x="243" y="-68.3" font-family="Times,serif" font-size="14.00">4</text>
</g>
<!-- 2&#45;&gt;4 -->
<g id="edge4" class="edge">
<title>2&#45;&gt;4</title>
<path fill="none" stroke="black" d="M154.34,-72C170.78,-72 195.72,-72 214.81,-72"/>
<polygon fill="black" stroke="black" points="214.98,-75.5 224.98,-72 214.98,-68.5 214.98,-75.5"/>
<text text-anchor="middle" x="187.5" y="-75.8" font-family="Times,serif" font-size="14.00">c:p/4</text>
</g>
<!-- 5 -->
<g id="node6" class="node">
<title>5</title>
<ellipse fill="none" stroke="black" cx="243" cy="-18" rx="18" ry="18"/>
<text text-anchor="middle" x="243" y="-14.3" font-family="Times,serif" font-size="14.00">5</text>
</g>
<!-- 2&#45;&gt;5 -->
<g id="edge5" class="edge">
<title>2&#45;&gt;5</title>
<path fill="none" stroke="black" d="M151.82,-62.83C157.17,-59.62 163.3,-56.05 169,-53 184.71,-44.59 202.76,-35.93 216.98,-29.33"/>
<polygon fill="black" stroke="black" points="218.51,-32.47 226.13,-25.11 215.59,-26.11 218.51,-32.47"/>
<text text-anchor="middle" x="187.5" y="-56.8" font-family="Times,serif" font-size="14.00">d:q/7</text>
</g>
<!-- 6 -->
<g id="node7" class="node">
<title>6</title>
<ellipse fill="none" stroke="black" cx="354" cy="-45" rx="18" ry="18"/>
<ellipse fill="none" stroke="black" cx="354" cy="-45" rx="22" ry="22"/>
<text text-anchor="middle" x="354" y="-41.3" font-family="Times,serif" font-size="14.00">6</text>
</g>
<!-- 4&#45;&gt;6 -->
<g id="edge6" class="edge">
<title>4&#45;&gt;6</title>
<path fill="none" stroke="black" d="M260.55,-67.9C276.99,-63.83 302.55,-57.5 322.64,-52.52"/>
<polygon fill="black" stroke="black" points="323.7,-55.86 332.57,-50.06 322.02,-49.07 323.7,-55.86"/>
<text text-anchor="middle" x="298.5" y="-65.8" font-family="Times,serif" font-size="14.00">eps:r</text>
</g>
<!-- 5&#45;&gt;6 -->
<g id="edge7" class="edge">
<title>5&#45;&gt;6</title>
<path fill="none" stroke="black" d="M260.87,-21.72C275.69,-25.03 297.83,-30.11 317,-35 318.89,-35.48 320.82,-35.99 322.78,-36.5"/>
<polygon fill="black" stroke="black" points="321.91,-39.9 332.48,-39.14 323.75,-33.14 321.91,-39.9"/>
<text text-anchor="middle" x="298.5" y="-38.8" font-family="Times,serif" font-size="14.00">eps:s</text>
</g>
</g>
</svg>
