<?xml version="1.0" encoding="UTF-8" standalone="no"?>
<!DOCTYPE svg PUBLIC "-//W3C//DTD SVG 1.1//EN"
 "http://www.w3.org/Graphics/SVG/1.1/DTD/svg11.dtd">
<!-- Generated by graphviz version 6.0.1 (20220911.1526)
 -->
<!-- Title: FST Pages: 1 -->
<svg width="411pt" height="87pt"
 viewBox="0.00 0.00 411.20 87.21" xmlns="http://www.w3.org/2000/svg" xmlns:xlink="http://www.w3.org/1999/xlink">
<g id="graph0" class="graph" transform="scale(1 1) rotate(0) translate(4 83.21)">
<title>FST</title>
<polygon fill="white" stroke="none" points="-4,4 -4,-83.21 407.2,-83.21 407.2,4 -4,4"/>
<!-- 0 -->
<g id="node1" class="node">
<title>0</title>
<ellipse fill="none" stroke="black" stroke-width="2" cx="18" cy="-28.21" rx="18" ry="18"/>
<text text-anchor="middle" x="18" y="-24.51" font-family="Times,serif" font-size="14.00">0</text>
</g>
<!-- 1 -->
<g id="node2" class="node">
<title>1</title>
<ellipse fill="none" stroke="black" cx="135" cy="-28.21" rx="18" ry="18"/>
<text text-anchor="middle" x="135" y="-24.51" font-family="Times,serif" font-size="14.00">1</text>
</g>
<!-- 0&#45;&gt;1 -->
<g id="edge1" class="edge">
<title>0&#45;&gt;1</title>
<path fill="none" stroke="black" d="M36.47,-28.21C55.06,-28.21 84.76,-28.21 106.5,-28.21"/>
<polygon fill="black" stroke="black" points="106.75,-31.71 116.75,-28.21 106.75,-24.71 106.75,-31.71"/>
<text text-anchor="middle" x="76.5" y="-32.01" font-family="Times,serif" font-size="14.00">eps:eps/1</text>
</g>
<!-- 2 -->
<g id="node3" class="node">
<title>2</title>
<ellipse fill="none" stroke="black" cx="252" cy="-28.21" rx="18" ry="18"/>
<text text-anchor="middle" x="252" y="-24.51" font-family="Times,serif" font-size="14.00">2</text>
</g>
<!-- 1&#45;&gt;2 -->
<g id="edge2" class="edge">
<title>1&#45;&gt;2</title>
<path fill="none" stroke="black" d="M150.75,-37.37C156,-40.14 162.08,-42.81 168,-44.21 190.06,-49.42 196.94,-49.42 219,-44.21 221.68,-43.58 224.4,-42.68 227.06,-41.64"/>
<polygon fill="black" stroke="black" points="228.65,-44.76 236.25,-37.37 225.7,-38.41 228.65,-44.76"/>
<text text-anchor="middle" x="193.5" y="-51.01" font-family="Times,serif" font-size="14.00">a:eps/2</text>
</g>
<!-- 1&#45;&gt;2 -->
<g id="edge3" class="edge">
<title>1&#45;&gt;2</title>
<path fill="none" stroke="black" d="M152.92,-26.33C157.78,-25.87 163.1,-25.44 168,-25.21 190.64,-24.15 196.36,-24.15 219,-25.21 220.53,-25.28 222.11,-25.37 223.69,-25.48"/>
<polygon fill="black" stroke="black" points="223.83,-29 234.08,-26.33 224.4,-22.03 223.83,-29"/>
<text text-anchor="middle" x="193.5" y="-29.01" font-family="Times,serif" font-size="14.00">eps:p/3</text>
</g>
<!-- 1&#45;&gt;2 -->
<g id="edge4" class="edge">
<title>1&#45;&gt;2</title>
<path fill="none" stroke="black" d="M148.67,-16.31C154.17,-11.92 160.97,-7.48 168,-5.21 189.58,1.74 197.42,1.74 219,-5.21 222.85,-6.45 226.62,-8.34 230.15,-10.52"/>
<polygon fill="black" stroke="black" points="228.15,-13.39 238.33,-16.31 232.19,-7.68 228.15,-13.39"/>
<text text-anchor="middle" x="193.5" y="-9.01" font-family="Times,serif" font-size="14.00">eps:eps/4</text>
</g>
<!-- 2&#45;&gt;2 -->
<g id="edge5" class="edge">
<title>2&#45;&gt;2</title>
<path fill="none" stroke="black" d="M242.1,-43.38C239.1,-53.88 242.4,-64.21 252,-64.21 258.3,-64.21 261.88,-59.76 262.76,-53.73"/>
<polygon fill="black" stroke="black" points="266.21,-53.05 261.9,-43.38 259.24,-53.63 266.21,-53.05"/>
<text text-anchor="middle" x="252" y="-68.01" font-family="Times,serif" font-size="14.00">eps:eps/5</text>
</g>
<!-- 3 -->
<g id="node4" class="node">
<title>3</title>
<ellipse fill="none" stroke="black" cx="377.1" cy="-28.21" rx="22.18" ry="22.18"/>
<ellipse fill="none" stroke="black" cx="377.1" cy="-28.21" rx="26.2" ry="26.2"/>
<text text-anchor="middle" x="377.1" y="-24.51" font-family="Times,serif" font-size="14.00">3/7</text>
</g>
<!-- 2&#45;&gt;3 -->
<g id="edge6" class="edge">
<title>2&#45;&gt;3</title>
<path fill="none" stroke="black" d="M270.12,-28.21C288.22,-28.21 317.3,-28.21 340.43,-28.21"/>
<polygon fill="black" stroke="black" points="340.57,-31.71 350.57,-28.21 340.57,-24.71 340.57,-31.71"/>
<text text-anchor="middle" x="310.5" y="-32.01" font-family="Times,serif" font-size="14.00">eps:eps/6</text>
</g>
</g>
</svg>
