<?xml version="1.0" encoding="UTF-8" standalone="no"?>
<!DOCTYPE svg PUBLIC "-//W3C//DTD SVG 1.1//EN"
 "http://www.w3.org/Graphics/SVG/1.1/DTD/svg11.dtd">
<!-- Generated by graphviz version 9.0.0 (20230911.1827)
 -->
<!-- Title: FST Pages: 1 -->
<svg width="323pt" height="98pt"
 viewBox="0.00 0.00 322.75 98.00" xmlns="http://www.w3.org/2000/svg" xmlns:xlink="http://www.w3.org/1999/xlink">
<g id="graph0" class="graph" transform="scale(1 1) rotate(0) translate(4 94)">
<title>FST</title>
<polygon fill="white" stroke="none" points="-4,4 -4,-94 318.75,-94 318.75,4 -4,4"/>
<!-- 0 -->
<g id="node1" class="node">
<title>0</title>
<ellipse fill="none" stroke="black" stroke-width="2" cx="18" cy="-45" rx="18" ry="18"/>
<text text-anchor="middle" x="18" y="-39.95" font-family="Times,serif" font-size="14.00">0</text>
</g>
<!-- 1 -->
<g id="node2" class="node">
<title>1</title>
<ellipse fill="none" stroke="black" cx="99.75" cy="-45" rx="18" ry="18"/>
<text text-anchor="middle" x="99.75" y="-39.95" font-family="Times,serif" font-size="14.00">1</text>
</g>
<!-- 0&#45;&gt;1 -->
<g id="edge1" class="edge">
<title>0&#45;&gt;1</title>
<path fill="none" stroke="black" d="M36.3,-45C46.23,-45 58.94,-45 70.3,-45"/>
<polygon fill="black" stroke="black" points="69.97,-48.5 79.97,-45 69.97,-41.5 69.97,-48.5"/>
<text text-anchor="middle" x="58.88" y="-48.2" font-family="Times,serif" font-size="14.00">a:a</text>
</g>
<!-- 2 -->
<g id="node3" class="node">
<title>2</title>
<ellipse fill="none" stroke="black" cx="183" cy="-72" rx="18" ry="18"/>
<text text-anchor="middle" x="183" y="-66.95" font-family="Times,serif" font-size="14.00">2</text>
</g>
<!-- 1&#45;&gt;2 -->
<g id="edge2" class="edge">
<title>1&#45;&gt;2</title>
<path fill="none" stroke="black" d="M117.19,-50.46C127.98,-54.05 142.36,-58.83 154.83,-62.97"/>
<polygon fill="black" stroke="black" points="153.55,-66.23 164.15,-66.07 155.76,-59.59 153.55,-66.23"/>
<text text-anchor="middle" x="141.38" y="-63.2" font-family="Times,serif" font-size="14.00">b:b</text>
</g>
<!-- 3 -->
<g id="node4" class="node">
<title>3</title>
<ellipse fill="none" stroke="black" cx="183" cy="-18" rx="18" ry="18"/>
<text text-anchor="middle" x="183" y="-12.95" font-family="Times,serif" font-size="14.00">3</text>
</g>
<!-- 1&#45;&gt;3 -->
<g id="edge3" class="edge">
<title>1&#45;&gt;3</title>
<path fill="none" stroke="black" d="M117.19,-39.54C127.98,-35.95 142.36,-31.17 154.83,-27.03"/>
<polygon fill="black" stroke="black" points="155.76,-30.41 164.15,-23.93 153.55,-23.77 155.76,-30.41"/>
<text text-anchor="middle" x="141.38" y="-37.2" font-family="Times,serif" font-size="14.00">c:c</text>
</g>
<!-- 4 -->
<g id="node5" class="node">
<title>4</title>
<ellipse fill="none" stroke="black" cx="292.75" cy="-45" rx="18" ry="18"/>
<ellipse fill="none" stroke="black" cx="292.75" cy="-45" rx="22" ry="22"/>
<text text-anchor="middle" x="292.75" y="-39.95" font-family="Times,serif" font-size="14.00">4</text>
</g>
<!-- 2&#45;&gt;4 -->
<g id="edge4" class="edge">
<title>2&#45;&gt;4</title>
<path fill="none" stroke="black" d="M200.84,-67.78C216.59,-63.83 240.55,-57.83 259.91,-52.98"/>
<polygon fill="black" stroke="black" points="260.66,-56.4 269.51,-50.57 258.96,-49.61 260.66,-56.4"/>
<text text-anchor="middle" x="235.88" y="-66.2" font-family="Times,serif" font-size="14.00">eps:eps</text>
</g>
<!-- 3&#45;&gt;4 -->
<g id="edge5" class="edge">
<title>3&#45;&gt;4</title>
<path fill="none" stroke="black" d="M200.88,-21.59C215.47,-24.77 237.07,-29.63 255.75,-34.5 257.33,-34.91 258.94,-35.34 260.56,-35.78"/>
<polygon fill="black" stroke="black" points="259.21,-39.04 269.79,-38.39 261.12,-32.3 259.21,-39.04"/>
<text text-anchor="middle" x="235.88" y="-38.2" font-family="Times,serif" font-size="14.00">eps:eps</text>
</g>
</g>
</svg>
