<?xml version="1.0" encoding="UTF-8" standalone="no"?>
<!DOCTYPE svg PUBLIC "-//W3C//DTD SVG 1.1//EN"
 "http://www.w3.org/Graphics/SVG/1.1/DTD/svg11.dtd">
<!-- Generated by graphviz version 2.43.0 (0)
 -->
<!-- Title: FST Pages: 1 -->
<svg width="262pt" height="156pt"
 viewBox="0.00 0.00 262.00 156.00" xmlns="http://www.w3.org/2000/svg" xmlns:xlink="http://www.w3.org/1999/xlink">
<g id="graph0" class="graph" transform="scale(1 1) rotate(0) translate(4 152)">
<title>FST</title>
<polygon fill="white" stroke="transparent" points="-4,4 -4,-152 258,-152 258,4 -4,4"/>
<!-- 0 -->
<g id="node1" class="node">
<title>0</title>
<ellipse fill="none" stroke="black" stroke-width="2" cx="18" cy="-75" rx="18" ry="18"/>
<text text-anchor="middle" x="18" y="-71.3" font-family="Times,serif" font-size="14.00">0</text>
</g>
<!-- 1 -->
<g id="node2" class="node">
<title>1</title>
<ellipse fill="none" stroke="black" cx="129" cy="-113" rx="18" ry="18"/>
<text text-anchor="middle" x="129" y="-109.3" font-family="Times,serif" font-size="14.00">1</text>
</g>
<!-- 0&#45;&gt;1 -->
<g id="edge1" class="edge">
<title>0&#45;&gt;1</title>
<path fill="none" stroke="black" d="M23.99,-91.98C28.71,-104.67 37.18,-121.12 51,-129 67.21,-138.24 88.05,-133.05 103.96,-126.21"/>
<polygon fill="black" stroke="black" points="105.61,-129.31 113.15,-121.86 102.61,-122.98 105.61,-129.31"/>
<text text-anchor="middle" x="73.5" y="-136.8" font-family="Times,serif" font-size="14.00">a:a/5</text>
</g>
<!-- 0&#45;&gt;1 -->
<g id="edge2" class="edge">
<title>0&#45;&gt;1</title>
<path fill="none" stroke="black" d="M34.04,-83.24C39.31,-85.93 45.33,-88.79 51,-91 67.27,-97.33 86.09,-102.74 101.06,-106.61"/>
<polygon fill="black" stroke="black" points="100.63,-110.11 111.18,-109.15 102.34,-103.32 100.63,-110.11"/>
<text text-anchor="middle" x="73.5" y="-107.8" font-family="Times,serif" font-size="14.00">b:a/5</text>
</g>
<!-- 0&#45;&gt;1 -->
<g id="edge3" class="edge">
<title>0&#45;&gt;1</title>
<path fill="none" stroke="black" d="M35.55,-70.02C51.81,-66.09 76.88,-62.67 96,-72 103.53,-75.68 109.81,-82.08 114.75,-88.74"/>
<polygon fill="black" stroke="black" points="111.86,-90.72 120.29,-97.14 117.71,-86.87 111.86,-90.72"/>
<text text-anchor="middle" x="73.5" y="-75.8" font-family="Times,serif" font-size="14.00">c:a/6</text>
</g>
<!-- 2 -->
<g id="node3" class="node">
<title>2</title>
<ellipse fill="none" stroke="black" cx="129" cy="-18" rx="18" ry="18"/>
<text text-anchor="middle" x="129" y="-14.3" font-family="Times,serif" font-size="14.00">2</text>
</g>
<!-- 0&#45;&gt;2 -->
<g id="edge4" class="edge">
<title>0&#45;&gt;2</title>
<path fill="none" stroke="black" d="M31.25,-62.42C36.89,-57.14 43.91,-51.25 51,-47 66.73,-37.58 86.05,-30.31 101.4,-25.41"/>
<polygon fill="black" stroke="black" points="102.75,-28.66 111.3,-22.4 100.71,-21.96 102.75,-28.66"/>
<text text-anchor="middle" x="73.5" y="-50.8" font-family="Times,serif" font-size="14.00">d:a/10</text>
</g>
<!-- 0&#45;&gt;2 -->
<g id="edge5" class="edge">
<title>0&#45;&gt;2</title>
<path fill="none" stroke="black" d="M22.05,-57.23C25.83,-41.26 33.99,-18.73 51,-8 66.34,1.67 86.82,-1.58 102.81,-6.85"/>
<polygon fill="black" stroke="black" points="101.97,-10.27 112.56,-10.48 104.41,-3.71 101.97,-10.27"/>
<text text-anchor="middle" x="73.5" y="-11.8" font-family="Times,serif" font-size="14.00">f:a/8</text>
</g>
<!-- 3 -->
<g id="node4" class="node">
<title>3</title>
<ellipse fill="none" stroke="black" cx="232" cy="-75" rx="18" ry="18"/>
<ellipse fill="none" stroke="black" cx="232" cy="-75" rx="22" ry="22"/>
<text text-anchor="middle" x="232" y="-71.3" font-family="Times,serif" font-size="14.00">3</text>
</g>
<!-- 1&#45;&gt;3 -->
<g id="edge6" class="edge">
<title>1&#45;&gt;3</title>
<path fill="none" stroke="black" d="M147.03,-115.42C160.59,-116.61 179.76,-116.6 195,-110 200.64,-107.56 205.9,-103.81 210.56,-99.66"/>
<polygon fill="black" stroke="black" points="213.19,-101.98 217.81,-92.45 208.25,-97.02 213.19,-101.98"/>
<text text-anchor="middle" x="178.5" y="-119.8" font-family="Times,serif" font-size="14.00">f:b/1</text>
</g>
<!-- 1&#45;&gt;3 -->
<g id="edge7" class="edge">
<title>1&#45;&gt;3</title>
<path fill="none" stroke="black" d="M143.66,-101.93C149.1,-97.99 155.58,-93.83 162,-91 173.92,-85.75 187.8,-82.1 199.97,-79.63"/>
<polygon fill="black" stroke="black" points="200.93,-83.01 210.13,-77.75 199.66,-76.13 200.93,-83.01"/>
<text text-anchor="middle" x="178.5" y="-94.8" font-family="Times,serif" font-size="14.00">g:b</text>
</g>
<!-- 2&#45;&gt;3 -->
<g id="edge8" class="edge">
<title>2&#45;&gt;3</title>
<path fill="none" stroke="black" d="M145.34,-26.66C160.73,-35.34 184.77,-48.91 203.47,-59.46"/>
<polygon fill="black" stroke="black" points="201.99,-62.65 212.42,-64.52 205.43,-56.55 201.99,-62.65"/>
<text text-anchor="middle" x="178.5" y="-56.8" font-family="Times,serif" font-size="14.00">f:c/1</text>
</g>
<!-- 2&#45;&gt;3 -->
<g id="edge9" class="edge">
<title>2&#45;&gt;3</title>
<path fill="none" stroke="black" d="M146.59,-13.39C160.43,-10.53 180.21,-8.77 195,-17 205.97,-23.1 214.03,-34.09 219.71,-44.88"/>
<polygon fill="black" stroke="black" points="216.66,-46.62 224.09,-54.17 222.99,-43.63 216.66,-46.62"/>
<text text-anchor="middle" x="178.5" y="-20.8" font-family="Times,serif" font-size="14.00">g:c</text>
</g>
</g>
</svg>
