<?xml version="1.0" encoding="UTF-8" standalone="no"?>
<!DOCTYPE svg PUBLIC "-//W3C//DTD SVG 1.1//EN"
 "http://www.w3.org/Graphics/SVG/1.1/DTD/svg11.dtd">
<!-- Generated by graphviz version 9.0.0 (20230911.1827)
 -->
<!-- Title: FST Pages: 1 -->
<svg width="410pt" height="90pt"
 viewBox="0.00 0.00 410.13 90.38" xmlns="http://www.w3.org/2000/svg" xmlns:xlink="http://www.w3.org/1999/xlink">
<g id="graph0" class="graph" transform="scale(1 1) rotate(0) translate(4 86.38)">
<title>FST</title>
<polygon fill="white" stroke="none" points="-4,4 -4,-86.38 406.13,-86.38 406.13,4 -4,4"/>
<!-- 0 -->
<g id="node1" class="node">
<title>0</title>
<ellipse fill="none" stroke="black" stroke-width="2" cx="18" cy="-29.88" rx="18" ry="18"/>
<text text-anchor="middle" x="18" y="-24.83" font-family="Times,serif" font-size="14.00">0</text>
</g>
<!-- 1 -->
<g id="node2" class="node">
<title>1</title>
<ellipse fill="none" stroke="black" cx="134.25" cy="-29.88" rx="18" ry="18"/>
<text text-anchor="middle" x="134.25" y="-24.83" font-family="Times,serif" font-size="14.00">1</text>
</g>
<!-- 0&#45;&gt;1 -->
<g id="edge1" class="edge">
<title>0&#45;&gt;1</title>
<path fill="none" stroke="black" d="M36.35,-29.88C54.49,-29.88 83.25,-29.88 104.74,-29.88"/>
<polygon fill="black" stroke="black" points="104.6,-33.38 114.6,-29.88 104.6,-26.38 104.6,-33.38"/>
<text text-anchor="middle" x="76.12" y="-33.08" font-family="Times,serif" font-size="14.00">eps:eps/1</text>
</g>
<!-- 2 -->
<g id="node3" class="node">
<title>2</title>
<ellipse fill="none" stroke="black" cx="250.5" cy="-29.88" rx="18" ry="18"/>
<text text-anchor="middle" x="250.5" y="-24.83" font-family="Times,serif" font-size="14.00">2</text>
</g>
<!-- 1&#45;&gt;2 -->
<g id="edge2" class="edge">
<title>1&#45;&gt;2</title>
<path fill="none" stroke="black" d="M149.55,-39.98C154.85,-43.16 161.08,-46.26 167.25,-47.88 188.85,-53.53 195.9,-53.53 217.5,-47.88 220,-47.22 222.52,-46.32 224.98,-45.27"/>
<polygon fill="black" stroke="black" points="226.58,-48.38 233.86,-40.68 223.37,-42.16 226.58,-48.38"/>
<text text-anchor="middle" x="192.38" y="-55.08" font-family="Times,serif" font-size="14.00">a:eps/2</text>
</g>
<!-- 1&#45;&gt;2 -->
<g id="edge3" class="edge">
<title>1&#45;&gt;2</title>
<path fill="none" stroke="black" d="M152.51,-28.28C157.28,-27.91 162.46,-27.56 167.25,-27.38 189.57,-26.51 195.18,-26.51 217.5,-27.38 218.7,-27.42 219.92,-27.48 221.15,-27.54"/>
<polygon fill="black" stroke="black" points="220.52,-31.01 230.73,-28.18 220.99,-24.02 220.52,-31.01"/>
<text text-anchor="middle" x="192.38" y="-30.08" font-family="Times,serif" font-size="14.00">eps:p/3</text>
</g>
<!-- 1&#45;&gt;2 -->
<g id="edge4" class="edge">
<title>1&#45;&gt;2</title>
<path fill="none" stroke="black" d="M147.49,-17.47C153.03,-12.72 159.96,-7.85 167.25,-5.38 188.4,1.79 196.35,1.79 217.5,-5.38 221.26,-6.65 224.92,-8.56 228.35,-10.77"/>
<polygon fill="black" stroke="black" points="225.96,-13.34 236.05,-16.56 230.16,-7.75 225.96,-13.34"/>
<text text-anchor="middle" x="192.38" y="-8.08" font-family="Times,serif" font-size="14.00">eps:eps/4</text>
</g>
<!-- 2&#45;&gt;2 -->
<g id="edge5" class="edge">
<title>2&#45;&gt;2</title>
<path fill="none" stroke="black" d="M240.56,-45.42C237.76,-55.78 241.08,-65.88 250.5,-65.88 256.24,-65.88 259.71,-62.13 260.92,-56.85"/>
<polygon fill="black" stroke="black" points="264.42,-56.77 260.5,-46.93 257.43,-57.07 264.42,-56.77"/>
<text text-anchor="middle" x="250.5" y="-69.08" font-family="Times,serif" font-size="14.00">eps:eps/5</text>
</g>
<!-- 3 -->
<g id="node4" class="node">
<title>3</title>
<ellipse fill="none" stroke="black" cx="375.44" cy="-29.88" rx="22.69" ry="22.69"/>
<ellipse fill="none" stroke="black" cx="375.44" cy="-29.88" rx="26.69" ry="26.69"/>
<text text-anchor="middle" x="375.44" y="-24.83" font-family="Times,serif" font-size="14.00">3/7</text>
</g>
<!-- 2&#45;&gt;3 -->
<g id="edge6" class="edge">
<title>2&#45;&gt;3</title>
<path fill="none" stroke="black" d="M268.85,-29.88C286.55,-29.88 314.56,-29.88 337.29,-29.88"/>
<polygon fill="black" stroke="black" points="337.09,-33.38 347.09,-29.88 337.09,-26.38 337.09,-33.38"/>
<text text-anchor="middle" x="308.62" y="-33.08" font-family="Times,serif" font-size="14.00">eps:eps/6</text>
</g>
</g>
</svg>
