<?xml version="1.0" encoding="UTF-8" standalone="no"?>
<!DOCTYPE svg PUBLIC "-//W3C//DTD SVG 1.1//EN"
 "http://www.w3.org/Graphics/SVG/1.1/DTD/svg11.dtd">
<!-- Generated by graphviz version 2.43.0 (0)
 -->
<!-- Title: FST Pages: 1 -->
<svg width="377pt" height="147pt"
 viewBox="0.00 0.00 377.00 147.00" xmlns="http://www.w3.org/2000/svg" xmlns:xlink="http://www.w3.org/1999/xlink">
<g id="graph0" class="graph" transform="scale(1 1) rotate(0) translate(4 143)">
<title>FST</title>
<polygon fill="white" stroke="transparent" points="-4,4 -4,-143 373,-143 373,4 -4,4"/>
<!-- 0 -->
<g id="node1" class="node">
<title>0</title>
<ellipse fill="none" stroke="black" stroke-width="2" cx="18" cy="-39" rx="18" ry="18"/>
<text text-anchor="middle" x="18" y="-35.3" font-family="Times,serif" font-size="14.00">0</text>
</g>
<!-- 1 -->
<g id="node2" class="node">
<title>1</title>
<ellipse fill="none" stroke="black" cx="136" cy="-67" rx="18" ry="18"/>
<text text-anchor="middle" x="136" y="-63.3" font-family="Times,serif" font-size="14.00">1</text>
</g>
<!-- 0&#45;&gt;1 -->
<g id="edge1" class="edge">
<title>0&#45;&gt;1</title>
<path fill="none" stroke="black" d="M35.62,-43.01C54.66,-47.61 86.1,-55.2 108.52,-60.61"/>
<polygon fill="black" stroke="black" points="107.87,-64.05 118.41,-63 109.51,-57.25 107.87,-64.05"/>
<text text-anchor="middle" x="77" y="-61.8" font-family="Times,serif" font-size="14.00">a:eps/1</text>
</g>
<!-- 3 -->
<g id="node3" class="node">
<title>3</title>
<ellipse fill="none" stroke="black" cx="187.5" cy="-18" rx="18" ry="18"/>
<text text-anchor="middle" x="187.5" y="-14.3" font-family="Times,serif" font-size="14.00">3</text>
</g>
<!-- 0&#45;&gt;3 -->
<g id="edge2" class="edge">
<title>0&#45;&gt;3</title>
<path fill="none" stroke="black" d="M35.05,-32.58C40.08,-30.81 45.71,-29.09 51,-28 87.92,-20.42 131.54,-18.41 159.11,-17.97"/>
<polygon fill="black" stroke="black" points="159.23,-21.46 169.19,-17.86 159.16,-14.46 159.23,-21.46"/>
<text text-anchor="middle" x="77" y="-31.8" font-family="Times,serif" font-size="14.00">c:q/7</text>
</g>
<!-- 4 -->
<g id="node4" class="node">
<title>4</title>
<ellipse fill="none" stroke="black" cx="239.5" cy="-121" rx="18" ry="18"/>
<text text-anchor="middle" x="239.5" y="-117.3" font-family="Times,serif" font-size="14.00">4</text>
</g>
<!-- 1&#45;&gt;4 -->
<g id="edge3" class="edge">
<title>1&#45;&gt;4</title>
<path fill="none" stroke="black" d="M151.85,-76.11C157.21,-79.32 163.33,-82.9 169,-86 183.68,-94.04 200.44,-102.5 213.81,-109.09"/>
<polygon fill="black" stroke="black" points="212.36,-112.27 222.88,-113.52 215.44,-105.98 212.36,-112.27"/>
<text text-anchor="middle" x="187.5" y="-107.8" font-family="Times,serif" font-size="14.00">c:p/4</text>
</g>
<!-- 5 -->
<g id="node5" class="node">
<title>5</title>
<ellipse fill="none" stroke="black" cx="239.5" cy="-67" rx="18" ry="18"/>
<text text-anchor="middle" x="239.5" y="-63.3" font-family="Times,serif" font-size="14.00">5</text>
</g>
<!-- 1&#45;&gt;5 -->
<g id="edge4" class="edge">
<title>1&#45;&gt;5</title>
<path fill="none" stroke="black" d="M154.22,-67C169.75,-67 192.86,-67 210.96,-67"/>
<polygon fill="black" stroke="black" points="211.2,-70.5 221.2,-67 211.2,-63.5 211.2,-70.5"/>
<text text-anchor="middle" x="187.5" y="-70.8" font-family="Times,serif" font-size="14.00">d:q/7</text>
</g>
<!-- 2 -->
<g id="node6" class="node">
<title>2</title>
<ellipse fill="none" stroke="black" cx="347" cy="-67" rx="18" ry="18"/>
<ellipse fill="none" stroke="black" cx="347" cy="-67" rx="22" ry="22"/>
<text text-anchor="middle" x="347" y="-63.3" font-family="Times,serif" font-size="14.00">2</text>
</g>
<!-- 3&#45;&gt;2 -->
<g id="edge5" class="edge">
<title>3&#45;&gt;2</title>
<path fill="none" stroke="black" d="M205.66,-18.09C219.91,-18.56 240.6,-20.13 258,-25 279.46,-31 302.11,-41.94 319.06,-51.14"/>
<polygon fill="black" stroke="black" points="317.41,-54.23 327.85,-56.04 320.82,-48.11 317.41,-54.23"/>
<text text-anchor="middle" x="239.5" y="-28.8" font-family="Times,serif" font-size="14.00">eps:r</text>
</g>
<!-- 4&#45;&gt;2 -->
<g id="edge6" class="edge">
<title>4&#45;&gt;2</title>
<path fill="none" stroke="black" d="M256,-113.3C270.11,-106.26 291.51,-95.53 310,-86 312.74,-84.59 315.59,-83.11 318.43,-81.62"/>
<polygon fill="black" stroke="black" points="320.13,-84.68 327.35,-76.93 316.87,-78.49 320.13,-84.68"/>
<text text-anchor="middle" x="291.5" y="-107.8" font-family="Times,serif" font-size="14.00">eps:r</text>
</g>
<!-- 5&#45;&gt;2 -->
<g id="edge7" class="edge">
<title>5&#45;&gt;2</title>
<path fill="none" stroke="black" d="M257.92,-67C273.35,-67 296.26,-67 314.84,-67"/>
<polygon fill="black" stroke="black" points="314.92,-70.5 324.92,-67 314.92,-63.5 314.92,-70.5"/>
<text text-anchor="middle" x="291.5" y="-70.8" font-family="Times,serif" font-size="14.00">eps:s</text>
</g>
</g>
</svg>
