<?xml version="1.0" encoding="UTF-8" standalone="no"?>
<!DOCTYPE svg PUBLIC "-//W3C//DTD SVG 1.1//EN"
 "http://www.w3.org/Graphics/SVG/1.1/DTD/svg11.dtd">
<!-- Generated by graphviz version 7.0.2 (20221119.0110)
 -->
<!-- Title: FST Pages: 1 -->
<svg width="324pt" height="98pt"
 viewBox="0.00 0.00 324.00 98.00" xmlns="http://www.w3.org/2000/svg" xmlns:xlink="http://www.w3.org/1999/xlink">
<g id="graph0" class="graph" transform="scale(1 1) rotate(0) translate(4 94)">
<title>FST</title>
<polygon fill="white" stroke="none" points="-4,4 -4,-94 320,-94 320,4 -4,4"/>
<!-- 0 -->
<g id="node1" class="node">
<title>0</title>
<ellipse fill="none" stroke="black" stroke-width="2" cx="18" cy="-45" rx="18" ry="18"/>
<text text-anchor="middle" x="18" y="-41.3" font-family="Times,serif" font-size="14.00">0</text>
</g>
<!-- 1 -->
<g id="node2" class="node">
<title>1</title>
<ellipse fill="none" stroke="black" cx="100" cy="-45" rx="18" ry="18"/>
<text text-anchor="middle" x="100" y="-41.3" font-family="Times,serif" font-size="14.00">1</text>
</g>
<!-- 0&#45;&gt;1 -->
<g id="edge1" class="edge">
<title>0&#45;&gt;1</title>
<path fill="none" stroke="black" d="M36.36,-45C46.32,-45 59.07,-45 70.46,-45"/>
<polygon fill="black" stroke="black" points="70.16,-48.5 80.16,-45 70.16,-41.5 70.16,-48.5"/>
<text text-anchor="middle" x="59" y="-48.8" font-family="Times,serif" font-size="14.00">a:a</text>
</g>
<!-- 2 -->
<g id="node3" class="node">
<title>2</title>
<ellipse fill="none" stroke="black" cx="184" cy="-72" rx="18" ry="18"/>
<text text-anchor="middle" x="184" y="-68.3" font-family="Times,serif" font-size="14.00">2</text>
</g>
<!-- 1&#45;&gt;2 -->
<g id="edge2" class="edge">
<title>1&#45;&gt;2</title>
<path fill="none" stroke="black" d="M117.59,-50.46C128.49,-54.05 142.99,-58.83 155.57,-62.97"/>
<polygon fill="black" stroke="black" points="154.4,-66.27 164.99,-66.07 156.59,-59.62 154.4,-66.27"/>
<text text-anchor="middle" x="142" y="-63.8" font-family="Times,serif" font-size="14.00">b:b</text>
</g>
<!-- 3 -->
<g id="node4" class="node">
<title>3</title>
<ellipse fill="none" stroke="black" cx="184" cy="-18" rx="18" ry="18"/>
<text text-anchor="middle" x="184" y="-14.3" font-family="Times,serif" font-size="14.00">3</text>
</g>
<!-- 1&#45;&gt;3 -->
<g id="edge3" class="edge">
<title>1&#45;&gt;3</title>
<path fill="none" stroke="black" d="M117.59,-39.54C128.49,-35.95 142.99,-31.17 155.57,-27.03"/>
<polygon fill="black" stroke="black" points="156.59,-30.38 164.99,-23.93 154.4,-23.73 156.59,-30.38"/>
<text text-anchor="middle" x="142" y="-36.8" font-family="Times,serif" font-size="14.00">c:c</text>
</g>
<!-- 4 -->
<g id="node5" class="node">
<title>4</title>
<ellipse fill="none" stroke="black" cx="294" cy="-45" rx="18" ry="18"/>
<ellipse fill="none" stroke="black" cx="294" cy="-45" rx="22" ry="22"/>
<text text-anchor="middle" x="294" y="-41.3" font-family="Times,serif" font-size="14.00">4</text>
</g>
<!-- 2&#45;&gt;4 -->
<g id="edge4" class="edge">
<title>2&#45;&gt;4</title>
<path fill="none" stroke="black" d="M201.88,-67.78C217.67,-63.83 241.68,-57.83 261.09,-52.98"/>
<polygon fill="black" stroke="black" points="261.86,-56.39 270.71,-50.57 260.16,-49.6 261.86,-56.39"/>
<text text-anchor="middle" x="237" y="-66.8" font-family="Times,serif" font-size="14.00">eps:eps</text>
</g>
<!-- 3&#45;&gt;4 -->
<g id="edge5" class="edge">
<title>3&#45;&gt;4</title>
<path fill="none" stroke="black" d="M201.92,-21.8C216.54,-25.13 238.22,-30.18 257,-35 258.57,-35.4 260.18,-35.82 261.8,-36.25"/>
<polygon fill="black" stroke="black" points="260.45,-39.51 271.02,-38.75 262.28,-32.76 260.45,-39.51"/>
<text text-anchor="middle" x="237" y="-38.8" font-family="Times,serif" font-size="14.00">eps:eps</text>
</g>
</g>
</svg>
