<?xml version="1.0" encoding="UTF-8" standalone="no"?>
<!DOCTYPE svg PUBLIC "-//W3C//DTD SVG 1.1//EN"
 "http://www.w3.org/Graphics/SVG/1.1/DTD/svg11.dtd">
<!-- Generated by graphviz version 2.43.0 (0)
 -->
<!-- Title: FST Pages: 1 -->
<svg width="350pt" height="98pt"
 viewBox="0.00 0.00 350.00 98.00" xmlns="http://www.w3.org/2000/svg" xmlns:xlink="http://www.w3.org/1999/xlink">
<g id="graph0" class="graph" transform="scale(1 1) rotate(0) translate(4 94)">
<title>FST</title>
<polygon fill="white" stroke="transparent" points="-4,4 -4,-94 346,-94 346,4 -4,4"/>
<!-- 0 -->
<g id="node1" class="node">
<title>0</title>
<ellipse fill="none" stroke="black" stroke-width="2" cx="18" cy="-45" rx="18" ry="18"/>
<text text-anchor="middle" x="18" y="-41.3" font-family="Times,serif" font-size="14.00">0</text>
</g>
<!-- 1 -->
<g id="node2" class="node">
<title>1</title>
<ellipse fill="none" stroke="black" cx="106" cy="-45" rx="18" ry="18"/>
<text text-anchor="middle" x="106" y="-41.3" font-family="Times,serif" font-size="14.00">1</text>
</g>
<!-- 0&#45;&gt;1 -->
<g id="edge1" class="edge">
<title>0&#45;&gt;1</title>
<path fill="none" stroke="black" d="M36.4,-45C48.25,-45 64.18,-45 77.71,-45"/>
<polygon fill="black" stroke="black" points="77.92,-48.5 87.92,-45 77.92,-41.5 77.92,-48.5"/>
<text text-anchor="middle" x="62" y="-48.8" font-family="Times,serif" font-size="14.00">a:a</text>
</g>
<!-- 2 -->
<g id="node3" class="node">
<title>2</title>
<ellipse fill="none" stroke="black" cx="195" cy="-72" rx="18" ry="18"/>
<text text-anchor="middle" x="195" y="-68.3" font-family="Times,serif" font-size="14.00">2</text>
</g>
<!-- 1&#45;&gt;2 -->
<g id="edge2" class="edge">
<title>1&#45;&gt;2</title>
<path fill="none" stroke="black" d="M123.36,-50.08C135.88,-53.96 153.39,-59.4 167.84,-63.88"/>
<polygon fill="black" stroke="black" points="167.12,-67.32 177.71,-66.94 169.2,-60.64 167.12,-67.32"/>
<text text-anchor="middle" x="150.5" y="-64.8" font-family="Times,serif" font-size="14.00">b:b</text>
</g>
<!-- 3 -->
<g id="node4" class="node">
<title>3</title>
<ellipse fill="none" stroke="black" cx="195" cy="-18" rx="18" ry="18"/>
<text text-anchor="middle" x="195" y="-14.3" font-family="Times,serif" font-size="14.00">3</text>
</g>
<!-- 1&#45;&gt;3 -->
<g id="edge3" class="edge">
<title>1&#45;&gt;3</title>
<path fill="none" stroke="black" d="M123.36,-39.92C135.88,-36.04 153.39,-30.6 167.84,-26.12"/>
<polygon fill="black" stroke="black" points="169.2,-29.36 177.71,-23.06 167.12,-22.68 169.2,-29.36"/>
<text text-anchor="middle" x="150.5" y="-37.8" font-family="Times,serif" font-size="14.00">c:c</text>
</g>
<!-- 4 -->
<g id="node5" class="node">
<title>4</title>
<ellipse fill="none" stroke="black" cx="320" cy="-45" rx="18" ry="18"/>
<ellipse fill="none" stroke="black" cx="320" cy="-45" rx="22" ry="22"/>
<text text-anchor="middle" x="320" y="-41.3" font-family="Times,serif" font-size="14.00">4</text>
</g>
<!-- 2&#45;&gt;4 -->
<g id="edge4" class="edge">
<title>2&#45;&gt;4</title>
<path fill="none" stroke="black" d="M212.84,-68.3C232.22,-64.05 264.41,-56.98 288.28,-51.74"/>
<polygon fill="black" stroke="black" points="289.24,-55.12 298.26,-49.55 287.74,-48.28 289.24,-55.12"/>
<text text-anchor="middle" x="255.5" y="-67.8" font-family="Times,serif" font-size="14.00">eps:eps</text>
</g>
<!-- 3&#45;&gt;4 -->
<g id="edge5" class="edge">
<title>3&#45;&gt;4</title>
<path fill="none" stroke="black" d="M213.16,-20.18C230.83,-22.6 259.07,-26.98 283,-33 285.05,-33.51 287.14,-34.09 289.25,-34.7"/>
<polygon fill="black" stroke="black" points="288.39,-38.1 298.98,-37.73 290.47,-31.41 288.39,-38.1"/>
<text text-anchor="middle" x="255.5" y="-36.8" font-family="Times,serif" font-size="14.00">eps:eps</text>
</g>
</g>
</svg>
