<?xml version="1.0" encoding="UTF-8" standalone="no"?>
<!DOCTYPE svg PUBLIC "-//W3C//DTD SVG 1.1//EN"
 "http://www.w3.org/Graphics/SVG/1.1/DTD/svg11.dtd">
<!-- Generated by graphviz version 7.0.4 (20221203.1631)
 -->
<!-- Title: FST Pages: 1 -->
<svg width="251pt" height="109pt"
 viewBox="0.00 0.00 251.00 109.00" xmlns="http://www.w3.org/2000/svg" xmlns:xlink="http://www.w3.org/1999/xlink">
<g id="graph0" class="graph" transform="scale(1 1) rotate(0) translate(4 105)">
<title>FST</title>
<polygon fill="white" stroke="none" points="-4,4 -4,-105 247,-105 247,4 -4,4"/>
<!-- 0 -->
<g id="node1" class="node">
<title>0</title>
<ellipse fill="none" stroke="black" stroke-width="2" cx="18" cy="-56" rx="18" ry="18"/>
<text text-anchor="middle" x="18" y="-52.3" font-family="Times,serif" font-size="14.00">0</text>
</g>
<!-- 1 -->
<g id="node2" class="node">
<title>1</title>
<ellipse fill="none" stroke="black" cx="124" cy="-83" rx="18" ry="18"/>
<text text-anchor="middle" x="124" y="-79.3" font-family="Times,serif" font-size="14.00">1</text>
</g>
<!-- 0&#45;&gt;1 -->
<g id="edge1" class="edge">
<title>0&#45;&gt;1</title>
<path fill="none" stroke="black" d="M34.22,-64.82C39.4,-67.49 45.32,-70.19 51,-72 64.93,-76.43 80.97,-79.1 94.36,-80.7"/>
<polygon fill="black" stroke="black" points="93.97,-84.18 104.28,-81.73 94.69,-77.21 93.97,-84.18"/>
<text text-anchor="middle" x="71" y="-83.8" font-family="Times,serif" font-size="14.00">a:p/1</text>
</g>
<!-- 0&#45;&gt;1 -->
<g id="edge3" class="edge">
<title>0&#45;&gt;1</title>
<path fill="none" stroke="black" d="M35.94,-51.52C50.96,-48.41 73.2,-45.96 91,-53 95.83,-54.91 100.36,-57.93 104.4,-61.34"/>
<polygon fill="black" stroke="black" points="101.72,-63.61 111.33,-68.07 106.6,-58.59 101.72,-63.61"/>
<text text-anchor="middle" x="71" y="-56.8" font-family="Times,serif" font-size="14.00">eps:q/3</text>
</g>
<!-- 2 -->
<g id="node3" class="node">
<title>2</title>
<ellipse fill="none" stroke="black" cx="124" cy="-18" rx="18" ry="18"/>
<text text-anchor="middle" x="124" y="-14.3" font-family="Times,serif" font-size="14.00">2</text>
</g>
<!-- 0&#45;&gt;2 -->
<g id="edge2" class="edge">
<title>0&#45;&gt;2</title>
<path fill="none" stroke="black" d="M30.95,-43.18C36.54,-37.95 43.59,-32.37 51,-29 64.54,-22.85 80.82,-20.03 94.48,-18.78"/>
<polygon fill="black" stroke="black" points="94.41,-22.29 104.16,-18.14 93.95,-15.31 94.41,-22.29"/>
<text text-anchor="middle" x="71" y="-32.8" font-family="Times,serif" font-size="14.00">a:q/2</text>
</g>
<!-- 3 -->
<g id="node4" class="node">
<title>3</title>
<ellipse fill="none" stroke="black" cx="221" cy="-56" rx="18" ry="18"/>
<ellipse fill="none" stroke="black" cx="221" cy="-56" rx="22" ry="22"/>
<text text-anchor="middle" x="221" y="-52.3" font-family="Times,serif" font-size="14.00">3</text>
</g>
<!-- 1&#45;&gt;3 -->
<g id="edge4" class="edge">
<title>1&#45;&gt;3</title>
<path fill="none" stroke="black" d="M142.3,-80.86C154.2,-79.13 170.27,-76.27 184,-72 186.11,-71.35 188.25,-70.6 190.4,-69.8"/>
<polygon fill="black" stroke="black" points="191.57,-73.1 199.49,-66.06 188.91,-66.63 191.57,-73.1"/>
<text text-anchor="middle" x="170.5" y="-81.8" font-family="Times,serif" font-size="14.00">c:r/5</text>
</g>
<!-- 1&#45;&gt;3 -->
<g id="edge5" class="edge">
<title>1&#45;&gt;3</title>
<path fill="none" stroke="black" d="M135.59,-69.13C141.19,-62.94 148.64,-56.3 157,-53 166.59,-49.21 177.64,-48.61 187.79,-49.37"/>
<polygon fill="black" stroke="black" points="187.29,-52.84 197.65,-50.59 188.15,-45.89 187.29,-52.84"/>
<text text-anchor="middle" x="170.5" y="-56.8" font-family="Times,serif" font-size="14.00">c:r/4</text>
</g>
<!-- 2&#45;&gt;3 -->
<g id="edge6" class="edge">
<title>2&#45;&gt;3</title>
<path fill="none" stroke="black" d="M142.37,-19.57C154.44,-21.13 170.69,-24.17 184,-30 187.46,-31.52 190.91,-33.4 194.24,-35.47"/>
<polygon fill="black" stroke="black" points="192.23,-38.33 202.45,-41.12 196.2,-32.57 192.23,-38.33"/>
<text text-anchor="middle" x="170.5" y="-33.8" font-family="Times,serif" font-size="14.00">d:s/6</text>
</g>
</g>
</svg>
