<?xml version="1.0" encoding="UTF-8" standalone="no"?>
<!DOCTYPE svg PUBLIC "-//W3C//DTD SVG 1.1//EN"
 "http://www.w3.org/Graphics/SVG/1.1/DTD/svg11.dtd">
<!-- Generated by graphviz version 2.43.0 (0)
 -->
<!-- Title: FST Pages: 1 -->
<svg width="231pt" height="78pt"
 viewBox="0.00 0.00 230.79 78.39" xmlns="http://www.w3.org/2000/svg" xmlns:xlink="http://www.w3.org/1999/xlink">
<g id="graph0" class="graph" transform="scale(1 1) rotate(0) translate(4 74.39)">
<title>FST</title>
<polygon fill="white" stroke="transparent" points="-4,4 -4,-74.39 226.79,-74.39 226.79,4 -4,4"/>
<!-- 0 -->
<g id="node1" class="node">
<title>0</title>
<ellipse fill="none" stroke="black" stroke-width="2" cx="35.2" cy="-35.2" rx="31.37" ry="31.37"/>
<ellipse fill="none" stroke="black" stroke-width="2" cx="35.2" cy="-35.2" rx="35.4" ry="35.4"/>
<text text-anchor="middle" x="35.2" y="-31.5" font-family="Times,serif" font-size="14.00">0/18</text>
</g>
<!-- 1 -->
<g id="node2" class="node">
<title>1</title>
<ellipse fill="none" stroke="black" cx="187.59" cy="-35.2" rx="31.37" ry="31.37"/>
<ellipse fill="none" stroke="black" cx="187.59" cy="-35.2" rx="35.4" ry="35.4"/>
<text text-anchor="middle" x="187.59" y="-31.5" font-family="Times,serif" font-size="14.00">1/13</text>
</g>
<!-- 0&#45;&gt;1 -->
<g id="edge1" class="edge">
<title>0&#45;&gt;1</title>
<path fill="none" stroke="black" d="M70.7,-35.2C91.91,-35.2 119.3,-35.2 142.12,-35.2"/>
<polygon fill="black" stroke="black" points="142.25,-38.7 152.25,-35.2 142.25,-31.7 142.25,-38.7"/>
<text text-anchor="middle" x="111.39" y="-39" font-family="Times,serif" font-size="14.00">eps:p/4</text>
</g>
<!-- 0&#45;&gt;1 -->
<g id="edge2" class="edge">
<title>0&#45;&gt;1</title>
<path fill="none" stroke="black" d="M67.72,-21.07C73.49,-19.05 79.54,-17.29 85.39,-16.2 108.11,-11.96 114.67,-11.96 137.39,-16.2 140.05,-16.69 142.74,-17.32 145.43,-18.05"/>
<polygon fill="black" stroke="black" points="144.48,-21.43 155.07,-21.07 146.57,-14.75 144.48,-21.43"/>
<text text-anchor="middle" x="111.39" y="-20" font-family="Times,serif" font-size="14.00">a:eps/3</text>
</g>
</g>
</svg>
