<?xml version="1.0" encoding="UTF-8" standalone="no"?>
<!DOCTYPE svg PUBLIC "-//W3C//DTD SVG 1.1//EN"
 "http://www.w3.org/Graphics/SVG/1.1/DTD/svg11.dtd">
<!-- Generated by graphviz version 8.1.0 (20230707.0739)
 -->
<!-- Title: FST Pages: 1 -->
<svg width="410pt" height="90pt"
 viewBox="0.00 0.00 410.13 90.38" xmlns="http://www.w3.org/2000/svg" xmlns:xlink="http://www.w3.org/1999/xlink">
<g id="graph0" class="graph" transform="scale(1 1) rotate(0) translate(4 86.38)">
<title>FST</title>
<polygon fill="white" stroke="none" points="-4,4 -4,-86.38 406.13,-86.38 406.13,4 -4,4"/>
<!-- 0 -->
<g id="node1" class="node">
<title>0</title>
<ellipse fill="none" stroke="black" stroke-width="2" cx="18" cy="-29.88" rx="18" ry="18"/>
<text text-anchor="middle" x="18" y="-24.83" font-family="Times,serif" font-size="14.00">0</text>
</g>
<!-- 1 -->
<g id="node2" class="node">
<title>1</title>
<ellipse fill="none" stroke="black" cx="134.25" cy="-29.88" rx="18" ry="18"/>
<text text-anchor="middle" x="134.25" y="-24.83" font-family="Times,serif" font-size="14.00">1</text>
</g>
<!-- 0&#45;&gt;1 -->
<g id="edge1" class="edge">
<title>0&#45;&gt;1</title>
<path fill="none" stroke="black" d="M36.35,-29.88C54.66,-29.88 83.79,-29.88 105.33,-29.88"/>
<polygon fill="black" stroke="black" points="105.11,-33.38 115.11,-29.88 105.11,-26.38 105.11,-33.38"/>
<text text-anchor="middle" x="76.12" y="-33.08" font-family="Times,serif" font-size="14.00">eps:eps/1</text>
</g>
<!-- 2 -->
<g id="node3" class="node">
<title>2</title>
<ellipse fill="none" stroke="black" cx="250.5" cy="-29.88" rx="18" ry="18"/>
<text text-anchor="middle" x="250.5" y="-24.83" font-family="Times,serif" font-size="14.00">2</text>
</g>
<!-- 1&#45;&gt;2 -->
<g id="edge2" class="edge">
<title>1&#45;&gt;2</title>
<path fill="none" stroke="black" d="M149.55,-39.98C154.85,-43.16 161.08,-46.26 167.25,-47.88 188.85,-53.53 195.9,-53.53 217.5,-47.88 220.2,-47.17 222.91,-46.18 225.55,-45.02"/>
<polygon fill="black" stroke="black" points="226.96,-47.71 234.2,-39.98 223.72,-41.51 226.96,-47.71"/>
<text text-anchor="middle" x="192.38" y="-55.08" font-family="Times,serif" font-size="14.00">a:eps/2</text>
</g>
<!-- 1&#45;&gt;2 -->
<g id="edge3" class="edge">
<title>1&#45;&gt;2</title>
<path fill="none" stroke="black" d="M152.51,-28.28C157.28,-27.91 162.46,-27.56 167.25,-27.38 189.57,-26.51 195.18,-26.51 217.5,-27.38 218.85,-27.43 220.22,-27.49 221.62,-27.57"/>
<polygon fill="black" stroke="black" points="221.03,-31.1 231.24,-28.28 221.5,-24.12 221.03,-31.1"/>
<text text-anchor="middle" x="192.38" y="-30.08" font-family="Times,serif" font-size="14.00">eps:p/3</text>
</g>
<!-- 1&#45;&gt;2 -->
<g id="edge4" class="edge">
<title>1&#45;&gt;2</title>
<path fill="none" stroke="black" d="M147.49,-17.47C153.03,-12.72 159.96,-7.85 167.25,-5.38 188.4,1.79 196.35,1.79 217.5,-5.38 221.37,-6.69 225.14,-8.68 228.66,-10.97"/>
<polygon fill="black" stroke="black" points="226.17,-14.23 236.26,-17.47 230.39,-8.65 226.17,-14.23"/>
<text text-anchor="middle" x="192.38" y="-8.08" font-family="Times,serif" font-size="14.00">eps:eps/4</text>
</g>
<!-- 2&#45;&gt;2 -->
<g id="edge5" class="edge">
<title>2&#45;&gt;2</title>
<path fill="none" stroke="black" d="M240.56,-45.42C237.76,-55.78 241.08,-65.88 250.5,-65.88 256.54,-65.88 260.07,-61.73 261.09,-56.03"/>
<polygon fill="black" stroke="black" points="264.54,-56.18 260.44,-46.42 257.55,-56.61 264.54,-56.18"/>
<text text-anchor="middle" x="250.5" y="-69.08" font-family="Times,serif" font-size="14.00">eps:eps/5</text>
</g>
<!-- 3 -->
<g id="node4" class="node">
<title>3</title>
<ellipse fill="none" stroke="black" cx="375.44" cy="-29.88" rx="22.69" ry="22.69"/>
<ellipse fill="none" stroke="black" cx="375.44" cy="-29.88" rx="26.69" ry="26.69"/>
<text text-anchor="middle" x="375.44" y="-24.83" font-family="Times,serif" font-size="14.00">3/7</text>
</g>
<!-- 2&#45;&gt;3 -->
<g id="edge6" class="edge">
<title>2&#45;&gt;3</title>
<path fill="none" stroke="black" d="M268.85,-29.88C286.71,-29.88 315.08,-29.88 337.91,-29.88"/>
<polygon fill="black" stroke="black" points="337.61,-33.38 347.61,-29.88 337.61,-26.38 337.61,-33.38"/>
<text text-anchor="middle" x="308.62" y="-33.08" font-family="Times,serif" font-size="14.00">eps:eps/6</text>
</g>
</g>
</svg>
