<?xml version="1.0" encoding="UTF-8" standalone="no"?>
<!DOCTYPE svg PUBLIC "-//W3C//DTD SVG 1.1//EN"
 "http://www.w3.org/Graphics/SVG/1.1/DTD/svg11.dtd">
<!-- Generated by graphviz version 8.1.0 (20230707.0739)
 -->
<!-- Title: FST Pages: 1 -->
<svg width="298pt" height="76pt"
 viewBox="0.00 0.00 297.71 75.71" xmlns="http://www.w3.org/2000/svg" xmlns:xlink="http://www.w3.org/1999/xlink">
<g id="graph0" class="graph" transform="scale(1 1) rotate(0) translate(4 71.71)">
<title>FST</title>
<polygon fill="white" stroke="none" points="-4,4 -4,-71.71 293.71,-71.71 293.71,4 -4,4"/>
<!-- 0 -->
<g id="node1" class="node">
<title>0</title>
<ellipse fill="none" stroke="black" stroke-width="2" cx="18" cy="-33.86" rx="18" ry="18"/>
<text text-anchor="middle" x="18" y="-28.81" font-family="Times,serif" font-size="14.00">0</text>
</g>
<!-- 1 -->
<g id="node2" class="node">
<title>1</title>
<ellipse fill="none" stroke="black" cx="129" cy="-33.86" rx="18" ry="18"/>
<text text-anchor="middle" x="129" y="-28.81" font-family="Times,serif" font-size="14.00">1</text>
</g>
<!-- 0&#45;&gt;1 -->
<g id="edge1" class="edge">
<title>0&#45;&gt;1</title>
<path fill="none" stroke="black" d="M36.03,-33.86C53.13,-33.86 79.76,-33.86 99.98,-33.86"/>
<polygon fill="black" stroke="black" points="99.73,-37.36 109.73,-33.86 99.73,-30.36 99.73,-37.36"/>
<text text-anchor="middle" x="73.5" y="-37.06" font-family="Times,serif" font-size="14.00">1:10/1.5</text>
</g>
<!-- 2 -->
<g id="node3" class="node">
<title>2</title>
<ellipse fill="none" stroke="black" cx="255.86" cy="-33.86" rx="29.86" ry="29.86"/>
<ellipse fill="none" stroke="black" cx="255.86" cy="-33.86" rx="33.86" ry="33.86"/>
<text text-anchor="middle" x="255.86" y="-28.81" font-family="Times,serif" font-size="14.00">2/0.3</text>
</g>
<!-- 1&#45;&gt;2 -->
<g id="edge2" class="edge">
<title>1&#45;&gt;2</title>
<path fill="none" stroke="black" d="M147.36,-33.86C163.75,-33.86 189.03,-33.86 210.95,-33.86"/>
<polygon fill="black" stroke="black" points="210.71,-37.36 220.71,-33.86 210.71,-30.36 210.71,-37.36"/>
<text text-anchor="middle" x="184.5" y="-37.06" font-family="Times,serif" font-size="14.00">2:20/2.5</text>
</g>
</g>
</svg>
