<?xml version="1.0" encoding="UTF-8" standalone="no"?>
<!DOCTYPE svg PUBLIC "-//W3C//DTD SVG 1.1//EN"
 "http://www.w3.org/Graphics/SVG/1.1/DTD/svg11.dtd">
<!-- Generated by graphviz version 2.43.0 (0)
 -->
<!-- Title: FST Pages: 1 -->
<svg width="469pt" height="90pt"
 viewBox="0.00 0.00 468.70 90.17" xmlns="http://www.w3.org/2000/svg" xmlns:xlink="http://www.w3.org/1999/xlink">
<g id="graph0" class="graph" transform="scale(1 1) rotate(0) translate(4 86.17)">
<title>FST</title>
<polygon fill="white" stroke="transparent" points="-4,4 -4,-86.17 464.7,-86.17 464.7,4 -4,4"/>
<!-- 0 -->
<g id="node1" class="node">
<title>0</title>
<ellipse fill="none" stroke="black" stroke-width="2" cx="18" cy="-31.17" rx="18" ry="18"/>
<text text-anchor="middle" x="18" y="-27.47" font-family="Times,serif" font-size="14.00">0</text>
</g>
<!-- 1 -->
<g id="node2" class="node">
<title>1</title>
<ellipse fill="none" stroke="black" cx="152" cy="-31.17" rx="18" ry="18"/>
<text text-anchor="middle" x="152" y="-27.47" font-family="Times,serif" font-size="14.00">1</text>
</g>
<!-- 0&#45;&gt;1 -->
<g id="edge1" class="edge">
<title>0&#45;&gt;1</title>
<path fill="none" stroke="black" d="M36.26,-31.17C58.49,-31.17 97.4,-31.17 123.68,-31.17"/>
<polygon fill="black" stroke="black" points="123.74,-34.67 133.74,-31.17 123.74,-27.67 123.74,-34.67"/>
<text text-anchor="middle" x="85" y="-34.97" font-family="Times,serif" font-size="14.00">eps:eps/1</text>
</g>
<!-- 2 -->
<g id="node3" class="node">
<title>2</title>
<ellipse fill="none" stroke="black" cx="286" cy="-31.17" rx="18" ry="18"/>
<text text-anchor="middle" x="286" y="-27.47" font-family="Times,serif" font-size="14.00">2</text>
</g>
<!-- 1&#45;&gt;2 -->
<g id="edge2" class="edge">
<title>1&#45;&gt;2</title>
<path fill="none" stroke="black" d="M167.75,-40.33C173,-43.1 179.08,-45.77 185,-47.17 214.41,-54.11 223.59,-54.11 253,-47.17 255.68,-46.53 258.4,-45.64 261.06,-44.59"/>
<polygon fill="black" stroke="black" points="262.65,-47.71 270.25,-40.33 259.7,-41.36 262.65,-47.71"/>
<text text-anchor="middle" x="219" y="-55.97" font-family="Times,serif" font-size="14.00">a:eps/2</text>
</g>
<!-- 1&#45;&gt;2 -->
<g id="edge3" class="edge">
<title>1&#45;&gt;2</title>
<path fill="none" stroke="black" d="M169.92,-29.28C174.78,-28.82 180.1,-28.4 185,-28.17 215.19,-26.76 222.81,-26.76 253,-28.17 254.53,-28.24 256.11,-28.33 257.69,-28.44"/>
<polygon fill="black" stroke="black" points="257.83,-31.96 268.08,-29.28 258.4,-24.98 257.83,-31.96"/>
<text text-anchor="middle" x="219" y="-31.97" font-family="Times,serif" font-size="14.00">eps:p/3</text>
</g>
<!-- 1&#45;&gt;2 -->
<g id="edge4" class="edge">
<title>1&#45;&gt;2</title>
<path fill="none" stroke="black" d="M165.28,-19.01C170.83,-14.35 177.75,-9.58 185,-7.17 213.67,2.39 224.33,2.39 253,-7.17 256.96,-8.49 260.83,-10.51 264.43,-12.84"/>
<polygon fill="black" stroke="black" points="262.61,-15.85 272.72,-19.01 266.79,-10.23 262.61,-15.85"/>
<text text-anchor="middle" x="219" y="-10.97" font-family="Times,serif" font-size="14.00">eps:eps/4</text>
</g>
<!-- 2&#45;&gt;2 -->
<g id="edge5" class="edge">
<title>2&#45;&gt;2</title>
<path fill="none" stroke="black" d="M275.09,-45.58C271.28,-56.33 274.91,-67.17 286,-67.17 293.45,-67.17 297.53,-62.28 298.26,-55.81"/>
<polygon fill="black" stroke="black" points="301.69,-55.04 296.91,-45.58 294.75,-55.96 301.69,-55.04"/>
<text text-anchor="middle" x="286" y="-70.97" font-family="Times,serif" font-size="14.00">eps:eps/5</text>
</g>
<!-- 3 -->
<g id="node4" class="node">
<title>3</title>
<ellipse fill="none" stroke="black" cx="431.35" cy="-31.17" rx="25.22" ry="25.22"/>
<ellipse fill="none" stroke="black" cx="431.35" cy="-31.17" rx="29.2" ry="29.2"/>
<text text-anchor="middle" x="431.35" y="-27.47" font-family="Times,serif" font-size="14.00">3/7</text>
</g>
<!-- 2&#45;&gt;3 -->
<g id="edge6" class="edge">
<title>2&#45;&gt;3</title>
<path fill="none" stroke="black" d="M304.01,-31.17C325.47,-31.17 363.05,-31.17 391.66,-31.17"/>
<polygon fill="black" stroke="black" points="391.74,-34.67 401.74,-31.17 391.74,-27.67 391.74,-34.67"/>
<text text-anchor="middle" x="353" y="-34.97" font-family="Times,serif" font-size="14.00">eps:eps/6</text>
</g>
</g>
</svg>
