<?xml version="1.0" encoding="UTF-8" standalone="no"?>
<!DOCTYPE svg PUBLIC "-//W3C//DTD SVG 1.1//EN"
 "http://www.w3.org/Graphics/SVG/1.1/DTD/svg11.dtd">
<!-- Generated by graphviz version 9.0.0 (20230911.1827)
 -->
<!-- Title: FST Pages: 1 -->
<svg width="248pt" height="152pt"
 viewBox="0.00 0.00 248.13 151.69" xmlns="http://www.w3.org/2000/svg" xmlns:xlink="http://www.w3.org/1999/xlink">
<g id="graph0" class="graph" transform="scale(1 1) rotate(0) translate(4 147.69)">
<title>FST</title>
<polygon fill="white" stroke="none" points="-4,4 -4,-147.69 244.13,-147.69 244.13,4 -4,4"/>
<!-- 0 -->
<g id="node1" class="node">
<title>0</title>
<ellipse fill="none" stroke="black" stroke-width="2" cx="18" cy="-66" rx="18" ry="18"/>
<text text-anchor="middle" x="18" y="-60.95" font-family="Times,serif" font-size="14.00">0</text>
</g>
<!-- 1 -->
<g id="node2" class="node">
<title>1</title>
<ellipse fill="none" stroke="black" cx="111" cy="-106" rx="18" ry="18"/>
<text text-anchor="middle" x="111" y="-100.95" font-family="Times,serif" font-size="14.00">1</text>
</g>
<!-- 0&#45;&gt;1 -->
<g id="edge1" class="edge">
<title>0&#45;&gt;1</title>
<path fill="none" stroke="black" d="M23.45,-83.64C27.94,-97.31 36.34,-115.35 51,-124 61.76,-130.35 74.97,-127.17 86.16,-121.83"/>
<polygon fill="black" stroke="black" points="87.77,-124.94 94.81,-117.02 84.37,-118.83 87.77,-124.94"/>
<text text-anchor="middle" x="64.5" y="-130.2" font-family="Times,serif" font-size="14.00">a:a/2</text>
</g>
<!-- 0&#45;&gt;1 -->
<g id="edge2" class="edge">
<title>0&#45;&gt;1</title>
<path fill="none" stroke="black" d="M34.05,-75.1C39.32,-78.12 45.33,-81.37 51,-84 61.16,-88.72 72.63,-93.18 82.75,-96.84"/>
<polygon fill="black" stroke="black" points="81.42,-100.08 92.01,-100.1 83.74,-93.48 81.42,-100.08"/>
<text text-anchor="middle" x="64.5" y="-97.2" font-family="Times,serif" font-size="14.00">b:a/2</text>
</g>
<!-- 0&#45;&gt;1 -->
<g id="edge3" class="edge">
<title>0&#45;&gt;1</title>
<path fill="none" stroke="black" d="M35.67,-61.14C48.01,-58.5 64.88,-56.96 78,-63.5 85.61,-67.3 91.89,-73.87 96.81,-80.72"/>
<polygon fill="black" stroke="black" points="93.57,-82.14 101.86,-88.73 99.49,-78.4 93.57,-82.14"/>
<text text-anchor="middle" x="64.5" y="-66.2" font-family="Times,serif" font-size="14.00">c:a/3</text>
</g>
<!-- 2 -->
<g id="node3" class="node">
<title>2</title>
<ellipse fill="none" stroke="black" cx="111" cy="-18" rx="18" ry="18"/>
<text text-anchor="middle" x="111" y="-12.95" font-family="Times,serif" font-size="14.00">2</text>
</g>
<!-- 0&#45;&gt;2 -->
<g id="edge4" class="edge">
<title>0&#45;&gt;2</title>
<path fill="none" stroke="black" d="M31.13,-53.05C36.76,-47.64 43.78,-41.66 51,-37.5 60.57,-31.98 71.93,-27.75 82.11,-24.67"/>
<polygon fill="black" stroke="black" points="82.79,-28.11 91.5,-22.07 80.92,-21.37 82.79,-28.11"/>
<text text-anchor="middle" x="64.5" y="-41.2" font-family="Times,serif" font-size="14.00">d:a/3</text>
</g>
<!-- 0&#45;&gt;2 -->
<g id="edge5" class="edge">
<title>0&#45;&gt;2</title>
<path fill="none" stroke="black" d="M23.15,-48.49C27.51,-34.4 35.9,-15.53 51,-6.5 60.91,-0.58 73.26,-1.92 84.11,-5.35"/>
<polygon fill="black" stroke="black" points="82.69,-8.56 93.28,-8.92 85.23,-2.03 82.69,-8.56"/>
<text text-anchor="middle" x="64.5" y="-10.2" font-family="Times,serif" font-size="14.00">f:a/1</text>
</g>
<!-- 3 -->
<g id="node4" class="node">
<title>3</title>
<ellipse fill="none" stroke="black" cx="213.44" cy="-117" rx="22.69" ry="22.69"/>
<ellipse fill="none" stroke="black" cx="213.44" cy="-117" rx="26.69" ry="26.69"/>
<text text-anchor="middle" x="213.44" y="-111.95" font-family="Times,serif" font-size="14.00">3/1</text>
</g>
<!-- 1&#45;&gt;3 -->
<g id="edge6" class="edge">
<title>1&#45;&gt;3</title>
<path fill="none" stroke="black" d="M127.96,-113.27C132.99,-115.2 138.63,-117.03 144,-118 154,-119.81 164.96,-120.3 175.12,-120.15"/>
<polygon fill="black" stroke="black" points="175.2,-123.65 185.06,-119.78 174.93,-116.66 175.2,-123.65"/>
<text text-anchor="middle" x="157.88" y="-123.2" font-family="Times,serif" font-size="14.00">f:b/3</text>
</g>
<!-- 1&#45;&gt;3 -->
<g id="edge7" class="edge">
<title>1&#45;&gt;3</title>
<path fill="none" stroke="black" d="M128.62,-100.41C140.68,-97.14 157.34,-94.23 171.75,-97.5 174.23,-98.06 176.74,-98.8 179.23,-99.65"/>
<polygon fill="black" stroke="black" points="177.87,-102.88 188.45,-103.42 180.52,-96.4 177.87,-102.88"/>
<text text-anchor="middle" x="157.88" y="-100.2" font-family="Times,serif" font-size="14.00">g:b/2</text>
</g>
<!-- 4 -->
<g id="node5" class="node">
<title>4</title>
<ellipse fill="none" stroke="black" cx="213.44" cy="-34" rx="22.69" ry="22.69"/>
<ellipse fill="none" stroke="black" cx="213.44" cy="-34" rx="26.69" ry="26.69"/>
<text text-anchor="middle" x="213.44" y="-28.95" font-family="Times,serif" font-size="14.00">4/3</text>
</g>
<!-- 2&#45;&gt;4 -->
<g id="edge8" class="edge">
<title>2&#45;&gt;4</title>
<path fill="none" stroke="black" d="M129.04,-20.71C141.74,-22.74 159.56,-25.58 175.48,-28.11"/>
<polygon fill="black" stroke="black" points="174.7,-31.53 185.13,-29.65 175.81,-24.62 174.7,-31.53"/>
<text text-anchor="middle" x="157.88" y="-31.2" font-family="Times,serif" font-size="14.00">f:c/5</text>
</g>
<!-- 2&#45;&gt;4 -->
<g id="edge9" class="edge">
<title>2&#45;&gt;4</title>
<path fill="none" stroke="black" d="M127.17,-9.54C132.35,-7.08 138.28,-4.74 144,-3.5 156.06,-0.9 160.05,0.4 171.75,-3.5 176.06,-4.93 180.27,-7.02 184.26,-9.44"/>
<polygon fill="black" stroke="black" points="182.19,-12.26 192.4,-15.1 186.19,-6.52 182.19,-12.26"/>
<text text-anchor="middle" x="157.88" y="-7.2" font-family="Times,serif" font-size="14.00">g:c/4</text>
</g>
</g>
</svg>
