<?xml version="1.0" encoding="UTF-8" standalone="no"?>
<!DOCTYPE svg PUBLIC "-//W3C//DTD SVG 1.1//EN"
 "http://www.w3.org/Graphics/SVG/1.1/DTD/svg11.dtd">
<!-- Generated by graphviz version 9.0.0 (20230911.1827)
 -->
<!-- Title: FST Pages: 1 -->
<svg width="202pt" height="71pt"
 viewBox="0.00 0.00 202.19 70.59" xmlns="http://www.w3.org/2000/svg" xmlns:xlink="http://www.w3.org/1999/xlink">
<g id="graph0" class="graph" transform="scale(1 1) rotate(0) translate(4 66.59)">
<title>FST</title>
<polygon fill="white" stroke="none" points="-4,4 -4,-66.59 198.19,-66.59 198.19,4 -4,4"/>
<!-- 0 -->
<g id="node1" class="node">
<title>0</title>
<ellipse fill="none" stroke="black" stroke-width="2" cx="31.3" cy="-31.3" rx="27.3" ry="27.3"/>
<ellipse fill="none" stroke="black" stroke-width="2" cx="31.3" cy="-31.3" rx="31.3" ry="31.3"/>
<text text-anchor="middle" x="31.3" y="-26.25" font-family="Times,serif" font-size="14.00">0/18</text>
</g>
<!-- 1 -->
<g id="node2" class="node">
<title>1</title>
<ellipse fill="none" stroke="black" cx="162.89" cy="-31.3" rx="27.3" ry="27.3"/>
<ellipse fill="none" stroke="black" cx="162.89" cy="-31.3" rx="31.3" ry="31.3"/>
<text text-anchor="middle" x="162.89" y="-26.25" font-family="Times,serif" font-size="14.00">1/13</text>
</g>
<!-- 0&#45;&gt;1 -->
<g id="edge1" class="edge">
<title>0&#45;&gt;1</title>
<path fill="none" stroke="black" d="M63.01,-31.3C80.03,-31.3 101.45,-31.3 120,-31.3"/>
<polygon fill="black" stroke="black" points="119.88,-34.8 129.88,-31.3 119.88,-27.8 119.88,-34.8"/>
<text text-anchor="middle" x="97.09" y="-34.5" font-family="Times,serif" font-size="14.00">eps:p/4</text>
</g>
<!-- 0&#45;&gt;1 -->
<g id="edge2" class="edge">
<title>0&#45;&gt;1</title>
<path fill="none" stroke="black" d="M59.44,-16.78C65.28,-14.3 71.52,-12.11 77.59,-10.8 94.54,-7.14 99.65,-7.14 116.59,-10.8 119.06,-11.33 121.56,-12.01 124.04,-12.79"/>
<polygon fill="black" stroke="black" points="122.73,-16.04 133.32,-16.25 125.18,-9.48 122.73,-16.04"/>
<text text-anchor="middle" x="97.09" y="-13.5" font-family="Times,serif" font-size="14.00">a:eps/3</text>
</g>
</g>
</svg>
