<?xml version="1.0" encoding="UTF-8" standalone="no"?>
<!DOCTYPE svg PUBLIC "-//W3C//DTD SVG 1.1//EN"
 "http://www.w3.org/Graphics/SVG/1.1/DTD/svg11.dtd">
<!-- Generated by graphviz version 9.0.0 (20230911.1827)
 -->
<!-- Title: FST Pages: 1 -->
<svg width="351pt" height="149pt"
 viewBox="0.00 0.00 351.25 149.00" xmlns="http://www.w3.org/2000/svg" xmlns:xlink="http://www.w3.org/1999/xlink">
<g id="graph0" class="graph" transform="scale(1 1) rotate(0) translate(4 145)">
<title>FST</title>
<polygon fill="white" stroke="none" points="-4,4 -4,-145 347.25,-145 347.25,4 -4,4"/>
<!-- 0 -->
<g id="node1" class="node">
<title>0</title>
<ellipse fill="none" stroke="black" stroke-width="2" cx="18" cy="-41" rx="18" ry="18"/>
<text text-anchor="middle" x="18" y="-35.95" font-family="Times,serif" font-size="14.00">0</text>
</g>
<!-- 1 -->
<g id="node2" class="node">
<title>1</title>
<ellipse fill="none" stroke="black" cx="122.25" cy="-69" rx="18" ry="18"/>
<text text-anchor="middle" x="122.25" y="-63.95" font-family="Times,serif" font-size="14.00">1</text>
</g>
<!-- 0&#45;&gt;1 -->
<g id="edge1" class="edge">
<title>0&#45;&gt;1</title>
<path fill="none" stroke="black" d="M35.88,-45.62C51.5,-49.9 75,-56.34 93.4,-61.37"/>
<polygon fill="black" stroke="black" points="92.31,-64.7 102.88,-63.97 94.16,-57.95 92.31,-64.7"/>
<text text-anchor="middle" x="70.12" y="-63.2" font-family="Times,serif" font-size="14.00">a:eps/1</text>
</g>
<!-- 3 -->
<g id="node3" class="node">
<title>3</title>
<ellipse fill="none" stroke="black" cx="173.25" cy="-18" rx="18" ry="18"/>
<text text-anchor="middle" x="173.25" y="-12.95" font-family="Times,serif" font-size="14.00">3</text>
</g>
<!-- 0&#45;&gt;3 -->
<g id="edge2" class="edge">
<title>0&#45;&gt;3</title>
<path fill="none" stroke="black" d="M35.42,-34.86C40.37,-33.22 45.85,-31.6 51,-30.5 82.16,-23.86 118.61,-20.71 143.35,-19.24"/>
<polygon fill="black" stroke="black" points="143.49,-22.73 153.29,-18.71 143.12,-15.74 143.49,-22.73"/>
<text text-anchor="middle" x="70.12" y="-34.2" font-family="Times,serif" font-size="14.00">c:q/7</text>
</g>
<!-- 4 -->
<g id="node4" class="node">
<title>4</title>
<ellipse fill="none" stroke="black" cx="224.25" cy="-123" rx="18" ry="18"/>
<text text-anchor="middle" x="224.25" y="-117.95" font-family="Times,serif" font-size="14.00">4</text>
</g>
<!-- 1&#45;&gt;4 -->
<g id="edge3" class="edge">
<title>1&#45;&gt;4</title>
<path fill="none" stroke="black" d="M137.66,-79.02C143.08,-82.64 149.36,-86.65 155.25,-90 168.67,-97.62 184.1,-105.2 196.87,-111.17"/>
<polygon fill="black" stroke="black" points="195.37,-114.33 205.91,-115.33 198.29,-107.97 195.37,-114.33"/>
<text text-anchor="middle" x="173.25" y="-110.2" font-family="Times,serif" font-size="14.00">c:p/4</text>
</g>
<!-- 5 -->
<g id="node5" class="node">
<title>5</title>
<ellipse fill="none" stroke="black" cx="224.25" cy="-69" rx="18" ry="18"/>
<text text-anchor="middle" x="224.25" y="-63.95" font-family="Times,serif" font-size="14.00">5</text>
</g>
<!-- 1&#45;&gt;5 -->
<g id="edge4" class="edge">
<title>1&#45;&gt;5</title>
<path fill="none" stroke="black" d="M140.67,-69C155.51,-69 177.13,-69 194.53,-69"/>
<polygon fill="black" stroke="black" points="194.52,-72.5 204.52,-69 194.52,-65.5 194.52,-72.5"/>
<text text-anchor="middle" x="173.25" y="-72.2" font-family="Times,serif" font-size="14.00">d:q/7</text>
</g>
<!-- 2 -->
<g id="node6" class="node">
<title>2</title>
<ellipse fill="none" stroke="black" cx="321.25" cy="-69" rx="18" ry="18"/>
<ellipse fill="none" stroke="black" cx="321.25" cy="-69" rx="22" ry="22"/>
<text text-anchor="middle" x="321.25" y="-63.95" font-family="Times,serif" font-size="14.00">2</text>
</g>
<!-- 3&#45;&gt;2 -->
<g id="edge5" class="edge">
<title>3&#45;&gt;2</title>
<path fill="none" stroke="black" d="M191.69,-18.03C205.67,-18.5 225.62,-20.19 242.25,-25.5 260.25,-31.25 278.79,-41.39 293.28,-50.43"/>
<polygon fill="black" stroke="black" points="291.03,-53.14 301.33,-55.62 294.82,-47.26 291.03,-53.14"/>
<text text-anchor="middle" x="224.25" y="-29.2" font-family="Times,serif" font-size="14.00">eps:r</text>
</g>
<!-- 4&#45;&gt;2 -->
<g id="edge6" class="edge">
<title>4&#45;&gt;2</title>
<path fill="none" stroke="black" d="M240.33,-114.67C252.27,-108.04 269.37,-98.5 284.25,-90 286.72,-88.59 289.29,-87.11 291.86,-85.63"/>
<polygon fill="black" stroke="black" points="293.41,-88.77 300.29,-80.72 289.89,-82.72 293.41,-88.77"/>
<text text-anchor="middle" x="270.75" y="-107.2" font-family="Times,serif" font-size="14.00">eps:r</text>
</g>
<!-- 5&#45;&gt;2 -->
<g id="edge7" class="edge">
<title>5&#45;&gt;2</title>
<path fill="none" stroke="black" d="M242.67,-69C255.19,-69 272.43,-69 287.48,-69"/>
<polygon fill="black" stroke="black" points="287.43,-72.5 297.43,-69 287.43,-65.5 287.43,-72.5"/>
<text text-anchor="middle" x="270.75" y="-72.2" font-family="Times,serif" font-size="14.00">eps:s</text>
</g>
</g>
</svg>
