<?xml version="1.0" encoding="UTF-8" standalone="no"?>
<!DOCTYPE svg PUBLIC "-//W3C//DTD SVG 1.1//EN"
 "http://www.w3.org/Graphics/SVG/1.1/DTD/svg11.dtd">
<!-- Generated by graphviz version 9.0.0 (20230911.1827)
 -->
<!-- Title: FST Pages: 1 -->
<svg width="352pt" height="160pt"
 viewBox="0.00 0.00 351.75 160.00" xmlns="http://www.w3.org/2000/svg" xmlns:xlink="http://www.w3.org/1999/xlink">
<g id="graph0" class="graph" transform="scale(1 1) rotate(0) translate(4 156)">
<title>FST</title>
<polygon fill="white" stroke="none" points="-4,4 -4,-156 347.75,-156 347.75,4 -4,4"/>
<!-- 0 -->
<g id="node1" class="node">
<title>0</title>
<ellipse fill="none" stroke="black" stroke-width="2" cx="18" cy="-99" rx="18" ry="18"/>
<text text-anchor="middle" x="18" y="-93.95" font-family="Times,serif" font-size="14.00">0</text>
</g>
<!-- 1 -->
<g id="node2" class="node">
<title>1</title>
<ellipse fill="none" stroke="black" cx="123" cy="-128" rx="18" ry="18"/>
<text text-anchor="middle" x="123" y="-122.95" font-family="Times,serif" font-size="14.00">1</text>
</g>
<!-- 0&#45;&gt;1 -->
<g id="edge1" class="edge">
<title>0&#45;&gt;1</title>
<path fill="none" stroke="black" d="M35.55,-103.66C51.37,-108.11 75.53,-114.92 94.29,-120.2"/>
<polygon fill="black" stroke="black" points="93.12,-123.5 103.69,-122.85 95.02,-116.77 93.12,-123.5"/>
<text text-anchor="middle" x="70.5" y="-121.2" font-family="Times,serif" font-size="14.00">eps:q/3</text>
</g>
<!-- 2 -->
<g id="node3" class="node">
<title>2</title>
<ellipse fill="none" stroke="black" cx="123" cy="-72" rx="18" ry="18"/>
<text text-anchor="middle" x="123" y="-66.95" font-family="Times,serif" font-size="14.00">2</text>
</g>
<!-- 0&#45;&gt;2 -->
<g id="edge2" class="edge">
<title>0&#45;&gt;2</title>
<path fill="none" stroke="black" d="M34.25,-90.5C39.44,-87.91 45.35,-85.28 51,-83.5 64.68,-79.18 80.37,-76.42 93.52,-74.7"/>
<polygon fill="black" stroke="black" points="93.72,-78.2 103.25,-73.56 92.91,-71.24 93.72,-78.2"/>
<text text-anchor="middle" x="70.5" y="-86.2" font-family="Times,serif" font-size="14.00">a:eps/1</text>
</g>
<!-- 3 -->
<g id="node4" class="node">
<title>3</title>
<ellipse fill="none" stroke="black" cx="220.75" cy="-130" rx="18" ry="18"/>
<ellipse fill="none" stroke="black" cx="220.75" cy="-130" rx="22" ry="22"/>
<text text-anchor="middle" x="220.75" y="-124.95" font-family="Times,serif" font-size="14.00">3</text>
</g>
<!-- 1&#45;&gt;3 -->
<g id="edge3" class="edge">
<title>1&#45;&gt;3</title>
<path fill="none" stroke="black" d="M141.12,-128.36C153.89,-128.62 171.73,-129 187.19,-129.32"/>
<polygon fill="black" stroke="black" points="186.84,-132.81 196.91,-129.52 186.99,-125.81 186.84,-132.81"/>
<text text-anchor="middle" x="169.88" y="-132.2" font-family="Times,serif" font-size="14.00">c:r/4</text>
</g>
<!-- 4 -->
<g id="node5" class="node">
<title>4</title>
<ellipse fill="none" stroke="black" cx="220.75" cy="-72" rx="18" ry="18"/>
<text text-anchor="middle" x="220.75" y="-66.95" font-family="Times,serif" font-size="14.00">4</text>
</g>
<!-- 2&#45;&gt;4 -->
<g id="edge4" class="edge">
<title>2&#45;&gt;4</title>
<path fill="none" stroke="black" d="M141.12,-72C155.06,-72 175.03,-72 191.35,-72"/>
<polygon fill="black" stroke="black" points="190.94,-75.5 200.94,-72 190.94,-68.5 190.94,-75.5"/>
<text text-anchor="middle" x="169.88" y="-75.2" font-family="Times,serif" font-size="14.00">c:p/4</text>
</g>
<!-- 5 -->
<g id="node6" class="node">
<title>5</title>
<ellipse fill="none" stroke="black" cx="220.75" cy="-18" rx="18" ry="18"/>
<text text-anchor="middle" x="220.75" y="-12.95" font-family="Times,serif" font-size="14.00">5</text>
</g>
<!-- 2&#45;&gt;5 -->
<g id="edge5" class="edge">
<title>2&#45;&gt;5</title>
<path fill="none" stroke="black" d="M138.49,-62.34C143.92,-58.83 150.18,-54.88 156,-51.5 168.33,-44.33 182.33,-36.9 194.06,-30.86"/>
<polygon fill="black" stroke="black" points="195.42,-34.1 202.74,-26.44 192.24,-27.86 195.42,-34.1"/>
<text text-anchor="middle" x="169.88" y="-55.2" font-family="Times,serif" font-size="14.00">d:q/7</text>
</g>
<!-- 6 -->
<g id="node7" class="node">
<title>6</title>
<ellipse fill="none" stroke="black" cx="321.75" cy="-45" rx="18" ry="18"/>
<ellipse fill="none" stroke="black" cx="321.75" cy="-45" rx="22" ry="22"/>
<text text-anchor="middle" x="321.75" y="-39.95" font-family="Times,serif" font-size="14.00">6</text>
</g>
<!-- 4&#45;&gt;6 -->
<g id="edge6" class="edge">
<title>4&#45;&gt;6</title>
<path fill="none" stroke="black" d="M238.54,-67.42C252.35,-63.65 272.3,-58.21 289.09,-53.64"/>
<polygon fill="black" stroke="black" points="289.9,-57.04 298.63,-51.03 288.06,-50.29 289.9,-57.04"/>
<text text-anchor="middle" x="271.25" y="-64.2" font-family="Times,serif" font-size="14.00">eps:r</text>
</g>
<!-- 5&#45;&gt;6 -->
<g id="edge7" class="edge">
<title>5&#45;&gt;6</title>
<path fill="none" stroke="black" d="M238.54,-22.58C252.35,-26.35 272.3,-31.79 289.09,-36.36"/>
<polygon fill="black" stroke="black" points="288.06,-39.71 298.63,-38.97 289.9,-32.96 288.06,-39.71"/>
<text text-anchor="middle" x="271.25" y="-38.2" font-family="Times,serif" font-size="14.00">eps:s</text>
</g>
</g>
</svg>
