<?xml version="1.0" encoding="UTF-8" standalone="no"?>
<!DOCTYPE svg PUBLIC "-//W3C//DTD SVG 1.1//EN"
 "http://www.w3.org/Graphics/SVG/1.1/DTD/svg11.dtd">
<!-- Generated by graphviz version 7.0.0 (20221023.0053)
 -->
<!-- Title: FST Pages: 1 -->
<svg width="354pt" height="160pt"
 viewBox="0.00 0.00 354.00 160.00" xmlns="http://www.w3.org/2000/svg" xmlns:xlink="http://www.w3.org/1999/xlink">
<g id="graph0" class="graph" transform="scale(1 1) rotate(0) translate(4 156)">
<title>FST</title>
<polygon fill="white" stroke="none" points="-4,4 -4,-156 350,-156 350,4 -4,4"/>
<!-- 0 -->
<g id="node1" class="node">
<title>0</title>
<ellipse fill="none" stroke="black" stroke-width="2" cx="18" cy="-99" rx="18" ry="18"/>
<text text-anchor="middle" x="18" y="-95.3" font-family="Times,serif" font-size="14.00">0</text>
</g>
<!-- 1 -->
<g id="node2" class="node">
<title>1</title>
<ellipse fill="none" stroke="black" cx="124" cy="-128" rx="18" ry="18"/>
<text text-anchor="middle" x="124" y="-124.3" font-family="Times,serif" font-size="14.00">1</text>
</g>
<!-- 0&#45;&gt;1 -->
<g id="edge1" class="edge">
<title>0&#45;&gt;1</title>
<path fill="none" stroke="black" d="M35.71,-103.66C51.78,-108.14 76.37,-115 95.36,-120.29"/>
<polygon fill="black" stroke="black" points="94.3,-123.63 104.87,-122.95 96.18,-116.89 94.3,-123.63"/>
<text text-anchor="middle" x="71" y="-121.8" font-family="Times,serif" font-size="14.00">eps:q/3</text>
</g>
<!-- 2 -->
<g id="node3" class="node">
<title>2</title>
<ellipse fill="none" stroke="black" cx="124" cy="-72" rx="18" ry="18"/>
<text text-anchor="middle" x="124" y="-68.3" font-family="Times,serif" font-size="14.00">2</text>
</g>
<!-- 0&#45;&gt;2 -->
<g id="edge2" class="edge">
<title>0&#45;&gt;2</title>
<path fill="none" stroke="black" d="M34.67,-91.27C39.78,-88.99 45.55,-86.66 51,-85 65.05,-80.72 81.09,-77.66 94.46,-75.58"/>
<polygon fill="black" stroke="black" points="94.96,-79.05 104.36,-74.16 93.97,-72.12 94.96,-79.05"/>
<text text-anchor="middle" x="71" y="-88.8" font-family="Times,serif" font-size="14.00">a:eps/1</text>
</g>
<!-- 3 -->
<g id="node4" class="node">
<title>3</title>
<ellipse fill="none" stroke="black" cx="222" cy="-130" rx="18" ry="18"/>
<ellipse fill="none" stroke="black" cx="222" cy="-130" rx="22" ry="22"/>
<text text-anchor="middle" x="222" y="-126.3" font-family="Times,serif" font-size="14.00">3</text>
</g>
<!-- 1&#45;&gt;3 -->
<g id="edge3" class="edge">
<title>1&#45;&gt;3</title>
<path fill="none" stroke="black" d="M142.16,-128.36C154.97,-128.62 172.86,-129 188.36,-129.32"/>
<polygon fill="black" stroke="black" points="188.03,-132.81 198.1,-129.52 188.18,-125.82 188.03,-132.81"/>
<text text-anchor="middle" x="171" y="-132.8" font-family="Times,serif" font-size="14.00">c:r/4</text>
</g>
<!-- 4 -->
<g id="node5" class="node">
<title>4</title>
<ellipse fill="none" stroke="black" cx="222" cy="-72" rx="18" ry="18"/>
<text text-anchor="middle" x="222" y="-68.3" font-family="Times,serif" font-size="14.00">4</text>
</g>
<!-- 2&#45;&gt;4 -->
<g id="edge4" class="edge">
<title>2&#45;&gt;4</title>
<path fill="none" stroke="black" d="M142.16,-72C156.14,-72 176.16,-72 192.53,-72"/>
<polygon fill="black" stroke="black" points="192.15,-75.5 202.15,-72 192.15,-68.5 192.15,-75.5"/>
<text text-anchor="middle" x="171" y="-75.8" font-family="Times,serif" font-size="14.00">c:p/4</text>
</g>
<!-- 5 -->
<g id="node6" class="node">
<title>5</title>
<ellipse fill="none" stroke="black" cx="222" cy="-18" rx="18" ry="18"/>
<text text-anchor="middle" x="222" y="-14.3" font-family="Times,serif" font-size="14.00">5</text>
</g>
<!-- 2&#45;&gt;5 -->
<g id="edge5" class="edge">
<title>2&#45;&gt;5</title>
<path fill="none" stroke="black" d="M139.91,-63C145.28,-59.8 151.39,-56.2 157,-53 169.64,-45.8 183.81,-38.01 195.61,-31.62"/>
<polygon fill="black" stroke="black" points="197.19,-34.74 204.33,-26.91 193.86,-28.58 197.19,-34.74"/>
<text text-anchor="middle" x="171" y="-56.8" font-family="Times,serif" font-size="14.00">d:q/7</text>
</g>
<!-- 6 -->
<g id="node7" class="node">
<title>6</title>
<ellipse fill="none" stroke="black" cx="324" cy="-45" rx="18" ry="18"/>
<ellipse fill="none" stroke="black" cx="324" cy="-45" rx="22" ry="22"/>
<text text-anchor="middle" x="324" y="-41.3" font-family="Times,serif" font-size="14.00">6</text>
</g>
<!-- 4&#45;&gt;6 -->
<g id="edge6" class="edge">
<title>4&#45;&gt;6</title>
<path fill="none" stroke="black" d="M239.51,-67.54C253.62,-63.73 274.31,-58.15 291.56,-53.49"/>
<polygon fill="black" stroke="black" points="292.1,-56.97 300.84,-50.98 290.27,-50.21 292.1,-56.97"/>
<text text-anchor="middle" x="273" y="-64.8" font-family="Times,serif" font-size="14.00">eps:r</text>
</g>
<!-- 5&#45;&gt;6 -->
<g id="edge7" class="edge">
<title>5&#45;&gt;6</title>
<path fill="none" stroke="black" d="M239.51,-22.46C253.62,-26.27 274.31,-31.85 291.56,-36.51"/>
<polygon fill="black" stroke="black" points="290.27,-39.79 300.84,-39.02 292.1,-33.03 290.27,-39.79"/>
<text text-anchor="middle" x="273" y="-37.8" font-family="Times,serif" font-size="14.00">eps:s</text>
</g>
</g>
</svg>
