<?xml version="1.0" encoding="UTF-8" standalone="no"?>
<!DOCTYPE svg PUBLIC "-//W3C//DTD SVG 1.1//EN"
 "http://www.w3.org/Graphics/SVG/1.1/DTD/svg11.dtd">
<!-- Generated by graphviz version 8.1.0 (20230707.0739)
 -->
<!-- Title: FST Pages: 1 -->
<svg width="351pt" height="149pt"
 viewBox="0.00 0.00 351.25 149.00" xmlns="http://www.w3.org/2000/svg" xmlns:xlink="http://www.w3.org/1999/xlink">
<g id="graph0" class="graph" transform="scale(1 1) rotate(0) translate(4 145)">
<title>FST</title>
<polygon fill="white" stroke="none" points="-4,4 -4,-145 347.25,-145 347.25,4 -4,4"/>
<!-- 0 -->
<g id="node1" class="node">
<title>0</title>
<ellipse fill="none" stroke="black" stroke-width="2" cx="18" cy="-41" rx="18" ry="18"/>
<text text-anchor="middle" x="18" y="-35.95" font-family="Times,serif" font-size="14.00">0</text>
</g>
<!-- 1 -->
<g id="node2" class="node">
<title>1</title>
<ellipse fill="none" stroke="black" cx="122.25" cy="-69" rx="18" ry="18"/>
<text text-anchor="middle" x="122.25" y="-63.95" font-family="Times,serif" font-size="14.00">1</text>
</g>
<!-- 0&#45;&gt;1 -->
<g id="edge1" class="edge">
<title>0&#45;&gt;1</title>
<path fill="none" stroke="black" d="M35.88,-45.62C51.65,-49.94 75.45,-56.46 93.92,-61.52"/>
<polygon fill="black" stroke="black" points="92.77,-65.1 103.34,-64.37 94.62,-58.35 92.77,-65.1"/>
<text text-anchor="middle" x="70.12" y="-63.2" font-family="Times,serif" font-size="14.00">a:eps/1</text>
</g>
<!-- 3 -->
<g id="node3" class="node">
<title>3</title>
<ellipse fill="none" stroke="black" cx="173.25" cy="-18" rx="18" ry="18"/>
<text text-anchor="middle" x="173.25" y="-12.95" font-family="Times,serif" font-size="14.00">3</text>
</g>
<!-- 0&#45;&gt;3 -->
<g id="edge2" class="edge">
<title>0&#45;&gt;3</title>
<path fill="none" stroke="black" d="M35.42,-34.86C40.37,-33.22 45.85,-31.6 51,-30.5 82.45,-23.8 119.28,-20.65 144.02,-19.2"/>
<polygon fill="black" stroke="black" points="144,-22.65 153.8,-18.63 143.63,-15.66 144,-22.65"/>
<text text-anchor="middle" x="70.12" y="-34.2" font-family="Times,serif" font-size="14.00">c:q/7</text>
</g>
<!-- 4 -->
<g id="node4" class="node">
<title>4</title>
<ellipse fill="none" stroke="black" cx="224.25" cy="-123" rx="18" ry="18"/>
<text text-anchor="middle" x="224.25" y="-117.95" font-family="Times,serif" font-size="14.00">4</text>
</g>
<!-- 1&#45;&gt;4 -->
<g id="edge3" class="edge">
<title>1&#45;&gt;4</title>
<path fill="none" stroke="black" d="M137.66,-79.02C143.08,-82.64 149.36,-86.65 155.25,-90 168.94,-97.77 184.73,-105.5 197.64,-111.53"/>
<polygon fill="black" stroke="black" points="195.74,-114.97 206.29,-115.96 198.66,-108.61 195.74,-114.97"/>
<text text-anchor="middle" x="173.25" y="-110.2" font-family="Times,serif" font-size="14.00">c:p/4</text>
</g>
<!-- 5 -->
<g id="node5" class="node">
<title>5</title>
<ellipse fill="none" stroke="black" cx="224.25" cy="-69" rx="18" ry="18"/>
<text text-anchor="middle" x="224.25" y="-63.95" font-family="Times,serif" font-size="14.00">5</text>
</g>
<!-- 1&#45;&gt;5 -->
<g id="edge4" class="edge">
<title>1&#45;&gt;5</title>
<path fill="none" stroke="black" d="M140.67,-69C155.72,-69 177.76,-69 195.29,-69"/>
<polygon fill="black" stroke="black" points="195.03,-72.5 205.03,-69 195.03,-65.5 195.03,-72.5"/>
<text text-anchor="middle" x="173.25" y="-72.2" font-family="Times,serif" font-size="14.00">d:q/7</text>
</g>
<!-- 2 -->
<g id="node6" class="node">
<title>2</title>
<ellipse fill="none" stroke="black" cx="321.25" cy="-69" rx="18" ry="18"/>
<ellipse fill="none" stroke="black" cx="321.25" cy="-69" rx="22" ry="22"/>
<text text-anchor="middle" x="321.25" y="-63.95" font-family="Times,serif" font-size="14.00">2</text>
</g>
<!-- 3&#45;&gt;2 -->
<g id="edge5" class="edge">
<title>3&#45;&gt;2</title>
<path fill="none" stroke="black" d="M191.69,-18.03C205.67,-18.5 225.62,-20.19 242.25,-25.5 260.42,-31.31 279.15,-41.58 293.69,-50.69"/>
<polygon fill="black" stroke="black" points="291.3,-53.96 301.6,-56.44 295.1,-48.08 291.3,-53.96"/>
<text text-anchor="middle" x="224.25" y="-29.2" font-family="Times,serif" font-size="14.00">eps:r</text>
</g>
<!-- 4&#45;&gt;2 -->
<g id="edge6" class="edge">
<title>4&#45;&gt;2</title>
<path fill="none" stroke="black" d="M240.33,-114.67C252.27,-108.04 269.37,-98.5 284.25,-90 286.81,-88.54 289.47,-87.01 292.13,-85.47"/>
<polygon fill="black" stroke="black" points="293.72,-88.01 300.6,-79.96 290.2,-81.96 293.72,-88.01"/>
<text text-anchor="middle" x="270.75" y="-107.2" font-family="Times,serif" font-size="14.00">eps:r</text>
</g>
<!-- 5&#45;&gt;2 -->
<g id="edge7" class="edge">
<title>5&#45;&gt;2</title>
<path fill="none" stroke="black" d="M242.67,-69C255.43,-69 273.11,-69 288.37,-69"/>
<polygon fill="black" stroke="black" points="287.94,-72.5 297.94,-69 287.94,-65.5 287.94,-72.5"/>
<text text-anchor="middle" x="270.75" y="-72.2" font-family="Times,serif" font-size="14.00">eps:s</text>
</g>
</g>
</svg>
