<?xml version="1.0" encoding="UTF-8" standalone="no"?>
<!DOCTYPE svg PUBLIC "-//W3C//DTD SVG 1.1//EN"
 "http://www.w3.org/Graphics/SVG/1.1/DTD/svg11.dtd">
<!-- Generated by graphviz version 8.1.0 (20230707.0739)
 -->
<!-- Title: FST Pages: 1 -->
<svg width="243pt" height="165pt"
 viewBox="0.00 0.00 243.25 164.50" xmlns="http://www.w3.org/2000/svg" xmlns:xlink="http://www.w3.org/1999/xlink">
<g id="graph0" class="graph" transform="scale(1 1) rotate(0) translate(4 160.5)">
<title>FST</title>
<polygon fill="white" stroke="none" points="-4,4 -4,-160.5 239.25,-160.5 239.25,4 -4,4"/>
<!-- 0 -->
<g id="node1" class="node">
<title>0</title>
<ellipse fill="none" stroke="black" stroke-width="2" cx="18" cy="-78" rx="18" ry="18"/>
<text text-anchor="middle" x="18" y="-72.95" font-family="Times,serif" font-size="14.00">0</text>
</g>
<!-- 1 -->
<g id="node2" class="node">
<title>1</title>
<ellipse fill="none" stroke="black" cx="117.75" cy="-118" rx="18" ry="18"/>
<text text-anchor="middle" x="117.75" y="-112.95" font-family="Times,serif" font-size="14.00">1</text>
</g>
<!-- 0&#45;&gt;1 -->
<g id="edge1" class="edge">
<title>0&#45;&gt;1</title>
<path fill="none" stroke="black" d="M23.45,-95.64C27.94,-109.31 36.34,-127.35 51,-136 63.71,-143.5 79.63,-139.43 92.62,-133.27"/>
<polygon fill="black" stroke="black" points="94.15,-135.89 101.3,-128.07 90.83,-129.72 94.15,-135.89"/>
<text text-anchor="middle" x="67.88" y="-143.2" font-family="Times,serif" font-size="14.00">a:a/5</text>
</g>
<!-- 0&#45;&gt;1 -->
<g id="edge2" class="edge">
<title>0&#45;&gt;1</title>
<path fill="none" stroke="black" d="M34,-87.21C39.26,-90.23 45.29,-93.47 51,-96 63.38,-101.49 77.59,-106.41 89.62,-110.19"/>
<polygon fill="black" stroke="black" points="88.35,-113.77 98.94,-113.33 90.39,-107.08 88.35,-113.77"/>
<text text-anchor="middle" x="67.88" y="-111.2" font-family="Times,serif" font-size="14.00">b:a/5</text>
</g>
<!-- 0&#45;&gt;1 -->
<g id="edge3" class="edge">
<title>0&#45;&gt;1</title>
<path fill="none" stroke="black" d="M35.6,-73.14C49.48,-70.02 69.42,-67.85 84.75,-75.5 92.36,-79.3 98.64,-85.87 103.56,-92.72"/>
<polygon fill="black" stroke="black" points="101.12,-94.42 109.42,-101.01 107.04,-90.68 101.12,-94.42"/>
<text text-anchor="middle" x="67.88" y="-79.2" font-family="Times,serif" font-size="14.00">c:a/6</text>
</g>
<!-- 2 -->
<g id="node3" class="node">
<title>2</title>
<ellipse fill="none" stroke="black" cx="117.75" cy="-18" rx="18" ry="18"/>
<text text-anchor="middle" x="117.75" y="-12.95" font-family="Times,serif" font-size="14.00">2</text>
</g>
<!-- 0&#45;&gt;2 -->
<g id="edge4" class="edge">
<title>0&#45;&gt;2</title>
<path fill="none" stroke="black" d="M31.8,-65.71C37.43,-60.65 44.28,-54.95 51,-50.5 63.53,-42.21 78.47,-34.66 90.94,-28.93"/>
<polygon fill="black" stroke="black" points="92.03,-31.83 99.73,-24.56 89.17,-25.44 92.03,-31.83"/>
<text text-anchor="middle" x="67.88" y="-54.2" font-family="Times,serif" font-size="14.00">d:a/10</text>
</g>
<!-- 0&#45;&gt;2 -->
<g id="edge5" class="edge">
<title>0&#45;&gt;2</title>
<path fill="none" stroke="black" d="M22.24,-60.31C26.14,-44.71 34.36,-22.89 51,-12.5 62.5,-5.32 77.41,-5.95 90.13,-8.71"/>
<polygon fill="black" stroke="black" points="89.04,-12.31 99.6,-11.54 90.86,-5.55 89.04,-12.31"/>
<text text-anchor="middle" x="67.88" y="-16.2" font-family="Times,serif" font-size="14.00">f:a/8</text>
</g>
<!-- 3 -->
<g id="node4" class="node">
<title>3</title>
<ellipse fill="none" stroke="black" cx="213.25" cy="-78" rx="18" ry="18"/>
<ellipse fill="none" stroke="black" cx="213.25" cy="-78" rx="22" ry="22"/>
<text text-anchor="middle" x="213.25" y="-72.95" font-family="Times,serif" font-size="14.00">3</text>
</g>
<!-- 1&#45;&gt;3 -->
<g id="edge6" class="edge">
<title>1&#45;&gt;3</title>
<path fill="none" stroke="black" d="M135.87,-120.7C147.73,-121.81 163.59,-121.71 176.25,-116 182.3,-113.27 187.83,-109.01 192.64,-104.31"/>
<polygon fill="black" stroke="black" points="194.89,-106.93 199.03,-97.17 189.71,-102.22 194.89,-106.93"/>
<text text-anchor="middle" x="163.5" y="-124.2" font-family="Times,serif" font-size="14.00">f:b/1</text>
</g>
<!-- 1&#45;&gt;3 -->
<g id="edge7" class="edge">
<title>1&#45;&gt;3</title>
<path fill="none" stroke="black" d="M132.45,-106.84C137.9,-102.82 144.37,-98.54 150.75,-95.5 160.14,-91.02 170.9,-87.48 180.76,-84.78"/>
<polygon fill="black" stroke="black" points="181.56,-87.94 190.4,-82.1 179.85,-81.15 181.56,-87.94"/>
<text text-anchor="middle" x="163.5" y="-98.2" font-family="Times,serif" font-size="14.00">g:b</text>
</g>
<!-- 2&#45;&gt;3 -->
<g id="edge8" class="edge">
<title>2&#45;&gt;3</title>
<path fill="none" stroke="black" d="M133.36,-27.38C147.23,-36.27 168.41,-49.87 185.33,-60.73"/>
<polygon fill="black" stroke="black" points="182.92,-63.98 193.22,-66.43 186.7,-58.08 182.92,-63.98"/>
<text text-anchor="middle" x="163.5" y="-57.2" font-family="Times,serif" font-size="14.00">f:c/1</text>
</g>
<!-- 2&#45;&gt;3 -->
<g id="edge9" class="edge">
<title>2&#45;&gt;3</title>
<path fill="none" stroke="black" d="M135.75,-14.38C147.85,-12.73 164.05,-12.47 176.25,-19.5 187.09,-25.74 195.09,-36.69 200.76,-47.44"/>
<polygon fill="black" stroke="black" points="197.89,-48.57 205.32,-56.12 204.22,-45.58 197.89,-48.57"/>
<text text-anchor="middle" x="163.5" y="-23.2" font-family="Times,serif" font-size="14.00">g:c</text>
</g>
</g>
</svg>
