<?xml version="1.0" encoding="UTF-8" standalone="no"?>
<!DOCTYPE svg PUBLIC "-//W3C//DTD SVG 1.1//EN"
 "http://www.w3.org/Graphics/SVG/1.1/DTD/svg11.dtd">
<!-- Generated by graphviz version 7.0.4 (20221203.1631)
 -->
<!-- Title: FST Pages: 1 -->
<svg width="411pt" height="87pt"
 viewBox="0.00 0.00 411.20 87.21" xmlns="http://www.w3.org/2000/svg" xmlns:xlink="http://www.w3.org/1999/xlink">
<g id="graph0" class="graph" transform="scale(1 1) rotate(0) translate(4 83.21)">
<title>FST</title>
<polygon fill="white" stroke="none" points="-4,4 -4,-83.21 407.2,-83.21 407.2,4 -4,4"/>
<!-- 0 -->
<g id="node1" class="node">
<title>0</title>
<ellipse fill="none" stroke="black" stroke-width="2" cx="18" cy="-28.21" rx="18" ry="18"/>
<text text-anchor="middle" x="18" y="-24.51" font-family="Times,serif" font-size="14.00">0</text>
</g>
<!-- 1 -->
<g id="node2" class="node">
<title>1</title>
<ellipse fill="none" stroke="black" cx="135" cy="-28.21" rx="18" ry="18"/>
<text text-anchor="middle" x="135" y="-24.51" font-family="Times,serif" font-size="14.00">1</text>
</g>
<!-- 0&#45;&gt;1 -->
<g id="edge1" class="edge">
<title>0&#45;&gt;1</title>
<path fill="none" stroke="black" d="M36.47,-28.21C54.72,-28.21 83.67,-28.21 105.3,-28.21"/>
<polygon fill="black" stroke="black" points="105.23,-31.71 115.23,-28.21 105.23,-24.71 105.23,-31.71"/>
<text text-anchor="middle" x="76.5" y="-32.01" font-family="Times,serif" font-size="14.00">eps:eps/1</text>
</g>
<!-- 2 -->
<g id="node3" class="node">
<title>2</title>
<ellipse fill="none" stroke="black" cx="252" cy="-28.21" rx="18" ry="18"/>
<text text-anchor="middle" x="252" y="-24.51" font-family="Times,serif" font-size="14.00">2</text>
</g>
<!-- 1&#45;&gt;2 -->
<g id="edge2" class="edge">
<title>1&#45;&gt;2</title>
<path fill="none" stroke="black" d="M150.75,-37.37C156,-40.14 162.08,-42.81 168,-44.21 190.06,-49.42 196.94,-49.42 219,-44.21 221.31,-43.67 223.65,-42.92 225.95,-42.06"/>
<polygon fill="black" stroke="black" points="227.22,-45.33 234.87,-38 224.32,-38.96 227.22,-45.33"/>
<text text-anchor="middle" x="193.5" y="-51.01" font-family="Times,serif" font-size="14.00">a:eps/2</text>
</g>
<!-- 1&#45;&gt;2 -->
<g id="edge3" class="edge">
<title>1&#45;&gt;2</title>
<path fill="none" stroke="black" d="M153.25,-26.3C158.02,-25.85 163.21,-25.44 168,-25.21 190.64,-24.15 196.36,-24.15 219,-25.21 220.2,-25.27 221.42,-25.34 222.66,-25.41"/>
<polygon fill="black" stroke="black" points="221.99,-28.87 232.24,-26.18 222.55,-21.89 221.99,-28.87"/>
<text text-anchor="middle" x="193.5" y="-29.01" font-family="Times,serif" font-size="14.00">eps:p/3</text>
</g>
<!-- 1&#45;&gt;2 -->
<g id="edge4" class="edge">
<title>1&#45;&gt;2</title>
<path fill="none" stroke="black" d="M148.67,-16.31C154.17,-11.92 160.97,-7.48 168,-5.21 189.58,1.74 197.42,1.74 219,-5.21 222.41,-6.31 225.76,-7.92 228.93,-9.78"/>
<polygon fill="black" stroke="black" points="226.88,-12.62 237.09,-15.45 230.87,-6.87 226.88,-12.62"/>
<text text-anchor="middle" x="193.5" y="-9.01" font-family="Times,serif" font-size="14.00">eps:eps/4</text>
</g>
<!-- 2&#45;&gt;2 -->
<g id="edge5" class="edge">
<title>2&#45;&gt;2</title>
<path fill="none" stroke="black" d="M242,-43.75C239.18,-54.12 242.52,-64.21 252,-64.21 257.78,-64.21 261.27,-60.46 262.49,-55.19"/>
<polygon fill="black" stroke="black" points="265.99,-55.11 262.07,-45.27 258.99,-55.4 265.99,-55.11"/>
<text text-anchor="middle" x="252" y="-68.01" font-family="Times,serif" font-size="14.00">eps:eps/5</text>
</g>
<!-- 3 -->
<g id="node4" class="node">
<title>3</title>
<ellipse fill="none" stroke="black" cx="377.1" cy="-28.21" rx="22.18" ry="22.18"/>
<ellipse fill="none" stroke="black" cx="377.1" cy="-28.21" rx="26.2" ry="26.2"/>
<text text-anchor="middle" x="377.1" y="-24.51" font-family="Times,serif" font-size="14.00">3/7</text>
</g>
<!-- 2&#45;&gt;3 -->
<g id="edge6" class="edge">
<title>2&#45;&gt;3</title>
<path fill="none" stroke="black" d="M270.38,-28.21C288.21,-28.21 316.5,-28.21 339.33,-28.21"/>
<polygon fill="black" stroke="black" points="339.17,-31.71 349.17,-28.21 339.17,-24.71 339.17,-31.71"/>
<text text-anchor="middle" x="310.5" y="-32.01" font-family="Times,serif" font-size="14.00">eps:eps/6</text>
</g>
</g>
</svg>
