<?xml version="1.0" encoding="UTF-8" standalone="no"?>
<!DOCTYPE svg PUBLIC "-//W3C//DTD SVG 1.1//EN"
 "http://www.w3.org/Graphics/SVG/1.1/DTD/svg11.dtd">
<!-- Generated by graphviz version 6.0.2 (20221011.1828)
 -->
<!-- Title: FST Pages: 1 -->
<svg width="324pt" height="98pt"
 viewBox="0.00 0.00 324.00 98.00" xmlns="http://www.w3.org/2000/svg" xmlns:xlink="http://www.w3.org/1999/xlink">
<g id="graph0" class="graph" transform="scale(1 1) rotate(0) translate(4 94)">
<title>FST</title>
<polygon fill="white" stroke="none" points="-4,4 -4,-94 320,-94 320,4 -4,4"/>
<!-- 0 -->
<g id="node1" class="node">
<title>0</title>
<ellipse fill="none" stroke="black" stroke-width="2" cx="18" cy="-45" rx="18" ry="18"/>
<text text-anchor="middle" x="18" y="-41.3" font-family="Times,serif" font-size="14.00">0</text>
</g>
<!-- 1 -->
<g id="node2" class="node">
<title>1</title>
<ellipse fill="none" stroke="black" cx="100" cy="-45" rx="18" ry="18"/>
<text text-anchor="middle" x="100" y="-41.3" font-family="Times,serif" font-size="14.00">1</text>
</g>
<!-- 0&#45;&gt;1 -->
<g id="edge1" class="edge">
<title>0&#45;&gt;1</title>
<path fill="none" stroke="black" d="M36.36,-45C46.7,-45 60.06,-45 71.78,-45"/>
<polygon fill="black" stroke="black" points="71.95,-48.5 81.95,-45 71.95,-41.5 71.95,-48.5"/>
<text text-anchor="middle" x="59" y="-48.8" font-family="Times,serif" font-size="14.00">a:a</text>
</g>
<!-- 2 -->
<g id="node3" class="node">
<title>2</title>
<ellipse fill="none" stroke="black" cx="184" cy="-72" rx="18" ry="18"/>
<text text-anchor="middle" x="184" y="-68.3" font-family="Times,serif" font-size="14.00">2</text>
</g>
<!-- 1&#45;&gt;2 -->
<g id="edge2" class="edge">
<title>1&#45;&gt;2</title>
<path fill="none" stroke="black" d="M117.2,-50.33C128.47,-54.05 143.74,-59.07 156.74,-63.35"/>
<polygon fill="black" stroke="black" points="155.96,-66.78 166.55,-66.58 158.15,-60.13 155.96,-66.78"/>
<text text-anchor="middle" x="142" y="-63.8" font-family="Times,serif" font-size="14.00">b:b</text>
</g>
<!-- 3 -->
<g id="node4" class="node">
<title>3</title>
<ellipse fill="none" stroke="black" cx="184" cy="-18" rx="18" ry="18"/>
<text text-anchor="middle" x="184" y="-14.3" font-family="Times,serif" font-size="14.00">3</text>
</g>
<!-- 1&#45;&gt;3 -->
<g id="edge3" class="edge">
<title>1&#45;&gt;3</title>
<path fill="none" stroke="black" d="M117.2,-39.67C128.47,-35.95 143.74,-30.93 156.74,-26.65"/>
<polygon fill="black" stroke="black" points="158.15,-29.87 166.55,-23.42 155.96,-23.22 158.15,-29.87"/>
<text text-anchor="middle" x="142" y="-36.8" font-family="Times,serif" font-size="14.00">c:c</text>
</g>
<!-- 4 -->
<g id="node5" class="node">
<title>4</title>
<ellipse fill="none" stroke="black" cx="294" cy="-45" rx="18" ry="18"/>
<ellipse fill="none" stroke="black" cx="294" cy="-45" rx="22" ry="22"/>
<text text-anchor="middle" x="294" y="-41.3" font-family="Times,serif" font-size="14.00">4</text>
</g>
<!-- 2&#45;&gt;4 -->
<g id="edge4" class="edge">
<title>2&#45;&gt;4</title>
<path fill="none" stroke="black" d="M201.88,-67.78C218.14,-63.71 243.12,-57.47 262.82,-52.55"/>
<polygon fill="black" stroke="black" points="263.71,-55.93 272.56,-50.11 262.01,-49.14 263.71,-55.93"/>
<text text-anchor="middle" x="237" y="-66.8" font-family="Times,serif" font-size="14.00">eps:eps</text>
</g>
<!-- 3&#45;&gt;4 -->
<g id="edge5" class="edge">
<title>3&#45;&gt;4</title>
<path fill="none" stroke="black" d="M201.63,-21.73C216.25,-25.06 238.09,-30.14 257,-35 258.88,-35.48 260.82,-35.99 262.77,-36.51"/>
<polygon fill="black" stroke="black" points="261.91,-39.9 272.48,-39.15 263.75,-33.15 261.91,-39.9"/>
<text text-anchor="middle" x="237" y="-38.8" font-family="Times,serif" font-size="14.00">eps:eps</text>
</g>
</g>
</svg>
