<?xml version="1.0" encoding="UTF-8" standalone="no"?>
<!DOCTYPE svg PUBLIC "-//W3C//DTD SVG 1.1//EN"
 "http://www.w3.org/Graphics/SVG/1.1/DTD/svg11.dtd">
<!-- Generated by graphviz version 2.43.0 (0)
 -->
<!-- Title: FST Pages: 1 -->
<svg width="272pt" height="159pt"
 viewBox="0.00 0.00 271.70 159.35" xmlns="http://www.w3.org/2000/svg" xmlns:xlink="http://www.w3.org/1999/xlink">
<g id="graph0" class="graph" transform="scale(1 1) rotate(0) translate(4 155.35)">
<title>FST</title>
<polygon fill="white" stroke="transparent" points="-4,4 -4,-155.35 267.7,-155.35 267.7,4 -4,4"/>
<!-- 0 -->
<g id="node1" class="node">
<title>0</title>
<ellipse fill="none" stroke="black" stroke-width="2" cx="18" cy="-70" rx="18" ry="18"/>
<text text-anchor="middle" x="18" y="-66.3" font-family="Times,serif" font-size="14.00">0</text>
</g>
<!-- 1 -->
<g id="node2" class="node">
<title>1</title>
<ellipse fill="none" stroke="black" cx="120" cy="-108" rx="18" ry="18"/>
<text text-anchor="middle" x="120" y="-104.3" font-family="Times,serif" font-size="14.00">1</text>
</g>
<!-- 0&#45;&gt;1 -->
<g id="edge1" class="edge">
<title>0&#45;&gt;1</title>
<path fill="none" stroke="black" d="M23.99,-86.98C28.71,-99.67 37.18,-116.12 51,-124 64.48,-131.68 81.47,-127.69 95.1,-121.77"/>
<polygon fill="black" stroke="black" points="96.88,-124.8 104.33,-117.26 93.81,-118.51 96.88,-124.8"/>
<text text-anchor="middle" x="69" y="-131.8" font-family="Times,serif" font-size="14.00">a:a/2</text>
</g>
<!-- 0&#45;&gt;1 -->
<g id="edge2" class="edge">
<title>0&#45;&gt;1</title>
<path fill="none" stroke="black" d="M34.08,-78.13C39.36,-80.81 45.37,-83.7 51,-86 64.59,-91.56 80.15,-96.68 92.95,-100.58"/>
<polygon fill="black" stroke="black" points="91.96,-103.94 102.54,-103.43 93.95,-97.23 91.96,-103.94"/>
<text text-anchor="middle" x="69" y="-101.8" font-family="Times,serif" font-size="14.00">b:a/2</text>
</g>
<!-- 0&#45;&gt;1 -->
<g id="edge3" class="edge">
<title>0&#45;&gt;1</title>
<path fill="none" stroke="black" d="M35.56,-65.02C49.91,-61.66 70.86,-59.12 87,-67 94.53,-70.68 100.81,-77.08 105.75,-83.74"/>
<polygon fill="black" stroke="black" points="102.86,-85.72 111.29,-92.14 108.71,-81.87 102.86,-85.72"/>
<text text-anchor="middle" x="69" y="-70.8" font-family="Times,serif" font-size="14.00">c:a/3</text>
</g>
<!-- 2 -->
<g id="node3" class="node">
<title>2</title>
<ellipse fill="none" stroke="black" cx="120" cy="-18" rx="18" ry="18"/>
<text text-anchor="middle" x="120" y="-14.3" font-family="Times,serif" font-size="14.00">2</text>
</g>
<!-- 0&#45;&gt;2 -->
<g id="edge4" class="edge">
<title>0&#45;&gt;2</title>
<path fill="none" stroke="black" d="M31.21,-57.35C36.85,-52.05 43.86,-46.17 51,-42 63.88,-34.47 79.5,-28.75 92.52,-24.79"/>
<polygon fill="black" stroke="black" points="93.65,-28.1 102.3,-21.99 91.72,-21.38 93.65,-28.1"/>
<text text-anchor="middle" x="69" y="-45.8" font-family="Times,serif" font-size="14.00">d:a/3</text>
</g>
<!-- 0&#45;&gt;2 -->
<g id="edge5" class="edge">
<title>0&#45;&gt;2</title>
<path fill="none" stroke="black" d="M22.77,-52.36C26.94,-37.64 35.28,-17.58 51,-8 63.75,-0.23 80.28,-2.45 93.85,-6.74"/>
<polygon fill="black" stroke="black" points="92.94,-10.14 103.53,-10.3 95.35,-3.56 92.94,-10.14"/>
<text text-anchor="middle" x="69" y="-11.8" font-family="Times,serif" font-size="14.00">f:a/1</text>
</g>
<!-- 3 -->
<g id="node4" class="node">
<title>3</title>
<ellipse fill="none" stroke="black" cx="234.35" cy="-122" rx="25.22" ry="25.22"/>
<ellipse fill="none" stroke="black" cx="234.35" cy="-122" rx="29.2" ry="29.2"/>
<text text-anchor="middle" x="234.35" y="-118.3" font-family="Times,serif" font-size="14.00">3/1</text>
</g>
<!-- 1&#45;&gt;3 -->
<g id="edge6" class="edge">
<title>1&#45;&gt;3</title>
<path fill="none" stroke="black" d="M135.75,-117.16C141,-119.93 147.08,-122.6 153,-124 166.39,-127.16 181.39,-127.59 194.78,-126.92"/>
<polygon fill="black" stroke="black" points="195.37,-130.39 205.1,-126.18 194.87,-123.41 195.37,-130.39"/>
<text text-anchor="middle" x="171.5" y="-130.8" font-family="Times,serif" font-size="14.00">f:b/3</text>
</g>
<!-- 1&#45;&gt;3 -->
<g id="edge7" class="edge">
<title>1&#45;&gt;3</title>
<path fill="none" stroke="black" d="M137.89,-105.13C151.95,-103.24 172.45,-101.68 190,-105 192.5,-105.47 195.04,-106.09 197.58,-106.8"/>
<polygon fill="black" stroke="black" points="196.63,-110.17 207.22,-109.95 198.8,-103.52 196.63,-110.17"/>
<text text-anchor="middle" x="171.5" y="-108.8" font-family="Times,serif" font-size="14.00">g:b/2</text>
</g>
<!-- 4 -->
<g id="node5" class="node">
<title>4</title>
<ellipse fill="none" stroke="black" cx="234.35" cy="-36" rx="25.22" ry="25.22"/>
<ellipse fill="none" stroke="black" cx="234.35" cy="-36" rx="29.2" ry="29.2"/>
<text text-anchor="middle" x="234.35" y="-32.3" font-family="Times,serif" font-size="14.00">4/3</text>
</g>
<!-- 2&#45;&gt;4 -->
<g id="edge8" class="edge">
<title>2&#45;&gt;4</title>
<path fill="none" stroke="black" d="M135.77,-27.08C141.02,-29.84 147.09,-32.53 153,-34 166.35,-37.33 181.35,-38.39 194.73,-38.44"/>
<polygon fill="black" stroke="black" points="195.11,-41.93 205.06,-38.28 195,-34.93 195.11,-41.93"/>
<text text-anchor="middle" x="171.5" y="-42.8" font-family="Times,serif" font-size="14.00">f:c/5</text>
</g>
<!-- 2&#45;&gt;4 -->
<g id="edge9" class="edge">
<title>2&#45;&gt;4</title>
<path fill="none" stroke="black" d="M137.96,-14.77C152.07,-12.68 172.59,-11 190,-15 193,-15.69 196.03,-16.61 199.03,-17.69"/>
<polygon fill="black" stroke="black" points="197.8,-20.97 208.38,-21.56 200.48,-14.5 197.8,-20.97"/>
<text text-anchor="middle" x="171.5" y="-18.8" font-family="Times,serif" font-size="14.00">g:c/4</text>
</g>
</g>
</svg>
