<?xml version="1.0" encoding="UTF-8" standalone="no"?>
<!DOCTYPE svg PUBLIC "-//W3C//DTD SVG 1.1//EN"
 "http://www.w3.org/Graphics/SVG/1.1/DTD/svg11.dtd">
<!-- Generated by graphviz version 8.1.0 (20230707.0739)
 -->
<!-- Title: FST Pages: 1 -->
<svg width="323pt" height="98pt"
 viewBox="0.00 0.00 322.75 98.00" xmlns="http://www.w3.org/2000/svg" xmlns:xlink="http://www.w3.org/1999/xlink">
<g id="graph0" class="graph" transform="scale(1 1) rotate(0) translate(4 94)">
<title>FST</title>
<polygon fill="white" stroke="none" points="-4,4 -4,-94 318.75,-94 318.75,4 -4,4"/>
<!-- 4 -->
<g id="node1" class="node">
<title>4</title>
<ellipse fill="none" stroke="black" stroke-width="2" cx="18" cy="-45" rx="18" ry="18"/>
<text text-anchor="middle" x="18" y="-39.95" font-family="Times,serif" font-size="14.00">4</text>
</g>
<!-- 2 -->
<g id="node2" class="node">
<title>2</title>
<ellipse fill="none" stroke="black" cx="123.75" cy="-72" rx="18" ry="18"/>
<text text-anchor="middle" x="123.75" y="-66.95" font-family="Times,serif" font-size="14.00">2</text>
</g>
<!-- 4&#45;&gt;2 -->
<g id="edge1" class="edge">
<title>4&#45;&gt;2</title>
<path fill="none" stroke="black" d="M35.67,-49.34C51.85,-53.55 76.69,-60.01 95.71,-64.96"/>
<polygon fill="black" stroke="black" points="94.56,-68.54 105.12,-67.67 96.33,-61.77 94.56,-68.54"/>
<text text-anchor="middle" x="70.88" y="-66.2" font-family="Times,serif" font-size="14.00">eps:eps</text>
</g>
<!-- 3 -->
<g id="node3" class="node">
<title>3</title>
<ellipse fill="none" stroke="black" cx="123.75" cy="-18" rx="18" ry="18"/>
<text text-anchor="middle" x="123.75" y="-12.95" font-family="Times,serif" font-size="14.00">3</text>
</g>
<!-- 4&#45;&gt;3 -->
<g id="edge2" class="edge">
<title>4&#45;&gt;3</title>
<path fill="none" stroke="black" d="M35.14,-38.73C40.18,-36.9 45.78,-35 51,-33.5 65.45,-29.36 81.82,-25.75 95.27,-23.05"/>
<polygon fill="black" stroke="black" points="95.63,-26.35 104.78,-21.01 94.29,-19.48 95.63,-26.35"/>
<text text-anchor="middle" x="70.88" y="-37.2" font-family="Times,serif" font-size="14.00">eps:eps</text>
</g>
<!-- 1 -->
<g id="node5" class="node">
<title>1</title>
<ellipse fill="none" stroke="black" cx="207" cy="-45" rx="18" ry="18"/>
<text text-anchor="middle" x="207" y="-39.95" font-family="Times,serif" font-size="14.00">1</text>
</g>
<!-- 2&#45;&gt;1 -->
<g id="edge4" class="edge">
<title>2&#45;&gt;1</title>
<path fill="none" stroke="black" d="M141.19,-66.54C152.09,-62.91 166.65,-58.08 179.21,-53.9"/>
<polygon fill="black" stroke="black" points="180.2,-56.93 188.58,-50.46 177.99,-50.29 180.2,-56.93"/>
<text text-anchor="middle" x="165.38" y="-63.2" font-family="Times,serif" font-size="14.00">b:b</text>
</g>
<!-- 3&#45;&gt;1 -->
<g id="edge5" class="edge">
<title>3&#45;&gt;1</title>
<path fill="none" stroke="black" d="M141.19,-23.46C152.09,-27.09 166.65,-31.92 179.21,-36.1"/>
<polygon fill="black" stroke="black" points="177.99,-39.71 188.58,-39.54 180.2,-33.07 177.99,-39.71"/>
<text text-anchor="middle" x="165.38" y="-37.2" font-family="Times,serif" font-size="14.00">c:c</text>
</g>
<!-- 0 -->
<g id="node4" class="node">
<title>0</title>
<ellipse fill="none" stroke="black" cx="292.75" cy="-45" rx="18" ry="18"/>
<ellipse fill="none" stroke="black" cx="292.75" cy="-45" rx="22" ry="22"/>
<text text-anchor="middle" x="292.75" y="-39.95" font-family="Times,serif" font-size="14.00">0</text>
</g>
<!-- 1&#45;&gt;0 -->
<g id="edge3" class="edge">
<title>1&#45;&gt;0</title>
<path fill="none" stroke="black" d="M225.35,-45C235.23,-45 247.91,-45 259.55,-45"/>
<polygon fill="black" stroke="black" points="259.25,-48.5 269.25,-45 259.25,-41.5 259.25,-48.5"/>
<text text-anchor="middle" x="247.88" y="-48.2" font-family="Times,serif" font-size="14.00">a:a</text>
</g>
</g>
</svg>
