<?xml version="1.0" encoding="UTF-8" standalone="no"?>
<!DOCTYPE svg PUBLIC "-//W3C//DTD SVG 1.1//EN"
 "http://www.w3.org/Graphics/SVG/1.1/DTD/svg11.dtd">
<!-- Generated by graphviz version 6.0.1 (20220911.1526)
 -->
<!-- Title: FST Pages: 1 -->
<svg width="251pt" height="109pt"
 viewBox="0.00 0.00 251.00 109.00" xmlns="http://www.w3.org/2000/svg" xmlns:xlink="http://www.w3.org/1999/xlink">
<g id="graph0" class="graph" transform="scale(1 1) rotate(0) translate(4 105)">
<title>FST</title>
<polygon fill="white" stroke="none" points="-4,4 -4,-105 247,-105 247,4 -4,4"/>
<!-- 0 -->
<g id="node1" class="node">
<title>0</title>
<ellipse fill="none" stroke="black" stroke-width="2" cx="18" cy="-56" rx="18" ry="18"/>
<text text-anchor="middle" x="18" y="-52.3" font-family="Times,serif" font-size="14.00">0</text>
</g>
<!-- 1 -->
<g id="node2" class="node">
<title>1</title>
<ellipse fill="none" stroke="black" cx="124" cy="-83" rx="18" ry="18"/>
<text text-anchor="middle" x="124" y="-79.3" font-family="Times,serif" font-size="14.00">1</text>
</g>
<!-- 0&#45;&gt;1 -->
<g id="edge1" class="edge">
<title>0&#45;&gt;1</title>
<path fill="none" stroke="black" d="M33.89,-64.65C39.15,-67.38 45.2,-70.16 51,-72 65.36,-76.56 81.95,-79.26 95.58,-80.84"/>
<polygon fill="black" stroke="black" points="95.48,-84.35 105.78,-81.88 96.19,-77.39 95.48,-84.35"/>
<text text-anchor="middle" x="71" y="-83.8" font-family="Times,serif" font-size="14.00">a:p/1</text>
</g>
<!-- 0&#45;&gt;1 -->
<g id="edge3" class="edge">
<title>0&#45;&gt;1</title>
<path fill="none" stroke="black" d="M35.65,-51.58C50.67,-48.44 73.08,-45.91 91,-53 96.09,-55.01 100.85,-58.26 105.06,-61.89"/>
<polygon fill="black" stroke="black" points="102.83,-64.61 112.41,-69.13 107.73,-59.62 102.83,-64.61"/>
<text text-anchor="middle" x="71" y="-56.8" font-family="Times,serif" font-size="14.00">eps:q/3</text>
</g>
<!-- 2 -->
<g id="node3" class="node">
<title>2</title>
<ellipse fill="none" stroke="black" cx="124" cy="-18" rx="18" ry="18"/>
<text text-anchor="middle" x="124" y="-14.3" font-family="Times,serif" font-size="14.00">2</text>
</g>
<!-- 0&#45;&gt;2 -->
<g id="edge2" class="edge">
<title>0&#45;&gt;2</title>
<path fill="none" stroke="black" d="M30.95,-43.18C36.54,-37.95 43.59,-32.37 51,-29 64.9,-22.69 81.7,-19.88 95.58,-18.68"/>
<polygon fill="black" stroke="black" points="96.21,-22.15 105.97,-18.02 95.77,-15.16 96.21,-22.15"/>
<text text-anchor="middle" x="71" y="-32.8" font-family="Times,serif" font-size="14.00">a:q/2</text>
</g>
<!-- 3 -->
<g id="node4" class="node">
<title>3</title>
<ellipse fill="none" stroke="black" cx="221" cy="-56" rx="18" ry="18"/>
<ellipse fill="none" stroke="black" cx="221" cy="-56" rx="22" ry="22"/>
<text text-anchor="middle" x="221" y="-52.3" font-family="Times,serif" font-size="14.00">3</text>
</g>
<!-- 1&#45;&gt;3 -->
<g id="edge4" class="edge">
<title>1&#45;&gt;3</title>
<path fill="none" stroke="black" d="M142.04,-80.9C153.96,-79.17 170.17,-76.3 184,-72 186.46,-71.24 188.97,-70.35 191.47,-69.4"/>
<polygon fill="black" stroke="black" points="193,-72.55 200.89,-65.49 190.31,-66.09 193,-72.55"/>
<text text-anchor="middle" x="170.5" y="-81.8" font-family="Times,serif" font-size="14.00">c:r/5</text>
</g>
<!-- 1&#45;&gt;3 -->
<g id="edge5" class="edge">
<title>1&#45;&gt;3</title>
<path fill="none" stroke="black" d="M135.59,-69.13C141.19,-62.94 148.64,-56.3 157,-53 167.08,-49.01 178.79,-48.56 189.35,-49.5"/>
<polygon fill="black" stroke="black" points="189.07,-52.99 199.44,-50.83 189.98,-46.05 189.07,-52.99"/>
<text text-anchor="middle" x="170.5" y="-56.8" font-family="Times,serif" font-size="14.00">c:r/4</text>
</g>
<!-- 2&#45;&gt;3 -->
<g id="edge6" class="edge">
<title>2&#45;&gt;3</title>
<path fill="none" stroke="black" d="M142.11,-19.54C154.21,-21.09 170.6,-24.13 184,-30 187.89,-31.71 191.78,-33.88 195.48,-36.25"/>
<polygon fill="black" stroke="black" points="193.49,-39.13 203.7,-41.98 197.5,-33.39 193.49,-39.13"/>
<text text-anchor="middle" x="170.5" y="-33.8" font-family="Times,serif" font-size="14.00">d:s/6</text>
</g>
</g>
</svg>
