<?xml version="1.0" encoding="UTF-8" standalone="no"?>
<!DOCTYPE svg PUBLIC "-//W3C//DTD SVG 1.1//EN"
 "http://www.w3.org/Graphics/SVG/1.1/DTD/svg11.dtd">
<!-- Generated by graphviz version 8.1.0 (20230707.0739)
 -->
<!-- Title: FST Pages: 1 -->
<svg width="429pt" height="98pt"
 viewBox="0.00 0.00 428.50 98.00" xmlns="http://www.w3.org/2000/svg" xmlns:xlink="http://www.w3.org/1999/xlink">
<g id="graph0" class="graph" transform="scale(1 1) rotate(0) translate(4 94)">
<title>FST</title>
<polygon fill="white" stroke="none" points="-4,4 -4,-94 424.5,-94 424.5,4 -4,4"/>
<!-- 0 -->
<g id="node1" class="node">
<title>0</title>
<ellipse fill="none" stroke="black" stroke-width="2" cx="18" cy="-45" rx="18" ry="18"/>
<text text-anchor="middle" x="18" y="-39.95" font-family="Times,serif" font-size="14.00">0</text>
</g>
<!-- 5 -->
<g id="node2" class="node">
<title>5</title>
<ellipse fill="none" stroke="black" cx="123.75" cy="-45" rx="18" ry="18"/>
<text text-anchor="middle" x="123.75" y="-39.95" font-family="Times,serif" font-size="14.00">5</text>
</g>
<!-- 0&#45;&gt;5 -->
<g id="edge1" class="edge">
<title>0&#45;&gt;5</title>
<path fill="none" stroke="black" d="M36.13,-45C52.05,-45 76.05,-45 94.75,-45"/>
<polygon fill="black" stroke="black" points="94.59,-48.5 104.59,-45 94.59,-41.5 94.59,-48.5"/>
<text text-anchor="middle" x="70.88" y="-48.2" font-family="Times,serif" font-size="14.00">eps:eps</text>
</g>
<!-- 3 -->
<g id="node5" class="node">
<title>3</title>
<ellipse fill="none" stroke="black" cx="229.5" cy="-72" rx="18" ry="18"/>
<text text-anchor="middle" x="229.5" y="-66.95" font-family="Times,serif" font-size="14.00">3</text>
</g>
<!-- 5&#45;&gt;3 -->
<g id="edge5" class="edge">
<title>5&#45;&gt;3</title>
<path fill="none" stroke="black" d="M141.42,-49.34C157.6,-53.55 182.44,-60.01 201.46,-64.96"/>
<polygon fill="black" stroke="black" points="200.31,-68.54 210.87,-67.67 202.08,-61.77 200.31,-68.54"/>
<text text-anchor="middle" x="176.62" y="-66.2" font-family="Times,serif" font-size="14.00">eps:eps</text>
</g>
<!-- 4 -->
<g id="node6" class="node">
<title>4</title>
<ellipse fill="none" stroke="black" cx="229.5" cy="-18" rx="18" ry="18"/>
<text text-anchor="middle" x="229.5" y="-12.95" font-family="Times,serif" font-size="14.00">4</text>
</g>
<!-- 5&#45;&gt;4 -->
<g id="edge6" class="edge">
<title>5&#45;&gt;4</title>
<path fill="none" stroke="black" d="M140.89,-38.73C145.93,-36.9 151.53,-35 156.75,-33.5 171.2,-29.36 187.57,-25.75 201.02,-23.05"/>
<polygon fill="black" stroke="black" points="201.38,-26.35 210.53,-21.01 200.04,-19.48 201.38,-26.35"/>
<text text-anchor="middle" x="176.62" y="-37.2" font-family="Times,serif" font-size="14.00">eps:eps</text>
</g>
<!-- 1 -->
<g id="node3" class="node">
<title>1</title>
<ellipse fill="none" stroke="black" cx="398.5" cy="-45" rx="18" ry="18"/>
<ellipse fill="none" stroke="black" cx="398.5" cy="-45" rx="22" ry="22"/>
<text text-anchor="middle" x="398.5" y="-39.95" font-family="Times,serif" font-size="14.00">1</text>
</g>
<!-- 2 -->
<g id="node4" class="node">
<title>2</title>
<ellipse fill="none" stroke="black" cx="312.75" cy="-45" rx="18" ry="18"/>
<text text-anchor="middle" x="312.75" y="-39.95" font-family="Times,serif" font-size="14.00">2</text>
</g>
<!-- 2&#45;&gt;1 -->
<g id="edge2" class="edge">
<title>2&#45;&gt;1</title>
<path fill="none" stroke="black" d="M331.1,-45C340.98,-45 353.66,-45 365.3,-45"/>
<polygon fill="black" stroke="black" points="365,-48.5 375,-45 365,-41.5 365,-48.5"/>
<text text-anchor="middle" x="353.62" y="-48.2" font-family="Times,serif" font-size="14.00">a:a</text>
</g>
<!-- 3&#45;&gt;2 -->
<g id="edge3" class="edge">
<title>3&#45;&gt;2</title>
<path fill="none" stroke="black" d="M246.94,-66.54C257.84,-62.91 272.4,-58.08 284.96,-53.9"/>
<polygon fill="black" stroke="black" points="285.95,-56.93 294.33,-50.46 283.74,-50.29 285.95,-56.93"/>
<text text-anchor="middle" x="271.12" y="-63.2" font-family="Times,serif" font-size="14.00">b:b</text>
</g>
<!-- 4&#45;&gt;2 -->
<g id="edge4" class="edge">
<title>4&#45;&gt;2</title>
<path fill="none" stroke="black" d="M246.94,-23.46C257.84,-27.09 272.4,-31.92 284.96,-36.1"/>
<polygon fill="black" stroke="black" points="283.74,-39.71 294.33,-39.54 285.95,-33.07 283.74,-39.71"/>
<text text-anchor="middle" x="271.12" y="-37.2" font-family="Times,serif" font-size="14.00">c:c</text>
</g>
</g>
</svg>
