<?xml version="1.0" encoding="UTF-8" standalone="no"?>
<!DOCTYPE svg PUBLIC "-//W3C//DTD SVG 1.1//EN"
 "http://www.w3.org/Graphics/SVG/1.1/DTD/svg11.dtd">
<!-- Generated by graphviz version 9.0.0 (20230911.1827)
 -->
<!-- Title: FST Pages: 1 -->
<svg width="323pt" height="98pt"
 viewBox="0.00 0.00 322.75 98.00" xmlns="http://www.w3.org/2000/svg" xmlns:xlink="http://www.w3.org/1999/xlink">
<g id="graph0" class="graph" transform="scale(1 1) rotate(0) translate(4 94)">
<title>FST</title>
<polygon fill="white" stroke="none" points="-4,4 -4,-94 318.75,-94 318.75,4 -4,4"/>
<!-- 4 -->
<g id="node1" class="node">
<title>4</title>
<ellipse fill="none" stroke="black" stroke-width="2" cx="18" cy="-45" rx="18" ry="18"/>
<text text-anchor="middle" x="18" y="-39.95" font-family="Times,serif" font-size="14.00">4</text>
</g>
<!-- 2 -->
<g id="node2" class="node">
<title>2</title>
<ellipse fill="none" stroke="black" cx="123.75" cy="-72" rx="18" ry="18"/>
<text text-anchor="middle" x="123.75" y="-66.95" font-family="Times,serif" font-size="14.00">2</text>
</g>
<!-- 4&#45;&gt;2 -->
<g id="edge1" class="edge">
<title>4&#45;&gt;2</title>
<path fill="none" stroke="black" d="M35.67,-49.34C51.7,-53.51 76.23,-59.89 95.17,-64.82"/>
<polygon fill="black" stroke="black" points="94.1,-68.16 104.66,-67.29 95.86,-61.39 94.1,-68.16"/>
<text text-anchor="middle" x="70.88" y="-66.2" font-family="Times,serif" font-size="14.00">eps:eps</text>
</g>
<!-- 3 -->
<g id="node3" class="node">
<title>3</title>
<ellipse fill="none" stroke="black" cx="123.75" cy="-18" rx="18" ry="18"/>
<text text-anchor="middle" x="123.75" y="-12.95" font-family="Times,serif" font-size="14.00">3</text>
</g>
<!-- 4&#45;&gt;3 -->
<g id="edge2" class="edge">
<title>4&#45;&gt;3</title>
<path fill="none" stroke="black" d="M35.14,-38.73C40.18,-36.9 45.78,-35 51,-33.5 65.31,-29.4 81.49,-25.82 94.87,-23.13"/>
<polygon fill="black" stroke="black" points="95.14,-26.64 104.29,-21.3 93.81,-19.77 95.14,-26.64"/>
<text text-anchor="middle" x="70.88" y="-37.2" font-family="Times,serif" font-size="14.00">eps:eps</text>
</g>
<!-- 1 -->
<g id="node5" class="node">
<title>1</title>
<ellipse fill="none" stroke="black" cx="207" cy="-45" rx="18" ry="18"/>
<text text-anchor="middle" x="207" y="-39.95" font-family="Times,serif" font-size="14.00">1</text>
</g>
<!-- 2&#45;&gt;1 -->
<g id="edge4" class="edge">
<title>2&#45;&gt;1</title>
<path fill="none" stroke="black" d="M141.19,-66.54C151.98,-62.95 166.36,-58.17 178.83,-54.03"/>
<polygon fill="black" stroke="black" points="179.76,-57.41 188.15,-50.93 177.55,-50.77 179.76,-57.41"/>
<text text-anchor="middle" x="165.38" y="-63.2" font-family="Times,serif" font-size="14.00">b:b</text>
</g>
<!-- 3&#45;&gt;1 -->
<g id="edge5" class="edge">
<title>3&#45;&gt;1</title>
<path fill="none" stroke="black" d="M141.19,-23.46C151.98,-27.05 166.36,-31.83 178.83,-35.97"/>
<polygon fill="black" stroke="black" points="177.55,-39.23 188.15,-39.07 179.76,-32.59 177.55,-39.23"/>
<text text-anchor="middle" x="165.38" y="-37.2" font-family="Times,serif" font-size="14.00">c:c</text>
</g>
<!-- 0 -->
<g id="node4" class="node">
<title>0</title>
<ellipse fill="none" stroke="black" cx="292.75" cy="-45" rx="18" ry="18"/>
<ellipse fill="none" stroke="black" cx="292.75" cy="-45" rx="22" ry="22"/>
<text text-anchor="middle" x="292.75" y="-39.95" font-family="Times,serif" font-size="14.00">0</text>
</g>
<!-- 1&#45;&gt;0 -->
<g id="edge3" class="edge">
<title>1&#45;&gt;0</title>
<path fill="none" stroke="black" d="M225.35,-45C235.03,-45 247.39,-45 258.83,-45"/>
<polygon fill="black" stroke="black" points="258.74,-48.5 268.74,-45 258.74,-41.5 258.74,-48.5"/>
<text text-anchor="middle" x="247.88" y="-48.2" font-family="Times,serif" font-size="14.00">a:a</text>
</g>
</g>
</svg>
