<?xml version="1.0" encoding="UTF-8" standalone="no"?>
<!DOCTYPE svg PUBLIC "-//W3C//DTD SVG 1.1//EN"
 "http://www.w3.org/Graphics/SVG/1.1/DTD/svg11.dtd">
<!-- Generated by graphviz version 7.0.0 (20221023.0053)
 -->
<!-- Title: FST Pages: 1 -->
<svg width="201pt" height="69pt"
 viewBox="0.00 0.00 200.59 69.30" xmlns="http://www.w3.org/2000/svg" xmlns:xlink="http://www.w3.org/1999/xlink">
<g id="graph0" class="graph" transform="scale(1 1) rotate(0) translate(4 65.3)">
<title>FST</title>
<polygon fill="white" stroke="none" points="-4,4 -4,-65.3 196.59,-65.3 196.59,4 -4,4"/>
<!-- 0 -->
<g id="node1" class="node">
<title>0</title>
<ellipse fill="none" stroke="black" stroke-width="2" cx="30.65" cy="-30.65" rx="26.78" ry="26.78"/>
<ellipse fill="none" stroke="black" stroke-width="2" cx="30.65" cy="-30.65" rx="30.8" ry="30.8"/>
<text text-anchor="middle" x="30.65" y="-26.95" font-family="Times,serif" font-size="14.00">0/18</text>
</g>
<!-- 1 -->
<g id="node2" class="node">
<title>1</title>
<ellipse fill="none" stroke="black" cx="161.94" cy="-30.65" rx="26.78" ry="26.78"/>
<ellipse fill="none" stroke="black" cx="161.94" cy="-30.65" rx="30.8" ry="30.8"/>
<text text-anchor="middle" x="161.94" y="-26.95" font-family="Times,serif" font-size="14.00">1/13</text>
</g>
<!-- 0&#45;&gt;1 -->
<g id="edge1" class="edge">
<title>0&#45;&gt;1</title>
<path fill="none" stroke="black" d="M61.64,-30.65C78.81,-30.65 100.62,-30.65 119.42,-30.65"/>
<polygon fill="black" stroke="black" points="119.16,-34.15 129.16,-30.65 119.16,-27.15 119.16,-34.15"/>
<text text-anchor="middle" x="96.3" y="-34.45" font-family="Times,serif" font-size="14.00">eps:p/4</text>
</g>
<!-- 0&#45;&gt;1 -->
<g id="edge2" class="edge">
<title>0&#45;&gt;1</title>
<path fill="none" stroke="black" d="M58.48,-17.19C64.22,-14.89 70.35,-12.86 76.3,-11.65 93.71,-8.1 98.88,-8.1 116.3,-11.65 118.62,-12.12 120.97,-12.72 123.31,-13.41"/>
<polygon fill="black" stroke="black" points="122.09,-16.69 132.69,-16.69 124.4,-10.08 122.09,-16.69"/>
<text text-anchor="middle" x="96.3" y="-15.45" font-family="Times,serif" font-size="14.00">a:eps/3</text>
</g>
</g>
</svg>
