<?xml version="1.0" encoding="UTF-8" standalone="no"?>
<!DOCTYPE svg PUBLIC "-//W3C//DTD SVG 1.1//EN"
 "http://www.w3.org/Graphics/SVG/1.1/DTD/svg11.dtd">
<!-- Generated by graphviz version 7.0.0 (20221023.0053)
 -->
<!-- Title: FST Pages: 1 -->
<svg width="248pt" height="148pt"
 viewBox="0.00 0.00 248.20 147.53" xmlns="http://www.w3.org/2000/svg" xmlns:xlink="http://www.w3.org/1999/xlink">
<g id="graph0" class="graph" transform="scale(1 1) rotate(0) translate(4 143.53)">
<title>FST</title>
<polygon fill="white" stroke="none" points="-4,4 -4,-143.53 244.2,-143.53 244.2,4 -4,4"/>
<!-- 0 -->
<g id="node1" class="node">
<title>0</title>
<ellipse fill="none" stroke="black" stroke-width="2" cx="18" cy="-67.53" rx="18" ry="18"/>
<text text-anchor="middle" x="18" y="-63.83" font-family="Times,serif" font-size="14.00">0</text>
</g>
<!-- 1 -->
<g id="node2" class="node">
<title>1</title>
<ellipse fill="none" stroke="black" cx="112" cy="-105.53" rx="18" ry="18"/>
<text text-anchor="middle" x="112" y="-101.83" font-family="Times,serif" font-size="14.00">1</text>
</g>
<!-- 0&#45;&gt;1 -->
<g id="edge1" class="edge">
<title>0&#45;&gt;1</title>
<path fill="none" stroke="black" d="M24.09,-84.77C28.83,-97.42 37.27,-113.71 51,-121.53 61.79,-127.68 75.02,-125.06 86.3,-120.31"/>
<polygon fill="black" stroke="black" points="87.62,-123.56 95.03,-116 84.52,-117.29 87.62,-123.56"/>
<text text-anchor="middle" x="65" y="-128.33" font-family="Times,serif" font-size="14.00">a:a/2</text>
</g>
<!-- 0&#45;&gt;1 -->
<g id="edge2" class="edge">
<title>0&#45;&gt;1</title>
<path fill="none" stroke="black" d="M34.46,-75.7C39.66,-78.33 45.53,-81.17 51,-83.53 61.62,-88.12 73.55,-92.62 83.95,-96.34"/>
<polygon fill="black" stroke="black" points="82.48,-99.54 93.08,-99.54 84.8,-92.93 82.48,-99.54"/>
<text text-anchor="middle" x="65" y="-97.33" font-family="Times,serif" font-size="14.00">b:a/2</text>
</g>
<!-- 0&#45;&gt;1 -->
<g id="edge3" class="edge">
<title>0&#45;&gt;1</title>
<path fill="none" stroke="black" d="M35.65,-62.53C48.21,-59.72 65.5,-57.94 79,-64.53 86.2,-68.04 92.25,-74.04 97.08,-80.39"/>
<polygon fill="black" stroke="black" points="93.98,-82.04 102.45,-88.41 99.8,-78.15 93.98,-82.04"/>
<text text-anchor="middle" x="65" y="-68.33" font-family="Times,serif" font-size="14.00">c:a/3</text>
</g>
<!-- 2 -->
<g id="node3" class="node">
<title>2</title>
<ellipse fill="none" stroke="black" cx="112" cy="-18.53" rx="18" ry="18"/>
<text text-anchor="middle" x="112" y="-14.83" font-family="Times,serif" font-size="14.00">2</text>
</g>
<!-- 0&#45;&gt;2 -->
<g id="edge4" class="edge">
<title>0&#45;&gt;2</title>
<path fill="none" stroke="black" d="M31.61,-55.12C37.21,-50.1 44.09,-44.55 51,-40.53 61.08,-34.68 72.98,-29.93 83.52,-26.36"/>
<polygon fill="black" stroke="black" points="84.35,-29.76 92.83,-23.41 82.24,-23.09 84.35,-29.76"/>
<text text-anchor="middle" x="65" y="-44.33" font-family="Times,serif" font-size="14.00">d:a/3</text>
</g>
<!-- 0&#45;&gt;2 -->
<g id="edge5" class="edge">
<title>0&#45;&gt;2</title>
<path fill="none" stroke="black" d="M23.28,-49.88C27.69,-35.94 36.08,-17.41 51,-8.53 61.04,-2.56 73.6,-3.61 84.63,-6.74"/>
<polygon fill="black" stroke="black" points="83.38,-10.01 93.98,-10.03 85.71,-3.4 83.38,-10.01"/>
<text text-anchor="middle" x="65" y="-12.33" font-family="Times,serif" font-size="14.00">f:a/1</text>
</g>
<!-- 3 -->
<g id="node4" class="node">
<title>3</title>
<ellipse fill="none" stroke="black" cx="214.1" cy="-110.53" rx="22.18" ry="22.18"/>
<ellipse fill="none" stroke="black" cx="214.1" cy="-110.53" rx="26.2" ry="26.2"/>
<text text-anchor="middle" x="214.1" y="-106.83" font-family="Times,serif" font-size="14.00">3/1</text>
</g>
<!-- 1&#45;&gt;3 -->
<g id="edge6" class="edge">
<title>1&#45;&gt;3</title>
<path fill="none" stroke="black" d="M129.79,-110.55C134.65,-111.78 140,-112.92 145,-113.53 155.13,-114.78 166.16,-114.84 176.34,-114.38"/>
<polygon fill="black" stroke="black" points="176.53,-117.88 186.28,-113.74 176.08,-110.89 176.53,-117.88"/>
<text text-anchor="middle" x="159" y="-118.33" font-family="Times,serif" font-size="14.00">f:b/3</text>
</g>
<!-- 1&#45;&gt;3 -->
<g id="edge7" class="edge">
<title>1&#45;&gt;3</title>
<path fill="none" stroke="black" d="M129.01,-98.87C134.04,-97.09 139.67,-95.42 145,-94.53 157.27,-92.48 160.78,-92.18 173,-94.53 175.01,-94.92 177.05,-95.4 179.08,-95.96"/>
<polygon fill="black" stroke="black" points="177.77,-99.22 188.36,-99.04 179.97,-92.57 177.77,-99.22"/>
<text text-anchor="middle" x="159" y="-98.33" font-family="Times,serif" font-size="14.00">g:b/2</text>
</g>
<!-- 4 -->
<g id="node5" class="node">
<title>4</title>
<ellipse fill="none" stroke="black" cx="214.1" cy="-29.53" rx="22.18" ry="22.18"/>
<ellipse fill="none" stroke="black" cx="214.1" cy="-29.53" rx="26.2" ry="26.2"/>
<text text-anchor="middle" x="214.1" y="-25.83" font-family="Times,serif" font-size="14.00">4/3</text>
</g>
<!-- 2&#45;&gt;4 -->
<g id="edge8" class="edge">
<title>2&#45;&gt;4</title>
<path fill="none" stroke="black" d="M129.98,-20.4C142.73,-21.8 160.65,-23.77 176.6,-25.52"/>
<polygon fill="black" stroke="black" points="175.93,-28.97 186.25,-26.58 176.69,-22.01 175.93,-28.97"/>
<text text-anchor="middle" x="159" y="-28.33" font-family="Times,serif" font-size="14.00">f:c/5</text>
</g>
<!-- 2&#45;&gt;4 -->
<g id="edge9" class="edge">
<title>2&#45;&gt;4</title>
<path fill="none" stroke="black" d="M127.75,-9.37C133,-6.6 139.08,-3.93 145,-2.53 157.11,0.33 161.1,1.1 173,-2.53 176.72,-3.67 180.42,-5.28 183.97,-7.16"/>
<polygon fill="black" stroke="black" points="181.85,-9.96 192.2,-12.19 185.49,-3.99 181.85,-9.96"/>
<text text-anchor="middle" x="159" y="-6.33" font-family="Times,serif" font-size="14.00">g:c/4</text>
</g>
</g>
</svg>
