<?xml version="1.0" encoding="UTF-8" standalone="no"?>
<!DOCTYPE svg PUBLIC "-//W3C//DTD SVG 1.1//EN"
 "http://www.w3.org/Graphics/SVG/1.1/DTD/svg11.dtd">
<!-- Generated by graphviz version 6.0.2 (20221011.1828)
 -->
<!-- Title: FST Pages: 1 -->
<svg width="430pt" height="98pt"
 viewBox="0.00 0.00 430.00 98.00" xmlns="http://www.w3.org/2000/svg" xmlns:xlink="http://www.w3.org/1999/xlink">
<g id="graph0" class="graph" transform="scale(1 1) rotate(0) translate(4 94)">
<title>FST</title>
<polygon fill="white" stroke="none" points="-4,4 -4,-94 426,-94 426,4 -4,4"/>
<!-- 0 -->
<g id="node1" class="node">
<title>0</title>
<ellipse fill="none" stroke="black" stroke-width="2" cx="18" cy="-45" rx="18" ry="18"/>
<text text-anchor="middle" x="18" y="-41.3" font-family="Times,serif" font-size="14.00">0</text>
</g>
<!-- 5 -->
<g id="node2" class="node">
<title>5</title>
<ellipse fill="none" stroke="black" cx="124" cy="-45" rx="18" ry="18"/>
<text text-anchor="middle" x="124" y="-41.3" font-family="Times,serif" font-size="14.00">5</text>
</g>
<!-- 0&#45;&gt;5 -->
<g id="edge1" class="edge">
<title>0&#45;&gt;5</title>
<path fill="none" stroke="black" d="M36.17,-45C52.36,-45 76.87,-45 95.73,-45"/>
<polygon fill="black" stroke="black" points="95.8,-48.5 105.8,-45 95.8,-41.5 95.8,-48.5"/>
<text text-anchor="middle" x="71" y="-48.8" font-family="Times,serif" font-size="14.00">eps:eps</text>
</g>
<!-- 3 -->
<g id="node5" class="node">
<title>3</title>
<ellipse fill="none" stroke="black" cx="230" cy="-72" rx="18" ry="18"/>
<text text-anchor="middle" x="230" y="-68.3" font-family="Times,serif" font-size="14.00">3</text>
</g>
<!-- 5&#45;&gt;3 -->
<g id="edge5" class="edge">
<title>5&#45;&gt;3</title>
<path fill="none" stroke="black" d="M141.71,-49.34C158.08,-53.59 183.3,-60.14 202.43,-65.1"/>
<polygon fill="black" stroke="black" points="201.77,-68.55 212.33,-67.67 203.53,-61.77 201.77,-68.55"/>
<text text-anchor="middle" x="177" y="-66.8" font-family="Times,serif" font-size="14.00">eps:eps</text>
</g>
<!-- 4 -->
<g id="node6" class="node">
<title>4</title>
<ellipse fill="none" stroke="black" cx="230" cy="-18" rx="18" ry="18"/>
<text text-anchor="middle" x="230" y="-14.3" font-family="Times,serif" font-size="14.00">4</text>
</g>
<!-- 5&#45;&gt;4 -->
<g id="edge6" class="edge">
<title>5&#45;&gt;4</title>
<path fill="none" stroke="black" d="M141.17,-39.05C146.2,-37.3 151.8,-35.47 157,-34 171.68,-29.86 188.3,-26.11 201.86,-23.28"/>
<polygon fill="black" stroke="black" points="202.89,-26.64 211.99,-21.22 201.49,-19.78 202.89,-26.64"/>
<text text-anchor="middle" x="177" y="-37.8" font-family="Times,serif" font-size="14.00">eps:eps</text>
</g>
<!-- 1 -->
<g id="node3" class="node">
<title>1</title>
<ellipse fill="none" stroke="black" cx="400" cy="-45" rx="18" ry="18"/>
<ellipse fill="none" stroke="black" cx="400" cy="-45" rx="22" ry="22"/>
<text text-anchor="middle" x="400" y="-41.3" font-family="Times,serif" font-size="14.00">1</text>
</g>
<!-- 2 -->
<g id="node4" class="node">
<title>2</title>
<ellipse fill="none" stroke="black" cx="314" cy="-45" rx="18" ry="18"/>
<text text-anchor="middle" x="314" y="-41.3" font-family="Times,serif" font-size="14.00">2</text>
</g>
<!-- 2&#45;&gt;1 -->
<g id="edge2" class="edge">
<title>2&#45;&gt;1</title>
<path fill="none" stroke="black" d="M332.4,-45C342.59,-45 355.75,-45 367.68,-45"/>
<polygon fill="black" stroke="black" points="367.74,-48.5 377.74,-45 367.74,-41.5 367.74,-48.5"/>
<text text-anchor="middle" x="355" y="-48.8" font-family="Times,serif" font-size="14.00">a:a</text>
</g>
<!-- 3&#45;&gt;2 -->
<g id="edge3" class="edge">
<title>3&#45;&gt;2</title>
<path fill="none" stroke="black" d="M247.2,-66.67C258.47,-62.95 273.74,-57.93 286.74,-53.65"/>
<polygon fill="black" stroke="black" points="288.15,-56.87 296.55,-50.42 285.96,-50.22 288.15,-56.87"/>
<text text-anchor="middle" x="272" y="-63.8" font-family="Times,serif" font-size="14.00">b:b</text>
</g>
<!-- 4&#45;&gt;2 -->
<g id="edge4" class="edge">
<title>4&#45;&gt;2</title>
<path fill="none" stroke="black" d="M247.2,-23.33C258.47,-27.05 273.74,-32.07 286.74,-36.35"/>
<polygon fill="black" stroke="black" points="285.96,-39.78 296.55,-39.58 288.15,-33.13 285.96,-39.78"/>
<text text-anchor="middle" x="272" y="-36.8" font-family="Times,serif" font-size="14.00">c:c</text>
</g>
</g>
</svg>
