<?xml version="1.0" encoding="UTF-8" standalone="no"?>
<!DOCTYPE svg PUBLIC "-//W3C//DTD SVG 1.1//EN"
 "http://www.w3.org/Graphics/SVG/1.1/DTD/svg11.dtd">
<!-- Generated by graphviz version 8.1.0 (20230707.0739)
 -->
<!-- Title: FST Pages: 1 -->
<svg width="219pt" height="122pt"
 viewBox="0.00 0.00 218.50 121.88" xmlns="http://www.w3.org/2000/svg" xmlns:xlink="http://www.w3.org/1999/xlink">
<g id="graph0" class="graph" transform="scale(1 1) rotate(0) translate(4 117.88)">
<title>FST</title>
<polygon fill="white" stroke="none" points="-4,4 -4,-117.88 214.5,-117.88 214.5,4 -4,4"/>
<!-- 0 -->
<g id="node1" class="node">
<title>0</title>
<ellipse fill="none" stroke="black" stroke-width="2" cx="18" cy="-37.38" rx="18" ry="18"/>
<text text-anchor="middle" x="18" y="-32.33" font-family="Times,serif" font-size="14.00">0</text>
</g>
<!-- 1 -->
<g id="node2" class="node">
<title>1</title>
<ellipse fill="none" stroke="black" cx="101.25" cy="-77.38" rx="18" ry="18"/>
<text text-anchor="middle" x="101.25" y="-72.33" font-family="Times,serif" font-size="14.00">1</text>
</g>
<!-- 0&#45;&gt;1 -->
<g id="edge1" class="edge">
<title>0&#45;&gt;1</title>
<path fill="none" stroke="black" d="M23.45,-55.02C27.94,-68.69 36.34,-86.73 51,-95.38 59.11,-100.17 68.72,-98.14 77.28,-94.03"/>
<polygon fill="black" stroke="black" points="78.83,-96.59 85.7,-88.53 75.3,-90.55 78.83,-96.59"/>
<text text-anchor="middle" x="59.62" y="-100.58" font-family="Times,serif" font-size="14.00">1:4</text>
</g>
<!-- 0&#45;&gt;1 -->
<g id="edge2" class="edge">
<title>0&#45;&gt;1</title>
<path fill="none" stroke="black" d="M34.15,-46.28C39.42,-49.27 45.42,-52.57 51,-55.38 58.39,-59.1 66.55,-62.87 74.06,-66.22"/>
<polygon fill="black" stroke="black" points="72.54,-69.81 83.11,-70.61 75.35,-63.4 72.54,-69.81"/>
<text text-anchor="middle" x="59.62" y="-66.58" font-family="Times,serif" font-size="14.00">3:5</text>
</g>
<!-- 0&#45;&gt;1 -->
<g id="edge3" class="edge">
<title>0&#45;&gt;1</title>
<path fill="none" stroke="black" d="M35.81,-32.55C45.75,-30.63 58.29,-29.91 68.25,-34.88 75.86,-38.68 82.14,-45.25 87.06,-52.1"/>
<polygon fill="black" stroke="black" points="84.62,-53.8 92.92,-60.39 90.54,-50.06 84.62,-53.8"/>
<text text-anchor="middle" x="59.62" y="-38.58" font-family="Times,serif" font-size="14.00">2:3</text>
</g>
<!-- 2 -->
<g id="node3" class="node">
<title>2</title>
<ellipse fill="none" stroke="black" cx="188.5" cy="-37.38" rx="18" ry="18"/>
<ellipse fill="none" stroke="black" cx="188.5" cy="-37.38" rx="22" ry="22"/>
<text text-anchor="middle" x="188.5" y="-32.33" font-family="Times,serif" font-size="14.00">2</text>
</g>
<!-- 0&#45;&gt;2 -->
<g id="edge4" class="edge">
<title>0&#45;&gt;2</title>
<path fill="none" stroke="black" d="M35.38,-31.21C40.33,-29.64 45.82,-28.17 51,-27.38 95.16,-20.64 107.24,-21.35 151.5,-27.38 153.27,-27.62 155.07,-27.92 156.88,-28.28"/>
<polygon fill="black" stroke="black" points="155.6,-31.81 166.14,-30.69 157.21,-24.99 155.6,-31.81"/>
<text text-anchor="middle" x="101.25" y="-27.58" font-family="Times,serif" font-size="14.00">5:2</text>
</g>
<!-- 0&#45;&gt;2 -->
<g id="edge5" class="edge">
<title>0&#45;&gt;2</title>
<path fill="none" stroke="black" d="M33.2,-27.08C45.69,-18.71 64.71,-7.54 83.25,-2.88 98.77,1.02 103.69,0.83 119.25,-2.88 133.48,-6.27 148.1,-13.13 160.14,-19.85"/>
<polygon fill="black" stroke="black" points="158.18,-23.34 168.58,-25.38 161.72,-17.3 158.18,-23.34"/>
<text text-anchor="middle" x="101.25" y="-6.58" font-family="Times,serif" font-size="14.00">4:1</text>
</g>
<!-- 1&#45;&gt;2 -->
<g id="edge6" class="edge">
<title>1&#45;&gt;2</title>
<path fill="none" stroke="black" d="M115.7,-88.36C125.89,-95.26 140.04,-101.75 151.5,-95.38 162.36,-89.34 170.37,-78.51 176.03,-67.83"/>
<polygon fill="black" stroke="black" points="179.47,-69.74 180.59,-59.21 173.15,-66.75 179.47,-69.74"/>
<text text-anchor="middle" x="142.88" y="-100.58" font-family="Times,serif" font-size="14.00">2:3</text>
</g>
<!-- 1&#45;&gt;2 -->
<g id="edge7" class="edge">
<title>1&#45;&gt;2</title>
<path fill="none" stroke="black" d="M118.3,-70.42C127.97,-66.18 140.5,-60.58 151.5,-55.38 153.85,-54.27 156.27,-53.1 158.69,-51.92"/>
<polygon fill="black" stroke="black" points="160.11,-54.63 167.52,-47.06 157,-48.36 160.11,-54.63"/>
<text text-anchor="middle" x="142.88" y="-66.58" font-family="Times,serif" font-size="14.00">3:1</text>
</g>
<!-- 1&#45;&gt;2 -->
<g id="edge8" class="edge">
<title>1&#45;&gt;2</title>
<path fill="none" stroke="black" d="M109.58,-61.39C114.93,-51.79 123.18,-40.4 134.25,-34.88 140.85,-31.59 148.5,-30.59 155.91,-30.77"/>
<polygon fill="black" stroke="black" points="155.51,-34.34 165.8,-31.81 156.18,-27.38 155.51,-34.34"/>
<text text-anchor="middle" x="142.88" y="-38.58" font-family="Times,serif" font-size="14.00">1:2</text>
</g>
</g>
</svg>
