<?xml version="1.0" encoding="UTF-8" standalone="no"?>
<!DOCTYPE svg PUBLIC "-//W3C//DTD SVG 1.1//EN"
 "http://www.w3.org/Graphics/SVG/1.1/DTD/svg11.dtd">
<!-- Generated by graphviz version 2.43.0 (0)
 -->
<!-- Title: FST Pages: 1 -->
<svg width="350pt" height="98pt"
 viewBox="0.00 0.00 350.00 98.00" xmlns="http://www.w3.org/2000/svg" xmlns:xlink="http://www.w3.org/1999/xlink">
<g id="graph0" class="graph" transform="scale(1 1) rotate(0) translate(4 94)">
<title>FST</title>
<polygon fill="white" stroke="transparent" points="-4,4 -4,-94 346,-94 346,4 -4,4"/>
<!-- 4 -->
<g id="node1" class="node">
<title>4</title>
<ellipse fill="none" stroke="black" stroke-width="2" cx="18" cy="-45" rx="18" ry="18"/>
<text text-anchor="middle" x="18" y="-41.3" font-family="Times,serif" font-size="14.00">4</text>
</g>
<!-- 2 -->
<g id="node2" class="node">
<title>2</title>
<ellipse fill="none" stroke="black" cx="139" cy="-72" rx="18" ry="18"/>
<text text-anchor="middle" x="139" y="-68.3" font-family="Times,serif" font-size="14.00">2</text>
</g>
<!-- 4&#45;&gt;2 -->
<g id="edge1" class="edge">
<title>4&#45;&gt;2</title>
<path fill="none" stroke="black" d="M35.8,-48.81C55.47,-53.27 88.29,-60.72 111.42,-65.97"/>
<polygon fill="black" stroke="black" points="110.76,-69.41 121.29,-68.21 112.31,-62.58 110.76,-69.41"/>
<text text-anchor="middle" x="78.5" y="-67.8" font-family="Times,serif" font-size="14.00">eps:eps</text>
</g>
<!-- 3 -->
<g id="node3" class="node">
<title>3</title>
<ellipse fill="none" stroke="black" cx="139" cy="-18" rx="18" ry="18"/>
<text text-anchor="middle" x="139" y="-14.3" font-family="Times,serif" font-size="14.00">3</text>
</g>
<!-- 4&#45;&gt;3 -->
<g id="edge2" class="edge">
<title>4&#45;&gt;3</title>
<path fill="none" stroke="black" d="M34.76,-38.42C39.87,-36.47 45.62,-34.46 51,-33 70.72,-27.65 93.5,-23.81 110.8,-21.35"/>
<polygon fill="black" stroke="black" points="111.35,-24.81 120.79,-20 110.41,-17.87 111.35,-24.81"/>
<text text-anchor="middle" x="78.5" y="-36.8" font-family="Times,serif" font-size="14.00">eps:eps</text>
</g>
<!-- 1 -->
<g id="node5" class="node">
<title>1</title>
<ellipse fill="none" stroke="black" cx="228" cy="-45" rx="18" ry="18"/>
<text text-anchor="middle" x="228" y="-41.3" font-family="Times,serif" font-size="14.00">1</text>
</g>
<!-- 2&#45;&gt;1 -->
<g id="edge4" class="edge">
<title>2&#45;&gt;1</title>
<path fill="none" stroke="black" d="M156.36,-66.92C168.88,-63.04 186.39,-57.6 200.84,-53.12"/>
<polygon fill="black" stroke="black" points="202.2,-56.36 210.71,-50.06 200.12,-49.68 202.2,-56.36"/>
<text text-anchor="middle" x="183.5" y="-64.8" font-family="Times,serif" font-size="14.00">b:b</text>
</g>
<!-- 3&#45;&gt;1 -->
<g id="edge5" class="edge">
<title>3&#45;&gt;1</title>
<path fill="none" stroke="black" d="M156.36,-23.08C168.88,-26.96 186.39,-32.4 200.84,-36.88"/>
<polygon fill="black" stroke="black" points="200.12,-40.32 210.71,-39.94 202.2,-33.64 200.12,-40.32"/>
<text text-anchor="middle" x="183.5" y="-37.8" font-family="Times,serif" font-size="14.00">c:c</text>
</g>
<!-- 0 -->
<g id="node4" class="node">
<title>0</title>
<ellipse fill="none" stroke="black" cx="320" cy="-45" rx="18" ry="18"/>
<ellipse fill="none" stroke="black" cx="320" cy="-45" rx="22" ry="22"/>
<text text-anchor="middle" x="320" y="-41.3" font-family="Times,serif" font-size="14.00">0</text>
</g>
<!-- 1&#45;&gt;0 -->
<g id="edge3" class="edge">
<title>1&#45;&gt;0</title>
<path fill="none" stroke="black" d="M246.35,-45C258.08,-45 273.89,-45 287.76,-45"/>
<polygon fill="black" stroke="black" points="287.9,-48.5 297.9,-45 287.9,-41.5 287.9,-48.5"/>
<text text-anchor="middle" x="272" y="-48.8" font-family="Times,serif" font-size="14.00">a:a</text>
</g>
</g>
</svg>
