<?xml version="1.0" encoding="UTF-8" standalone="no"?>
<!DOCTYPE svg PUBLIC "-//W3C//DTD SVG 1.1//EN"
 "http://www.w3.org/Graphics/SVG/1.1/DTD/svg11.dtd">
<!-- Generated by graphviz version 9.0.0 (20230911.1827)
 -->
<!-- Title: FST Pages: 1 -->
<svg width="249pt" height="111pt"
 viewBox="0.00 0.00 249.25 111.00" xmlns="http://www.w3.org/2000/svg" xmlns:xlink="http://www.w3.org/1999/xlink">
<g id="graph0" class="graph" transform="scale(1 1) rotate(0) translate(4 107)">
<title>FST</title>
<polygon fill="white" stroke="none" points="-4,4 -4,-107 245.25,-107 245.25,4 -4,4"/>
<!-- 0 -->
<g id="node1" class="node">
<title>0</title>
<ellipse fill="none" stroke="black" stroke-width="2" cx="18" cy="-58" rx="18" ry="18"/>
<text text-anchor="middle" x="18" y="-52.95" font-family="Times,serif" font-size="14.00">0</text>
</g>
<!-- 1 -->
<g id="node2" class="node">
<title>1</title>
<ellipse fill="none" stroke="black" cx="123" cy="-85" rx="18" ry="18"/>
<text text-anchor="middle" x="123" y="-79.95" font-family="Times,serif" font-size="14.00">1</text>
</g>
<!-- 0&#45;&gt;1 -->
<g id="edge1" class="edge">
<title>0&#45;&gt;1</title>
<path fill="none" stroke="black" d="M33.42,-67.68C38.74,-70.82 44.95,-74 51,-76 64.55,-80.48 80.23,-82.75 93.4,-83.89"/>
<polygon fill="black" stroke="black" points="92.94,-87.37 103.15,-84.55 93.41,-80.39 92.94,-87.37"/>
<text text-anchor="middle" x="70.5" y="-86.2" font-family="Times,serif" font-size="14.00">a:p/1</text>
</g>
<!-- 0&#45;&gt;1 -->
<g id="edge3" class="edge">
<title>0&#45;&gt;1</title>
<path fill="none" stroke="black" d="M35.99,-53.72C50.78,-50.84 72.54,-48.68 90,-55.5 94.59,-57.29 98.92,-60.09 102.83,-63.26"/>
<polygon fill="black" stroke="black" points="100.3,-65.69 109.98,-70 105.1,-60.6 100.3,-65.69"/>
<text text-anchor="middle" x="70.5" y="-58.2" font-family="Times,serif" font-size="14.00">eps:q/3</text>
</g>
<!-- 2 -->
<g id="node3" class="node">
<title>2</title>
<ellipse fill="none" stroke="black" cx="123" cy="-18" rx="18" ry="18"/>
<text text-anchor="middle" x="123" y="-12.95" font-family="Times,serif" font-size="14.00">2</text>
</g>
<!-- 0&#45;&gt;2 -->
<g id="edge2" class="edge">
<title>0&#45;&gt;2</title>
<path fill="none" stroke="black" d="M30.55,-44.78C36.16,-39.19 43.34,-33.14 51,-29.5 64.04,-23.3 79.78,-20.35 93.12,-18.99"/>
<polygon fill="black" stroke="black" points="93.34,-22.48 103.05,-18.24 92.82,-15.5 93.34,-22.48"/>
<text text-anchor="middle" x="70.5" y="-32.2" font-family="Times,serif" font-size="14.00">a:q/2</text>
</g>
<!-- 3 -->
<g id="node4" class="node">
<title>3</title>
<ellipse fill="none" stroke="black" cx="219.25" cy="-58" rx="18" ry="18"/>
<ellipse fill="none" stroke="black" cx="219.25" cy="-58" rx="22" ry="22"/>
<text text-anchor="middle" x="219.25" y="-52.95" font-family="Times,serif" font-size="14.00">3</text>
</g>
<!-- 1&#45;&gt;3 -->
<g id="edge4" class="edge">
<title>1&#45;&gt;3</title>
<path fill="none" stroke="black" d="M141.4,-83.73C153.15,-82.53 168.89,-80.26 182.25,-76 184.63,-75.24 187.05,-74.34 189.45,-73.36"/>
<polygon fill="black" stroke="black" points="190.66,-76.66 198.28,-69.3 187.73,-70.3 190.66,-76.66"/>
<text text-anchor="middle" x="169.12" y="-84.2" font-family="Times,serif" font-size="14.00">c:r/5</text>
</g>
<!-- 1&#45;&gt;3 -->
<g id="edge5" class="edge">
<title>1&#45;&gt;3</title>
<path fill="none" stroke="black" d="M134.92,-71.04C140.5,-65.05 147.84,-58.69 156,-55.5 165.41,-51.82 176.25,-51.16 186.21,-51.81"/>
<polygon fill="black" stroke="black" points="185.54,-55.25 195.87,-52.89 186.32,-48.3 185.54,-55.25"/>
<text text-anchor="middle" x="169.12" y="-58.2" font-family="Times,serif" font-size="14.00">c:r/4</text>
</g>
<!-- 2&#45;&gt;3 -->
<g id="edge6" class="edge">
<title>2&#45;&gt;3</title>
<path fill="none" stroke="black" d="M141.2,-19.68C153.14,-21.31 169.19,-24.48 182.25,-30.5 186.04,-32.25 189.81,-34.46 193.41,-36.86"/>
<polygon fill="black" stroke="black" points="191.05,-39.47 201.18,-42.58 195.2,-33.83 191.05,-39.47"/>
<text text-anchor="middle" x="169.12" y="-33.2" font-family="Times,serif" font-size="14.00">d:s/6</text>
</g>
</g>
</svg>
