<?xml version="1.0" encoding="UTF-8" standalone="no"?>
<!DOCTYPE svg PUBLIC "-//W3C//DTD SVG 1.1//EN"
 "http://www.w3.org/Graphics/SVG/1.1/DTD/svg11.dtd">
<!-- Generated by graphviz version 7.0.0 (20221023.0053)
 -->
<!-- Title: FST Pages: 1 -->
<svg width="244pt" height="156pt"
 viewBox="0.00 0.00 244.00 156.00" xmlns="http://www.w3.org/2000/svg" xmlns:xlink="http://www.w3.org/1999/xlink">
<g id="graph0" class="graph" transform="scale(1 1) rotate(0) translate(4 152)">
<title>FST</title>
<polygon fill="white" stroke="none" points="-4,4 -4,-152 240,-152 240,4 -4,4"/>
<!-- 0 -->
<g id="node1" class="node">
<title>0</title>
<ellipse fill="none" stroke="black" stroke-width="2" cx="18" cy="-75" rx="18" ry="18"/>
<text text-anchor="middle" x="18" y="-71.3" font-family="Times,serif" font-size="14.00">0</text>
</g>
<!-- 1 -->
<g id="node2" class="node">
<title>1</title>
<ellipse fill="none" stroke="black" cx="118" cy="-113" rx="18" ry="18"/>
<text text-anchor="middle" x="118" y="-109.3" font-family="Times,serif" font-size="14.00">1</text>
</g>
<!-- 0&#45;&gt;1 -->
<g id="edge1" class="edge">
<title>0&#45;&gt;1</title>
<path fill="none" stroke="black" d="M24.09,-92.24C28.83,-104.89 37.27,-121.18 51,-129 63.56,-136.16 79.24,-132.79 92.16,-127.33"/>
<polygon fill="black" stroke="black" points="93.41,-130.61 100.88,-123.1 90.35,-124.32 93.41,-130.61"/>
<text text-anchor="middle" x="68" y="-136.8" font-family="Times,serif" font-size="14.00">a:a/5</text>
</g>
<!-- 0&#45;&gt;1 -->
<g id="edge2" class="edge">
<title>0&#45;&gt;1</title>
<path fill="none" stroke="black" d="M34.42,-83.26C39.61,-85.9 45.49,-88.72 51,-91 63.43,-96.15 77.54,-100.98 89.51,-104.8"/>
<polygon fill="black" stroke="black" points="88.18,-108.05 98.77,-107.68 90.26,-101.37 88.18,-108.05"/>
<text text-anchor="middle" x="68" y="-106.8" font-family="Times,serif" font-size="14.00">b:a/5</text>
</g>
<!-- 0&#45;&gt;1 -->
<g id="edge3" class="edge">
<title>0&#45;&gt;1</title>
<path fill="none" stroke="black" d="M35.62,-70C49.54,-66.78 69.54,-64.45 85,-72 92.2,-75.51 98.25,-81.51 103.08,-87.85"/>
<polygon fill="black" stroke="black" points="99.98,-89.51 108.45,-95.88 105.8,-85.62 99.98,-89.51"/>
<text text-anchor="middle" x="68" y="-75.8" font-family="Times,serif" font-size="14.00">c:a/6</text>
</g>
<!-- 2 -->
<g id="node3" class="node">
<title>2</title>
<ellipse fill="none" stroke="black" cx="118" cy="-18" rx="18" ry="18"/>
<text text-anchor="middle" x="118" y="-14.3" font-family="Times,serif" font-size="14.00">2</text>
</g>
<!-- 0&#45;&gt;2 -->
<g id="edge4" class="edge">
<title>0&#45;&gt;2</title>
<path fill="none" stroke="black" d="M31.36,-62.6C37.03,-57.35 44.02,-51.44 51,-47 63.13,-39.29 77.66,-32.66 89.99,-27.69"/>
<polygon fill="black" stroke="black" points="91.09,-31.02 99.16,-24.16 88.57,-24.49 91.09,-31.02"/>
<text text-anchor="middle" x="68" y="-50.8" font-family="Times,serif" font-size="14.00">d:a/10</text>
</g>
<!-- 0&#45;&gt;2 -->
<g id="edge5" class="edge">
<title>0&#45;&gt;2</title>
<path fill="none" stroke="black" d="M22.52,-57.11C26.56,-41.9 34.83,-20.99 51,-11 62.56,-3.86 77.47,-4.78 90.19,-7.85"/>
<polygon fill="black" stroke="black" points="89.07,-11.17 99.66,-10.68 91.07,-4.46 89.07,-11.17"/>
<text text-anchor="middle" x="68" y="-14.8" font-family="Times,serif" font-size="14.00">f:a/8</text>
</g>
<!-- 3 -->
<g id="node4" class="node">
<title>3</title>
<ellipse fill="none" stroke="black" cx="214" cy="-75" rx="18" ry="18"/>
<ellipse fill="none" stroke="black" cx="214" cy="-75" rx="22" ry="22"/>
<text text-anchor="middle" x="214" y="-71.3" font-family="Times,serif" font-size="14.00">3</text>
</g>
<!-- 1&#45;&gt;3 -->
<g id="edge6" class="edge">
<title>1&#45;&gt;3</title>
<path fill="none" stroke="black" d="M136.22,-115.21C148.16,-116.01 164.15,-115.61 177,-110 182.36,-107.66 187.37,-104.15 191.87,-100.24"/>
<polygon fill="black" stroke="black" points="194.05,-103 198.72,-93.49 189.14,-98.01 194.05,-103"/>
<text text-anchor="middle" x="164" y="-118.8" font-family="Times,serif" font-size="14.00">f:b/1</text>
</g>
<!-- 1&#45;&gt;3 -->
<g id="edge7" class="edge">
<title>1&#45;&gt;3</title>
<path fill="none" stroke="black" d="M132.7,-102.02C138.14,-98.08 144.62,-93.91 151,-91 160.38,-86.73 171.1,-83.45 180.96,-81.01"/>
<polygon fill="black" stroke="black" points="181.54,-84.47 190.52,-78.85 180,-77.64 181.54,-84.47"/>
<text text-anchor="middle" x="164" y="-94.8" font-family="Times,serif" font-size="14.00">g:b</text>
</g>
<!-- 2&#45;&gt;3 -->
<g id="edge8" class="edge">
<title>2&#45;&gt;3</title>
<path fill="none" stroke="black" d="M133.69,-26.91C147.41,-35.23 168.27,-47.87 185.15,-58.11"/>
<polygon fill="black" stroke="black" points="182.88,-60.83 193.25,-63.02 186.51,-54.84 182.88,-60.83"/>
<text text-anchor="middle" x="164" y="-54.8" font-family="Times,serif" font-size="14.00">f:c/1</text>
</g>
<!-- 2&#45;&gt;3 -->
<g id="edge9" class="edge">
<title>2&#45;&gt;3</title>
<path fill="none" stroke="black" d="M136.09,-14.24C148.26,-12.49 164.6,-12.09 177,-19 187.12,-24.64 194.83,-34.44 200.47,-44.28"/>
<polygon fill="black" stroke="black" points="197.27,-45.71 204.92,-53.04 203.51,-42.54 197.27,-45.71"/>
<text text-anchor="middle" x="164" y="-22.8" font-family="Times,serif" font-size="14.00">g:c</text>
</g>
</g>
</svg>
