<?xml version="1.0" encoding="UTF-8" standalone="no"?>
<!DOCTYPE svg PUBLIC "-//W3C//DTD SVG 1.1//EN"
 "http://www.w3.org/Graphics/SVG/1.1/DTD/svg11.dtd">
<!-- Generated by graphviz version 7.0.4 (20221203.1631)
 -->
<!-- Title: FST Pages: 1 -->
<svg width="324pt" height="98pt"
 viewBox="0.00 0.00 324.00 98.00" xmlns="http://www.w3.org/2000/svg" xmlns:xlink="http://www.w3.org/1999/xlink">
<g id="graph0" class="graph" transform="scale(1 1) rotate(0) translate(4 94)">
<title>FST</title>
<polygon fill="white" stroke="none" points="-4,4 -4,-94 320,-94 320,4 -4,4"/>
<!-- 4 -->
<g id="node1" class="node">
<title>4</title>
<ellipse fill="none" stroke="black" stroke-width="2" cx="18" cy="-45" rx="18" ry="18"/>
<text text-anchor="middle" x="18" y="-41.3" font-family="Times,serif" font-size="14.00">4</text>
</g>
<!-- 2 -->
<g id="node2" class="node">
<title>2</title>
<ellipse fill="none" stroke="black" cx="124" cy="-72" rx="18" ry="18"/>
<text text-anchor="middle" x="124" y="-68.3" font-family="Times,serif" font-size="14.00">2</text>
</g>
<!-- 4&#45;&gt;2 -->
<g id="edge1" class="edge">
<title>4&#45;&gt;2</title>
<path fill="none" stroke="black" d="M35.71,-49.34C51.78,-53.51 76.37,-59.89 95.36,-64.82"/>
<polygon fill="black" stroke="black" points="94.31,-68.17 104.87,-67.29 96.07,-61.39 94.31,-68.17"/>
<text text-anchor="middle" x="71" y="-66.8" font-family="Times,serif" font-size="14.00">eps:eps</text>
</g>
<!-- 3 -->
<g id="node3" class="node">
<title>3</title>
<ellipse fill="none" stroke="black" cx="124" cy="-18" rx="18" ry="18"/>
<text text-anchor="middle" x="124" y="-14.3" font-family="Times,serif" font-size="14.00">3</text>
</g>
<!-- 4&#45;&gt;3 -->
<g id="edge2" class="edge">
<title>4&#45;&gt;3</title>
<path fill="none" stroke="black" d="M35.17,-39.05C40.2,-37.3 45.8,-35.47 51,-34 65.39,-29.94 81.64,-26.26 95.05,-23.45"/>
<polygon fill="black" stroke="black" points="95.41,-26.95 104.51,-21.52 94.01,-20.09 95.41,-26.95"/>
<text text-anchor="middle" x="71" y="-37.8" font-family="Times,serif" font-size="14.00">eps:eps</text>
</g>
<!-- 1 -->
<g id="node5" class="node">
<title>1</title>
<ellipse fill="none" stroke="black" cx="208" cy="-45" rx="18" ry="18"/>
<text text-anchor="middle" x="208" y="-41.3" font-family="Times,serif" font-size="14.00">1</text>
</g>
<!-- 2&#45;&gt;1 -->
<g id="edge4" class="edge">
<title>2&#45;&gt;1</title>
<path fill="none" stroke="black" d="M141.59,-66.54C152.49,-62.95 166.99,-58.17 179.57,-54.03"/>
<polygon fill="black" stroke="black" points="180.59,-57.38 188.99,-50.93 178.4,-50.73 180.59,-57.38"/>
<text text-anchor="middle" x="166" y="-63.8" font-family="Times,serif" font-size="14.00">b:b</text>
</g>
<!-- 3&#45;&gt;1 -->
<g id="edge5" class="edge">
<title>3&#45;&gt;1</title>
<path fill="none" stroke="black" d="M141.59,-23.46C152.49,-27.05 166.99,-31.83 179.57,-35.97"/>
<polygon fill="black" stroke="black" points="178.4,-39.27 188.99,-39.07 180.59,-32.62 178.4,-39.27"/>
<text text-anchor="middle" x="166" y="-36.8" font-family="Times,serif" font-size="14.00">c:c</text>
</g>
<!-- 0 -->
<g id="node4" class="node">
<title>0</title>
<ellipse fill="none" stroke="black" cx="294" cy="-45" rx="18" ry="18"/>
<ellipse fill="none" stroke="black" cx="294" cy="-45" rx="22" ry="22"/>
<text text-anchor="middle" x="294" y="-41.3" font-family="Times,serif" font-size="14.00">0</text>
</g>
<!-- 1&#45;&gt;0 -->
<g id="edge3" class="edge">
<title>1&#45;&gt;0</title>
<path fill="none" stroke="black" d="M226.4,-45C236.28,-45 248.96,-45 260.59,-45"/>
<polygon fill="black" stroke="black" points="260.23,-48.5 270.23,-45 260.23,-41.5 260.23,-48.5"/>
<text text-anchor="middle" x="249" y="-48.8" font-family="Times,serif" font-size="14.00">a:a</text>
</g>
</g>
</svg>
