<?xml version="1.0" encoding="UTF-8" standalone="no"?>
<!DOCTYPE svg PUBLIC "-//W3C//DTD SVG 1.1//EN"
 "http://www.w3.org/Graphics/SVG/1.1/DTD/svg11.dtd">
<!-- Generated by graphviz version 8.1.0 (20230707.0739)
 -->
<!-- Title: FST Pages: 1 -->
<svg width="323pt" height="98pt"
 viewBox="0.00 0.00 322.75 98.00" xmlns="http://www.w3.org/2000/svg" xmlns:xlink="http://www.w3.org/1999/xlink">
<g id="graph0" class="graph" transform="scale(1 1) rotate(0) translate(4 94)">
<title>FST</title>
<polygon fill="white" stroke="none" points="-4,4 -4,-94 318.75,-94 318.75,4 -4,4"/>
<!-- 0 -->
<g id="node1" class="node">
<title>0</title>
<ellipse fill="none" stroke="black" stroke-width="2" cx="18" cy="-45" rx="18" ry="18"/>
<text text-anchor="middle" x="18" y="-39.95" font-family="Times,serif" font-size="14.00">0</text>
</g>
<!-- 1 -->
<g id="node2" class="node">
<title>1</title>
<ellipse fill="none" stroke="black" cx="99.75" cy="-45" rx="18" ry="18"/>
<text text-anchor="middle" x="99.75" y="-39.95" font-family="Times,serif" font-size="14.00">1</text>
</g>
<!-- 0&#45;&gt;1 -->
<g id="edge1" class="edge">
<title>0&#45;&gt;1</title>
<path fill="none" stroke="black" d="M36.3,-45C46.34,-45 59.21,-45 70.66,-45"/>
<polygon fill="black" stroke="black" points="70.48,-48.5 80.48,-45 70.48,-41.5 70.48,-48.5"/>
<text text-anchor="middle" x="58.88" y="-48.2" font-family="Times,serif" font-size="14.00">a:a</text>
</g>
<!-- 2 -->
<g id="node3" class="node">
<title>2</title>
<ellipse fill="none" stroke="black" cx="183" cy="-72" rx="18" ry="18"/>
<text text-anchor="middle" x="183" y="-66.95" font-family="Times,serif" font-size="14.00">2</text>
</g>
<!-- 1&#45;&gt;2 -->
<g id="edge2" class="edge">
<title>1&#45;&gt;2</title>
<path fill="none" stroke="black" d="M117.19,-50.46C128.09,-54.09 142.65,-58.92 155.21,-63.1"/>
<polygon fill="black" stroke="black" points="153.99,-66.71 164.58,-66.54 156.2,-60.07 153.99,-66.71"/>
<text text-anchor="middle" x="141.38" y="-63.2" font-family="Times,serif" font-size="14.00">b:b</text>
</g>
<!-- 3 -->
<g id="node4" class="node">
<title>3</title>
<ellipse fill="none" stroke="black" cx="183" cy="-18" rx="18" ry="18"/>
<text text-anchor="middle" x="183" y="-12.95" font-family="Times,serif" font-size="14.00">3</text>
</g>
<!-- 1&#45;&gt;3 -->
<g id="edge3" class="edge">
<title>1&#45;&gt;3</title>
<path fill="none" stroke="black" d="M117.19,-39.54C128.09,-35.91 142.65,-31.08 155.21,-26.9"/>
<polygon fill="black" stroke="black" points="156.2,-29.93 164.58,-23.46 153.99,-23.29 156.2,-29.93"/>
<text text-anchor="middle" x="141.38" y="-37.2" font-family="Times,serif" font-size="14.00">c:c</text>
</g>
<!-- 4 -->
<g id="node5" class="node">
<title>4</title>
<ellipse fill="none" stroke="black" cx="292.75" cy="-45" rx="18" ry="18"/>
<ellipse fill="none" stroke="black" cx="292.75" cy="-45" rx="22" ry="22"/>
<text text-anchor="middle" x="292.75" y="-39.95" font-family="Times,serif" font-size="14.00">4</text>
</g>
<!-- 2&#45;&gt;4 -->
<g id="edge4" class="edge">
<title>2&#45;&gt;4</title>
<path fill="none" stroke="black" d="M200.84,-67.78C216.74,-63.8 241,-57.72 260.46,-52.84"/>
<polygon fill="black" stroke="black" points="261.13,-56.03 269.97,-50.21 259.42,-49.24 261.13,-56.03"/>
<text text-anchor="middle" x="235.88" y="-66.2" font-family="Times,serif" font-size="14.00">eps:eps</text>
</g>
<!-- 3&#45;&gt;4 -->
<g id="edge5" class="edge">
<title>3&#45;&gt;4</title>
<path fill="none" stroke="black" d="M200.88,-21.59C215.47,-24.77 237.07,-29.63 255.75,-34.5 257.48,-34.95 259.26,-35.43 261.05,-35.92"/>
<polygon fill="black" stroke="black" points="259.67,-39.45 270.25,-38.8 261.57,-32.71 259.67,-39.45"/>
<text text-anchor="middle" x="235.88" y="-38.2" font-family="Times,serif" font-size="14.00">eps:eps</text>
</g>
</g>
</svg>
