<?xml version="1.0" encoding="UTF-8" standalone="no"?>
<!DOCTYPE svg PUBLIC "-//W3C//DTD SVG 1.1//EN"
 "http://www.w3.org/Graphics/SVG/1.1/DTD/svg11.dtd">
<!-- Generated by graphviz version 9.0.0 (20230911.1827)
 -->
<!-- Title: FST Pages: 1 -->
<svg width="243pt" height="165pt"
 viewBox="0.00 0.00 243.25 164.50" xmlns="http://www.w3.org/2000/svg" xmlns:xlink="http://www.w3.org/1999/xlink">
<g id="graph0" class="graph" transform="scale(1 1) rotate(0) translate(4 160.5)">
<title>FST</title>
<polygon fill="white" stroke="none" points="-4,4 -4,-160.5 239.25,-160.5 239.25,4 -4,4"/>
<!-- 0 -->
<g id="node1" class="node">
<title>0</title>
<ellipse fill="none" stroke="black" stroke-width="2" cx="18" cy="-78" rx="18" ry="18"/>
<text text-anchor="middle" x="18" y="-72.95" font-family="Times,serif" font-size="14.00">0</text>
</g>
<!-- 1 -->
<g id="node2" class="node">
<title>1</title>
<ellipse fill="none" stroke="black" cx="117.75" cy="-118" rx="18" ry="18"/>
<text text-anchor="middle" x="117.75" y="-112.95" font-family="Times,serif" font-size="14.00">1</text>
</g>
<!-- 0&#45;&gt;1 -->
<g id="edge1" class="edge">
<title>0&#45;&gt;1</title>
<path fill="none" stroke="black" d="M23.45,-95.64C27.94,-109.31 36.34,-127.35 51,-136 63.58,-143.43 79.31,-139.51 92.24,-133.46"/>
<polygon fill="black" stroke="black" points="93.8,-136.59 100.97,-128.79 90.5,-130.42 93.8,-136.59"/>
<text text-anchor="middle" x="67.88" y="-143.2" font-family="Times,serif" font-size="14.00">a:a/5</text>
</g>
<!-- 0&#45;&gt;1 -->
<g id="edge2" class="edge">
<title>0&#45;&gt;1</title>
<path fill="none" stroke="black" d="M34,-87.21C39.26,-90.23 45.29,-93.47 51,-96 63.26,-101.44 77.3,-106.31 89.25,-110.08"/>
<polygon fill="black" stroke="black" points="87.9,-113.33 98.49,-112.89 89.94,-106.63 87.9,-113.33"/>
<text text-anchor="middle" x="67.88" y="-111.2" font-family="Times,serif" font-size="14.00">b:a/5</text>
</g>
<!-- 0&#45;&gt;1 -->
<g id="edge3" class="edge">
<title>0&#45;&gt;1</title>
<path fill="none" stroke="black" d="M35.6,-73.14C49.48,-70.02 69.42,-67.85 84.75,-75.5 92.36,-79.3 98.64,-85.87 103.56,-92.72"/>
<polygon fill="black" stroke="black" points="100.32,-94.14 108.61,-100.73 106.24,-90.4 100.32,-94.14"/>
<text text-anchor="middle" x="67.88" y="-79.2" font-family="Times,serif" font-size="14.00">c:a/6</text>
</g>
<!-- 2 -->
<g id="node3" class="node">
<title>2</title>
<ellipse fill="none" stroke="black" cx="117.75" cy="-18" rx="18" ry="18"/>
<text text-anchor="middle" x="117.75" y="-12.95" font-family="Times,serif" font-size="14.00">2</text>
</g>
<!-- 0&#45;&gt;2 -->
<g id="edge4" class="edge">
<title>0&#45;&gt;2</title>
<path fill="none" stroke="black" d="M31.8,-65.71C37.43,-60.65 44.28,-54.95 51,-50.5 63.4,-42.29 78.17,-34.81 90.57,-29.1"/>
<polygon fill="black" stroke="black" points="91.65,-32.45 99.35,-25.18 88.79,-26.06 91.65,-32.45"/>
<text text-anchor="middle" x="67.88" y="-54.2" font-family="Times,serif" font-size="14.00">d:a/10</text>
</g>
<!-- 0&#45;&gt;2 -->
<g id="edge5" class="edge">
<title>0&#45;&gt;2</title>
<path fill="none" stroke="black" d="M22.24,-60.31C26.14,-44.71 34.36,-22.89 51,-12.5 62.38,-5.39 77.11,-5.94 89.75,-8.63"/>
<polygon fill="black" stroke="black" points="88.58,-11.94 99.14,-11.15 90.39,-5.18 88.58,-11.94"/>
<text text-anchor="middle" x="67.88" y="-16.2" font-family="Times,serif" font-size="14.00">f:a/8</text>
</g>
<!-- 3 -->
<g id="node4" class="node">
<title>3</title>
<ellipse fill="none" stroke="black" cx="213.25" cy="-78" rx="18" ry="18"/>
<ellipse fill="none" stroke="black" cx="213.25" cy="-78" rx="22" ry="22"/>
<text text-anchor="middle" x="213.25" y="-72.95" font-family="Times,serif" font-size="14.00">3</text>
</g>
<!-- 1&#45;&gt;3 -->
<g id="edge6" class="edge">
<title>1&#45;&gt;3</title>
<path fill="none" stroke="black" d="M135.87,-120.7C147.73,-121.81 163.59,-121.71 176.25,-116 182.15,-113.34 187.56,-109.21 192.29,-104.65"/>
<polygon fill="black" stroke="black" points="194.85,-107.04 199.01,-97.29 189.68,-102.32 194.85,-107.04"/>
<text text-anchor="middle" x="163.5" y="-124.2" font-family="Times,serif" font-size="14.00">f:b/1</text>
</g>
<!-- 1&#45;&gt;3 -->
<g id="edge7" class="edge">
<title>1&#45;&gt;3</title>
<path fill="none" stroke="black" d="M132.45,-106.84C137.9,-102.82 144.37,-98.54 150.75,-95.5 160.04,-91.07 170.67,-87.55 180.45,-84.87"/>
<polygon fill="black" stroke="black" points="181.1,-88.31 189.94,-82.47 179.38,-81.53 181.1,-88.31"/>
<text text-anchor="middle" x="163.5" y="-98.2" font-family="Times,serif" font-size="14.00">g:b</text>
</g>
<!-- 2&#45;&gt;3 -->
<g id="edge8" class="edge">
<title>2&#45;&gt;3</title>
<path fill="none" stroke="black" d="M133.36,-27.38C147.1,-36.19 168.02,-49.61 184.86,-60.42"/>
<polygon fill="black" stroke="black" points="182.64,-63.16 192.95,-65.61 186.42,-57.27 182.64,-63.16"/>
<text text-anchor="middle" x="163.5" y="-57.2" font-family="Times,serif" font-size="14.00">f:c/1</text>
</g>
<!-- 2&#45;&gt;3 -->
<g id="edge9" class="edge">
<title>2&#45;&gt;3</title>
<path fill="none" stroke="black" d="M135.75,-14.38C147.85,-12.73 164.05,-12.47 176.25,-19.5 186.87,-25.62 194.76,-36.25 200.41,-46.78"/>
<polygon fill="black" stroke="black" points="197.22,-48.22 204.67,-55.75 203.54,-45.22 197.22,-48.22"/>
<text text-anchor="middle" x="163.5" y="-23.2" font-family="Times,serif" font-size="14.00">g:c</text>
</g>
</g>
</svg>
