<?xml version="1.0" encoding="UTF-8" standalone="no"?>
<!DOCTYPE svg PUBLIC "-//W3C//DTD SVG 1.1//EN"
 "http://www.w3.org/Graphics/SVG/1.1/DTD/svg11.dtd">
<!-- Generated by graphviz version 2.43.0 (0)
 -->
<!-- Title: FST Pages: 1 -->
<svg width="531pt" height="98pt"
 viewBox="0.00 0.00 531.00 98.00" xmlns="http://www.w3.org/2000/svg" xmlns:xlink="http://www.w3.org/1999/xlink">
<g id="graph0" class="graph" transform="scale(1 1) rotate(0) translate(4 94)">
<title>FST</title>
<polygon fill="white" stroke="transparent" points="-4,4 -4,-94 527,-94 527,4 -4,4"/>
<!-- 0 -->
<g id="node1" class="node">
<title>0</title>
<ellipse fill="none" stroke="black" stroke-width="2" cx="18" cy="-45" rx="18" ry="18"/>
<text text-anchor="middle" x="18" y="-41.3" font-family="Times,serif" font-size="14.00">0</text>
</g>
<!-- 7 -->
<g id="node2" class="node">
<title>7</title>
<ellipse fill="none" stroke="black" cx="109" cy="-72" rx="18" ry="18"/>
<text text-anchor="middle" x="109" y="-68.3" font-family="Times,serif" font-size="14.00">7</text>
</g>
<!-- 0&#45;&gt;7 -->
<g id="edge1" class="edge">
<title>0&#45;&gt;7</title>
<path fill="none" stroke="black" d="M35.32,-49.95C48.29,-53.89 66.68,-59.46 81.71,-64.03"/>
<polygon fill="black" stroke="black" points="80.89,-67.43 91.48,-66.99 82.92,-60.74 80.89,-67.43"/>
<text text-anchor="middle" x="63.5" y="-64.8" font-family="Times,serif" font-size="14.00">eps</text>
</g>
<!-- 8 -->
<g id="node3" class="node">
<title>8</title>
<ellipse fill="none" stroke="black" cx="109" cy="-18" rx="18" ry="18"/>
<text text-anchor="middle" x="109" y="-14.3" font-family="Times,serif" font-size="14.00">8</text>
</g>
<!-- 0&#45;&gt;8 -->
<g id="edge2" class="edge">
<title>0&#45;&gt;8</title>
<path fill="none" stroke="black" d="M35.32,-40.05C48.29,-36.11 66.68,-30.54 81.71,-25.97"/>
<polygon fill="black" stroke="black" points="82.92,-29.26 91.48,-23.01 80.89,-22.57 82.92,-29.26"/>
<text text-anchor="middle" x="63.5" y="-37.8" font-family="Times,serif" font-size="14.00">eps</text>
</g>
<!-- 5 -->
<g id="node8" class="node">
<title>5</title>
<ellipse fill="none" stroke="black" cx="200" cy="-72" rx="18" ry="18"/>
<text text-anchor="middle" x="200" y="-68.3" font-family="Times,serif" font-size="14.00">5</text>
</g>
<!-- 7&#45;&gt;5 -->
<g id="edge8" class="edge">
<title>7&#45;&gt;5</title>
<path fill="none" stroke="black" d="M127.16,-72C139.72,-72 157.02,-72 171.5,-72"/>
<polygon fill="black" stroke="black" points="171.89,-75.5 181.89,-72 171.89,-68.5 171.89,-75.5"/>
<text text-anchor="middle" x="154.5" y="-75.8" font-family="Times,serif" font-size="14.00">eps</text>
</g>
<!-- 6 -->
<g id="node9" class="node">
<title>6</title>
<ellipse fill="none" stroke="black" cx="200" cy="-18" rx="18" ry="18"/>
<text text-anchor="middle" x="200" y="-14.3" font-family="Times,serif" font-size="14.00">6</text>
</g>
<!-- 8&#45;&gt;6 -->
<g id="edge9" class="edge">
<title>8&#45;&gt;6</title>
<path fill="none" stroke="black" d="M127.16,-18C139.72,-18 157.02,-18 171.5,-18"/>
<polygon fill="black" stroke="black" points="171.89,-21.5 181.89,-18 171.89,-14.5 171.89,-21.5"/>
<text text-anchor="middle" x="154.5" y="-21.8" font-family="Times,serif" font-size="14.00">eps</text>
</g>
<!-- 1 -->
<g id="node4" class="node">
<title>1</title>
<ellipse fill="none" stroke="black" cx="501" cy="-45" rx="18" ry="18"/>
<ellipse fill="none" stroke="black" cx="501" cy="-45" rx="22" ry="22"/>
<text text-anchor="middle" x="501" y="-41.3" font-family="Times,serif" font-size="14.00">1</text>
</g>
<!-- 2 -->
<g id="node5" class="node">
<title>2</title>
<ellipse fill="none" stroke="black" cx="406" cy="-45" rx="18" ry="18"/>
<text text-anchor="middle" x="406" y="-41.3" font-family="Times,serif" font-size="14.00">2</text>
</g>
<!-- 2&#45;&gt;1 -->
<g id="edge3" class="edge">
<title>2&#45;&gt;1</title>
<path fill="none" stroke="black" d="M424.06,-45C436.46,-45 453.62,-45 468.49,-45"/>
<polygon fill="black" stroke="black" points="468.81,-48.5 478.81,-45 468.81,-41.5 468.81,-48.5"/>
<text text-anchor="middle" x="451.5" y="-48.8" font-family="Times,serif" font-size="14.00">eps</text>
</g>
<!-- 3 -->
<g id="node6" class="node">
<title>3</title>
<ellipse fill="none" stroke="black" cx="303" cy="-72" rx="18" ry="18"/>
<text text-anchor="middle" x="303" y="-68.3" font-family="Times,serif" font-size="14.00">3</text>
</g>
<!-- 3&#45;&gt;2 -->
<g id="edge4" class="edge">
<title>3&#45;&gt;2</title>
<path fill="none" stroke="black" d="M320.68,-67.54C336.39,-63.34 360.2,-56.98 378.51,-52.08"/>
<polygon fill="black" stroke="black" points="379.54,-55.43 388.3,-49.47 377.73,-48.67 379.54,-55.43"/>
<text text-anchor="middle" x="354.5" y="-66.8" font-family="Times,serif" font-size="14.00">d/0.2</text>
</g>
<!-- 4 -->
<g id="node7" class="node">
<title>4</title>
<ellipse fill="none" stroke="black" cx="303" cy="-18" rx="18" ry="18"/>
<text text-anchor="middle" x="303" y="-14.3" font-family="Times,serif" font-size="14.00">4</text>
</g>
<!-- 4&#45;&gt;2 -->
<g id="edge5" class="edge">
<title>4&#45;&gt;2</title>
<path fill="none" stroke="black" d="M320.86,-21.4C334.9,-24.35 355.39,-28.95 373,-34 375.03,-34.58 377.12,-35.22 379.21,-35.88"/>
<polygon fill="black" stroke="black" points="378.23,-39.24 388.82,-39.08 380.44,-32.6 378.23,-39.24"/>
<text text-anchor="middle" x="354.5" y="-37.8" font-family="Times,serif" font-size="14.00">d/0.2</text>
</g>
<!-- 5&#45;&gt;3 -->
<g id="edge6" class="edge">
<title>5&#45;&gt;3</title>
<path fill="none" stroke="black" d="M218.13,-72C233.59,-72 256.58,-72 274.59,-72"/>
<polygon fill="black" stroke="black" points="274.78,-75.5 284.78,-72 274.78,-68.5 274.78,-75.5"/>
<text text-anchor="middle" x="251.5" y="-75.8" font-family="Times,serif" font-size="14.00">a/0.1</text>
</g>
<!-- 6&#45;&gt;4 -->
<g id="edge7" class="edge">
<title>6&#45;&gt;4</title>
<path fill="none" stroke="black" d="M218.13,-18C233.59,-18 256.58,-18 274.59,-18"/>
<polygon fill="black" stroke="black" points="274.78,-21.5 284.78,-18 274.78,-14.5 274.78,-21.5"/>
<text text-anchor="middle" x="251.5" y="-21.8" font-family="Times,serif" font-size="14.00">b/0.1</text>
</g>
</g>
</svg>
