<?xml version="1.0" encoding="UTF-8" standalone="no"?>
<!DOCTYPE svg PUBLIC "-//W3C//DTD SVG 1.1//EN"
 "http://www.w3.org/Graphics/SVG/1.1/DTD/svg11.dtd">
<!-- Generated by graphviz version 2.43.0 (0)
 -->
<!-- Title: FST Pages: 1 -->
<svg width="529pt" height="52pt"
 viewBox="0.00 0.00 529.00 52.00" xmlns="http://www.w3.org/2000/svg" xmlns:xlink="http://www.w3.org/1999/xlink">
<g id="graph0" class="graph" transform="scale(1 1) rotate(0) translate(4 48)">
<title>FST</title>
<polygon fill="white" stroke="transparent" points="-4,4 -4,-48 525,-48 525,4 -4,4"/>
<!-- 0 -->
<g id="node1" class="node">
<title>0</title>
<ellipse fill="none" stroke="black" stroke-width="2" cx="18" cy="-22" rx="18" ry="18"/>
<text text-anchor="middle" x="18" y="-18.3" font-family="Times,serif" font-size="14.00">0</text>
</g>
<!-- 1 -->
<g id="node2" class="node">
<title>1</title>
<ellipse fill="none" stroke="black" cx="109" cy="-22" rx="18" ry="18"/>
<text text-anchor="middle" x="109" y="-18.3" font-family="Times,serif" font-size="14.00">1</text>
</g>
<!-- 0&#45;&gt;1 -->
<g id="edge1" class="edge">
<title>0&#45;&gt;1</title>
<path fill="none" stroke="black" d="M36.16,-22C48.72,-22 66.02,-22 80.5,-22"/>
<polygon fill="black" stroke="black" points="80.89,-25.5 90.89,-22 80.89,-18.5 80.89,-25.5"/>
<text text-anchor="middle" x="63.5" y="-25.8" font-family="Times,serif" font-size="14.00">eps</text>
</g>
<!-- 2 -->
<g id="node3" class="node">
<title>2</title>
<ellipse fill="none" stroke="black" cx="200" cy="-22" rx="18" ry="18"/>
<text text-anchor="middle" x="200" y="-18.3" font-family="Times,serif" font-size="14.00">2</text>
</g>
<!-- 1&#45;&gt;2 -->
<g id="edge2" class="edge">
<title>1&#45;&gt;2</title>
<path fill="none" stroke="black" d="M127.16,-22C139.72,-22 157.02,-22 171.5,-22"/>
<polygon fill="black" stroke="black" points="171.89,-25.5 181.89,-22 171.89,-18.5 171.89,-25.5"/>
<text text-anchor="middle" x="154.5" y="-25.8" font-family="Times,serif" font-size="14.00">eps</text>
</g>
<!-- 3 -->
<g id="node4" class="node">
<title>3</title>
<ellipse fill="none" stroke="black" cx="303" cy="-22" rx="18" ry="18"/>
<text text-anchor="middle" x="303" y="-18.3" font-family="Times,serif" font-size="14.00">3</text>
</g>
<!-- 2&#45;&gt;3 -->
<g id="edge3" class="edge">
<title>2&#45;&gt;3</title>
<path fill="none" stroke="black" d="M218.13,-22C233.59,-22 256.58,-22 274.59,-22"/>
<polygon fill="black" stroke="black" points="274.78,-25.5 284.78,-22 274.78,-18.5 274.78,-25.5"/>
<text text-anchor="middle" x="251.5" y="-25.8" font-family="Times,serif" font-size="14.00">b/0.1</text>
</g>
<!-- 4 -->
<g id="node5" class="node">
<title>4</title>
<ellipse fill="none" stroke="black" cx="404" cy="-22" rx="18" ry="18"/>
<text text-anchor="middle" x="404" y="-18.3" font-family="Times,serif" font-size="14.00">4</text>
</g>
<!-- 3&#45;&gt;4 -->
<g id="edge4" class="edge">
<title>3&#45;&gt;4</title>
<path fill="none" stroke="black" d="M321.24,-22C336.29,-22 358.38,-22 375.81,-22"/>
<polygon fill="black" stroke="black" points="375.95,-25.5 385.95,-22 375.95,-18.5 375.95,-25.5"/>
<text text-anchor="middle" x="353.5" y="-25.8" font-family="Times,serif" font-size="14.00">c/0.3</text>
</g>
<!-- 5 -->
<g id="node6" class="node">
<title>5</title>
<ellipse fill="none" stroke="black" cx="499" cy="-22" rx="18" ry="18"/>
<ellipse fill="none" stroke="black" cx="499" cy="-22" rx="22" ry="22"/>
<text text-anchor="middle" x="499" y="-18.3" font-family="Times,serif" font-size="14.00">5</text>
</g>
<!-- 4&#45;&gt;5 -->
<g id="edge5" class="edge">
<title>4&#45;&gt;5</title>
<path fill="none" stroke="black" d="M422.06,-22C434.46,-22 451.62,-22 466.49,-22"/>
<polygon fill="black" stroke="black" points="466.81,-25.5 476.81,-22 466.81,-18.5 466.81,-25.5"/>
<text text-anchor="middle" x="449.5" y="-25.8" font-family="Times,serif" font-size="14.00">eps</text>
</g>
</g>
</svg>
