<?xml version="1.0" encoding="UTF-8" standalone="no"?>
<!DOCTYPE svg PUBLIC "-//W3C//DTD SVG 1.1//EN"
 "http://www.w3.org/Graphics/SVG/1.1/DTD/svg11.dtd">
<!-- Generated by graphviz version 9.0.0 (20230911.1827)
 -->
<!-- Title: FST Pages: 1 -->
<svg width="239pt" height="52pt"
 viewBox="0.00 0.00 238.75 52.00" xmlns="http://www.w3.org/2000/svg" xmlns:xlink="http://www.w3.org/1999/xlink">
<g id="graph0" class="graph" transform="scale(1 1) rotate(0) translate(4 48)">
<title>FST</title>
<polygon fill="white" stroke="none" points="-4,4 -4,-48 234.75,-48 234.75,4 -4,4"/>
<!-- 2 -->
<g id="node1" class="node">
<title>2</title>
<ellipse fill="none" stroke="black" stroke-width="2" cx="18" cy="-22" rx="18" ry="18"/>
<text text-anchor="middle" x="18" y="-16.95" font-family="Times,serif" font-size="14.00">2</text>
</g>
<!-- 1 -->
<g id="node2" class="node">
<title>1</title>
<ellipse fill="none" stroke="black" cx="111" cy="-22" rx="18" ry="18"/>
<text text-anchor="middle" x="111" y="-16.95" font-family="Times,serif" font-size="14.00">1</text>
</g>
<!-- 2&#45;&gt;1 -->
<g id="edge1" class="edge">
<title>2&#45;&gt;1</title>
<path fill="none" stroke="black" d="M36.12,-22C48.87,-22 66.58,-22 81.47,-22"/>
<polygon fill="black" stroke="black" points="81.14,-25.5 91.14,-22 81.14,-18.5 81.14,-25.5"/>
<text text-anchor="middle" x="64.5" y="-25.2" font-family="Times,serif" font-size="14.00">a/0.1</text>
</g>
<!-- 0 -->
<g id="node3" class="node">
<title>0</title>
<ellipse fill="none" stroke="black" cx="208.75" cy="-22" rx="18" ry="18"/>
<ellipse fill="none" stroke="black" cx="208.75" cy="-22" rx="22" ry="22"/>
<text text-anchor="middle" x="208.75" y="-16.95" font-family="Times,serif" font-size="14.00">0</text>
</g>
<!-- 1&#45;&gt;0 -->
<g id="edge2" class="edge">
<title>1&#45;&gt;0</title>
<path fill="none" stroke="black" d="M129.12,-22C141.89,-22 159.73,-22 175.19,-22"/>
<polygon fill="black" stroke="black" points="174.91,-25.5 184.91,-22 174.91,-18.5 174.91,-25.5"/>
<text text-anchor="middle" x="157.88" y="-25.2" font-family="Times,serif" font-size="14.00">d/0.2</text>
</g>
</g>
</svg>
