<?xml version="1.0" encoding="UTF-8" standalone="no"?>
<!DOCTYPE svg PUBLIC "-//W3C//DTD SVG 1.1//EN"
 "http://www.w3.org/Graphics/SVG/1.1/DTD/svg11.dtd">
<!-- Generated by graphviz version 2.43.0 (0)
 -->
<!-- Title: FST Pages: 1 -->
<svg width="258pt" height="106pt"
 viewBox="0.00 0.00 258.00 106.00" xmlns="http://www.w3.org/2000/svg" xmlns:xlink="http://www.w3.org/1999/xlink">
<g id="graph0" class="graph" transform="scale(1 1) rotate(0) translate(4 102)">
<title>FST</title>
<polygon fill="white" stroke="transparent" points="-4,4 -4,-102 254,-102 254,4 -4,4"/>
<!-- 0 -->
<g id="node1" class="node">
<title>0</title>
<ellipse fill="none" stroke="black" stroke-width="2" cx="18" cy="-45" rx="18" ry="18"/>
<text text-anchor="middle" x="18" y="-41.3" font-family="Times,serif" font-size="14.00">0</text>
</g>
<!-- 1 -->
<g id="node2" class="node">
<title>1</title>
<ellipse fill="none" stroke="black" cx="121" cy="-72" rx="18" ry="18"/>
<text text-anchor="middle" x="121" y="-68.3" font-family="Times,serif" font-size="14.00">1</text>
</g>
<!-- 0&#45;&gt;1 -->
<g id="edge1" class="edge">
<title>0&#45;&gt;1</title>
<path fill="none" stroke="black" d="M35.68,-49.46C51.39,-53.66 75.2,-60.02 93.51,-64.92"/>
<polygon fill="black" stroke="black" points="92.73,-68.33 103.3,-67.53 94.54,-61.57 92.73,-68.33"/>
<text text-anchor="middle" x="69.5" y="-66.8" font-family="Times,serif" font-size="14.00">a/0.1</text>
</g>
<!-- 2 -->
<g id="node3" class="node">
<title>2</title>
<ellipse fill="none" stroke="black" cx="121" cy="-18" rx="18" ry="18"/>
<text text-anchor="middle" x="121" y="-14.3" font-family="Times,serif" font-size="14.00">2</text>
</g>
<!-- 0&#45;&gt;2 -->
<g id="edge2" class="edge">
<title>0&#45;&gt;2</title>
<path fill="none" stroke="black" d="M35.18,-39.08C40.21,-37.33 45.81,-35.49 51,-34 64.76,-30.05 80.27,-26.39 93.1,-23.56"/>
<polygon fill="black" stroke="black" points="94.1,-26.93 103.14,-21.4 92.63,-20.08 94.1,-26.93"/>
<text text-anchor="middle" x="69.5" y="-37.8" font-family="Times,serif" font-size="14.00">b/0.1</text>
</g>
<!-- 3 -->
<g id="node4" class="node">
<title>3</title>
<ellipse fill="none" stroke="black" cx="228" cy="-45" rx="18" ry="18"/>
<ellipse fill="none" stroke="black" cx="228" cy="-45" rx="22" ry="22"/>
<text text-anchor="middle" x="228" y="-41.3" font-family="Times,serif" font-size="14.00">3</text>
</g>
<!-- 1&#45;&gt;3 -->
<g id="edge3" class="edge">
<title>1&#45;&gt;3</title>
<path fill="none" stroke="black" d="M137.94,-78.13C152.32,-82.67 173.79,-86.99 191,-80 196.8,-77.65 202.17,-73.86 206.9,-69.64"/>
<polygon fill="black" stroke="black" points="209.65,-71.83 214.23,-62.28 204.69,-66.9 209.65,-71.83"/>
<text text-anchor="middle" x="172.5" y="-86.8" font-family="Times,serif" font-size="14.00">c/0.4</text>
</g>
<!-- 1&#45;&gt;3 -->
<g id="edge4" class="edge">
<title>1&#45;&gt;3</title>
<path fill="none" stroke="black" d="M138.17,-66.04C143.2,-64.29 148.8,-62.46 154,-61 167.7,-57.16 183.06,-53.67 196.15,-50.94"/>
<polygon fill="black" stroke="black" points="196.97,-54.34 206.07,-48.92 195.58,-47.48 196.97,-54.34"/>
<text text-anchor="middle" x="172.5" y="-64.8" font-family="Times,serif" font-size="14.00">d/0.2</text>
</g>
<!-- 2&#45;&gt;3 -->
<g id="edge5" class="edge">
<title>2&#45;&gt;3</title>
<path fill="none" stroke="black" d="M138.85,-21.14C152.9,-23.88 173.39,-28.16 191,-33 193.03,-33.56 195.12,-34.17 197.22,-34.8"/>
<polygon fill="black" stroke="black" points="196.34,-38.19 206.93,-37.89 198.46,-31.52 196.34,-38.19"/>
<text text-anchor="middle" x="172.5" y="-36.8" font-family="Times,serif" font-size="14.00">c/0.3</text>
</g>
<!-- 2&#45;&gt;3 -->
<g id="edge6" class="edge">
<title>2&#45;&gt;3</title>
<path fill="none" stroke="black" d="M137.41,-10.06C151.81,-3.78 173.63,2.74 191,-5 197.92,-8.08 204.07,-13.23 209.25,-18.82"/>
<polygon fill="black" stroke="black" points="206.6,-21.11 215.67,-26.57 211.98,-16.64 206.6,-21.11"/>
<text text-anchor="middle" x="172.5" y="-8.8" font-family="Times,serif" font-size="14.00">d/0.2</text>
</g>
</g>
</svg>
