<?xml version="1.0" encoding="UTF-8" standalone="no"?>
<!DOCTYPE svg PUBLIC "-//W3C//DTD SVG 1.1//EN"
 "http://www.w3.org/Graphics/SVG/1.1/DTD/svg11.dtd">
<!-- Generated by graphviz version 9.0.0 (20230911.1827)
 -->
<!-- Title: FST Pages: 1 -->
<svg width="500pt" height="156pt"
 viewBox="0.00 0.00 500.02 156.13" xmlns="http://www.w3.org/2000/svg" xmlns:xlink="http://www.w3.org/1999/xlink">
<g id="graph0" class="graph" transform="scale(1 1) rotate(0) translate(4 152.13)">
<title>FST</title>
<polygon fill="white" stroke="none" points="-4,4 -4,-152.13 496.02,-152.13 496.02,4 -4,4"/>
<!-- 0 -->
<g id="node1" class="node">
<title>0</title>
<ellipse fill="none" stroke="black" stroke-width="2" cx="18" cy="-76.13" rx="18" ry="18"/>
<text text-anchor="middle" x="18" y="-71.08" font-family="Times,serif" font-size="14.00">0</text>
</g>
<!-- 8 -->
<g id="node2" class="node">
<title>8</title>
<ellipse fill="none" stroke="black" cx="104.13" cy="-130.13" rx="18" ry="18"/>
<text text-anchor="middle" x="104.13" y="-125.08" font-family="Times,serif" font-size="14.00">8</text>
</g>
<!-- 0&#45;&gt;8 -->
<g id="edge1" class="edge">
<title>0&#45;&gt;8</title>
<path fill="none" stroke="black" d="M33.62,-85.8C39.07,-89.38 45.3,-93.46 51,-97.13 60.06,-102.97 70.05,-109.32 78.84,-114.87"/>
<polygon fill="black" stroke="black" points="76.88,-117.77 87.2,-120.14 80.61,-111.85 76.88,-117.77"/>
<text text-anchor="middle" x="60" y="-110.33" font-family="Times,serif" font-size="14.00">eps</text>
</g>
<!-- 9 -->
<g id="node3" class="node">
<title>9</title>
<ellipse fill="none" stroke="black" cx="104.13" cy="-76.13" rx="18" ry="18"/>
<text text-anchor="middle" x="104.13" y="-71.08" font-family="Times,serif" font-size="14.00">9</text>
</g>
<!-- 0&#45;&gt;9 -->
<g id="edge2" class="edge">
<title>0&#45;&gt;9</title>
<path fill="none" stroke="black" d="M36.43,-76.13C47.37,-76.13 61.75,-76.13 74.35,-76.13"/>
<polygon fill="black" stroke="black" points="74.21,-79.63 84.21,-76.13 74.21,-72.63 74.21,-79.63"/>
<text text-anchor="middle" x="60" y="-79.33" font-family="Times,serif" font-size="14.00">eps</text>
</g>
<!-- 11 -->
<g id="node4" class="node">
<title>11</title>
<ellipse fill="none" stroke="black" cx="104.13" cy="-20.13" rx="20.13" ry="20.13"/>
<text text-anchor="middle" x="104.13" y="-15.08" font-family="Times,serif" font-size="14.00">11</text>
</g>
<!-- 0&#45;&gt;11 -->
<g id="edge3" class="edge">
<title>0&#45;&gt;11</title>
<path fill="none" stroke="black" d="M33.65,-66.38C45.74,-58.33 63.18,-46.73 77.56,-37.15"/>
<polygon fill="black" stroke="black" points="79.28,-40.21 85.66,-31.76 75.4,-34.39 79.28,-40.21"/>
<text text-anchor="middle" x="60" y="-58.33" font-family="Times,serif" font-size="14.00">eps</text>
</g>
<!-- 6 -->
<g id="node10" class="node">
<title>6</title>
<ellipse fill="none" stroke="black" cx="192.39" cy="-130.13" rx="18" ry="18"/>
<text text-anchor="middle" x="192.39" y="-125.08" font-family="Times,serif" font-size="14.00">6</text>
</g>
<!-- 8&#45;&gt;6 -->
<g id="edge10" class="edge">
<title>8&#45;&gt;6</title>
<path fill="none" stroke="black" d="M122.59,-130.13C134.05,-130.13 149.31,-130.13 162.54,-130.13"/>
<polygon fill="black" stroke="black" points="162.45,-133.63 172.45,-130.13 162.45,-126.63 162.45,-133.63"/>
<text text-anchor="middle" x="148.26" y="-133.33" font-family="Times,serif" font-size="14.00">eps</text>
</g>
<!-- 7 -->
<g id="node11" class="node">
<title>7</title>
<ellipse fill="none" stroke="black" cx="192.39" cy="-76.13" rx="18" ry="18"/>
<text text-anchor="middle" x="192.39" y="-71.08" font-family="Times,serif" font-size="14.00">7</text>
</g>
<!-- 9&#45;&gt;7 -->
<g id="edge11" class="edge">
<title>9&#45;&gt;7</title>
<path fill="none" stroke="black" d="M122.59,-76.13C134.05,-76.13 149.31,-76.13 162.54,-76.13"/>
<polygon fill="black" stroke="black" points="162.45,-79.63 172.45,-76.13 162.45,-72.63 162.45,-79.63"/>
<text text-anchor="middle" x="148.26" y="-79.33" font-family="Times,serif" font-size="14.00">eps</text>
</g>
<!-- 10 -->
<g id="node12" class="node">
<title>10</title>
<ellipse fill="none" stroke="black" cx="192.39" cy="-20.13" rx="20.13" ry="20.13"/>
<text text-anchor="middle" x="192.39" y="-15.08" font-family="Times,serif" font-size="14.00">10</text>
</g>
<!-- 11&#45;&gt;10 -->
<g id="edge13" class="edge">
<title>11&#45;&gt;10</title>
<path fill="none" stroke="black" d="M124.71,-20.13C135.29,-20.13 148.61,-20.13 160.56,-20.13"/>
<polygon fill="black" stroke="black" points="160.38,-23.63 170.38,-20.13 160.38,-16.63 160.38,-23.63"/>
<text text-anchor="middle" x="148.26" y="-23.33" font-family="Times,serif" font-size="14.00">eps</text>
</g>
<!-- 1 -->
<g id="node5" class="node">
<title>1</title>
<ellipse fill="none" stroke="black" cx="470.02" cy="-76.13" rx="18" ry="18"/>
<ellipse fill="none" stroke="black" cx="470.02" cy="-76.13" rx="22" ry="22"/>
<text text-anchor="middle" x="470.02" y="-71.08" font-family="Times,serif" font-size="14.00">1</text>
</g>
<!-- 2 -->
<g id="node6" class="node">
<title>2</title>
<ellipse fill="none" stroke="black" cx="382.02" cy="-76.13" rx="18" ry="18"/>
<text text-anchor="middle" x="382.02" y="-71.08" font-family="Times,serif" font-size="14.00">2</text>
</g>
<!-- 2&#45;&gt;1 -->
<g id="edge4" class="edge">
<title>2&#45;&gt;1</title>
<path fill="none" stroke="black" d="M400.43,-76.13C410.77,-76.13 424.21,-76.13 436.46,-76.13"/>
<polygon fill="black" stroke="black" points="436.17,-79.63 446.17,-76.13 436.17,-72.63 436.17,-79.63"/>
<text text-anchor="middle" x="424.02" y="-79.33" font-family="Times,serif" font-size="14.00">eps</text>
</g>
<!-- 3 -->
<g id="node7" class="node">
<title>3</title>
<ellipse fill="none" stroke="black" cx="288.27" cy="-130.13" rx="18" ry="18"/>
<text text-anchor="middle" x="288.27" y="-125.08" font-family="Times,serif" font-size="14.00">3</text>
</g>
<!-- 3&#45;&gt;2 -->
<g id="edge5" class="edge">
<title>3&#45;&gt;2</title>
<path fill="none" stroke="black" d="M304.68,-122.04C316.86,-115.54 334.21,-106.07 349.02,-97.13 351.65,-95.55 354.38,-93.85 357.08,-92.13"/>
<polygon fill="black" stroke="black" points="358.78,-95.2 365.25,-86.81 354.96,-89.33 358.78,-95.2"/>
<text text-anchor="middle" x="335.15" y="-115.33" font-family="Times,serif" font-size="14.00">d/0.2</text>
</g>
<!-- 4 -->
<g id="node8" class="node">
<title>4</title>
<ellipse fill="none" stroke="black" cx="288.27" cy="-22.13" rx="18" ry="18"/>
<text text-anchor="middle" x="288.27" y="-17.08" font-family="Times,serif" font-size="14.00">4</text>
</g>
<!-- 4&#45;&gt;2 -->
<g id="edge6" class="edge">
<title>4&#45;&gt;2</title>
<path fill="none" stroke="black" d="M304.64,-30.42C316.8,-37.06 334.14,-46.7 349.02,-55.63 351.64,-57.2 354.35,-58.87 357.04,-60.55"/>
<polygon fill="black" stroke="black" points="354.89,-63.33 365.2,-65.75 358.65,-57.43 354.89,-63.33"/>
<text text-anchor="middle" x="335.15" y="-59.33" font-family="Times,serif" font-size="14.00">c/0.3</text>
</g>
<!-- 5 -->
<g id="node9" class="node">
<title>5</title>
<ellipse fill="none" stroke="black" cx="288.27" cy="-76.13" rx="18" ry="18"/>
<text text-anchor="middle" x="288.27" y="-71.08" font-family="Times,serif" font-size="14.00">5</text>
</g>
<!-- 5&#45;&gt;2 -->
<g id="edge7" class="edge">
<title>5&#45;&gt;2</title>
<path fill="none" stroke="black" d="M306.53,-76.13C319.39,-76.13 337.25,-76.13 352.26,-76.13"/>
<polygon fill="black" stroke="black" points="352.02,-79.63 362.02,-76.13 352.02,-72.63 352.02,-79.63"/>
<text text-anchor="middle" x="335.15" y="-79.33" font-family="Times,serif" font-size="14.00">d/0.2</text>
</g>
<!-- 6&#45;&gt;3 -->
<g id="edge8" class="edge">
<title>6&#45;&gt;3</title>
<path fill="none" stroke="black" d="M210.61,-130.13C224.03,-130.13 242.94,-130.13 258.63,-130.13"/>
<polygon fill="black" stroke="black" points="258.33,-133.63 268.33,-130.13 258.33,-126.63 258.33,-133.63"/>
<text text-anchor="middle" x="241.4" y="-133.33" font-family="Times,serif" font-size="14.00">a/0.1</text>
</g>
<!-- 7&#45;&gt;5 -->
<g id="edge9" class="edge">
<title>7&#45;&gt;5</title>
<path fill="none" stroke="black" d="M210.61,-76.13C224.03,-76.13 242.94,-76.13 258.63,-76.13"/>
<polygon fill="black" stroke="black" points="258.33,-79.63 268.33,-76.13 258.33,-72.63 258.33,-79.63"/>
<text text-anchor="middle" x="241.4" y="-79.33" font-family="Times,serif" font-size="14.00">b/0.1</text>
</g>
<!-- 10&#45;&gt;4 -->
<g id="edge12" class="edge">
<title>10&#45;&gt;4</title>
<path fill="none" stroke="black" d="M212.85,-20.55C226.15,-20.83 244.01,-21.21 258.9,-21.53"/>
<polygon fill="black" stroke="black" points="258.47,-25.02 268.54,-21.73 258.62,-18.02 258.47,-25.02"/>
<text text-anchor="middle" x="241.4" y="-25.33" font-family="Times,serif" font-size="14.00">b/0.1</text>
</g>
</g>
</svg>
