<?xml version="1.0" encoding="UTF-8" standalone="no"?>
<!DOCTYPE svg PUBLIC "-//W3C//DTD SVG 1.1//EN"
 "http://www.w3.org/Graphics/SVG/1.1/DTD/svg11.dtd">
<!-- Generated by graphviz version 9.0.0 (20230911.1827)
 -->
<!-- Title: FST Pages: 1 -->
<svg width="491pt" height="52pt"
 viewBox="0.00 0.00 490.75 52.00" xmlns="http://www.w3.org/2000/svg" xmlns:xlink="http://www.w3.org/1999/xlink">
<g id="graph0" class="graph" transform="scale(1 1) rotate(0) translate(4 48)">
<title>FST</title>
<polygon fill="white" stroke="none" points="-4,4 -4,-48 486.75,-48 486.75,4 -4,4"/>
<!-- 0 -->
<g id="node1" class="node">
<title>0</title>
<ellipse fill="none" stroke="black" stroke-width="2" cx="18" cy="-22" rx="18" ry="18"/>
<text text-anchor="middle" x="18" y="-16.95" font-family="Times,serif" font-size="14.00">0</text>
</g>
<!-- 1 -->
<g id="node2" class="node">
<title>1</title>
<ellipse fill="none" stroke="black" cx="102" cy="-22" rx="18" ry="18"/>
<text text-anchor="middle" x="102" y="-16.95" font-family="Times,serif" font-size="14.00">1</text>
</g>
<!-- 0&#45;&gt;1 -->
<g id="edge1" class="edge">
<title>0&#45;&gt;1</title>
<path fill="none" stroke="black" d="M36.39,-22C46.83,-22 60.36,-22 72.34,-22"/>
<polygon fill="black" stroke="black" points="72.12,-25.5 82.12,-22 72.12,-18.5 72.12,-25.5"/>
<text text-anchor="middle" x="60" y="-25.2" font-family="Times,serif" font-size="14.00">eps</text>
</g>
<!-- 2 -->
<g id="node3" class="node">
<title>2</title>
<ellipse fill="none" stroke="black" cx="186" cy="-22" rx="18" ry="18"/>
<text text-anchor="middle" x="186" y="-16.95" font-family="Times,serif" font-size="14.00">2</text>
</g>
<!-- 1&#45;&gt;2 -->
<g id="edge2" class="edge">
<title>1&#45;&gt;2</title>
<path fill="none" stroke="black" d="M120.39,-22C130.83,-22 144.36,-22 156.34,-22"/>
<polygon fill="black" stroke="black" points="156.12,-25.5 166.12,-22 156.12,-18.5 156.12,-25.5"/>
<text text-anchor="middle" x="144" y="-25.2" font-family="Times,serif" font-size="14.00">eps</text>
</g>
<!-- 3 -->
<g id="node4" class="node">
<title>3</title>
<ellipse fill="none" stroke="black" cx="279.75" cy="-22" rx="18" ry="18"/>
<text text-anchor="middle" x="279.75" y="-16.95" font-family="Times,serif" font-size="14.00">3</text>
</g>
<!-- 2&#45;&gt;3 -->
<g id="edge3" class="edge">
<title>2&#45;&gt;3</title>
<path fill="none" stroke="black" d="M204.26,-22C217.12,-22 234.98,-22 249.98,-22"/>
<polygon fill="black" stroke="black" points="249.74,-25.5 259.74,-22 249.74,-18.5 249.74,-25.5"/>
<text text-anchor="middle" x="232.88" y="-25.2" font-family="Times,serif" font-size="14.00">b/0.1</text>
</g>
<!-- 4 -->
<g id="node5" class="node">
<title>4</title>
<ellipse fill="none" stroke="black" cx="372.75" cy="-22" rx="18" ry="18"/>
<text text-anchor="middle" x="372.75" y="-16.95" font-family="Times,serif" font-size="14.00">4</text>
</g>
<!-- 3&#45;&gt;4 -->
<g id="edge4" class="edge">
<title>3&#45;&gt;4</title>
<path fill="none" stroke="black" d="M297.87,-22C310.62,-22 328.33,-22 343.22,-22"/>
<polygon fill="black" stroke="black" points="342.89,-25.5 352.89,-22 342.89,-18.5 342.89,-25.5"/>
<text text-anchor="middle" x="326.25" y="-25.2" font-family="Times,serif" font-size="14.00">c/0.3</text>
</g>
<!-- 5 -->
<g id="node6" class="node">
<title>5</title>
<ellipse fill="none" stroke="black" cx="460.75" cy="-22" rx="18" ry="18"/>
<ellipse fill="none" stroke="black" cx="460.75" cy="-22" rx="22" ry="22"/>
<text text-anchor="middle" x="460.75" y="-16.95" font-family="Times,serif" font-size="14.00">5</text>
</g>
<!-- 4&#45;&gt;5 -->
<g id="edge5" class="edge">
<title>4&#45;&gt;5</title>
<path fill="none" stroke="black" d="M391.15,-22C401.49,-22 414.94,-22 427.18,-22"/>
<polygon fill="black" stroke="black" points="426.9,-25.5 436.9,-22 426.9,-18.5 426.9,-25.5"/>
<text text-anchor="middle" x="414.75" y="-25.2" font-family="Times,serif" font-size="14.00">eps</text>
</g>
</g>
</svg>
