<?xml version="1.0" encoding="UTF-8" standalone="no"?>
<!DOCTYPE svg PUBLIC "-//W3C//DTD SVG 1.1//EN"
 "http://www.w3.org/Graphics/SVG/1.1/DTD/svg11.dtd">
<!-- Generated by graphviz version 9.0.0 (20230911.1827)
 -->
<!-- Title: FST Pages: 1 -->
<svg width="240pt" height="110pt"
 viewBox="0.00 0.00 239.50 109.50" xmlns="http://www.w3.org/2000/svg" xmlns:xlink="http://www.w3.org/1999/xlink">
<g id="graph0" class="graph" transform="scale(1 1) rotate(0) translate(4 105.5)">
<title>FST</title>
<polygon fill="white" stroke="none" points="-4,4 -4,-105.5 235.5,-105.5 235.5,4 -4,4"/>
<!-- 0 -->
<g id="node1" class="node">
<title>0</title>
<ellipse fill="none" stroke="black" stroke-width="2" cx="18" cy="-45" rx="18" ry="18"/>
<text text-anchor="middle" x="18" y="-39.95" font-family="Times,serif" font-size="14.00">0</text>
</g>
<!-- 1 -->
<g id="node2" class="node">
<title>1</title>
<ellipse fill="none" stroke="black" cx="111.75" cy="-72" rx="18" ry="18"/>
<text text-anchor="middle" x="111.75" y="-66.95" font-family="Times,serif" font-size="14.00">1</text>
</g>
<!-- 0&#45;&gt;1 -->
<g id="edge1" class="edge">
<title>0&#45;&gt;1</title>
<path fill="none" stroke="black" d="M35.4,-49.83C48.76,-53.76 67.89,-59.39 83.54,-63.99"/>
<polygon fill="black" stroke="black" points="82.15,-67.23 92.73,-66.7 84.12,-60.52 82.15,-67.23"/>
<text text-anchor="middle" x="64.88" y="-66.2" font-family="Times,serif" font-size="14.00">a/0.1</text>
</g>
<!-- 2 -->
<g id="node3" class="node">
<title>2</title>
<ellipse fill="none" stroke="black" cx="111.75" cy="-18" rx="18" ry="18"/>
<text text-anchor="middle" x="111.75" y="-12.95" font-family="Times,serif" font-size="14.00">2</text>
</g>
<!-- 0&#45;&gt;2 -->
<g id="edge2" class="edge">
<title>0&#45;&gt;2</title>
<path fill="none" stroke="black" d="M35.56,-39.4C40.51,-37.77 45.96,-36.02 51,-34.5 61.37,-31.37 72.82,-28.15 82.89,-25.4"/>
<polygon fill="black" stroke="black" points="83.75,-28.79 92.49,-22.81 81.92,-22.03 83.75,-28.79"/>
<text text-anchor="middle" x="64.88" y="-38.2" font-family="Times,serif" font-size="14.00">b/0.1</text>
</g>
<!-- 3 -->
<g id="node4" class="node">
<title>3</title>
<ellipse fill="none" stroke="black" cx="209.5" cy="-45" rx="18" ry="18"/>
<ellipse fill="none" stroke="black" cx="209.5" cy="-45" rx="22" ry="22"/>
<text text-anchor="middle" x="209.5" y="-39.95" font-family="Times,serif" font-size="14.00">3</text>
</g>
<!-- 1&#45;&gt;3 -->
<g id="edge3" class="edge">
<title>1&#45;&gt;3</title>
<path fill="none" stroke="black" d="M128.53,-79.72C140.91,-84.65 158.35,-89.08 172.5,-83 178.7,-80.33 184.34,-76.01 189.21,-71.22"/>
<polygon fill="black" stroke="black" points="191.57,-73.83 195.65,-64.05 186.37,-69.15 191.57,-73.83"/>
<text text-anchor="middle" x="158.62" y="-88.2" font-family="Times,serif" font-size="14.00">c/0.4</text>
</g>
<!-- 1&#45;&gt;3 -->
<g id="edge4" class="edge">
<title>1&#45;&gt;3</title>
<path fill="none" stroke="black" d="M129.34,-67C134.29,-65.53 139.73,-63.93 144.75,-62.5 155.17,-59.52 166.58,-56.36 176.83,-53.55"/>
<polygon fill="black" stroke="black" points="177.61,-56.97 186.34,-50.96 175.77,-50.22 177.61,-56.97"/>
<text text-anchor="middle" x="158.62" y="-66.2" font-family="Times,serif" font-size="14.00">d/0.2</text>
</g>
<!-- 2&#45;&gt;3 -->
<g id="edge5" class="edge">
<title>2&#45;&gt;3</title>
<path fill="none" stroke="black" d="M129.43,-22.7C142.54,-26.4 161.17,-31.65 177.05,-36.13"/>
<polygon fill="black" stroke="black" points="175.99,-39.47 186.56,-38.81 177.89,-32.73 175.99,-39.47"/>
<text text-anchor="middle" x="158.62" y="-38.2" font-family="Times,serif" font-size="14.00">c/0.3</text>
</g>
<!-- 2&#45;&gt;3 -->
<g id="edge6" class="edge">
<title>2&#45;&gt;3</title>
<path fill="none" stroke="black" d="M128.53,-10.51C140.91,-5.73 158.35,-1.47 172.5,-7.5 178.42,-10.02 183.83,-14.04 188.56,-18.54"/>
<polygon fill="black" stroke="black" points="185.91,-20.83 195.27,-25.8 191.05,-16.08 185.91,-20.83"/>
<text text-anchor="middle" x="158.62" y="-11.2" font-family="Times,serif" font-size="14.00">d/0.2</text>
</g>
</g>
</svg>
