<?xml version="1.0" encoding="UTF-8" standalone="no"?>
<!DOCTYPE svg PUBLIC "-//W3C//DTD SVG 1.1//EN"
 "http://www.w3.org/Graphics/SVG/1.1/DTD/svg11.dtd">
<!-- Generated by graphviz version 9.0.0 (20230911.1827)
 -->
<!-- Title: FST Pages: 1 -->
<svg width="492pt" height="98pt"
 viewBox="0.00 0.00 491.50 98.00" xmlns="http://www.w3.org/2000/svg" xmlns:xlink="http://www.w3.org/1999/xlink">
<g id="graph0" class="graph" transform="scale(1 1) rotate(0) translate(4 94)">
<title>FST</title>
<polygon fill="white" stroke="none" points="-4,4 -4,-94 487.5,-94 487.5,4 -4,4"/>
<!-- 0 -->
<g id="node1" class="node">
<title>0</title>
<ellipse fill="none" stroke="black" stroke-width="2" cx="18" cy="-45" rx="18" ry="18"/>
<text text-anchor="middle" x="18" y="-39.95" font-family="Times,serif" font-size="14.00">0</text>
</g>
<!-- 7 -->
<g id="node2" class="node">
<title>7</title>
<ellipse fill="none" stroke="black" cx="102" cy="-72" rx="18" ry="18"/>
<text text-anchor="middle" x="102" y="-66.95" font-family="Times,serif" font-size="14.00">7</text>
</g>
<!-- 0&#45;&gt;7 -->
<g id="edge1" class="edge">
<title>0&#45;&gt;7</title>
<path fill="none" stroke="black" d="M35.59,-50.46C46.49,-54.05 60.99,-58.83 73.57,-62.97"/>
<polygon fill="black" stroke="black" points="72.4,-66.27 82.99,-66.07 74.59,-59.62 72.4,-66.27"/>
<text text-anchor="middle" x="60" y="-63.2" font-family="Times,serif" font-size="14.00">eps</text>
</g>
<!-- 8 -->
<g id="node3" class="node">
<title>8</title>
<ellipse fill="none" stroke="black" cx="102" cy="-18" rx="18" ry="18"/>
<text text-anchor="middle" x="102" y="-12.95" font-family="Times,serif" font-size="14.00">8</text>
</g>
<!-- 0&#45;&gt;8 -->
<g id="edge2" class="edge">
<title>0&#45;&gt;8</title>
<path fill="none" stroke="black" d="M35.59,-39.54C46.49,-35.95 60.99,-31.17 73.57,-27.03"/>
<polygon fill="black" stroke="black" points="74.59,-30.38 82.99,-23.93 72.4,-23.73 74.59,-30.38"/>
<text text-anchor="middle" x="60" y="-37.2" font-family="Times,serif" font-size="14.00">eps</text>
</g>
<!-- 5 -->
<g id="node8" class="node">
<title>5</title>
<ellipse fill="none" stroke="black" cx="186" cy="-72" rx="18" ry="18"/>
<text text-anchor="middle" x="186" y="-66.95" font-family="Times,serif" font-size="14.00">5</text>
</g>
<!-- 7&#45;&gt;5 -->
<g id="edge8" class="edge">
<title>7&#45;&gt;5</title>
<path fill="none" stroke="black" d="M120.39,-72C130.83,-72 144.36,-72 156.34,-72"/>
<polygon fill="black" stroke="black" points="156.12,-75.5 166.12,-72 156.12,-68.5 156.12,-75.5"/>
<text text-anchor="middle" x="144" y="-75.2" font-family="Times,serif" font-size="14.00">eps</text>
</g>
<!-- 6 -->
<g id="node9" class="node">
<title>6</title>
<ellipse fill="none" stroke="black" cx="186" cy="-18" rx="18" ry="18"/>
<text text-anchor="middle" x="186" y="-12.95" font-family="Times,serif" font-size="14.00">6</text>
</g>
<!-- 8&#45;&gt;6 -->
<g id="edge9" class="edge">
<title>8&#45;&gt;6</title>
<path fill="none" stroke="black" d="M120.39,-18C130.83,-18 144.36,-18 156.34,-18"/>
<polygon fill="black" stroke="black" points="156.12,-21.5 166.12,-18 156.12,-14.5 156.12,-21.5"/>
<text text-anchor="middle" x="144" y="-21.2" font-family="Times,serif" font-size="14.00">eps</text>
</g>
<!-- 1 -->
<g id="node4" class="node">
<title>1</title>
<ellipse fill="none" stroke="black" cx="461.5" cy="-45" rx="18" ry="18"/>
<ellipse fill="none" stroke="black" cx="461.5" cy="-45" rx="22" ry="22"/>
<text text-anchor="middle" x="461.5" y="-39.95" font-family="Times,serif" font-size="14.00">1</text>
</g>
<!-- 2 -->
<g id="node5" class="node">
<title>2</title>
<ellipse fill="none" stroke="black" cx="373.5" cy="-45" rx="18" ry="18"/>
<text text-anchor="middle" x="373.5" y="-39.95" font-family="Times,serif" font-size="14.00">2</text>
</g>
<!-- 2&#45;&gt;1 -->
<g id="edge3" class="edge">
<title>2&#45;&gt;1</title>
<path fill="none" stroke="black" d="M391.9,-45C402.24,-45 415.69,-45 427.93,-45"/>
<polygon fill="black" stroke="black" points="427.65,-48.5 437.65,-45 427.65,-41.5 427.65,-48.5"/>
<text text-anchor="middle" x="415.5" y="-48.2" font-family="Times,serif" font-size="14.00">eps</text>
</g>
<!-- 3 -->
<g id="node6" class="node">
<title>3</title>
<ellipse fill="none" stroke="black" cx="279.75" cy="-72" rx="18" ry="18"/>
<text text-anchor="middle" x="279.75" y="-66.95" font-family="Times,serif" font-size="14.00">3</text>
</g>
<!-- 3&#45;&gt;2 -->
<g id="edge4" class="edge">
<title>3&#45;&gt;2</title>
<path fill="none" stroke="black" d="M297.15,-67.17C310.51,-63.24 329.64,-57.61 345.29,-53.01"/>
<polygon fill="black" stroke="black" points="345.87,-56.48 354.48,-50.3 343.9,-49.77 345.87,-56.48"/>
<text text-anchor="middle" x="326.62" y="-65.2" font-family="Times,serif" font-size="14.00">d/0.2</text>
</g>
<!-- 4 -->
<g id="node7" class="node">
<title>4</title>
<ellipse fill="none" stroke="black" cx="279.75" cy="-18" rx="18" ry="18"/>
<text text-anchor="middle" x="279.75" y="-12.95" font-family="Times,serif" font-size="14.00">4</text>
</g>
<!-- 4&#45;&gt;2 -->
<g id="edge5" class="edge">
<title>4&#45;&gt;2</title>
<path fill="none" stroke="black" d="M297.55,-22.41C309.56,-25.62 326.08,-30.14 340.5,-34.5 342.07,-34.98 343.69,-35.47 345.32,-35.98"/>
<polygon fill="black" stroke="black" points="343.91,-39.21 354.5,-38.94 346.05,-32.54 343.91,-39.21"/>
<text text-anchor="middle" x="326.62" y="-38.2" font-family="Times,serif" font-size="14.00">d/0.2</text>
</g>
<!-- 5&#45;&gt;3 -->
<g id="edge6" class="edge">
<title>5&#45;&gt;3</title>
<path fill="none" stroke="black" d="M204.26,-72C217.12,-72 234.98,-72 249.98,-72"/>
<polygon fill="black" stroke="black" points="249.74,-75.5 259.74,-72 249.74,-68.5 249.74,-75.5"/>
<text text-anchor="middle" x="232.88" y="-75.2" font-family="Times,serif" font-size="14.00">a/0.1</text>
</g>
<!-- 6&#45;&gt;4 -->
<g id="edge7" class="edge">
<title>6&#45;&gt;4</title>
<path fill="none" stroke="black" d="M204.26,-18C217.12,-18 234.98,-18 249.98,-18"/>
<polygon fill="black" stroke="black" points="249.74,-21.5 259.74,-18 249.74,-14.5 249.74,-21.5"/>
<text text-anchor="middle" x="232.88" y="-21.2" font-family="Times,serif" font-size="14.00">b/0.1</text>
</g>
</g>
</svg>
