<?xml version="1.0" encoding="UTF-8" standalone="no"?>
<!DOCTYPE svg PUBLIC "-//W3C//DTD SVG 1.1//EN"
 "http://www.w3.org/Graphics/SVG/1.1/DTD/svg11.dtd">
<!-- Generated by graphviz version 2.43.0 (0)
 -->
<!-- Title: FST Pages: 1 -->
<svg width="257pt" height="52pt"
 viewBox="0.00 0.00 257.00 52.00" xmlns="http://www.w3.org/2000/svg" xmlns:xlink="http://www.w3.org/1999/xlink">
<g id="graph0" class="graph" transform="scale(1 1) rotate(0) translate(4 48)">
<title>FST</title>
<polygon fill="white" stroke="transparent" points="-4,4 -4,-48 253,-48 253,4 -4,4"/>
<!-- 2 -->
<g id="node1" class="node">
<title>2</title>
<ellipse fill="none" stroke="black" stroke-width="2" cx="18" cy="-22" rx="18" ry="18"/>
<text text-anchor="middle" x="18" y="-18.3" font-family="Times,serif" font-size="14.00">2</text>
</g>
<!-- 1 -->
<g id="node2" class="node">
<title>1</title>
<ellipse fill="none" stroke="black" cx="120" cy="-22" rx="18" ry="18"/>
<text text-anchor="middle" x="120" y="-18.3" font-family="Times,serif" font-size="14.00">1</text>
</g>
<!-- 2&#45;&gt;1 -->
<g id="edge1" class="edge">
<title>2&#45;&gt;1</title>
<path fill="none" stroke="black" d="M36.42,-22C51.62,-22 73.93,-22 91.54,-22"/>
<polygon fill="black" stroke="black" points="91.78,-25.5 101.78,-22 91.78,-18.5 91.78,-25.5"/>
<text text-anchor="middle" x="69" y="-25.8" font-family="Times,serif" font-size="14.00">a/0.1</text>
</g>
<!-- 0 -->
<g id="node3" class="node">
<title>0</title>
<ellipse fill="none" stroke="black" cx="227" cy="-22" rx="18" ry="18"/>
<ellipse fill="none" stroke="black" cx="227" cy="-22" rx="22" ry="22"/>
<text text-anchor="middle" x="227" y="-18.3" font-family="Times,serif" font-size="14.00">0</text>
</g>
<!-- 1&#45;&gt;0 -->
<g id="edge2" class="edge">
<title>1&#45;&gt;0</title>
<path fill="none" stroke="black" d="M138.34,-22C153.6,-22 176.2,-22 194.63,-22"/>
<polygon fill="black" stroke="black" points="194.64,-25.5 204.64,-22 194.64,-18.5 194.64,-25.5"/>
<text text-anchor="middle" x="171.5" y="-25.8" font-family="Times,serif" font-size="14.00">d/0.2</text>
</g>
</g>
</svg>
