<?xml version="1.0" encoding="UTF-8" standalone="no"?>
<!DOCTYPE svg PUBLIC "-//W3C//DTD SVG 1.1//EN"
 "http://www.w3.org/Graphics/SVG/1.1/DTD/svg11.dtd">
<!-- Generated by graphviz version 2.43.0 (0)
 -->
<!-- Title: FST Pages: 1 -->
<svg width="550pt" height="162pt"
 viewBox="0.00 0.00 549.99 161.75" xmlns="http://www.w3.org/2000/svg" xmlns:xlink="http://www.w3.org/1999/xlink">
<g id="graph0" class="graph" transform="scale(1 1) rotate(0) translate(4 157.75)">
<title>FST</title>
<polygon fill="white" stroke="transparent" points="-4,4 -4,-157.75 545.99,-157.75 545.99,4 -4,4"/>
<!-- 0 -->
<g id="node1" class="node">
<title>0</title>
<ellipse fill="none" stroke="black" stroke-width="2" cx="18" cy="-81.75" rx="18" ry="18"/>
<text text-anchor="middle" x="18" y="-78.05" font-family="Times,serif" font-size="14.00">0</text>
</g>
<!-- 8 -->
<g id="node2" class="node">
<title>8</title>
<ellipse fill="none" stroke="black" cx="113.75" cy="-135.75" rx="18" ry="18"/>
<text text-anchor="middle" x="113.75" y="-132.05" font-family="Times,serif" font-size="14.00">8</text>
</g>
<!-- 0&#45;&gt;8 -->
<g id="edge1" class="edge">
<title>0&#45;&gt;8</title>
<path fill="none" stroke="black" d="M33.94,-90.7C39.31,-93.9 45.41,-97.51 51,-100.75 63.41,-107.95 77.3,-115.84 88.76,-122.3"/>
<polygon fill="black" stroke="black" points="87.3,-125.49 97.73,-127.35 90.73,-119.39 87.3,-125.49"/>
<text text-anchor="middle" x="63.5" y="-117.55" font-family="Times,serif" font-size="14.00">eps</text>
</g>
<!-- 9 -->
<g id="node3" class="node">
<title>9</title>
<ellipse fill="none" stroke="black" cx="113.75" cy="-81.75" rx="18" ry="18"/>
<text text-anchor="middle" x="113.75" y="-78.05" font-family="Times,serif" font-size="14.00">9</text>
</g>
<!-- 0&#45;&gt;9 -->
<g id="edge2" class="edge">
<title>0&#45;&gt;9</title>
<path fill="none" stroke="black" d="M36.19,-81.75C49.94,-81.75 69.46,-81.75 85.36,-81.75"/>
<polygon fill="black" stroke="black" points="85.66,-85.25 95.66,-81.75 85.66,-78.25 85.66,-85.25"/>
<text text-anchor="middle" x="63.5" y="-85.55" font-family="Times,serif" font-size="14.00">eps</text>
</g>
<!-- 11 -->
<g id="node4" class="node">
<title>11</title>
<ellipse fill="none" stroke="black" cx="113.75" cy="-22.75" rx="23" ry="23"/>
<text text-anchor="middle" x="113.75" y="-19.05" font-family="Times,serif" font-size="14.00">11</text>
</g>
<!-- 0&#45;&gt;11 -->
<g id="edge3" class="edge">
<title>0&#45;&gt;11</title>
<path fill="none" stroke="black" d="M33.65,-72.53C47.38,-63.89 68.26,-50.75 85.12,-40.14"/>
<polygon fill="black" stroke="black" points="87.4,-42.83 94,-34.55 83.67,-36.91 87.4,-42.83"/>
<text text-anchor="middle" x="63.5" y="-65.55" font-family="Times,serif" font-size="14.00">eps</text>
</g>
<!-- 6 -->
<g id="node10" class="node">
<title>6</title>
<ellipse fill="none" stroke="black" cx="214.24" cy="-135.75" rx="18" ry="18"/>
<text text-anchor="middle" x="214.24" y="-132.05" font-family="Times,serif" font-size="14.00">6</text>
</g>
<!-- 8&#45;&gt;6 -->
<g id="edge10" class="edge">
<title>8&#45;&gt;6</title>
<path fill="none" stroke="black" d="M131.9,-135.75C146.78,-135.75 168.59,-135.75 185.87,-135.75"/>
<polygon fill="black" stroke="black" points="185.95,-139.25 195.95,-135.75 185.95,-132.25 185.95,-139.25"/>
<text text-anchor="middle" x="164" y="-139.55" font-family="Times,serif" font-size="14.00">eps</text>
</g>
<!-- 7 -->
<g id="node11" class="node">
<title>7</title>
<ellipse fill="none" stroke="black" cx="214.24" cy="-81.75" rx="18" ry="18"/>
<text text-anchor="middle" x="214.24" y="-78.05" font-family="Times,serif" font-size="14.00">7</text>
</g>
<!-- 9&#45;&gt;7 -->
<g id="edge11" class="edge">
<title>9&#45;&gt;7</title>
<path fill="none" stroke="black" d="M131.9,-81.75C146.78,-81.75 168.59,-81.75 185.87,-81.75"/>
<polygon fill="black" stroke="black" points="185.95,-85.25 195.95,-81.75 185.95,-78.25 185.95,-85.25"/>
<text text-anchor="middle" x="164" y="-85.55" font-family="Times,serif" font-size="14.00">eps</text>
</g>
<!-- 10 -->
<g id="node12" class="node">
<title>10</title>
<ellipse fill="none" stroke="black" cx="214.24" cy="-22.75" rx="23" ry="23"/>
<text text-anchor="middle" x="214.24" y="-19.05" font-family="Times,serif" font-size="14.00">10</text>
</g>
<!-- 11&#45;&gt;10 -->
<g id="edge13" class="edge">
<title>11&#45;&gt;10</title>
<path fill="none" stroke="black" d="M136.61,-22.75C149.74,-22.75 166.69,-22.75 181.3,-22.75"/>
<polygon fill="black" stroke="black" points="181.45,-26.25 191.45,-22.75 181.45,-19.25 181.45,-26.25"/>
<text text-anchor="middle" x="164" y="-26.55" font-family="Times,serif" font-size="14.00">eps</text>
</g>
<!-- 1 -->
<g id="node5" class="node">
<title>1</title>
<ellipse fill="none" stroke="black" cx="519.99" cy="-81.75" rx="18" ry="18"/>
<ellipse fill="none" stroke="black" cx="519.99" cy="-81.75" rx="22" ry="22"/>
<text text-anchor="middle" x="519.99" y="-78.05" font-family="Times,serif" font-size="14.00">1</text>
</g>
<!-- 2 -->
<g id="node6" class="node">
<title>2</title>
<ellipse fill="none" stroke="black" cx="424.99" cy="-81.75" rx="18" ry="18"/>
<text text-anchor="middle" x="424.99" y="-78.05" font-family="Times,serif" font-size="14.00">2</text>
</g>
<!-- 2&#45;&gt;1 -->
<g id="edge4" class="edge">
<title>2&#45;&gt;1</title>
<path fill="none" stroke="black" d="M443.05,-81.75C455.46,-81.75 472.61,-81.75 487.48,-81.75"/>
<polygon fill="black" stroke="black" points="487.8,-85.25 497.8,-81.75 487.8,-78.25 487.8,-85.25"/>
<text text-anchor="middle" x="470.49" y="-85.55" font-family="Times,serif" font-size="14.00">eps</text>
</g>
<!-- 3 -->
<g id="node7" class="node">
<title>3</title>
<ellipse fill="none" stroke="black" cx="321.99" cy="-135.75" rx="18" ry="18"/>
<text text-anchor="middle" x="321.99" y="-132.05" font-family="Times,serif" font-size="14.00">3</text>
</g>
<!-- 3&#45;&gt;2 -->
<g id="edge5" class="edge">
<title>3&#45;&gt;2</title>
<path fill="none" stroke="black" d="M338.49,-128.25C352.58,-121.35 373.86,-110.71 391.99,-100.75 394.73,-99.24 397.58,-97.62 400.4,-95.99"/>
<polygon fill="black" stroke="black" points="402.29,-98.94 409.13,-90.85 398.74,-92.91 402.29,-98.94"/>
<text text-anchor="middle" x="373.49" y="-122.55" font-family="Times,serif" font-size="14.00">d/0.2</text>
</g>
<!-- 4 -->
<g id="node8" class="node">
<title>4</title>
<ellipse fill="none" stroke="black" cx="321.99" cy="-26.75" rx="18" ry="18"/>
<text text-anchor="middle" x="321.99" y="-23.05" font-family="Times,serif" font-size="14.00">4</text>
</g>
<!-- 4&#45;&gt;2 -->
<g id="edge6" class="edge">
<title>4&#45;&gt;2</title>
<path fill="none" stroke="black" d="M338.47,-34.52C352.54,-41.65 373.82,-52.62 391.99,-62.75 394.73,-64.27 397.57,-65.9 400.39,-67.54"/>
<polygon fill="black" stroke="black" points="398.72,-70.62 409.11,-72.68 402.28,-64.59 398.72,-70.62"/>
<text text-anchor="middle" x="373.49" y="-66.55" font-family="Times,serif" font-size="14.00">c/0.3</text>
</g>
<!-- 5 -->
<g id="node9" class="node">
<title>5</title>
<ellipse fill="none" stroke="black" cx="321.99" cy="-81.75" rx="18" ry="18"/>
<text text-anchor="middle" x="321.99" y="-78.05" font-family="Times,serif" font-size="14.00">5</text>
</g>
<!-- 5&#45;&gt;2 -->
<g id="edge7" class="edge">
<title>5&#45;&gt;2</title>
<path fill="none" stroke="black" d="M340.13,-81.75C355.58,-81.75 378.58,-81.75 396.58,-81.75"/>
<polygon fill="black" stroke="black" points="396.77,-85.25 406.77,-81.75 396.77,-78.25 396.77,-85.25"/>
<text text-anchor="middle" x="373.49" y="-85.55" font-family="Times,serif" font-size="14.00">d/0.2</text>
</g>
<!-- 6&#45;&gt;3 -->
<g id="edge8" class="edge">
<title>6&#45;&gt;3</title>
<path fill="none" stroke="black" d="M232.71,-135.75C249.26,-135.75 274.38,-135.75 293.6,-135.75"/>
<polygon fill="black" stroke="black" points="293.85,-139.25 303.85,-135.75 293.85,-132.25 293.85,-139.25"/>
<text text-anchor="middle" x="270.49" y="-139.55" font-family="Times,serif" font-size="14.00">a/0.1</text>
</g>
<!-- 7&#45;&gt;5 -->
<g id="edge9" class="edge">
<title>7&#45;&gt;5</title>
<path fill="none" stroke="black" d="M232.71,-81.75C249.26,-81.75 274.38,-81.75 293.6,-81.75"/>
<polygon fill="black" stroke="black" points="293.85,-85.25 303.85,-81.75 293.85,-78.25 293.85,-85.25"/>
<text text-anchor="middle" x="270.49" y="-85.55" font-family="Times,serif" font-size="14.00">b/0.1</text>
</g>
<!-- 10&#45;&gt;4 -->
<g id="edge12" class="edge">
<title>10&#45;&gt;4</title>
<path fill="none" stroke="black" d="M237.15,-23.58C253.59,-24.2 276.18,-25.05 293.77,-25.72"/>
<polygon fill="black" stroke="black" points="293.85,-29.22 303.98,-26.1 294.12,-22.23 293.85,-29.22"/>
<text text-anchor="middle" x="270.49" y="-29.55" font-family="Times,serif" font-size="14.00">b/0.1</text>
</g>
</g>
</svg>
